<svg width="1110" height="252" viewBox="0 0 1110 252" fill="none" xmlns="http://www.w3.org/2000/svg">
<rect width="1110" height="252" rx="5" fill="white"/>
<rect x="0.5" y="0.5" width="1109" height="251" rx="4.5" stroke="black" stroke-opacity="0.24"/>
<rect x="82" y="77" width="62" height="103" fill="#E3E1FF"/>
<path d="M124.394 103.789L123.561 103.236L122.668 104.581L124.27 104.781L124.394 103.789ZM145.558 71.9L146.391 72.453L147.422 70.9H145.558V71.9ZM116.529 71.9V70.9H115.982L115.687 71.3604L116.529 71.9ZM86.9277 118.089L87.747 118.662L87.7587 118.646L87.7697 118.629L86.9277 118.089ZM125.227 104.342L146.391 72.453L144.725 71.347L123.561 103.236L125.227 104.342ZM145.558 70.9H116.529V72.9H145.558V70.9ZM115.687 71.3604L86.0858 117.549L87.7697 118.629L117.371 72.4396L115.687 71.3604ZM86.1085 117.516C81.9825 123.41 79.6357 130.618 79.6357 138.824H81.6357C81.6357 131.014 83.8649 124.208 87.747 118.662L86.1085 117.516ZM79.6357 138.824C79.6357 149.443 83.486 158.544 90.3171 164.988C97.1441 171.427 106.876 175.145 118.531 175.145V173.145C107.305 173.145 98.0898 169.57 91.6894 163.533C85.2929 157.499 81.6357 148.94 81.6357 138.824H79.6357ZM118.531 175.145C130.115 175.145 139.846 171.426 146.69 164.988C153.538 158.547 157.426 149.445 157.426 138.824H155.426C155.426 148.938 151.735 157.497 145.319 163.532C138.9 169.571 129.684 173.145 118.531 173.145V175.145ZM157.426 138.824C157.426 129.156 154.199 120.758 148.441 114.465C142.684 108.173 134.448 104.038 124.518 102.797L124.27 104.781C133.787 105.971 141.567 109.915 146.965 115.815C152.36 121.712 155.426 129.616 155.426 138.824H157.426ZM118.531 149.693C115.286 149.693 112.468 148.747 110.475 146.963C108.497 145.193 107.233 142.511 107.233 138.824H105.233C105.233 143.002 106.685 146.255 109.141 148.453C111.58 150.637 114.911 151.693 118.531 151.693V149.693ZM107.233 138.824C107.233 135.136 108.498 132.415 110.481 130.608C112.478 128.788 115.295 127.812 118.531 127.812V125.812C114.903 125.812 111.571 126.909 109.134 129.129C106.684 131.362 105.233 134.647 105.233 138.824H107.233ZM118.531 127.812C121.767 127.812 124.584 128.788 126.58 130.608C128.563 132.415 129.829 135.136 129.829 138.824H131.829C131.829 134.647 130.377 131.362 127.927 129.129C125.491 126.909 122.159 125.812 118.531 125.812V127.812ZM129.829 138.824C129.829 142.435 128.567 145.121 126.583 146.912C124.586 148.716 121.767 149.693 118.531 149.693V151.693C122.159 151.693 125.489 150.596 127.924 148.396C130.374 146.184 131.829 142.935 131.829 138.824H129.829Z" fill="black"/>
<path d="M133.394 111.789L154.558 79.9H125.529L95.9277 126.089C91.9237 131.809 89.6357 138.816 89.6357 146.824C89.6357 167.559 104.651 182.145 127.531 182.145C150.268 182.145 165.426 167.559 165.426 146.824C165.426 127.948 152.842 114.22 133.394 111.789ZM127.531 158.693C120.667 158.693 115.233 154.689 115.233 146.824C115.233 138.959 120.667 134.812 127.531 134.812C134.395 134.812 139.829 138.959 139.829 146.824C139.829 154.546 134.395 158.693 127.531 158.693Z" fill="black"/>
<path d="M255.281 120L250.438 107.344H250.359C250.451 108.346 250.496 109.538 250.496 110.918V120H248.963V105.723H251.463L255.984 117.5H256.062L260.623 105.723H263.104V120H261.443V110.801C261.443 109.746 261.489 108.6 261.58 107.363H261.502L256.619 120H255.281ZM272.049 113.74V115.117H270.604C268.579 115.117 267.566 115.752 267.566 117.021C267.566 117.607 267.804 118.06 268.279 118.379C268.761 118.698 269.477 118.857 270.428 118.857C270.975 118.857 271.518 118.796 272.059 118.672C272.599 118.542 273.195 118.324 273.846 118.018V119.463C272.954 119.951 271.788 120.195 270.35 120.195C268.982 120.195 267.905 119.922 267.117 119.375C266.336 118.822 265.945 118.063 265.945 117.1C265.945 116.462 266.124 115.931 266.482 115.508C266.84 115.078 267.443 114.73 268.289 114.463V114.355C267.651 114.173 267.156 113.877 266.805 113.467C266.46 113.05 266.287 112.542 266.287 111.943C266.287 111.077 266.652 110.387 267.381 109.873C268.11 109.359 269.1 109.102 270.35 109.102C270.981 109.102 271.564 109.157 272.098 109.268C272.638 109.372 273.234 109.57 273.885 109.863L273.27 111.162C272.658 110.889 272.14 110.706 271.717 110.615C271.294 110.524 270.825 110.479 270.311 110.479C268.683 110.479 267.869 111.006 267.869 112.061C267.869 113.18 268.901 113.74 270.965 113.74H272.049ZM288.709 109.297V110.684H284.49V116.719C284.49 118.171 285.158 118.896 286.492 118.896C286.798 118.896 287.111 118.877 287.43 118.838C287.749 118.792 287.996 118.747 288.172 118.701V119.922C287.944 120.02 287.648 120.098 287.283 120.156C286.925 120.215 286.59 120.244 286.277 120.244C285.099 120.244 284.233 119.967 283.68 119.414C283.126 118.861 282.85 118.031 282.85 116.924V110.684H279.949V109.961L281.395 109.297H288.709ZM298.289 124.805V113.076C298.289 112.204 298.09 111.553 297.693 111.123C297.296 110.693 296.674 110.479 295.828 110.479C294.708 110.479 293.888 110.781 293.367 111.387C292.846 111.992 292.586 112.992 292.586 114.385V120H290.965V109.297H292.283L292.547 110.762H292.625C292.957 110.234 293.423 109.827 294.021 109.541C294.62 109.248 295.288 109.102 296.023 109.102C297.312 109.102 298.283 109.414 298.934 110.039C299.585 110.658 299.91 111.65 299.91 113.018V124.805H298.289ZM306.59 120L311.209 109.463L310.643 107.881C310.447 107.327 310.268 106.937 310.105 106.709C309.943 106.481 309.751 106.309 309.529 106.191C309.314 106.074 309.048 106.016 308.729 106.016C308.351 106.016 307.977 106.058 307.605 106.143V104.844C308.048 104.733 308.475 104.678 308.885 104.678C309.477 104.678 309.969 104.775 310.359 104.971C310.757 105.166 311.098 105.475 311.385 105.898C311.671 106.322 311.99 107.028 312.342 108.018L315.887 117.9C316.01 118.219 316.141 118.464 316.277 118.633C316.414 118.796 316.596 118.877 316.824 118.877C317 118.877 317.195 118.844 317.41 118.779V119.961C317.098 120.117 316.743 120.195 316.346 120.195C315.864 120.195 315.486 120.072 315.213 119.824C314.946 119.577 314.718 119.183 314.529 118.643L313.006 114.385C312.459 112.822 312.114 111.729 311.971 111.104H311.883C311.701 111.859 311.323 112.917 310.75 114.277L308.27 120H306.59ZM326.453 124.805V113.076C326.453 112.204 326.255 111.553 325.857 111.123C325.46 110.693 324.839 110.479 323.992 110.479C322.872 110.479 322.052 110.781 321.531 111.387C321.01 111.992 320.75 112.992 320.75 114.385V120H319.129V109.297H320.447L320.711 110.762H320.789C321.121 110.234 321.587 109.827 322.186 109.541C322.785 109.248 323.452 109.102 324.188 109.102C325.477 109.102 326.447 109.414 327.098 110.039C327.749 110.658 328.074 111.65 328.074 113.018V124.805H326.453ZM322.947 107.598C323.123 107.129 323.296 106.527 323.465 105.791C323.641 105.049 323.768 104.411 323.846 103.877H325.643V104.102C325.525 104.583 325.288 105.212 324.93 105.986C324.578 106.755 324.243 107.386 323.924 107.881H322.947V107.598ZM338.074 104.824V118.799C339.298 118.701 340.239 118.278 340.896 117.529C341.561 116.774 341.893 115.732 341.893 114.404C341.893 113.623 341.85 112.852 341.766 112.09C341.681 111.322 341.518 110.391 341.277 109.297H342.898C343.309 111.068 343.514 112.747 343.514 114.336C343.514 116.133 343.048 117.529 342.117 118.525C341.193 119.521 339.845 120.072 338.074 120.176V124.805H336.473V120.176C334.754 120.117 333.462 119.616 332.596 118.672C331.73 117.728 331.297 116.37 331.297 114.6V109.297H332.918V114.658C332.918 115.928 333.211 116.917 333.797 117.627C334.383 118.337 335.275 118.734 336.473 118.818V104.824H338.074ZM353.797 124.805V113.076C353.797 112.204 353.598 111.553 353.201 111.123C352.804 110.693 352.182 110.479 351.336 110.479C350.216 110.479 349.396 110.781 348.875 111.387C348.354 111.992 348.094 112.992 348.094 114.385V120H346.473V109.297H347.791L348.055 110.762H348.133C348.465 110.234 348.93 109.827 349.529 109.541C350.128 109.248 350.796 109.102 351.531 109.102C352.82 109.102 353.79 109.414 354.441 110.039C355.092 110.658 355.418 111.65 355.418 113.018V124.805H353.797ZM371.17 109.297V110.684H366.951V116.719C366.951 118.171 367.618 118.896 368.953 118.896C369.259 118.896 369.572 118.877 369.891 118.838C370.21 118.792 370.457 118.747 370.633 118.701V119.922C370.405 120.02 370.109 120.098 369.744 120.156C369.386 120.215 369.051 120.244 368.738 120.244C367.56 120.244 366.694 119.967 366.141 119.414C365.587 118.861 365.311 118.031 365.311 116.924V110.684H362.41V109.961L363.855 109.297H371.17ZM376.59 120.195C375.405 120.195 374.48 119.714 373.816 118.75C373.159 117.786 372.83 116.478 372.83 114.824C372.83 113.809 372.918 112.884 373.094 112.051C373.276 111.211 373.589 110.293 374.031 109.297H375.711C375.268 110.312 374.952 111.237 374.764 112.07C374.581 112.897 374.49 113.822 374.49 114.844C374.49 116.1 374.686 117.08 375.076 117.783C375.467 118.486 376.01 118.838 376.707 118.838C377.319 118.838 377.794 118.607 378.133 118.145C378.478 117.676 378.65 117.035 378.65 116.221V113.184H380.223V116.221C380.223 117.054 380.395 117.699 380.74 118.154C381.085 118.61 381.561 118.838 382.166 118.838C382.863 118.838 383.406 118.486 383.797 117.783C384.188 117.08 384.383 116.1 384.383 114.844C384.383 113.861 384.292 112.946 384.109 112.1C383.934 111.253 383.621 110.319 383.172 109.297H384.852C385.275 110.247 385.577 111.152 385.76 112.012C385.949 112.865 386.043 113.802 386.043 114.824C386.043 116.465 385.711 117.77 385.047 118.74C384.389 119.71 383.468 120.195 382.283 120.195C380.851 120.195 379.913 119.603 379.471 118.418H379.383C378.96 119.603 378.029 120.195 376.59 120.195ZM387.176 109.297H388.855L390.994 115.059C391.163 115.495 391.382 116.1 391.648 116.875C391.922 117.65 392.111 118.239 392.215 118.643H392.293C393.445 117.503 394.279 116.211 394.793 114.766C395.314 113.314 395.574 111.491 395.574 109.297H397.195C397.195 111.66 396.857 113.669 396.18 115.322C395.509 116.976 394.441 118.535 392.977 120H391.16L387.176 109.297ZM408.992 118.838C410.092 118.838 410.887 118.522 411.375 117.891C411.863 117.253 412.107 116.224 412.107 114.805V114.658C412.107 113.167 411.86 112.1 411.365 111.455C410.87 110.804 410.073 110.479 408.973 110.479C407 110.479 406.014 111.885 406.014 114.697C406.014 116.077 406.251 117.113 406.727 117.803C407.208 118.493 407.964 118.838 408.992 118.838ZM408.748 120.195C407.355 120.195 406.271 119.714 405.496 118.75C404.721 117.78 404.334 116.423 404.334 114.678C404.334 112.894 404.731 111.52 405.525 110.557C406.32 109.587 407.449 109.102 408.914 109.102C409.702 109.102 410.356 109.238 410.877 109.512C411.404 109.785 411.844 110.195 412.195 110.742H412.312C412.469 110.143 412.68 109.661 412.947 109.297H414.207C414.07 109.727 413.956 110.342 413.865 111.143C413.774 111.943 413.729 112.721 413.729 113.477V117.764C413.729 118.506 414.002 118.877 414.549 118.877C414.738 118.877 414.939 118.844 415.154 118.779V119.941C414.855 120.111 414.493 120.195 414.07 120.195C413.543 120.195 413.133 120.065 412.84 119.805C412.553 119.538 412.352 119.124 412.234 118.564H412.107C411.723 119.124 411.258 119.538 410.711 119.805C410.171 120.065 409.516 120.195 408.748 120.195ZM426.658 118.857C426.906 118.857 427.186 118.799 427.498 118.682V119.961C427.218 120.117 426.805 120.195 426.258 120.195C424.832 120.195 424.119 119.372 424.119 117.725V110.684H419.461V120H417.84V110.684H415.682V109.961L417.078 109.297H427.82V110.684H425.74V117.598C425.74 118.079 425.822 118.411 425.984 118.594C426.154 118.77 426.378 118.857 426.658 118.857ZM439.402 114.639C439.402 116.383 438.963 117.747 438.084 118.73C437.205 119.707 435.991 120.195 434.441 120.195C433.484 120.195 432.635 119.971 431.893 119.521C431.15 119.072 430.577 118.428 430.174 117.588C429.77 116.748 429.568 115.765 429.568 114.639C429.568 112.894 430.005 111.536 430.877 110.566C431.749 109.59 432.96 109.102 434.51 109.102C436.007 109.102 437.195 109.6 438.074 110.596C438.96 111.592 439.402 112.939 439.402 114.639ZM431.248 114.639C431.248 116.006 431.521 117.048 432.068 117.764C432.615 118.48 433.419 118.838 434.48 118.838C435.542 118.838 436.346 118.483 436.893 117.773C437.446 117.057 437.723 116.012 437.723 114.639C437.723 113.278 437.446 112.246 436.893 111.543C436.346 110.833 435.535 110.479 434.461 110.479C433.4 110.479 432.599 110.827 432.059 111.523C431.518 112.22 431.248 113.258 431.248 114.639ZM449.471 109.297V110.684H445.252V116.719C445.252 118.171 445.919 118.896 447.254 118.896C447.56 118.896 447.872 118.877 448.191 118.838C448.51 118.792 448.758 118.747 448.934 118.701V119.922C448.706 120.02 448.41 120.098 448.045 120.156C447.687 120.215 447.352 120.244 447.039 120.244C445.861 120.244 444.995 119.967 444.441 119.414C443.888 118.861 443.611 118.031 443.611 116.924V110.684H440.711V109.961L442.156 109.297H449.471ZM456.99 113.74V115.117H455.545C453.52 115.117 452.508 115.752 452.508 117.021C452.508 117.607 452.745 118.06 453.221 118.379C453.702 118.698 454.419 118.857 455.369 118.857C455.916 118.857 456.46 118.796 457 118.672C457.54 118.542 458.136 118.324 458.787 118.018V119.463C457.895 119.951 456.73 120.195 455.291 120.195C453.924 120.195 452.846 119.922 452.059 119.375C451.277 118.822 450.887 118.063 450.887 117.1C450.887 116.462 451.066 115.931 451.424 115.508C451.782 115.078 452.384 114.73 453.23 114.463V114.355C452.592 114.173 452.098 113.877 451.746 113.467C451.401 113.05 451.229 112.542 451.229 111.943C451.229 111.077 451.593 110.387 452.322 109.873C453.051 109.359 454.041 109.102 455.291 109.102C455.923 109.102 456.505 109.157 457.039 109.268C457.579 109.372 458.175 109.57 458.826 109.863L458.211 111.162C457.599 110.889 457.081 110.706 456.658 110.615C456.235 110.524 455.766 110.479 455.252 110.479C453.624 110.479 452.811 111.006 452.811 112.061C452.811 113.18 453.842 113.74 455.906 113.74H456.99ZM459.383 120L464.002 109.463L463.436 107.881C463.24 107.327 463.061 106.937 462.898 106.709C462.736 106.481 462.544 106.309 462.322 106.191C462.107 106.074 461.84 106.016 461.521 106.016C461.144 106.016 460.77 106.058 460.398 106.143V104.844C460.841 104.733 461.268 104.678 461.678 104.678C462.27 104.678 462.762 104.775 463.152 104.971C463.549 105.166 463.891 105.475 464.178 105.898C464.464 106.322 464.783 107.028 465.135 108.018L468.68 117.9C468.803 118.219 468.934 118.464 469.07 118.633C469.207 118.796 469.389 118.877 469.617 118.877C469.793 118.877 469.988 118.844 470.203 118.779V119.961C469.891 120.117 469.536 120.195 469.139 120.195C468.657 120.195 468.279 120.072 468.006 119.824C467.739 119.577 467.511 119.183 467.322 118.643L465.799 114.385C465.252 112.822 464.907 111.729 464.764 111.104H464.676C464.493 111.859 464.116 112.917 463.543 114.277L461.062 120H459.383ZM477.186 113.74V115.117H475.74C473.715 115.117 472.703 115.752 472.703 117.021C472.703 117.607 472.941 118.06 473.416 118.379C473.898 118.698 474.614 118.857 475.564 118.857C476.111 118.857 476.655 118.796 477.195 118.672C477.736 118.542 478.331 118.324 478.982 118.018V119.463C478.09 119.951 476.925 120.195 475.486 120.195C474.119 120.195 473.042 119.922 472.254 119.375C471.473 118.822 471.082 118.063 471.082 117.1C471.082 116.462 471.261 115.931 471.619 115.508C471.977 115.078 472.579 114.73 473.426 114.463V114.355C472.788 114.173 472.293 113.877 471.941 113.467C471.596 113.05 471.424 112.542 471.424 111.943C471.424 111.077 471.788 110.387 472.518 109.873C473.247 109.359 474.236 109.102 475.486 109.102C476.118 109.102 476.701 109.157 477.234 109.268C477.775 109.372 478.37 109.57 479.021 109.863L478.406 111.162C477.794 110.889 477.277 110.706 476.854 110.615C476.43 110.524 475.962 110.479 475.447 110.479C473.82 110.479 473.006 111.006 473.006 112.061C473.006 113.18 474.038 113.74 476.102 113.74H477.186ZM490.652 115.039C490.652 116.061 490.451 116.966 490.047 117.754C489.65 118.535 489.077 119.137 488.328 119.561C487.586 119.984 486.714 120.195 485.711 120.195C484.181 120.195 482.986 119.727 482.127 118.789C481.268 117.852 480.838 116.556 480.838 114.902C480.838 111.165 482.765 109.297 486.619 109.297H491.492V110.684H488.914C490.073 111.771 490.652 113.223 490.652 115.039ZM482.518 114.902C482.518 116.165 482.794 117.139 483.348 117.822C483.901 118.499 484.702 118.838 485.75 118.838C486.785 118.838 487.579 118.519 488.133 117.881C488.693 117.236 488.973 116.322 488.973 115.137C488.973 113.379 488.406 111.895 487.273 110.684H486.639C485.193 110.684 484.145 111.022 483.494 111.699C482.843 112.376 482.518 113.444 482.518 114.902ZM495.32 116.279C495.32 117.985 496.147 118.838 497.801 118.838C498.914 118.838 499.728 118.532 500.242 117.92C500.763 117.301 501.023 116.302 501.023 114.922V109.297H502.645V120H501.316L501.062 118.564H500.965C500.242 119.652 499.135 120.195 497.645 120.195C496.668 120.195 495.893 119.896 495.32 119.297H495.223C495.288 119.844 495.32 120.638 495.32 121.68V124.805H493.699V109.297H495.32V116.279ZM510.145 118.838C511.245 118.838 512.039 118.522 512.527 117.891C513.016 117.253 513.26 116.224 513.26 114.805V114.658C513.26 113.167 513.012 112.1 512.518 111.455C512.023 110.804 511.225 110.479 510.125 110.479C508.152 110.479 507.166 111.885 507.166 114.697C507.166 116.077 507.404 117.113 507.879 117.803C508.361 118.493 509.116 118.838 510.145 118.838ZM509.9 120.195C508.507 120.195 507.423 119.714 506.648 118.75C505.874 117.78 505.486 116.423 505.486 114.678C505.486 112.894 505.883 111.52 506.678 110.557C507.472 109.587 508.602 109.102 510.066 109.102C510.854 109.102 511.508 109.238 512.029 109.512C512.557 109.785 512.996 110.195 513.348 110.742H513.465C513.621 110.143 513.833 109.661 514.1 109.297H515.359C515.223 109.727 515.109 110.342 515.018 111.143C514.926 111.943 514.881 112.721 514.881 113.477V117.764C514.881 118.506 515.154 118.877 515.701 118.877C515.89 118.877 516.092 118.844 516.307 118.779V119.941C516.007 120.111 515.646 120.195 515.223 120.195C514.695 120.195 514.285 120.065 513.992 119.805C513.706 119.538 513.504 119.124 513.387 118.564H513.26C512.876 119.124 512.41 119.538 511.863 119.805C511.323 120.065 510.669 120.195 509.9 120.195ZM509.607 107.598C509.783 107.129 509.956 106.527 510.125 105.791C510.301 105.049 510.428 104.411 510.506 103.877H512.303V104.102C512.186 104.583 511.948 105.212 511.59 105.986C511.238 106.755 510.903 107.386 510.584 107.881H509.607V107.598ZM525.525 109.297V110.684H521.307V116.719C521.307 118.171 521.974 118.896 523.309 118.896C523.615 118.896 523.927 118.877 524.246 118.838C524.565 118.792 524.812 118.747 524.988 118.701V119.922C524.76 120.02 524.464 120.098 524.1 120.156C523.742 120.215 523.406 120.244 523.094 120.244C521.915 120.244 521.049 119.967 520.496 119.414C519.943 118.861 519.666 118.031 519.666 116.924V110.684H516.766V109.961L518.211 109.297H525.525ZM530.945 120.195C529.76 120.195 528.836 119.714 528.172 118.75C527.514 117.786 527.186 116.478 527.186 114.824C527.186 113.809 527.273 112.884 527.449 112.051C527.632 111.211 527.944 110.293 528.387 109.297H530.066C529.624 110.312 529.308 111.237 529.119 112.07C528.937 112.897 528.846 113.822 528.846 114.844C528.846 116.1 529.041 117.08 529.432 117.783C529.822 118.486 530.366 118.838 531.062 118.838C531.674 118.838 532.15 118.607 532.488 118.145C532.833 117.676 533.006 117.035 533.006 116.221V113.184H534.578V116.221C534.578 117.054 534.751 117.699 535.096 118.154C535.441 118.61 535.916 118.838 536.521 118.838C537.218 118.838 537.762 118.486 538.152 117.783C538.543 117.08 538.738 116.1 538.738 114.844C538.738 113.861 538.647 112.946 538.465 112.1C538.289 111.253 537.977 110.319 537.527 109.297H539.207C539.63 110.247 539.933 111.152 540.115 112.012C540.304 112.865 540.398 113.802 540.398 114.824C540.398 116.465 540.066 117.77 539.402 118.74C538.745 119.71 537.824 120.195 536.639 120.195C535.206 120.195 534.269 119.603 533.826 118.418H533.738C533.315 119.603 532.384 120.195 530.945 120.195ZM541.531 109.297H543.211L545.35 115.059C545.519 115.495 545.737 116.1 546.004 116.875C546.277 117.65 546.466 118.239 546.57 118.643H546.648C547.801 117.503 548.634 116.211 549.148 114.766C549.669 113.314 549.93 111.491 549.93 109.297H551.551C551.551 111.66 551.212 113.669 550.535 115.322C549.865 116.976 548.797 118.535 547.332 120H545.516L541.531 109.297ZM555.789 117.676L555.936 117.9C555.766 118.551 555.522 119.307 555.203 120.166C554.884 121.032 554.552 121.836 554.207 122.578H552.986C553.162 121.901 553.354 121.064 553.562 120.068C553.777 119.072 553.927 118.275 554.012 117.676H555.789ZM566.404 114.521C566.404 115.602 566.58 116.419 566.932 116.973C567.29 117.526 567.869 117.803 568.67 117.803C569.464 117.803 570.034 117.529 570.379 116.982C570.73 116.429 570.906 115.609 570.906 114.521C570.906 113.441 570.73 112.63 570.379 112.09C570.027 111.549 569.451 111.279 568.65 111.279C567.856 111.279 567.283 111.549 566.932 112.09C566.58 112.624 566.404 113.434 566.404 114.521ZM573.953 114.521C573.953 116.299 573.484 117.689 572.547 118.691C571.609 119.694 570.304 120.195 568.631 120.195C567.583 120.195 566.658 119.967 565.857 119.512C565.057 119.049 564.441 118.389 564.012 117.529C563.582 116.67 563.367 115.667 563.367 114.521C563.367 112.738 563.833 111.351 564.764 110.361C565.695 109.372 567.003 108.877 568.689 108.877C569.738 108.877 570.662 109.105 571.463 109.561C572.264 110.016 572.879 110.671 573.309 111.523C573.738 112.376 573.953 113.376 573.953 114.521ZM586.404 124.805H583.25C583.25 124.245 583.341 123.499 583.523 122.568C583.706 121.637 583.94 120.742 584.227 119.883L580.066 109.082H583.162L584.764 113.896C584.9 114.3 585.076 114.896 585.291 115.684C585.506 116.471 585.659 117.103 585.75 117.578H585.809C585.835 117.292 585.939 116.777 586.121 116.035C586.31 115.286 586.505 114.622 586.707 114.043L588.309 109.082H591.404L587.371 119.824C587.078 120.579 586.844 121.413 586.668 122.324C586.492 123.242 586.404 124.069 586.404 124.805ZM595.955 109.082V116.582C595.955 117.005 596.072 117.318 596.307 117.52C596.548 117.721 596.863 117.822 597.254 117.822C597.781 117.822 598.41 117.708 599.139 117.48V119.697C598.429 120.029 597.573 120.195 596.57 120.195C595.333 120.195 594.425 119.896 593.846 119.297C593.266 118.691 592.977 117.786 592.977 116.582V109.082H595.955ZM605.643 117.822C606.411 117.822 606.967 117.591 607.312 117.129C607.664 116.66 607.853 115.843 607.879 114.678V114.561C607.879 113.389 607.697 112.549 607.332 112.041C606.974 111.533 606.395 111.279 605.594 111.279C604.194 111.279 603.494 112.386 603.494 114.6C603.494 115.674 603.667 116.481 604.012 117.021C604.363 117.555 604.907 117.822 605.643 117.822ZM604.734 120.195C603.4 120.195 602.352 119.701 601.59 118.711C600.835 117.721 600.457 116.344 600.457 114.58C600.457 112.77 600.851 111.37 601.639 110.381C602.433 109.391 603.54 108.896 604.959 108.896C605.727 108.896 606.359 109.033 606.854 109.307C607.355 109.58 607.768 109.99 608.094 110.537H608.24C608.396 109.925 608.615 109.44 608.895 109.082H611.355C611.147 109.714 610.978 110.439 610.848 111.26C610.724 112.074 610.662 112.819 610.662 113.496V116.543C610.662 117.311 610.936 117.695 611.482 117.695C611.691 117.695 611.883 117.663 612.059 117.598V119.941C611.954 120.007 611.753 120.065 611.453 120.117C611.16 120.169 610.916 120.195 610.721 120.195C609.992 120.195 609.435 120.072 609.051 119.824C608.667 119.57 608.364 119.15 608.143 118.564H607.938C607.221 119.652 606.154 120.195 604.734 120.195ZM618.631 111.318V116.582C618.631 117.005 618.748 117.318 618.982 117.52C619.223 117.721 619.539 117.822 619.93 117.822C620.451 117.822 621.076 117.708 621.805 117.48V119.697C621.108 120.029 620.255 120.195 619.246 120.195C618.009 120.195 617.101 119.896 616.521 119.297C615.942 118.691 615.652 117.786 615.652 116.582V111.318H612.908V110.078L614.627 109.082H622.508V111.318H618.631ZM634.734 114.541C634.734 116.318 634.334 117.705 633.533 118.701C632.739 119.697 631.632 120.195 630.213 120.195C629.21 120.195 628.296 119.945 627.469 119.443H627.293C627.397 120.563 627.449 121.436 627.449 122.061V124.805H624.451V114.521C624.451 112.731 624.9 111.344 625.799 110.361C626.704 109.372 627.986 108.877 629.646 108.877C630.656 108.877 631.544 109.108 632.312 109.57C633.081 110.026 633.676 110.684 634.1 111.543C634.523 112.402 634.734 113.402 634.734 114.541ZM629.588 111.279C628.852 111.279 628.312 111.53 627.967 112.031C627.622 112.526 627.449 113.311 627.449 114.385V116.963C627.729 117.243 628.058 117.454 628.436 117.598C628.813 117.734 629.197 117.803 629.588 117.803C630.33 117.803 630.861 117.549 631.18 117.041C631.505 116.527 631.668 115.693 631.668 114.541C631.668 113.395 631.508 112.565 631.189 112.051C630.877 111.536 630.343 111.279 629.588 111.279ZM639.568 114.521C639.568 115.602 639.744 116.419 640.096 116.973C640.454 117.526 641.033 117.803 641.834 117.803C642.628 117.803 643.198 117.529 643.543 116.982C643.895 116.429 644.07 115.609 644.07 114.521C644.07 113.441 643.895 112.63 643.543 112.09C643.191 111.549 642.615 111.279 641.814 111.279C641.02 111.279 640.447 111.549 640.096 112.09C639.744 112.624 639.568 113.434 639.568 114.521ZM647.117 114.521C647.117 116.299 646.648 117.689 645.711 118.691C644.773 119.694 643.468 120.195 641.795 120.195C640.747 120.195 639.822 119.967 639.021 119.512C638.221 119.049 637.605 118.389 637.176 117.529C636.746 116.67 636.531 115.667 636.531 114.521C636.531 112.738 636.997 111.351 637.928 110.361C638.859 109.372 640.167 108.877 641.854 108.877C642.902 108.877 643.826 109.105 644.627 109.561C645.428 110.016 646.043 110.671 646.473 111.523C646.902 112.376 647.117 113.376 647.117 114.521ZM640.877 107.578C640.994 107.227 641.137 106.693 641.307 105.977C641.482 105.26 641.606 104.629 641.678 104.082H644.441V104.316C643.934 105.527 643.325 106.715 642.615 107.881H640.877V107.578ZM648.914 115.176C648.914 113.04 649.35 111.458 650.223 110.43C651.102 109.395 652.485 108.877 654.373 108.877C655.571 108.877 656.733 109.137 657.859 109.658L657 111.924C655.874 111.494 654.972 111.279 654.295 111.279C653.475 111.279 652.879 111.598 652.508 112.236C652.137 112.874 651.951 113.828 651.951 115.098C651.951 115.579 652.033 115.973 652.195 116.279C652.358 116.585 652.602 116.833 652.928 117.021C653.253 117.204 653.849 117.389 654.715 117.578C655.802 117.806 656.6 118.132 657.107 118.555C657.622 118.978 657.879 119.535 657.879 120.225C657.879 121.214 657.43 122.373 656.531 123.701H653.533C654.497 122.308 654.979 121.296 654.979 120.664C654.979 120.43 654.845 120.241 654.578 120.098C654.311 119.961 653.855 119.827 653.211 119.697C651.798 119.424 650.727 118.91 649.998 118.154C649.275 117.393 648.914 116.4 648.914 115.176ZM674.812 115.361C674.812 116.312 674.591 117.158 674.148 117.9C673.712 118.636 673.084 119.202 672.264 119.6C671.45 119.997 670.499 120.195 669.412 120.195C667.719 120.195 666.404 119.707 665.467 118.73C664.536 117.747 664.07 116.396 664.07 114.678C664.07 110.934 666.124 109.062 670.232 109.062H675.828V111.24H673.055C674.227 112.477 674.812 113.851 674.812 115.361ZM667.137 114.678C667.137 115.693 667.329 116.468 667.713 117.002C668.104 117.536 668.683 117.803 669.451 117.803C670.206 117.803 670.779 117.555 671.17 117.061C671.561 116.559 671.756 115.84 671.756 114.902C671.756 114.18 671.658 113.525 671.463 112.939C671.274 112.347 670.958 111.781 670.516 111.24H670.027C668.973 111.24 668.227 111.507 667.791 112.041C667.355 112.575 667.137 113.454 667.137 114.678ZM682.322 117.822C683.09 117.822 683.647 117.591 683.992 117.129C684.344 116.66 684.533 115.843 684.559 114.678V114.561C684.559 113.389 684.376 112.549 684.012 112.041C683.654 111.533 683.074 111.279 682.273 111.279C680.874 111.279 680.174 112.386 680.174 114.6C680.174 115.674 680.346 116.481 680.691 117.021C681.043 117.555 681.587 117.822 682.322 117.822ZM681.414 120.195C680.079 120.195 679.031 119.701 678.27 118.711C677.514 117.721 677.137 116.344 677.137 114.58C677.137 112.77 677.531 111.37 678.318 110.381C679.113 109.391 680.219 108.896 681.639 108.896C682.407 108.896 683.038 109.033 683.533 109.307C684.035 109.58 684.448 109.99 684.773 110.537H684.92C685.076 109.925 685.294 109.44 685.574 109.082H688.035C687.827 109.714 687.658 110.439 687.527 111.26C687.404 112.074 687.342 112.819 687.342 113.496V116.543C687.342 117.311 687.615 117.695 688.162 117.695C688.37 117.695 688.562 117.663 688.738 117.598V119.941C688.634 120.007 688.432 120.065 688.133 120.117C687.84 120.169 687.596 120.195 687.4 120.195C686.671 120.195 686.115 120.072 685.73 119.824C685.346 119.57 685.044 119.15 684.822 118.564H684.617C683.901 119.652 682.833 120.195 681.414 120.195ZM690.086 115.176C690.086 113.04 690.522 111.458 691.395 110.43C692.273 109.395 693.657 108.877 695.545 108.877C696.743 108.877 697.905 109.137 699.031 109.658L698.172 111.924C697.046 111.494 696.144 111.279 695.467 111.279C694.646 111.279 694.051 111.598 693.68 112.236C693.309 112.874 693.123 113.828 693.123 115.098C693.123 115.579 693.204 115.973 693.367 116.279C693.53 116.585 693.774 116.833 694.1 117.021C694.425 117.204 695.021 117.389 695.887 117.578C696.974 117.806 697.771 118.132 698.279 118.555C698.794 118.978 699.051 119.535 699.051 120.225C699.051 121.214 698.602 122.373 697.703 123.701H694.705C695.669 122.308 696.15 121.296 696.15 120.664C696.15 120.43 696.017 120.241 695.75 120.098C695.483 119.961 695.027 119.827 694.383 119.697C692.97 119.424 691.899 118.91 691.17 118.154C690.447 117.393 690.086 116.4 690.086 115.176ZM712.547 113.281V115.342H710.906C709.956 115.342 709.24 115.449 708.758 115.664C708.283 115.872 708.045 116.211 708.045 116.68C708.045 117.493 708.917 117.9 710.662 117.9C711.333 117.9 712.026 117.829 712.742 117.686C713.458 117.536 714.106 117.327 714.686 117.061V119.443C713.566 119.945 712.153 120.195 710.447 120.195C708.715 120.195 707.391 119.928 706.473 119.395C705.561 118.854 705.105 118.05 705.105 116.982C705.105 116.286 705.314 115.719 705.73 115.283C706.147 114.847 706.824 114.538 707.762 114.355V114.258C706.375 113.939 705.682 113.099 705.682 111.738C705.682 110.82 706.095 110.114 706.922 109.619C707.749 109.124 708.924 108.877 710.447 108.877C711.196 108.877 711.948 108.952 712.703 109.102C713.465 109.251 714.132 109.45 714.705 109.697L713.787 111.855C713.012 111.543 712.4 111.338 711.951 111.24C711.502 111.136 711.027 111.084 710.525 111.084C709.79 111.084 709.243 111.165 708.885 111.328C708.527 111.491 708.348 111.748 708.348 112.1C708.348 112.529 708.562 112.835 708.992 113.018C709.428 113.193 710.112 113.281 711.043 113.281H712.547ZM715.516 109.082H718.572L720.701 115.137L721.375 117.363H721.453C722.202 116.367 722.742 115.225 723.074 113.936C723.406 112.646 723.572 111.029 723.572 109.082H726.58C726.58 110.749 726.437 112.188 726.15 113.398C725.864 114.603 725.408 115.745 724.783 116.826C724.165 117.9 723.335 118.958 722.293 120H719.617L715.516 109.082ZM739.012 124.805H736.033V113.623C736.033 112.835 735.893 112.246 735.613 111.855C735.333 111.458 734.887 111.26 734.275 111.26C733.442 111.26 732.84 111.54 732.469 112.1C732.098 112.653 731.912 113.574 731.912 114.863V120H728.934V109.082H731.209L731.609 110.479H731.775C732.107 109.951 732.563 109.554 733.143 109.287C733.729 109.014 734.393 108.877 735.135 108.877C736.404 108.877 737.368 109.222 738.025 109.912C738.683 110.596 739.012 111.585 739.012 112.881V124.805ZM745.057 115.459C745.057 116.247 745.2 116.839 745.486 117.236C745.773 117.627 746.222 117.822 746.834 117.822C747.654 117.822 748.25 117.542 748.621 116.982C748.992 116.416 749.178 115.495 749.178 114.219V109.082H752.156V120H749.9L749.48 118.535H749.334C749.061 119.089 748.729 119.505 748.338 119.785C747.947 120.059 747.465 120.195 746.893 120.195C746.489 120.195 746.118 120.12 745.779 119.971C745.441 119.821 745.167 119.603 744.959 119.316L745.008 120.146L745.057 121.68V124.805H742.078V109.082H745.057V115.459ZM761.922 113.281V115.342H760.281C759.331 115.342 758.615 115.449 758.133 115.664C757.658 115.872 757.42 116.211 757.42 116.68C757.42 117.493 758.292 117.9 760.037 117.9C760.708 117.9 761.401 117.829 762.117 117.686C762.833 117.536 763.481 117.327 764.061 117.061V119.443C762.941 119.945 761.528 120.195 759.822 120.195C758.09 120.195 756.766 119.928 755.848 119.395C754.936 118.854 754.48 118.05 754.48 116.982C754.48 116.286 754.689 115.719 755.105 115.283C755.522 114.847 756.199 114.538 757.137 114.355V114.258C755.75 113.939 755.057 113.099 755.057 111.738C755.057 110.82 755.47 110.114 756.297 109.619C757.124 109.124 758.299 108.877 759.822 108.877C760.571 108.877 761.323 108.952 762.078 109.102C762.84 109.251 763.507 109.45 764.08 109.697L763.162 111.855C762.387 111.543 761.775 111.338 761.326 111.24C760.877 111.136 760.402 111.084 759.9 111.084C759.165 111.084 758.618 111.165 758.26 111.328C757.902 111.491 757.723 111.748 757.723 112.1C757.723 112.529 757.938 112.835 758.367 113.018C758.803 113.193 759.487 113.281 760.418 113.281H761.922ZM776.297 114.541C776.297 116.318 775.896 117.705 775.096 118.701C774.301 119.697 773.195 120.195 771.775 120.195C770.773 120.195 769.858 119.945 769.031 119.443H768.855C768.96 120.563 769.012 121.436 769.012 122.061V124.805H766.014V114.521C766.014 112.731 766.463 111.344 767.361 110.361C768.266 109.372 769.549 108.877 771.209 108.877C772.218 108.877 773.107 109.108 773.875 109.57C774.643 110.026 775.239 110.684 775.662 111.543C776.085 112.402 776.297 113.402 776.297 114.541ZM771.15 111.279C770.415 111.279 769.874 111.53 769.529 112.031C769.184 112.526 769.012 113.311 769.012 114.385V116.963C769.292 117.243 769.62 117.454 769.998 117.598C770.376 117.734 770.76 117.803 771.15 117.803C771.893 117.803 772.423 117.549 772.742 117.041C773.068 116.527 773.23 115.693 773.23 114.541C773.23 113.395 773.071 112.565 772.752 112.051C772.439 111.536 771.906 111.279 771.15 111.279ZM788.992 120.195C788.198 120.195 787.547 120.026 787.039 119.688C786.531 119.342 786.144 118.828 785.877 118.145H785.779C785.48 118.861 785.076 119.382 784.568 119.707C784.067 120.033 783.429 120.195 782.654 120.195C781.261 120.195 780.18 119.704 779.412 118.721C778.644 117.738 778.26 116.396 778.26 114.697C778.26 113.695 778.338 112.77 778.494 111.924C778.65 111.077 778.937 110.13 779.354 109.082H782.215C781.401 110.788 780.994 112.627 780.994 114.6C780.994 115.667 781.154 116.481 781.473 117.041C781.798 117.601 782.273 117.881 782.898 117.881C783.439 117.881 783.833 117.692 784.08 117.314C784.327 116.937 784.451 116.312 784.451 115.439V112.559H787.195V115.439C787.195 116.318 787.319 116.947 787.566 117.324C787.814 117.695 788.211 117.881 788.758 117.881C789.37 117.881 789.839 117.607 790.164 117.061C790.49 116.507 790.652 115.7 790.652 114.639C790.652 112.64 790.245 110.788 789.432 109.082H792.293C792.71 110.137 792.996 111.084 793.152 111.924C793.315 112.764 793.396 113.688 793.396 114.697C793.396 116.41 793.009 117.754 792.234 118.73C791.46 119.707 790.379 120.195 788.992 120.195ZM784.812 107.578C784.93 107.227 785.073 106.693 785.242 105.977C785.418 105.26 785.542 104.629 785.613 104.082H788.377V104.316C787.869 105.527 787.26 106.715 786.551 107.881H784.812V107.578ZM794.52 109.082H797.576L799.705 115.137L800.379 117.363H800.457C801.206 116.367 801.746 115.225 802.078 113.936C802.41 112.646 802.576 111.029 802.576 109.082H805.584C805.584 110.749 805.441 112.188 805.154 113.398C804.868 114.603 804.412 115.745 803.787 116.826C803.169 117.9 802.339 118.958 801.297 120H798.621L794.52 109.082ZM814.578 113.281V115.342H812.938C811.987 115.342 811.271 115.449 810.789 115.664C810.314 115.872 810.076 116.211 810.076 116.68C810.076 117.493 810.949 117.9 812.693 117.9C813.364 117.9 814.057 117.829 814.773 117.686C815.49 117.536 816.137 117.327 816.717 117.061V119.443C815.597 119.945 814.184 120.195 812.479 120.195C810.747 120.195 809.422 119.928 808.504 119.395C807.592 118.854 807.137 118.05 807.137 116.982C807.137 116.286 807.345 115.719 807.762 115.283C808.178 114.847 808.855 114.538 809.793 114.355V114.258C808.406 113.939 807.713 113.099 807.713 111.738C807.713 110.82 808.126 110.114 808.953 109.619C809.78 109.124 810.955 108.877 812.479 108.877C813.227 108.877 813.979 108.952 814.734 109.102C815.496 109.251 816.163 109.45 816.736 109.697L815.818 111.855C815.044 111.543 814.432 111.338 813.982 111.24C813.533 111.136 813.058 111.084 812.557 111.084C811.821 111.084 811.274 111.165 810.916 111.328C810.558 111.491 810.379 111.748 810.379 112.1C810.379 112.529 810.594 112.835 811.023 113.018C811.46 113.193 812.143 113.281 813.074 113.281H814.578ZM822.029 109.082V116.582C822.029 117.005 822.146 117.318 822.381 117.52C822.622 117.721 822.938 117.822 823.328 117.822C823.855 117.822 824.484 117.708 825.213 117.48V119.697C824.503 120.029 823.647 120.195 822.645 120.195C821.408 120.195 820.499 119.896 819.92 119.297C819.34 118.691 819.051 117.786 819.051 116.582V109.082H822.029ZM253.357 151.805H250.203C250.203 151.245 250.294 150.499 250.477 149.568C250.659 148.637 250.893 147.742 251.18 146.883L247.02 136.082H250.115L251.717 140.896C251.854 141.3 252.029 141.896 252.244 142.684C252.459 143.471 252.612 144.103 252.703 144.578H252.762C252.788 144.292 252.892 143.777 253.074 143.035C253.263 142.286 253.458 141.622 253.66 141.043L255.262 136.082H258.357L254.324 146.824C254.031 147.579 253.797 148.413 253.621 149.324C253.445 150.242 253.357 151.069 253.357 151.805ZM262.908 136.082V143.582C262.908 144.005 263.025 144.318 263.26 144.52C263.501 144.721 263.816 144.822 264.207 144.822C264.734 144.822 265.363 144.708 266.092 144.48V146.697C265.382 147.029 264.526 147.195 263.523 147.195C262.286 147.195 261.378 146.896 260.799 146.297C260.219 145.691 259.93 144.786 259.93 143.582V136.082H262.908ZM272.596 144.822C273.364 144.822 273.921 144.591 274.266 144.129C274.617 143.66 274.806 142.843 274.832 141.678V141.561C274.832 140.389 274.65 139.549 274.285 139.041C273.927 138.533 273.348 138.279 272.547 138.279C271.147 138.279 270.447 139.386 270.447 141.6C270.447 142.674 270.62 143.481 270.965 144.021C271.316 144.555 271.86 144.822 272.596 144.822ZM271.688 147.195C270.353 147.195 269.305 146.701 268.543 145.711C267.788 144.721 267.41 143.344 267.41 141.58C267.41 139.77 267.804 138.37 268.592 137.381C269.386 136.391 270.493 135.896 271.912 135.896C272.68 135.896 273.312 136.033 273.807 136.307C274.308 136.58 274.721 136.99 275.047 137.537H275.193C275.35 136.925 275.568 136.44 275.848 136.082H278.309C278.1 136.714 277.931 137.439 277.801 138.26C277.677 139.074 277.615 139.819 277.615 140.496V143.543C277.615 144.311 277.889 144.695 278.436 144.695C278.644 144.695 278.836 144.663 279.012 144.598V146.941C278.908 147.007 278.706 147.065 278.406 147.117C278.113 147.169 277.869 147.195 277.674 147.195C276.945 147.195 276.388 147.072 276.004 146.824C275.62 146.57 275.317 146.15 275.096 145.564H274.891C274.174 146.652 273.107 147.195 271.688 147.195ZM290.779 138.318V143.582C290.779 144.005 290.896 144.318 291.131 144.52C291.372 144.721 291.688 144.822 292.078 144.822C292.599 144.822 293.224 144.708 293.953 144.48V146.697C293.257 147.029 292.404 147.195 291.395 147.195C290.158 147.195 289.249 146.896 288.67 146.297C288.09 145.691 287.801 144.786 287.801 143.582V138.318H285.057V137.078L286.775 136.082H294.656V138.318H290.779ZM301.502 144.822C302.27 144.822 302.827 144.591 303.172 144.129C303.523 143.66 303.712 142.843 303.738 141.678V141.561C303.738 140.389 303.556 139.549 303.191 139.041C302.833 138.533 302.254 138.279 301.453 138.279C300.053 138.279 299.354 139.386 299.354 141.6C299.354 142.674 299.526 143.481 299.871 144.021C300.223 144.555 300.766 144.822 301.502 144.822ZM300.594 147.195C299.259 147.195 298.211 146.701 297.449 145.711C296.694 144.721 296.316 143.344 296.316 141.58C296.316 139.77 296.71 138.37 297.498 137.381C298.292 136.391 299.399 135.896 300.818 135.896C301.587 135.896 302.218 136.033 302.713 136.307C303.214 136.58 303.628 136.99 303.953 137.537H304.1C304.256 136.925 304.474 136.44 304.754 136.082H307.215C307.007 136.714 306.837 137.439 306.707 138.26C306.583 139.074 306.521 139.819 306.521 140.496V143.543C306.521 144.311 306.795 144.695 307.342 144.695C307.55 144.695 307.742 144.663 307.918 144.598V146.941C307.814 147.007 307.612 147.065 307.312 147.117C307.02 147.169 306.775 147.195 306.58 147.195C305.851 147.195 305.294 147.072 304.91 146.824C304.526 146.57 304.223 146.15 304.002 145.564H303.797C303.081 146.652 302.013 147.195 300.594 147.195ZM321.766 140.281V142.342H320.125C319.174 142.342 318.458 142.449 317.977 142.664C317.501 142.872 317.264 143.211 317.264 143.68C317.264 144.493 318.136 144.9 319.881 144.9C320.551 144.9 321.245 144.829 321.961 144.686C322.677 144.536 323.325 144.327 323.904 144.061V146.443C322.785 146.945 321.372 147.195 319.666 147.195C317.934 147.195 316.609 146.928 315.691 146.395C314.78 145.854 314.324 145.05 314.324 143.982C314.324 143.286 314.533 142.719 314.949 142.283C315.366 141.847 316.043 141.538 316.98 141.355V141.258C315.594 140.939 314.9 140.099 314.9 138.738C314.9 137.82 315.314 137.114 316.141 136.619C316.967 136.124 318.143 135.877 319.666 135.877C320.415 135.877 321.167 135.952 321.922 136.102C322.684 136.251 323.351 136.45 323.924 136.697L323.006 138.855C322.231 138.543 321.619 138.338 321.17 138.24C320.721 138.136 320.245 138.084 319.744 138.084C319.008 138.084 318.462 138.165 318.104 138.328C317.745 138.491 317.566 138.748 317.566 139.1C317.566 139.529 317.781 139.835 318.211 140.018C318.647 140.193 319.331 140.281 320.262 140.281H321.766ZM337.371 144.861C337.807 144.861 338.23 144.747 338.641 144.52V146.658C338.374 146.821 338.032 146.951 337.615 147.049C337.205 147.146 336.824 147.195 336.473 147.195C335.496 147.195 334.751 146.928 334.236 146.395C333.729 145.861 333.475 145.063 333.475 144.002V138.357H330.174V147H327.195V138.357H324.92V137.078L326.658 136.082H338.758V138.357H336.453V143.885C336.453 144.217 336.541 144.464 336.717 144.627C336.893 144.783 337.111 144.861 337.371 144.861ZM343.396 141.521C343.396 142.602 343.572 143.419 343.924 143.973C344.282 144.526 344.861 144.803 345.662 144.803C346.456 144.803 347.026 144.529 347.371 143.982C347.723 143.429 347.898 142.609 347.898 141.521C347.898 140.441 347.723 139.63 347.371 139.09C347.02 138.549 346.443 138.279 345.643 138.279C344.848 138.279 344.275 138.549 343.924 139.09C343.572 139.624 343.396 140.434 343.396 141.521ZM350.945 141.521C350.945 143.299 350.477 144.689 349.539 145.691C348.602 146.694 347.296 147.195 345.623 147.195C344.575 147.195 343.65 146.967 342.85 146.512C342.049 146.049 341.434 145.389 341.004 144.529C340.574 143.67 340.359 142.667 340.359 141.521C340.359 139.738 340.825 138.351 341.756 137.361C342.687 136.372 343.995 135.877 345.682 135.877C346.73 135.877 347.654 136.105 348.455 136.561C349.256 137.016 349.871 137.671 350.301 138.523C350.73 139.376 350.945 140.376 350.945 141.521ZM344.705 134.578C344.822 134.227 344.965 133.693 345.135 132.977C345.311 132.26 345.434 131.629 345.506 131.082H348.27V131.316C347.762 132.527 347.153 133.715 346.443 134.881H344.705V134.578ZM356.385 142.459C356.385 143.247 356.528 143.839 356.814 144.236C357.101 144.627 357.55 144.822 358.162 144.822C358.982 144.822 359.578 144.542 359.949 143.982C360.32 143.416 360.506 142.495 360.506 141.219V136.082H363.484V147H361.229L360.809 145.535H360.662C360.389 146.089 360.057 146.505 359.666 146.785C359.275 147.059 358.794 147.195 358.221 147.195C357.817 147.195 357.446 147.12 357.107 146.971C356.769 146.821 356.495 146.603 356.287 146.316L356.336 147.146L356.385 148.68V151.805H353.406V136.082H356.385V142.459ZM373.25 140.281V142.342H371.609C370.659 142.342 369.943 142.449 369.461 142.664C368.986 142.872 368.748 143.211 368.748 143.68C368.748 144.493 369.62 144.9 371.365 144.9C372.036 144.9 372.729 144.829 373.445 144.686C374.161 144.536 374.809 144.327 375.389 144.061V146.443C374.269 146.945 372.856 147.195 371.15 147.195C369.419 147.195 368.094 146.928 367.176 146.395C366.264 145.854 365.809 145.05 365.809 143.982C365.809 143.286 366.017 142.719 366.434 142.283C366.85 141.847 367.527 141.538 368.465 141.355V141.258C367.078 140.939 366.385 140.099 366.385 138.738C366.385 137.82 366.798 137.114 367.625 136.619C368.452 136.124 369.627 135.877 371.15 135.877C371.899 135.877 372.651 135.952 373.406 136.102C374.168 136.251 374.835 136.45 375.408 136.697L374.49 138.855C373.715 138.543 373.104 138.338 372.654 138.24C372.205 138.136 371.73 138.084 371.229 138.084C370.493 138.084 369.946 138.165 369.588 138.328C369.23 138.491 369.051 138.748 369.051 139.1C369.051 139.529 369.266 139.835 369.695 140.018C370.132 140.193 370.815 140.281 371.746 140.281H373.25ZM376.219 136.082H379.275L381.404 142.137L382.078 144.363H382.156C382.905 143.367 383.445 142.225 383.777 140.936C384.109 139.646 384.275 138.029 384.275 136.082H387.283C387.283 137.749 387.14 139.188 386.854 140.398C386.567 141.603 386.111 142.745 385.486 143.826C384.868 144.9 384.038 145.958 382.996 147H380.32L376.219 136.082ZM394.158 144.822C394.926 144.822 395.483 144.591 395.828 144.129C396.18 143.66 396.368 142.843 396.395 141.678V141.561C396.395 140.389 396.212 139.549 395.848 139.041C395.49 138.533 394.91 138.279 394.109 138.279C392.71 138.279 392.01 139.386 392.01 141.6C392.01 142.674 392.182 143.481 392.527 144.021C392.879 144.555 393.423 144.822 394.158 144.822ZM393.25 147.195C391.915 147.195 390.867 146.701 390.105 145.711C389.35 144.721 388.973 143.344 388.973 141.58C388.973 139.77 389.367 138.37 390.154 137.381C390.949 136.391 392.055 135.896 393.475 135.896C394.243 135.896 394.874 136.033 395.369 136.307C395.87 136.58 396.284 136.99 396.609 137.537H396.756C396.912 136.925 397.13 136.44 397.41 136.082H399.871C399.663 136.714 399.493 137.439 399.363 138.26C399.24 139.074 399.178 139.819 399.178 140.496V143.543C399.178 144.311 399.451 144.695 399.998 144.695C400.206 144.695 400.398 144.663 400.574 144.598V146.941C400.47 147.007 400.268 147.065 399.969 147.117C399.676 147.169 399.432 147.195 399.236 147.195C398.507 147.195 397.951 147.072 397.566 146.824C397.182 146.57 396.88 146.15 396.658 145.564H396.453C395.737 146.652 394.669 147.195 393.25 147.195ZM412.996 131.697C414.526 131.697 415.73 132.036 416.609 132.713C417.495 133.39 417.938 134.331 417.938 135.535C417.938 136.505 417.69 137.273 417.195 137.84C416.701 138.4 415.994 138.755 415.076 138.904V138.963C416.3 139.119 417.212 139.513 417.811 140.145C418.416 140.77 418.719 141.648 418.719 142.781C418.719 144.148 418.292 145.226 417.439 146.014C416.593 146.801 415.428 147.195 413.943 147.195C412.641 147.195 411.58 146.99 410.76 146.58V151.805H407.781V136.297C407.781 134.839 408.237 133.709 409.148 132.908C410.06 132.101 411.342 131.697 412.996 131.697ZM412.918 134.021C411.479 134.021 410.76 134.874 410.76 136.58V144.139C411.072 144.34 411.456 144.507 411.912 144.637C412.368 144.76 412.791 144.822 413.182 144.822C414.015 144.822 414.633 144.62 415.037 144.217C415.441 143.813 415.643 143.247 415.643 142.518C415.643 141.801 415.424 141.258 414.988 140.887C414.559 140.509 413.93 140.32 413.104 140.32H412.4V137.957H412.918C413.562 137.957 414.064 137.781 414.422 137.43C414.78 137.072 414.959 136.561 414.959 135.896C414.959 135.298 414.78 134.835 414.422 134.51C414.064 134.184 413.562 134.021 412.918 134.021ZM431.062 151.805H428.084V140.623C428.084 139.835 427.944 139.246 427.664 138.855C427.384 138.458 426.938 138.26 426.326 138.26C425.493 138.26 424.891 138.54 424.52 139.1C424.148 139.653 423.963 140.574 423.963 141.863V147H420.984V136.082H423.26L423.66 137.479H423.826C424.158 136.951 424.614 136.554 425.193 136.287C425.779 136.014 426.443 135.877 427.186 135.877C428.455 135.877 429.419 136.222 430.076 136.912C430.734 137.596 431.062 138.585 431.062 139.881V151.805ZM425.184 134.578C425.301 134.227 425.444 133.693 425.613 132.977C425.789 132.26 425.913 131.629 425.984 131.082H428.748V131.316C428.24 132.527 427.632 133.715 426.922 134.881H425.184V134.578ZM437.107 142.459C437.107 143.247 437.251 143.839 437.537 144.236C437.824 144.627 438.273 144.822 438.885 144.822C439.705 144.822 440.301 144.542 440.672 143.982C441.043 143.416 441.229 142.495 441.229 141.219V136.082H444.207V147H441.951L441.531 145.535H441.385C441.111 146.089 440.779 146.505 440.389 146.785C439.998 147.059 439.516 147.195 438.943 147.195C438.54 147.195 438.169 147.12 437.83 146.971C437.492 146.821 437.218 146.603 437.01 146.316L437.059 147.146L437.107 148.68V151.805H434.129V136.082H437.107V142.459ZM451.854 144.822C452.622 144.822 453.178 144.591 453.523 144.129C453.875 143.66 454.064 142.843 454.09 141.678V141.561C454.09 140.389 453.908 139.549 453.543 139.041C453.185 138.533 452.605 138.279 451.805 138.279C450.405 138.279 449.705 139.386 449.705 141.6C449.705 142.674 449.878 143.481 450.223 144.021C450.574 144.555 451.118 144.822 451.854 144.822ZM450.945 147.195C449.611 147.195 448.562 146.701 447.801 145.711C447.046 144.721 446.668 143.344 446.668 141.58C446.668 139.77 447.062 138.37 447.85 137.381C448.644 136.391 449.751 135.896 451.17 135.896C451.938 135.896 452.57 136.033 453.064 136.307C453.566 136.58 453.979 136.99 454.305 137.537H454.451C454.607 136.925 454.826 136.44 455.105 136.082H457.566C457.358 136.714 457.189 137.439 457.059 138.26C456.935 139.074 456.873 139.819 456.873 140.496V143.543C456.873 144.311 457.146 144.695 457.693 144.695C457.902 144.695 458.094 144.663 458.27 144.598V146.941C458.165 147.007 457.964 147.065 457.664 147.117C457.371 147.169 457.127 147.195 456.932 147.195C456.202 147.195 455.646 147.072 455.262 146.824C454.878 146.57 454.575 146.15 454.354 145.564H454.148C453.432 146.652 452.365 147.195 450.945 147.195ZM464.842 138.318V143.582C464.842 144.005 464.959 144.318 465.193 144.52C465.434 144.721 465.75 144.822 466.141 144.822C466.661 144.822 467.286 144.708 468.016 144.48V146.697C467.319 147.029 466.466 147.195 465.457 147.195C464.22 147.195 463.312 146.896 462.732 146.297C462.153 145.691 461.863 144.786 461.863 143.582V138.318H459.119V137.078L460.838 136.082H468.719V138.318H464.842ZM475.564 144.822C476.333 144.822 476.889 144.591 477.234 144.129C477.586 143.66 477.775 142.843 477.801 141.678V141.561C477.801 140.389 477.618 139.549 477.254 139.041C476.896 138.533 476.316 138.279 475.516 138.279C474.116 138.279 473.416 139.386 473.416 141.6C473.416 142.674 473.589 143.481 473.934 144.021C474.285 144.555 474.829 144.822 475.564 144.822ZM474.656 147.195C473.322 147.195 472.273 146.701 471.512 145.711C470.757 144.721 470.379 143.344 470.379 141.58C470.379 139.77 470.773 138.37 471.561 137.381C472.355 136.391 473.462 135.896 474.881 135.896C475.649 135.896 476.281 136.033 476.775 136.307C477.277 136.58 477.69 136.99 478.016 137.537H478.162C478.318 136.925 478.536 136.44 478.816 136.082H481.277C481.069 136.714 480.9 137.439 480.77 138.26C480.646 139.074 480.584 139.819 480.584 140.496V143.543C480.584 144.311 480.857 144.695 481.404 144.695C481.613 144.695 481.805 144.663 481.98 144.598V146.941C481.876 147.007 481.674 147.065 481.375 147.117C481.082 147.169 480.838 147.195 480.643 147.195C479.913 147.195 479.357 147.072 478.973 146.824C478.589 146.57 478.286 146.15 478.064 145.564H477.859C477.143 146.652 476.076 147.195 474.656 147.195ZM483.572 145.604C483.572 145.057 483.719 144.643 484.012 144.363C484.305 144.083 484.731 143.943 485.291 143.943C485.831 143.943 486.248 144.087 486.541 144.373C486.84 144.66 486.99 145.07 486.99 145.604C486.99 146.118 486.84 146.525 486.541 146.824C486.242 147.117 485.825 147.264 485.291 147.264C484.744 147.264 484.321 147.12 484.021 146.834C483.722 146.541 483.572 146.131 483.572 145.604Z" fill="black"/>
</svg>
