<svg width="1110" height="252" viewBox="0 0 1110 252" fill="none" xmlns="http://www.w3.org/2000/svg">
<rect width="1110" height="252" rx="5" fill="white"/>
<rect x="0.5" y="0.5" width="1109" height="251" rx="4.5" stroke="black" stroke-opacity="0.24"/>
<rect x="114" y="100" width="62" height="103" fill="#E3E1FF"/>
<path d="M113.509 107.078L112.511 107.011L112.44 108.078H113.509V107.078ZM114.224 96.353V95.353H113.288L113.226 96.2865L114.224 96.353ZM149.545 96.353V97.353H150.545V96.353H149.545ZM149.545 71.9H150.545V70.9H149.545V71.9ZM90.629 71.9V70.9H89.697L89.6314 71.8296L90.629 71.9ZM86.482 130.673L85.4844 130.603L85.4089 131.673H86.482V130.673ZM103.356 138.824L104.313 138.533L103.948 137.335L102.86 137.955L103.356 138.824ZM81.048 151.551L80.5524 150.682L79.8034 151.11L80.116 151.913L81.048 151.551ZM120.659 106.078H113.509V108.078H120.659V106.078ZM114.507 107.145L115.222 96.4195L113.226 96.2865L112.511 107.011L114.507 107.145ZM114.224 97.353H149.545V95.353H114.224V97.353ZM150.545 96.353V71.9H148.545V96.353H150.545ZM149.545 70.9H90.629V72.9H149.545V70.9ZM89.6314 71.8296L85.4844 130.603L87.4795 130.743L91.6265 71.9704L89.6314 71.8296ZM86.482 131.673H118.514V129.673H86.482V131.673ZM118.514 131.673C121.715 131.673 124.177 132.491 125.822 133.885C127.445 135.261 128.382 137.289 128.382 139.968H130.382C130.382 136.784 129.245 134.165 127.115 132.359C125.006 130.571 122.034 129.673 118.514 129.673V131.673ZM128.382 139.968C128.382 142.512 127.51 144.54 125.871 145.948C124.212 147.372 121.647 148.263 118.085 148.263V150.263C121.959 150.263 125.043 149.295 127.173 147.466C129.323 145.62 130.382 143.001 130.382 139.968H128.382ZM118.085 148.263C113.869 148.263 110.924 147.331 108.807 145.715C106.688 144.098 105.277 141.701 104.313 138.533L102.399 139.115C103.437 142.525 105.029 145.348 107.593 147.305C110.16 149.264 113.578 150.263 118.085 150.263V148.263ZM102.86 137.955L80.5524 150.682L81.5435 152.42L103.852 139.693L102.86 137.955ZM80.116 151.913C86.3116 167.845 100.779 175.145 118.085 175.145V173.145C101.357 173.145 87.7964 166.145 81.98 151.189L80.116 151.913ZM118.085 175.145C128.135 175.145 137.603 172.232 144.577 166.347C151.573 160.443 155.979 151.612 155.979 139.968H153.979C153.979 151.061 149.805 159.319 143.287 164.819C136.748 170.337 127.769 173.145 118.085 173.145V175.145ZM155.979 139.968C155.979 128.7 151.945 120.191 145.448 114.512C138.972 108.849 130.14 106.078 120.659 106.078V108.078C129.768 108.078 138.096 110.741 144.132 116.018C150.148 121.278 153.979 129.214 153.979 139.968H155.979Z" fill="black"/>
<path d="M129.659 115.078H122.509L123.224 104.353H158.545V79.9H99.629L95.482 138.673H127.514C134.235 138.673 138.382 142.105 138.382 147.968C138.382 153.545 134.521 157.263 127.085 157.263C118.362 157.263 114.358 153.402 112.356 146.824L90.048 159.551C96.054 174.995 110.068 182.145 127.085 182.145C146.819 182.145 163.979 170.705 163.979 147.968C163.979 125.946 148.249 115.078 129.659 115.078Z" fill="black"/>
<path d="M261.756 112.842C261.756 115.205 261.17 117.021 259.998 118.291C258.826 119.561 257.146 120.195 254.959 120.195C252.771 120.195 251.092 119.561 249.92 118.291C248.748 117.021 248.162 115.199 248.162 112.822C248.162 110.446 248.748 108.633 249.92 107.383C251.098 106.126 252.785 105.498 254.979 105.498C257.173 105.498 258.849 106.13 260.008 107.393C261.173 108.656 261.756 110.472 261.756 112.842ZM251.336 112.842C251.336 114.437 251.639 115.638 252.244 116.445C252.85 117.253 253.755 117.656 254.959 117.656C257.374 117.656 258.582 116.051 258.582 112.842C258.582 109.626 257.381 108.018 254.979 108.018C253.774 108.018 252.866 108.424 252.254 109.238C251.642 110.046 251.336 111.247 251.336 112.842ZM274.471 124.805H271.316C271.316 124.245 271.408 123.499 271.59 122.568C271.772 121.637 272.007 120.742 272.293 119.883L268.133 109.082H271.229L272.83 113.896C272.967 114.3 273.143 114.896 273.357 115.684C273.572 116.471 273.725 117.103 273.816 117.578H273.875C273.901 117.292 274.005 116.777 274.188 116.035C274.376 115.286 274.572 114.622 274.773 114.043L276.375 109.082H279.471L275.438 119.824C275.145 120.579 274.91 121.413 274.734 122.324C274.559 123.242 274.471 124.069 274.471 124.805ZM284.021 109.082V116.582C284.021 117.005 284.139 117.318 284.373 117.52C284.614 117.721 284.93 117.822 285.32 117.822C285.848 117.822 286.476 117.708 287.205 117.48V119.697C286.495 120.029 285.639 120.195 284.637 120.195C283.4 120.195 282.492 119.896 281.912 119.297C281.333 118.691 281.043 117.786 281.043 116.582V109.082H284.021ZM293.709 117.822C294.477 117.822 295.034 117.591 295.379 117.129C295.73 116.66 295.919 115.843 295.945 114.678V114.561C295.945 113.389 295.763 112.549 295.398 112.041C295.04 111.533 294.461 111.279 293.66 111.279C292.26 111.279 291.561 112.386 291.561 114.6C291.561 115.674 291.733 116.481 292.078 117.021C292.43 117.555 292.973 117.822 293.709 117.822ZM292.801 120.195C291.466 120.195 290.418 119.701 289.656 118.711C288.901 117.721 288.523 116.344 288.523 114.58C288.523 112.77 288.917 111.37 289.705 110.381C290.499 109.391 291.606 108.896 293.025 108.896C293.794 108.896 294.425 109.033 294.92 109.307C295.421 109.58 295.835 109.99 296.16 110.537H296.307C296.463 109.925 296.681 109.44 296.961 109.082H299.422C299.214 109.714 299.044 110.439 298.914 111.26C298.79 112.074 298.729 112.819 298.729 113.496V116.543C298.729 117.311 299.002 117.695 299.549 117.695C299.757 117.695 299.949 117.663 300.125 117.598V119.941C300.021 120.007 299.819 120.065 299.52 120.117C299.227 120.169 298.982 120.195 298.787 120.195C298.058 120.195 297.501 120.072 297.117 119.824C296.733 119.57 296.43 119.15 296.209 118.564H296.004C295.288 119.652 294.22 120.195 292.801 120.195ZM306.697 111.318V116.582C306.697 117.005 306.814 117.318 307.049 117.52C307.29 117.721 307.605 117.822 307.996 117.822C308.517 117.822 309.142 117.708 309.871 117.48V119.697C309.174 120.029 308.322 120.195 307.312 120.195C306.076 120.195 305.167 119.896 304.588 119.297C304.008 118.691 303.719 117.786 303.719 116.582V111.318H300.975V110.078L302.693 109.082H310.574V111.318H306.697ZM322.801 114.541C322.801 116.318 322.4 117.705 321.6 118.701C320.805 119.697 319.699 120.195 318.279 120.195C317.277 120.195 316.362 119.945 315.535 119.443H315.359C315.464 120.563 315.516 121.436 315.516 122.061V124.805H312.518V114.521C312.518 112.731 312.967 111.344 313.865 110.361C314.77 109.372 316.053 108.877 317.713 108.877C318.722 108.877 319.611 109.108 320.379 109.57C321.147 110.026 321.743 110.684 322.166 111.543C322.589 112.402 322.801 113.402 322.801 114.541ZM317.654 111.279C316.919 111.279 316.378 111.53 316.033 112.031C315.688 112.526 315.516 113.311 315.516 114.385V116.963C315.796 117.243 316.124 117.454 316.502 117.598C316.88 117.734 317.264 117.803 317.654 117.803C318.396 117.803 318.927 117.549 319.246 117.041C319.572 116.527 319.734 115.693 319.734 114.541C319.734 113.395 319.575 112.565 319.256 112.051C318.943 111.536 318.41 111.279 317.654 111.279ZM327.635 114.521C327.635 115.602 327.811 116.419 328.162 116.973C328.52 117.526 329.1 117.803 329.9 117.803C330.695 117.803 331.264 117.529 331.609 116.982C331.961 116.429 332.137 115.609 332.137 114.521C332.137 113.441 331.961 112.63 331.609 112.09C331.258 111.549 330.682 111.279 329.881 111.279C329.087 111.279 328.514 111.549 328.162 112.09C327.811 112.624 327.635 113.434 327.635 114.521ZM335.184 114.521C335.184 116.299 334.715 117.689 333.777 118.691C332.84 119.694 331.535 120.195 329.861 120.195C328.813 120.195 327.889 119.967 327.088 119.512C326.287 119.049 325.672 118.389 325.242 117.529C324.812 116.67 324.598 115.667 324.598 114.521C324.598 112.738 325.063 111.351 325.994 110.361C326.925 109.372 328.234 108.877 329.92 108.877C330.968 108.877 331.893 109.105 332.693 109.561C333.494 110.016 334.109 110.671 334.539 111.523C334.969 112.376 335.184 113.376 335.184 114.521ZM328.943 107.578C329.061 107.227 329.204 106.693 329.373 105.977C329.549 105.26 329.673 104.629 329.744 104.082H332.508V104.316C332 105.527 331.391 106.715 330.682 107.881H328.943V107.578ZM336.98 115.176C336.98 113.04 337.417 111.458 338.289 110.43C339.168 109.395 340.551 108.877 342.439 108.877C343.637 108.877 344.799 109.137 345.926 109.658L345.066 111.924C343.94 111.494 343.038 111.279 342.361 111.279C341.541 111.279 340.945 111.598 340.574 112.236C340.203 112.874 340.018 113.828 340.018 115.098C340.018 115.579 340.099 115.973 340.262 116.279C340.424 116.585 340.669 116.833 340.994 117.021C341.32 117.204 341.915 117.389 342.781 117.578C343.868 117.806 344.666 118.132 345.174 118.555C345.688 118.978 345.945 119.535 345.945 120.225C345.945 121.214 345.496 122.373 344.598 123.701H341.6C342.563 122.308 343.045 121.296 343.045 120.664C343.045 120.43 342.911 120.241 342.645 120.098C342.378 119.961 341.922 119.827 341.277 119.697C339.865 119.424 338.794 118.91 338.064 118.154C337.342 117.393 336.98 116.4 336.98 115.176ZM362.459 118.857C362.706 118.857 362.986 118.799 363.299 118.682V119.961C363.019 120.117 362.605 120.195 362.059 120.195C360.633 120.195 359.92 119.372 359.92 117.725V110.684H355.262V120H353.641V110.684H351.482V109.961L352.879 109.297H363.621V110.684H361.541V117.598C361.541 118.079 361.622 118.411 361.785 118.594C361.954 118.77 362.179 118.857 362.459 118.857ZM375.203 114.639C375.203 116.383 374.764 117.747 373.885 118.73C373.006 119.707 371.792 120.195 370.242 120.195C369.285 120.195 368.436 119.971 367.693 119.521C366.951 119.072 366.378 118.428 365.975 117.588C365.571 116.748 365.369 115.765 365.369 114.639C365.369 112.894 365.805 111.536 366.678 110.566C367.55 109.59 368.761 109.102 370.311 109.102C371.808 109.102 372.996 109.6 373.875 110.596C374.76 111.592 375.203 112.939 375.203 114.639ZM367.049 114.639C367.049 116.006 367.322 117.048 367.869 117.764C368.416 118.48 369.22 118.838 370.281 118.838C371.342 118.838 372.146 118.483 372.693 117.773C373.247 117.057 373.523 116.012 373.523 114.639C373.523 113.278 373.247 112.246 372.693 111.543C372.146 110.833 371.336 110.479 370.262 110.479C369.201 110.479 368.4 110.827 367.859 111.523C367.319 112.22 367.049 113.258 367.049 114.639ZM382.459 120.195C380.955 120.195 379.826 119.788 379.07 118.975C378.315 118.161 377.938 116.888 377.938 115.156V109.297H379.559V115.078C379.559 116.328 379.816 117.272 380.33 117.91C380.844 118.542 381.6 118.857 382.596 118.857C383.683 118.857 384.487 118.47 385.008 117.695C385.535 116.921 385.799 115.716 385.799 114.082C385.799 113.236 385.753 112.448 385.662 111.719C385.571 110.99 385.415 110.182 385.193 109.297H386.814C387.049 110.234 387.212 111.051 387.303 111.748C387.394 112.445 387.439 113.249 387.439 114.16C387.439 116.23 387.02 117.754 386.18 118.73C385.34 119.707 384.1 120.195 382.459 120.195ZM404.441 112.383C404.441 115.026 404.044 116.989 403.25 118.271C402.456 119.554 401.245 120.195 399.617 120.195C398.055 120.195 396.867 119.541 396.053 118.232C395.245 116.917 394.842 114.967 394.842 112.383C394.842 109.733 395.239 107.77 396.033 106.494C396.834 105.218 398.029 104.58 399.617 104.58C401.206 104.58 402.407 105.241 403.221 106.562C404.035 107.878 404.441 109.818 404.441 112.383ZM399.617 118.838C400.685 118.838 401.473 118.343 401.98 117.354C402.488 116.357 402.762 114.86 402.801 112.861H396.482C396.508 114.84 396.766 116.331 397.254 117.334C397.742 118.337 398.53 118.838 399.617 118.838ZM399.617 105.938C398.569 105.938 397.801 106.406 397.312 107.344C396.824 108.275 396.548 109.655 396.482 111.484H402.781C402.71 109.655 402.426 108.275 401.932 107.344C401.437 106.406 400.665 105.938 399.617 105.938ZM411.336 118.838C412.436 118.838 413.23 118.522 413.719 117.891C414.207 117.253 414.451 116.224 414.451 114.805V114.658C414.451 113.167 414.204 112.1 413.709 111.455C413.214 110.804 412.417 110.479 411.316 110.479C409.344 110.479 408.357 111.885 408.357 114.697C408.357 116.077 408.595 117.113 409.07 117.803C409.552 118.493 410.307 118.838 411.336 118.838ZM411.092 120.195C409.699 120.195 408.615 119.714 407.84 118.75C407.065 117.78 406.678 116.423 406.678 114.678C406.678 112.894 407.075 111.52 407.869 110.557C408.663 109.587 409.793 109.102 411.258 109.102C412.046 109.102 412.7 109.238 413.221 109.512C413.748 109.785 414.188 110.195 414.539 110.742H414.656C414.812 110.143 415.024 109.661 415.291 109.297H416.551C416.414 109.727 416.3 110.342 416.209 111.143C416.118 111.943 416.072 112.721 416.072 113.477V117.764C416.072 118.506 416.346 118.877 416.893 118.877C417.081 118.877 417.283 118.844 417.498 118.779V119.941C417.199 120.111 416.837 120.195 416.414 120.195C415.887 120.195 415.477 120.065 415.184 119.805C414.897 119.538 414.695 119.124 414.578 118.564H414.451C414.067 119.124 413.602 119.538 413.055 119.805C412.514 120.065 411.86 120.195 411.092 120.195ZM433.914 115.039C433.914 116.061 433.712 116.966 433.309 117.754C432.911 118.535 432.339 119.137 431.59 119.561C430.848 119.984 429.975 120.195 428.973 120.195C427.443 120.195 426.248 119.727 425.389 118.789C424.529 117.852 424.1 116.556 424.1 114.902C424.1 111.165 426.027 109.297 429.881 109.297H434.754V110.684H432.176C433.335 111.771 433.914 113.223 433.914 115.039ZM425.779 114.902C425.779 116.165 426.056 117.139 426.609 117.822C427.163 118.499 427.964 118.838 429.012 118.838C430.047 118.838 430.841 118.519 431.395 117.881C431.954 117.236 432.234 116.322 432.234 115.137C432.234 113.379 431.668 111.895 430.535 110.684H429.9C428.455 110.684 427.407 111.022 426.756 111.699C426.105 112.376 425.779 113.444 425.779 114.902ZM441.023 118.838C442.124 118.838 442.918 118.522 443.406 117.891C443.895 117.253 444.139 116.224 444.139 114.805V114.658C444.139 113.167 443.891 112.1 443.396 111.455C442.902 110.804 442.104 110.479 441.004 110.479C439.031 110.479 438.045 111.885 438.045 114.697C438.045 116.077 438.283 117.113 438.758 117.803C439.24 118.493 439.995 118.838 441.023 118.838ZM440.779 120.195C439.386 120.195 438.302 119.714 437.527 118.75C436.753 117.78 436.365 116.423 436.365 114.678C436.365 112.894 436.762 111.52 437.557 110.557C438.351 109.587 439.48 109.102 440.945 109.102C441.733 109.102 442.387 109.238 442.908 109.512C443.436 109.785 443.875 110.195 444.227 110.742H444.344C444.5 110.143 444.712 109.661 444.979 109.297H446.238C446.102 109.727 445.988 110.342 445.896 111.143C445.805 111.943 445.76 112.721 445.76 113.477V117.764C445.76 118.506 446.033 118.877 446.58 118.877C446.769 118.877 446.971 118.844 447.186 118.779V119.941C446.886 120.111 446.525 120.195 446.102 120.195C445.574 120.195 445.164 120.065 444.871 119.805C444.585 119.538 444.383 119.124 444.266 118.564H444.139C443.755 119.124 443.289 119.538 442.742 119.805C442.202 120.065 441.548 120.195 440.779 120.195ZM450.271 114.902C450.271 115.781 450.366 116.436 450.555 116.865C450.75 117.295 451.079 117.64 451.541 117.9C452.01 118.161 452.765 118.402 453.807 118.623C454.77 118.831 455.464 119.111 455.887 119.463C456.316 119.808 456.531 120.273 456.531 120.859C456.531 121.289 456.443 121.751 456.268 122.246C456.092 122.741 455.786 123.298 455.35 123.916H453.826C454.178 123.46 454.461 122.992 454.676 122.51C454.897 122.028 455.008 121.624 455.008 121.299C455.008 121.038 454.923 120.83 454.754 120.674C454.591 120.524 454.331 120.387 453.973 120.264C453.615 120.14 453.12 120.02 452.488 119.902C451.16 119.661 450.177 119.128 449.539 118.301C448.908 117.474 448.592 116.348 448.592 114.922C448.592 113.06 449.041 111.624 449.939 110.615C450.838 109.606 452.094 109.102 453.709 109.102C454.223 109.102 454.738 109.157 455.252 109.268C455.766 109.372 456.199 109.502 456.551 109.658L456.033 111.035C455.187 110.703 454.393 110.537 453.65 110.537C452.505 110.537 451.655 110.892 451.102 111.602C450.548 112.311 450.271 113.411 450.271 114.902ZM469.295 113.74V115.117H467.85C465.825 115.117 464.812 115.752 464.812 117.021C464.812 117.607 465.05 118.06 465.525 118.379C466.007 118.698 466.723 118.857 467.674 118.857C468.221 118.857 468.764 118.796 469.305 118.672C469.845 118.542 470.441 118.324 471.092 118.018V119.463C470.2 119.951 469.035 120.195 467.596 120.195C466.229 120.195 465.151 119.922 464.363 119.375C463.582 118.822 463.191 118.063 463.191 117.1C463.191 116.462 463.37 115.931 463.729 115.508C464.087 115.078 464.689 114.73 465.535 114.463V114.355C464.897 114.173 464.402 113.877 464.051 113.467C463.706 113.05 463.533 112.542 463.533 111.943C463.533 111.077 463.898 110.387 464.627 109.873C465.356 109.359 466.346 109.102 467.596 109.102C468.227 109.102 468.81 109.157 469.344 109.268C469.884 109.372 470.48 109.57 471.131 109.863L470.516 111.162C469.904 110.889 469.386 110.706 468.963 110.615C468.54 110.524 468.071 110.479 467.557 110.479C465.929 110.479 465.115 111.006 465.115 112.061C465.115 113.18 466.147 113.74 468.211 113.74H469.295ZM480.164 112.637H478.426C477.28 112.637 476.359 112.926 475.662 113.506C474.972 114.085 474.627 114.837 474.627 115.762C474.627 116.283 474.708 116.702 474.871 117.021C475.034 117.34 475.268 117.601 475.574 117.803C475.887 117.998 476.261 118.154 476.697 118.271C477.14 118.389 477.635 118.506 478.182 118.623C479.106 118.812 479.786 119.085 480.223 119.443C480.665 119.801 480.887 120.273 480.887 120.859C480.887 121.283 480.799 121.735 480.623 122.217C480.447 122.705 480.141 123.271 479.705 123.916H478.182C478.527 123.454 478.807 122.982 479.021 122.5C479.236 122.025 479.344 121.618 479.344 121.279C479.344 120.921 479.155 120.641 478.777 120.439C478.406 120.244 477.755 120.065 476.824 119.902C475.522 119.681 474.546 119.245 473.895 118.594C473.25 117.943 472.928 117.044 472.928 115.898C472.928 114.987 473.185 114.189 473.699 113.506C474.214 112.822 474.887 112.354 475.721 112.1V111.982C474.308 111.566 473.602 110.651 473.602 109.238C473.602 108.477 473.826 107.839 474.275 107.324C474.731 106.81 475.499 106.39 476.58 106.064C475.747 106.143 474.956 106.182 474.207 106.182H473.543V104.805H480.359V106.084H479.861C479.015 106.084 478.227 106.214 477.498 106.475C476.769 106.735 476.196 107.1 475.779 107.568C475.369 108.037 475.164 108.581 475.164 109.199C475.164 109.948 475.434 110.498 475.975 110.85C476.521 111.201 477.365 111.377 478.504 111.377H480.164V112.637ZM488.318 113.74V115.117H486.873C484.848 115.117 483.836 115.752 483.836 117.021C483.836 117.607 484.074 118.06 484.549 118.379C485.031 118.698 485.747 118.857 486.697 118.857C487.244 118.857 487.788 118.796 488.328 118.672C488.868 118.542 489.464 118.324 490.115 118.018V119.463C489.223 119.951 488.058 120.195 486.619 120.195C485.252 120.195 484.174 119.922 483.387 119.375C482.605 118.822 482.215 118.063 482.215 117.1C482.215 116.462 482.394 115.931 482.752 115.508C483.11 115.078 483.712 114.73 484.559 114.463V114.355C483.921 114.173 483.426 113.877 483.074 113.467C482.729 113.05 482.557 112.542 482.557 111.943C482.557 111.077 482.921 110.387 483.65 109.873C484.38 109.359 485.369 109.102 486.619 109.102C487.251 109.102 487.833 109.157 488.367 109.268C488.908 109.372 489.503 109.57 490.154 109.863L489.539 111.162C488.927 110.889 488.41 110.706 487.986 110.615C487.563 110.524 487.094 110.479 486.58 110.479C484.952 110.479 484.139 111.006 484.139 112.061C484.139 113.18 485.171 113.74 487.234 113.74H488.318ZM499.783 109.297V110.684H495.564V116.719C495.564 118.171 496.232 118.896 497.566 118.896C497.872 118.896 498.185 118.877 498.504 118.838C498.823 118.792 499.07 118.747 499.246 118.701V119.922C499.018 120.02 498.722 120.098 498.357 120.156C497.999 120.215 497.664 120.244 497.352 120.244C496.173 120.244 495.307 119.967 494.754 119.414C494.201 118.861 493.924 118.031 493.924 116.924V110.684H491.023V109.961L492.469 109.297H499.783ZM506.102 118.838C507.202 118.838 507.996 118.522 508.484 117.891C508.973 117.253 509.217 116.224 509.217 114.805V114.658C509.217 113.167 508.969 112.1 508.475 111.455C507.98 110.804 507.182 110.479 506.082 110.479C504.109 110.479 503.123 111.885 503.123 114.697C503.123 116.077 503.361 117.113 503.836 117.803C504.318 118.493 505.073 118.838 506.102 118.838ZM505.857 120.195C504.464 120.195 503.38 119.714 502.605 118.75C501.831 117.78 501.443 116.423 501.443 114.678C501.443 112.894 501.84 111.52 502.635 110.557C503.429 109.587 504.559 109.102 506.023 109.102C506.811 109.102 507.465 109.238 507.986 109.512C508.514 109.785 508.953 110.195 509.305 110.742H509.422C509.578 110.143 509.79 109.661 510.057 109.297H511.316C511.18 109.727 511.066 110.342 510.975 111.143C510.883 111.943 510.838 112.721 510.838 113.477V117.764C510.838 118.506 511.111 118.877 511.658 118.877C511.847 118.877 512.049 118.844 512.264 118.779V119.941C511.964 120.111 511.603 120.195 511.18 120.195C510.652 120.195 510.242 120.065 509.949 119.805C509.663 119.538 509.461 119.124 509.344 118.564H509.217C508.833 119.124 508.367 119.538 507.82 119.805C507.28 120.065 506.626 120.195 505.857 120.195ZM505.564 107.598C505.74 107.129 505.913 106.527 506.082 105.791C506.258 105.049 506.385 104.411 506.463 103.877H508.26V104.102C508.143 104.583 507.905 105.212 507.547 105.986C507.195 106.755 506.86 107.386 506.541 107.881H505.564V107.598ZM523.484 115.039C523.484 116.061 523.283 116.966 522.879 117.754C522.482 118.535 521.909 119.137 521.16 119.561C520.418 119.984 519.546 120.195 518.543 120.195C517.013 120.195 515.818 119.727 514.959 118.789C514.1 117.852 513.67 116.556 513.67 114.902C513.67 111.165 515.597 109.297 519.451 109.297H524.324V110.684H521.746C522.905 111.771 523.484 113.223 523.484 115.039ZM515.35 114.902C515.35 116.165 515.626 117.139 516.18 117.822C516.733 118.499 517.534 118.838 518.582 118.838C519.617 118.838 520.411 118.519 520.965 117.881C521.525 117.236 521.805 116.322 521.805 115.137C521.805 113.379 521.238 111.895 520.105 110.684H519.471C518.025 110.684 516.977 111.022 516.326 111.699C515.675 112.376 515.35 113.444 515.35 114.902ZM531.795 113.74V115.117H530.35C528.325 115.117 527.312 115.752 527.312 117.021C527.312 117.607 527.55 118.06 528.025 118.379C528.507 118.698 529.223 118.857 530.174 118.857C530.721 118.857 531.264 118.796 531.805 118.672C532.345 118.542 532.941 118.324 533.592 118.018V119.463C532.7 119.951 531.535 120.195 530.096 120.195C528.729 120.195 527.651 119.922 526.863 119.375C526.082 118.822 525.691 118.063 525.691 117.1C525.691 116.462 525.87 115.931 526.229 115.508C526.587 115.078 527.189 114.73 528.035 114.463V114.355C527.397 114.173 526.902 113.877 526.551 113.467C526.206 113.05 526.033 112.542 526.033 111.943C526.033 111.077 526.398 110.387 527.127 109.873C527.856 109.359 528.846 109.102 530.096 109.102C530.727 109.102 531.31 109.157 531.844 109.268C532.384 109.372 532.98 109.57 533.631 109.863L533.016 111.162C532.404 110.889 531.886 110.706 531.463 110.615C531.04 110.524 530.571 110.479 530.057 110.479C528.429 110.479 527.615 111.006 527.615 112.061C527.615 113.18 528.647 113.74 530.711 113.74H531.795ZM537.586 109.297V116.855C537.586 117.533 537.703 118.037 537.938 118.369C538.178 118.695 538.582 118.857 539.148 118.857C539.389 118.857 539.673 118.838 539.998 118.799C540.33 118.753 540.584 118.708 540.76 118.662V119.902C540.558 119.987 540.285 120.055 539.939 120.107C539.601 120.166 539.269 120.195 538.943 120.195C537.902 120.195 537.143 119.922 536.668 119.375C536.199 118.828 535.965 118.005 535.965 116.904V109.297H537.586ZM544.52 117.676L544.666 117.9C544.497 118.551 544.253 119.307 543.934 120.166C543.615 121.032 543.283 121.836 542.938 122.578H541.717C541.893 121.901 542.085 121.064 542.293 120.068C542.508 119.072 542.658 118.275 542.742 117.676H544.52ZM562.664 112.383C562.664 115.02 562.225 116.982 561.346 118.271C560.473 119.554 559.145 120.195 557.361 120.195C555.636 120.195 554.327 119.528 553.436 118.193C552.544 116.852 552.098 114.915 552.098 112.383C552.098 109.733 552.534 107.77 553.406 106.494C554.279 105.218 555.597 104.58 557.361 104.58C559.087 104.58 560.402 105.244 561.307 106.572C562.212 107.894 562.664 109.831 562.664 112.383ZM557.361 118.037C558.123 118.037 558.676 117.66 559.021 116.904C559.373 116.143 559.565 114.987 559.598 113.438H555.135C555.161 114.967 555.343 116.117 555.682 116.885C556.027 117.653 556.587 118.037 557.361 118.037ZM557.381 106.738C556.678 106.738 556.147 107.087 555.789 107.783C555.431 108.473 555.223 109.619 555.164 111.221H559.598C559.546 109.723 559.347 108.604 559.002 107.861C558.663 107.113 558.123 106.738 557.381 106.738ZM569.646 117.822C570.415 117.822 570.971 117.591 571.316 117.129C571.668 116.66 571.857 115.843 571.883 114.678V114.561C571.883 113.389 571.701 112.549 571.336 112.041C570.978 111.533 570.398 111.279 569.598 111.279C568.198 111.279 567.498 112.386 567.498 114.6C567.498 115.674 567.671 116.481 568.016 117.021C568.367 117.555 568.911 117.822 569.646 117.822ZM568.738 120.195C567.404 120.195 566.355 119.701 565.594 118.711C564.839 117.721 564.461 116.344 564.461 114.58C564.461 112.77 564.855 111.37 565.643 110.381C566.437 109.391 567.544 108.896 568.963 108.896C569.731 108.896 570.363 109.033 570.857 109.307C571.359 109.58 571.772 109.99 572.098 110.537H572.244C572.4 109.925 572.618 109.44 572.898 109.082H575.359C575.151 109.714 574.982 110.439 574.852 111.26C574.728 112.074 574.666 112.819 574.666 113.496V116.543C574.666 117.311 574.939 117.695 575.486 117.695C575.695 117.695 575.887 117.663 576.062 117.598V119.941C575.958 120.007 575.757 120.065 575.457 120.117C575.164 120.169 574.92 120.195 574.725 120.195C573.995 120.195 573.439 120.072 573.055 119.824C572.671 119.57 572.368 119.15 572.146 118.564H571.941C571.225 119.652 570.158 120.195 568.738 120.195ZM589.91 113.281V115.342H588.27C587.319 115.342 586.603 115.449 586.121 115.664C585.646 115.872 585.408 116.211 585.408 116.68C585.408 117.493 586.281 117.9 588.025 117.9C588.696 117.9 589.389 117.829 590.105 117.686C590.822 117.536 591.469 117.327 592.049 117.061V119.443C590.929 119.945 589.516 120.195 587.811 120.195C586.079 120.195 584.754 119.928 583.836 119.395C582.924 118.854 582.469 118.05 582.469 116.982C582.469 116.286 582.677 115.719 583.094 115.283C583.51 114.847 584.188 114.538 585.125 114.355V114.258C583.738 113.939 583.045 113.099 583.045 111.738C583.045 110.82 583.458 110.114 584.285 109.619C585.112 109.124 586.287 108.877 587.811 108.877C588.559 108.877 589.311 108.952 590.066 109.102C590.828 109.251 591.495 109.45 592.068 109.697L591.15 111.855C590.376 111.543 589.764 111.338 589.314 111.24C588.865 111.136 588.39 111.084 587.889 111.084C587.153 111.084 586.606 111.165 586.248 111.328C585.89 111.491 585.711 111.748 585.711 112.1C585.711 112.529 585.926 112.835 586.355 113.018C586.792 113.193 587.475 113.281 588.406 113.281H589.91ZM605.516 117.861C605.952 117.861 606.375 117.747 606.785 117.52V119.658C606.518 119.821 606.176 119.951 605.76 120.049C605.35 120.146 604.969 120.195 604.617 120.195C603.641 120.195 602.895 119.928 602.381 119.395C601.873 118.861 601.619 118.063 601.619 117.002V111.357H598.318V120H595.34V111.357H593.064V110.078L594.803 109.082H606.902V111.357H604.598V116.885C604.598 117.217 604.686 117.464 604.861 117.627C605.037 117.783 605.255 117.861 605.516 117.861ZM612.146 109.082V116.582C612.146 117.005 612.264 117.318 612.498 117.52C612.739 117.721 613.055 117.822 613.445 117.822C613.973 117.822 614.601 117.708 615.33 117.48V119.697C614.62 120.029 613.764 120.195 612.762 120.195C611.525 120.195 610.617 119.896 610.037 119.297C609.458 118.691 609.168 117.786 609.168 116.582V109.082H612.146ZM622.527 104.697C624.057 104.697 625.262 105.036 626.141 105.713C627.026 106.39 627.469 107.331 627.469 108.535C627.469 109.505 627.221 110.273 626.727 110.84C626.232 111.4 625.525 111.755 624.607 111.904V111.963C625.831 112.119 626.743 112.513 627.342 113.145C627.947 113.77 628.25 114.648 628.25 115.781C628.25 117.148 627.824 118.226 626.971 119.014C626.124 119.801 624.959 120.195 623.475 120.195C622.173 120.195 621.111 119.99 620.291 119.58V124.805H617.312V109.297C617.312 107.839 617.768 106.709 618.68 105.908C619.591 105.101 620.874 104.697 622.527 104.697ZM622.449 107.021C621.01 107.021 620.291 107.874 620.291 109.58V117.139C620.604 117.34 620.988 117.507 621.443 117.637C621.899 117.76 622.322 117.822 622.713 117.822C623.546 117.822 624.165 117.62 624.568 117.217C624.972 116.813 625.174 116.247 625.174 115.518C625.174 114.801 624.956 114.258 624.52 113.887C624.09 113.509 623.462 113.32 622.635 113.32H621.932V110.957H622.449C623.094 110.957 623.595 110.781 623.953 110.43C624.311 110.072 624.49 109.561 624.49 108.896C624.49 108.298 624.311 107.835 623.953 107.51C623.595 107.184 623.094 107.021 622.449 107.021ZM637.156 113.281V115.342H635.516C634.565 115.342 633.849 115.449 633.367 115.664C632.892 115.872 632.654 116.211 632.654 116.68C632.654 117.493 633.527 117.9 635.271 117.9C635.942 117.9 636.635 117.829 637.352 117.686C638.068 117.536 638.715 117.327 639.295 117.061V119.443C638.175 119.945 636.762 120.195 635.057 120.195C633.325 120.195 632 119.928 631.082 119.395C630.171 118.854 629.715 118.05 629.715 116.982C629.715 116.286 629.923 115.719 630.34 115.283C630.757 114.847 631.434 114.538 632.371 114.355V114.258C630.984 113.939 630.291 113.099 630.291 111.738C630.291 110.82 630.704 110.114 631.531 109.619C632.358 109.124 633.533 108.877 635.057 108.877C635.805 108.877 636.557 108.952 637.312 109.102C638.074 109.251 638.742 109.45 639.314 109.697L638.396 111.855C637.622 111.543 637.01 111.338 636.561 111.24C636.111 111.136 635.636 111.084 635.135 111.084C634.399 111.084 633.852 111.165 633.494 111.328C633.136 111.491 632.957 111.748 632.957 112.1C632.957 112.529 633.172 112.835 633.602 113.018C634.038 113.193 634.721 113.281 635.652 113.281H637.156ZM646.844 104.697C648.374 104.697 649.578 105.036 650.457 105.713C651.342 106.39 651.785 107.331 651.785 108.535C651.785 109.505 651.538 110.273 651.043 110.84C650.548 111.4 649.842 111.755 648.924 111.904V111.963C650.148 112.119 651.059 112.513 651.658 113.145C652.264 113.77 652.566 114.648 652.566 115.781C652.566 117.148 652.14 118.226 651.287 119.014C650.441 119.801 649.275 120.195 647.791 120.195C646.489 120.195 645.428 119.99 644.607 119.58V124.805H641.629V109.297C641.629 107.839 642.085 106.709 642.996 105.908C643.908 105.101 645.19 104.697 646.844 104.697ZM646.766 107.021C645.327 107.021 644.607 107.874 644.607 109.58V117.139C644.92 117.34 645.304 117.507 645.76 117.637C646.215 117.76 646.639 117.822 647.029 117.822C647.863 117.822 648.481 117.62 648.885 117.217C649.288 116.813 649.49 116.247 649.49 115.518C649.49 114.801 649.272 114.258 648.836 113.887C648.406 113.509 647.778 113.32 646.951 113.32H646.248V110.957H646.766C647.41 110.957 647.911 110.781 648.27 110.43C648.628 110.072 648.807 109.561 648.807 108.896C648.807 108.298 648.628 107.835 648.27 107.51C647.911 107.184 647.41 107.021 646.766 107.021ZM659.354 117.822C660.122 117.822 660.678 117.591 661.023 117.129C661.375 116.66 661.564 115.843 661.59 114.678V114.561C661.59 113.389 661.408 112.549 661.043 112.041C660.685 111.533 660.105 111.279 659.305 111.279C657.905 111.279 657.205 112.386 657.205 114.6C657.205 115.674 657.378 116.481 657.723 117.021C658.074 117.555 658.618 117.822 659.354 117.822ZM658.445 120.195C657.111 120.195 656.062 119.701 655.301 118.711C654.546 117.721 654.168 116.344 654.168 114.58C654.168 112.77 654.562 111.37 655.35 110.381C656.144 109.391 657.251 108.896 658.67 108.896C659.438 108.896 660.07 109.033 660.564 109.307C661.066 109.58 661.479 109.99 661.805 110.537H661.951C662.107 109.925 662.326 109.44 662.605 109.082H665.066C664.858 109.714 664.689 110.439 664.559 111.26C664.435 112.074 664.373 112.819 664.373 113.496V116.543C664.373 117.311 664.646 117.695 665.193 117.695C665.402 117.695 665.594 117.663 665.77 117.598V119.941C665.665 120.007 665.464 120.065 665.164 120.117C664.871 120.169 664.627 120.195 664.432 120.195C663.702 120.195 663.146 120.072 662.762 119.824C662.378 119.57 662.075 119.15 661.854 118.564H661.648C660.932 119.652 659.865 120.195 658.445 120.195ZM670.76 109.082V116.582C670.76 117.005 670.877 117.318 671.111 117.52C671.352 117.721 671.668 117.822 672.059 117.822C672.586 117.822 673.214 117.708 673.943 117.48V119.697C673.234 120.029 672.378 120.195 671.375 120.195C670.138 120.195 669.23 119.896 668.65 119.297C668.071 118.691 667.781 117.786 667.781 116.582V109.082H670.76ZM686.16 120.195C685.366 120.195 684.715 120.026 684.207 119.688C683.699 119.342 683.312 118.828 683.045 118.145H682.947C682.648 118.861 682.244 119.382 681.736 119.707C681.235 120.033 680.597 120.195 679.822 120.195C678.429 120.195 677.348 119.704 676.58 118.721C675.812 117.738 675.428 116.396 675.428 114.697C675.428 113.695 675.506 112.77 675.662 111.924C675.818 111.077 676.105 110.13 676.521 109.082H679.383C678.569 110.788 678.162 112.627 678.162 114.6C678.162 115.667 678.322 116.481 678.641 117.041C678.966 117.601 679.441 117.881 680.066 117.881C680.607 117.881 681.001 117.692 681.248 117.314C681.495 116.937 681.619 116.312 681.619 115.439V112.559H684.363V115.439C684.363 116.318 684.487 116.947 684.734 117.324C684.982 117.695 685.379 117.881 685.926 117.881C686.538 117.881 687.007 117.607 687.332 117.061C687.658 116.507 687.82 115.7 687.82 114.639C687.82 112.64 687.413 110.788 686.6 109.082H689.461C689.878 110.137 690.164 111.084 690.32 111.924C690.483 112.764 690.564 113.688 690.564 114.697C690.564 116.41 690.177 117.754 689.402 118.73C688.628 119.707 687.547 120.195 686.16 120.195ZM681.98 107.578C682.098 107.227 682.241 106.693 682.41 105.977C682.586 105.26 682.71 104.629 682.781 104.082H685.545V104.316C685.037 105.527 684.428 106.715 683.719 107.881H681.98V107.578ZM703.27 115.361C703.27 116.312 703.048 117.158 702.605 117.9C702.169 118.636 701.541 119.202 700.721 119.6C699.907 119.997 698.956 120.195 697.869 120.195C696.176 120.195 694.861 119.707 693.924 118.73C692.993 117.747 692.527 116.396 692.527 114.678C692.527 110.934 694.581 109.062 698.689 109.062H704.285V111.24H701.512C702.684 112.477 703.27 113.851 703.27 115.361ZM695.594 114.678C695.594 115.693 695.786 116.468 696.17 117.002C696.561 117.536 697.14 117.803 697.908 117.803C698.663 117.803 699.236 117.555 699.627 117.061C700.018 116.559 700.213 115.84 700.213 114.902C700.213 114.18 700.115 113.525 699.92 112.939C699.731 112.347 699.415 111.781 698.973 111.24H698.484C697.43 111.24 696.684 111.507 696.248 112.041C695.812 112.575 695.594 113.454 695.594 114.678ZM712.898 113.281V115.342H711.258C710.307 115.342 709.591 115.449 709.109 115.664C708.634 115.872 708.396 116.211 708.396 116.68C708.396 117.493 709.269 117.9 711.014 117.9C711.684 117.9 712.378 117.829 713.094 117.686C713.81 117.536 714.458 117.327 715.037 117.061V119.443C713.917 119.945 712.505 120.195 710.799 120.195C709.067 120.195 707.742 119.928 706.824 119.395C705.913 118.854 705.457 118.05 705.457 116.982C705.457 116.286 705.665 115.719 706.082 115.283C706.499 114.847 707.176 114.538 708.113 114.355V114.258C706.727 113.939 706.033 113.099 706.033 111.738C706.033 110.82 706.447 110.114 707.273 109.619C708.1 109.124 709.275 108.877 710.799 108.877C711.548 108.877 712.299 108.952 713.055 109.102C713.816 109.251 714.484 109.45 715.057 109.697L714.139 111.855C713.364 111.543 712.752 111.338 712.303 111.24C711.854 111.136 711.378 111.084 710.877 111.084C710.141 111.084 709.594 111.165 709.236 111.328C708.878 111.491 708.699 111.748 708.699 112.1C708.699 112.529 708.914 112.835 709.344 113.018C709.78 113.193 710.464 113.281 711.395 113.281H712.898ZM720.35 109.082V116.582C720.35 117.005 720.467 117.318 720.701 117.52C720.942 117.721 721.258 117.822 721.648 117.822C722.176 117.822 722.804 117.708 723.533 117.48V119.697C722.824 120.029 721.967 120.195 720.965 120.195C719.728 120.195 718.82 119.896 718.24 119.297C717.661 118.691 717.371 117.786 717.371 116.582V109.082H720.35ZM735.232 117.822C736.001 117.822 736.557 117.591 736.902 117.129C737.254 116.66 737.443 115.843 737.469 114.678V114.561C737.469 113.389 737.286 112.549 736.922 112.041C736.564 111.533 735.984 111.279 735.184 111.279C733.784 111.279 733.084 112.386 733.084 114.6C733.084 115.674 733.257 116.481 733.602 117.021C733.953 117.555 734.497 117.822 735.232 117.822ZM734.324 120.195C732.99 120.195 731.941 119.701 731.18 118.711C730.424 117.721 730.047 116.344 730.047 114.58C730.047 112.77 730.441 111.37 731.229 110.381C732.023 109.391 733.13 108.896 734.549 108.896C735.317 108.896 735.949 109.033 736.443 109.307C736.945 109.58 737.358 109.99 737.684 110.537H737.83C737.986 109.925 738.204 109.44 738.484 109.082H740.945C740.737 109.714 740.568 110.439 740.438 111.26C740.314 112.074 740.252 112.819 740.252 113.496V116.543C740.252 117.311 740.525 117.695 741.072 117.695C741.281 117.695 741.473 117.663 741.648 117.598V119.941C741.544 120.007 741.342 120.065 741.043 120.117C740.75 120.169 740.506 120.195 740.311 120.195C739.581 120.195 739.025 120.072 738.641 119.824C738.257 119.57 737.954 119.15 737.732 118.564H737.527C736.811 119.652 735.743 120.195 734.324 120.195ZM742.156 109.082H745.213L747.342 115.137L748.016 117.363H748.094C748.842 116.367 749.383 115.225 749.715 113.936C750.047 112.646 750.213 111.029 750.213 109.082H753.221C753.221 110.749 753.077 112.188 752.791 113.398C752.505 114.603 752.049 115.745 751.424 116.826C750.805 117.9 749.975 118.958 748.934 120H746.258L742.156 109.082ZM771.902 117.861C772.339 117.861 772.762 117.747 773.172 117.52V119.658C772.905 119.821 772.563 119.951 772.146 120.049C771.736 120.146 771.355 120.195 771.004 120.195C770.027 120.195 769.282 119.928 768.768 119.395C768.26 118.861 768.006 118.063 768.006 117.002V111.357H764.705V120H761.727V111.357H759.451V110.078L761.189 109.082H773.289V111.357H770.984V116.885C770.984 117.217 771.072 117.464 771.248 117.627C771.424 117.783 771.642 117.861 771.902 117.861ZM785.457 114.541C785.457 116.318 785.057 117.705 784.256 118.701C783.462 119.697 782.355 120.195 780.936 120.195C779.933 120.195 779.018 119.945 778.191 119.443H778.016C778.12 120.563 778.172 121.436 778.172 122.061V124.805H775.174V114.521C775.174 112.731 775.623 111.344 776.521 110.361C777.426 109.372 778.709 108.877 780.369 108.877C781.378 108.877 782.267 109.108 783.035 109.57C783.803 110.026 784.399 110.684 784.822 111.543C785.245 112.402 785.457 113.402 785.457 114.541ZM780.311 111.279C779.575 111.279 779.035 111.53 778.689 112.031C778.344 112.526 778.172 113.311 778.172 114.385V116.963C778.452 117.243 778.781 117.454 779.158 117.598C779.536 117.734 779.92 117.803 780.311 117.803C781.053 117.803 781.583 117.549 781.902 117.041C782.228 116.527 782.391 115.693 782.391 114.541C782.391 113.395 782.231 112.565 781.912 112.051C781.6 111.536 781.066 111.279 780.311 111.279ZM794.559 113.281V115.342H792.918C791.967 115.342 791.251 115.449 790.77 115.664C790.294 115.872 790.057 116.211 790.057 116.68C790.057 117.493 790.929 117.9 792.674 117.9C793.344 117.9 794.038 117.829 794.754 117.686C795.47 117.536 796.118 117.327 796.697 117.061V119.443C795.577 119.945 794.165 120.195 792.459 120.195C790.727 120.195 789.402 119.928 788.484 119.395C787.573 118.854 787.117 118.05 787.117 116.982C787.117 116.286 787.326 115.719 787.742 115.283C788.159 114.847 788.836 114.538 789.773 114.355V114.258C788.387 113.939 787.693 113.099 787.693 111.738C787.693 110.82 788.107 110.114 788.934 109.619C789.76 109.124 790.936 108.877 792.459 108.877C793.208 108.877 793.96 108.952 794.715 109.102C795.477 109.251 796.144 109.45 796.717 109.697L795.799 111.855C795.024 111.543 794.412 111.338 793.963 111.24C793.514 111.136 793.038 111.084 792.537 111.084C791.801 111.084 791.255 111.165 790.896 111.328C790.538 111.491 790.359 111.748 790.359 112.1C790.359 112.529 790.574 112.835 791.004 113.018C791.44 113.193 792.124 113.281 793.055 113.281H794.559ZM791.316 107.578C791.434 107.227 791.577 106.693 791.746 105.977C791.922 105.26 792.046 104.629 792.117 104.082H794.881V104.316C794.373 105.527 793.764 106.715 793.055 107.881H791.316V107.578ZM810.164 117.861C810.6 117.861 811.023 117.747 811.434 117.52V119.658C811.167 119.821 810.825 119.951 810.408 120.049C809.998 120.146 809.617 120.195 809.266 120.195C808.289 120.195 807.544 119.928 807.029 119.395C806.521 118.861 806.268 118.063 806.268 117.002V111.357H802.967V120H799.988V111.357H797.713V110.078L799.451 109.082H811.551V111.357H809.246V116.885C809.246 117.217 809.334 117.464 809.51 117.627C809.686 117.783 809.904 117.861 810.164 117.861ZM820.457 113.281V115.342H818.816C817.866 115.342 817.15 115.449 816.668 115.664C816.193 115.872 815.955 116.211 815.955 116.68C815.955 117.493 816.827 117.9 818.572 117.9C819.243 117.9 819.936 117.829 820.652 117.686C821.368 117.536 822.016 117.327 822.596 117.061V119.443C821.476 119.945 820.063 120.195 818.357 120.195C816.626 120.195 815.301 119.928 814.383 119.395C813.471 118.854 813.016 118.05 813.016 116.982C813.016 116.286 813.224 115.719 813.641 115.283C814.057 114.847 814.734 114.538 815.672 114.355V114.258C814.285 113.939 813.592 113.099 813.592 111.738C813.592 110.82 814.005 110.114 814.832 109.619C815.659 109.124 816.834 108.877 818.357 108.877C819.106 108.877 819.858 108.952 820.613 109.102C821.375 109.251 822.042 109.45 822.615 109.697L821.697 111.855C820.923 111.543 820.311 111.338 819.861 111.24C819.412 111.136 818.937 111.084 818.436 111.084C817.7 111.084 817.153 111.165 816.795 111.328C816.437 111.491 816.258 111.748 816.258 112.1C816.258 112.529 816.473 112.835 816.902 113.018C817.339 113.193 818.022 113.281 818.953 113.281H820.457ZM827.908 109.082V116.582C827.908 117.005 828.025 117.318 828.26 117.52C828.501 117.721 828.816 117.822 829.207 117.822C829.734 117.822 830.363 117.708 831.092 117.48V119.697C830.382 120.029 829.526 120.195 828.523 120.195C827.286 120.195 826.378 119.896 825.799 119.297C825.219 118.691 824.93 117.786 824.93 116.582V109.082H827.908ZM836.766 109.082H839.822L841.951 115.137L842.625 117.363H842.703C843.452 116.367 843.992 115.225 844.324 113.936C844.656 112.646 844.822 111.029 844.822 109.082H847.83C847.83 110.749 847.687 112.188 847.4 113.398C847.114 114.603 846.658 115.745 846.033 116.826C845.415 117.9 844.585 118.958 843.543 120H840.867L836.766 109.082ZM854.705 117.822C855.473 117.822 856.03 117.591 856.375 117.129C856.727 116.66 856.915 115.843 856.941 114.678V114.561C856.941 113.389 856.759 112.549 856.395 112.041C856.036 111.533 855.457 111.279 854.656 111.279C853.257 111.279 852.557 112.386 852.557 114.6C852.557 115.674 852.729 116.481 853.074 117.021C853.426 117.555 853.969 117.822 854.705 117.822ZM853.797 120.195C852.462 120.195 851.414 119.701 850.652 118.711C849.897 117.721 849.52 116.344 849.52 114.58C849.52 112.77 849.913 111.37 850.701 110.381C851.495 109.391 852.602 108.896 854.021 108.896C854.79 108.896 855.421 109.033 855.916 109.307C856.417 109.58 856.831 109.99 857.156 110.537H857.303C857.459 109.925 857.677 109.44 857.957 109.082H860.418C860.21 109.714 860.04 110.439 859.91 111.26C859.786 112.074 859.725 112.819 859.725 113.496V116.543C859.725 117.311 859.998 117.695 860.545 117.695C860.753 117.695 860.945 117.663 861.121 117.598V119.941C861.017 120.007 860.815 120.065 860.516 120.117C860.223 120.169 859.979 120.195 859.783 120.195C859.054 120.195 858.497 120.072 858.113 119.824C857.729 119.57 857.426 119.15 857.205 118.564H857C856.284 119.652 855.216 120.195 853.797 120.195ZM879.461 117.861C879.897 117.861 880.32 117.747 880.73 117.52V119.658C880.464 119.821 880.122 119.951 879.705 120.049C879.295 120.146 878.914 120.195 878.562 120.195C877.586 120.195 876.84 119.928 876.326 119.395C875.818 118.861 875.564 118.063 875.564 117.002V111.357H872.264V120H869.285V111.357H867.01V110.078L868.748 109.082H880.848V111.357H878.543V116.885C878.543 117.217 878.631 117.464 878.807 117.627C878.982 117.783 879.201 117.861 879.461 117.861ZM889.754 113.281V115.342H888.113C887.163 115.342 886.447 115.449 885.965 115.664C885.49 115.872 885.252 116.211 885.252 116.68C885.252 117.493 886.124 117.9 887.869 117.9C888.54 117.9 889.233 117.829 889.949 117.686C890.665 117.536 891.313 117.327 891.893 117.061V119.443C890.773 119.945 889.36 120.195 887.654 120.195C885.923 120.195 884.598 119.928 883.68 119.395C882.768 118.854 882.312 118.05 882.312 116.982C882.312 116.286 882.521 115.719 882.938 115.283C883.354 114.847 884.031 114.538 884.969 114.355V114.258C883.582 113.939 882.889 113.099 882.889 111.738C882.889 110.82 883.302 110.114 884.129 109.619C884.956 109.124 886.131 108.877 887.654 108.877C888.403 108.877 889.155 108.952 889.91 109.102C890.672 109.251 891.339 109.45 891.912 109.697L890.994 111.855C890.219 111.543 889.607 111.338 889.158 111.24C888.709 111.136 888.234 111.084 887.732 111.084C886.997 111.084 886.45 111.165 886.092 111.328C885.734 111.491 885.555 111.748 885.555 112.1C885.555 112.529 885.77 112.835 886.199 113.018C886.635 113.193 887.319 113.281 888.25 113.281H889.754ZM904.129 114.541C904.129 116.318 903.729 117.705 902.928 118.701C902.133 119.697 901.027 120.195 899.607 120.195C898.605 120.195 897.69 119.945 896.863 119.443H896.688C896.792 120.563 896.844 121.436 896.844 122.061V124.805H893.846V114.521C893.846 112.731 894.295 111.344 895.193 110.361C896.098 109.372 897.381 108.877 899.041 108.877C900.05 108.877 900.939 109.108 901.707 109.57C902.475 110.026 903.071 110.684 903.494 111.543C903.917 112.402 904.129 113.402 904.129 114.541ZM898.982 111.279C898.247 111.279 897.706 111.53 897.361 112.031C897.016 112.526 896.844 113.311 896.844 114.385V116.963C897.124 117.243 897.452 117.454 897.83 117.598C898.208 117.734 898.592 117.803 898.982 117.803C899.725 117.803 900.255 117.549 900.574 117.041C900.9 116.527 901.062 115.693 901.062 114.541C901.062 113.395 900.903 112.565 900.584 112.051C900.271 111.536 899.738 111.279 898.982 111.279ZM909.568 109.082V116.582C909.568 117.005 909.686 117.318 909.92 117.52C910.161 117.721 910.477 117.822 910.867 117.822C911.395 117.822 912.023 117.708 912.752 117.48V119.697C912.042 120.029 911.186 120.195 910.184 120.195C908.947 120.195 908.038 119.896 907.459 119.297C906.88 118.691 906.59 117.786 906.59 116.582V109.082H909.568ZM917.713 115.459C917.713 116.247 917.856 116.839 918.143 117.236C918.429 117.627 918.878 117.822 919.49 117.822C920.311 117.822 920.906 117.542 921.277 116.982C921.648 116.416 921.834 115.495 921.834 114.219V109.082H924.812V120H922.557L922.137 118.535H921.99C921.717 119.089 921.385 119.505 920.994 119.785C920.604 120.059 920.122 120.195 919.549 120.195C919.145 120.195 918.774 120.12 918.436 119.971C918.097 119.821 917.824 119.603 917.615 119.316L917.664 120.146L917.713 121.68V124.805H914.734V109.082H917.713V115.459ZM934.578 113.281V115.342H932.938C931.987 115.342 931.271 115.449 930.789 115.664C930.314 115.872 930.076 116.211 930.076 116.68C930.076 117.493 930.949 117.9 932.693 117.9C933.364 117.9 934.057 117.829 934.773 117.686C935.49 117.536 936.137 117.327 936.717 117.061V119.443C935.597 119.945 934.184 120.195 932.479 120.195C930.747 120.195 929.422 119.928 928.504 119.395C927.592 118.854 927.137 118.05 927.137 116.982C927.137 116.286 927.345 115.719 927.762 115.283C928.178 114.847 928.855 114.538 929.793 114.355V114.258C928.406 113.939 927.713 113.099 927.713 111.738C927.713 110.82 928.126 110.114 928.953 109.619C929.78 109.124 930.955 108.877 932.479 108.877C933.227 108.877 933.979 108.952 934.734 109.102C935.496 109.251 936.163 109.45 936.736 109.697L935.818 111.855C935.044 111.543 934.432 111.338 933.982 111.24C933.533 111.136 933.058 111.084 932.557 111.084C931.821 111.084 931.274 111.165 930.916 111.328C930.558 111.491 930.379 111.748 930.379 112.1C930.379 112.529 930.594 112.835 931.023 113.018C931.46 113.193 932.143 113.281 933.074 113.281H934.578ZM931.336 107.578C931.453 107.227 931.596 106.693 931.766 105.977C931.941 105.26 932.065 104.629 932.137 104.082H934.9V104.316C934.393 105.527 933.784 106.715 933.074 107.881H931.336V107.578ZM937.547 109.082H940.604L942.732 115.137L943.406 117.363H943.484C944.233 116.367 944.773 115.225 945.105 113.936C945.438 112.646 945.604 111.029 945.604 109.082H948.611C948.611 110.749 948.468 112.188 948.182 113.398C947.895 114.603 947.439 115.745 946.814 116.826C946.196 117.9 945.366 118.958 944.324 120H941.648L937.547 109.082ZM957.605 113.281V115.342H955.965C955.014 115.342 954.298 115.449 953.816 115.664C953.341 115.872 953.104 116.211 953.104 116.68C953.104 117.493 953.976 117.9 955.721 117.9C956.391 117.9 957.085 117.829 957.801 117.686C958.517 117.536 959.165 117.327 959.744 117.061V119.443C958.624 119.945 957.212 120.195 955.506 120.195C953.774 120.195 952.449 119.928 951.531 119.395C950.62 118.854 950.164 118.05 950.164 116.982C950.164 116.286 950.372 115.719 950.789 115.283C951.206 114.847 951.883 114.538 952.82 114.355V114.258C951.434 113.939 950.74 113.099 950.74 111.738C950.74 110.82 951.154 110.114 951.98 109.619C952.807 109.124 953.982 108.877 955.506 108.877C956.255 108.877 957.007 108.952 957.762 109.102C958.523 109.251 959.191 109.45 959.764 109.697L958.846 111.855C958.071 111.543 957.459 111.338 957.01 111.24C956.561 111.136 956.085 111.084 955.584 111.084C954.848 111.084 954.301 111.165 953.943 111.328C953.585 111.491 953.406 111.748 953.406 112.1C953.406 112.529 953.621 112.835 954.051 113.018C954.487 113.193 955.171 113.281 956.102 113.281H957.605ZM966.639 111.318V116.582C966.639 117.005 966.756 117.318 966.99 117.52C967.231 117.721 967.547 117.822 967.938 117.822C968.458 117.822 969.083 117.708 969.812 117.48V119.697C969.116 120.029 968.263 120.195 967.254 120.195C966.017 120.195 965.109 119.896 964.529 119.297C963.95 118.691 963.66 117.786 963.66 116.582V111.318H960.916V110.078L962.635 109.082H970.516V111.318H966.639ZM979.48 113.281V115.342H977.84C976.889 115.342 976.173 115.449 975.691 115.664C975.216 115.872 974.979 116.211 974.979 116.68C974.979 117.493 975.851 117.9 977.596 117.9C978.266 117.9 978.96 117.829 979.676 117.686C980.392 117.536 981.04 117.327 981.619 117.061V119.443C980.499 119.945 979.087 120.195 977.381 120.195C975.649 120.195 974.324 119.928 973.406 119.395C972.495 118.854 972.039 118.05 972.039 116.982C972.039 116.286 972.247 115.719 972.664 115.283C973.081 114.847 973.758 114.538 974.695 114.355V114.258C973.309 113.939 972.615 113.099 972.615 111.738C972.615 110.82 973.029 110.114 973.855 109.619C974.682 109.124 975.857 108.877 977.381 108.877C978.13 108.877 978.882 108.952 979.637 109.102C980.398 109.251 981.066 109.45 981.639 109.697L980.721 111.855C979.946 111.543 979.334 111.338 978.885 111.24C978.436 111.136 977.96 111.084 977.459 111.084C976.723 111.084 976.176 111.165 975.818 111.328C975.46 111.491 975.281 111.748 975.281 112.1C975.281 112.529 975.496 112.835 975.926 113.018C976.362 113.193 977.046 113.281 977.977 113.281H979.48ZM253.357 151.805H250.203C250.203 151.245 250.294 150.499 250.477 149.568C250.659 148.637 250.893 147.742 251.18 146.883L247.02 136.082H250.115L251.717 140.896C251.854 141.3 252.029 141.896 252.244 142.684C252.459 143.471 252.612 144.103 252.703 144.578H252.762C252.788 144.292 252.892 143.777 253.074 143.035C253.263 142.286 253.458 141.622 253.66 141.043L255.262 136.082H258.357L254.324 146.824C254.031 147.579 253.797 148.413 253.621 149.324C253.445 150.242 253.357 151.069 253.357 151.805ZM262.908 136.082V143.582C262.908 144.005 263.025 144.318 263.26 144.52C263.501 144.721 263.816 144.822 264.207 144.822C264.734 144.822 265.363 144.708 266.092 144.48V146.697C265.382 147.029 264.526 147.195 263.523 147.195C262.286 147.195 261.378 146.896 260.799 146.297C260.219 145.691 259.93 144.786 259.93 143.582V136.082H262.908ZM272.596 144.822C273.364 144.822 273.921 144.591 274.266 144.129C274.617 143.66 274.806 142.843 274.832 141.678V141.561C274.832 140.389 274.65 139.549 274.285 139.041C273.927 138.533 273.348 138.279 272.547 138.279C271.147 138.279 270.447 139.386 270.447 141.6C270.447 142.674 270.62 143.481 270.965 144.021C271.316 144.555 271.86 144.822 272.596 144.822ZM271.688 147.195C270.353 147.195 269.305 146.701 268.543 145.711C267.788 144.721 267.41 143.344 267.41 141.58C267.41 139.77 267.804 138.37 268.592 137.381C269.386 136.391 270.493 135.896 271.912 135.896C272.68 135.896 273.312 136.033 273.807 136.307C274.308 136.58 274.721 136.99 275.047 137.537H275.193C275.35 136.925 275.568 136.44 275.848 136.082H278.309C278.1 136.714 277.931 137.439 277.801 138.26C277.677 139.074 277.615 139.819 277.615 140.496V143.543C277.615 144.311 277.889 144.695 278.436 144.695C278.644 144.695 278.836 144.663 279.012 144.598V146.941C278.908 147.007 278.706 147.065 278.406 147.117C278.113 147.169 277.869 147.195 277.674 147.195C276.945 147.195 276.388 147.072 276.004 146.824C275.62 146.57 275.317 146.15 275.096 145.564H274.891C274.174 146.652 273.107 147.195 271.688 147.195ZM290.779 138.318V143.582C290.779 144.005 290.896 144.318 291.131 144.52C291.372 144.721 291.688 144.822 292.078 144.822C292.599 144.822 293.224 144.708 293.953 144.48V146.697C293.257 147.029 292.404 147.195 291.395 147.195C290.158 147.195 289.249 146.896 288.67 146.297C288.09 145.691 287.801 144.786 287.801 143.582V138.318H285.057V137.078L286.775 136.082H294.656V138.318H290.779ZM301.502 144.822C302.27 144.822 302.827 144.591 303.172 144.129C303.523 143.66 303.712 142.843 303.738 141.678V141.561C303.738 140.389 303.556 139.549 303.191 139.041C302.833 138.533 302.254 138.279 301.453 138.279C300.053 138.279 299.354 139.386 299.354 141.6C299.354 142.674 299.526 143.481 299.871 144.021C300.223 144.555 300.766 144.822 301.502 144.822ZM300.594 147.195C299.259 147.195 298.211 146.701 297.449 145.711C296.694 144.721 296.316 143.344 296.316 141.58C296.316 139.77 296.71 138.37 297.498 137.381C298.292 136.391 299.399 135.896 300.818 135.896C301.587 135.896 302.218 136.033 302.713 136.307C303.214 136.58 303.628 136.99 303.953 137.537H304.1C304.256 136.925 304.474 136.44 304.754 136.082H307.215C307.007 136.714 306.837 137.439 306.707 138.26C306.583 139.074 306.521 139.819 306.521 140.496V143.543C306.521 144.311 306.795 144.695 307.342 144.695C307.55 144.695 307.742 144.663 307.918 144.598V146.941C307.814 147.007 307.612 147.065 307.312 147.117C307.02 147.169 306.775 147.195 306.58 147.195C305.851 147.195 305.294 147.072 304.91 146.824C304.526 146.57 304.223 146.15 304.002 145.564H303.797C303.081 146.652 302.013 147.195 300.594 147.195ZM319.646 144.822C320.415 144.822 320.971 144.591 321.316 144.129C321.668 143.66 321.857 142.843 321.883 141.678V141.561C321.883 140.389 321.701 139.549 321.336 139.041C320.978 138.533 320.398 138.279 319.598 138.279C318.198 138.279 317.498 139.386 317.498 141.6C317.498 142.674 317.671 143.481 318.016 144.021C318.367 144.555 318.911 144.822 319.646 144.822ZM318.738 147.195C317.404 147.195 316.355 146.701 315.594 145.711C314.839 144.721 314.461 143.344 314.461 141.58C314.461 139.77 314.855 138.37 315.643 137.381C316.437 136.391 317.544 135.896 318.963 135.896C319.731 135.896 320.363 136.033 320.857 136.307C321.359 136.58 321.772 136.99 322.098 137.537H322.244C322.4 136.925 322.618 136.44 322.898 136.082H325.359C325.151 136.714 324.982 137.439 324.852 138.26C324.728 139.074 324.666 139.819 324.666 140.496V143.543C324.666 144.311 324.939 144.695 325.486 144.695C325.695 144.695 325.887 144.663 326.062 144.598V146.941C325.958 147.007 325.757 147.065 325.457 147.117C325.164 147.169 324.92 147.195 324.725 147.195C323.995 147.195 323.439 147.072 323.055 146.824C322.671 146.57 322.368 146.15 322.146 145.564H321.941C321.225 146.652 320.158 147.195 318.738 147.195ZM339.207 144.861C339.643 144.861 340.066 144.747 340.477 144.52V146.658C340.21 146.821 339.868 146.951 339.451 147.049C339.041 147.146 338.66 147.195 338.309 147.195C337.332 147.195 336.587 146.928 336.072 146.395C335.564 145.861 335.311 145.063 335.311 144.002V138.357H332.01V147H329.031V138.357H326.756V137.078L328.494 136.082H340.594V138.357H338.289V143.885C338.289 144.217 338.377 144.464 338.553 144.627C338.729 144.783 338.947 144.861 339.207 144.861ZM345.232 141.521C345.232 142.602 345.408 143.419 345.76 143.973C346.118 144.526 346.697 144.803 347.498 144.803C348.292 144.803 348.862 144.529 349.207 143.982C349.559 143.429 349.734 142.609 349.734 141.521C349.734 140.441 349.559 139.63 349.207 139.09C348.855 138.549 348.279 138.279 347.479 138.279C346.684 138.279 346.111 138.549 345.76 139.09C345.408 139.624 345.232 140.434 345.232 141.521ZM352.781 141.521C352.781 143.299 352.312 144.689 351.375 145.691C350.438 146.694 349.132 147.195 347.459 147.195C346.411 147.195 345.486 146.967 344.686 146.512C343.885 146.049 343.27 145.389 342.84 144.529C342.41 143.67 342.195 142.667 342.195 141.521C342.195 139.738 342.661 138.351 343.592 137.361C344.523 136.372 345.831 135.877 347.518 135.877C348.566 135.877 349.49 136.105 350.291 136.561C351.092 137.016 351.707 137.671 352.137 138.523C352.566 139.376 352.781 140.376 352.781 141.521ZM359.803 138.318V143.582C359.803 144.005 359.92 144.318 360.154 144.52C360.395 144.721 360.711 144.822 361.102 144.822C361.622 144.822 362.247 144.708 362.977 144.48V146.697C362.28 147.029 361.427 147.195 360.418 147.195C359.181 147.195 358.273 146.896 357.693 146.297C357.114 145.691 356.824 144.786 356.824 143.582V138.318H354.08V137.078L355.799 136.082H363.68V138.318H359.803ZM372.645 140.281V142.342H371.004C370.053 142.342 369.337 142.449 368.855 142.664C368.38 142.872 368.143 143.211 368.143 143.68C368.143 144.493 369.015 144.9 370.76 144.9C371.43 144.9 372.124 144.829 372.84 144.686C373.556 144.536 374.204 144.327 374.783 144.061V146.443C373.663 146.945 372.251 147.195 370.545 147.195C368.813 147.195 367.488 146.928 366.57 146.395C365.659 145.854 365.203 145.05 365.203 143.982C365.203 143.286 365.411 142.719 365.828 142.283C366.245 141.847 366.922 141.538 367.859 141.355V141.258C366.473 140.939 365.779 140.099 365.779 138.738C365.779 137.82 366.193 137.114 367.02 136.619C367.846 136.124 369.021 135.877 370.545 135.877C371.294 135.877 372.046 135.952 372.801 136.102C373.562 136.251 374.23 136.45 374.803 136.697L373.885 138.855C373.11 138.543 372.498 138.338 372.049 138.24C371.6 138.136 371.124 138.084 370.623 138.084C369.887 138.084 369.34 138.165 368.982 138.328C368.624 138.491 368.445 138.748 368.445 139.1C368.445 139.529 368.66 139.835 369.09 140.018C369.526 140.193 370.21 140.281 371.141 140.281H372.645ZM375.633 147L380.252 136.678L379.91 135.779C379.676 135.193 379.409 134.78 379.109 134.539C378.81 134.298 378.351 134.178 377.732 134.178C377.407 134.178 377.075 134.22 376.736 134.305V131.844C377.251 131.733 377.791 131.678 378.357 131.678C379.106 131.678 379.744 131.792 380.271 132.02C380.805 132.247 381.258 132.602 381.629 133.084C382.007 133.559 382.361 134.259 382.693 135.184L385.438 142.723C385.678 143.4 385.923 143.898 386.17 144.217C386.417 144.536 386.72 144.695 387.078 144.695C387.293 144.695 387.518 144.663 387.752 144.598V146.902C387.602 146.98 387.342 147.049 386.971 147.107C386.6 147.166 386.287 147.195 386.033 147.195C385.317 147.195 384.731 147.02 384.275 146.668C383.82 146.316 383.458 145.753 383.191 144.979C382.449 142.876 382.007 141.609 381.863 141.18C381.727 140.743 381.616 140.356 381.531 140.018H381.473C381.173 141.02 380.926 141.769 380.73 142.264L378.719 147H375.633ZM396.062 140.281V142.342H394.422C393.471 142.342 392.755 142.449 392.273 142.664C391.798 142.872 391.561 143.211 391.561 143.68C391.561 144.493 392.433 144.9 394.178 144.9C394.848 144.9 395.542 144.829 396.258 144.686C396.974 144.536 397.622 144.327 398.201 144.061V146.443C397.081 146.945 395.669 147.195 393.963 147.195C392.231 147.195 390.906 146.928 389.988 146.395C389.077 145.854 388.621 145.05 388.621 143.982C388.621 143.286 388.829 142.719 389.246 142.283C389.663 141.847 390.34 141.538 391.277 141.355V141.258C389.891 140.939 389.197 140.099 389.197 138.738C389.197 137.82 389.611 137.114 390.438 136.619C391.264 136.124 392.439 135.877 393.963 135.877C394.712 135.877 395.464 135.952 396.219 136.102C396.98 136.251 397.648 136.45 398.221 136.697L397.303 138.855C396.528 138.543 395.916 138.338 395.467 138.24C395.018 138.136 394.542 138.084 394.041 138.084C393.305 138.084 392.758 138.165 392.4 138.328C392.042 138.491 391.863 138.748 391.863 139.1C391.863 139.529 392.078 139.835 392.508 140.018C392.944 140.193 393.628 140.281 394.559 140.281H396.062ZM392.82 134.578C392.938 134.227 393.081 133.693 393.25 132.977C393.426 132.26 393.549 131.629 393.621 131.082H396.385V131.316C395.877 132.527 395.268 133.715 394.559 134.881H392.82V134.578ZM410.613 142.361C410.613 143.312 410.392 144.158 409.949 144.9C409.513 145.636 408.885 146.202 408.064 146.6C407.251 146.997 406.3 147.195 405.213 147.195C403.52 147.195 402.205 146.707 401.268 145.73C400.337 144.747 399.871 143.396 399.871 141.678C399.871 137.934 401.925 136.062 406.033 136.062H411.629V138.24H408.855C410.027 139.477 410.613 140.851 410.613 142.361ZM402.938 141.678C402.938 142.693 403.13 143.468 403.514 144.002C403.904 144.536 404.484 144.803 405.252 144.803C406.007 144.803 406.58 144.555 406.971 144.061C407.361 143.559 407.557 142.84 407.557 141.902C407.557 141.18 407.459 140.525 407.264 139.939C407.075 139.347 406.759 138.781 406.316 138.24H405.828C404.773 138.24 404.028 138.507 403.592 139.041C403.156 139.575 402.938 140.454 402.938 141.678ZM416.58 142.459C416.58 143.247 416.723 143.839 417.01 144.236C417.296 144.627 417.745 144.822 418.357 144.822C419.178 144.822 419.773 144.542 420.145 143.982C420.516 143.416 420.701 142.495 420.701 141.219V136.082H423.68V147H421.424L421.004 145.535H420.857C420.584 146.089 420.252 146.505 419.861 146.785C419.471 147.059 418.989 147.195 418.416 147.195C418.012 147.195 417.641 147.12 417.303 146.971C416.964 146.821 416.691 146.603 416.482 146.316L416.531 147.146L416.58 148.68V151.805H413.602V136.082H416.58V142.459ZM431.326 144.822C432.094 144.822 432.651 144.591 432.996 144.129C433.348 143.66 433.536 142.843 433.562 141.678V141.561C433.562 140.389 433.38 139.549 433.016 139.041C432.658 138.533 432.078 138.279 431.277 138.279C429.878 138.279 429.178 139.386 429.178 141.6C429.178 142.674 429.35 143.481 429.695 144.021C430.047 144.555 430.59 144.822 431.326 144.822ZM430.418 147.195C429.083 147.195 428.035 146.701 427.273 145.711C426.518 144.721 426.141 143.344 426.141 141.58C426.141 139.77 426.535 138.37 427.322 137.381C428.117 136.391 429.223 135.896 430.643 135.896C431.411 135.896 432.042 136.033 432.537 136.307C433.038 136.58 433.452 136.99 433.777 137.537H433.924C434.08 136.925 434.298 136.44 434.578 136.082H437.039C436.831 136.714 436.661 137.439 436.531 138.26C436.408 139.074 436.346 139.819 436.346 140.496V143.543C436.346 144.311 436.619 144.695 437.166 144.695C437.374 144.695 437.566 144.663 437.742 144.598V146.941C437.638 147.007 437.436 147.065 437.137 147.117C436.844 147.169 436.6 147.195 436.404 147.195C435.675 147.195 435.118 147.072 434.734 146.824C434.35 146.57 434.048 146.15 433.826 145.564H433.621C432.905 146.652 431.837 147.195 430.418 147.195ZM444.314 138.318V143.582C444.314 144.005 444.432 144.318 444.666 144.52C444.907 144.721 445.223 144.822 445.613 144.822C446.134 144.822 446.759 144.708 447.488 144.48V146.697C446.792 147.029 445.939 147.195 444.93 147.195C443.693 147.195 442.785 146.896 442.205 146.297C441.626 145.691 441.336 144.786 441.336 143.582V138.318H438.592V137.078L440.311 136.082H448.191V138.318H444.314ZM455.037 144.822C455.805 144.822 456.362 144.591 456.707 144.129C457.059 143.66 457.247 142.843 457.273 141.678V141.561C457.273 140.389 457.091 139.549 456.727 139.041C456.368 138.533 455.789 138.279 454.988 138.279C453.589 138.279 452.889 139.386 452.889 141.6C452.889 142.674 453.061 143.481 453.406 144.021C453.758 144.555 454.301 144.822 455.037 144.822ZM454.129 147.195C452.794 147.195 451.746 146.701 450.984 145.711C450.229 144.721 449.852 143.344 449.852 141.58C449.852 139.77 450.245 138.37 451.033 137.381C451.827 136.391 452.934 135.896 454.354 135.896C455.122 135.896 455.753 136.033 456.248 136.307C456.749 136.58 457.163 136.99 457.488 137.537H457.635C457.791 136.925 458.009 136.44 458.289 136.082H460.75C460.542 136.714 460.372 137.439 460.242 138.26C460.118 139.074 460.057 139.819 460.057 140.496V143.543C460.057 144.311 460.33 144.695 460.877 144.695C461.085 144.695 461.277 144.663 461.453 144.598V146.941C461.349 147.007 461.147 147.065 460.848 147.117C460.555 147.169 460.311 147.195 460.115 147.195C459.386 147.195 458.829 147.072 458.445 146.824C458.061 146.57 457.758 146.15 457.537 145.564H457.332C456.616 146.652 455.548 147.195 454.129 147.195ZM465.32 144.676L465.467 144.9C465.298 145.551 465.053 146.307 464.734 147.166C464.415 148.032 464.083 148.836 463.738 149.578H462.518C462.693 148.901 462.885 148.064 463.094 147.068C463.309 146.072 463.458 145.275 463.543 144.676H465.32ZM477.781 145.838C478.882 145.838 479.676 145.522 480.164 144.891C480.652 144.253 480.896 143.224 480.896 141.805V141.658C480.896 140.167 480.649 139.1 480.154 138.455C479.66 137.804 478.862 137.479 477.762 137.479C475.789 137.479 474.803 138.885 474.803 141.697C474.803 143.077 475.04 144.113 475.516 144.803C475.997 145.493 476.753 145.838 477.781 145.838ZM477.537 147.195C476.144 147.195 475.06 146.714 474.285 145.75C473.51 144.78 473.123 143.423 473.123 141.678C473.123 139.894 473.52 138.52 474.314 137.557C475.109 136.587 476.238 136.102 477.703 136.102C478.491 136.102 479.145 136.238 479.666 136.512C480.193 136.785 480.633 137.195 480.984 137.742H481.102C481.258 137.143 481.469 136.661 481.736 136.297H482.996C482.859 136.727 482.745 137.342 482.654 138.143C482.563 138.943 482.518 139.721 482.518 140.477V144.764C482.518 145.506 482.791 145.877 483.338 145.877C483.527 145.877 483.729 145.844 483.943 145.779V146.941C483.644 147.111 483.283 147.195 482.859 147.195C482.332 147.195 481.922 147.065 481.629 146.805C481.342 146.538 481.141 146.124 481.023 145.564H480.896C480.512 146.124 480.047 146.538 479.5 146.805C478.96 147.065 478.305 147.195 477.537 147.195ZM484.227 136.297H485.906L488.045 142.059C488.214 142.495 488.432 143.1 488.699 143.875C488.973 144.65 489.161 145.239 489.266 145.643H489.344C490.496 144.503 491.329 143.211 491.844 141.766C492.365 140.314 492.625 138.491 492.625 136.297H494.246C494.246 138.66 493.908 140.669 493.23 142.322C492.56 143.976 491.492 145.535 490.027 147H488.211L484.227 136.297ZM500.848 145.838C501.948 145.838 502.742 145.522 503.23 144.891C503.719 144.253 503.963 143.224 503.963 141.805V141.658C503.963 140.167 503.715 139.1 503.221 138.455C502.726 137.804 501.928 137.479 500.828 137.479C498.855 137.479 497.869 138.885 497.869 141.697C497.869 143.077 498.107 144.113 498.582 144.803C499.064 145.493 499.819 145.838 500.848 145.838ZM500.604 147.195C499.21 147.195 498.126 146.714 497.352 145.75C496.577 144.78 496.189 143.423 496.189 141.678C496.189 139.894 496.587 138.52 497.381 137.557C498.175 136.587 499.305 136.102 500.77 136.102C501.557 136.102 502.212 136.238 502.732 136.512C503.26 136.785 503.699 137.195 504.051 137.742H504.168C504.324 137.143 504.536 136.661 504.803 136.297H506.062C505.926 136.727 505.812 137.342 505.721 138.143C505.63 138.943 505.584 139.721 505.584 140.477V144.764C505.584 145.506 505.857 145.877 506.404 145.877C506.593 145.877 506.795 145.844 507.01 145.779V146.941C506.71 147.111 506.349 147.195 505.926 147.195C505.398 147.195 504.988 147.065 504.695 146.805C504.409 146.538 504.207 146.124 504.09 145.564H503.963C503.579 146.124 503.113 146.538 502.566 146.805C502.026 147.065 501.372 147.195 500.604 147.195ZM500.311 134.598C500.486 134.129 500.659 133.527 500.828 132.791C501.004 132.049 501.131 131.411 501.209 130.877H503.006V131.102C502.889 131.583 502.651 132.212 502.293 132.986C501.941 133.755 501.606 134.386 501.287 134.881H500.311V134.598ZM507.156 147L511.775 136.463L511.209 134.881C511.014 134.327 510.835 133.937 510.672 133.709C510.509 133.481 510.317 133.309 510.096 133.191C509.881 133.074 509.614 133.016 509.295 133.016C508.917 133.016 508.543 133.058 508.172 133.143V131.844C508.615 131.733 509.041 131.678 509.451 131.678C510.044 131.678 510.535 131.775 510.926 131.971C511.323 132.166 511.665 132.475 511.951 132.898C512.238 133.322 512.557 134.028 512.908 135.018L516.453 144.9C516.577 145.219 516.707 145.464 516.844 145.633C516.98 145.796 517.163 145.877 517.391 145.877C517.566 145.877 517.762 145.844 517.977 145.779V146.961C517.664 147.117 517.309 147.195 516.912 147.195C516.43 147.195 516.053 147.072 515.779 146.824C515.512 146.577 515.285 146.183 515.096 145.643L513.572 141.385C513.025 139.822 512.68 138.729 512.537 138.104H512.449C512.267 138.859 511.889 139.917 511.316 141.277L508.836 147H507.156ZM528.934 141.639C528.934 143.383 528.494 144.747 527.615 145.73C526.736 146.707 525.522 147.195 523.973 147.195C523.016 147.195 522.166 146.971 521.424 146.521C520.682 146.072 520.109 145.428 519.705 144.588C519.301 143.748 519.1 142.765 519.1 141.639C519.1 139.894 519.536 138.536 520.408 137.566C521.281 136.59 522.492 136.102 524.041 136.102C525.538 136.102 526.727 136.6 527.605 137.596C528.491 138.592 528.934 139.939 528.934 141.639ZM520.779 141.639C520.779 143.006 521.053 144.048 521.6 144.764C522.146 145.48 522.951 145.838 524.012 145.838C525.073 145.838 525.877 145.483 526.424 144.773C526.977 144.057 527.254 143.012 527.254 141.639C527.254 140.278 526.977 139.246 526.424 138.543C525.877 137.833 525.066 137.479 523.992 137.479C522.931 137.479 522.13 137.827 521.59 138.523C521.049 139.22 520.779 140.258 520.779 141.639ZM535.262 151.805H533.504C533.504 151.18 533.608 150.389 533.816 149.432C534.025 148.475 534.269 147.625 534.549 146.883L530.164 136.297H531.844L534.188 142C534.799 143.53 535.167 144.63 535.291 145.301H535.369C535.402 145.105 535.483 144.777 535.613 144.314C535.75 143.852 535.887 143.413 536.023 142.996C536.167 142.573 537 140.34 538.523 136.297H540.203L536.248 146.736C535.936 147.544 535.691 148.423 535.516 149.373C535.346 150.324 535.262 151.134 535.262 151.805ZM546.102 145.838C547.202 145.838 547.996 145.522 548.484 144.891C548.973 144.253 549.217 143.224 549.217 141.805V141.658C549.217 140.167 548.969 139.1 548.475 138.455C547.98 137.804 547.182 137.479 546.082 137.479C544.109 137.479 543.123 138.885 543.123 141.697C543.123 143.077 543.361 144.113 543.836 144.803C544.318 145.493 545.073 145.838 546.102 145.838ZM545.857 147.195C544.464 147.195 543.38 146.714 542.605 145.75C541.831 144.78 541.443 143.423 541.443 141.678C541.443 139.894 541.84 138.52 542.635 137.557C543.429 136.587 544.559 136.102 546.023 136.102C546.811 136.102 547.465 136.238 547.986 136.512C548.514 136.785 548.953 137.195 549.305 137.742H549.422C549.578 137.143 549.79 136.661 550.057 136.297H551.316C551.18 136.727 551.066 137.342 550.975 138.143C550.883 138.943 550.838 139.721 550.838 140.477V144.764C550.838 145.506 551.111 145.877 551.658 145.877C551.847 145.877 552.049 145.844 552.264 145.779V146.941C551.964 147.111 551.603 147.195 551.18 147.195C550.652 147.195 550.242 147.065 549.949 146.805C549.663 146.538 549.461 146.124 549.344 145.564H549.217C548.833 146.124 548.367 146.538 547.82 146.805C547.28 147.065 546.626 147.195 545.857 147.195ZM565.701 136.316H567.723L563.68 141.023L568.006 147H566.043L562.518 142.078L561.199 143.182V147H559.461V136.316H561.199V139.08C561.199 140.161 561.16 141.069 561.082 141.805L565.701 136.316ZM573.895 145.838C574.995 145.838 575.789 145.522 576.277 144.891C576.766 144.253 577.01 143.224 577.01 141.805V141.658C577.01 140.167 576.762 139.1 576.268 138.455C575.773 137.804 574.975 137.479 573.875 137.479C571.902 137.479 570.916 138.885 570.916 141.697C570.916 143.077 571.154 144.113 571.629 144.803C572.111 145.493 572.866 145.838 573.895 145.838ZM573.65 147.195C572.257 147.195 571.173 146.714 570.398 145.75C569.624 144.78 569.236 143.423 569.236 141.678C569.236 139.894 569.633 138.52 570.428 137.557C571.222 136.587 572.352 136.102 573.816 136.102C574.604 136.102 575.258 136.238 575.779 136.512C576.307 136.785 576.746 137.195 577.098 137.742H577.215C577.371 137.143 577.583 136.661 577.85 136.297H579.109C578.973 136.727 578.859 137.342 578.768 138.143C578.676 138.943 578.631 139.721 578.631 140.477V144.764C578.631 145.506 578.904 145.877 579.451 145.877C579.64 145.877 579.842 145.844 580.057 145.779V146.941C579.757 147.111 579.396 147.195 578.973 147.195C578.445 147.195 578.035 147.065 577.742 146.805C577.456 146.538 577.254 146.124 577.137 145.564H577.01C576.626 146.124 576.16 146.538 575.613 146.805C575.073 147.065 574.419 147.195 573.65 147.195ZM583.602 136.297V143.855C583.602 144.533 583.719 145.037 583.953 145.369C584.194 145.695 584.598 145.857 585.164 145.857C585.405 145.857 585.688 145.838 586.014 145.799C586.346 145.753 586.6 145.708 586.775 145.662V146.902C586.574 146.987 586.3 147.055 585.955 147.107C585.617 147.166 585.285 147.195 584.959 147.195C583.917 147.195 583.159 146.922 582.684 146.375C582.215 145.828 581.98 145.005 581.98 143.904V136.297H583.602ZM601.248 136.297V137.684H597.029V143.719C597.029 145.171 597.697 145.896 599.031 145.896C599.337 145.896 599.65 145.877 599.969 145.838C600.288 145.792 600.535 145.747 600.711 145.701V146.922C600.483 147.02 600.187 147.098 599.822 147.156C599.464 147.215 599.129 147.244 598.816 147.244C597.638 147.244 596.772 146.967 596.219 146.414C595.665 145.861 595.389 145.031 595.389 143.924V137.684H592.488V136.961L593.934 136.297H601.248ZM612.742 141.639C612.742 143.383 612.303 144.747 611.424 145.73C610.545 146.707 609.331 147.195 607.781 147.195C606.824 147.195 605.975 146.971 605.232 146.521C604.49 146.072 603.917 145.428 603.514 144.588C603.11 143.748 602.908 142.765 602.908 141.639C602.908 139.894 603.344 138.536 604.217 137.566C605.089 136.59 606.3 136.102 607.85 136.102C609.347 136.102 610.535 136.6 611.414 137.596C612.299 138.592 612.742 139.939 612.742 141.639ZM604.588 141.639C604.588 143.006 604.861 144.048 605.408 144.764C605.955 145.48 606.759 145.838 607.82 145.838C608.882 145.838 609.686 145.483 610.232 144.773C610.786 144.057 611.062 143.012 611.062 141.639C611.062 140.278 610.786 139.246 610.232 138.543C609.686 137.833 608.875 137.479 607.801 137.479C606.74 137.479 605.939 137.827 605.398 138.523C604.858 139.22 604.588 140.258 604.588 141.639ZM622.332 136.297V143.855C622.332 144.533 622.449 145.037 622.684 145.369C622.924 145.695 623.328 145.857 623.895 145.857C624.135 145.857 624.419 145.838 624.744 145.799C625.076 145.753 625.33 145.708 625.506 145.662V146.902C625.304 146.987 625.031 147.055 624.686 147.107C624.347 147.166 624.015 147.195 623.689 147.195C622.648 147.195 621.889 146.922 621.414 146.375C620.945 145.828 620.711 145.005 620.711 143.904V136.297H622.332ZM631.629 145.838C632.729 145.838 633.523 145.522 634.012 144.891C634.5 144.253 634.744 143.224 634.744 141.805V141.658C634.744 140.167 634.497 139.1 634.002 138.455C633.507 137.804 632.71 137.479 631.609 137.479C629.637 137.479 628.65 138.885 628.65 141.697C628.65 143.077 628.888 144.113 629.363 144.803C629.845 145.493 630.6 145.838 631.629 145.838ZM631.385 147.195C629.992 147.195 628.908 146.714 628.133 145.75C627.358 144.78 626.971 143.423 626.971 141.678C626.971 139.894 627.368 138.52 628.162 137.557C628.956 136.587 630.086 136.102 631.551 136.102C632.339 136.102 632.993 136.238 633.514 136.512C634.041 136.785 634.48 137.195 634.832 137.742H634.949C635.105 137.143 635.317 136.661 635.584 136.297H636.844C636.707 136.727 636.593 137.342 636.502 138.143C636.411 138.943 636.365 139.721 636.365 140.477V144.764C636.365 145.506 636.639 145.877 637.186 145.877C637.374 145.877 637.576 145.844 637.791 145.779V146.941C637.492 147.111 637.13 147.195 636.707 147.195C636.18 147.195 635.77 147.065 635.477 146.805C635.19 146.538 634.988 146.124 634.871 145.564H634.744C634.36 146.124 633.895 146.538 633.348 146.805C632.807 147.065 632.153 147.195 631.385 147.195ZM647.01 136.297V137.684H642.791V143.719C642.791 145.171 643.458 145.896 644.793 145.896C645.099 145.896 645.411 145.877 645.73 145.838C646.049 145.792 646.297 145.747 646.473 145.701V146.922C646.245 147.02 645.949 147.098 645.584 147.156C645.226 147.215 644.891 147.244 644.578 147.244C643.4 147.244 642.534 146.967 641.98 146.414C641.427 145.861 641.15 145.031 641.15 143.924V137.684H638.25V136.961L639.695 136.297H647.01ZM658.504 141.639C658.504 143.403 658.087 144.77 657.254 145.74C656.421 146.71 655.245 147.195 653.729 147.195C652.563 147.195 651.59 146.889 650.809 146.277H650.73C650.783 146.674 650.809 147.563 650.809 148.943V151.805H649.168V141.502C649.168 139.77 649.575 138.439 650.389 137.508C651.209 136.57 652.381 136.102 653.904 136.102C655.33 136.102 656.453 136.596 657.273 137.586C658.094 138.569 658.504 139.92 658.504 141.639ZM653.826 137.479C652.798 137.479 652.036 137.817 651.541 138.494C651.053 139.165 650.809 140.18 650.809 141.541V144.842C651.603 145.506 652.596 145.838 653.787 145.838C654.822 145.838 655.587 145.499 656.082 144.822C656.577 144.145 656.824 143.084 656.824 141.639C656.824 140.245 656.59 139.204 656.121 138.514C655.652 137.824 654.887 137.479 653.826 137.479ZM662.898 136.297V143.855C662.898 144.533 663.016 145.037 663.25 145.369C663.491 145.695 663.895 145.857 664.461 145.857C664.702 145.857 664.985 145.838 665.311 145.799C665.643 145.753 665.896 145.708 666.072 145.662V146.902C665.87 146.987 665.597 147.055 665.252 147.107C664.913 147.166 664.581 147.195 664.256 147.195C663.214 147.195 662.456 146.922 661.98 146.375C661.512 145.828 661.277 145.005 661.277 143.904V136.297H662.898ZM674.373 136.316H676.395L672.352 141.023L676.678 147H674.715L671.189 142.078L669.871 143.182V147H668.133V136.316H669.871V139.08C669.871 140.161 669.832 141.069 669.754 141.805L674.373 136.316ZM687.742 141.639C687.742 143.383 687.303 144.747 686.424 145.73C685.545 146.707 684.331 147.195 682.781 147.195C681.824 147.195 680.975 146.971 680.232 146.521C679.49 146.072 678.917 145.428 678.514 144.588C678.11 143.748 677.908 142.765 677.908 141.639C677.908 139.894 678.344 138.536 679.217 137.566C680.089 136.59 681.3 136.102 682.85 136.102C684.347 136.102 685.535 136.6 686.414 137.596C687.299 138.592 687.742 139.939 687.742 141.639ZM679.588 141.639C679.588 143.006 679.861 144.048 680.408 144.764C680.955 145.48 681.759 145.838 682.82 145.838C683.882 145.838 684.686 145.483 685.232 144.773C685.786 144.057 686.062 143.012 686.062 141.639C686.062 140.278 685.786 139.246 685.232 138.543C684.686 137.833 683.875 137.479 682.801 137.479C681.74 137.479 680.939 137.827 680.398 138.523C679.858 139.22 679.588 140.258 679.588 141.639ZM682.068 134.598C682.244 134.129 682.417 133.527 682.586 132.791C682.762 132.049 682.889 131.411 682.967 130.877H684.764V131.102C684.646 131.583 684.409 132.212 684.051 132.986C683.699 133.755 683.364 134.386 683.045 134.881H682.068V134.598ZM705.008 142.039C705.008 143.061 704.806 143.966 704.402 144.754C704.005 145.535 703.432 146.137 702.684 146.561C701.941 146.984 701.069 147.195 700.066 147.195C698.536 147.195 697.342 146.727 696.482 145.789C695.623 144.852 695.193 143.556 695.193 141.902C695.193 138.165 697.12 136.297 700.975 136.297H705.848V137.684H703.27C704.428 138.771 705.008 140.223 705.008 142.039ZM696.873 141.902C696.873 143.165 697.15 144.139 697.703 144.822C698.257 145.499 699.057 145.838 700.105 145.838C701.141 145.838 701.935 145.519 702.488 144.881C703.048 144.236 703.328 143.322 703.328 142.137C703.328 140.379 702.762 138.895 701.629 137.684H700.994C699.549 137.684 698.501 138.022 697.85 138.699C697.199 139.376 696.873 140.444 696.873 141.902ZM712.117 145.838C713.217 145.838 714.012 145.522 714.5 144.891C714.988 144.253 715.232 143.224 715.232 141.805V141.658C715.232 140.167 714.985 139.1 714.49 138.455C713.995 137.804 713.198 137.479 712.098 137.479C710.125 137.479 709.139 138.885 709.139 141.697C709.139 143.077 709.376 144.113 709.852 144.803C710.333 145.493 711.089 145.838 712.117 145.838ZM711.873 147.195C710.48 147.195 709.396 146.714 708.621 145.75C707.846 144.78 707.459 143.423 707.459 141.678C707.459 139.894 707.856 138.52 708.65 137.557C709.445 136.587 710.574 136.102 712.039 136.102C712.827 136.102 713.481 136.238 714.002 136.512C714.529 136.785 714.969 137.195 715.32 137.742H715.438C715.594 137.143 715.805 136.661 716.072 136.297H717.332C717.195 136.727 717.081 137.342 716.99 138.143C716.899 138.943 716.854 139.721 716.854 140.477V144.764C716.854 145.506 717.127 145.877 717.674 145.877C717.863 145.877 718.064 145.844 718.279 145.779V146.941C717.98 147.111 717.618 147.195 717.195 147.195C716.668 147.195 716.258 147.065 715.965 146.805C715.678 146.538 715.477 146.124 715.359 145.564H715.232C714.848 146.124 714.383 146.538 713.836 146.805C713.296 147.065 712.641 147.195 711.873 147.195ZM721.365 141.902C721.365 142.781 721.46 143.436 721.648 143.865C721.844 144.295 722.173 144.64 722.635 144.9C723.104 145.161 723.859 145.402 724.9 145.623C725.864 145.831 726.557 146.111 726.98 146.463C727.41 146.808 727.625 147.273 727.625 147.859C727.625 148.289 727.537 148.751 727.361 149.246C727.186 149.741 726.88 150.298 726.443 150.916H724.92C725.271 150.46 725.555 149.992 725.77 149.51C725.991 149.028 726.102 148.624 726.102 148.299C726.102 148.038 726.017 147.83 725.848 147.674C725.685 147.524 725.424 147.387 725.066 147.264C724.708 147.14 724.214 147.02 723.582 146.902C722.254 146.661 721.271 146.128 720.633 145.301C720.001 144.474 719.686 143.348 719.686 141.922C719.686 140.06 720.135 138.624 721.033 137.615C721.932 136.606 723.188 136.102 724.803 136.102C725.317 136.102 725.831 136.157 726.346 136.268C726.86 136.372 727.293 136.502 727.645 136.658L727.127 138.035C726.281 137.703 725.486 137.537 724.744 137.537C723.598 137.537 722.749 137.892 722.195 138.602C721.642 139.311 721.365 140.411 721.365 141.902ZM736.668 136.297V143.855C736.668 144.533 736.785 145.037 737.02 145.369C737.26 145.695 737.664 145.857 738.23 145.857C738.471 145.857 738.755 145.838 739.08 145.799C739.412 145.753 739.666 145.708 739.842 145.662V146.902C739.64 146.987 739.367 147.055 739.021 147.107C738.683 147.166 738.351 147.195 738.025 147.195C736.984 147.195 736.225 146.922 735.75 146.375C735.281 145.828 735.047 145.005 735.047 143.904V136.297H736.668ZM751.121 142.039C751.121 143.061 750.919 143.966 750.516 144.754C750.118 145.535 749.546 146.137 748.797 146.561C748.055 146.984 747.182 147.195 746.18 147.195C744.65 147.195 743.455 146.727 742.596 145.789C741.736 144.852 741.307 143.556 741.307 141.902C741.307 138.165 743.234 136.297 747.088 136.297H751.961V137.684H749.383C750.542 138.771 751.121 140.223 751.121 142.039ZM742.986 141.902C742.986 143.165 743.263 144.139 743.816 144.822C744.37 145.499 745.171 145.838 746.219 145.838C747.254 145.838 748.048 145.519 748.602 144.881C749.161 144.236 749.441 143.322 749.441 142.137C749.441 140.379 748.875 138.895 747.742 137.684H747.107C745.662 137.684 744.614 138.022 743.963 138.699C743.312 139.376 742.986 140.444 742.986 141.902ZM761.385 136.297V137.684H757.166V143.719C757.166 145.171 757.833 145.896 759.168 145.896C759.474 145.896 759.786 145.877 760.105 145.838C760.424 145.792 760.672 145.747 760.848 145.701V146.922C760.62 147.02 760.324 147.098 759.959 147.156C759.601 147.215 759.266 147.244 758.953 147.244C757.775 147.244 756.909 146.967 756.355 146.414C755.802 145.861 755.525 145.031 755.525 143.924V137.684H752.625V136.961L754.07 136.297H761.385ZM772.879 141.639C772.879 143.383 772.439 144.747 771.561 145.73C770.682 146.707 769.467 147.195 767.918 147.195C766.961 147.195 766.111 146.971 765.369 146.521C764.627 146.072 764.054 145.428 763.65 144.588C763.247 143.748 763.045 142.765 763.045 141.639C763.045 139.894 763.481 138.536 764.354 137.566C765.226 136.59 766.437 136.102 767.986 136.102C769.484 136.102 770.672 136.6 771.551 137.596C772.436 138.592 772.879 139.939 772.879 141.639ZM764.725 141.639C764.725 143.006 764.998 144.048 765.545 144.764C766.092 145.48 766.896 145.838 767.957 145.838C769.018 145.838 769.822 145.483 770.369 144.773C770.923 144.057 771.199 143.012 771.199 141.639C771.199 140.278 770.923 139.246 770.369 138.543C769.822 137.833 769.012 137.479 767.938 137.479C766.876 137.479 766.076 137.827 765.535 138.523C764.995 139.22 764.725 140.258 764.725 141.639ZM784.969 141.639C784.969 143.403 784.552 144.77 783.719 145.74C782.885 146.71 781.71 147.195 780.193 147.195C779.028 147.195 778.055 146.889 777.273 146.277H777.195C777.247 146.674 777.273 147.563 777.273 148.943V151.805H775.633V141.502C775.633 139.77 776.04 138.439 776.854 137.508C777.674 136.57 778.846 136.102 780.369 136.102C781.795 136.102 782.918 136.596 783.738 137.586C784.559 138.569 784.969 139.92 784.969 141.639ZM780.291 137.479C779.262 137.479 778.501 137.817 778.006 138.494C777.518 139.165 777.273 140.18 777.273 141.541V144.842C778.068 145.506 779.061 145.838 780.252 145.838C781.287 145.838 782.052 145.499 782.547 144.822C783.042 144.145 783.289 143.084 783.289 141.639C783.289 140.245 783.055 139.204 782.586 138.514C782.117 137.824 781.352 137.479 780.291 137.479ZM789.363 136.297V143.855C789.363 144.533 789.48 145.037 789.715 145.369C789.956 145.695 790.359 145.857 790.926 145.857C791.167 145.857 791.45 145.838 791.775 145.799C792.107 145.753 792.361 145.708 792.537 145.662V146.902C792.335 146.987 792.062 147.055 791.717 147.107C791.378 147.166 791.046 147.195 790.721 147.195C789.679 147.195 788.921 146.922 788.445 146.375C787.977 145.828 787.742 145.005 787.742 143.904V136.297H789.363ZM800.838 136.316H802.859L798.816 141.023L803.143 147H801.18L797.654 142.078L796.336 143.182V147H794.598V136.316H796.336V139.08C796.336 140.161 796.297 141.069 796.219 141.805L800.838 136.316ZM814.207 141.639C814.207 143.383 813.768 144.747 812.889 145.73C812.01 146.707 810.796 147.195 809.246 147.195C808.289 147.195 807.439 146.971 806.697 146.521C805.955 146.072 805.382 145.428 804.979 144.588C804.575 143.748 804.373 142.765 804.373 141.639C804.373 139.894 804.809 138.536 805.682 137.566C806.554 136.59 807.765 136.102 809.314 136.102C810.812 136.102 812 136.6 812.879 137.596C813.764 138.592 814.207 139.939 814.207 141.639ZM806.053 141.639C806.053 143.006 806.326 144.048 806.873 144.764C807.42 145.48 808.224 145.838 809.285 145.838C810.346 145.838 811.15 145.483 811.697 144.773C812.251 144.057 812.527 143.012 812.527 141.639C812.527 140.278 812.251 139.246 811.697 138.543C811.15 137.833 810.34 137.479 809.266 137.479C808.204 137.479 807.404 137.827 806.863 138.523C806.323 139.22 806.053 140.258 806.053 141.639ZM808.533 134.598C808.709 134.129 808.882 133.527 809.051 132.791C809.227 132.049 809.354 131.411 809.432 130.877H811.229V131.102C811.111 131.583 810.874 132.212 810.516 132.986C810.164 133.755 809.829 134.386 809.51 134.881H808.533V134.598ZM816.824 145.965C816.824 145.529 816.922 145.2 817.117 144.979C817.319 144.751 817.605 144.637 817.977 144.637C818.354 144.637 818.647 144.751 818.855 144.979C819.07 145.2 819.178 145.529 819.178 145.965C819.178 146.388 819.07 146.714 818.855 146.941C818.641 147.169 818.348 147.283 817.977 147.283C817.645 147.283 817.368 147.182 817.146 146.98C816.932 146.772 816.824 146.434 816.824 145.965Z" fill="black"/>
</svg>
