<svg width="500" height="500" viewBox="0 0 500 500" fill="none" xmlns="http://www.w3.org/2000/svg">
<path d="M436.759 85.0242C438.895 102.504 426.605 118.403 409.308 120.537C405.335 121.027 401.445 120.748 397.781 119.816C391.253 118.156 383.614 118.928 379.503 124.27L377.623 126.714C376.298 128.436 375.991 130.695 376.255 132.852C377.44 142.544 370.625 151.36 361.035 152.543C358.95 152.8 356.907 153.633 355.625 155.299L352.535 159.315C348.168 164.991 349.111 173.045 354.113 178.168C355.063 179.142 355.813 179.943 356.355 180.53C369.196 194.433 376.106 208.138 379.235 214.859C384.776 226.917 387.644 238.052 389.209 246.816C389.665 249.385 387.709 251.758 385.102 251.758L351.726 251.56C349.836 251.56 348.206 250.308 347.75 248.463C344.882 237.855 334.387 207.479 303.032 190.94C274.089 175.654 246.45 182.243 240.583 183.758C233.608 185.537 212.031 192.061 195.017 212.882C175.461 236.866 170.116 269.812 179.242 297.947C187.521 323.447 205.382 337.547 210.075 341.171C217.881 347.164 225.341 350.756 230.291 352.687C227.446 351.787 223.718 350.53 219.397 348.841C223.697 350.634 227.888 352.098 231.911 353.293C231.407 353.113 230.866 352.911 230.291 352.687C232.055 353.244 233.48 353.664 234.497 353.963L234.501 353.964C235.351 354.215 235.916 354.381 236.153 354.473C246.332 357.114 255.208 358.06 261.7 358.368C263.46 358.433 264.829 359.883 264.894 361.662L265.676 398.297C265.676 400.142 264.242 401.724 262.352 401.724C251.14 401.789 234.191 400.472 215.222 393.224C208.519 390.678 199.207 386.517 189.103 379.784C187.078 378.435 184.376 378.625 182.624 380.315L181.451 381.447C180.919 381.96 180.703 382.71 180.793 383.444C181.649 390.449 176.724 396.821 169.792 397.676C166.803 398.044 163.651 398.617 161.482 400.709L160.435 401.719C157.383 404.664 156.592 409.152 157.106 413.364C158.937 428.343 148.405 441.968 133.583 443.796C118.761 445.624 105.261 434.964 103.43 419.985C101.599 405.007 112.131 391.382 126.953 389.554C130.696 389.092 134.355 389.427 137.763 390.426C142.768 391.894 148.536 391.717 152.292 388.094C154.403 386.057 155.385 383.161 156.426 380.416C158.045 376.147 161.886 372.902 166.692 372.309C166.742 372.303 166.793 372.297 166.843 372.292C168.051 372.157 169.239 371.746 170.114 370.902C171.968 369.113 171.923 366.133 170.088 364.325C168.544 362.805 167.008 361.216 165.484 359.554C158.053 351.449 144.69 335.701 137.454 311.783C133.999 300.45 124.742 265.264 137.584 227.575C142.38 213.503 149.869 200.238 156.893 190.517C158.92 187.712 158.702 183.814 156.226 181.397C154.569 179.778 152.189 179.242 149.874 179.237C149.682 179.237 149.489 179.233 149.296 179.225C140.81 178.888 134.207 171.659 134.548 163.08C134.612 161.477 134.164 159.851 133.018 158.732L129.21 155.013C124.661 150.571 117.662 150.225 111.601 152.135C107.624 153.387 103.373 153.986 98.9749 153.811C78.2931 152.989 62.2004 135.371 63.0307 114.461C63.8611 93.5498 81.3001 77.2644 101.982 78.0863C122.664 78.9081 138.756 96.5259 137.926 117.437C137.797 120.7 137.263 123.85 136.375 126.84C134.656 132.63 135.204 139.258 139.522 143.475L141.156 145.07C143.579 147.437 147.147 148.021 150.529 148.156C159.015 148.493 165.618 155.721 165.277 164.301C165.271 164.448 165.263 164.594 165.253 164.74C165.115 166.802 165.598 168.94 167.075 170.382L169.56 172.81C170.372 173.603 171.671 173.597 172.481 172.801L172.528 172.755C173.855 171.451 175.206 170.189 176.578 168.967C176.747 168.802 176.917 168.636 177.087 168.471L176.685 168.872C213.058 136.572 264.724 132.526 302.315 145.212C309.892 147.777 316.784 150.968 322.928 154.388C328.378 157.422 335.333 156.33 339.139 151.385L339.325 151.143C342.291 147.289 342.115 141.966 341.525 137.136C340.34 127.445 347.155 118.629 356.745 117.446C361.47 116.863 366.569 115.739 369.474 111.963L371.906 108.803C374.947 104.852 375.306 99.564 374.41 94.6574C374.296 94.0289 374.199 93.3932 374.12 92.7507C371.984 75.2713 384.274 59.3718 401.571 57.2382C418.868 55.1045 434.622 67.5448 436.759 85.0242Z" fill="black"/>
</svg>
