<svg width="571" height="395" viewBox="0 0 571 395" fill="none" xmlns="http://www.w3.org/2000/svg">
<path d="M408.061 270.093C408.061 305.84 386.796 318.322 360.565 318.322C334.333 318.322 313.068 305.84 313.068 270.093C313.068 234.346 360.565 188.871 360.565 188.871C360.565 188.871 408.061 234.346 408.061 270.093Z" fill="#6C63FF"/>
<path d="M359.322 282.936L379.566 245.925L359.398 278.243L359.617 264.792L373.569 238.014L359.675 261.232L360.068 237.038L375.008 215.72L360.13 233.234L360.376 188.871L358.898 245.084L343.768 221.941L358.715 249.827L357.299 276.847L357.257 276.13L339.746 251.678L357.204 278.664L357.027 282.043L356.995 282.094L357.01 282.371L353.419 318.428H358.216L358.792 315.515L376.207 288.596L358.836 312.853L359.322 282.936Z" fill="#3F3D56"/>
<path d="M570.717 155.155C570.717 223.441 530.096 247.283 479.988 247.283C429.879 247.283 389.258 223.441 389.258 155.155C389.258 86.8698 479.988 0 479.988 0C479.988 0 570.717 86.8698 570.717 155.155Z" fill="#F2F2F2"/>
<path d="M476.682 236.838L477.611 179.689L516.283 108.988L477.757 170.724L478.175 145.027L504.827 93.8761L478.286 138.227V138.228L479.037 92.0115L507.576 51.2886L479.155 84.7441L479.625 0L476.674 112.186L476.917 107.558L447.901 63.1724L476.451 116.442L473.748 168.057L473.667 166.687L440.217 119.978L473.566 171.527L473.228 177.982L473.167 178.08L473.195 178.609L466.336 309.562H475.5L476.6 241.923L509.868 190.5L476.682 236.838Z" fill="#3F3D56"/>
<path d="M566.992 298.128C566.992 318.509 434.693 395 280.034 395C125.376 395 0 355.413 0 335.032C0 314.651 122.298 338.876 276.957 338.876C431.615 338.876 566.992 277.747 566.992 298.128Z" fill="#3F3D56"/>
<path opacity="0.1" d="M566.992 298.128C566.992 318.509 434.693 395 280.034 395C125.376 395 0 355.413 0 335.032C0 314.651 122.298 338.876 276.957 338.876C431.615 338.876 566.992 277.747 566.992 298.128Z" fill="black"/>
<path d="M566.992 298.128C566.992 318.51 434.693 371.935 280.034 371.935C125.376 371.935 0 355.413 0 335.032C0 314.651 122.298 315.811 276.957 315.811C431.615 315.811 566.992 277.747 566.992 298.128Z" fill="#3F3D56"/>
<path opacity="0.1" d="M283.169 348.096C348.845 348.096 402.087 343.98 402.087 338.904C402.087 333.827 348.845 329.712 283.169 329.712C217.493 329.712 164.252 333.827 164.252 338.904C164.252 343.98 217.493 348.096 283.169 348.096Z" fill="black"/>
<path d="M188.962 154.707C188.962 154.707 223.775 155.352 217.328 161.472C210.881 167.593 186.705 161.472 186.705 161.472L188.962 154.707Z" fill="#A0616A"/>
<path d="M116.426 80.3637C116.426 80.3637 130.482 77.8552 135.369 89.195C140.257 100.535 150.294 132.875 150.294 132.875C150.294 132.875 177.155 150.644 182.041 150.06C186.926 149.476 195.278 150.667 193.746 155.994C192.214 161.321 192.895 167.361 189.367 168.101C185.84 168.841 180.231 161.775 175.938 165.178C171.645 168.582 133.384 156.15 130.928 153.574C128.472 150.998 108.059 95.2215 108.059 95.2215C108.059 95.2215 108.875 80.182 116.426 80.3637Z" fill="#6C63FF"/>
<path d="M146.572 319.805L148.183 333.335L134.645 336.879L126.908 333.335V321.416L146.572 319.805Z" fill="#A0616A"/>
<path d="M110.146 328.503L111.758 342.033L98.219 345.576L90.4824 342.033V330.113L110.146 328.503Z" fill="#A0616A"/>
<path d="M147.861 171.942L153.986 194.17L163.012 239.27C163.012 239.27 165.59 250.222 160.433 263.43C155.275 276.638 145.927 319.805 147.861 322.382C149.795 324.959 125.941 326.892 126.263 324.315C126.586 321.738 129.809 286.302 129.809 286.302C129.809 286.302 134.322 255.054 136.579 251.189C138.835 247.323 126.264 237.659 126.264 237.659C126.264 237.659 123.04 274.705 118.205 277.927C113.369 281.148 114.014 331.08 111.758 331.724C109.501 332.368 93.0613 334.946 91.1272 331.724C89.1931 328.503 91.1272 274.705 91.1272 274.705C91.1272 274.705 102.087 233.793 99.8307 227.995C97.5742 222.196 98.8636 197.391 98.8636 197.391C98.8636 197.391 90.4825 178.385 94.9954 168.398L147.861 171.942Z" fill="#2F2E41"/>
<path d="M146.894 48.2395C146.894 48.2395 133.355 64.9909 134 72.4002C134.645 79.8094 112.725 58.8702 112.725 58.8702C112.725 58.8702 128.52 37.6089 128.52 33.0989C128.52 28.5889 146.894 48.2395 146.894 48.2395Z" fill="#A0616A"/>
<path d="M146.734 54.5213C158.484 54.5213 168.009 45.0023 168.009 33.2599C168.009 21.5176 158.484 11.9986 146.734 11.9986C134.984 11.9986 125.459 21.5176 125.459 33.2599C125.459 45.0023 134.984 54.5213 146.734 54.5213Z" fill="#A0616A"/>
<path d="M93.1156 159.891C92.1518 163.479 90.9559 167.548 91.1268 170.976C91.2364 173.195 97.1322 174.651 105.284 175.605C112.844 176.491 122.343 176.942 130.979 177.174C140.047 177.418 148.154 177.418 152.051 177.418C163.656 177.418 154.308 170.009 149.795 166.466C145.282 162.922 146.249 112.668 146.571 106.225C146.894 99.7823 143.67 81.098 143.67 77.5545C143.67 74.0109 136.085 64.7622 136.085 64.7622C136.085 64.7622 134.322 69.8231 127.23 63.0581C120.138 56.2932 110.79 54.3603 110.79 54.3603C103.698 56.9375 91.7715 85.2859 91.1268 90.118C90.8656 92.0799 91.0816 102.127 91.52 113.599C92.155 130.366 93.2639 150.188 94.0279 152.291C94.6307 153.95 93.9635 156.734 93.1156 159.891Z" fill="#6C63FF"/>
<path d="M127.553 178.707L129.81 186.76L121.106 195.781L118.205 183.217L127.553 178.707Z" fill="#A0616A"/>
<path d="M130.454 329.791C130.454 329.791 137.224 337.523 142.382 332.368C147.539 327.214 147.217 323.993 148.184 323.993C149.151 323.993 163.657 336.878 163.657 336.878C163.657 336.878 188.478 342.677 174.939 346.865C161.4 351.053 123.04 348.153 123.04 346.865C123.04 345.576 122.073 328.503 125.619 328.503L130.454 329.791Z" fill="#2F2E41"/>
<path d="M94.0287 338.489C94.0287 338.489 100.798 346.221 105.956 341.066C111.113 335.912 110.791 332.691 111.758 332.691C112.725 332.691 127.231 345.576 127.231 345.576C127.231 345.576 152.052 351.375 138.513 355.563C124.974 359.75 86.6146 356.851 86.6146 355.563C86.6146 354.274 85.6475 337.201 89.1934 337.201L94.0287 338.489Z" fill="#2F2E41"/>
<path d="M122.847 50.2319C122.16 50.6756 121.265 51.1252 120.577 50.6829C118.018 44.3062 116.106 37.6892 114.868 30.9312C114.434 28.5574 114.132 25.9185 115.452 23.8976C115.972 23.1005 116.722 22.4487 117.103 21.5765C117.68 20.2557 117.3 18.7268 117.492 17.2983C117.894 14.3055 120.725 12.2181 123.571 11.2057C126.418 10.1934 129.51 9.87932 132.223 8.55091C134.8 7.28955 136.863 5.19765 139.253 3.6102C141.642 2.02275 144.702 0.937359 147.363 2.01005C149.717 2.95899 151.183 5.35662 153.408 6.57742C154.917 7.40586 156.669 7.63639 158.355 7.992C163.038 8.98509 167.436 11.0268 171.216 13.9635C172.136 14.6192 172.929 15.4362 173.557 16.3749C176.412 21.0723 171.3 27.4586 173.555 32.4712L168.68 28.6265C167.378 27.4884 165.909 26.5558 164.325 25.861C162.71 25.2497 160.798 25.1759 159.331 26.0864C157.272 27.3644 156.714 30.0342 155.995 32.3471C155.275 34.66 153.685 37.2248 151.262 37.1656C147.967 37.085 146.815 32.4896 143.858 31.0347C141.931 30.0863 139.504 30.7109 137.861 32.0941C136.218 33.4773 135.232 35.4842 134.508 37.506C134.057 38.7694 133.632 40.1936 132.83 41.2888C131.944 42.4967 130.812 42.5939 129.867 43.4959C127.405 45.8438 125.892 48.2661 122.847 50.2319Z" fill="#2F2E41"/>
<path opacity="0.1" d="M93.1152 159.891C97.122 165.699 101.638 171.691 105.284 175.605C112.843 176.491 122.343 176.942 130.979 177.174C129.436 175.083 127.507 173.307 125.296 171.942C121.105 169.365 111.112 138.761 111.112 138.761C111.112 138.761 123.361 107.191 126.585 95.2722C129.808 83.353 117.237 76.588 117.237 76.588C111.434 71.7559 101.442 83.0308 101.442 83.0308C101.442 83.0308 96.3419 98.4034 91.5195 113.599C92.1546 130.366 93.2635 150.188 94.0274 152.291C94.6302 153.95 93.963 156.734 93.1152 159.891Z" fill="black"/>
<path d="M116.271 74.0108C116.271 74.0108 128.843 80.7758 125.619 92.695C122.396 104.614 110.146 136.184 110.146 136.184C110.146 136.184 120.139 166.788 124.33 169.365C128.52 171.942 134.323 178.063 129.81 181.284C125.297 184.505 122.073 189.66 118.85 188.049C115.626 186.438 115.626 177.418 110.146 177.418C104.666 177.418 82.4241 143.916 82.1018 140.372C81.7794 136.828 100.476 80.4537 100.476 80.4537C100.476 80.4537 110.469 69.1787 116.271 74.0108Z" fill="#6C63FF"/>
<path d="M377.686 162.062L374.06 158.437C371.944 156.324 369.075 155.136 366.084 155.136C363.093 155.136 360.224 156.324 358.109 158.437L287.768 228.732L217.428 158.437C215.313 156.324 212.444 155.136 209.452 155.136C206.461 155.136 203.592 156.324 201.477 158.437L197.85 162.062C196.803 163.108 195.972 164.351 195.405 165.718C194.839 167.086 194.547 168.552 194.547 170.032C194.547 171.512 194.839 172.978 195.405 174.345C195.972 175.713 196.803 176.955 197.85 178.002L268.191 248.297L197.85 318.591C196.803 319.638 195.972 320.88 195.405 322.248C194.839 323.616 194.547 325.081 194.547 326.561C194.547 328.042 194.839 329.507 195.405 330.875C195.972 332.243 196.803 333.485 197.85 334.532L201.477 338.156C203.592 340.27 206.461 341.457 209.452 341.457C212.444 341.457 215.313 340.27 217.428 338.156L287.768 267.861L358.109 338.156C360.224 340.27 363.093 341.457 366.084 341.457C369.075 341.457 371.944 340.27 374.06 338.156L377.686 334.532C379.801 332.418 380.989 329.551 380.989 326.561C380.989 323.572 379.801 320.705 377.686 318.591L307.346 248.297L377.686 178.002C379.801 175.888 380.989 173.021 380.989 170.032C380.989 167.042 379.801 164.175 377.686 162.062V162.062Z" fill="#FF6584"/>
<path opacity="0.1" d="M195.338 322.413L263.59 254.206L262.933 253.549L197.848 318.591C196.758 319.68 195.903 320.98 195.338 322.413V322.413Z" fill="black"/>
<path opacity="0.1" d="M196.876 164.347C198.991 162.233 201.86 161.045 204.851 161.045C207.842 161.045 210.711 162.233 212.826 164.347L283.167 234.641L353.507 164.347C355.623 162.233 358.491 161.045 361.483 161.045C364.474 161.045 367.343 162.233 369.458 164.347L373.085 167.971C374.64 169.526 375.707 171.502 376.153 173.655C376.599 175.808 376.405 178.045 375.595 180.089L377.684 178.002C378.731 176.955 379.562 175.713 380.129 174.345C380.695 172.978 380.987 171.512 380.987 170.032C380.987 168.552 380.695 167.086 380.129 165.718C379.562 164.351 378.731 163.108 377.684 162.062L374.057 158.437C371.942 156.324 369.073 155.136 366.082 155.136C363.09 155.136 360.222 156.324 358.106 158.437L287.766 228.732L217.425 158.437C215.31 156.324 212.441 155.136 209.45 155.136C206.459 155.136 203.59 156.324 201.475 158.437L197.848 162.062C196.758 163.15 195.903 164.451 195.338 165.883L196.876 164.347Z" fill="black"/>
<path opacity="0.1" d="M308.002 248.953L302.746 254.206L373.086 324.5C374.642 326.055 375.709 328.031 376.155 330.185C376.601 332.338 376.407 334.575 375.597 336.619L377.686 334.532C378.733 333.485 379.564 332.242 380.131 330.875C380.697 329.507 380.989 328.042 380.989 326.561C380.989 325.081 380.697 323.615 380.131 322.248C379.564 320.88 378.733 319.638 377.686 318.591L308.002 248.953Z" fill="black"/>
<path d="M81.9046 295.823C81.9046 325.512 64.2434 335.878 42.4572 335.878C20.671 335.878 3.00977 325.512 3.00977 295.823C3.00977 266.134 42.4572 228.364 42.4572 228.364C42.4572 228.364 81.9046 266.134 81.9046 295.823Z" fill="#6C63FF"/>
<path d="M41.4244 306.49L58.2381 275.75L41.4878 302.592L41.6696 291.419L53.2572 269.18L41.7176 288.463L42.0442 268.369L54.4525 250.663L42.0955 265.21L42.2994 228.364L41.0719 275.051L28.5067 255.83L40.9197 278.991L39.7445 301.432L39.7097 300.837L25.166 280.528L39.6653 302.941L39.5184 305.748L39.492 305.79L39.5041 306.02L36.5217 335.967H40.5065L40.9847 333.547L55.4486 311.19L41.0207 331.336L41.4244 306.49Z" fill="#3F3D56"/>
</svg>
