<svg width="559" height="37" viewBox="0 0 559 37" fill="none" xmlns="http://www.w3.org/2000/svg">
<path d="M266.497 36.1855C268.67 36.1855 270.364 34.5059 270.364 32.3135C270.364 30.1162 268.67 28.4463 266.497 28.4463C264.339 28.4463 262.635 30.1162 262.635 32.3135C262.635 34.5059 264.339 36.1855 266.497 36.1855ZM266.497 35.458C264.749 35.458 263.362 34.1006 263.362 32.3135C263.362 30.5215 264.749 29.1738 266.497 29.1738C268.26 29.1738 269.632 30.5215 269.632 32.3135C269.632 34.1006 268.26 35.458 266.497 35.458ZM268.323 31.6787C268.216 30.9023 267.581 30.2969 266.575 30.2969C265.418 30.2969 264.676 31.0732 264.676 32.3086C264.676 33.5586 265.418 34.335 266.585 34.335C267.581 34.335 268.216 33.7734 268.323 32.9775H267.562C267.454 33.4219 267.088 33.666 266.58 33.666C265.911 33.666 265.472 33.1582 265.472 32.3086C265.472 31.4688 265.906 30.9658 266.58 30.9658C267.122 30.9658 267.464 31.2783 267.562 31.6787H268.323Z" fill="black"/>
<path d="M273.182 30.4336V30.4434H274.217V30.4287C274.217 29.6963 274.798 29.1396 275.569 29.1396C276.302 29.1396 276.868 29.6377 276.868 30.2627C276.868 30.8145 276.644 31.1855 275.784 32.0791L273.24 34.6719V35.4141H278.06V34.4912H274.715V34.4668L276.478 32.6943C277.508 31.6396 277.947 31.0293 277.947 30.209C277.947 29.0908 276.946 28.2363 275.604 28.2363C274.202 28.2363 273.182 29.1641 273.182 30.4336Z" fill="black"/>
<path d="M281.6 35.5459C283.289 35.5459 284.28 34.125 284.28 31.8789C284.28 29.6475 283.284 28.2363 281.6 28.2363C279.92 28.2363 278.909 29.6523 278.909 31.8838C278.909 34.1299 279.91 35.5459 281.6 35.5459ZM281.6 34.6279C280.594 34.6279 280.018 33.583 280.018 31.8838C280.018 30.209 280.604 29.1543 281.6 29.1543C282.596 29.1543 283.177 30.2041 283.177 31.8838C283.177 33.5879 282.605 34.6279 281.6 34.6279Z" fill="black"/>
<path d="M285.125 30.4336V30.4434H286.16V30.4287C286.16 29.6963 286.741 29.1396 287.513 29.1396C288.245 29.1396 288.812 29.6377 288.812 30.2627C288.812 30.8145 288.587 31.1855 287.728 32.0791L285.184 34.6719V35.4141H290.003V34.4912H286.658V34.4668L288.421 32.6943C289.451 31.6396 289.891 31.0293 289.891 30.209C289.891 29.0908 288.89 28.2363 287.547 28.2363C286.146 28.2363 285.125 29.1641 285.125 30.4336Z" fill="black"/>
<path d="M293.543 35.5459C295.232 35.5459 296.224 34.125 296.224 31.8789C296.224 29.6475 295.228 28.2363 293.543 28.2363C291.863 28.2363 290.853 29.6523 290.853 31.8838C290.853 34.1299 291.854 35.5459 293.543 35.5459ZM293.543 34.6279C292.537 34.6279 291.961 33.583 291.961 31.8838C291.961 30.209 292.547 29.1543 293.543 29.1543C294.539 29.1543 295.12 30.2041 295.12 31.8838C295.12 33.5879 294.549 34.6279 293.543 34.6279Z" fill="black"/>
<path d="M1.78906 2.625L3.64062 8.3125L5.64062 2.625H7.4375V14H6.03125V9.46094L6.14844 4.71094L4.04688 10.8359H3.21875L1.28906 4.875L1.40625 9.46094V14H0V2.625H1.78906Z" fill="black"/>
<path d="M16.3272 14C16.2699 13.8906 16.223 13.7552 16.1866 13.5938C16.1553 13.4271 16.1319 13.2552 16.1162 13.0781C15.9704 13.224 15.8064 13.362 15.6241 13.4922C15.447 13.6224 15.2491 13.737 15.0303 13.8359C14.8168 13.9349 14.5876 14.013 14.3428 14.0703C14.098 14.1276 13.8376 14.1562 13.5616 14.1562C13.1136 14.1562 12.7074 14.0911 12.3428 13.9609C11.9834 13.8307 11.6761 13.6562 11.4209 13.4375C11.1709 13.2135 10.9756 12.9505 10.835 12.6484C10.6996 12.3411 10.6319 12.0104 10.6319 11.6562C10.6319 11.1927 10.723 10.7865 10.9053 10.4375C11.0928 10.0885 11.3558 9.79948 11.6944 9.57031C12.0329 9.33594 12.4392 9.16146 12.9131 9.04688C13.3923 8.93229 13.9261 8.875 14.5147 8.875H16.0928V8.21094C16.0928 7.95573 16.0459 7.72656 15.9522 7.52344C15.8584 7.32031 15.7256 7.14844 15.5538 7.00781C15.3819 6.86198 15.1709 6.75 14.9209 6.67188C14.6761 6.59375 14.4001 6.55469 14.0928 6.55469C13.8064 6.55469 13.5485 6.59115 13.3194 6.66406C13.0954 6.73698 12.9053 6.83333 12.7491 6.95312C12.5928 7.07292 12.4704 7.21615 12.3819 7.38281C12.2985 7.54427 12.2569 7.71354 12.2569 7.89062H10.8038C10.809 7.58333 10.8871 7.28125 11.0381 6.98438C11.1944 6.6875 11.4157 6.42188 11.7022 6.1875C11.9939 5.94792 12.3454 5.75521 12.7569 5.60938C13.1735 5.46354 13.6449 5.39062 14.1709 5.39062C14.6501 5.39062 15.0954 5.45052 15.5069 5.57031C15.9183 5.6849 16.2725 5.86198 16.5694 6.10156C16.8715 6.33594 17.1084 6.63021 17.2803 6.98438C17.4522 7.33854 17.5381 7.7526 17.5381 8.22656V12.1562C17.5381 12.4375 17.5642 12.737 17.6162 13.0547C17.6683 13.3672 17.7412 13.6406 17.835 13.875V14H16.3272ZM13.7725 12.8984C14.0538 12.8984 14.3168 12.862 14.5616 12.7891C14.8064 12.7161 15.0277 12.6198 15.2256 12.5C15.4288 12.3802 15.6032 12.2448 15.7491 12.0938C15.8949 11.9375 16.0095 11.776 16.0928 11.6094V9.89844H14.7491C13.9053 9.89844 13.2491 10.0234 12.7803 10.2734C12.3116 10.5234 12.0772 10.9167 12.0772 11.4531C12.0772 11.6615 12.111 11.8542 12.1788 12.0312C12.2517 12.2083 12.3584 12.362 12.4991 12.4922C12.6397 12.6172 12.8168 12.7161 13.0303 12.7891C13.2439 12.862 13.4913 12.8984 13.7725 12.8984Z" fill="black"/>
<path d="M21.0684 9.70312C21.0684 9.07292 21.1466 8.49479 21.3028 7.96875C21.4643 7.4375 21.6908 6.98177 21.9825 6.60156C22.2794 6.22135 22.6361 5.92448 23.0528 5.71094C23.4695 5.4974 23.9356 5.39062 24.4513 5.39062C24.9565 5.39062 25.3966 5.47656 25.7716 5.64844C26.1518 5.8151 26.4799 6.0599 26.7559 6.38281V2H28.2013V14H26.8731L26.8106 13.1094C26.5294 13.4531 26.1934 13.7135 25.8028 13.8906C25.4122 14.0677 24.9565 14.1562 24.4356 14.1562C23.9252 14.1562 23.4617 14.0469 23.045 13.8281C22.6335 13.6094 22.282 13.3073 21.9903 12.9219C21.6986 12.5365 21.4721 12.0833 21.3106 11.5625C21.1492 11.0365 21.0684 10.4714 21.0684 9.86719V9.70312ZM22.5138 9.86719C22.5138 10.2786 22.558 10.6693 22.6466 11.0391C22.7351 11.4089 22.8705 11.7344 23.0528 12.0156C23.2403 12.2969 23.4773 12.5208 23.7638 12.6875C24.0502 12.849 24.394 12.9297 24.795 12.9297C25.0398 12.9297 25.2611 12.901 25.4591 12.8438C25.657 12.7865 25.8367 12.7057 25.9981 12.6016C26.1596 12.4922 26.3028 12.3646 26.4278 12.2188C26.5528 12.0677 26.6622 11.901 26.7559 11.7188V7.79688C26.5684 7.45312 26.3158 7.17188 25.9981 6.95312C25.6804 6.72917 25.2846 6.61719 24.8106 6.61719C24.4044 6.61719 24.0554 6.70052 23.7638 6.86719C23.4773 7.03385 23.2403 7.26042 23.0528 7.54688C22.8705 7.82812 22.7351 8.15625 22.6466 8.53125C22.558 8.90104 22.5138 9.29167 22.5138 9.70312V9.86719Z" fill="black"/>
<path d="M35.6456 14.1562C35.0519 14.1562 34.505 14.0547 34.005 13.8516C33.5102 13.6484 33.0857 13.3646 32.7316 13C32.3774 12.6354 32.1014 12.2031 31.9034 11.7031C31.7055 11.2031 31.6066 10.6589 31.6066 10.0703V9.74219C31.6066 9.0599 31.7159 8.45052 31.9347 7.91406C32.1534 7.3724 32.4425 6.91667 32.8019 6.54688C33.1665 6.17188 33.5779 5.88542 34.0362 5.6875C34.4998 5.48958 34.9737 5.39062 35.4581 5.39062C36.0675 5.39062 36.5987 5.4974 37.0519 5.71094C37.5102 5.91927 37.8904 6.21094 38.1925 6.58594C38.4946 6.95573 38.7185 7.39323 38.8644 7.89844C39.0154 8.40365 39.0909 8.95052 39.0909 9.53906V10.1875H33.0519C33.0675 10.5729 33.1404 10.9349 33.2706 11.2734C33.406 11.612 33.5883 11.9089 33.8175 12.1641C34.0519 12.4141 34.3305 12.612 34.6534 12.7578C34.9764 12.9036 35.3331 12.9766 35.7237 12.9766C36.2394 12.9766 36.6977 12.8724 37.0987 12.6641C37.4998 12.4557 37.8331 12.1797 38.0987 11.8359L38.9816 12.5234C38.8409 12.737 38.6639 12.9427 38.4503 13.1406C38.242 13.3333 37.9998 13.5052 37.7237 13.6562C37.4477 13.8073 37.1352 13.9271 36.7862 14.0156C36.4373 14.1094 36.0571 14.1562 35.6456 14.1562ZM35.4581 6.57812C35.1665 6.57812 34.8904 6.63281 34.63 6.74219C34.3696 6.84635 34.1352 7.0026 33.9269 7.21094C33.7185 7.41406 33.5415 7.66667 33.3956 7.96875C33.255 8.26562 33.156 8.60938 33.0987 9H37.6456V8.89062C37.63 8.60938 37.5753 8.33073 37.4816 8.05469C37.393 7.77865 37.2602 7.53125 37.0831 7.3125C36.906 7.09375 36.6821 6.91667 36.4112 6.78125C36.1456 6.64583 35.8279 6.57812 35.4581 6.57812Z" fill="black"/>
<path d="M54.3312 10.9375L54.5031 12.1484L54.7141 10.9375L56.0656 5.54688H56.9953L58.3391 10.9375L58.5656 12.2656L58.7766 10.9375L59.7141 5.54688H60.9953L59.1984 14H58.0578L56.7375 8.82031L56.5187 7.50781L56.3078 8.82031L55.0031 14H53.8625L52.0656 5.54688H53.3469L54.3312 10.9375Z" fill="black"/>
<path d="M63.8459 5.54688H68.1662V12.75H70.9241V14H63.8459V12.75H66.7209V6.80469H63.8459V5.54688ZM66.5334 3.32812C66.5334 3.08854 66.6037 2.88802 66.7444 2.72656C66.8902 2.5599 67.109 2.47656 67.4006 2.47656C67.6871 2.47656 67.9032 2.5599 68.0491 2.72656C68.1949 2.88802 68.2678 3.08854 68.2678 3.32812C68.2678 3.5625 68.1949 3.75781 68.0491 3.91406C67.9032 4.07031 67.6871 4.14844 67.4006 4.14844C67.109 4.14844 66.8902 4.07031 66.7444 3.91406C66.6037 3.75781 66.5334 3.5625 66.5334 3.32812Z" fill="black"/>
<path d="M77.6106 3.5V5.54688H80.8294V6.66406H77.6106V11.2578C77.6106 11.5859 77.6523 11.8568 77.7356 12.0703C77.819 12.2839 77.9335 12.4557 78.0794 12.5859C78.2252 12.7109 78.3919 12.7995 78.5794 12.8516C78.7721 12.9036 78.9752 12.9297 79.1888 12.9297C79.345 12.9297 79.5065 12.9219 79.6731 12.9062C79.8398 12.8854 80.0013 12.862 80.1575 12.8359C80.319 12.8099 80.4674 12.7839 80.6028 12.7578C80.7434 12.7266 80.858 12.7005 80.9466 12.6797L81.1497 13.7031C81.0299 13.776 80.8841 13.8411 80.7122 13.8984C80.5403 13.9505 80.3528 13.9948 80.1497 14.0312C79.9466 14.0729 79.7304 14.1042 79.5013 14.125C79.2773 14.1458 79.0533 14.1562 78.8294 14.1562C78.4544 14.1562 78.1028 14.1042 77.7747 14C77.4518 13.8906 77.1705 13.7214 76.9309 13.4922C76.6914 13.2578 76.5013 12.9583 76.3606 12.5938C76.2252 12.224 76.1575 11.7786 76.1575 11.2578V6.66406H73.9388V5.54688H76.1575V3.5H77.6106Z" fill="black"/>
<path d="M86.2034 6.80469C86.5055 6.36198 86.8779 6.01823 87.3206 5.77344C87.7633 5.52344 88.2607 5.39583 88.8128 5.39062C89.2555 5.39062 89.6566 5.45573 90.0159 5.58594C90.3805 5.71094 90.6904 5.90885 90.9456 6.17969C91.2008 6.45052 91.3961 6.79427 91.5316 7.21094C91.6722 7.6224 91.7425 8.11198 91.7425 8.67969V14H90.2972V8.66406C90.2972 7.97135 90.1305 7.45573 89.7972 7.11719C89.4691 6.77865 88.9977 6.61198 88.3831 6.61719C87.9196 6.61719 87.4977 6.73177 87.1175 6.96094C86.7425 7.1849 86.4378 7.48438 86.2034 7.85938V14H84.7581V2H86.2034V6.80469Z" fill="black"/>
<path d="M143.16 14C143.102 13.8906 143.056 13.7552 143.019 13.5938C142.988 13.4271 142.964 13.2552 142.949 13.0781C142.803 13.224 142.639 13.362 142.457 13.4922C142.279 13.6224 142.082 13.737 141.863 13.8359C141.649 13.9349 141.42 14.013 141.175 14.0703C140.931 14.1276 140.67 14.1562 140.394 14.1562C139.946 14.1562 139.54 14.0911 139.175 13.9609C138.816 13.8307 138.509 13.6562 138.253 13.4375C138.003 13.2135 137.808 12.9505 137.667 12.6484C137.532 12.3411 137.464 12.0104 137.464 11.6562C137.464 11.1927 137.556 10.7865 137.738 10.4375C137.925 10.0885 138.188 9.79948 138.527 9.57031C138.865 9.33594 139.272 9.16146 139.746 9.04688C140.225 8.93229 140.759 8.875 141.347 8.875H142.925V8.21094C142.925 7.95573 142.878 7.72656 142.785 7.52344C142.691 7.32031 142.558 7.14844 142.386 7.00781C142.214 6.86198 142.003 6.75 141.753 6.67188C141.509 6.59375 141.233 6.55469 140.925 6.55469C140.639 6.55469 140.381 6.59115 140.152 6.66406C139.928 6.73698 139.738 6.83333 139.582 6.95312C139.425 7.07292 139.303 7.21615 139.214 7.38281C139.131 7.54427 139.089 7.71354 139.089 7.89062H137.636C137.641 7.58333 137.72 7.28125 137.871 6.98438C138.027 6.6875 138.248 6.42188 138.535 6.1875C138.826 5.94792 139.178 5.75521 139.589 5.60938C140.006 5.46354 140.477 5.39062 141.003 5.39062C141.483 5.39062 141.928 5.45052 142.339 5.57031C142.751 5.6849 143.105 5.86198 143.402 6.10156C143.704 6.33594 143.941 6.63021 144.113 6.98438C144.285 7.33854 144.371 7.7526 144.371 8.22656V12.1562C144.371 12.4375 144.397 12.737 144.449 13.0547C144.501 13.3672 144.574 13.6406 144.667 13.875V14H143.16ZM140.605 12.8984C140.886 12.8984 141.149 12.862 141.394 12.7891C141.639 12.7161 141.86 12.6198 142.058 12.5C142.261 12.3802 142.436 12.2448 142.582 12.0938C142.727 11.9375 142.842 11.776 142.925 11.6094V9.89844H141.582C140.738 9.89844 140.082 10.0234 139.613 10.2734C139.144 10.5234 138.91 10.9167 138.91 11.4531C138.91 11.6615 138.944 11.8542 139.011 12.0312C139.084 12.2083 139.191 12.362 139.332 12.4922C139.472 12.6172 139.649 12.7161 139.863 12.7891C140.076 12.862 140.324 12.8984 140.605 12.8984Z" fill="black"/>
<path d="M149.471 5.54688L149.573 6.79688C149.88 6.35938 150.258 6.01823 150.706 5.77344C151.154 5.52344 151.654 5.39583 152.206 5.39062C152.648 5.39062 153.049 5.45312 153.409 5.57812C153.773 5.70312 154.083 5.89844 154.338 6.16406C154.594 6.42969 154.789 6.76823 154.924 7.17969C155.065 7.58594 155.135 8.07031 155.135 8.63281V14H153.69V8.66406C153.69 8.28906 153.648 7.97135 153.565 7.71094C153.482 7.45052 153.357 7.23958 153.19 7.07812C153.029 6.91667 152.828 6.79948 152.588 6.72656C152.354 6.65365 152.083 6.61719 151.776 6.61719C151.292 6.61719 150.864 6.73958 150.495 6.98438C150.13 7.22396 149.838 7.54167 149.62 7.9375V14H148.174V5.54688H149.471Z" fill="black"/>
<path d="M158.47 9.70312C158.47 9.07292 158.548 8.49479 158.705 7.96875C158.866 7.4375 159.093 6.98177 159.384 6.60156C159.681 6.22135 160.038 5.92448 160.455 5.71094C160.871 5.4974 161.337 5.39062 161.853 5.39062C162.358 5.39062 162.798 5.47656 163.173 5.64844C163.554 5.8151 163.882 6.0599 164.158 6.38281V2H165.603V14H164.275L164.212 13.1094C163.931 13.4531 163.595 13.7135 163.205 13.8906C162.814 14.0677 162.358 14.1562 161.837 14.1562C161.327 14.1562 160.864 14.0469 160.447 13.8281C160.035 13.6094 159.684 13.3073 159.392 12.9219C159.101 12.5365 158.874 12.0833 158.712 11.5625C158.551 11.0365 158.47 10.4714 158.47 9.86719V9.70312ZM159.916 9.86719C159.916 10.2786 159.96 10.6693 160.048 11.0391C160.137 11.4089 160.272 11.7344 160.455 12.0156C160.642 12.2969 160.879 12.5208 161.166 12.6875C161.452 12.849 161.796 12.9297 162.197 12.9297C162.442 12.9297 162.663 12.901 162.861 12.8438C163.059 12.7865 163.239 12.7057 163.4 12.6016C163.561 12.4922 163.705 12.3646 163.83 12.2188C163.955 12.0677 164.064 11.901 164.158 11.7188V7.79688C163.97 7.45312 163.718 7.17188 163.4 6.95312C163.082 6.72917 162.686 6.61719 162.212 6.61719C161.806 6.61719 161.457 6.70052 161.166 6.86719C160.879 7.03385 160.642 7.26042 160.455 7.54688C160.272 7.82812 160.137 8.15625 160.048 8.53125C159.96 8.90104 159.916 9.29167 159.916 9.70312V9.86719Z" fill="black"/>
<path d="M185.422 5.39062C185.557 5.39062 185.698 5.39583 185.843 5.40625C185.989 5.41146 186.127 5.42448 186.257 5.44531C186.393 5.46094 186.515 5.48177 186.625 5.50781C186.739 5.53385 186.833 5.5625 186.906 5.59375L186.711 7.00781C186.429 6.94531 186.161 6.90104 185.906 6.875C185.656 6.84375 185.393 6.82812 185.117 6.82812C184.44 6.82812 183.89 6.98177 183.468 7.28906C183.052 7.59635 182.744 8.02604 182.547 8.57812V14H181.093V5.54688H182.468L182.539 6.89062C182.882 6.42708 183.294 6.0625 183.773 5.79688C184.257 5.52604 184.807 5.39062 185.422 5.39062Z" fill="black"/>
<path d="M194.186 14.1562C193.592 14.1562 193.046 14.0547 192.546 13.8516C192.051 13.6484 191.626 13.3646 191.272 13C190.918 12.6354 190.642 12.2031 190.444 11.7031C190.246 11.2031 190.147 10.6589 190.147 10.0703V9.74219C190.147 9.0599 190.257 8.45052 190.475 7.91406C190.694 7.3724 190.983 6.91667 191.342 6.54688C191.707 6.17188 192.119 5.88542 192.577 5.6875C193.04 5.48958 193.514 5.39062 193.999 5.39062C194.608 5.39062 195.139 5.4974 195.592 5.71094C196.051 5.91927 196.431 6.21094 196.733 6.58594C197.035 6.95573 197.259 7.39323 197.405 7.89844C197.556 8.40365 197.632 8.95052 197.632 9.53906V10.1875H191.592C191.608 10.5729 191.681 10.9349 191.811 11.2734C191.947 11.612 192.129 11.9089 192.358 12.1641C192.592 12.4141 192.871 12.612 193.194 12.7578C193.517 12.9036 193.874 12.9766 194.264 12.9766C194.78 12.9766 195.238 12.8724 195.639 12.6641C196.04 12.4557 196.374 12.1797 196.639 11.8359L197.522 12.5234C197.382 12.737 197.204 12.9427 196.991 13.1406C196.783 13.3333 196.54 13.5052 196.264 13.6562C195.988 13.8073 195.676 13.9271 195.327 14.0156C194.978 14.1094 194.598 14.1562 194.186 14.1562ZM193.999 6.57812C193.707 6.57812 193.431 6.63281 193.171 6.74219C192.91 6.84635 192.676 7.0026 192.467 7.21094C192.259 7.41406 192.082 7.66667 191.936 7.96875C191.796 8.26562 191.697 8.60938 191.639 9H196.186V8.89062C196.171 8.60938 196.116 8.33073 196.022 8.05469C195.934 7.77865 195.801 7.53125 195.624 7.3125C195.447 7.09375 195.223 6.91667 194.952 6.78125C194.686 6.64583 194.369 6.57812 193.999 6.57812Z" fill="black"/>
<path d="M206.638 11.7578C206.638 11.5859 206.605 11.4323 206.537 11.2969C206.469 11.1562 206.355 11.0286 206.193 10.9141C206.032 10.7995 205.818 10.6953 205.553 10.6016C205.287 10.5026 204.956 10.4141 204.56 10.3359C204.076 10.237 203.633 10.1172 203.232 9.97656C202.836 9.83594 202.495 9.66927 202.209 9.47656C201.928 9.27865 201.709 9.04948 201.553 8.78906C201.396 8.52344 201.318 8.21615 201.318 7.86719C201.318 7.52344 201.399 7.20312 201.56 6.90625C201.722 6.60417 201.948 6.34115 202.24 6.11719C202.532 5.89323 202.878 5.71615 203.279 5.58594C203.685 5.45573 204.131 5.39062 204.615 5.39062C205.136 5.39062 205.605 5.45833 206.021 5.59375C206.438 5.72917 206.792 5.91667 207.084 6.15625C207.375 6.39583 207.599 6.67708 207.756 7C207.917 7.31771 207.998 7.66146 207.998 8.03125H206.553C206.553 7.84896 206.506 7.67188 206.412 7.5C206.318 7.32292 206.188 7.16667 206.021 7.03125C205.855 6.89583 205.651 6.78646 205.412 6.70312C205.178 6.61979 204.912 6.57812 204.615 6.57812C204.308 6.57812 204.037 6.61198 203.803 6.67969C203.573 6.7474 203.381 6.83854 203.224 6.95312C203.073 7.06771 202.959 7.20052 202.881 7.35156C202.803 7.5026 202.763 7.65885 202.763 7.82031C202.763 7.98698 202.795 8.13542 202.857 8.26562C202.92 8.39583 203.026 8.51302 203.178 8.61719C203.334 8.72135 203.539 8.8151 203.795 8.89844C204.055 8.98177 204.383 9.0625 204.779 9.14062C205.3 9.25 205.766 9.3776 206.178 9.52344C206.589 9.66406 206.935 9.83594 207.217 10.0391C207.498 10.237 207.711 10.4688 207.857 10.7344C208.008 11 208.084 11.3073 208.084 11.6562C208.084 12.0312 207.998 12.3724 207.826 12.6797C207.659 12.987 207.425 13.25 207.123 13.4688C206.821 13.6875 206.459 13.8568 206.037 13.9766C205.615 14.0964 205.154 14.1562 204.654 14.1562C204.081 14.1562 203.571 14.0807 203.123 13.9297C202.675 13.7734 202.295 13.5703 201.982 13.3203C201.675 13.0651 201.438 12.7708 201.271 12.4375C201.11 12.1042 201.029 11.7578 201.029 11.3984H202.474C202.495 11.6953 202.573 11.9453 202.709 12.1484C202.849 12.3516 203.021 12.5156 203.224 12.6406C203.433 12.7656 203.662 12.8542 203.912 12.9062C204.162 12.9583 204.409 12.9844 204.654 12.9844C205.263 12.9844 205.745 12.8724 206.099 12.6484C206.454 12.4245 206.633 12.1276 206.638 11.7578Z" fill="black"/>
<path d="M218.723 9.86719C218.723 10.4714 218.651 11.0365 218.505 11.5625C218.359 12.0833 218.145 12.5365 217.864 12.9219C217.583 13.3073 217.234 13.6094 216.817 13.8281C216.406 14.0469 215.934 14.1562 215.403 14.1562C214.887 14.1562 214.432 14.0729 214.036 13.9062C213.645 13.7396 213.309 13.5 213.028 13.1875V17.25H211.583V5.54688H212.903L212.973 6.46875C213.255 6.11979 213.593 5.85417 213.989 5.67188C214.39 5.48438 214.854 5.39062 215.38 5.39062C215.921 5.39062 216.401 5.4974 216.817 5.71094C217.234 5.92448 217.583 6.22135 217.864 6.60156C218.145 6.98177 218.359 7.4375 218.505 7.96875C218.651 8.49479 218.723 9.07292 218.723 9.70312V9.86719ZM217.278 9.70312C217.278 9.29167 217.231 8.90104 217.137 8.53125C217.049 8.15625 216.908 7.82812 216.716 7.54688C216.528 7.26042 216.289 7.03385 215.997 6.86719C215.705 6.70052 215.356 6.61719 214.95 6.61719C214.486 6.61719 214.096 6.72656 213.778 6.94531C213.466 7.15885 213.216 7.4349 213.028 7.77344V11.8438C213.216 12.1771 213.466 12.4505 213.778 12.6641C214.091 12.8724 214.486 12.9766 214.966 12.9766C215.367 12.9766 215.713 12.8932 216.005 12.7266C216.296 12.5547 216.536 12.3255 216.723 12.0391C216.911 11.7526 217.049 11.4219 217.137 11.0469C217.231 10.6719 217.278 10.2786 217.278 9.86719V9.70312Z" fill="black"/>
<path d="M221.754 9.69531C221.754 9.08594 221.842 8.52083 222.019 8C222.196 7.47396 222.449 7.01823 222.777 6.63281C223.111 6.2474 223.514 5.94531 223.988 5.72656C224.462 5.5026 224.996 5.39062 225.59 5.39062C226.189 5.39062 226.725 5.5026 227.199 5.72656C227.678 5.94531 228.082 6.2474 228.41 6.63281C228.743 7.01823 228.999 7.47396 229.176 8C229.353 8.52083 229.441 9.08594 229.441 9.69531V9.86719C229.441 10.4766 229.353 11.0417 229.176 11.5625C228.999 12.0833 228.743 12.5365 228.41 12.9219C228.082 13.3073 227.681 13.6094 227.207 13.8281C226.733 14.0469 226.199 14.1562 225.605 14.1562C225.006 14.1562 224.467 14.0469 223.988 13.8281C223.514 13.6094 223.111 13.3073 222.777 12.9219C222.449 12.5365 222.196 12.0833 222.019 11.5625C221.842 11.0417 221.754 10.4766 221.754 9.86719V9.69531ZM223.199 9.86719C223.199 10.2839 223.249 10.6823 223.348 11.0625C223.446 11.4375 223.595 11.7682 223.793 12.0547C223.996 12.3411 224.249 12.5677 224.551 12.7344C224.853 12.901 225.204 12.9844 225.605 12.9844C226.001 12.9844 226.348 12.901 226.644 12.7344C226.946 12.5677 227.196 12.3411 227.394 12.0547C227.598 11.7682 227.749 11.4375 227.848 11.0625C227.946 10.6823 227.996 10.2839 227.996 9.86719V9.69531C227.996 9.28385 227.944 8.89062 227.84 8.51562C227.741 8.13542 227.59 7.80208 227.387 7.51562C227.189 7.22917 226.939 7.0026 226.637 6.83594C226.34 6.66406 225.991 6.57812 225.59 6.57812C225.189 6.57812 224.84 6.66406 224.543 6.83594C224.246 7.0026 223.996 7.22917 223.793 7.51562C223.595 7.80208 223.446 8.13542 223.348 8.51562C223.249 8.89062 223.199 9.28385 223.199 9.69531V9.86719Z" fill="black"/>
<path d="M234.026 5.54688L234.128 6.79688C234.435 6.35938 234.813 6.01823 235.261 5.77344C235.709 5.52344 236.209 5.39583 236.761 5.39062C237.203 5.39062 237.604 5.45312 237.964 5.57812C238.328 5.70312 238.638 5.89844 238.893 6.16406C239.149 6.42969 239.344 6.76823 239.479 7.17969C239.62 7.58594 239.69 8.07031 239.69 8.63281V14H238.245V8.66406C238.245 8.28906 238.203 7.97135 238.12 7.71094C238.037 7.45052 237.912 7.23958 237.745 7.07812C237.584 6.91667 237.383 6.79948 237.143 6.72656C236.909 6.65365 236.638 6.61719 236.331 6.61719C235.847 6.61719 235.419 6.73958 235.05 6.98438C234.685 7.22396 234.393 7.54167 234.175 7.9375V14H232.729V5.54688H234.026Z" fill="black"/>
<path d="M248.916 11.7578C248.916 11.5859 248.882 11.4323 248.814 11.2969C248.747 11.1562 248.632 11.0286 248.471 10.9141C248.309 10.7995 248.096 10.6953 247.83 10.6016C247.564 10.5026 247.234 10.4141 246.838 10.3359C246.353 10.237 245.911 10.1172 245.51 9.97656C245.114 9.83594 244.773 9.66927 244.486 9.47656C244.205 9.27865 243.986 9.04948 243.83 8.78906C243.674 8.52344 243.596 8.21615 243.596 7.86719C243.596 7.52344 243.676 7.20312 243.838 6.90625C243.999 6.60417 244.226 6.34115 244.518 6.11719C244.809 5.89323 245.156 5.71615 245.557 5.58594C245.963 5.45573 246.408 5.39062 246.893 5.39062C247.413 5.39062 247.882 5.45833 248.299 5.59375C248.715 5.72917 249.07 5.91667 249.361 6.15625C249.653 6.39583 249.877 6.67708 250.033 7C250.195 7.31771 250.275 7.66146 250.275 8.03125H248.83C248.83 7.84896 248.783 7.67188 248.689 7.5C248.596 7.32292 248.465 7.16667 248.299 7.03125C248.132 6.89583 247.929 6.78646 247.689 6.70312C247.455 6.61979 247.189 6.57812 246.893 6.57812C246.585 6.57812 246.314 6.61198 246.08 6.67969C245.851 6.7474 245.658 6.83854 245.502 6.95312C245.351 7.06771 245.236 7.20052 245.158 7.35156C245.08 7.5026 245.041 7.65885 245.041 7.82031C245.041 7.98698 245.072 8.13542 245.135 8.26562C245.197 8.39583 245.304 8.51302 245.455 8.61719C245.611 8.72135 245.817 8.8151 246.072 8.89844C246.333 8.98177 246.661 9.0625 247.057 9.14062C247.577 9.25 248.044 9.3776 248.455 9.52344C248.866 9.66406 249.213 9.83594 249.494 10.0391C249.775 10.237 249.989 10.4688 250.135 10.7344C250.286 11 250.361 11.3073 250.361 11.6562C250.361 12.0312 250.275 12.3724 250.103 12.6797C249.937 12.987 249.702 13.25 249.4 13.4688C249.098 13.6875 248.736 13.8568 248.314 13.9766C247.893 14.0964 247.432 14.1562 246.932 14.1562C246.359 14.1562 245.848 14.0807 245.4 13.9297C244.952 13.7734 244.572 13.5703 244.26 13.3203C243.952 13.0651 243.715 12.7708 243.549 12.4375C243.387 12.1042 243.307 11.7578 243.307 11.3984H244.752C244.773 11.6953 244.851 11.9453 244.986 12.1484C245.127 12.3516 245.299 12.5156 245.502 12.6406C245.71 12.7656 245.939 12.8542 246.189 12.9062C246.439 12.9583 246.687 12.9844 246.932 12.9844C247.541 12.9844 248.023 12.8724 248.377 12.6484C248.731 12.4245 248.911 12.1276 248.916 11.7578Z" fill="black"/>
<path d="M254.095 5.54688H258.415V12.75H261.173V14H254.095V12.75H256.97V6.80469H254.095V5.54688ZM256.782 3.32812C256.782 3.08854 256.852 2.88802 256.993 2.72656C257.139 2.5599 257.358 2.47656 257.649 2.47656C257.936 2.47656 258.152 2.5599 258.298 2.72656C258.444 2.88802 258.517 3.08854 258.517 3.32812C258.517 3.5625 258.444 3.75781 258.298 3.91406C258.152 4.07031 257.936 4.14844 257.649 4.14844C257.358 4.14844 257.139 4.07031 256.993 3.91406C256.852 3.75781 256.782 3.5625 256.782 3.32812Z" fill="black"/>
<path d="M271.602 9.86719C271.602 10.4714 271.529 11.0365 271.383 11.5625C271.237 12.0833 271.023 12.5365 270.742 12.9219C270.461 13.3073 270.112 13.6094 269.695 13.8281C269.284 14.0469 268.81 14.1562 268.273 14.1562C267.732 14.1562 267.26 14.0599 266.859 13.8672C266.464 13.6745 266.125 13.3984 265.844 13.0391L265.773 14H264.445V2H265.891V6.45312C266.167 6.10938 266.5 5.84635 266.891 5.66406C267.281 5.48177 267.737 5.39062 268.258 5.39062C268.799 5.39062 269.279 5.4974 269.695 5.71094C270.112 5.92448 270.461 6.22135 270.742 6.60156C271.023 6.98177 271.237 7.4375 271.383 7.96875C271.529 8.49479 271.602 9.07292 271.602 9.70312V9.86719ZM270.156 9.70312C270.156 9.29167 270.115 8.90104 270.031 8.53125C269.953 8.15625 269.826 7.82812 269.648 7.54688C269.471 7.26042 269.24 7.03385 268.953 6.86719C268.667 6.70052 268.315 6.61719 267.898 6.61719C267.648 6.61719 267.419 6.65104 267.211 6.71875C267.003 6.78125 266.815 6.8724 266.648 6.99219C266.487 7.10677 266.341 7.24479 266.211 7.40625C266.086 7.5625 265.979 7.73438 265.891 7.92188V11.6172C265.984 11.8047 266.094 11.9792 266.219 12.1406C266.349 12.2969 266.497 12.4349 266.664 12.5547C266.831 12.6745 267.018 12.7682 267.227 12.8359C267.435 12.8984 267.664 12.9297 267.914 12.9297C268.31 12.9297 268.648 12.849 268.93 12.6875C269.216 12.5208 269.448 12.2969 269.625 12.0156C269.807 11.7344 269.94 11.4089 270.023 11.0391C270.112 10.6693 270.156 10.2786 270.156 9.86719V9.70312Z" fill="black"/>
<path d="M275.233 5.54688H279.554V12.75H282.312V14H275.233V12.75H278.108V6.80469H275.233V5.54688ZM277.921 3.32812C277.921 3.08854 277.991 2.88802 278.132 2.72656C278.278 2.5599 278.496 2.47656 278.788 2.47656C279.075 2.47656 279.291 2.5599 279.437 2.72656C279.582 2.88802 279.655 3.08854 279.655 3.32812C279.655 3.5625 279.582 3.75781 279.437 3.91406C279.291 4.07031 279.075 4.14844 278.788 4.14844C278.496 4.14844 278.278 4.07031 278.132 3.91406C277.991 3.75781 277.921 3.5625 277.921 3.32812Z" fill="black"/>
<path d="M285.803 2H290.123V12.75H292.881V14H285.803V12.75H288.678V3.25781H285.803V2Z" fill="black"/>
<path d="M296.372 5.54688H300.693V12.75H303.45V14H296.372V12.75H299.247V6.80469H296.372V5.54688ZM299.06 3.32812C299.06 3.08854 299.13 2.88802 299.271 2.72656C299.416 2.5599 299.635 2.47656 299.927 2.47656C300.213 2.47656 300.429 2.5599 300.575 2.72656C300.721 2.88802 300.794 3.08854 300.794 3.32812C300.794 3.5625 300.721 3.75781 300.575 3.91406C300.429 4.07031 300.213 4.14844 299.927 4.14844C299.635 4.14844 299.416 4.07031 299.271 3.91406C299.13 3.75781 299.06 3.5625 299.06 3.32812Z" fill="black"/>
<path d="M310.137 3.5V5.54688H313.356V6.66406H310.137V11.2578C310.137 11.5859 310.179 11.8568 310.262 12.0703C310.345 12.2839 310.46 12.4557 310.606 12.5859C310.751 12.7109 310.918 12.7995 311.106 12.8516C311.298 12.9036 311.501 12.9297 311.715 12.9297C311.871 12.9297 312.033 12.9219 312.199 12.9062C312.366 12.8854 312.527 12.862 312.684 12.8359C312.845 12.8099 312.994 12.7839 313.129 12.7578C313.27 12.7266 313.384 12.7005 313.473 12.6797L313.676 13.7031C313.556 13.776 313.41 13.8411 313.238 13.8984C313.067 13.9505 312.879 13.9948 312.676 14.0312C312.473 14.0729 312.257 14.1042 312.027 14.125C311.804 14.1458 311.58 14.1562 311.356 14.1562C310.981 14.1562 310.629 14.1042 310.301 14C309.978 13.8906 309.697 13.7214 309.457 13.4922C309.218 13.2578 309.027 12.9583 308.887 12.5938C308.751 12.224 308.684 11.7786 308.684 11.2578V6.66406H306.465V5.54688H308.684V3.5H310.137Z" fill="black"/>
<path d="M320.394 11L320.769 12.0234L323.347 5.54688H324.964L320.675 15.3047C320.576 15.5234 320.448 15.7552 320.292 16C320.141 16.2448 319.956 16.4714 319.737 16.6797C319.519 16.888 319.264 17.0625 318.972 17.2031C318.68 17.3438 318.344 17.4141 317.964 17.4141C317.896 17.4141 317.821 17.4089 317.737 17.3984C317.654 17.3932 317.571 17.3828 317.487 17.3672C317.404 17.3568 317.326 17.3438 317.253 17.3281C317.18 17.3125 317.12 17.2995 317.073 17.2891L317.308 16.1094C317.344 16.1094 317.394 16.112 317.456 16.1172C317.519 16.1224 317.584 16.1276 317.652 16.1328C317.719 16.138 317.784 16.1406 317.847 16.1406C317.909 16.1458 317.959 16.1484 317.995 16.1484C318.193 16.1484 318.373 16.0938 318.534 15.9844C318.701 15.875 318.847 15.7448 318.972 15.5938C319.102 15.4427 319.211 15.2865 319.3 15.125C319.394 14.9635 319.467 14.8307 319.519 14.7266L320.097 13.6016L316.456 5.54688H318.073L320.394 11Z" fill="black"/>
<path d="M345.587 9.86719C345.587 10.4714 345.514 11.0365 345.368 11.5625C345.223 12.0833 345.009 12.5365 344.728 12.9219C344.447 13.3073 344.098 13.6094 343.681 13.8281C343.269 14.0469 342.796 14.1562 342.259 14.1562C341.717 14.1562 341.246 14.0599 340.845 13.8672C340.449 13.6745 340.111 13.3984 339.829 13.0391L339.759 14H338.431V2H339.876V6.45312C340.152 6.10938 340.486 5.84635 340.876 5.66406C341.267 5.48177 341.723 5.39062 342.243 5.39062C342.785 5.39062 343.264 5.4974 343.681 5.71094C344.098 5.92448 344.447 6.22135 344.728 6.60156C345.009 6.98177 345.223 7.4375 345.368 7.96875C345.514 8.49479 345.587 9.07292 345.587 9.70312V9.86719ZM344.142 9.70312C344.142 9.29167 344.1 8.90104 344.017 8.53125C343.939 8.15625 343.811 7.82812 343.634 7.54688C343.457 7.26042 343.225 7.03385 342.939 6.86719C342.652 6.70052 342.301 6.61719 341.884 6.61719C341.634 6.61719 341.405 6.65104 341.197 6.71875C340.988 6.78125 340.801 6.8724 340.634 6.99219C340.473 7.10677 340.327 7.24479 340.197 7.40625C340.072 7.5625 339.965 7.73438 339.876 7.92188V11.6172C339.97 11.8047 340.079 11.9792 340.204 12.1406C340.335 12.2969 340.483 12.4349 340.65 12.5547C340.816 12.6745 341.004 12.7682 341.212 12.8359C341.421 12.8984 341.65 12.9297 341.9 12.9297C342.296 12.9297 342.634 12.849 342.915 12.6875C343.202 12.5208 343.434 12.2969 343.611 12.0156C343.793 11.7344 343.926 11.4089 344.009 11.0391C344.098 10.6693 344.142 10.2786 344.142 9.86719V9.70312Z" fill="black"/>
<path d="M352.102 11L352.477 12.0234L355.055 5.54688H356.672L352.383 15.3047C352.284 15.5234 352.157 15.7552 352 16C351.849 16.2448 351.664 16.4714 351.446 16.6797C351.227 16.888 350.972 17.0625 350.68 17.2031C350.388 17.3438 350.052 17.4141 349.672 17.4141C349.604 17.4141 349.529 17.4089 349.446 17.3984C349.362 17.3932 349.279 17.3828 349.196 17.3672C349.112 17.3568 349.034 17.3438 348.961 17.3281C348.888 17.3125 348.828 17.2995 348.782 17.2891L349.016 16.1094C349.052 16.1094 349.102 16.112 349.164 16.1172C349.227 16.1224 349.292 16.1276 349.36 16.1328C349.427 16.138 349.492 16.1406 349.555 16.1406C349.617 16.1458 349.667 16.1484 349.703 16.1484C349.901 16.1484 350.081 16.0938 350.242 15.9844C350.409 15.875 350.555 15.7448 350.68 15.5938C350.81 15.4427 350.92 15.2865 351.008 15.125C351.102 14.9635 351.175 14.8307 351.227 14.7266L351.805 13.6016L348.164 5.54688H349.782L352.102 11Z" fill="black"/>
<path d="M377.631 8.82031C377.626 9.24219 377.59 9.66667 377.522 10.0938C377.454 10.5208 377.35 10.9323 377.209 11.3281C377.074 11.724 376.897 12.0964 376.678 12.4453C376.465 12.7891 376.207 13.0885 375.905 13.3438L377.866 14.9766L376.873 15.9219L374.623 14.0156C374.301 14.1094 373.952 14.1562 373.577 14.1562C373.092 14.1562 372.657 14.0833 372.272 13.9375C371.886 13.7865 371.543 13.5833 371.241 13.3281C370.944 13.0729 370.686 12.7734 370.467 12.4297C370.248 12.0807 370.069 11.7083 369.928 11.3125C369.788 10.9167 369.683 10.5078 369.616 10.0859C369.548 9.65885 369.511 9.23698 369.506 8.82031V7.82031C369.511 7.40365 369.548 6.98177 369.616 6.55469C369.683 6.1276 369.788 5.71615 369.928 5.32031C370.069 4.92448 370.246 4.55469 370.459 4.21094C370.673 3.86198 370.928 3.5599 371.225 3.30469C371.527 3.04427 371.871 2.84115 372.256 2.69531C372.647 2.54427 373.084 2.46875 373.569 2.46875C374.053 2.46875 374.488 2.54427 374.873 2.69531C375.264 2.84115 375.608 3.04167 375.905 3.29688C376.207 3.55208 376.465 3.85417 376.678 4.20312C376.897 4.54688 377.074 4.91667 377.209 5.3125C377.35 5.70833 377.454 6.1224 377.522 6.55469C377.59 6.98177 377.626 7.40365 377.631 7.82031V8.82031ZM376.194 7.80469C376.189 7.51823 376.17 7.22135 376.139 6.91406C376.113 6.60156 376.061 6.29688 375.983 6C375.91 5.69792 375.808 5.41146 375.678 5.14062C375.553 4.86979 375.394 4.63281 375.202 4.42969C375.009 4.22135 374.777 4.05729 374.506 3.9375C374.241 3.81771 373.928 3.75781 373.569 3.75781C373.215 3.75781 372.905 3.82031 372.639 3.94531C372.373 4.0651 372.144 4.22917 371.952 4.4375C371.759 4.64062 371.597 4.8776 371.467 5.14844C371.342 5.41927 371.241 5.70573 371.163 6.00781C371.084 6.30469 371.027 6.60938 370.991 6.92188C370.959 7.22917 370.944 7.52344 370.944 7.80469V8.82031C370.944 9.10156 370.959 9.39844 370.991 9.71094C371.027 10.0182 371.084 10.3229 371.163 10.625C371.241 10.9271 371.342 11.2135 371.467 11.4844C371.597 11.7552 371.759 11.9948 371.952 12.2031C372.144 12.4115 372.373 12.5781 372.639 12.7031C372.91 12.8229 373.222 12.8828 373.577 12.8828C373.936 12.8828 374.248 12.8229 374.514 12.7031C374.785 12.5781 375.017 12.4141 375.209 12.2109C375.402 12.0026 375.561 11.763 375.686 11.4922C375.811 11.2214 375.91 10.9349 375.983 10.6328C376.061 10.3307 376.113 10.026 376.139 9.71875C376.17 9.40625 376.189 9.10677 376.194 8.82031V7.80469Z" fill="black"/>
<path d="M386.185 12.8359C385.904 13.2526 385.552 13.5781 385.13 13.8125C384.708 14.0417 384.221 14.1562 383.669 14.1562C383.227 14.1562 382.826 14.0885 382.466 13.9531C382.107 13.8125 381.8 13.5964 381.544 13.3047C381.289 13.013 381.091 12.6432 380.951 12.1953C380.815 11.7422 380.747 11.2005 380.747 10.5703V5.54688H382.193V10.5859C382.193 11.0443 382.229 11.4245 382.302 11.7266C382.375 12.0286 382.484 12.2708 382.63 12.4531C382.776 12.6302 382.953 12.7552 383.162 12.8281C383.375 12.901 383.62 12.9375 383.896 12.9375C384.484 12.9375 384.958 12.8177 385.318 12.5781C385.682 12.3385 385.953 12.0156 386.13 11.6094V5.54688H387.583V14H386.271L386.185 12.8359Z" fill="black"/>
<path d="M391.497 5.54688H395.817V12.75H398.575V14H391.497V12.75H394.372V6.80469H391.497V5.54688ZM394.184 3.32812C394.184 3.08854 394.254 2.88802 394.395 2.72656C394.541 2.5599 394.76 2.47656 395.051 2.47656C395.338 2.47656 395.554 2.5599 395.7 2.72656C395.846 2.88802 395.918 3.08854 395.918 3.32812C395.918 3.5625 395.846 3.75781 395.7 3.91406C395.554 4.07031 395.338 4.14844 395.051 4.14844C394.76 4.14844 394.541 4.07031 394.395 3.91406C394.254 3.75781 394.184 3.5625 394.184 3.32812Z" fill="black"/>
<path d="M403.136 5.54688L403.238 6.79688C403.545 6.35938 403.923 6.01823 404.371 5.77344C404.819 5.52344 405.319 5.39583 405.871 5.39062C406.313 5.39062 406.714 5.45312 407.074 5.57812C407.438 5.70312 407.748 5.89844 408.003 6.16406C408.259 6.42969 408.454 6.76823 408.589 7.17969C408.73 7.58594 408.8 8.07031 408.8 8.63281V14H407.355V8.66406C407.355 8.28906 407.313 7.97135 407.23 7.71094C407.147 7.45052 407.022 7.23958 406.855 7.07812C406.694 6.91667 406.493 6.79948 406.253 6.72656C406.019 6.65365 405.748 6.61719 405.441 6.61719C404.957 6.61719 404.529 6.73958 404.16 6.98438C403.795 7.22396 403.503 7.54167 403.285 7.9375V14H401.839V5.54688H403.136Z" fill="black"/>
<path d="M415.831 3.5V5.54688H419.049V6.66406H415.831V11.2578C415.831 11.5859 415.872 11.8568 415.956 12.0703C416.039 12.2839 416.154 12.4557 416.299 12.5859C416.445 12.7109 416.612 12.7995 416.799 12.8516C416.992 12.9036 417.195 12.9297 417.409 12.9297C417.565 12.9297 417.726 12.9219 417.893 12.9062C418.06 12.8854 418.221 12.862 418.378 12.8359C418.539 12.8099 418.687 12.7839 418.823 12.7578C418.963 12.7266 419.078 12.7005 419.167 12.6797L419.37 13.7031C419.25 13.776 419.104 13.8411 418.932 13.8984C418.76 13.9505 418.573 13.9948 418.37 14.0312C418.167 14.0729 417.95 14.1042 417.721 14.125C417.497 14.1458 417.273 14.1562 417.049 14.1562C416.674 14.1562 416.323 14.1042 415.995 14C415.672 13.8906 415.391 13.7214 415.151 13.4922C414.911 13.2578 414.721 12.9583 414.581 12.5938C414.445 12.224 414.378 11.7786 414.378 11.2578V6.66406H412.159V5.54688H414.378V3.5H415.831Z" fill="black"/>
<path d="M426.712 14.1562C426.119 14.1562 425.572 14.0547 425.072 13.8516C424.577 13.6484 424.153 13.3646 423.798 13C423.444 12.6354 423.168 12.2031 422.97 11.7031C422.772 11.2031 422.673 10.6589 422.673 10.0703V9.74219C422.673 9.0599 422.783 8.45052 423.002 7.91406C423.22 7.3724 423.509 6.91667 423.869 6.54688C424.233 6.17188 424.645 5.88542 425.103 5.6875C425.567 5.48958 426.041 5.39062 426.525 5.39062C427.134 5.39062 427.666 5.4974 428.119 5.71094C428.577 5.91927 428.957 6.21094 429.259 6.58594C429.561 6.95573 429.785 7.39323 429.931 7.89844C430.082 8.40365 430.158 8.95052 430.158 9.53906V10.1875H424.119C424.134 10.5729 424.207 10.9349 424.337 11.2734C424.473 11.612 424.655 11.9089 424.884 12.1641C425.119 12.4141 425.397 12.612 425.72 12.7578C426.043 12.9036 426.4 12.9766 426.791 12.9766C427.306 12.9766 427.765 12.8724 428.166 12.6641C428.567 12.4557 428.9 12.1797 429.166 11.8359L430.048 12.5234C429.908 12.737 429.731 12.9427 429.517 13.1406C429.309 13.3333 429.067 13.5052 428.791 13.6562C428.515 13.8073 428.202 13.9271 427.853 14.0156C427.504 14.1094 427.124 14.1562 426.712 14.1562ZM426.525 6.57812C426.233 6.57812 425.957 6.63281 425.697 6.74219C425.436 6.84635 425.202 7.0026 424.994 7.21094C424.785 7.41406 424.608 7.66667 424.462 7.96875C424.322 8.26562 424.223 8.60938 424.166 9H428.712V8.89062C428.697 8.60938 428.642 8.33073 428.548 8.05469C428.46 7.77865 428.327 7.53125 428.15 7.3125C427.973 7.09375 427.749 6.91667 427.478 6.78125C427.212 6.64583 426.895 6.57812 426.525 6.57812Z" fill="black"/>
<path d="M439.165 11.7578C439.165 11.5859 439.131 11.4323 439.063 11.2969C438.995 11.1562 438.881 11.0286 438.719 10.9141C438.558 10.7995 438.344 10.6953 438.079 10.6016C437.813 10.5026 437.482 10.4141 437.087 10.3359C436.602 10.237 436.159 10.1172 435.758 9.97656C435.363 9.83594 435.021 9.66927 434.735 9.47656C434.454 9.27865 434.235 9.04948 434.079 8.78906C433.922 8.52344 433.844 8.21615 433.844 7.86719C433.844 7.52344 433.925 7.20312 434.087 6.90625C434.248 6.60417 434.475 6.34115 434.766 6.11719C435.058 5.89323 435.404 5.71615 435.805 5.58594C436.212 5.45573 436.657 5.39062 437.141 5.39062C437.662 5.39062 438.131 5.45833 438.547 5.59375C438.964 5.72917 439.318 5.91667 439.61 6.15625C439.902 6.39583 440.126 6.67708 440.282 7C440.443 7.31771 440.524 7.66146 440.524 8.03125H439.079C439.079 7.84896 439.032 7.67188 438.938 7.5C438.844 7.32292 438.714 7.16667 438.547 7.03125C438.381 6.89583 438.178 6.78646 437.938 6.70312C437.704 6.61979 437.438 6.57812 437.141 6.57812C436.834 6.57812 436.563 6.61198 436.329 6.67969C436.1 6.7474 435.907 6.83854 435.751 6.95312C435.6 7.06771 435.485 7.20052 435.407 7.35156C435.329 7.5026 435.29 7.65885 435.29 7.82031C435.29 7.98698 435.321 8.13542 435.383 8.26562C435.446 8.39583 435.553 8.51302 435.704 8.61719C435.86 8.72135 436.066 8.8151 436.321 8.89844C436.581 8.98177 436.909 9.0625 437.305 9.14062C437.826 9.25 438.292 9.3776 438.704 9.52344C439.115 9.66406 439.462 9.83594 439.743 10.0391C440.024 10.237 440.238 10.4688 440.383 10.7344C440.534 11 440.61 11.3073 440.61 11.6562C440.61 12.0312 440.524 12.3724 440.352 12.6797C440.186 12.987 439.951 13.25 439.649 13.4688C439.347 13.6875 438.985 13.8568 438.563 13.9766C438.141 14.0964 437.68 14.1562 437.18 14.1562C436.607 14.1562 436.097 14.0807 435.649 13.9297C435.201 13.7734 434.821 13.5703 434.508 13.3203C434.201 13.0651 433.964 12.7708 433.797 12.4375C433.636 12.1042 433.555 11.7578 433.555 11.3984H435.001C435.021 11.6953 435.1 11.9453 435.235 12.1484C435.376 12.3516 435.547 12.5156 435.751 12.6406C435.959 12.7656 436.188 12.8542 436.438 12.9062C436.688 12.9583 436.936 12.9844 437.18 12.9844C437.79 12.9844 438.271 12.8724 438.626 12.6484C438.98 12.4245 439.159 12.1276 439.165 11.7578Z" fill="black"/>
<path d="M449.734 11.7578C449.734 11.5859 449.7 11.4323 449.633 11.2969C449.565 11.1562 449.45 11.0286 449.289 10.9141C449.127 10.7995 448.914 10.6953 448.648 10.6016C448.383 10.5026 448.052 10.4141 447.656 10.3359C447.172 10.237 446.729 10.1172 446.328 9.97656C445.932 9.83594 445.591 9.66927 445.304 9.47656C445.023 9.27865 444.804 9.04948 444.648 8.78906C444.492 8.52344 444.414 8.21615 444.414 7.86719C444.414 7.52344 444.494 7.20312 444.656 6.90625C444.817 6.60417 445.044 6.34115 445.336 6.11719C445.627 5.89323 445.974 5.71615 446.375 5.58594C446.781 5.45573 447.226 5.39062 447.711 5.39062C448.231 5.39062 448.7 5.45833 449.117 5.59375C449.534 5.72917 449.888 5.91667 450.179 6.15625C450.471 6.39583 450.695 6.67708 450.851 7C451.013 7.31771 451.093 7.66146 451.093 8.03125H449.648C449.648 7.84896 449.601 7.67188 449.508 7.5C449.414 7.32292 449.284 7.16667 449.117 7.03125C448.95 6.89583 448.747 6.78646 448.508 6.70312C448.273 6.61979 448.008 6.57812 447.711 6.57812C447.403 6.57812 447.133 6.61198 446.898 6.67969C446.669 6.7474 446.476 6.83854 446.32 6.95312C446.169 7.06771 446.054 7.20052 445.976 7.35156C445.898 7.5026 445.859 7.65885 445.859 7.82031C445.859 7.98698 445.89 8.13542 445.953 8.26562C446.015 8.39583 446.122 8.51302 446.273 8.61719C446.429 8.72135 446.635 8.8151 446.89 8.89844C447.151 8.98177 447.479 9.0625 447.875 9.14062C448.396 9.25 448.862 9.3776 449.273 9.52344C449.685 9.66406 450.031 9.83594 450.312 10.0391C450.593 10.237 450.807 10.4688 450.953 10.7344C451.104 11 451.179 11.3073 451.179 11.6562C451.179 12.0312 451.093 12.3724 450.922 12.6797C450.755 12.987 450.521 13.25 450.218 13.4688C449.916 13.6875 449.554 13.8568 449.133 13.9766C448.711 14.0964 448.25 14.1562 447.75 14.1562C447.177 14.1562 446.666 14.0807 446.218 13.9297C445.771 13.7734 445.39 13.5703 445.078 13.3203C444.771 13.0651 444.534 12.7708 444.367 12.4375C444.205 12.1042 444.125 11.7578 444.125 11.3984H445.57C445.591 11.6953 445.669 11.9453 445.804 12.1484C445.945 12.3516 446.117 12.5156 446.32 12.6406C446.528 12.7656 446.758 12.8542 447.008 12.9062C447.258 12.9583 447.505 12.9844 447.75 12.9844C448.359 12.9844 448.841 12.8724 449.195 12.6484C449.549 12.4245 449.729 12.1276 449.734 11.7578Z" fill="black"/>
<path d="M458.421 14.1562C457.827 14.1562 457.28 14.0547 456.78 13.8516C456.285 13.6484 455.861 13.3646 455.507 13C455.152 12.6354 454.876 12.2031 454.678 11.7031C454.481 11.2031 454.382 10.6589 454.382 10.0703V9.74219C454.382 9.0599 454.491 8.45052 454.71 7.91406C454.928 7.3724 455.217 6.91667 455.577 6.54688C455.941 6.17188 456.353 5.88542 456.811 5.6875C457.275 5.48958 457.749 5.39062 458.233 5.39062C458.842 5.39062 459.374 5.4974 459.827 5.71094C460.285 5.91927 460.665 6.21094 460.967 6.58594C461.27 6.95573 461.494 7.39323 461.639 7.89844C461.79 8.40365 461.866 8.95052 461.866 9.53906V10.1875H455.827C455.842 10.5729 455.915 10.9349 456.046 11.2734C456.181 11.612 456.363 11.9089 456.592 12.1641C456.827 12.4141 457.106 12.612 457.428 12.7578C457.751 12.9036 458.108 12.9766 458.499 12.9766C459.014 12.9766 459.473 12.8724 459.874 12.6641C460.275 12.4557 460.608 12.1797 460.874 11.8359L461.757 12.5234C461.616 12.737 461.439 12.9427 461.225 13.1406C461.017 13.3333 460.775 13.5052 460.499 13.6562C460.223 13.8073 459.91 13.9271 459.561 14.0156C459.212 14.1094 458.832 14.1562 458.421 14.1562ZM458.233 6.57812C457.941 6.57812 457.665 6.63281 457.405 6.74219C457.145 6.84635 456.91 7.0026 456.702 7.21094C456.494 7.41406 456.316 7.66667 456.171 7.96875C456.03 8.26562 455.931 8.60938 455.874 9H460.421V8.89062C460.405 8.60938 460.35 8.33073 460.257 8.05469C460.168 7.77865 460.035 7.53125 459.858 7.3125C459.681 7.09375 459.457 6.91667 459.186 6.78125C458.921 6.64583 458.603 6.57812 458.233 6.57812Z" fill="black"/>
<path d="M466.552 5.54688L466.654 6.79688C466.961 6.35938 467.339 6.01823 467.787 5.77344C468.235 5.52344 468.735 5.39583 469.287 5.39062C469.73 5.39062 470.131 5.45312 470.49 5.57812C470.855 5.70312 471.164 5.89844 471.42 6.16406C471.675 6.42969 471.87 6.76823 472.006 7.17969C472.146 7.58594 472.217 8.07031 472.217 8.63281V14H470.771V8.66406C470.771 8.28906 470.73 7.97135 470.646 7.71094C470.563 7.45052 470.438 7.23958 470.271 7.07812C470.11 6.91667 469.909 6.79948 469.67 6.72656C469.435 6.65365 469.164 6.61719 468.857 6.61719C468.373 6.61719 467.946 6.73958 467.576 6.98438C467.211 7.22396 466.92 7.54167 466.701 7.9375V14H465.256V5.54688H466.552Z" fill="black"/>
<path d="M479.247 3.5V5.54688H482.466V6.66406H479.247V11.2578C479.247 11.5859 479.289 11.8568 479.372 12.0703C479.455 12.2839 479.57 12.4557 479.716 12.5859C479.861 12.7109 480.028 12.7995 480.216 12.8516C480.408 12.9036 480.611 12.9297 480.825 12.9297C480.981 12.9297 481.143 12.9219 481.309 12.9062C481.476 12.8854 481.638 12.862 481.794 12.8359C481.955 12.8099 482.104 12.7839 482.239 12.7578C482.38 12.7266 482.494 12.7005 482.583 12.6797L482.786 13.7031C482.666 13.776 482.52 13.8411 482.348 13.8984C482.177 13.9505 481.989 13.9948 481.786 14.0312C481.583 14.0729 481.367 14.1042 481.138 14.125C480.914 14.1458 480.69 14.1562 480.466 14.1562C480.091 14.1562 479.739 14.1042 479.411 14C479.088 13.8906 478.807 13.7214 478.567 13.4922C478.328 13.2578 478.138 12.9583 477.997 12.5938C477.861 12.224 477.794 11.7786 477.794 11.2578V6.66406H475.575V5.54688H477.794V3.5H479.247Z" fill="black"/>
<path d="M486.621 5.54688H490.941V12.75H493.699V14H486.621V12.75H489.496V6.80469H486.621V5.54688ZM489.308 3.32812C489.308 3.08854 489.379 2.88802 489.519 2.72656C489.665 2.5599 489.884 2.47656 490.176 2.47656C490.462 2.47656 490.678 2.5599 490.824 2.72656C490.97 2.88802 491.043 3.08854 491.043 3.32812C491.043 3.5625 490.97 3.75781 490.824 3.91406C490.678 4.07031 490.462 4.14844 490.176 4.14844C489.884 4.14844 489.665 4.07031 489.519 3.91406C489.379 3.75781 489.308 3.5625 489.308 3.32812Z" fill="black"/>
<path d="M502.518 14C502.461 13.8906 502.414 13.7552 502.378 13.5938C502.347 13.4271 502.323 13.2552 502.307 13.0781C502.162 13.224 501.998 13.362 501.815 13.4922C501.638 13.6224 501.44 13.737 501.222 13.8359C501.008 13.9349 500.779 14.013 500.534 14.0703C500.289 14.1276 500.029 14.1562 499.753 14.1562C499.305 14.1562 498.899 14.0911 498.534 13.9609C498.175 13.8307 497.867 13.6562 497.612 13.4375C497.362 13.2135 497.167 12.9505 497.026 12.6484C496.891 12.3411 496.823 12.0104 496.823 11.6562C496.823 11.1927 496.914 10.7865 497.097 10.4375C497.284 10.0885 497.547 9.79948 497.886 9.57031C498.224 9.33594 498.63 9.16146 499.104 9.04688C499.584 8.93229 500.117 8.875 500.706 8.875H502.284V8.21094C502.284 7.95573 502.237 7.72656 502.143 7.52344C502.05 7.32031 501.917 7.14844 501.745 7.00781C501.573 6.86198 501.362 6.75 501.112 6.67188C500.867 6.59375 500.591 6.55469 500.284 6.55469C499.998 6.55469 499.74 6.59115 499.511 6.66406C499.287 6.73698 499.097 6.83333 498.94 6.95312C498.784 7.07292 498.662 7.21615 498.573 7.38281C498.49 7.54427 498.448 7.71354 498.448 7.89062H496.995C497 7.58333 497.078 7.28125 497.229 6.98438C497.386 6.6875 497.607 6.42188 497.893 6.1875C498.185 5.94792 498.537 5.75521 498.948 5.60938C499.365 5.46354 499.836 5.39062 500.362 5.39062C500.841 5.39062 501.287 5.45052 501.698 5.57031C502.11 5.6849 502.464 5.86198 502.761 6.10156C503.063 6.33594 503.3 6.63021 503.472 6.98438C503.643 7.33854 503.729 7.7526 503.729 8.22656V12.1562C503.729 12.4375 503.755 12.737 503.807 13.0547C503.86 13.3672 503.932 13.6406 504.026 13.875V14H502.518ZM499.964 12.8984C500.245 12.8984 500.508 12.862 500.753 12.7891C500.998 12.7161 501.219 12.6198 501.417 12.5C501.62 12.3802 501.794 12.2448 501.94 12.0938C502.086 11.9375 502.201 11.776 502.284 11.6094V9.89844H500.94C500.097 9.89844 499.44 10.0234 498.972 10.2734C498.503 10.5234 498.268 10.9167 498.268 11.4531C498.268 11.6615 498.302 11.8542 498.37 12.0312C498.443 12.2083 498.55 12.362 498.69 12.4922C498.831 12.6172 499.008 12.7161 499.222 12.7891C499.435 12.862 499.682 12.8984 499.964 12.8984Z" fill="black"/>
<path d="M507.76 2H512.08V12.75H514.838V14H507.76V12.75H510.635V3.25781H507.76V2Z" fill="black"/>
<path d="M534.625 11.125C534.625 10.776 534.544 10.4818 534.383 10.2422C534.227 10.0026 534.023 9.80208 533.773 9.64062C533.523 9.47396 533.247 9.33594 532.945 9.22656C532.648 9.11719 532.362 9.01823 532.086 8.92969C531.685 8.79948 531.276 8.64323 530.859 8.46094C530.448 8.27865 530.07 8.05469 529.727 7.78906C529.388 7.52344 529.109 7.21094 528.891 6.85156C528.677 6.48698 528.57 6.0599 528.57 5.57031C528.57 5.08073 528.677 4.64323 528.891 4.25781C529.109 3.8724 529.393 3.54688 529.742 3.28125C530.091 3.01562 530.487 2.8151 530.93 2.67969C531.372 2.53906 531.818 2.46875 532.266 2.46875C532.76 2.46875 533.237 2.55208 533.695 2.71875C534.154 2.88021 534.56 3.10938 534.914 3.40625C535.268 3.70312 535.552 4.0625 535.766 4.48438C535.979 4.90625 536.091 5.3776 536.102 5.89844H534.617C534.576 5.57031 534.495 5.27344 534.375 5.00781C534.255 4.73698 534.096 4.50521 533.898 4.3125C533.701 4.11979 533.464 3.97135 533.188 3.86719C532.917 3.75781 532.609 3.70312 532.266 3.70312C531.99 3.70312 531.719 3.74219 531.453 3.82031C531.193 3.89844 530.958 4.01562 530.75 4.17188C530.547 4.32812 530.383 4.52083 530.258 4.75C530.138 4.97917 530.078 5.24479 530.078 5.54688C530.083 5.875 530.167 6.15365 530.328 6.38281C530.49 6.60677 530.693 6.79688 530.938 6.95312C531.188 7.10938 531.456 7.23958 531.742 7.34375C532.034 7.44792 532.307 7.53906 532.562 7.61719C532.844 7.70573 533.128 7.80729 533.414 7.92188C533.701 8.03125 533.977 8.15885 534.242 8.30469C534.508 8.45052 534.755 8.61458 534.984 8.79688C535.214 8.97917 535.414 9.1875 535.586 9.42188C535.758 9.65104 535.891 9.90625 535.984 10.1875C536.083 10.4635 536.133 10.7708 536.133 11.1094C536.133 11.6198 536.018 12.0651 535.789 12.4453C535.565 12.8255 535.273 13.1432 534.914 13.3984C534.555 13.6484 534.148 13.8385 533.695 13.9688C533.242 14.0938 532.789 14.1562 532.336 14.1562C531.831 14.1562 531.336 14.0781 530.852 13.9219C530.367 13.7656 529.932 13.5417 529.547 13.25C529.167 12.9531 528.857 12.5938 528.617 12.1719C528.378 11.7448 528.25 11.2604 528.234 10.7188H529.711C529.758 11.0729 529.854 11.388 530 11.6641C530.146 11.9349 530.333 12.1667 530.562 12.3594C530.792 12.5469 531.055 12.6901 531.352 12.7891C531.654 12.8828 531.982 12.9297 532.336 12.9297C532.617 12.9297 532.893 12.8958 533.164 12.8281C533.44 12.7552 533.685 12.6458 533.898 12.5C534.112 12.349 534.286 12.1615 534.422 11.9375C534.557 11.7083 534.625 11.4375 534.625 11.125Z" fill="black"/>
<path d="M545.569 8.97656H540.835V14H539.374V2.625H546.358V3.85938H540.835V7.75H545.569V8.97656Z" fill="black"/>
<path d="M557.482 3.85938H553.967V14H552.561V3.85938H549.045V2.625H557.482V3.85938Z" fill="black"/>
<path d="M368.772 15.5625H558.053V16.3438H368.772V15.5625Z" fill="black"/>
<path d="M115.21 15.3061C114.785 14.8474 109.215 8.83343 108.783 8.36672C106.93 6.3664 107.02 3.25621 109.001 1.36865C111.071 -0.603711 114.355 -0.385701 116.236 1.64535L116.353 1.77166L116.47 1.64535C118.351 -0.386081 121.635 -0.603366 123.704 1.36868C125.671 3.24235 125.789 6.35188 123.923 8.36675C123.756 8.54702 121.846 10.6097 120.15 12.4403L117.504 15.2973C116.89 15.961 115.833 15.9682 115.21 15.3061Z" fill="#D138B0"/>
<path d="M116.004 14.6767L116.004 14.6767C115.58 14.2223 110.03 8.26657 109.599 7.8044C107.758 5.82921 107.843 2.76147 109.8 0.890625C109.517 1.06497 109.248 1.27064 108.996 1.50879C107.022 3.3781 106.932 6.45819 108.778 8.43917C109.209 8.90137 114.759 14.8572 115.183 15.3115L115.183 15.3114C115.804 15.9671 116.857 15.9599 117.469 15.3027L117.688 15.068C117.119 15.2767 116.45 15.1478 116.004 14.6767Z" fill="#BB269A"/>
<path d="M115.953 14.7318C116.168 14.9673 116.537 14.9689 116.754 14.7317C117.044 14.4141 122.837 8.07464 123.092 7.79532C124.561 6.18723 124.473 3.70214 122.92 2.2023C121.284 0.622542 118.685 0.813888 117.205 2.43426L116.945 2.71874C116.627 3.06708 116.08 3.06701 115.762 2.7187C115.642 2.62685 114.649 1.17856 112.631 1.11501C109.086 1.00209 107.278 5.23842 109.615 7.79535L112.066 10.478C113.784 12.3587 115.798 14.5627 115.951 14.7304C115.952 14.7308 115.952 14.7312 115.952 14.7316L115.953 14.7318Z" fill="#FF74E0"/>
<path d="M113.818 9.91613L111.374 7.23146C109.594 5.27572 110.228 2.33828 112.203 1.11279C108.947 1.32945 107.375 5.33385 109.611 7.79023L112.055 10.4749C113.769 12.3569 115.776 14.5625 115.929 14.7303C115.93 14.7307 115.93 14.7311 115.93 14.7315L115.93 14.7316C116.145 14.9673 116.513 14.9689 116.729 14.7315C116.787 14.6684 117.061 14.367 117.466 13.9227C116.869 13.2667 115.242 11.4798 113.818 9.91613Z" fill="#F253CF"/>
</svg>
