<svg width="233" height="76" viewBox="0 0 233 76" fill="none" xmlns="http://www.w3.org/2000/svg">
<path d="M198.398 26.4959L199.172 18.3289H223.05H223.55V17.8289V2.00974V1.50974H223.05H182.299H181.834L181.801 1.97363L179.113 39.0934L179.089 39.4304L179.392 39.5788L186.477 43.0407L186.657 43.1288L186.849 43.0678C190.328 41.9583 193.55 41.4086 196.518 41.4086C200.444 41.4086 203.278 42.1555 205.105 43.5645C206.925 44.9669 207.842 46.9135 207.842 49.4673C207.842 52.2632 206.929 54.3149 205.153 55.7079C203.351 57.0889 200.724 57.8145 197.202 57.8145C194.679 57.8145 191.641 57.4055 188.081 56.5774C184.557 55.7502 181.396 54.7021 178.596 53.4354L177.89 53.1159V53.8909V69.4697V69.7843L178.174 69.9205C183.541 72.496 190.43 73.7682 198.814 73.7682C208.613 73.7682 216.019 71.6577 220.936 67.3458C225.89 63.0304 228.338 56.8521 228.338 48.8903C228.338 44.3326 227.395 40.2901 225.493 36.777C225.494 36.7777 225.494 36.7784 225.495 36.7791L198.398 26.4959ZM198.398 26.4959C200.598 26.0932 202.218 25.8713 203.238 25.84C204.319 25.7757 205.32 25.7434 206.241 25.7434C210.425 25.7434 214.208 26.708 217.58 28.6454L198.398 26.4959ZM43.9232 72.8066H44.4232V72.3066V2.00974V1.50974H43.9232H26.5285H26.3528L26.2157 1.61963L1.68724 21.2854L1.29125 21.6029L1.61463 21.9941L11.6313 34.1109L11.9471 34.493L12.3318 34.1805L20.4429 27.5932L20.4502 27.5872L20.4573 27.581C21.8214 26.3851 23.021 25.2225 24.0544 24.0931C23.9046 27.466 23.8297 31.1319 23.8297 35.0906V72.3066V72.8066H24.3297H43.9232ZM102.557 72.8066H103.057V72.3066V2.00974V1.50974H102.557H85.1624H84.9867L84.8496 1.61963L60.3211 21.2854L59.9251 21.6029L60.2485 21.9941L70.2651 34.1109L70.581 34.493L70.9657 34.1805L79.0767 27.5932L79.0841 27.5872L79.0911 27.581C80.4553 26.3851 81.6549 25.2225 82.6883 24.0931C82.5385 27.466 82.4636 31.1319 82.4636 35.0906V72.3066V72.8066H82.9636H102.557ZM163.914 28.8314L163.915 28.8294C166.701 25.5923 168.092 21.7244 168.092 17.2519C168.092 12.0212 165.909 7.89273 161.572 4.91523C157.257 1.95265 151.346 0.5 143.894 0.5C138.745 0.5 134.155 1.04849 130.129 2.15261L130.128 2.15289C126.129 3.25889 122.219 5.11102 118.401 7.70251L118 7.97413L118.259 8.38314L126.272 21.077L126.536 21.4953L126.957 21.2356C131.785 18.2586 136.418 16.7903 140.865 16.7903C143.253 16.7903 145.088 17.2301 146.414 18.0604L146.418 18.063C147.721 18.8611 148.378 20.0694 148.378 21.7717C148.378 22.919 148.094 23.9005 147.542 24.7352C146.987 25.5729 146.142 26.2916 144.976 26.8787C142.63 28.06 139.047 28.6764 134.171 28.6764H129.675H129.175V29.1764V43.457V43.957H129.675H134.073C137.668 43.957 140.556 44.2284 142.75 44.7603L142.757 44.7618C144.959 45.2645 146.479 46.0188 147.392 46.9757L147.398 46.9812C148.288 47.8854 148.769 49.2165 148.769 51.054C148.769 53.3993 147.867 55.0705 146.078 56.1561C144.276 57.237 141.313 57.8145 137.102 57.8145C134.411 57.8145 131.453 57.452 128.225 56.7216C125.041 55.9617 121.902 54.8056 118.808 53.2518L118.084 52.8879V53.6986V69.4697V69.8151L118.407 69.9373C122.242 71.3888 125.808 72.3925 129.104 72.944L129.105 72.9441C132.426 73.4941 136.02 73.7682 139.887 73.7682C149.295 73.7682 156.708 71.8822 162.068 68.0494C167.478 64.2041 170.193 58.9068 170.193 52.208C170.193 47.2882 168.663 43.3549 165.563 40.4704C162.757 37.8606 158.712 36.1527 153.479 35.3043C157.922 33.8607 161.411 31.7096 163.914 28.8314Z" stroke="black" stroke-opacity="0.61"/>
<path d="M49.0844 74.8704H29.4909V36.9899C29.4909 32.3894 29.5886 28.1805 29.784 24.363C28.5788 25.8313 27.0804 27.3648 25.2888 28.9635L17.1778 35.6685L7.16113 23.3353L31.6896 3.31829H49.0844V74.8704Z" fill="black" fill-opacity="0.87"/>
<path d="M107.718 74.8704H88.1248V36.9899C88.1248 32.3894 88.2225 28.1805 88.4179 24.363C87.2127 25.8313 85.7142 27.3648 83.9227 28.9635L75.8116 35.6685L65.795 23.3353L90.3235 3.31829H107.718V74.8704Z" fill="black" fill-opacity="0.87"/>
<path d="M172.753 18.8327C172.753 23.27 171.401 27.0874 168.697 30.2849C165.994 33.4498 162.085 35.75 156.971 37.1857V37.4793C168.893 38.9802 174.854 44.6247 174.854 54.413C174.854 61.069 172.216 66.3057 166.938 70.1231C161.694 73.9405 154.397 75.8493 145.048 75.8493C141.205 75.8493 137.638 75.5719 134.348 75.0173C131.09 74.4626 127.556 73.4511 123.745 71.9829V55.9302C126.872 57.5289 130.048 58.7198 133.273 59.5029C136.53 60.2533 139.527 60.6285 142.263 60.6285C146.498 60.6285 149.576 60.0412 151.498 58.8666C153.453 57.6594 154.43 55.7833 154.43 53.2384C154.43 51.2807 153.925 49.7799 152.915 48.7358C151.905 47.6591 150.277 46.8597 148.029 46.3377C145.781 45.783 142.85 45.5057 139.234 45.5057H134.836V30.9701H139.332C149.137 30.9701 154.039 28.4578 154.039 23.4332C154.039 21.5408 153.306 20.1378 151.84 19.2242C150.407 18.3106 148.469 17.8539 146.026 17.8539C141.465 17.8539 136.742 19.3873 131.856 22.4543L123.843 9.53383C127.621 6.92363 131.481 5.06387 135.423 3.95453C139.397 2.84519 143.941 2.29053 149.055 2.29053C156.45 2.29053 162.248 3.75877 166.45 6.69524C170.652 9.63172 172.753 13.6775 172.753 18.8327Z" fill="black" fill-opacity="0.87"/>
<path d="M211.402 27.9847C215.507 27.9847 219.204 28.9472 222.494 30.8722C225.817 32.7646 228.39 35.4564 230.214 38.9475C232.071 42.4387 232.999 46.4682 232.999 51.036C232.999 59.0298 230.589 65.1637 225.768 69.438C220.979 73.7122 213.715 75.8493 203.976 75.8493C195.637 75.8493 188.828 74.5605 183.551 71.9829V56.1259C186.385 57.431 189.578 58.5077 193.128 59.356C196.711 60.2044 199.79 60.6285 202.363 60.6285C205.946 60.6285 208.699 59.8781 210.621 58.3772C212.543 56.8437 213.504 54.5924 213.504 51.6233C213.504 48.8826 212.526 46.7455 210.572 45.212C208.617 43.6785 205.653 42.9118 201.679 42.9118C198.65 42.9118 195.376 43.4828 191.858 44.6247L184.773 41.101L187.46 3.31829H228.211V19.42H203.878L202.998 28.8656C205.539 28.3762 207.347 28.1152 208.422 28.0826C209.497 28.0173 210.49 27.9847 211.402 27.9847Z" fill="black" fill-opacity="0.87"/>
</svg>
