<svg width="360" height="266" viewBox="0 0 360 266" fill="none" xmlns="http://www.w3.org/2000/svg">
<path opacity="0.1" d="M24.4963 104.258H55.6979V146.902H26.7777C26.7039 147.342 26.6301 147.78 26.5471 148.221H55.6979V182.606C55.6487 182.606 55.5995 182.569 55.5534 182.55C54.7335 182.224 53.9136 181.877 53.0937 181.511C52.9184 181.431 52.7462 181.348 52.5679 181.271C51.748 180.883 50.9281 180.472 50.1082 180.038C49.8222 179.887 49.5363 179.73 49.2565 179.569C44.7047 177.023 40.5676 173.794 36.9886 169.994C36.881 169.893 36.7826 169.782 36.6811 169.686C36.183 169.144 35.6942 168.595 35.2207 168.034C35.0423 167.827 34.8702 167.618 34.6949 167.417C34.1353 166.733 33.5942 166.024 33.0715 165.312C32.9915 165.204 32.9178 165.099 32.8409 165.003C30.6997 162.033 28.924 158.814 27.5525 155.416C27.5094 155.314 27.4695 155.203 27.4295 155.108C27.0052 154.029 26.6209 152.935 26.2888 151.819C26.1474 151.353 26.009 150.894 25.8922 150.41C25.8491 150.271 25.8153 150.129 25.7784 149.99C24.0504 143.162 23.8506 136.066 23.8506 129.003C23.8506 128.181 23.8506 127.359 23.8506 126.537C23.8752 123.654 23.909 120.773 23.9521 117.896C23.9684 117.156 23.9838 116.413 23.9982 115.667C24.0412 113.779 24.1027 111.886 24.1826 109.989C24.2011 109.465 24.2257 108.938 24.2534 108.417C24.2657 108.115 24.281 107.813 24.2995 107.51C24.3548 106.419 24.4204 105.335 24.4963 104.258Z" fill="#6C63FF"/>
<path opacity="0.1" d="M55.6977 56.7778H38.5811C41.3647 52.4142 44.4048 48.2205 47.6851 44.2188C50.2309 41.0867 52.912 38.0348 55.6977 35.0939V56.7778Z" fill="#6C63FF"/>
<path opacity="0.1" d="M55.698 58.0911V102.939H24.5947C24.5947 102.809 24.6132 102.677 24.6255 102.547C24.6531 102.193 24.6808 101.841 24.7116 101.487C24.7423 101.074 24.7823 100.661 24.8223 100.254C24.8622 99.8467 24.9022 99.3535 24.9514 98.9065C25.0006 98.4595 25.0406 98.0063 25.0897 97.5593C25.1389 97.1123 25.1881 96.6653 25.2435 96.2214C25.2988 95.7775 25.348 95.3274 25.4095 94.8835C25.4556 94.5167 25.5017 94.1467 25.554 93.7768C25.6247 93.2558 25.6985 92.7348 25.7754 92.2169C25.7754 92.1368 25.8 92.0597 25.8123 91.9827C26.3742 88.1918 27.1378 84.4337 28.0998 80.7245C29.1101 76.8342 30.3997 73.0222 31.9585 69.3184C33.615 65.4377 35.5552 61.685 37.7635 58.0911H55.698Z" fill="#6C63FF"/>
<path opacity="0.1" d="M63.1514 104.258V146.902H129.798V104.258H63.1514ZM63.1514 148.221V184.844C63.5326 184.921 63.9077 184.998 64.2859 185.063C64.7932 185.161 65.3036 185.251 65.8232 185.328L66.1307 185.371C66.3336 185.405 66.5396 185.433 66.7456 185.457C67.2591 185.531 67.7726 185.587 68.283 185.636C68.5228 185.661 68.7718 185.679 69.0147 185.701L69.6081 185.744C69.931 185.769 70.2508 185.787 70.5705 185.8C70.7673 185.8 70.9641 185.815 71.1639 185.821C71.3638 185.827 71.4714 185.821 71.6313 185.821H72.2124C72.4768 185.821 72.7412 185.821 73.0026 185.821H73.3408C73.6052 185.821 73.8696 185.821 74.131 185.796H74.1463C74.3308 185.796 74.5122 185.796 74.6967 185.775C74.7489 185.778 74.8013 185.778 74.8535 185.775C75.0072 185.775 75.161 185.775 75.3086 185.756C75.3434 185.754 75.3783 185.754 75.4131 185.756C75.7544 185.735 76.0987 185.707 76.4462 185.676C76.7936 185.645 77.1226 185.608 77.47 185.571L78.168 185.485C81.02 185.085 83.8403 184.483 86.6079 183.685C92.828 181.946 98.9066 179.514 105.124 177.735C113.155 175.438 122.034 174.307 129.795 177.103V148.221H63.1514ZM129.798 56.7778V0.00617302C122.502 -0.0743085 115.226 0.780367 108.146 2.54943C91.2691 6.80052 76.1141 16.021 63.1514 27.797V56.7748H66.5058V58.0911H63.1514V102.939H129.798V58.0911H80.228V56.7717L129.798 56.7778ZM215.421 37.6001C211.245 37.4522 207.095 36.1297 203.337 34.0797C196.161 30.1677 190.424 24.1193 184.016 19.0205C170.703 8.3943 154.192 1.97912 137.254 0.388432V56.7778H232.387L232.623 56.5281L215.421 37.6001ZM224.088 36.0588L233.278 46.1732V33.3984C230.185 33.7899 227.492 34.6993 224.088 36.0464V36.0588ZM233.278 193.938V148.221H213.68C213.631 148.027 213.576 147.83 213.514 147.632C213.573 147.83 213.625 148.027 213.677 148.221H137.254V181.28C137.979 181.82 138.696 182.39 139.406 182.963C140.173 183.592 140.934 184.228 141.69 184.872L142.453 185.504C142.819 185.812 143.191 186.12 143.56 186.413C144.3 187.011 145.045 187.603 145.795 188.189C146.17 188.485 146.547 188.775 146.927 189.061C152.932 193.663 159.266 197.816 165.879 201.488C167.361 202.317 168.858 203.115 170.365 203.895C171.367 204.413 172.377 204.921 173.393 205.418C174.918 206.164 176.456 206.883 178.005 207.576C192.292 214.006 207.399 218.417 222.895 220.684C226.335 221.191 229.79 221.592 233.26 221.886V193.932H233.567L233.278 193.938ZM137.254 58.0911V102.939H233.278V58.0911H137.254ZM137.254 104.252V146.902H233.278V104.258L137.254 104.252ZM240.731 33.3367V47.6098L252.458 34.7024C248.572 34.0591 244.663 33.6039 240.731 33.3367ZM240.731 104.258V146.902H334.124V104.258H240.731ZM333.795 197.32L334.124 148.221H240.731V222.382C246.747 222.633 252.772 222.56 258.779 222.164H258.884C261.754 221.979 264.61 221.715 267.453 221.374H267.518C282.69 219.604 297.524 215.631 311.556 209.58L333.795 197.32ZM352.141 111.262C351.787 110.44 351.423 109.618 351.05 108.796C350.355 107.255 349.623 105.756 348.867 104.261H341.58V146.902H360C359.985 134.823 356.935 122.493 352.141 111.262ZM341.58 148.221V190.454C346.767 185.47 351.154 179.764 354.309 173.241C358.106 165.383 359.843 156.88 359.988 148.218L341.58 148.221ZM341.58 91.8316V102.929H348.184C346.182 99.1145 343.978 95.4099 341.58 91.8316ZM278.242 41.7063C277.756 41.5183 277.267 41.3302 276.779 41.1515C271.624 39.2414 266.356 37.6538 261.006 36.3979L243.056 56.1459L242.705 56.5251L242.936 56.7748H306.821C297.923 50.6358 288.33 45.5776 278.242 41.7063ZM308.697 58.0911H242.041L240.731 59.2903V102.939H252.215H334.124V81.7912C326.718 72.811 318.169 64.843 308.697 58.0911Z" fill="#6C63FF"/>
<path opacity="0.1" d="M55.698 80.7153V102.939H24.5947C24.5947 102.809 24.6132 102.677 24.6255 102.547C24.6531 102.193 24.6808 101.841 24.7116 101.487C24.7423 101.074 24.7823 100.661 24.8223 100.254C24.8622 99.8467 24.9022 99.3535 24.9514 98.9065C25.0006 98.4595 25.0406 98.0063 25.0897 97.5593C25.1389 97.1123 25.1881 96.6653 25.2435 96.2214C25.2988 95.7775 25.348 95.3274 25.4095 94.8835C25.4556 94.5167 25.5017 94.1467 25.554 93.7768C25.6247 93.2558 25.6985 92.7349 25.7754 92.217C25.7754 92.1368 25.8 92.0597 25.8123 91.9827C26.3742 88.1918 27.1378 84.4337 28.0998 80.7245L55.698 80.7153Z" fill="#6C63FF"/>
<path opacity="0.1" d="M24.4963 104.258H55.6979V146.902H26.7777C26.7039 147.342 26.6301 147.78 26.5471 148.221H55.6979V182.606C55.6487 182.606 55.5995 182.569 55.5534 182.55C54.7335 182.224 53.9136 181.877 53.0937 181.511C52.9184 181.431 52.7462 181.348 52.5679 181.271C51.748 180.883 50.9281 180.472 50.1082 180.038C49.8222 179.887 49.5363 179.73 49.2565 179.569C44.7047 177.023 40.5676 173.794 36.9886 169.994C36.881 169.893 36.7826 169.782 36.6811 169.686C36.183 169.144 35.6942 168.595 35.2207 168.034C35.0423 167.827 34.8702 167.618 34.6949 167.417C34.1353 166.733 33.5942 166.024 33.0715 165.312C32.9915 165.204 32.9178 165.099 32.8409 165.003C30.6997 162.033 28.924 158.814 27.5525 155.416C27.5094 155.314 27.4695 155.203 27.4295 155.108C27.0052 154.029 26.6209 152.935 26.2888 151.819C26.1474 151.353 26.009 150.894 25.8922 150.41C25.8491 150.271 25.8153 150.129 25.7784 149.99C24.0504 143.162 23.8506 136.066 23.8506 129.003C23.8506 128.181 23.8506 127.359 23.8506 126.537C23.8752 123.654 23.909 120.773 23.9521 117.896C23.9684 117.156 23.9838 116.413 23.9982 115.667C24.0412 113.779 24.1027 111.886 24.1826 109.989C24.2011 109.465 24.2257 108.938 24.2534 108.417C24.2657 108.115 24.281 107.813 24.2995 107.51C24.3548 106.419 24.4204 105.335 24.4963 104.258Z" fill="#6C63FF"/>
<path opacity="0.1" d="M86.6112 64.5155V102.939H63.1484V64.5155H66.4937V51.5063H80.2251V64.5155H86.6112Z" fill="#6C63FF"/>
<path opacity="0.1" d="M86.6081 104.255H63.1484V146.898H86.6081V104.255Z" fill="#6C63FF"/>
<path opacity="0.1" d="M63.1514 148.221H86.611V183.672C83.8437 184.471 81.0233 185.072 78.1711 185.47C77.9374 185.504 77.7068 185.531 77.4731 185.556C77.1288 185.596 76.7875 185.633 76.4462 185.664L75.4162 185.747H75.3116L74.8566 185.772H74.6998C74.5153 185.772 74.3339 185.793 74.1494 185.796H74.134C73.8696 185.796 73.6083 185.815 73.3439 185.821H73.0056C72.7443 185.821 72.483 185.821 72.2155 185.821H71.6374H71.167C70.9672 185.821 70.7704 185.821 70.5705 185.796C70.2549 185.784 69.9351 185.766 69.6112 185.741L69.0178 185.698C68.7718 185.679 68.5259 185.655 68.283 185.63C67.7664 185.585 67.254 185.526 66.7456 185.454L66.1307 185.368L65.8232 185.325C65.3098 185.248 64.7994 185.161 64.2859 185.063C63.9047 184.995 63.5296 184.918 63.1514 184.838V148.221Z" fill="#6C63FF"/>
<path opacity="0.1" d="M233.274 59.9777H213.929V102.936H233.274V59.9777Z" fill="#6C63FF"/>
<path opacity="0.1" d="M233.278 104.255V146.902H137.253V128.507H188.4V139.358H213.929V104.255H233.278Z" fill="#6C63FF"/>
<path opacity="0.1" d="M233.582 193.947C233.48 193.947 233.379 193.947 233.274 193.929V221.905C229.808 221.619 226.354 221.219 222.913 220.705C207.411 218.44 192.298 214.03 178.004 207.604C173.878 205.738 169.836 203.704 165.878 201.503C159.268 197.83 152.935 193.677 146.929 189.077C145.416 187.917 143.926 186.733 142.458 185.522C141.441 184.677 140.432 183.814 139.405 182.979C138.698 182.402 137.982 181.832 137.253 181.29V148.221H213.677C213.621 148.024 213.572 147.829 213.517 147.632C213.575 147.829 213.63 148.024 213.68 148.221H233.278V193.926C233.379 193.929 233.48 193.938 233.582 193.947Z" fill="#6C63FF"/>
<path opacity="0.1" d="M283.733 56.7778H271.127V52.8504H276.775V41.1514C277.265 41.3323 277.753 41.5172 278.239 41.7063V52.8504H283.73L283.733 56.7778Z" fill="#6C63FF"/>
<path opacity="0.1" d="M314.107 102.939H252.214C252.22 102.94 252.227 102.94 252.233 102.939H252.205H240.73V59.9808H243.983V91.733H258.846V72.9283H271.13V58.0911H283.736V72.9375H296.013V91.7422H314.11L314.107 102.939Z" fill="#6C63FF"/>
<path opacity="0.1" d="M240.73 104.258V146.902H314.11V104.258H240.73ZM334.019 197.095L334.123 163.339H314.11V148.233H240.73V222.382C246.746 222.633 252.771 222.56 258.779 222.164H258.883C261.753 221.979 264.609 221.715 267.452 221.374H267.517C282.689 219.604 297.523 215.631 311.555 209.58" fill="#6C63FF"/>
<path opacity="0.1" d="M342.871 148.221H359.988C359.84 156.88 358.106 165.386 354.309 173.241C351.155 179.767 346.767 185.473 341.58 190.458V163.33H342.871V148.221Z" fill="#6C63FF"/>
<path opacity="0.1" d="M360 146.902H342.871V111.262H352.141C356.935 122.492 359.985 134.823 360 146.902Z" fill="#6C63FF"/>
<path opacity="0.1" d="M233.278 71.9202H222.913V85.3887H233.278V71.9202Z" fill="#6C63FF"/>
<path opacity="0.1" d="M233.278 99.8375H222.913V102.939H233.278V99.8375Z" fill="#6C63FF"/>
<path opacity="0.1" d="M233.278 104.255H222.913V113.303H233.278V104.255Z" fill="#6C63FF"/>
<path opacity="0.1" d="M233.278 127.755H222.913V141.223H233.278V127.755Z" fill="#6C63FF"/>
<path opacity="0.1" d="M233.278 155.672H222.913V169.14H233.278V155.672Z" fill="#6C63FF"/>
<path opacity="0.1" d="M233.278 193.926C233.379 193.926 233.481 193.926 233.585 193.947C233.484 193.947 233.382 193.947 233.278 193.929V197.058H222.913V183.589H233.278V193.926Z" fill="#6C63FF"/>
<path opacity="0.1" d="M233.278 211.503V221.905C229.81 221.619 226.355 221.219 222.913 220.705V211.503H233.278Z" fill="#6C63FF"/>
<path opacity="0.1" d="M181.672 145.912H137.253V146.902H181.672V145.912Z" fill="#6C63FF"/>
<path opacity="0.1" d="M181.672 148.218H137.253V152.01H181.672V148.218Z" fill="#6C63FF"/>
<path opacity="0.1" d="M181.672 164.439H137.253V170.537H181.672V164.439Z" fill="#6C63FF"/>
<path opacity="0.1" d="M181.673 182.967V189.064H146.929C145.416 187.909 143.926 186.723 142.458 185.507C141.438 184.665 140.429 183.802 139.405 182.967H181.673Z" fill="#6C63FF"/>
<path opacity="0.1" d="M181.673 201.491V207.604H178.005C173.879 205.738 169.837 203.704 165.879 201.503L181.673 201.491Z" fill="#6C63FF"/>
<path opacity="0.1" d="M267.524 108.389H258.779V117.156H267.524V108.389Z" fill="#6C63FF"/>
<path opacity="0.1" d="M78.1926 67.5397H69.4482V76.307H78.1926V67.5397Z" fill="#6C63FF"/>
<path opacity="0.1" d="M78.1926 87.9042H69.4482V96.6715H78.1926V87.9042Z" fill="#6C63FF"/>
<path opacity="0.1" d="M78.1926 108.269H69.4482V117.036H78.1926V108.269Z" fill="#6C63FF"/>
<path opacity="0.1" d="M78.1926 128.63H69.4482V137.398H78.1926V128.63Z" fill="#6C63FF"/>
<path opacity="0.1" d="M78.1926 148.995H69.4482V157.762H78.1926V148.995Z" fill="#6C63FF"/>
<path opacity="0.1" d="M78.1926 169.359H69.4482V178.127H78.1926V169.359Z" fill="#6C63FF"/>
<path opacity="0.1" d="M300.905 108.389H292.161V117.156H300.905V108.389Z" fill="#6C63FF"/>
<path opacity="0.1" d="M267.524 130.014H258.779V138.782H267.524V130.014Z" fill="#6C63FF"/>
<path opacity="0.1" d="M300.905 130.014H292.161V138.782H300.905V130.014Z" fill="#6C63FF"/>
<path opacity="0.1" d="M267.524 151.637H258.779V160.404H267.524V151.637Z" fill="#6C63FF"/>
<path opacity="0.1" d="M300.905 151.637H292.161V160.404H300.905V151.637Z" fill="#6C63FF"/>
<path opacity="0.1" d="M267.524 173.262H258.779V182.029H267.524V173.262Z" fill="#6C63FF"/>
<path opacity="0.1" d="M300.905 173.262H292.161V182.029H300.905V173.262Z" fill="#6C63FF"/>
<path opacity="0.1" d="M267.524 194.887H258.779V203.655H267.524V194.887Z" fill="#6C63FF"/>
<path opacity="0.1" d="M300.905 194.887H292.161V203.655H300.905V194.887Z" fill="#6C63FF"/>
<path opacity="0.1" d="M258.779 222.163V216.51H267.521V221.359L258.779 222.163Z" fill="#6C63FF"/>
<path opacity="0.1" d="M25.7754 91.9734V96.989H55.6979V91.9734H25.7754ZM28.7547 96.6746H26.295V92.2909H28.7547V96.6746ZM31.7341 96.6746H29.2744V92.2909H31.7341V96.6746ZM34.7073 96.6746H32.2475V92.2909H34.7073V96.6746ZM37.6866 96.6746H35.2269V92.2909H37.6866V96.6746ZM40.6629 96.6746H38.2031V92.2909H40.6629V96.6746ZM43.6422 96.6746H41.1825V92.2909H43.6422V96.6746ZM46.6216 96.6746H44.1618V92.2909H46.6216V96.6746ZM49.5978 96.6746H47.1381V92.2909H49.5978V96.6746ZM52.5741 96.6746H50.1144V92.2909H52.5741V96.6746ZM55.5534 96.6746H53.0937V92.2909H55.5534V96.6746Z" fill="#6C63FF"/>
<path opacity="0.1" d="M25.7754 106.573V111.589H55.6979V106.573H25.7754ZM28.7547 111.274H26.295V106.891H28.7547V111.274ZM31.7341 111.274H29.2744V106.891H31.7341V111.274ZM34.7073 111.274H32.2475V106.891H34.7073V111.274ZM37.6866 111.274H35.2269V106.891H37.6866V111.274ZM40.6629 111.274H38.2031V106.891H40.6629V111.274ZM43.6422 111.274H41.1825V106.891H43.6422V111.274ZM46.6216 111.274H44.1618V106.891H46.6216V111.274ZM49.5978 111.274H47.1381V106.891H49.5978V111.274ZM52.5741 111.274H50.1144V106.891H52.5741V111.274ZM55.5534 111.274H53.0937V106.891H55.5534V111.274Z" fill="#6C63FF"/>
<path opacity="0.1" d="M25.7754 121.176V126.189H55.6979V121.176H25.7754ZM28.7547 125.871H26.295V121.487H28.7547V125.871ZM31.7341 125.871H29.2744V121.487H31.7341V125.871ZM34.7073 125.871H32.2475V121.487H34.7073V125.871ZM37.6866 125.871H35.2269V121.487H37.6866V125.871ZM40.6629 125.871H38.2031V121.487H40.6629V125.871ZM43.6422 125.871H41.1825V121.487H43.6422V125.871ZM46.6216 125.871H44.1618V121.487H46.6216V125.871ZM49.5978 125.871H47.1381V121.487H49.5978V125.871ZM52.5741 125.871H50.1144V121.487H52.5741V125.871ZM55.5534 125.871H53.0937V121.487H55.5534V125.871Z" fill="#6C63FF"/>
<path opacity="0.1" d="M25.7754 135.776V140.789H55.6979V135.776H25.7754ZM28.7547 140.474H26.295V136.084H28.7547V140.474ZM31.7341 140.474H29.2744V136.084H31.7341V140.474ZM34.7073 140.474H32.2475V136.084H34.7073V140.474ZM37.6866 140.474H35.2269V136.084H37.6866V140.474ZM40.6629 140.474H38.2031V136.084H40.6629V140.474ZM43.6422 140.474H41.1825V136.084H43.6422V140.474ZM46.6216 140.474H44.1618V136.084H46.6216V140.474ZM49.5978 140.474H47.1381V136.084H49.5978V140.474ZM52.5741 140.474H50.1144V136.084H52.5741V140.474ZM55.5534 140.474H53.0937V136.084H55.5534V140.474Z" fill="#6C63FF"/>
<path opacity="0.1" d="M25.9199 150.37C26.0368 150.844 26.1751 151.313 26.3166 151.779V150.687H28.7763V155.068H27.4573C27.4941 155.173 27.5341 155.28 27.5772 155.376H55.7103V150.37H25.9199ZM31.7618 155.068H29.302V150.687H31.7618V155.068ZM34.735 155.068H32.2752V150.687H34.735V155.068ZM37.7143 155.068H35.2546V150.687H37.7143V155.068ZM40.6906 155.068H38.2308V150.687H40.6906V155.068ZM43.6699 155.068H41.2102V150.687H43.6699V155.068ZM46.6493 155.068H44.1895V150.687H46.6493V155.068ZM49.6255 155.068H47.1658V150.687H49.6255V155.068ZM52.6018 155.068H50.1421V150.687H52.6018V155.068ZM55.5811 155.068H53.1214V150.687H55.5811V155.068Z" fill="#6C63FF"/>
<path opacity="0.1" d="M32.8506 164.969C32.9305 165.068 33.0043 165.179 33.0812 165.278H34.7077V167.383L35.2334 168V165.265H37.6932V169.686H36.6816C36.78 169.788 36.8753 169.896 36.9891 169.994H55.6922V164.969H32.8506ZM40.6787 169.686H38.2189V165.284H40.6787V169.686ZM43.658 169.686H41.1983V165.284H43.658V169.686ZM46.6374 169.686H44.1776V165.284H46.6374V169.686ZM49.6136 169.686H47.1539V165.284H49.6136V169.686ZM52.5899 169.686H50.1302V165.284H52.5899V169.686ZM55.5692 169.686H53.1095V165.284H55.5692V169.686Z" fill="#6C63FF"/>
<path opacity="0.1" d="M49.2656 179.569C49.5485 179.73 49.8344 179.878 50.1204 180.035V179.881H52.5801V181.271C52.7584 181.348 52.9275 181.431 53.1028 181.511V179.881H55.5625V182.55C55.6093 182.571 55.6576 182.589 55.707 182.603V179.569H49.2656Z" fill="#6C63FF"/>
<path opacity="0.1" d="M233.275 193.926H233.583H233.275ZM213.514 147.632C213.573 147.83 213.625 148.027 213.677 148.221C213.631 148.027 213.576 147.83 213.514 147.632ZM66.5059 56.7778V58.0911H80.2404V56.7717L66.5059 56.7778ZM233.278 193.926H233.586H233.278ZM213.514 147.632C213.573 147.83 213.625 148.027 213.677 148.221C213.631 148.027 213.576 147.83 213.514 147.632ZM233.275 193.926H233.583H233.275ZM213.514 147.632C213.573 147.83 213.625 148.027 213.677 148.221C213.631 148.027 213.576 147.83 213.514 147.632Z" fill="#6C63FF"/>
<path opacity="0.1" d="M271.394 266C287.94 266 301.353 263.84 301.353 261.176C301.353 258.511 287.94 256.351 271.394 256.351C254.848 256.351 241.435 258.511 241.435 261.176C241.435 263.84 254.848 266 271.394 266Z" fill="#6C63FF"/>
<path opacity="0.1" d="M136.276 261.175C152.822 261.175 166.235 259.016 166.235 256.351C166.235 253.687 152.822 251.527 136.276 251.527C119.73 251.527 106.316 253.687 106.316 256.351C106.316 259.016 119.73 261.175 136.276 261.175Z" fill="#6C63FF"/>
<path d="M170.767 128.781C170.76 128.751 170.744 128.723 170.721 128.701C170.263 128.248 164.421 119.965 164.421 119.965C164.421 119.965 164.113 119.04 163.615 117.838C163.775 117.63 163.895 117.395 163.969 117.144C163.996 117.038 164.015 116.929 164.027 116.82C164.027 116.786 164.052 116.759 164.061 116.725C164.168 116.307 164.157 115.867 164.03 115.455C163.996 115.56 163.954 115.663 163.904 115.763C163.789 115.404 163.634 115.058 163.443 114.733C162.668 113.395 161.561 112.267 160.747 110.963C159.513 108.937 159.022 106.543 159.36 104.193C159.36 104.314 159.36 104.437 159.36 104.557C159.391 104.091 159.452 103.628 159.544 103.17C159.673 102.649 159.845 102.139 160.058 101.647C160.79 99.9669 161.973 98.5026 162.693 96.8164C162.934 96.2476 163.118 95.6558 163.24 95.05C163.494 94.0382 163.586 92.9925 163.514 91.9518C163.514 92.1984 163.474 92.445 163.437 92.6886C163.359 90.1864 162.351 87.8037 160.611 86.0083C158.099 83.4774 154.493 82.494 151.043 81.9761C149.593 81.8065 148.209 81.2767 147.015 80.4347C145.69 79.5746 143.977 79.3681 142.428 79.5561C140.647 79.7492 138.992 80.5696 137.757 81.8713C136.119 83.6778 135.408 86.2364 133.496 87.7593C132.337 88.6841 130.867 89.1157 129.517 89.7446C128.168 90.3734 126.892 91.2859 126.458 92.6362C126.458 92.6362 126.458 92.6177 126.458 92.6084V92.6855L126.44 92.7348C125.991 94.3317 126.858 95.9563 127.31 97.5501C127.78 99.1993 127.811 100.941 127.835 102.646C127.869 104.73 127.9 106.817 127.866 108.904C127.851 109.724 127.823 110.553 127.762 111.37C127.034 111.591 126.327 111.875 125.649 112.221C124.961 112.671 122.384 115.461 122.384 115.461L117.345 134.765L117.412 134.842L117.345 135.104L117.6 135.045C118.313 135.816 120.444 138.011 122.744 139.38L122.959 143.165C122.959 143.165 123.217 146.963 126.701 148.532C126.781 149.849 127.03 155.194 125.877 157.312C125.078 158.859 124.703 160.591 124.788 162.331C124.788 162.331 125.191 165.543 124.733 167.232C124.465 168.361 124.446 169.535 124.675 170.673C124.675 170.673 124.675 171.046 124.675 171.687C124.675 175.106 124.715 186.062 124.675 187.301C124.616 188.765 124.675 210.421 124.675 210.421C124.675 210.421 124.389 221.245 123.473 224.177C122.556 227.108 122.787 236.816 122.787 236.816C122.787 236.816 122.212 248.379 124.244 250.66C124.244 250.762 124.226 250.867 124.223 250.969C124.223 251.015 124.223 251.067 124.223 251.113C124.198 251.992 124.367 252.926 125.121 253.213C126.658 253.805 128.69 255.58 129.075 256.089C129.459 256.598 131.694 257.865 134.609 257.526C136.435 257.32 138.272 257.235 140.109 257.273C140.109 257.273 141.259 257.063 140.887 255.63C140.648 254.736 139.75 253.361 139.11 252.458C139.227 252.488 139.341 252.513 139.448 252.535L139.559 252.556H139.645C139.692 252.559 139.74 252.559 139.787 252.556H139.848C139.905 252.561 139.963 252.561 140.02 252.556C140.792 252.482 143.67 253.826 144.183 254.714C144.697 255.602 146.508 256.277 147.873 256.447C148.685 256.545 150.732 256.379 152.451 256.157C153.317 256.067 154.174 255.911 155.015 255.688C155.421 255.534 155.507 255.041 155.391 254.486C155.253 253.781 154.877 253.146 154.327 252.686C153.829 252.331 153.171 251.397 152.685 250.633L152.556 250.426C153.414 249.606 154.963 246.924 155.434 246.369C156.005 245.694 154.511 221.004 154.511 221.004V208.627L156.802 196.913L158.404 190.713L159.778 181.354C159.778 181.354 162.182 170.423 161.441 169.35C161.441 169.328 160.827 158.073 160.181 155.37C159.901 154.164 159.972 151.452 160.138 148.813C160.311 148.64 160.432 148.421 160.487 148.182C160.541 147.943 160.527 147.694 160.445 147.463C160.399 147.305 160.34 147.151 160.267 147.003C160.267 146.957 160.267 146.908 160.267 146.861C161.595 146.249 162.983 145.776 164.409 145.45C166.699 145 166.127 143.816 166.127 143.816C166.127 143.816 166.644 142.802 166.985 142.182C167.326 141.562 167.043 136.094 166.985 135.643C166.964 135.462 166.822 134.457 166.659 133.316C167.394 132.792 168.35 132.141 169.393 131.525C171.376 130.347 170.93 129.105 170.767 128.781ZM140.881 206.938C140.881 206.938 139.162 211.334 139.851 212.459C140.54 213.584 139.737 217.761 139.737 217.761L139.162 223.961C139.162 223.961 137.561 235.459 138.132 238.163C138.581 240.284 138.747 246.619 138.8 249.261C138.76 249.276 138.722 249.295 138.686 249.316L138.609 249.356C138.873 248.317 138.763 246.215 137.45 241.985L137.339 224.516C137.339 224.516 137.136 204.336 138.726 202.079C140.315 199.823 140.878 195.991 140.878 195.991C140.878 195.991 140.534 201.518 140.309 202.983C140.085 204.447 140.881 206.938 140.881 206.938ZM137.681 250.361C137.665 250.398 137.647 250.435 137.634 250.469L137.548 250.358C137.592 250.362 137.636 250.363 137.681 250.361Z" fill="url(#paint0_linear)"/>
<path d="M155.209 257.285C154.321 257.627 149.503 258.21 148.156 258.047C146.809 257.883 145.026 257.199 144.519 256.305C144.011 255.411 141.167 254.061 140.405 254.147C140.092 254.156 139.78 254.113 139.482 254.017C138.956 253.858 138.443 253.66 137.945 253.426C137.876 253.037 137.887 252.638 137.979 252.254C137.997 252.177 138.019 252.101 138.047 252.026C138.226 251.52 138.597 251.106 139.08 250.873L139.19 250.821C139.404 250.728 139.626 250.66 139.855 250.617C142.271 250.152 152.242 251.086 152.242 251.086C152.242 251.086 152.522 251.588 152.906 252.211C153.386 252.982 154.038 253.922 154.53 254.276C155.075 254.743 155.445 255.383 155.578 256.089C155.695 256.635 155.609 257.134 155.209 257.285Z" fill="white"/>
<path opacity="0.1" d="M155.209 257.285C154.321 257.627 149.506 258.21 148.159 258.047C146.812 257.883 145.029 257.196 144.519 256.305C144.008 255.414 141.17 254.061 140.408 254.147C139.645 254.233 137.948 253.426 137.948 253.426C137.948 253.426 137.684 252.192 138.452 251.351L139.99 252.445C139.99 252.445 144.104 253.725 144.866 254.911C145.629 256.098 147.018 256.761 149.026 256.881C150.527 256.98 153.973 256.394 155.588 256.101C155.695 256.635 155.612 257.134 155.209 257.285Z" fill="black"/>
<path d="M140.491 258.857C138.677 258.822 136.864 258.907 135.061 259.113C132.174 259.452 129.97 258.188 129.585 257.667C129.201 257.146 127.212 255.386 125.684 254.77C124.936 254.48 124.761 253.536 124.795 252.655C124.795 252.609 124.795 252.556 124.795 252.51C124.823 251.951 124.906 251.397 125.041 250.855L137.004 250.599L138.041 252.007L138.2 252.223L138.831 253.083C138.831 253.083 139.117 253.459 139.492 254.008C140.125 254.933 141.011 256.299 141.247 257.202C141.626 258.648 140.491 258.857 140.491 258.857Z" fill="white"/>
<path opacity="0.1" d="M140.491 258.857C138.677 258.822 136.864 258.907 135.061 259.113C132.177 259.452 129.97 258.188 129.588 257.667C129.207 257.146 127.212 255.371 125.684 254.776C124.936 254.486 124.761 253.543 124.795 252.661C125.65 252.861 127.445 253.373 128.149 254.264C129.072 255.454 130.723 257.455 133.069 257.581C134.963 257.683 139.575 257.344 141.266 257.208C141.629 258.648 140.491 258.857 140.491 258.857Z" fill="black"/>
<path opacity="0.1" d="M139.067 250.861C138.929 251.89 138.501 252.168 138.194 252.229C138.119 252.244 138.042 252.244 137.967 252.229C137.926 252.227 137.886 252.22 137.847 252.211C137.847 252.211 127.104 254.591 124.933 252.664C124.878 252.615 124.827 252.561 124.779 252.504C124.808 251.945 124.89 251.391 125.025 250.848L136.989 250.593L138.025 252.001C138.204 251.496 138.576 251.081 139.058 250.848L139.067 250.861Z" fill="black"/>
<path opacity="0.1" d="M152.903 252.199C152.663 252.464 152.463 252.615 152.337 252.562C151.772 252.334 147.135 251.542 145.662 252.223C144.189 252.905 139.205 252.334 139.205 252.334C139.205 252.334 139.205 251.742 139.178 250.793C139.391 250.701 139.614 250.632 139.842 250.589C142.259 250.124 152.23 251.058 152.23 251.058C152.23 251.058 152.522 251.576 152.903 252.199Z" fill="black"/>
<path d="M159.92 182.467L158.561 191.882L156.981 198.121L154.718 209.916V222.401C154.718 222.401 156.187 247.242 155.622 247.92C155.056 248.598 152.907 252.461 152.341 252.236C151.775 252.011 147.139 251.215 145.666 251.893C144.193 252.572 139.209 252.007 139.209 252.007C139.209 252.007 139.095 242.368 138.53 239.646C137.964 236.924 139.547 225.354 139.547 225.354L140.113 219.118C140.113 219.118 140.906 214.919 140.227 213.785C139.547 212.65 141.245 208.236 141.245 208.236C141.245 208.236 140.454 205.736 140.682 204.262C140.909 202.788 141.245 197.23 141.245 197.23C141.245 197.23 140.682 201.09 139.111 203.356C137.54 205.622 137.739 225.927 137.739 225.927L137.85 243.499C140.682 252.803 137.85 251.893 137.85 251.893C137.85 251.893 127.107 254.276 124.937 252.347C122.766 250.417 123.387 238.271 123.387 238.271C123.387 238.271 123.163 228.517 124.066 225.57C124.97 222.623 125.256 211.731 125.256 211.731C125.256 211.731 125.198 189.952 125.256 188.482C125.299 187.248 125.256 176.209 125.256 172.76C125.256 172.118 125.256 171.739 125.256 171.739L126.554 168.508L141.927 166.579H149.282C149.282 166.579 160.35 169.187 161.494 170.312C161.519 170.331 161.539 170.354 161.556 170.38C162.297 171.468 159.92 182.467 159.92 182.467Z" fill="#6C63FF"/>
<path opacity="0.1" d="M141.253 231.92C141.253 231.92 144.635 240.087 146.231 240.654C147.827 241.221 141.253 231.92 141.253 231.92Z" fill="black"/>
<path opacity="0.1" d="M142.505 243.943C142.505 243.943 153.924 244.51 153.81 245.759C153.697 247.007 142.505 243.943 142.505 243.943Z" fill="black"/>
<path opacity="0.1" d="M127.227 240.678C127.679 241.107 135.937 241.912 135.258 242.695C134.578 243.478 127.906 245 127.906 245L127.227 240.678Z" fill="black"/>
<path opacity="0.1" d="M125.871 226.59C125.871 226.929 127.568 237.479 128.023 237.932C128.478 238.385 132.208 238.838 132.208 238.838L125.871 226.59Z" fill="black"/>
<path d="M138.184 82.3985C136.564 84.2142 135.863 86.7883 133.975 88.3235C132.828 89.2483 131.377 89.6891 130.043 90.318C128.708 90.9469 127.386 91.9056 126.99 93.3298C126.547 94.9329 127.402 96.5698 127.85 98.1728C128.315 99.8313 128.342 101.564 128.37 103.299C128.401 105.399 128.435 107.498 128.398 109.597C128.342 112.868 128.072 116.29 126.341 119.061C132.592 121.056 139.239 121.327 145.794 121.583C147.054 121.673 148.319 121.641 149.573 121.488C150.659 121.271 151.734 120.998 152.792 120.671C154.885 120.115 157.041 119.839 159.206 119.848C160.15 119.848 161.112 119.906 162.022 119.659C162.932 119.413 163.809 118.781 164.055 117.868C164.273 117.048 163.953 116.176 163.535 115.439C162.772 114.095 161.69 112.973 160.872 111.647C160.037 110.247 159.542 108.67 159.426 107.043C159.31 105.416 159.577 103.784 160.205 102.279C160.931 100.587 162.099 99.113 162.812 97.4175C163.543 95.5971 163.737 93.6047 163.372 91.6769C163.007 89.7491 162.098 87.9668 160.752 86.5417C158.271 83.9953 154.711 83.0088 151.304 82.4848C149.87 82.3149 148.501 81.7847 147.325 80.9434C146.019 80.0802 144.324 79.8706 142.793 80.0617C141.027 80.2602 139.391 81.0897 138.184 82.3985Z" fill="#3F3D56"/>
<g opacity="0.1">
<path opacity="0.1" d="M160.302 100.5C159.675 101.986 159.406 103.599 159.518 105.208C159.587 104.057 159.852 102.927 160.302 101.866C161.024 100.173 162.193 98.7 162.906 97.0045C163.489 95.5887 163.734 94.0559 163.622 92.5283C163.559 93.599 163.317 94.6515 162.906 95.6419C162.193 97.3374 161.024 98.8078 160.302 100.5Z" fill="black"/>
<path opacity="0.1" d="M128.463 102.88C128.481 104.089 128.5 105.3 128.503 106.509C128.503 104.844 128.487 103.182 128.463 101.521C128.438 99.7974 128.408 98.0526 127.943 96.391C127.636 95.3367 127.181 94.267 127.021 93.2034C126.747 94.714 127.525 96.2461 127.943 97.7535C128.408 99.3997 128.438 101.157 128.463 102.88Z" fill="black"/>
<path opacity="0.1" d="M162.128 117.896C161.205 118.146 160.258 118.09 159.314 118.084C157.152 118.07 154.996 118.342 152.904 118.892C151.845 119.218 150.771 119.489 149.685 119.706C148.43 119.862 147.164 119.895 145.903 119.804C139.569 119.555 133.146 119.286 127.08 117.471C126.9 117.874 126.694 118.265 126.465 118.642C132.716 120.634 139.363 120.908 145.915 121.164C147.176 121.254 148.443 121.221 149.697 121.065C150.779 120.851 151.85 120.58 152.904 120.254C154.992 119.702 157.143 119.428 159.302 119.438C160.246 119.438 161.205 119.496 162.116 119.246C163.026 118.997 163.902 118.371 164.148 117.458C164.252 117.036 164.241 116.593 164.117 116.176C163.843 117.039 162.998 117.64 162.128 117.896Z" fill="black"/>
</g>
<path d="M153.02 114.243C152.793 114.755 151.834 119.175 151.606 119.629C151.378 120.082 150.136 127.335 150.023 127.742C149.909 128.149 141.835 126.041 141.835 126.041L136.974 121.956L131.977 116.971C131.977 116.971 131.83 112.474 135.51 111.031C135.76 110.932 136.017 110.852 136.279 110.79C140.743 109.715 140.294 96.1043 140.294 96.1043L149.457 100.072C149.457 100.072 147.76 108.013 147.818 109.545C147.833 110.06 148.236 110.38 148.762 110.575C149.575 110.807 150.421 110.898 151.265 110.846C151.265 110.846 153.248 113.734 153.02 114.243Z" fill="#FBBEBE"/>
<path d="M169.423 129.157L170.724 129.5C170.724 129.5 171.686 130.967 169.423 132.333C167.986 133.208 166.607 134.175 165.294 135.227L158.607 137.268L157.318 133.214L163.541 128.479L169.423 129.157Z" fill="#6C63FF"/>
<path opacity="0.1" d="M169.423 129.157L170.724 129.5C170.724 129.5 171.686 130.967 169.423 132.333C167.986 133.208 166.607 134.175 165.294 135.227L158.607 137.268L157.318 133.214L163.541 128.479L169.423 129.157Z" fill="black"/>
<path d="M120.62 133.072L118.019 135.625C118.019 135.625 122.71 141.069 126.32 141.408C129.93 141.747 132.257 137.268 132.257 137.268L129.133 132.336L120.62 133.072Z" fill="#6C63FF"/>
<path opacity="0.1" d="M120.62 133.072L118.019 135.625C118.019 135.625 122.71 141.069 126.32 141.408C129.93 141.747 132.257 137.268 132.257 137.268L129.133 132.336L120.62 133.072Z" fill="black"/>
<path opacity="0.1" d="M145.327 104.998C150.325 104.998 154.376 100.936 154.376 95.9255C154.376 90.9149 150.325 86.853 145.327 86.853C140.33 86.853 136.278 90.9149 136.278 95.9255C136.278 100.936 140.33 104.998 145.327 104.998Z" fill="black"/>
<path d="M145.327 104.317C150.325 104.317 154.376 100.255 154.376 95.2442C154.376 90.2336 150.325 86.1717 145.327 86.1717C140.33 86.1717 136.278 90.2336 136.278 95.2442C136.278 100.255 140.33 104.317 145.327 104.317Z" fill="#FBBEBE"/>
<path opacity="0.1" d="M161.562 171.409C159.501 171.646 157.472 172.101 155.508 172.769C152.125 173.897 125.622 172.787 125.253 172.769C125.253 172.128 125.253 171.748 125.253 171.748L126.55 168.518L141.924 166.588H149.278C149.278 166.588 160.347 169.196 161.491 170.321C161.537 170.999 161.562 171.409 161.562 171.409Z" fill="black"/>
<path opacity="0.1" d="M153.02 114.243C152.793 114.755 151.834 119.175 151.606 119.629C151.378 120.082 150.136 127.335 150.023 127.742C149.909 128.149 141.835 126.041 141.835 126.041L136.974 121.956L131.977 116.971C131.977 116.971 131.83 112.474 135.51 111.031L144.648 121.565L148.762 110.575C149.575 110.807 150.421 110.898 151.265 110.846C151.265 110.846 153.248 113.734 153.02 114.243Z" fill="black"/>
<path d="M144.647 121.904L135.294 111.114C134.747 110.764 134.121 110.555 133.473 110.507C132.826 110.459 132.176 110.574 131.583 110.84C129.489 111.749 126.888 112.486 126.209 112.939C125.529 113.392 122.983 116.198 122.983 116.198L130.566 136.084L127.226 149.183C127.226 149.183 127.737 155.875 126.436 158.314C125.644 159.873 125.273 161.613 125.36 163.36C125.36 163.36 125.757 166.594 125.305 168.293C125.041 169.428 125.021 170.607 125.246 171.752C125.246 171.752 152.116 172.886 155.507 171.752C157.471 171.082 159.5 170.627 161.561 170.392C161.561 170.392 160.946 159.048 160.331 156.326C159.716 153.603 160.842 143.227 160.842 143.227L160.107 132.111L164.516 120.704C164.516 120.704 162.127 113.392 159.636 112.655C159.636 112.655 155.114 111.577 154.151 111.068C153.189 110.559 150.36 110.103 150.36 110.103L148.875 110.602L144.647 121.904Z" fill="#6C63FF"/>
<path opacity="0.1" d="M157.698 131.735L138.016 130.393C137.518 130.359 137.087 130.737 137.053 131.236L134.94 162.392C134.906 162.892 135.282 163.324 135.78 163.358L155.462 164.7C155.96 164.734 156.391 164.357 156.425 163.857L158.538 132.701C158.572 132.202 158.196 131.769 157.698 131.735Z" fill="black"/>
<path d="M158.375 131.059L138.694 129.717C138.196 129.683 137.765 130.06 137.731 130.56L135.618 161.716C135.584 162.215 135.96 162.647 136.458 162.681L156.14 164.023C156.638 164.057 157.069 163.68 157.103 163.181L159.216 132.024C159.25 131.525 158.873 131.093 158.375 131.059Z" fill="#3F3D56"/>
<path d="M157.726 133.501L139.008 132.225L137.084 160.588L155.803 161.864L157.726 133.501Z" fill="white"/>
<path opacity="0.1" d="M156.047 140.74L140.757 139.667L140.459 143.94L155.749 145.013L156.047 140.74Z" fill="black"/>
<path opacity="0.1" d="M155.494 157.72L153.067 157.554L152.916 159.781L155.343 159.947L155.494 157.72Z" fill="black"/>
<path opacity="0.1" d="M153.1 152.346L140.68 151.499L140.529 153.726L152.949 154.572L153.1 152.346Z" fill="black"/>
<path d="M155.409 132.44L142.477 131.559L142.244 134.982L155.177 135.864L155.409 132.44Z" fill="#3F3D56"/>
<path opacity="0.1" d="M155.409 132.44L142.477 131.559L142.244 134.982L155.177 135.864L155.409 132.44Z" fill="black"/>
<path opacity="0.1" d="M145.779 170.784C145.779 170.784 145.665 187.572 141.253 197.212C141.253 197.212 146.572 184.508 146.572 183.999C146.572 183.491 149.511 178.157 148.724 176.57C147.937 174.982 145.779 170.784 145.779 170.784Z" fill="black"/>
<path opacity="0.1" d="M146.019 92.9753C145.85 91.4894 146.213 89.9916 147.043 88.7489C146.945 89.9944 147.296 91.234 148.033 92.2414C148.77 93.2488 149.844 93.9568 151.059 94.2362C150.955 94.146 150.881 94.0264 150.847 93.8933C150.812 93.7601 150.818 93.6196 150.865 93.4901C151.495 94.2053 151.978 95.0531 152.691 95.682C153.405 96.3109 154.475 96.687 155.314 96.24C156.455 95.6234 156.467 93.9988 156.172 92.7349C155.539 90.0432 154.239 87.5549 152.393 85.4997C151.933 84.8785 151.335 84.3726 150.647 84.0217C149.959 83.6709 149.199 83.4846 148.427 83.4774C146.681 83.3418 144.866 83.4959 143.301 84.282C142.421 84.7638 141.596 85.3418 140.842 86.0053L136.537 89.5258C136.123 89.8249 135.768 90.1993 135.492 90.6294C135.307 90.9889 135.196 91.3821 135.166 91.7854C135.056 92.9384 135.269 94.0993 135.78 95.1377C136.292 96.1762 137.082 97.0511 138.062 97.6642C138.042 96.7529 138.291 95.856 138.78 95.0876C139.269 94.3191 139.975 93.7137 140.808 93.3483C140.938 93.4577 141.044 93.5938 141.118 93.7475C141.191 93.9011 141.232 94.0688 141.235 94.2393L142.142 92.6177C142.277 92.3227 142.49 92.0701 142.757 91.8871C143.317 91.5789 144.015 91.9426 144.491 92.3773C144.968 92.8119 145.432 93.3545 146.072 93.4223L146.096 91.0085" fill="black"/>
<path d="M146.02 92.6362C145.85 91.1493 146.213 89.6503 147.044 88.4067C146.767 90.8729 148.621 93.4192 151.062 93.894C150.958 93.8045 150.884 93.6855 150.85 93.5528C150.815 93.4201 150.822 93.2799 150.868 93.151C151.499 93.8662 151.982 94.7109 152.695 95.3429C153.408 95.9748 154.478 96.3478 155.318 95.8978C156.458 95.2812 156.471 93.6566 156.175 92.3958C155.542 89.7041 154.242 87.2158 152.397 85.1606C151.824 84.4606 151.102 83.8981 150.284 83.5144C149.692 83.2948 149.07 83.168 148.44 83.1383C146.693 83.0027 144.879 83.1537 143.314 83.9398C142.434 84.4238 141.609 85.0027 140.854 85.6661L136.55 89.1866C136.135 89.485 135.78 89.8595 135.504 90.2902C135.319 90.6497 135.208 91.0429 135.179 91.4463C135.069 92.5988 135.282 93.7592 135.793 94.7971C136.305 95.835 137.095 96.7094 138.075 97.322C138.055 96.4109 138.305 95.5143 138.794 94.746C139.283 93.9777 139.988 93.3722 140.821 93.0061C140.951 93.1159 141.056 93.2521 141.129 93.4056C141.203 93.5592 141.244 93.7267 141.248 93.897L142.152 92.2817C142.286 91.9861 142.499 91.7333 142.767 91.5511C143.326 91.2428 144.024 91.6066 144.501 92.0412C144.977 92.4759 145.442 93.0154 146.081 93.0863L146.106 90.6694" fill="#3F3D56"/>
<path d="M150.306 149.861C149.515 149.46 136.448 151.504 136.448 151.504C136.448 151.504 134.296 150.888 129.093 150.031C123.891 149.174 123.559 144.075 123.559 144.075L122.99 133.868L124.746 132.326L132.266 137.259C132.266 137.259 132.383 139.753 132.266 140.203C132.193 140.511 131.996 140.878 132.014 141.128C132.02 141.195 132.048 141.259 132.093 141.309C132.139 141.359 132.2 141.393 132.266 141.405C132.777 141.535 139.732 142.663 139.732 142.663C139.732 142.663 155.852 141.556 159.871 147C160.189 147.4 160.43 147.856 160.581 148.344C161.577 152.065 151.022 150.216 150.306 149.861Z" fill="#FBBEBE"/>
<path opacity="0.1" d="M160.59 148.366C159.975 148.64 159.594 148.838 159.594 148.838C159.594 148.838 153.826 148.668 150.585 147.49C147.345 146.313 143.406 146.522 143.406 146.522C143.406 146.522 129.902 144.192 131.996 141.149C132.002 141.217 132.029 141.281 132.075 141.331C132.121 141.381 132.181 141.415 132.248 141.427C132.758 141.556 139.713 142.684 139.713 142.684C139.713 142.684 155.834 141.578 159.852 147.022C160.181 147.419 160.431 147.875 160.59 148.366Z" fill="black"/>
<path d="M166.198 130.406C166.198 130.406 166.991 136.02 167.047 136.476C167.102 136.932 167.388 142.429 167.047 143.054C166.705 143.68 166.198 144.697 166.198 144.697C166.198 144.697 166.764 145.887 164.501 146.344C162.238 146.8 159.581 148.156 159.581 148.156C159.581 148.156 153.81 147.987 150.588 146.797C147.366 145.607 143.406 145.832 143.406 145.832C143.406 145.832 126.264 142.882 133.619 139.281C140.974 135.68 146.176 140.557 146.176 140.557L154.376 140.049C154.376 140.049 157.432 138.174 158.281 138.347C158.88 138.424 159.489 138.325 160.033 138.063L160.092 132.108L166.198 130.406Z" fill="#FBBEBE"/>
<path opacity="0.1" d="M124.617 116.626L122.975 116.54L118 135.961C118 135.961 123.371 134.598 125.687 135.961C128.002 137.324 132.248 137.604 132.248 137.604L130.665 122.123L124.617 116.626Z" fill="black"/>
<path d="M124.617 116.284L122.975 116.198L118 135.619C118 135.619 123.371 134.256 125.687 135.619C128.002 136.981 132.248 137.262 132.248 137.262L130.665 121.78L124.617 116.284Z" fill="#6C63FF"/>
<path opacity="0.1" d="M162.242 120.538L164.501 121.05C164.501 121.05 170.273 129.373 170.725 129.839C171.177 130.304 168.572 131.997 167.499 131.997C166.426 131.997 161.165 132.613 159.637 134.037C158.109 135.462 158.746 128.294 158.746 128.131C158.746 127.967 160.643 123.445 160.643 123.445L162.242 120.538Z" fill="black"/>
<path d="M162.242 120.199L164.501 120.708C164.501 120.708 170.273 129.046 170.725 129.5C171.177 129.953 168.572 131.657 167.499 131.657C166.426 131.657 161.165 132.274 159.637 133.698C158.109 135.122 158.746 127.955 158.746 127.792C158.746 127.628 160.655 123.091 160.655 123.091L162.242 120.199Z" fill="#6C63FF"/>
<g opacity="0.1">
<path opacity="0.1" d="M147.028 88.4344C147.015 88.198 147.02 87.961 147.043 87.7254C146.575 88.4297 146.253 89.2212 146.096 90.0529V90.7681C146.096 90.7681 146.096 90.7527 146.096 90.7434V90.9129C146.096 91.4124 146.096 91.9148 146.081 92.4142H146.038V92.6454C146.038 92.5653 146.038 92.4882 146.023 92.4081C145.408 92.3094 144.968 91.7915 144.51 91.3784C144.052 90.9654 143.335 90.5708 142.776 90.8883C142.508 91.0705 142.295 91.3233 142.161 91.6189L141.248 93.2342C141.244 93.0643 141.203 92.8971 141.13 92.744C141.056 92.5909 140.95 92.4553 140.82 92.3464C139.987 92.7118 139.282 93.3172 138.793 94.0856C138.304 94.8541 138.054 95.751 138.075 96.6622C137.234 96.1345 136.532 95.4139 136.024 94.56C135.517 93.7061 135.22 92.7434 135.157 91.7515C135.103 92.8591 135.345 93.9609 135.858 94.9434C136.371 95.9258 137.136 96.7533 138.075 97.3405C138.055 96.4294 138.305 95.5328 138.794 94.7645C139.283 93.9962 139.988 93.3906 140.82 93.0246C140.95 93.1344 141.056 93.2706 141.129 93.4241C141.203 93.5777 141.243 93.7452 141.248 93.9155L142.152 92.3002C142.286 92.0046 142.498 91.7518 142.766 91.5696C143.326 91.2613 144.024 91.6251 144.501 92.0597C144.977 92.4944 145.441 93.0339 146.081 93.1048C146.081 92.3156 146.089 91.5285 146.106 90.7434C146.256 89.9198 146.57 89.1347 147.028 88.4344Z" fill="black"/>
<path opacity="0.1" d="M145.988 91.5387C146.004 91.3291 146.028 91.1195 146.059 90.9222L146.093 90.0714C146 90.5546 145.965 91.0472 145.988 91.5387Z" fill="black"/>
<path opacity="0.1" d="M155.318 95.2165C154.478 95.6665 153.408 95.2905 152.695 94.6616C151.982 94.0327 151.499 93.1849 150.869 92.4697C150.822 92.5991 150.815 92.7397 150.85 92.8729C150.885 93.006 150.959 93.1256 151.062 93.2158C151.001 93.2158 150.942 93.1849 150.884 93.1695C151.499 93.8786 151.988 94.7109 152.695 95.3274C153.402 95.944 154.478 96.3324 155.318 95.8823C156.157 95.4323 156.397 94.378 156.323 93.3514C156.268 94.1591 155.979 94.8589 155.318 95.2165Z" fill="black"/>
<path opacity="0.1" d="M150.865 93.1633C149.837 92.8824 148.919 92.293 148.234 91.4743C147.55 90.6555 147.131 89.6465 147.034 88.5824C146.859 91.0023 148.679 93.4285 151.062 93.8939C150.96 93.8056 150.887 93.6888 150.852 93.5587C150.817 93.4286 150.822 93.2909 150.865 93.1633Z" fill="black"/>
</g>
<path d="M298.522 143.548C298.522 143.548 297.311 143.378 297.311 141.612C297.311 139.845 296.444 136.537 296.444 136.537C296.444 136.537 295.693 130.782 294.657 129.869C293.621 128.957 292.29 123.599 292.29 123.599C292.29 123.599 292.062 120.692 291.598 120.066C291.134 119.441 290.506 117.908 289.581 115.723C288.656 113.537 284.806 112.039 284.806 112.039C284.806 112.039 277.83 107.982 275.853 106.66C275.672 106.55 275.503 106.422 275.348 106.277C275.004 105.827 273.504 105.818 273.504 105.818C273.347 104.822 273.196 103.682 273.147 102.649C273.147 102.538 273.147 102.427 273.147 102.316C275.351 101.009 277.012 98.9495 277.823 96.5143C277.86 96.3971 277.891 96.2769 277.925 96.1567C278.06 96.1149 278.184 96.045 278.29 95.9515C278.396 95.858 278.481 95.743 278.54 95.6141C278.715 95.2165 278.721 94.754 278.943 94.381C279.201 93.9433 279.693 93.709 280.08 93.3822C281.058 92.5468 281.31 91.1442 281.264 89.871C281.233 88.8352 281.067 87.7932 281.132 86.7667C281.132 86.6804 281.132 86.594 281.15 86.5077C281.169 86.3567 281.19 86.1995 281.218 86.0515C281.369 85.287 281.698 84.5656 281.882 83.8073C282.067 83.0489 282.085 82.195 281.655 81.5414C281.024 80.5827 279.711 80.3916 278.558 80.3083C277.252 80.1974 276.099 80.3392 275.247 79.251C274.856 78.6826 274.416 78.1503 273.931 77.6603C273.759 77.5 272.086 76.4734 272.086 76.4087C270.45 75.6458 268.593 75.5023 266.859 76.0048C265.989 76.2576 265.174 76.6707 264.292 76.8773C262.398 77.3273 260.215 76.8403 258.604 77.9285C257.706 78.545 257.168 79.5284 256.664 80.481C256.254 81.2661 255.838 82.0521 255.415 82.8393C254.733 84.1309 254.044 85.4442 253.758 86.8746C253.698 87.187 253.66 87.5032 253.644 87.821C253.644 87.935 253.644 88.0491 253.644 88.1632C253.644 88.2125 253.644 88.2618 253.644 88.3111C253.644 88.4159 253.644 88.5208 253.663 88.6194C253.681 88.718 253.663 88.7458 253.684 88.8105C253.706 88.8753 253.712 89.0202 253.73 89.1188C253.749 89.2174 253.786 89.3932 253.823 89.5257C253.823 89.5843 253.86 89.6398 253.878 89.6984C253.896 89.7569 253.946 89.9049 253.986 90.0066C254.026 90.1084 254.029 90.1145 254.053 90.1669C254.099 90.2748 254.155 90.3796 254.21 90.4752C254.235 90.5153 254.253 90.5554 254.278 90.5954C254.362 90.7397 254.457 90.8778 254.561 91.0085C255.216 91.8316 256.187 92.3557 256.904 93.1264C256.904 93.1572 256.904 93.188 256.904 93.2188C256.904 93.3021 256.904 93.3853 256.904 93.4716C256.947 95.1906 257.41 96.8727 258.25 98.3717C259.09 99.8708 260.283 101.141 261.725 102.072C261.725 102.19 261.74 102.31 261.746 102.43C261.806 103.344 261.795 104.261 261.712 105.174C261.587 105.026 261.43 104.909 261.253 104.83C261.077 104.751 260.885 104.712 260.692 104.717C260.559 104.711 260.427 104.722 260.298 104.751L260.27 104.73V104.758C259.594 104.924 258.761 105.63 257.964 107.637C257.964 107.637 255.541 110.374 253.697 110.26C251.852 110.146 247.181 113.112 247.181 113.112C247.181 113.112 242.625 116.074 241.647 119.095C241.1 120.809 240.444 122.485 239.682 124.114L234.034 135.742L232.998 144.99C232.998 144.99 233.573 149.093 233.459 149.722C233.345 150.351 235.824 155.993 235.824 155.993C235.824 155.993 244.011 170.414 247.357 171.153L247.597 170.987C247.74 171.06 247.892 171.116 248.049 171.153L248.737 170.669C248.78 171.211 248.761 171.756 248.682 172.294C248.224 173.721 248.857 183.013 249.663 184.835C250.468 186.657 250.182 210.548 250.182 210.548L250.069 212.653C250.069 212.653 250.069 212.721 250.096 212.838L250.069 213.338L250.152 213.381C250.238 214.051 250.21 214.73 250.069 215.391C249.78 216.316 249.663 218.927 249.663 218.927C249.663 218.927 247.357 233.687 248.451 236.652C249.546 239.618 250.471 242.867 250.471 242.867C250.471 242.867 251.624 246.566 250.527 247.183C249.429 247.8 246.321 248.894 246.954 250.432C247.538 251.856 249.755 255.673 250.084 256.231L250.056 256.539L249.604 261.45C249.677 262.098 249.853 262.731 250.124 263.324C250.619 264.397 251.578 265.504 253.411 265.383C253.718 265.362 254.072 265.328 254.419 265.282C257.767 264.829 261.888 263.33 261.888 263.33C261.674 263.195 261.479 263.032 261.306 262.846C261.142 262.687 261.011 262.495 260.923 262.283C260.835 262.071 260.791 261.843 260.793 261.613C260.842 260.716 259.173 256.459 258.754 255.408L258.659 255.173C258.659 255.173 262.466 251.181 261.832 247.648C261.832 247.648 257.62 245.182 259.007 243.826C260.393 242.469 262.871 238.585 262.871 238.585C262.871 238.585 262.985 224.05 262.871 221.883C262.753 220.376 262.824 218.859 263.084 217.37C263.13 217.148 263.185 216.929 263.243 216.71C265.163 217.001 267.101 217.148 269.042 217.151C269.751 217.151 270.469 217.137 271.195 217.108C271.195 217.313 271.204 217.535 271.222 217.774C271.382 221.374 271.68 227.691 271.923 230.037C272.268 233.397 274.171 242.463 274.171 242.463C274.171 242.463 270.54 244.797 274.804 250.559C274.804 250.559 274.804 252.643 274.521 252.948C274.219 253.936 273.976 254.942 273.793 255.96C273.614 257.042 273.54 258.142 273.83 258.709C274.521 260.072 278.672 259.961 278.672 259.961C278.705 259.953 278.739 259.948 278.774 259.946C279.557 259.862 280.349 259.937 281.104 260.165C281.858 260.392 282.56 260.768 283.167 261.271C284.745 262.541 290.728 261.986 293.972 261.579C295.241 261.416 296.09 261.271 296.09 261.271C296.131 261.127 296.145 260.977 296.133 260.827C296.099 260.029 295.475 258.278 291.244 256.715C291.244 256.715 287.266 254.033 287.321 251.696H287.232H286.774C287.063 251.687 287.266 251.687 287.266 251.687C287.266 251.687 285.707 245.987 286.343 245.521C286.98 245.056 285.074 238.739 285.074 238.739C285.074 238.739 283.982 228.135 283.921 227.395C283.925 226.757 284.022 226.124 284.21 225.514L283.921 219.697C283.921 219.697 283.865 217.764 283.921 217.136C283.914 216.59 283.871 216.045 283.791 215.505C283.764 215.289 283.736 215.064 283.705 214.842C285.197 214.463 286.165 214.114 286.165 214.114L285.993 193.876C287.26 191.41 287.493 185.997 287.487 182.162C287.487 179.696 287.376 177.871 287.376 177.871L289.107 175.038C289.107 175.038 289.507 171.647 288.874 170.904C288.594 170.568 288.72 170.219 288.951 169.933C289.072 169.833 289.2 169.742 289.335 169.661C289.32 169.64 289.307 169.617 289.295 169.594C289.416 169.492 289.544 169.401 289.679 169.319C289.679 169.319 289.064 168.364 289.615 167.96C290.131 168.311 290.593 168.592 290.943 168.792C290.918 169.017 290.894 169.147 290.894 169.147L291.041 168.838C291.38 169.029 291.586 169.147 291.586 169.147C291.586 169.147 294.298 163.73 294.239 162.935C294.181 162.14 296.084 158.773 296.084 158.773C296.084 158.773 296.314 157.004 297.354 156.264C298.393 155.524 298.159 150.163 298.159 150.163C298.159 150.163 298.448 147.37 299.14 146.233C299.832 145.095 298.522 143.548 298.522 143.548ZM246.634 141.171L246.686 142.462C246.379 141.966 246.158 141.612 246.158 141.612L246.634 141.171Z" fill="url(#paint1_linear)"/>
<path d="M291.746 166.804L291.082 169.64C291.082 169.64 285.763 166.912 284.807 163.459C283.851 160.006 286.409 158.69 286.409 158.69L291.368 160.792L291.746 166.804Z" fill="white"/>
<path opacity="0.1" d="M291.746 166.804L291.082 169.64C291.082 169.64 285.763 166.912 284.807 163.459C283.851 160.006 286.409 158.69 286.409 158.69L291.368 160.792L291.746 166.804Z" fill="black"/>
<path d="M261.894 263.327C261.894 263.327 256.974 265.14 253.592 265.368C251.797 265.488 250.853 264.385 250.367 263.321C250.103 262.735 249.931 262.111 249.856 261.471L250.302 256.585L250.536 253.987L257.721 252.112L258.739 255.235L258.834 255.469C259.24 256.514 260.882 260.75 260.833 261.635C260.829 261.864 260.871 262.091 260.958 262.303C261.044 262.515 261.172 262.707 261.334 262.868C261.501 263.044 261.689 263.199 261.894 263.327Z" fill="white"/>
<path d="M295.482 260.843C295.494 260.992 295.48 261.142 295.438 261.287C295.438 261.287 284.917 263.044 282.765 261.287C282.16 260.773 281.455 260.392 280.694 260.168C279.934 259.943 279.135 259.88 278.35 259.982C278.35 259.982 274.279 260.093 273.599 258.749C273.316 258.185 273.39 257.091 273.565 256.015C273.744 255.003 273.983 254.003 274.279 253.019L274.442 252.889L275.41 252.109L286.75 251.773H286.836C286.78 254.098 290.682 256.764 290.682 256.764C294.836 258.305 295.448 260.047 295.482 260.843Z" fill="white"/>
<path opacity="0.1" d="M295.485 260.843C295.495 260.992 295.48 261.142 295.438 261.287C295.438 261.287 284.917 263.044 282.768 261.287C282.162 260.773 281.457 260.391 280.696 260.167C279.935 259.942 279.136 259.88 278.349 259.983C278.349 259.983 274.276 260.094 273.596 258.749C273.316 258.185 273.387 257.091 273.562 256.012C275.13 256.169 277.605 256.561 278.577 257.498C280.047 258.916 282.537 260.334 284.062 260.448C285.267 260.522 292.434 260.75 295.485 260.843Z" fill="black"/>
<path opacity="0.1" d="M261.894 263.327C261.894 263.327 256.975 265.14 253.593 265.368C251.797 265.488 250.853 264.385 250.367 263.321C251.622 263.743 253.359 264.184 254.272 263.78C255.354 263.296 259.191 262.988 261.344 262.856C261.506 263.036 261.691 263.195 261.894 263.327Z" fill="black"/>
<path d="M269.193 117.239C265.135 115.658 259.914 110.433 261.217 107.991C261.506 107.375 261.678 106.71 261.725 106.031C261.809 105.108 261.821 104.181 261.762 103.256C261.67 101.741 261.488 100.233 261.217 98.74C261.217 98.74 273.888 99.0267 273.15 100.898C272.935 101.45 272.898 102.402 272.96 103.466C273.021 104.529 273.172 105.741 273.332 106.761C273.55 108.158 273.774 109.227 273.774 109.227C273.774 109.227 272.997 110.316 272.545 110.374C272.093 110.433 275.017 119.505 269.193 117.239Z" fill="#CF6F80"/>
<path opacity="0.1" d="M258.822 255.454L258.727 255.559C254.939 250.965 250.358 256.693 250.358 256.693L250.29 256.57L250.524 253.971L257.709 252.097L258.727 255.22L258.822 255.454Z" fill="black"/>
<path opacity="0.1" d="M286.841 252.097C286.841 252.097 284.074 252.041 282.598 253.348C281.122 254.656 273.989 253.629 274.297 253.348C274.386 253.206 274.441 253.044 274.457 252.877L275.425 252.097L286.764 251.761C286.808 251.977 286.841 252.097 286.841 252.097Z" fill="black"/>
<path d="M263.535 216.026C263.33 216.537 263.173 217.066 263.068 217.607C262.812 219.089 262.74 220.597 262.856 222.096C262.97 224.254 262.856 238.715 262.856 238.715C262.856 238.715 260.424 242.571 259.065 243.931C257.706 245.29 261.832 247.732 261.832 247.732C262.447 251.249 258.721 255.22 258.721 255.22C254.933 250.626 250.351 256.351 250.351 256.351C250.351 256.351 247.861 252.035 247.24 250.494C246.619 248.952 249.672 247.889 250.745 247.26C251.818 246.631 250.69 242.944 250.69 242.944C250.69 242.944 249.786 239.71 248.709 236.76C247.633 233.81 249.896 219.127 249.896 219.127C249.896 219.127 250.013 216.516 250.293 215.607C250.433 214.95 250.461 214.275 250.376 213.609C250.357 213.384 250.336 213.199 250.321 213.069C250.305 212.94 250.293 212.884 250.293 212.884L250.336 212.81L251.873 209.937C251.873 209.937 264.273 214.216 263.535 216.026Z" fill="#6C63FF"/>
<path d="M286.841 251.758C286.841 251.758 284.074 251.699 282.598 252.991C281.123 254.283 273.989 253.274 274.297 252.991C274.604 252.707 274.577 250.611 274.577 250.611C270.392 244.88 273.962 242.556 273.962 242.556C273.962 242.556 272.095 233.539 271.757 230.194C271.52 227.86 271.228 221.562 271.071 217.996C271.004 216.454 270.964 215.391 270.964 215.391L274.352 214.716L274.792 214.629L283.038 212.968C283.038 212.968 283.266 214.509 283.419 215.77C283.497 216.308 283.539 216.851 283.545 217.395C283.493 218.011 283.545 219.944 283.545 219.944L283.828 225.727C283.646 226.334 283.55 226.964 283.545 227.598C283.604 228.338 284.677 238.884 284.677 238.884C284.677 238.884 286.543 245.179 285.907 245.632C285.27 246.086 286.841 251.758 286.841 251.758Z" fill="#6C63FF"/>
<path opacity="0.1" d="M273.15 100.907C272.935 101.459 272.898 102.412 272.96 103.475C271.263 104.5 269.312 105.024 267.331 104.987C265.35 104.95 263.42 104.353 261.762 103.265C261.67 101.751 261.489 100.242 261.218 98.7493C261.218 98.7493 273.888 99.036 273.15 100.907Z" fill="black"/>
<path d="M278.042 94.1005C278.075 96.8975 276.999 99.5932 275.05 101.595C273.101 103.596 270.439 104.739 267.649 104.773C264.86 104.806 262.171 103.728 260.175 101.773C258.179 99.8194 257.038 97.1503 257.005 94.3533C257.005 94.267 257.005 94.1868 257.005 94.1005C257.005 91.3027 258.113 88.6195 260.087 86.6412C262.06 84.6628 264.736 83.5514 267.526 83.5514C270.317 83.5514 272.993 84.6628 274.966 86.6412C276.939 88.6195 278.048 91.3027 278.048 94.1005H278.042Z" fill="#CF6F80"/>
<path opacity="0.1" d="M269.193 117.24C265.135 115.658 259.914 110.433 261.217 107.991C261.506 107.375 261.678 106.71 261.725 106.031L267.281 110.612L270.718 113.439L273.332 106.771C273.55 108.167 273.774 109.237 273.774 109.237C273.774 109.237 272.997 110.325 272.545 110.384C272.093 110.442 275.017 119.505 269.193 117.24Z" fill="black"/>
<path d="M283.561 137.484L278.922 215.631L272.871 216.029L257.199 170.716L259.77 116.919L260.314 105.553L267.281 111.29L270.718 114.117L273.409 107.251L278.411 111.623L283.561 137.484Z" fill="#6C63FF"/>
<path opacity="0.1" d="M263.536 216.026C263.33 216.537 263.174 217.066 263.068 217.607C258.661 216.927 254.381 215.587 250.37 213.634L250.287 213.59L250.315 213.094V212.835L251.852 209.962C251.852 209.962 264.274 214.216 263.536 216.026Z" fill="black"/>
<path opacity="0.1" d="M274.454 217.62C273.328 217.812 272.193 217.943 271.053 218.011C270.985 216.47 270.945 215.406 270.945 215.406L274.352 214.716L274.454 217.62Z" fill="black"/>
<path opacity="0.1" d="M283.432 215.77C281.246 216.34 277.867 216.981 274.848 216.581L274.805 214.629L283.051 212.968C283.051 212.968 283.269 214.497 283.432 215.77Z" fill="black"/>
<path opacity="0.1" d="M274.792 216.938C262.186 219.096 250.641 212.909 250.641 212.909L250.751 210.813C250.751 210.813 251.037 187.048 250.244 185.226C249.451 183.404 248.833 174.178 249.282 172.769C249.731 171.36 247.643 150.089 247.643 150.089L247.305 141.457L234.917 136.411L240.451 124.842C241.199 123.22 241.842 121.552 242.376 119.848C243.338 116.842 247.806 113.892 247.806 113.892C247.806 113.892 252.387 110.945 254.198 111.056C256.009 111.167 258.383 108.448 258.383 108.448C260.135 103.968 261.722 105.981 261.722 105.981C261.722 106.197 261.722 105.981 261.636 106.644C261.021 111.561 271.579 127.098 271.73 127.376L272.748 151.933L273.765 183.01L274.792 216.938Z" fill="black"/>
<path d="M274.454 216.938C261.848 219.096 250.299 212.909 250.299 212.909L250.413 210.813C250.413 210.813 250.696 187.048 249.903 185.226C249.109 183.404 248.491 174.168 248.943 172.747C249.395 171.326 247.295 150.077 247.295 150.077L246.954 141.445L234.569 136.399L240.104 124.829C240.849 123.208 241.492 121.541 242.028 119.838C242.991 116.842 247.474 113.889 247.474 113.889C247.474 113.889 252.055 110.942 253.863 111.052C255.671 111.163 258.057 108.448 258.057 108.448C259.812 103.968 261.746 105.981 261.746 105.981C261.746 106.197 261.562 106.29 261.66 106.644C263.013 111.413 271.265 127.098 271.416 127.376L272.434 151.933L273.43 183.025L274.454 216.938Z" fill="white"/>
<path opacity="0.1" d="M271.056 128.069C269.7 127.502 262.518 119.28 262.518 119.28V117.409C262.257 116.793 260.701 117.169 259.443 117.6L259.985 106.234L260.599 106.746C261.943 111.512 270.909 127.795 271.056 128.069Z" fill="black"/>
<path d="M271.397 127.391C270.038 126.821 262.856 118.602 262.856 118.602V116.728C262.595 116.111 261.042 116.487 259.781 116.919L260.313 105.565L260.928 106.074C262.284 110.834 271.247 127.113 271.397 127.391Z" fill="white"/>
<path opacity="0.1" d="M250.641 168.391C250.81 168.391 259.407 167.485 259.407 167.485C259.407 167.485 264.612 177.751 264.271 180.244C263.93 182.738 263.312 184.952 261.218 184.56C259.124 184.169 249.949 184.869 249.949 184.869L250.641 168.391Z" fill="black"/>
<path d="M250.299 167.71C250.471 167.71 259.068 166.804 259.068 166.804C259.068 166.804 264.27 177.085 263.932 179.551C263.594 182.017 262.97 184.258 260.879 183.867C258.788 183.475 249.607 184.175 249.607 184.175L250.299 167.71Z" fill="white"/>
<path d="M256.778 162.904C256.778 162.904 264.668 167.158 264.837 168.453C265.006 169.748 260.821 167.886 259.917 167.658C259.322 167.516 258.717 167.421 258.107 167.374L252.077 167.537L256.778 162.904Z" fill="#CF6F80"/>
<path opacity="0.1" d="M268.852 128.599C269.31 128.599 269.682 128.227 269.682 127.767C269.682 127.307 269.31 126.935 268.852 126.935C268.393 126.935 268.021 127.307 268.021 127.767C268.021 128.227 268.393 128.599 268.852 128.599Z" fill="black"/>
<path d="M268.852 128.26C269.31 128.26 269.682 127.888 269.682 127.428C269.682 126.968 269.31 126.596 268.852 126.596C268.393 126.596 268.021 126.968 268.021 127.428C268.021 127.888 268.393 128.26 268.852 128.26Z" fill="#3F3D56"/>
<path opacity="0.1" d="M270.38 164.63C270.838 164.63 271.21 164.258 271.21 163.798C271.21 163.338 270.838 162.966 270.38 162.966C269.921 162.966 269.55 163.338 269.55 163.798C269.55 164.258 269.921 164.63 270.38 164.63Z" fill="black"/>
<path d="M270.38 164.288C270.838 164.288 271.21 163.916 271.21 163.456C271.21 162.996 270.838 162.624 270.38 162.624C269.921 162.624 269.55 162.996 269.55 163.456C269.55 163.916 269.921 164.288 270.38 164.288Z" fill="#3F3D56"/>
<path opacity="0.1" d="M269.682 146.615C270.14 146.615 270.512 146.242 270.512 145.783C270.512 145.323 270.14 144.95 269.682 144.95C269.223 144.95 268.852 145.323 268.852 145.783C268.852 146.242 269.223 146.615 269.682 146.615Z" fill="black"/>
<path d="M269.682 146.276C270.14 146.276 270.512 145.903 270.512 145.443C270.512 144.984 270.14 144.611 269.682 144.611C269.223 144.611 268.852 144.984 268.852 145.443C268.852 145.903 269.223 146.276 269.682 146.276Z" fill="#3F3D56"/>
<path d="M288.819 167.201C288.819 167.201 289.384 168.052 288.819 168.435C288.253 168.817 288.874 169.797 288.874 169.797C288.874 169.797 287.463 170.623 288.084 171.372C288.705 172.121 288.311 175.485 288.311 175.485L286.614 178.318C286.614 178.318 286.715 180.133 286.722 182.587C286.722 186.416 286.497 191.799 285.255 194.252L285.421 214.386C285.421 214.386 279.478 216.565 274.503 215.899L273.765 183.592C273.765 183.592 274.841 165.272 275.238 161.757C275.47 159.933 275.564 158.093 275.521 156.255C275.521 156.255 275.352 150.755 274.783 148.206C274.783 148.206 274.168 137.145 274.106 134.084C274.079 132.619 274.155 128.347 274.242 124.284C274.337 119.841 274.445 115.652 274.445 115.652L273.322 106.746C273.322 106.746 274.445 106.635 274.783 107.085C274.934 107.227 275.099 107.354 275.275 107.464C277.215 108.777 284.059 112.816 284.059 112.816C284.059 112.816 287.847 114.326 288.754 116.49C289.661 118.654 290.291 120.19 290.731 120.806C291.171 121.423 291.41 124.321 291.41 124.321C291.41 124.321 292.714 129.654 293.732 130.557C294.75 131.46 295.481 137.194 295.481 137.194L286.488 144.284C286.488 144.284 285.698 156.079 285.529 156.535C285.36 156.991 288.819 167.201 288.819 167.201Z" fill="white"/>
<path d="M289.16 167.201C289.16 167.201 289.723 168.052 289.16 168.435C288.598 168.817 289.213 169.797 289.213 169.797C289.213 169.797 287.801 170.623 288.422 171.372C289.043 172.121 288.65 175.485 288.65 175.485L286.959 178.318C286.959 178.318 287.06 180.133 287.069 182.587C287.069 186.416 286.845 191.799 285.603 194.252L285.772 214.386C285.772 214.386 279.829 216.565 274.854 215.899L274.119 183.592C274.119 183.592 275.192 165.272 275.592 161.757C275.824 159.933 275.918 158.093 275.872 156.255C275.872 156.255 275.702 150.755 275.137 148.206C275.137 148.206 274.522 137.145 274.457 134.084C274.43 132.619 274.506 128.347 274.593 124.284C274.688 119.841 274.795 115.652 274.795 115.652L273.313 106.626C273.313 106.626 274.795 106.626 275.137 107.085C275.287 107.229 275.452 107.356 275.629 107.464C277.566 108.777 284.41 112.816 284.41 112.816C284.41 112.816 288.189 114.326 289.111 116.49C290.033 118.655 290.648 120.19 291.088 120.806C291.528 121.423 291.768 124.321 291.768 124.321C291.768 124.321 293.071 129.654 294.089 130.557C295.107 131.46 295.841 137.194 295.841 137.194L286.848 144.284C286.848 144.284 286.058 156.079 285.886 156.535C285.714 156.991 289.16 167.201 289.16 167.201Z" fill="white"/>
<path opacity="0.1" d="M278.39 118.269L279.204 120.643L274.928 124.959C275.023 120.516 275.13 116.327 275.13 116.327L273.648 107.304C273.648 107.304 275.13 107.304 275.472 107.763C275.622 107.907 275.787 108.034 275.964 108.142L279.598 118.651L278.39 118.269Z" fill="black"/>
<path d="M278.042 117.588L278.857 119.958L274.583 124.274C274.675 119.832 274.786 115.643 274.786 115.643L273.301 106.616C273.301 106.616 274.786 106.616 275.124 107.076C275.275 107.218 275.44 107.345 275.616 107.455L279.272 117.973L278.042 117.588Z" fill="white"/>
<path opacity="0.1" d="M278.042 94.1005C278.043 95.2113 277.869 96.3152 277.525 97.3713C277.467 97.381 277.408 97.3789 277.351 97.3651C277.294 97.3514 277.24 97.3262 277.193 97.2911C277.11 94.5167 275.751 91.9087 274.075 89.6922C273.604 89.0237 273.034 88.4311 272.384 87.935C271.727 87.4403 270.909 87.2084 270.091 87.2846C269.168 87.411 268.353 88.0399 267.422 88.12C266.192 88.2217 265.091 87.3678 263.871 87.3277C263.374 87.3319 262.885 87.4424 262.434 87.6519C261.984 87.8614 261.584 88.165 261.26 88.5423C260.618 89.3014 260.142 90.1866 259.861 91.1411C259.378 92.5895 259.115 94.1026 259.08 95.6295C259.065 96.4927 258.982 97.5748 258.182 97.8892C258.243 97.2548 258.171 96.6148 257.972 96.0098C257.772 95.4048 257.449 94.848 257.023 94.3749L257.005 94.3533C257.005 94.267 257.005 94.1868 257.005 94.1005C257.005 91.3027 258.113 88.6195 260.087 86.6412C262.06 84.6628 264.736 83.5514 267.526 83.5514C270.317 83.5514 272.993 84.6628 274.966 86.6412C276.939 88.6195 278.048 91.3027 278.048 94.1005H278.042Z" fill="black"/>
<path d="M271.892 77.352C270.295 76.5985 268.477 76.456 266.782 76.9512C265.931 77.204 265.128 77.614 264.264 77.8206C262.419 78.2676 260.267 77.7836 258.684 78.8656C257.804 79.4822 257.275 80.4563 256.783 81.4058L255.554 83.7518C254.883 85.0373 254.207 86.3443 253.927 87.7593C253.647 89.1743 253.816 90.7588 254.711 91.8994C255.36 92.7256 256.325 93.2466 257.033 94.0265C257.457 94.502 257.779 95.0606 257.978 95.667C258.177 96.2734 258.249 96.9146 258.189 97.5501C258.988 97.2418 259.068 96.1536 259.086 95.2905C259.121 93.7635 259.384 92.2504 259.867 90.802C260.148 89.8474 260.624 88.9623 261.266 88.2032C261.59 87.8255 261.99 87.5214 262.44 87.3114C262.89 87.1014 263.38 86.9903 263.877 86.9856C265.107 87.0287 266.21 87.8826 267.428 87.7778C268.35 87.7007 269.168 87.0719 270.097 86.9455C270.916 86.8678 271.734 87.0998 272.39 87.5959C273.041 88.0905 273.61 88.6833 274.078 89.3531C275.757 91.5727 277.119 94.1683 277.199 96.952C277.547 97.2048 278.048 96.8719 278.22 96.4773C278.392 96.0827 278.398 95.6203 278.617 95.2442C278.869 94.8095 279.352 94.5753 279.73 94.2485C280.689 93.4192 280.929 92.0227 280.892 90.7557C280.855 89.4887 280.609 88.2032 280.849 86.9578C280.993 86.1964 281.319 85.4781 281.498 84.7228C281.676 83.9676 281.697 83.1198 281.276 82.4693C280.661 81.5168 279.367 81.3256 278.238 81.2362C276.956 81.1253 275.81 81.2671 274.992 80.185C274.607 79.6211 274.175 79.091 273.7 78.6005C273.531 78.4371 271.892 77.4198 271.892 77.352Z" fill="#512E4E"/>
<path opacity="0.1" d="M238.465 142.361L235.255 136.408L234.237 145.595C234.237 145.595 234.803 149.676 234.689 150.302C234.576 150.928 237.008 156.538 237.008 156.538C237.008 156.538 245.042 170.888 248.322 171.625L259.391 163.684L256.452 159.942C256.452 159.942 255.434 159.544 255.179 159.942C255.179 159.942 249.718 150.527 249.155 149.849C248.593 149.17 248.7 147.805 248.7 147.805C248.7 147.805 247.852 146.899 248.135 146.048C248.418 145.197 246.511 142.25 246.511 142.25L248.264 140.607L238.465 142.361Z" fill="black"/>
<path d="M235.424 135.727L234.575 136.408L233.558 145.595C233.558 145.595 234.123 149.676 234.01 150.302C233.896 150.928 236.331 156.538 236.331 156.538C236.331 156.538 244.362 170.888 247.643 171.625L258.73 163.684L255.787 159.942C255.787 159.942 254.77 159.544 254.514 159.942C254.514 159.942 249.057 150.527 248.491 149.849C247.925 149.17 248.039 147.805 248.039 147.805C248.039 147.805 247.191 146.899 247.474 146.048C247.756 145.197 245.832 142.25 245.832 142.25L247.584 140.607L235.424 135.727Z" fill="white"/>
<path opacity="0.1" d="M288.084 171.727C288.699 172.476 288.311 175.842 288.311 175.842L286.614 178.657C286.614 178.657 286.715 180.476 286.722 182.93L283.868 183.824C283.61 183.904 283.336 183.922 283.07 183.875C282.803 183.828 282.552 183.718 282.336 183.554C282.121 183.39 281.948 183.176 281.831 182.932C281.715 182.687 281.658 182.418 281.667 182.147L282.162 166.24L288.818 168.789C288.253 169.184 288.874 170.152 288.874 170.152C288.874 170.152 287.463 170.978 288.084 171.727Z" fill="black"/>
<path d="M288.422 171.388C289.037 172.134 288.65 175.5 288.65 175.5L286.959 178.318C286.959 178.318 287.06 180.133 287.069 182.587L284.164 183.497C283.911 183.576 283.644 183.594 283.383 183.548C283.123 183.503 282.877 183.395 282.666 183.235C282.456 183.075 282.286 182.866 282.172 182.627C282.059 182.388 282.003 182.125 282.012 181.86L282.507 165.897L289.16 168.453C288.591 168.848 289.212 169.816 289.212 169.816C289.212 169.816 287.801 170.639 288.422 171.388Z" fill="white"/>
<path d="M290.63 163.798C290.63 163.798 290.178 166.693 289.047 166.862C287.915 167.032 287.408 171.545 286.28 171.388C285.151 171.231 285.898 167.189 285.938 166.406C285.978 165.623 284.708 162.38 285.655 161.643C286.602 160.906 289.616 161.643 289.616 161.643L290.63 163.798Z" fill="#CF6F80"/>
<path opacity="0.1" d="M293.022 141.51L295.153 137.194C295.153 137.194 296.004 140.483 296.004 142.241C296.004 143.998 297.191 144.17 297.191 144.17C297.191 144.17 298.492 145.712 297.806 146.837C297.121 147.962 296.847 150.749 296.847 150.749C296.847 150.749 297.071 156.079 296.054 156.816C295.036 157.552 294.808 159.313 294.808 159.313C294.808 159.313 292.942 162.657 293 163.453C293.059 164.248 290.399 169.634 290.399 169.634C290.399 169.634 291.7 162.941 284.121 160.049C284.121 160.049 284.062 157.781 284.628 157.158C285.194 156.535 286.076 156.233 285.523 153.101C284.969 149.969 285.363 146.193 285.363 145.437C285.363 144.682 287.06 139.975 287.06 139.975L293.022 141.51Z" fill="black"/>
<path d="M293.968 136.578L295.832 137.194C295.832 137.194 296.683 140.483 296.683 142.24C296.683 143.998 297.87 144.17 297.87 144.17C297.87 144.17 299.171 145.712 298.485 146.837C297.799 147.962 297.523 150.749 297.523 150.749C297.523 150.749 297.75 156.079 296.732 156.816C295.715 157.552 295.503 159.313 295.503 159.313C295.503 159.313 293.636 162.657 293.695 163.453C293.753 164.248 291.09 169.634 291.09 169.634C291.09 169.634 292.391 162.941 284.812 160.049C284.812 160.049 284.757 157.781 285.322 157.158C285.888 156.535 286.771 156.233 286.217 153.101C285.664 149.969 286.057 146.193 286.057 145.437C286.057 144.682 287.754 139.975 287.754 139.975L293.968 136.578Z" fill="white"/>
<path opacity="0.1" d="M252.806 248.441C252.806 248.441 255.776 246.57 257.725 247.929C259.674 249.289 252.806 248.441 252.806 248.441Z" fill="black"/>
<path opacity="0.1" d="M275.89 242.654C275.89 242.654 278.518 242.315 280.726 244.698C282.934 247.081 275.89 242.654 275.89 242.654Z" fill="black"/>
<g opacity="0.1">
<path opacity="0.1" d="M279.73 93.5702C279.352 93.9001 278.866 94.1313 278.614 94.566C278.399 94.939 278.393 95.4014 278.221 95.7991C278.048 96.1967 277.547 96.5266 277.197 96.2738C277.117 93.4993 275.755 90.8944 274.079 88.6749C273.61 88.006 273.041 87.4142 272.391 86.9208C271.733 86.4236 270.914 86.1906 270.094 86.2673C269.172 86.3936 268.36 87.0225 267.428 87.1027C266.199 87.2044 265.095 86.3505 263.874 86.3104C263.378 86.3142 262.889 86.4246 262.439 86.6341C261.989 86.8436 261.59 87.1474 261.267 87.525C260.625 88.284 260.149 89.1692 259.868 90.1238C259.385 91.5722 259.121 93.0853 259.087 94.6122C259.069 95.4723 258.989 96.5451 258.195 96.8657C258.214 97.0945 258.214 97.3244 258.195 97.5531C258.998 97.2449 259.078 96.1567 259.096 95.2935C259.131 93.7666 259.394 92.2535 259.877 90.805C260.158 89.8505 260.634 88.9653 261.276 88.2063C261.599 87.8288 261.999 87.5248 262.448 87.3148C262.898 87.1048 263.387 86.9936 263.883 86.9886C265.113 87.0318 266.22 87.8857 267.438 87.7809C268.36 87.7038 269.178 87.0749 270.103 86.9485C270.923 86.871 271.742 87.1029 272.4 87.599C273.05 88.0935 273.62 88.6863 274.088 89.3562C275.764 91.5757 277.126 94.1714 277.206 96.9551C277.556 97.2079 278.058 96.8749 278.23 96.4803C278.402 96.0858 278.408 95.6233 278.623 95.2473C278.875 94.8126 279.361 94.5783 279.739 94.2515C280.699 93.4223 280.939 92.0258 280.902 90.7588C280.902 90.7187 280.902 90.6817 280.902 90.6416C280.84 91.7453 280.548 92.8643 279.73 93.5702Z" fill="black"/>
<path opacity="0.1" d="M257.03 93.3545C256.326 92.5745 255.36 92.0505 254.711 91.2243C254.164 90.495 253.851 89.615 253.817 88.7026C253.72 89.8435 254.038 90.9809 254.711 91.9056C255.36 92.7317 256.326 93.2527 257.03 94.0327C257.71 94.7951 258.119 95.7622 258.192 96.7825C258.238 96.1621 258.159 95.5387 257.959 94.9497C257.76 94.3606 257.443 93.8181 257.03 93.3545Z" fill="black"/>
<path opacity="0.1" d="M281.498 84.0446C281.316 84.7999 280.993 85.5182 280.846 86.2796C280.757 86.7945 280.725 87.3176 280.751 87.8395C280.761 87.5446 280.793 87.251 280.846 86.9609C280.993 86.1994 281.316 85.4812 281.498 84.7259C281.602 84.3091 281.636 83.8778 281.599 83.4496C281.579 83.6501 281.545 83.8489 281.498 84.0446Z" fill="black"/>
</g>
<path opacity="0.1" d="M41.81 258.605C58.3562 258.605 71.7695 256.445 71.7695 253.78C71.7695 251.116 58.3562 248.956 41.81 248.956C25.2639 248.956 11.8506 251.116 11.8506 253.78C11.8506 256.445 25.2639 258.605 41.81 258.605Z" fill="#6C63FF"/>
<path d="M42.7755 161.357H40.8477V204.876H42.7755V161.357Z" fill="#535461"/>
<path d="M54.8923 204.746L54.7693 206.707L54.6002 209.481L54.5295 210.634L54.3573 213.409L54.2835 214.561L54.1144 217.336L52.1681 248.801C52.0852 250.155 51.4902 251.426 50.5047 252.355C49.5191 253.285 48.2172 253.802 46.8644 253.802H36.758C35.4014 253.802 34.0961 253.282 33.1098 252.348C32.1236 251.415 31.5312 250.138 31.4542 248.78L29.5079 217.314L29.3388 214.54L29.2681 213.387L29.0928 210.612L29.0221 209.46L28.853 206.685L28.73 204.724C28.7088 204.349 28.764 203.972 28.8923 203.619C29.0207 203.265 29.2194 202.941 29.4766 202.667C29.7337 202.393 30.0438 202.174 30.388 202.023C30.7323 201.873 31.1034 201.795 31.4788 201.793H52.1466C52.5237 201.795 52.8964 201.874 53.2417 202.026C53.5871 202.178 53.8979 202.399 54.155 202.675C54.4121 202.952 54.6102 203.278 54.737 203.634C54.8637 203.99 54.9166 204.369 54.8923 204.746Z" fill="#3F3D56"/>
<path d="M54.7699 206.704L54.5978 209.472H29.0228L28.8506 206.704H54.7699Z" fill="#9D9CB5"/>
<path d="M54.5263 210.625L54.3572 213.393H29.265L29.0928 210.625H54.5263Z" fill="#9D9CB5"/>
<path d="M54.2837 214.549L54.1146 217.314H29.5081L29.3359 214.549H54.2837Z" fill="#9D9CB5"/>
<path d="M25.9198 177.67C37.1485 185.815 41.825 198.553 41.825 198.553C41.825 198.553 28.2965 198.087 17.0648 189.943C5.83309 181.798 1.15039 169.07 1.15039 169.07C1.15039 169.07 14.6789 169.526 25.9198 177.67Z" fill="#6C63FF"/>
<path d="M1.15039 169.07C1.15039 169.07 15.1923 176.884 19.6967 183.355C24.2011 189.826 41.8127 198.559 41.8127 198.559" stroke="#535461" stroke-width="2" stroke-miterlimit="10"/>
<path d="M33.1549 161.264C39.2674 165.694 41.8132 172.627 41.8132 172.627C41.8132 172.627 34.434 172.374 28.3369 167.944C22.2399 163.514 19.6787 156.578 19.6787 156.578C19.6787 156.578 27.0456 156.831 33.1549 161.264Z" fill="#6C63FF"/>
<path d="M19.6787 156.578C19.6787 156.578 27.3223 160.832 29.7759 164.353C32.2295 167.873 41.8132 172.627 41.8132 172.627" stroke="#535461" stroke-width="2" stroke-miterlimit="10"/>
<path d="M50.693 172.276C43.6735 180.01 42.1885 190.118 42.1885 190.118C42.1885 190.118 52.0858 187.683 59.0991 179.945C66.1124 172.208 67.6036 162.103 67.6036 162.103C67.6036 162.103 57.7124 164.541 50.693 172.276Z" fill="#6C63FF"/>
<path d="M67.6097 162.106C67.6097 162.106 58.4657 170.034 56.1413 175.497C53.8168 180.96 42.1885 190.118 42.1885 190.118" stroke="#535461" stroke-width="2" stroke-miterlimit="10"/>
<defs>
<linearGradient id="paint0_linear" x1="144.134" y1="257.581" x2="144.134" y2="79.5068" gradientUnits="userSpaceOnUse">
<stop stop-color="#808080" stop-opacity="0.25"/>
<stop offset="0.54" stop-color="#808080" stop-opacity="0.12"/>
<stop offset="1" stop-color="#808080" stop-opacity="0.1"/>
</linearGradient>
<linearGradient id="paint1_linear" x1="58505.4" y1="166884" x2="58505.4" y2="50165.1" gradientUnits="userSpaceOnUse">
<stop stop-color="#808080" stop-opacity="0.25"/>
<stop offset="0.54" stop-color="#808080" stop-opacity="0.12"/>
<stop offset="1" stop-color="#808080" stop-opacity="0.1"/>
</linearGradient>
</defs>
</svg>
