<svg width="726" height="395" viewBox="0 0 726 395" fill="none" xmlns="http://www.w3.org/2000/svg">
<g clip-path="url(#clip0)">
<path d="M365.33 395C562.191 395 721.778 384.429 721.778 371.389C721.778 358.35 562.191 347.779 365.33 347.779C168.469 347.779 8.88184 358.35 8.88184 371.389C8.88184 384.429 168.469 395 365.33 395Z" fill="#F2F2F2"/>
<path d="M351.668 112.916C293.593 112.916 251.896 150.196 251.896 237.182C251.896 335.766 293.593 361.862 351.668 361.862C409.743 361.862 453.924 333.281 453.924 237.182C453.924 134.455 409.743 112.916 351.668 112.916ZM352.05 329.139C311.825 329.139 290.811 305.527 290.811 237.246C290.811 176.997 312.686 145.225 352.91 145.225C393.134 145.225 415.009 166.095 415.009 237.246C415.009 303.806 392.274 329.139 352.05 329.139Z" fill="#2F2E41"/>
<path d="M217.12 293.102H193.109V222.355C193.109 218.597 191.617 214.993 188.961 212.336C186.305 209.679 182.704 208.186 178.948 208.186H173.322C171.462 208.186 169.621 208.553 167.903 209.265C166.185 209.977 164.624 211.021 163.309 212.336C161.994 213.652 160.951 215.214 160.239 216.933C159.527 218.652 159.161 220.494 159.161 222.355V293.102H91.4326C90.0393 293.102 88.6696 292.741 87.4565 292.056C86.2433 291.37 85.2279 290.382 84.5088 289.188C83.7896 287.994 83.3911 286.634 83.3518 285.241C83.3126 283.847 83.6341 282.467 84.285 281.235L155.968 145.487C156.862 143.794 157.404 141.938 157.561 140.03C157.717 138.123 157.486 136.203 156.881 134.387C156.276 132.571 155.31 130.897 154.04 129.465C152.771 128.033 151.224 126.874 149.494 126.056L145.263 124.057C141.977 122.504 138.22 122.275 134.77 123.417C131.32 124.558 128.441 126.983 126.728 130.189L39.3008 293.828C37.8121 296.614 37.0332 299.725 37.0332 302.885V302.885C37.0332 305.408 37.5299 307.906 38.4948 310.237C39.4598 312.568 40.8742 314.686 42.6572 316.47C44.4402 318.254 46.557 319.669 48.8866 320.635C51.2162 321.6 53.7131 322.097 56.2347 322.097H159.161V366.833C159.161 369.063 159.6 371.272 160.453 373.332C161.306 375.393 162.556 377.265 164.133 378.842C165.709 380.419 167.58 381.67 169.639 382.523C171.699 383.377 173.906 383.816 176.135 383.816H176.135C178.364 383.816 180.571 383.377 182.63 382.523C184.69 381.67 186.561 380.419 188.137 378.842C189.713 377.265 190.964 375.393 191.817 373.332C192.67 371.272 193.109 369.063 193.109 366.833V322.097H217.12C220.963 322.097 224.649 320.57 227.366 317.851C230.083 315.132 231.61 311.444 231.61 307.599V307.599C231.61 303.754 230.083 300.067 227.366 297.348C224.649 294.629 220.963 293.102 217.12 293.102V293.102Z" fill="#6C63FF"/>
<path d="M661.749 293.102H637.737V222.355C637.737 218.597 636.246 214.993 633.59 212.336C630.934 209.679 627.333 208.186 623.577 208.186H617.951C616.091 208.186 614.25 208.553 612.532 209.265C610.814 209.977 609.253 211.021 607.938 212.336C606.623 213.652 605.58 215.214 604.868 216.933C604.156 218.652 603.79 220.494 603.79 222.355V293.102H536.061C534.668 293.102 533.298 292.741 532.085 292.056C530.872 291.37 529.857 290.382 529.138 289.188C528.418 287.994 528.02 286.634 527.981 285.241C527.942 283.847 528.263 282.467 528.914 281.235L600.597 145.487C601.491 143.794 602.032 141.938 602.189 140.03C602.346 138.123 602.115 136.203 601.51 134.387C600.905 132.571 599.939 130.897 598.669 129.465C597.4 128.033 595.853 126.874 594.123 126.056L589.892 124.057C586.606 122.504 582.849 122.275 579.399 123.417C575.949 124.558 573.07 126.983 571.357 130.189L483.93 293.828C482.441 296.614 481.662 299.725 481.662 302.885V302.885C481.662 307.98 483.685 312.867 487.286 316.47C490.887 320.073 495.771 322.097 500.864 322.097H603.79V366.833C603.79 371.337 605.578 375.657 608.762 378.842C611.945 382.027 616.262 383.816 620.764 383.816V383.816C625.265 383.816 629.583 382.027 632.766 378.842C635.949 375.657 637.737 371.337 637.737 366.833V322.097H661.749C665.592 322.097 669.277 320.57 671.995 317.851C674.712 315.132 676.239 311.444 676.239 307.599V307.599C676.239 303.754 674.712 300.067 671.995 297.348C669.277 294.629 665.592 293.102 661.749 293.102Z" fill="#6C63FF"/>
<path d="M223.744 284.817H199.733V214.07C199.733 212.21 199.366 210.367 198.655 208.648C197.943 206.929 196.9 205.368 195.585 204.052C194.27 202.736 192.709 201.693 190.991 200.981C189.273 200.269 187.432 199.902 185.572 199.902H179.946C176.19 199.902 172.588 201.395 169.933 204.052C167.277 206.709 165.785 210.313 165.785 214.07V284.817H98.0566C96.6633 284.817 95.2937 284.457 94.0805 283.771C92.8674 283.086 91.852 282.098 91.1328 280.904C90.4136 279.71 90.0151 278.35 89.9759 276.957C89.9367 275.563 90.2581 274.183 90.909 272.95L162.592 137.202C163.486 135.51 164.028 133.654 164.185 131.746C164.342 129.838 164.111 127.919 163.506 126.103C162.901 124.287 161.934 122.612 160.664 121.181C159.395 119.749 157.848 118.589 156.118 117.772L151.887 115.772C148.601 114.22 144.844 113.991 141.394 115.132C137.944 116.274 135.065 118.698 133.352 121.905L45.9249 285.544C44.4361 288.33 43.6572 291.441 43.6572 294.601V294.601C43.6572 299.696 45.6802 304.583 49.2812 308.186C52.8822 311.789 57.7661 313.813 62.8587 313.813H165.785V358.549C165.785 360.779 166.224 362.987 167.077 365.048C167.93 367.108 169.181 368.98 170.757 370.557C172.333 372.134 174.204 373.385 176.263 374.239C178.323 375.092 180.53 375.532 182.759 375.532H182.759C187.261 375.532 191.578 373.742 194.761 370.557C197.944 367.372 199.733 363.053 199.733 358.549V313.813H223.744C225.647 313.813 227.531 313.438 229.289 312.709C231.047 311.981 232.645 310.913 233.99 309.566C235.336 308.22 236.403 306.622 237.131 304.863C237.859 303.104 238.234 301.219 238.234 299.315V299.315C238.234 297.411 237.859 295.526 237.131 293.767C236.403 292.008 235.336 290.41 233.99 289.064C232.645 287.717 231.047 286.649 229.289 285.921C227.531 285.192 225.647 284.817 223.744 284.817V284.817Z" stroke="#3F3D56" stroke-width="4" stroke-miterlimit="10"/>
<path d="M674.169 284.817H650.158V214.07C650.158 210.313 648.666 206.709 646.01 204.052C643.354 201.395 639.753 199.902 635.997 199.902H630.371C628.511 199.902 626.67 200.269 624.952 200.981C623.234 201.693 621.672 202.736 620.358 204.052C619.043 205.368 618 206.929 617.288 208.648C616.576 210.367 616.21 212.21 616.21 214.07V284.817H548.481C547.088 284.817 545.718 284.457 544.505 283.771C543.292 283.086 542.277 282.098 541.558 280.904C540.838 279.71 540.44 278.35 540.401 276.957C540.362 275.563 540.683 274.183 541.334 272.95L613.017 137.202C613.911 135.51 614.452 133.654 614.609 131.746C614.766 129.838 614.535 127.919 613.93 126.103C613.325 124.287 612.359 122.612 611.089 121.181C609.82 119.749 608.273 118.589 606.543 117.772L602.312 115.772C599.026 114.22 595.269 113.991 591.819 115.132C588.369 116.274 585.49 118.698 583.777 121.905L496.35 285.544C494.861 288.33 494.082 291.441 494.082 294.601C494.082 299.696 496.105 304.583 499.706 308.186C503.307 311.789 508.191 313.813 513.283 313.813H616.21V358.549C616.21 363.053 617.998 367.372 621.182 370.557C624.365 373.742 628.682 375.532 633.184 375.532V375.532C637.685 375.532 642.003 373.742 645.186 370.557C648.369 367.372 650.157 363.053 650.157 358.549V313.813H674.169C676.072 313.813 677.956 313.438 679.714 312.709C681.472 311.981 683.069 310.913 684.415 309.566C685.76 308.22 686.828 306.622 687.556 304.863C688.284 303.104 688.659 301.219 688.659 299.315V299.315C688.659 295.47 687.132 291.782 684.415 289.064C681.698 286.345 678.012 284.817 674.169 284.817V284.817Z" stroke="#3F3D56" stroke-width="4" stroke-miterlimit="10"/>
<path d="M364.916 105.46C306.841 105.46 265.144 142.74 265.144 229.726C265.144 328.31 306.841 354.406 364.916 354.406C422.991 354.406 467.172 325.825 467.172 229.726C467.172 126.999 422.991 105.46 364.916 105.46ZM365.298 321.683C325.074 321.683 304.059 298.071 304.059 229.79C304.059 169.541 325.934 137.769 366.158 137.769C406.382 137.769 428.257 158.639 428.257 229.79C428.257 296.35 405.522 321.683 365.298 321.683V321.683Z" stroke="#3F3D56" stroke-miterlimit="10"/>
<path d="M318.364 21.0617C323.179 21.0617 327.082 17.1565 327.082 12.3392C327.082 7.52184 323.179 3.61664 318.364 3.61664C313.55 3.61664 309.646 7.52184 309.646 12.3392C309.646 17.1565 313.55 21.0617 318.364 21.0617Z" fill="#2F2E41"/>
<path d="M339.627 63.3978C353.131 63.3978 364.079 49.2057 364.079 31.6989C364.079 14.1921 353.131 0 339.627 0C326.122 0 315.175 14.1921 315.175 31.6989C315.175 49.2057 326.122 63.3978 339.627 63.3978Z" fill="#2F2E41"/>
<path opacity="0.1" d="M339.628 53.8243C327.379 53.8243 317.233 42.1477 315.453 26.9122C315.268 28.501 315.175 30.0993 315.176 31.6989C315.176 49.2057 326.123 63.3978 339.628 63.3978C353.132 63.3978 364.08 49.2058 364.08 31.6989C364.08 30.0993 363.988 28.501 363.803 26.9122C362.022 42.1477 351.877 53.8243 339.628 53.8243Z" fill="black"/>
<path d="M389.385 124.53C388.859 126.69 386.595 128.419 384.088 129.627C378.816 132.167 372.313 132.925 366.005 133.179C364.396 133.277 362.782 133.247 361.177 133.09C358.068 132.789 355.152 131.448 352.899 129.283C352.739 129.178 352.607 129.034 352.517 128.864C352.427 128.695 352.381 128.505 352.384 128.313C352.387 128.121 352.438 127.933 352.534 127.766C352.629 127.599 352.765 127.46 352.929 127.36C356.287 123.669 361.891 121.406 367.536 119.777C371.816 118.541 379.281 115.341 383.949 115.773C388.471 116.191 390.048 121.804 389.385 124.53Z" fill="#3F3D56"/>
<path opacity="0.1" d="M389.385 124.53C388.859 126.69 386.595 128.419 384.088 129.627C378.816 132.167 372.313 132.925 366.005 133.179C364.396 133.277 362.782 133.247 361.177 133.09C358.068 132.789 355.152 131.448 352.899 129.283C352.739 129.178 352.607 129.034 352.517 128.864C352.427 128.695 352.381 128.505 352.384 128.313C352.387 128.121 352.438 127.933 352.534 127.766C352.629 127.599 352.765 127.46 352.929 127.36C356.287 123.669 361.891 121.406 367.536 119.777C371.816 118.541 379.281 115.341 383.949 115.773C388.471 116.191 390.048 121.804 389.385 124.53Z" fill="black"/>
<path d="M322.353 108.394C320.744 111.549 320.452 115.215 321.543 118.586C322.652 121.931 324.729 124.871 327.509 127.035C334.331 132.506 343.719 133.258 352.46 133.183C360.122 133.116 367.773 132.591 375.371 131.611C377.918 131.386 380.42 130.804 382.805 129.884C385.659 128.649 388.166 126.384 389.182 123.444C390.197 120.504 389.476 116.904 387.064 114.942C384.944 113.219 382.021 112.982 379.295 112.818L363.694 111.88C365.235 110.319 367.287 109.436 369.164 108.301C371.654 106.796 373.309 104.269 375.119 101.99C377.909 98.6541 380.945 95.5315 384.2 92.6485C384.708 95.5628 386.551 97.9559 388.719 99.9667C390.888 101.977 393.387 103.596 395.641 105.511C401.1 110.148 405.031 116.441 410.772 120.723C414.722 119.685 418.414 117.841 421.617 115.306L419.386 111.262C419.2 110.846 418.91 110.485 418.545 110.212C417.913 109.824 417.099 110.024 416.365 109.914C414.405 109.62 413.549 107.356 412.78 105.528C410.668 100.51 406.625 96.6168 403.173 92.4089C400.624 89.3026 398.363 85.9708 396.418 82.4547C395.258 80.3577 394.196 78.1743 392.622 76.3676C391.048 74.561 388.842 73.1406 386.447 73.1355C384.33 73.131 382.378 74.2062 380.559 75.2876C375.016 78.5816 369.683 82.2168 364.591 86.1721C361.926 88.2422 359.278 90.4292 356.151 91.6986C354.835 92.2329 353.448 92.5981 352.185 93.2483C349.974 94.3872 348.295 96.314 346.488 98.0244C340.043 104.125 331.219 108.078 322.353 108.394Z" fill="#3F3D56"/>
<path d="M354.975 64.9721C354.903 66.8369 354.506 68.6748 353.803 70.4035C353.447 71.2656 352.917 72.0451 352.247 72.6934C351.576 73.3416 350.779 73.8447 349.906 74.1712C348.666 74.5036 347.366 74.5458 346.106 74.2945C345.008 74.1798 343.95 73.8191 343.01 73.2393C341.548 72.233 340.818 70.4375 340.553 68.6802C340.287 66.925 340.406 65.1316 340.236 63.3637C340.07 61.9358 339.799 60.5221 339.424 59.1344C339.309 58.6727 339.192 58.2132 339.077 57.7537C338.964 57.2941 338.854 56.8346 338.752 56.3751C338.658 55.9432 338.571 55.5092 338.496 55.0731C338.435 54.7051 338.38 54.3349 338.339 53.9626C338.302 52.8588 338.118 51.765 337.793 50.7097C337.487 50.0253 337.105 49.378 336.653 48.7801C336.459 48.5036 336.272 48.227 336.1 47.9398C335.602 47.1934 335.371 46.3005 335.443 45.406C335.464 45.2677 335.497 45.1317 335.543 44.9997C335.56 44.9486 335.579 44.8976 335.6 44.8486C335.792 44.7967 335.967 44.6988 336.112 44.5634C336.257 44.4281 336.367 44.2594 336.432 44.0721C336.505 43.6696 336.471 43.2549 336.332 42.8701C336.173 42.3323 335.956 41.8136 335.683 41.3234C335.505 41 334.899 40.4171 334.895 40.0469C334.886 39.3023 336.34 38.7024 336.929 38.4088C338.727 37.508 340.732 37.1013 342.738 37.2302C344.025 37.3174 345.42 37.7131 346.13 38.7917C346.768 39.764 346.683 41.0234 346.955 42.1531C346.983 42.3173 347.053 42.4717 347.157 42.602C347.296 42.7285 347.47 42.8088 347.656 42.8317C347.971 42.8944 348.294 42.9074 348.613 42.87H348.615C348.7 42.8634 348.784 42.8513 348.866 42.8339C349.363 42.7422 349.833 42.5393 350.24 42.2403C350.504 42.1701 350.769 42.1127 351.037 42.068C351.048 42.0669 351.059 42.0647 351.069 42.0616C352.134 45.4251 352.273 49.0311 353.144 52.4563C353.576 54.1604 354.195 55.8432 354.282 57.5962C354.288 57.6728 354.29 57.7515 354.293 57.8302C354.305 58.394 354.261 58.962 354.284 59.5237C354.292 59.7766 354.321 60.0284 354.369 60.2768C354.464 60.6762 354.583 61.0698 354.724 61.4554L354.731 61.4745C354.771 61.5979 354.809 61.7234 354.841 61.849C354.864 61.9404 354.886 62.0298 354.903 62.1213L354.905 62.1276C355.062 63.0677 355.086 64.0254 354.975 64.9721V64.9721Z" fill="#FBBEBE"/>
<path d="M340.053 42.9744C346.981 42.9744 352.598 37.3547 352.598 30.4225C352.598 23.4902 346.981 17.8705 340.053 17.8705C333.124 17.8705 327.508 23.4902 327.508 30.4225C327.508 37.3547 333.124 42.9744 340.053 42.9744Z" fill="#FBBEBE"/>
<path d="M419.699 98.8112C419.335 95.3867 418.119 92.1082 416.161 89.276C416.486 91.212 416.812 93.1473 417.139 95.0818C416.733 95.1994 416.301 95.1958 415.897 95.0715C415.493 94.9472 415.134 94.7075 414.864 94.3819C414.335 93.7219 413.931 92.9716 413.671 92.1672C412.246 88.6272 410.382 85.2801 408.123 82.2044C400.137 81.5385 392.242 78.2261 385.219 74.3648C378.194 70.5056 371.62 65.8784 364.688 61.8554C363.486 61.1286 362.234 60.4887 360.941 59.9407C358.773 59.0706 356.338 58.6196 354.282 57.5963C354.144 57.5282 354.005 57.4558 353.869 57.3814C353.405 57.1286 352.965 56.833 352.555 56.4985C352.334 56.3186 352.124 56.1254 351.926 55.9198C350.9 54.7257 350.087 53.3642 349.521 51.8947C348.418 49.4524 348.024 46.5059 346.923 44.0636C347.429 43.5902 347.998 43.1887 348.613 42.8701H348.615C348.705 42.8233 348.794 42.7786 348.885 42.7361C349.321 42.5307 349.774 42.3648 350.24 42.2404C350.503 42.1702 350.769 42.1127 351.037 42.0681C351.048 42.067 351.059 42.0648 351.069 42.0617C352.311 41.8591 353.584 41.9599 354.779 42.3553C356.527 42.9467 358.001 44.1274 359.47 45.2443C361.857 46.9269 364.146 48.7438 366.327 50.6863C367.539 51.8479 368.645 53.1244 369.948 54.1796C371.031 55.016 372.173 55.7732 373.365 56.4453C380.418 60.6491 387.472 64.8522 394.526 69.0547C396.914 70.4779 399.304 71.9012 401.638 73.4074C405.185 75.6965 408.604 78.1771 412.021 80.6556C414.034 82.115 416.047 83.5752 418.06 85.036C418.72 85.4574 419.299 85.9934 419.771 86.6188C420.188 87.3289 420.447 88.1206 420.53 88.9399C421.035 92.2499 420.75 95.6325 419.699 98.8112V98.8112Z" fill="#FBBEBE"/>
<path d="M358.086 74.4115C357.24 78.209 353.404 80.5046 351.399 83.8404C348.907 87.9804 349.923 92.7927 350.859 97.5347C349.149 99.0091 347.439 100.483 345.728 101.958C344.784 102.768 343.84 103.583 342.823 104.3C341.341 105.294 339.793 106.184 338.188 106.964C336.674 107.742 335.16 108.522 333.646 109.302C332.239 110.093 330.748 110.726 329.2 111.187C326.217 111.952 323.049 111.416 320.098 110.529C319.75 110.438 319.415 110.301 319.103 110.123C318.919 110.013 318.758 109.868 318.631 109.695C318.34 109.173 318.234 108.568 318.331 107.978C318.631 103.009 319.845 98.1432 321.055 93.3139C321.701 90.4166 322.571 87.5737 323.655 84.8105C324.719 82.4428 325.941 80.1498 327.314 77.9474C328.83 75.1762 330.625 72.5678 332.673 70.163C333.669 69.2375 334.508 68.1553 335.156 66.9591C335.911 65.2359 335.62 63.2595 335.773 61.3831C335.89 59.9733 336.264 58.5969 336.876 57.3218V57.3197C337.204 56.6329 337.598 55.9801 338.054 55.3709C338.26 55.8517 338.467 56.3318 338.673 56.8112C338.809 57.1261 338.944 57.4402 339.077 57.7537C339.251 58.1579 339.424 58.5607 339.596 58.9621C340.091 60.1152 340.586 61.2675 341.08 62.4192C341.614 63.8697 342.375 65.2262 343.334 66.4379C343.772 67.0584 344.364 67.5545 345.051 67.8778C345.739 68.2011 346.498 68.3404 347.255 68.2824C348.013 68.2243 348.742 67.9707 349.372 67.5464C350.002 67.122 350.511 66.5415 350.85 65.8614C351.565 64.5919 352.082 63.221 352.385 61.7958C352.805 60.0605 352.863 58.2572 352.555 56.4985C352.043 53.1116 350.603 49.6524 349.557 46.5059C349.131 45.4568 348.885 44.3435 348.828 43.2126C348.83 43.0855 348.843 42.9589 348.866 42.8339C348.873 42.802 348.879 42.768 348.885 42.7361C349.321 42.5307 349.774 42.3648 350.24 42.2404C350.504 42.1702 350.769 42.1127 351.037 42.0681C351.958 47.0548 352.88 52.0415 353.804 57.0282C353.825 57.1452 353.848 57.2623 353.869 57.3814C354.001 58.0962 354.135 58.811 354.284 59.5237C354.418 60.1705 354.563 60.8151 354.724 61.4554L354.731 61.4746C354.786 61.6916 354.843 61.9065 354.903 62.1213L354.905 62.1277C355.069 62.7149 355.251 63.2978 355.458 63.8722C356.708 67.3336 358.887 70.8183 358.086 74.4115Z" fill="#6C63FF"/>
<path d="M408.998 127.778C408.958 128.51 409.1 129.24 409.41 129.903C410.195 131.339 412.079 131.666 413.709 131.8C423.232 132.583 432.812 132.291 442.269 130.929C442.782 130.894 443.28 130.74 443.723 130.478C445.068 129.535 444.239 127.236 442.771 126.5C441.302 125.764 439.56 125.941 437.949 125.623C436.349 125.22 434.824 124.558 433.437 123.665C430.17 121.787 426.95 119.829 423.778 117.791C421.89 116.577 419.661 115.282 417.535 116.002C411.774 117.952 408.96 121.561 408.998 127.778Z" fill="#3F3D56"/>
<path d="M338.801 56.1092V56.1113C338.786 56.2007 338.771 56.2879 338.752 56.3751C338.729 56.5198 338.701 56.6666 338.673 56.8112C338.41 58.1622 338.086 59.5067 337.714 60.8427C336.694 64.5338 335.327 68.1654 333.97 71.7438C330.33 81.3385 326.689 90.934 323.047 100.53C322.129 102.947 321.212 105.366 320.168 107.734C319.82 108.523 319.46 109.319 319.103 110.123C317.823 113.001 316.594 115.973 316.186 119.037C315.805 121.053 315.761 123.118 316.056 125.149C316.464 127.157 317.683 129.119 319.59 129.861C320.521 130.225 321.854 130.712 321.599 131.68C321.461 132.212 320.857 132.472 320.315 132.561C319.599 132.675 318.867 132.63 318.17 132.429C317.473 132.229 316.829 131.877 316.284 131.399C315.265 130.495 314.483 129.089 313.128 128.938C312.191 128.836 311.327 129.397 310.468 129.791C306.964 131.393 302.882 130.272 299.201 129.134C299.49 127.642 300.987 126.659 302.474 126.362C303.96 126.062 305.497 126.274 307.013 126.234C307.499 126.26 307.98 126.136 308.393 125.879C308.763 125.539 309.022 125.096 309.137 124.606C310.114 121.711 310.84 118.738 311.308 115.718C311.797 112.563 312.001 109.359 312.699 106.242C313.241 103.811 314.079 101.456 314.797 99.0686C316.187 94.1539 317.328 89.1722 318.216 84.1425C318.665 82.0528 318.987 79.9378 319.18 77.8091C319.301 76.0433 319.243 74.269 319.413 72.5096C319.699 70.2207 320.176 67.9597 320.84 65.7508C321.491 63.3404 322.141 60.9314 322.79 58.5238C323.753 54.9604 324.787 51.2586 327.228 48.4887C328.075 47.5136 329.114 46.723 330.28 46.166C331.446 45.6091 332.713 45.2975 334.004 45.2507C334.488 45.2501 334.971 45.3022 335.443 45.406C335.522 45.4252 335.601 45.4443 335.679 45.4656C336.195 45.6004 336.689 45.8051 337.149 46.0741C337.901 45.5954 338.284 45.7634 338.784 46.5017C339.222 47.2829 339.428 48.1729 339.379 49.0674C339.421 51.4281 339.228 53.7871 338.801 56.1092Z" fill="#FBBEBE"/>
<path d="M339.628 58.9302L339.596 58.9621L339.424 59.1344L337.714 60.8427L336.877 57.3218L334.004 45.2507C334.488 45.2501 334.971 45.3022 335.443 45.406C335.464 45.2677 335.497 45.1316 335.543 44.9996L335.679 45.4655L336.653 48.7801L338.497 55.0731L338.801 56.1092V56.1113L339.628 58.9302Z" fill="#6C63FF"/>
<path d="M350.476 20.4202C350.474 21.5379 350.253 22.6444 349.823 23.6764C349.394 24.7084 348.766 25.6457 347.975 26.4347C347.688 26.7219 347.381 26.9877 347.056 27.23C345.589 28.3367 343.801 28.9358 341.964 28.9366H331.763C329.509 28.9331 327.348 28.0348 325.756 26.4388C324.163 24.8428 323.269 22.6797 323.269 20.4244C323.269 18.169 324.163 16.0059 325.756 14.4099C327.348 12.814 329.509 11.9156 331.763 11.9121H341.964C344.218 11.918 346.378 12.816 347.973 14.4101C349.568 16.0041 350.467 18.1648 350.476 20.4202V20.4202Z" fill="#2F2E41"/>
<path d="M360.04 21.0617C364.855 21.0617 368.758 17.1565 368.758 12.3392C368.758 7.52184 364.855 3.61664 360.04 3.61664C355.225 3.61664 351.322 7.52184 351.322 12.3392C351.322 17.1565 355.225 21.0617 360.04 21.0617Z" fill="#2F2E41"/>
<path opacity="0.1" d="M359.827 3.61664C359.72 3.61664 359.614 3.62089 359.508 3.62471C361.763 3.70674 363.898 4.66077 365.465 6.28609C367.031 7.9114 367.907 10.0813 367.907 12.3392C367.907 14.597 367.031 16.7669 365.465 18.3922C363.898 20.0175 361.763 20.9716 359.508 21.0536C359.614 21.0574 359.72 21.0617 359.827 21.0617C362.139 21.0617 364.356 20.1427 365.991 18.5069C367.626 16.8711 368.544 14.6525 368.544 12.3392C368.544 10.0258 367.626 7.8072 365.991 6.17141C364.356 4.53562 362.139 3.61664 359.827 3.61664V3.61664Z" fill="black"/>
<path opacity="0.1" d="M318.364 3.61664C318.471 3.61664 318.577 3.62089 318.683 3.62471C316.428 3.70674 314.293 4.66077 312.726 6.28609C311.16 7.9114 310.285 10.0813 310.285 12.3392C310.285 14.597 311.16 16.7669 312.726 18.3922C314.293 20.0175 316.428 20.9716 318.683 21.0536C318.577 21.0574 318.471 21.0617 318.364 21.0617C316.054 21.0596 313.838 20.1398 312.205 18.5042C310.572 16.8686 309.654 14.6512 309.654 12.3392C309.654 10.0271 310.572 7.80969 312.205 6.17412C313.838 4.53855 316.054 3.61867 318.364 3.61664Z" fill="black"/>
<path opacity="0.1" d="M347.056 27.23C345.589 28.3367 343.801 28.9357 341.964 28.9366H331.763C329.926 28.9357 328.138 28.3367 326.671 27.23H347.056Z" fill="black"/>
<path d="M412.93 90.4327C412.93 90.4327 415.127 96.7689 417.139 95.0818L415.536 86.7997L412.93 90.4327Z" fill="#FBBEBE"/>
<path d="M680.37 283.659C682.417 284.403 684.609 284.662 686.773 284.414C688.936 284.167 691.013 283.42 692.84 282.232C694.666 281.044 696.191 279.448 697.296 277.57C698.4 275.692 699.054 273.583 699.205 271.409C699.356 269.235 699 267.055 698.165 265.042C697.331 263.029 696.04 261.238 694.396 259.809C692.751 258.38 690.797 257.353 688.688 256.809C686.579 256.264 684.373 256.217 682.243 256.672L682.595 263.914L679.17 257.707C675.809 259.288 673.212 262.138 671.951 265.633C671.503 266.857 671.23 268.139 671.142 269.439C670.925 272.491 671.709 275.53 673.375 278.096C675.04 280.662 677.496 282.615 680.37 283.659V283.659Z" fill="#57B894"/>
<path d="M697.315 367.66C696.106 361.5 701.345 356.04 706.519 352.49C711.694 348.941 717.74 345.454 719.506 339.43C722.043 330.774 714.485 322.846 708.602 316.009C704.238 310.935 700.49 305.362 697.437 299.406C696.213 297.017 695.088 294.521 694.766 291.856C694.302 288.019 695.534 284.2 696.776 280.54C700.911 268.347 705.332 256.256 710.039 244.267" stroke="#3F3D56" stroke-miterlimit="10"/>
<path d="M680.949 281.794C682.996 282.538 685.188 282.797 687.352 282.55C689.516 282.302 691.592 281.555 693.419 280.367C695.245 279.179 696.77 277.584 697.875 275.705C698.979 273.827 699.633 271.718 699.784 269.544C699.935 267.37 699.579 265.191 698.744 263.178C697.91 261.165 696.619 259.373 694.975 257.944C693.33 256.516 691.376 255.489 689.267 254.944C687.158 254.4 684.952 254.353 682.822 254.807L683.174 262.05L679.749 255.843C676.388 257.423 673.791 260.274 672.53 263.768C672.082 264.993 671.809 266.274 671.721 267.575C671.505 270.626 672.288 273.665 673.954 276.231C675.619 278.797 678.075 280.75 680.949 281.794V281.794Z" stroke="#3F3D56" stroke-miterlimit="10"/>
<path d="M695.596 241.766C696.4 239.548 697.748 237.569 699.517 236.009C701.286 234.45 703.419 233.361 705.719 232.843L706.877 239.729L709.023 232.497C712.004 232.541 714.894 233.532 717.275 235.327C719.656 237.121 721.406 239.626 722.271 242.481C723.137 245.335 723.073 248.391 722.09 251.206C721.107 254.022 719.254 256.452 716.801 258.146C714.347 259.84 711.419 260.71 708.439 260.63C705.459 260.55 702.581 259.525 700.221 257.702C697.862 255.879 696.142 253.353 695.311 250.489C694.479 247.625 694.579 244.57 695.596 241.766H695.596Z" fill="#57B894"/>
<path d="M696.368 239.28C697.171 237.062 698.519 235.083 700.288 233.523C702.057 231.964 704.19 230.875 706.49 230.357L707.648 237.242L709.795 230.011C712.776 230.055 715.665 231.046 718.046 232.841C720.428 234.635 722.177 237.14 723.043 239.994C723.908 242.849 723.845 245.904 722.861 248.72C721.878 251.536 720.026 253.966 717.572 255.66C715.118 257.354 712.19 258.224 709.21 258.144C706.23 258.064 703.353 257.039 700.993 255.216C698.633 253.393 696.914 250.867 696.082 248.003C695.251 245.138 695.351 242.084 696.368 239.28H696.368Z" stroke="#3F3D56" stroke-miterlimit="10"/>
<path d="M706.133 316.148C709.379 317.327 712.945 317.268 716.151 315.985C719.357 314.702 721.979 312.283 723.518 309.189C725.056 306.096 725.402 302.544 724.492 299.211C723.581 295.878 721.476 292.997 718.579 291.117L716.929 296.674L715.759 289.708C715.748 289.702 715.736 289.698 715.724 289.694C713.987 289.063 712.144 288.78 710.298 288.862C708.452 288.944 706.641 289.388 704.967 290.171C703.293 290.953 701.79 292.058 700.543 293.422C699.296 294.786 698.33 296.383 697.7 298.12C697.07 299.858 696.789 301.703 696.872 303.549C696.954 305.396 697.4 307.208 698.183 308.882C698.966 310.557 700.071 312.06 701.435 313.307C702.799 314.554 704.395 315.519 706.132 316.148H706.133Z" fill="#57B894"/>
<path d="M706.801 313.63C710.048 314.808 713.614 314.75 716.82 313.467C720.026 312.183 722.648 309.764 724.186 306.671C725.725 303.577 726.071 300.026 725.16 296.693C724.25 293.36 722.145 290.479 719.248 288.599L717.598 294.156L716.428 287.19C716.417 287.184 716.405 287.18 716.393 287.176C714.656 286.545 712.813 286.262 710.967 286.344C709.121 286.425 707.31 286.87 705.636 287.653C703.962 288.435 702.459 289.54 701.212 290.904C699.965 292.268 698.999 293.864 698.369 295.602C697.739 297.34 697.458 299.185 697.541 301.031C697.623 302.878 698.069 304.69 698.852 306.364C699.635 308.038 700.74 309.542 702.104 310.789C703.468 312.035 705.064 313.001 706.801 313.63H706.801Z" stroke="#3F3D56" stroke-miterlimit="10"/>
<path d="M691.491 339.516C692.05 342.694 693.683 345.583 696.117 347.699C698.552 349.815 701.639 351.029 704.862 351.138C708.085 351.246 711.247 350.243 713.819 348.296C716.39 346.348 718.214 343.576 718.984 340.443C719.755 337.31 719.425 334.007 718.051 331.088C716.677 328.169 714.341 325.812 711.436 324.412C708.53 323.011 705.232 322.653 702.095 323.397C698.957 324.141 696.17 325.942 694.202 328.498L700.467 337.934L691.906 332.925C691.242 335.057 691.1 337.318 691.491 339.516V339.516Z" fill="#57B894"/>
<path d="M692.071 337.652C692.629 340.829 694.262 343.719 696.696 345.835C699.131 347.951 702.218 349.165 705.441 349.273C708.664 349.382 711.826 348.378 714.398 346.431C716.969 344.484 718.793 341.711 719.563 338.578C720.334 335.445 720.004 332.142 718.63 329.223C717.255 326.305 714.92 323.947 712.015 322.547C709.109 321.147 705.811 320.789 702.674 321.532C699.536 322.276 696.749 324.077 694.781 326.633L701.046 336.069L692.485 331.061C691.821 333.193 691.679 335.453 692.071 337.652V337.652Z" stroke="#3F3D56" stroke-miterlimit="10"/>
<path d="M6.08612 317.936C7.43103 318.426 8.87111 318.596 10.2929 318.433C11.7146 318.27 13.0792 317.779 14.279 316.999C15.4788 316.219 16.4811 315.17 17.2068 313.936C17.9326 312.702 18.3619 311.316 18.461 309.888C18.5602 308.46 18.3264 307.028 17.7781 305.705C17.2298 304.383 16.3819 303.206 15.3014 302.267C14.2209 301.328 12.9372 300.653 11.5516 300.296C10.1659 299.938 8.7162 299.907 7.31663 300.206L7.54791 304.964L5.29781 300.886C3.08947 301.924 1.38344 303.797 0.554614 306.093C0.260264 306.898 0.0813214 307.74 0.0231239 308.594C-0.118903 310.599 0.396145 312.596 1.49022 314.282C2.58429 315.967 4.19776 317.25 6.08612 317.936V317.936Z" fill="#57B894"/>
<path d="M17.2202 373.127C16.4259 369.08 19.8677 365.492 23.2674 363.16C26.6671 360.828 30.6395 358.537 31.7995 354.579C33.4666 348.892 28.5008 343.683 24.6358 339.191C21.7683 335.858 19.3058 332.196 17.2998 328.282C16.4277 326.745 15.8337 325.066 15.5452 323.322C15.2404 320.801 16.0499 318.292 16.8655 315.888C19.5824 307.876 22.4871 299.933 25.5799 292.056" stroke="#3F3D56" stroke-miterlimit="10"/>
<path d="M6.46699 316.711C7.81189 317.2 9.25198 317.37 10.6737 317.208C12.0955 317.045 13.46 316.554 14.6599 315.774C15.8597 314.994 16.862 313.945 17.5877 312.711C18.3134 311.477 18.7428 310.091 18.8419 308.663C18.941 307.234 18.7072 305.803 18.1589 304.48C17.6106 303.157 16.7628 301.98 15.6823 301.042C14.6018 300.103 13.3181 299.428 11.9324 299.07C10.5468 298.713 9.09707 298.682 7.6975 298.98L7.92878 303.739L5.67868 299.661C3.47033 300.699 1.7643 302.572 0.935474 304.868C0.641127 305.672 0.462187 306.514 0.403986 307.369C0.26195 309.374 0.776994 311.371 1.87107 313.057C2.96514 314.742 4.57861 316.025 6.46699 316.711V316.711Z" stroke="#3F3D56" stroke-miterlimit="10"/>
<path d="M16.0912 290.412C16.619 288.955 17.5048 287.654 18.6671 286.63C19.8293 285.605 21.2306 284.89 22.7418 284.55L23.5026 289.074L24.9131 284.322C26.8715 284.351 28.77 285.002 30.3344 286.181C31.8989 287.36 33.0485 289.006 33.6171 290.882C34.1857 292.757 34.144 294.765 33.4979 296.615C32.8519 298.465 31.6349 300.061 30.0228 301.174C28.4107 302.287 26.4867 302.859 24.5288 302.806C22.5709 302.754 20.6803 302.08 19.13 300.882C17.5797 299.685 16.4499 298.025 15.9037 296.143C15.3574 294.261 15.4231 292.254 16.0912 290.412V290.412Z" fill="#57B894"/>
<path d="M16.598 288.779C17.1258 287.322 18.0116 286.021 19.1739 284.996C20.3361 283.972 21.7374 283.257 23.2486 282.916L24.0094 287.44L25.4199 282.689C27.3783 282.718 29.2768 283.369 30.8413 284.548C32.4058 285.727 33.5553 287.373 34.1239 289.248C34.6925 291.124 34.6508 293.131 34.0048 294.981C33.3587 296.831 32.1417 298.428 30.5296 299.541C28.9175 300.654 26.9936 301.225 25.0357 301.173C23.0778 301.12 21.1872 300.447 19.6368 299.249C18.0865 298.051 16.9567 296.392 16.4105 294.51C15.8643 292.628 15.9299 290.621 16.598 288.779V288.779Z" stroke="#3F3D56" stroke-miterlimit="10"/>
<path d="M23.0134 339.283C25.1463 340.057 27.4893 340.019 29.5958 339.175C31.7023 338.332 33.4251 336.743 34.4357 334.71C35.4463 332.678 35.6741 330.344 35.0757 328.155C34.4773 325.965 33.0945 324.072 31.1908 322.837L30.107 326.488L29.3385 321.911C29.3309 321.907 29.323 321.904 29.315 321.902C28.1741 321.487 26.9627 321.301 25.7499 321.354C24.5372 321.408 23.3468 321.7 22.247 322.214C21.1471 322.728 20.1593 323.454 19.3399 324.35C18.5206 325.247 17.8858 326.296 17.4718 327.437C17.0578 328.579 16.8728 329.791 16.9273 331.005C16.9818 332.218 17.2747 333.409 17.7893 334.509C18.304 335.609 19.0302 336.597 19.9266 337.416C20.823 338.235 21.8719 338.869 23.0134 339.283V339.283Z" fill="#57B894"/>
<path d="M23.4539 337.628C25.5868 338.402 27.9298 338.364 30.0363 337.521C32.1428 336.678 33.8656 335.088 34.8762 333.056C35.8868 331.023 36.1146 328.69 35.5162 326.5C34.9178 324.31 33.535 322.418 31.6314 321.182L30.5475 324.833L29.779 320.256C29.7714 320.253 29.7636 320.25 29.7555 320.247C28.6149 319.833 27.4039 319.648 26.1918 319.703C24.9797 319.757 23.7901 320.049 22.691 320.564C20.4712 321.602 18.7547 323.48 17.9191 325.785C17.0834 328.09 17.1971 330.633 18.2351 332.854C19.2731 335.075 21.1503 336.792 23.4539 337.628V337.628Z" stroke="#3F3D56" stroke-miterlimit="10"/>
<path d="M13.3939 354.636C13.7606 356.724 14.8337 358.622 16.4332 360.012C18.0327 361.402 20.0613 362.2 22.1788 362.271C24.2963 362.343 26.3739 361.683 28.0633 360.404C29.7526 359.125 30.9509 357.303 31.4572 355.245C31.9635 353.186 31.7469 351.016 30.8439 349.098C29.9409 347.181 28.4064 345.632 26.4976 344.712C24.5888 343.792 22.4219 343.557 20.3603 344.045C18.2986 344.534 16.4677 345.717 15.1744 347.396L19.2912 353.596L13.6662 350.306C13.23 351.706 13.1366 353.191 13.3939 354.636V354.636Z" fill="#57B894"/>
<path d="M13.7748 353.411C14.1415 355.499 15.2146 357.397 16.8141 358.787C18.4135 360.177 20.4421 360.975 22.5597 361.046C24.6772 361.118 26.7548 360.458 28.4441 359.179C30.1335 357.9 31.3318 356.078 31.838 354.019C32.3443 351.961 32.1278 349.791 31.2248 347.873C30.3218 345.955 28.7872 344.407 26.8784 343.487C24.9697 342.567 22.8028 342.331 20.7411 342.82C18.6795 343.309 16.8485 344.492 15.5553 346.171L19.6721 352.371L14.047 349.08C13.6109 350.481 13.5175 351.966 13.7748 353.411V353.411Z" stroke="#3F3D56" stroke-miterlimit="10"/>
<path d="M324.99 230.629C331.335 230.629 336.478 223.97 336.478 215.755C336.478 207.54 331.335 200.88 324.99 200.88C318.646 200.88 313.503 207.54 313.503 215.755C313.503 223.97 318.646 230.629 324.99 230.629Z" fill="#2F2E41"/>
<path d="M387.495 230.967C393.84 230.967 398.983 224.308 398.983 216.093C398.983 207.878 393.84 201.219 387.495 201.219C381.151 201.219 376.008 207.878 376.008 216.093C376.008 224.308 381.151 230.967 387.495 230.967Z" fill="#2F2E41"/>
<path d="M378.711 260.039C378.711 266.76 369.332 272.209 357.763 272.209C346.195 272.209 336.815 266.76 336.815 260.039C336.815 254.218 343.85 249.35 353.249 248.16C354.746 247.963 356.254 247.866 357.763 247.87C360.292 247.861 362.815 248.134 365.284 248.681C373.136 250.432 378.711 254.861 378.711 260.039Z" fill="#2F2E41"/>
<path d="M327.693 227.249C334.037 227.249 339.18 220.589 339.18 212.374C339.18 204.159 334.037 197.5 327.693 197.5C321.348 197.5 316.205 204.159 316.205 212.374C316.205 220.589 321.348 227.249 327.693 227.249Z" stroke="#3F3D56" stroke-miterlimit="10"/>
<path d="M390.198 227.587C396.543 227.587 401.686 220.927 401.686 212.712C401.686 204.497 396.543 197.838 390.198 197.838C383.854 197.838 378.711 204.497 378.711 212.712C378.711 220.927 383.854 227.587 390.198 227.587Z" stroke="#3F3D56" stroke-miterlimit="10"/>
<path d="M360.466 268.829C372.035 268.829 381.414 263.38 381.414 256.659C381.414 249.938 372.035 244.489 360.466 244.489C348.897 244.489 339.519 249.938 339.519 256.659C339.519 263.38 348.897 268.829 360.466 268.829Z" stroke="#3F3D56" stroke-miterlimit="10"/>
<path d="M365.534 249.695C365.539 250.545 365.22 251.366 364.642 251.988C364.369 252.287 364.037 252.525 363.667 252.689C363.297 252.853 362.897 252.939 362.493 252.94H355.736C354.903 252.911 354.116 252.554 353.546 251.946C352.976 251.337 352.67 250.528 352.695 249.695C352.691 249.036 352.884 248.391 353.249 247.842C354.744 247.631 356.253 247.528 357.763 247.532C360.295 247.523 362.819 247.814 365.284 248.397C365.45 248.809 365.535 249.25 365.534 249.695V249.695Z" fill="white"/>
<path d="M327.693 211.698C329.559 211.698 331.072 210.185 331.072 208.318C331.072 206.451 329.559 204.937 327.693 204.937C325.827 204.937 324.314 206.451 324.314 208.318C324.314 210.185 325.827 211.698 327.693 211.698Z" fill="white"/>
<path d="M390.536 211.698C392.402 211.698 393.915 210.185 393.915 208.318C393.915 206.451 392.402 204.937 390.536 204.937C388.67 204.937 387.157 206.451 387.157 208.318C387.157 210.185 388.67 211.698 390.536 211.698Z" fill="white"/>
<path opacity="0.3" d="M393.915 243.475C395.781 243.475 397.293 241.961 397.293 240.094C397.293 238.227 395.781 236.714 393.915 236.714C392.049 236.714 390.536 238.227 390.536 240.094C390.536 241.961 392.049 243.475 393.915 243.475Z" fill="#6C63FF"/>
<path opacity="0.3" d="M311.475 243.475C313.341 243.475 314.854 241.961 314.854 240.094C314.854 238.227 313.341 236.714 311.475 236.714C309.609 236.714 308.097 238.227 308.097 240.094C308.097 241.961 309.609 243.475 311.475 243.475Z" fill="#6C63FF"/>
</g>
<defs>
<clipPath id="clip0">
<rect width="726" height="395" fill="white"/>
</clipPath>
</defs>
</svg>
