<svg width="492" height="306" viewBox="0 0 492 306" fill="none" xmlns="http://www.w3.org/2000/svg">
<path d="M258.112 280.998H222.953C218.474 280.998 214.843 284.629 214.843 289.108V297.626C214.843 302.105 218.474 305.736 222.953 305.736H258.112C262.591 305.736 266.222 302.105 266.222 297.626V289.108C266.222 284.629 262.591 280.998 258.112 280.998Z" fill="#D0CDE1"/>
<path d="M399.14 302.627H84.1611V303.744H399.14V302.627Z" fill="#3F3D56"/>
<path d="M250.2 278.831L249.919 278.255C249.834 278.08 241.437 260.528 246.119 243.222C250.801 225.915 266.901 214.989 267.063 214.881L267.595 214.525L267.876 215.101C267.961 215.276 276.358 232.829 271.676 250.135C266.994 267.442 250.894 278.367 250.732 278.475L250.2 278.831ZM267.145 216.191C264.326 218.242 251.285 228.401 247.197 243.513C243.106 258.637 249.249 273.975 250.65 277.165C253.469 275.115 266.51 264.956 270.598 249.844C274.689 234.72 268.546 219.382 267.145 216.191V216.191Z" fill="#3F3D56"/>
<path d="M228.55 249.989C233.232 267.294 249.266 278.011 249.266 278.011C249.266 278.011 257.71 260.672 253.029 243.367C248.348 226.063 232.314 215.346 232.314 215.346C232.314 215.346 223.869 232.685 228.55 249.989Z" fill="#6C63FF"/>
<path d="M250.453 278.589L249.814 278.554C249.619 278.544 230.199 277.347 217.352 264.841C204.505 252.336 202.787 232.954 202.771 232.76L202.719 232.122L203.358 232.157C203.553 232.167 222.973 233.364 235.82 245.87C248.666 258.376 250.385 277.757 250.401 277.952L250.453 278.589ZM203.956 233.326C204.377 236.786 206.913 253.121 218.131 264.041C229.349 274.961 245.746 277.057 249.216 277.386C248.795 273.925 246.259 257.591 235.04 246.671C223.814 235.742 207.424 233.652 203.956 233.326Z" fill="#3F3D56"/>
<path d="M264.259 246.27C251.414 258.775 249.845 277.997 249.845 277.997C249.845 277.997 269.102 276.946 281.948 264.441C294.793 251.937 296.362 232.715 296.362 232.715C296.362 232.715 277.104 233.766 264.259 246.27Z" fill="#3F3D56"/>
<path d="M249.575 177.307C254.202 177.307 257.952 173.556 257.952 168.93C257.952 164.303 254.202 160.552 249.575 160.552C244.949 160.552 241.198 164.303 241.198 168.93C241.198 173.556 244.949 177.307 249.575 177.307Z" fill="#6C63FF"/>
<path d="M271.354 303.978H229.816C227.179 303.975 224.651 302.926 222.786 301.062C220.921 299.197 219.872 296.669 219.869 294.031V283.768C219.872 281.131 220.921 278.602 222.786 276.738C224.651 274.873 227.179 273.824 229.816 273.821H271.354C273.991 273.824 276.52 274.873 278.384 276.738C280.249 278.602 281.298 281.131 281.301 283.768V294.031C281.298 296.669 280.249 299.197 278.384 301.062C276.52 302.926 273.991 303.975 271.354 303.978V303.978ZM229.816 274.938C227.475 274.94 225.231 275.871 223.575 277.527C221.92 279.182 220.989 281.427 220.986 283.768V294.031C220.989 296.372 221.92 298.617 223.575 300.272C225.231 301.927 227.475 302.859 229.816 302.861H271.354C273.695 302.859 275.94 301.927 277.595 300.272C279.25 298.617 280.181 296.372 280.184 294.031V283.768C280.182 281.427 279.25 279.182 277.595 277.527C275.94 275.871 273.695 274.94 271.354 274.938H229.816Z" fill="#3F3D56"/>
<path d="M168.02 48.4957H0V191.222H168.02V48.4957Z" fill="#6C63FF"/>
<path d="M31.8571 38.9665C36.724 38.9665 40.6693 35.0212 40.6693 30.1543C40.6693 25.2875 36.724 21.3421 31.8571 21.3421C26.9903 21.3421 23.0449 25.2875 23.0449 30.1543C23.0449 35.0212 26.9903 38.9665 31.8571 38.9665Z" fill="#6C63FF"/>
<path d="M201.058 172.261H31.2148V27.7106H201.058V172.261ZM33.0384 170.437H199.234V29.5342H33.0384V170.437Z" fill="#3F3D56"/>
<path d="M181.176 83.4467C181.173 95.2049 177.985 106.743 171.951 116.834C165.916 126.926 157.26 135.194 146.903 140.76C146.126 141.182 145.337 141.585 144.537 141.971C135.648 146.276 125.898 148.504 116.022 148.487C106.146 148.469 96.4028 146.206 87.5302 141.868C86.0005 141.122 84.507 140.315 83.0496 139.447C81.5682 138.58 80.1289 137.647 78.7317 136.659C69.5437 130.199 62.1849 121.47 57.3716 111.322C52.5584 101.174 50.4547 89.9522 51.2654 78.7497C52.0761 67.5473 55.7735 56.7456 61.9978 47.3962C68.222 38.0468 76.761 30.4683 86.7834 25.3985C90.7423 23.3862 94.9 21.7918 99.1892 20.6409C101.08 20.129 103.003 19.7035 104.958 19.3642C108.65 18.7241 112.389 18.4037 116.136 18.4067C116.907 18.4067 117.671 18.4187 118.436 18.4548C118.996 18.4669 119.556 18.491 120.116 18.5272C125.971 18.8771 131.751 20.0218 137.298 21.9297C137.774 22.0923 138.249 22.2609 138.719 22.4356C140.357 23.0378 141.959 23.7083 143.525 24.447C154.773 29.6675 164.294 37.9956 170.965 48.4492C177.636 58.9028 181.179 71.0459 181.176 83.4467V83.4467Z" fill="#3F3D56"/>
<path d="M141.523 16.9373C135.606 2.97529 120.543 0.338432 120.543 0.338432C120.543 0.338432 106.039 -3.53077 93.9269 14.8962C82.6372 32.0716 68.0785 48.1634 86.5418 55.0189L91.4189 44.7763L92.004 56.5639C94.6888 57.123 97.4022 57.5348 100.132 57.7974C120.611 59.8779 139.916 63.3372 140.274 55.9361C140.749 46.0974 147.217 30.3715 141.523 16.9373Z" fill="#2F2E41"/>
<path d="M88.928 130.727L88.4463 134.593L87.5309 141.868C86.0012 141.122 84.5077 140.315 83.0503 139.447C81.5689 138.58 80.1296 137.647 78.7324 136.659L78.8769 132.907L79.0396 128.746L85.7242 130.089L88.928 130.727Z" fill="#FFB8B8"/>
<path d="M156.214 134.678C153.29 136.967 150.175 139.002 146.904 140.76L143.748 129.83L143.333 128.391L142.297 124.795L143.411 124.621L154.817 122.82L155.184 125.921L156.214 134.678Z" fill="#FFB8B8"/>
<path d="M120.553 45.7275C130.378 45.7275 138.343 37.7626 138.343 27.9374C138.343 18.1122 130.378 10.1473 120.553 10.1473C110.728 10.1473 102.763 18.1122 102.763 27.9374C102.763 37.7626 110.728 45.7275 120.553 45.7275Z" fill="#FFB8B8"/>
<path d="M108.363 34.8557C108.363 34.8557 109.681 57.258 105.728 58.5758C101.774 59.8936 126.153 58.5758 126.153 58.5758C126.153 58.5758 122.859 44.7391 126.153 40.7857C129.448 36.8324 108.363 34.8557 108.363 34.8557Z" fill="#FFB8B8"/>
<path d="M126.482 54.952C126.482 54.952 109.351 53.6342 106.056 54.952C102.762 56.2697 93.5371 62.8587 93.5371 62.8587L98.1493 104.369L135.706 112.276L141.636 103.71L147.566 91.191L144.931 75.3776L144.272 66.1531L126.482 54.952Z" fill="#D0CDE1"/>
<path d="M90.2426 65.4942C90.2426 65.4942 81.677 67.4709 81.0181 74.0598C80.3592 80.6487 80.3592 97.121 81.0181 99.7566C81.677 102.392 81.0181 103.71 80.3592 104.369C79.7003 105.028 78.3825 103.71 79.7003 105.687C81.0181 107.663 81.0181 107.663 80.3592 109.64C79.7003 111.617 77.7236 108.981 79.0414 112.276C80.3592 115.57 81.0181 116.229 80.3592 116.888C79.7003 117.547 77.7236 132.701 77.7236 132.701L88.9248 134.678L100.126 95.8032L90.2426 65.4942Z" fill="#D0CDE1"/>
<path d="M141.638 65.4942C142.889 65.564 144.099 65.9675 145.141 66.6626C146.184 67.3578 147.022 68.3194 147.568 69.4476C149.544 73.4009 154.815 99.0977 154.157 101.074C153.498 103.051 152.18 100.415 153.498 104.369C154.815 108.322 153.498 107.663 154.157 110.299C154.815 112.934 151.521 110.299 154.157 112.934C156.792 115.57 158.11 116.229 156.792 117.547C155.474 118.864 153.498 116.229 155.474 118.864C157.451 121.5 157.451 125.453 157.451 125.453L141.638 128.748L137.025 91.8499L141.638 65.4942Z" fill="#D0CDE1"/>
<path d="M143.748 129.83L144.537 141.971C135.649 146.276 125.898 148.504 116.022 148.487C106.146 148.469 96.403 146.206 87.5303 141.868C86.0007 141.122 84.5072 140.315 83.0498 139.447C83.5557 137.587 84.0676 135.732 84.5915 133.913C84.9649 132.618 85.3423 131.344 85.7237 130.089C88.6806 120.411 91.8663 112.179 94.8533 108.981C94.8533 108.981 94.8533 101.736 96.1722 101.074C96.654 100.827 97.1478 100.05 97.5694 99.1587C98.0603 98.0708 98.4748 96.95 98.81 95.8044L96.6299 90.7337L86.8739 68.0179C86.5962 67.3681 86.5768 66.6369 86.8196 65.9733C87.0624 65.3097 87.5492 64.7637 88.1808 64.4467L91.4147 62.8267C91.7423 62.6641 92.0989 62.5678 92.4638 62.5433C92.8288 62.5189 93.195 62.5668 93.5414 62.6843C93.8878 62.8018 94.2076 62.9866 94.4823 63.2281C94.7571 63.4696 94.9814 63.7629 95.1425 64.0914L110.011 94.4855L126.482 105.03L138.033 99.8935L138.34 99.755C138.34 99.755 146.909 86.5784 144.272 79.99C143.146 77.1776 141.905 73.4198 140.839 70.0293C140.219 68.0299 139.665 66.157 139.231 64.6875C139.163 64.4541 139.168 64.2054 139.246 63.975C139.324 63.7446 139.471 63.5438 139.667 63.3997C139.863 63.2557 140.098 63.1755 140.341 63.1699C140.584 63.1644 140.823 63.2338 141.026 63.3687L143.272 64.8682C143.781 65.2097 144.184 65.6877 144.434 66.2473C144.538 66.466 144.615 66.6965 144.663 66.9338L149.541 90.5349L142.953 104.368V117.545L143.411 124.621L143.651 128.324L143.748 129.83Z" fill="#2F2E41"/>
<path d="M138.177 11.865L123.081 3.9574L102.234 7.19212L97.9209 26.242L108.657 25.8291L111.657 18.8304V25.7138L116.611 25.5232L119.487 14.3809L121.284 26.242L138.896 25.8826L138.177 11.865Z" fill="#2F2E41"/>
<path d="M102.434 31.3966C103.525 31.3966 104.41 29.8478 104.41 27.9374C104.41 26.0269 103.525 24.4782 102.434 24.4782C101.342 24.4782 100.457 26.0269 100.457 27.9374C100.457 29.8478 101.342 31.3966 102.434 31.3966Z" fill="#FFB8B8"/>
<path d="M296.387 72.4099C301.254 72.4099 305.2 68.4646 305.2 63.5977C305.2 58.7309 301.254 54.7855 296.387 54.7855C291.521 54.7855 287.575 58.7309 287.575 63.5977C287.575 68.4646 291.521 72.4099 296.387 72.4099Z" fill="#6C63FF"/>
<path d="M323.099 225.578L491.119 225.578V82.8509L323.099 82.8509V225.578Z" fill="#6C63FF"/>
<path d="M464.929 206.616H295.086V62.0658H464.929V206.616ZM296.909 204.793H463.106V63.8894H296.909V204.793Z" fill="#3F3D56"/>
<path d="M444.601 106.273C444.598 118.032 441.41 129.569 435.375 139.661C429.34 149.753 420.684 158.021 410.327 163.587C409.552 164.007 408.759 164.417 407.956 164.8C399.072 169.116 389.32 171.35 379.443 171.333C369.565 171.316 359.822 169.047 350.952 164.7C349.42 163.952 347.934 163.141 346.475 162.274C344.989 161.408 343.548 160.478 342.153 159.484C332.966 153.025 325.607 144.296 320.794 134.149C315.98 124.001 313.877 112.78 314.687 101.578C315.498 90.3761 319.195 79.5748 325.419 70.2259C331.643 60.877 340.182 53.2989 350.204 48.2295C352.156 47.2357 354.171 46.3422 356.231 45.5398C358.322 44.7407 360.452 44.0499 362.614 43.4701C364.501 42.9595 366.425 42.534 368.385 42.1936C368.951 42.0933 369.525 42.0021 370.099 41.92C373.234 41.4652 376.397 41.2367 379.564 41.2362C380.329 41.2362 381.095 41.2453 381.861 41.2818C382.417 41.2909 382.983 41.3183 383.539 41.3547C389.093 41.6899 394.582 42.7379 399.869 44.473C400.161 44.5642 400.443 44.6554 400.726 44.7556C401.2 44.9198 401.674 45.093 402.139 45.2662C403.78 45.868 405.382 46.5367 406.944 47.2722C408.695 48.0836 410.4 48.9741 412.059 49.9437C421.956 55.6441 430.175 63.8527 435.888 73.7421C441.601 83.6315 444.606 94.8522 444.601 106.273V106.273Z" fill="#3F3D56"/>
<path d="M407.889 28.0065C400.568 15.637 386.085 15.0606 386.085 15.0606C386.085 15.0606 371.972 13.2558 362.919 32.0946C354.48 49.6539 342.834 66.6077 361.044 70.7182L364.333 60.4808L366.37 71.4804C368.963 71.6669 371.564 71.7113 374.161 71.6136C393.662 70.984 412.234 71.7978 411.636 64.8C410.841 55.4974 414.932 39.9083 407.889 28.0065Z" fill="#2F2E41"/>
<path d="M369.929 145.593L364.148 140.094L352.304 124.866L343.71 128.904L357.662 146.862L363.708 154.854L363.725 154.898C363.725 154.898 373.595 166.742 380.363 161.666C387.13 156.59 369.929 145.593 369.929 145.593Z" fill="#A0616A"/>
<path d="M419.842 126.699L414.061 121.2L407.575 127.968L413.621 135.96L413.638 136.005C413.638 136.005 423.508 147.849 430.276 142.773C437.044 137.697 419.842 126.699 419.842 126.699Z" fill="#A0616A"/>
<path d="M407.857 113.586L418.009 122.892L411.523 126.558L402.218 115.278L407.857 113.586Z" fill="#CFCCE0"/>
<path d="M408.422 69.8771C408.422 69.8771 412.37 66.4931 414.062 77.4909C415.754 88.4887 411.242 92.4366 411.242 92.4366L408.422 69.8771Z" fill="#CFCCE0"/>
<path d="M385.016 57.7514C393.27 57.7514 399.962 51.0599 399.962 42.8056C399.962 34.5513 393.27 27.8599 385.016 27.8599C376.762 27.8599 370.07 34.5513 370.07 42.8056C370.07 51.0599 376.762 57.7514 385.016 57.7514Z" fill="#A0616A"/>
<path d="M375.991 51.2654C375.991 51.2654 374.018 60.8533 366.122 61.9812C358.226 63.1092 345.818 67.0571 347.51 74.671C349.202 82.2848 396.577 81.4389 396.577 81.4389L405.037 68.4671C405.037 68.4671 387.553 63.9552 389.245 53.8034L375.991 51.2654Z" fill="#A0616A"/>
<path d="M399.257 66.3522C399.257 66.3522 388.118 74.671 361.892 74.1071C361.892 74.1071 347.072 76.4953 349.265 68.8153C349.265 68.8153 347.511 66.2112 345.819 74.3891C344.127 82.5669 331.437 110.484 332.565 111.612L336.795 115.842L346.101 133.89L355.971 128.25L352.587 120.918C352.587 120.918 359.073 126.276 362.174 118.38C362.174 118.38 364.712 125.994 370.07 126.276C375.428 126.558 410.113 116.688 410.113 116.688C410.113 116.688 408.14 108.792 410.113 105.408C412.087 102.024 415.189 95.2566 413.779 90.1807L411.241 69.8771C411.241 69.8771 400.667 65.5062 399.257 66.3522Z" fill="#CFCCE0"/>
<path d="M429.573 143.2V143.227L429.272 148.206C423.985 154.484 417.556 159.703 410.326 163.587C409.551 164.007 408.757 164.417 407.955 164.8C393.923 171.595 377.921 173.138 362.85 169.149L363.862 164.91C363.661 161.633 363.667 158.347 363.88 155.071C364.11 150.691 364.951 146.364 366.378 142.215C368.63 136.034 371.484 133.891 371.484 133.891L370.545 126.278L370.49 125.849L403.752 117.132L408.703 115.838C408.703 115.838 408.821 116.275 409.095 116.977C409.878 119.12 411.008 121.12 412.441 122.895C413.049 123.632 413.737 124.298 414.493 124.883C414.89 125.191 415.31 125.469 415.751 125.712C420.829 128.53 429.573 143.2 429.573 143.2Z" fill="#2F2E41"/>
<path d="M404.652 27.3781L390.344 19.883L370.584 22.9493L366.496 41.0054L376.673 40.6137L379.516 33.9802V40.5047L384.212 40.3238L386.937 29.7628L388.64 41.0054L405.334 40.6643L404.652 27.3781Z" fill="#2F2E41"/>
</svg>
