<svg width="46" height="47" viewBox="0 0 46 47" fill="none" xmlns="http://www.w3.org/2000/svg">
<path fill-rule="evenodd" clip-rule="evenodd" d="M45.4238 3.40113C45.6835 5.52252 44.1898 7.45217 42.0876 7.71111C41.6051 7.77056 41.1324 7.73679 40.6873 7.62383C39.8938 7.42241 38.9653 7.5161 38.4656 8.16459L38.2368 8.46146C38.0759 8.67026 38.0387 8.94417 38.0707 9.20582C38.2147 10.382 37.3865 11.4519 36.2209 11.5955C35.9678 11.6267 35.7198 11.7278 35.5641 11.9298L35.2484 12.3396C34.684 13.072 34.8068 14.1107 35.4486 14.7763C35.5321 14.8629 35.6002 14.9358 35.6524 14.9922C37.2131 16.6795 38.0528 18.3429 38.4331 19.1585C39.1065 20.622 39.4551 21.9734 39.6452 23.037C39.7007 23.3489 39.463 23.6368 39.1461 23.6368L35.0899 23.6128C34.8601 23.6128 34.6621 23.4608 34.6066 23.2369C34.258 21.9494 32.9825 18.2629 29.1719 16.2557C25.6544 14.4004 22.2953 15.2001 21.5823 15.384C20.7346 15.6 18.1123 16.3916 16.0445 18.9186C13.6678 21.8295 13.0182 25.8279 14.1273 29.2425C15.1335 32.3373 17.3042 34.0486 17.8746 34.4884C18.8233 35.2158 19.7299 35.6517 20.3315 35.886C19.9857 35.7769 19.5327 35.6243 19.0077 35.4194C19.5303 35.637 20.0398 35.8147 20.5287 35.9598C20.4674 35.9378 20.4015 35.9133 20.3315 35.886C20.5459 35.9537 20.719 36.0046 20.8426 36.0409L20.8428 36.041C20.9465 36.0715 21.0153 36.0917 21.0441 36.1029C22.2812 36.4235 23.36 36.5382 24.1489 36.5756C24.3628 36.5836 24.5292 36.7595 24.5371 36.9754L24.6322 41.4216C24.6322 41.6455 24.4579 41.8375 24.2281 41.8375C22.8655 41.8455 20.8056 41.6855 18.5002 40.8059C17.6856 40.4969 16.5538 39.9918 15.3258 39.1747C15.0797 39.0109 14.7514 39.034 14.5384 39.2391L14.3959 39.3764C14.3313 39.4387 14.305 39.5299 14.3159 39.619C14.42 40.4691 13.8214 41.2424 12.979 41.3462C12.6157 41.3909 12.2326 41.4604 11.9689 41.7143L11.8418 41.8368C11.4709 42.1941 11.3747 42.739 11.4373 43.2502C11.6598 45.0681 10.3798 46.7216 8.57839 46.9435C6.77698 47.1654 5.13629 45.8717 4.9138 44.0538C4.69132 42.2359 5.97128 40.5824 7.77268 40.3605C8.22753 40.3044 8.67212 40.345 9.08623 40.4663C9.69455 40.6444 10.3956 40.6229 10.8521 40.1832C11.1087 39.936 11.228 39.5845 11.3545 39.2514C11.5513 38.7333 12.0181 38.3395 12.6022 38.2676C12.6083 38.2668 12.6144 38.2661 12.6205 38.2654C12.7673 38.2491 12.9116 38.1992 13.018 38.0967C13.2434 37.8796 13.2379 37.5179 13.0148 37.2985C12.8273 37.1141 12.6406 36.9212 12.4555 36.7195C11.5523 35.7359 9.92825 33.8247 9.04887 30.9218C8.62898 29.5464 7.50401 25.2761 9.06471 20.7019C9.64754 18.9941 10.5577 17.3842 11.4114 16.2044C11.6577 15.8639 11.6312 15.3909 11.3303 15.0975C11.1288 14.901 10.8395 14.836 10.5581 14.8354C10.5347 14.8353 10.5113 14.8348 10.4877 14.8339C9.45642 14.793 8.65397 13.9157 8.69537 12.8744C8.70311 12.6798 8.64869 12.4823 8.50926 12.3463L8.07723 11.925C7.50665 11.3686 6.62854 11.3266 5.86605 11.5585C5.39449 11.702 4.89174 11.7701 4.37215 11.7494C1.85863 11.6497 -0.0971797 9.51152 0.00373611 6.97367C0.104652 4.43583 2.22407 2.45935 4.7376 2.5591C7.25112 2.65884 9.20693 4.79703 9.10601 7.33487C9.09027 7.7308 9.02539 8.11306 8.91756 8.47591C8.7087 9.17871 8.77522 9.98314 9.30012 10.495L9.4988 10.6888C9.79322 10.9759 10.2267 11.0469 10.6376 11.0632C11.6689 11.1041 12.4714 11.9814 12.43 13.0226C12.4293 13.0404 12.4283 13.058 12.4271 13.0757C12.4103 13.3259 12.469 13.5854 12.6486 13.7605L12.9515 14.056C13.0498 14.1518 13.2068 14.1511 13.3048 14.055L13.3055 14.0543L13.3056 14.0542L13.3113 14.0486C13.4736 13.8895 13.6387 13.7354 13.8066 13.5862L13.8657 13.5287L13.8191 13.5751C18.2394 9.65702 24.5171 9.16649 29.0847 10.7059C30.0058 11.0171 30.8434 11.4045 31.5903 11.8197C32.2525 12.1878 33.0976 12.0554 33.5601 11.4552L33.5824 11.4262C33.943 10.9583 33.9216 10.3121 33.8498 9.72575C33.7059 8.54953 34.534 7.47963 35.6996 7.33605C36.274 7.2653 36.8939 7.1289 37.2472 6.67045L37.4644 6.38854C37.8818 5.84692 37.9269 5.12108 37.8256 4.44486C37.8203 4.4097 37.8155 4.37437 37.8112 4.33886C37.5515 2.21747 39.0452 0.287828 41.1474 0.0288808C43.2496 -0.230066 45.1642 1.27974 45.4238 3.40113Z" fill="black"/>
</svg>
