<svg width="490" height="513" viewBox="0 0 490 513" fill="none" xmlns="http://www.w3.org/2000/svg">
<path fill-rule="evenodd" clip-rule="evenodd" d="M351.937 170.306C348.044 165.737 345.409 160.137 345.849 153.862C347.118 135.783 372.285 139.76 377.18 148.885C382.076 158.01 381.494 181.156 375.167 182.787C372.644 183.437 367.269 181.844 361.798 178.546L365.232 202.839H344.957L351.937 170.306Z" fill="#F9C28F"/>
<path fill-rule="evenodd" clip-rule="evenodd" d="M362.812 155.859C363.588 166.67 365.641 172.075 368.971 172.075C373.966 172.075 378.204 168.904 380.396 168.904C381.994 168.904 381.637 170.904 380.578 172.386C379.704 173.609 375.449 174.788 375.449 176.684C375.449 178.58 378.811 177.113 378.811 178.238C378.811 180.098 379.402 183.595 376.173 183.595C372.906 183.595 363.538 182.405 361.933 177.555C360.897 174.426 360.227 167.941 359.923 158.1C359.725 158.077 359.523 158.064 359.318 158.064C356.519 158.064 354.25 160.334 354.25 163.133C354.25 164.555 354.834 165.839 355.777 166.759C354.604 168.415 353.289 170.144 351.783 171.929C346.125 168.534 341.926 158.596 347.458 149.049C348.987 144.372 352.448 141.874 356.537 140.714C359.849 139.329 363.286 139.172 366.188 140.003C371.877 140.491 376.957 142.226 378.397 143.256C378.397 148.642 377.353 150.24 368.44 150.099C366.249 151.255 364.566 153.247 362.812 155.859Z" fill="black"/>
<path fill-rule="evenodd" clip-rule="evenodd" d="M338.199 272.959L368.827 380.441L391.174 459.662H407.473L383.726 272.959H338.199Z" fill="black"/>
<path fill-rule="evenodd" clip-rule="evenodd" d="M330.008 272.959C329.3 328.356 326.884 358.572 326.14 363.605C325.396 368.638 314.149 400.657 292.399 459.662H309.284C336.973 403.057 352.431 371.038 355.655 363.605C358.88 356.172 368.831 325.957 383.819 272.959H330.008Z" fill="black"/>
<path fill-rule="evenodd" clip-rule="evenodd" d="M290.89 474.868L291.734 457.127H309.475C317.888 463.041 328.87 467.828 342.423 471.489V474.868H310.32L299.338 473.179V474.868H290.89Z" fill="black"/>
<path fill-rule="evenodd" clip-rule="evenodd" d="M388.888 474.868L389.733 457.127H407.474C415.886 463.041 426.868 467.828 440.421 471.489V474.868H408.318L397.336 473.179V474.868H388.888Z" fill="black"/>
<path fill-rule="evenodd" clip-rule="evenodd" d="M409.466 259.112L434.968 280.732C442.122 283.209 448.042 286.083 452.729 289.353C453.811 290.487 455.058 292.717 450.292 292.013C445.525 291.31 440.48 290.784 439.704 292.372C438.929 293.961 441.692 296.118 440.201 298.23C439.207 299.638 435.255 295.657 428.345 286.287L402.496 273.387L409.466 259.112ZM293.988 249.757L308.951 251.93C292.889 286.778 284.278 305.207 283.118 307.219C280.508 311.744 283.578 319.626 284.778 323.799C278.714 325.55 280.65 316.18 272.982 318.517C265.983 320.65 260.208 325.486 253.276 319.736C252.423 319.029 251.706 316.717 254.414 315.37C261.163 312.015 271.071 305.874 272.612 303.611C274.712 300.525 281.837 282.574 293.988 249.757Z" fill="#F9C28F"/>
<path fill-rule="evenodd" clip-rule="evenodd" d="M356.527 188.758L365.799 185.692C378.376 217.111 397.133 247.51 428.473 273.187L420.723 286.557C393.18 270.333 367.107 257.729 356.527 233.383C352.976 225.212 356.237 198.528 356.527 188.758Z" fill="#C5CFD6"/>
<path fill-rule="evenodd" clip-rule="evenodd" d="M324.682 277.183C351.241 279.999 372.146 279.999 387.397 277.183C389.287 276.834 389.585 273.67 388.708 271.523C375.063 238.089 365.706 208.915 365.706 185.692C363.202 186.954 358.82 187.143 352.56 186.259C335.737 210.191 328.004 237.651 324.682 277.183Z" fill="black"/>
<path fill-rule="evenodd" clip-rule="evenodd" d="M348.378 184.254H355.389C357.022 193.855 362.171 323.869 378.066 366.4H292.06C293.924 327.438 308.633 280.636 323.533 241.471C310.358 253.528 298.874 273.956 289.083 302.757L272.973 298.622C284.951 247.007 309.579 209.07 346.855 184.81C346.936 184.624 347.016 184.438 347.096 184.254H347.716C347.945 184.107 348.174 183.961 348.403 183.815L348.378 184.254Z" fill="#DDE3E9"/>
<path fill-rule="evenodd" clip-rule="evenodd" d="M185.342 110.735C190.412 107.274 194.504 102.463 195.72 96.1696C199.225 78.0352 173.188 75.2488 165.922 82.9274C158.656 90.606 153.134 113.545 158.986 116.835C161.32 118.147 167.078 118.01 173.379 116.221L163.567 139.22L183.699 144.619L185.342 110.735Z" fill="#E2B7A0"/>
<path fill-rule="evenodd" clip-rule="evenodd" d="M176.496 75.2746C179.47 75.1806 183.538 75.9693 185.167 76.6105C184.819 74.0845 185.117 71.454 186.086 69.0746C187.027 66.7626 188.65 65.0146 190.219 63.1473C190.942 62.2866 191.725 61.4477 192.704 60.9033C193.7 60.3487 194.837 60.1111 195.952 60.1513C197.093 60.1923 198.211 60.5142 199.228 61.0272C199.677 61.2541 200.047 61.5845 200.482 61.8297C200.927 62.0809 201.238 61.8463 201.665 61.6412C202.694 61.1469 204.016 61.1209 205.108 61.2778C206.334 61.4538 207.518 61.9617 208.547 62.6524C209.548 63.3247 210.443 64.2204 211.002 65.3253C211.25 65.8172 211.451 66.3551 211.527 66.9098C211.558 67.1374 211.54 67.2624 211.726 67.3926C211.898 67.513 212.12 67.5748 212.299 67.6935C214.029 68.8413 215.264 70.7329 215.648 72.8395C215.872 74.0685 215.602 76.0541 214.959 78.1882C214.316 80.3224 210.853 85.4123 208.471 86.9689C206.345 88.3584 203.617 88.9199 201.154 88.8256C202.228 90.9847 202.669 93.4415 202.833 95.8638C203.012 98.495 202.851 101.136 202.356 103.738C201.886 106.211 201.216 108.779 200.007 110.998C198.877 113.073 197.242 114.586 195.019 115.227C194 115.521 192.95 115.665 191.904 115.774C190.873 115.881 189.841 115.978 188.808 115.916C186.852 115.799 184.733 115.16 183.696 113.314C183.323 112.649 182.934 111.834 182.731 111.089C182.658 110.821 182.617 110.648 182.842 110.465C183.111 110.246 183.485 110.124 183.794 109.979C185.558 109.155 186.882 107.779 187.62 105.919C188.37 104.032 188.515 101.377 186.833 100.014C184.756 98.3328 181.837 98.841 179.44 99.4019C179.384 96.0464 178.307 92.7497 175.822 90.5513C173.074 88.1191 169.483 86.958 166.587 84.7269C165.832 84.1455 165.074 83.5121 164.642 82.6239C164.461 82.2527 164.259 81.7798 164.261 81.3536C164.264 80.7937 164.722 80.4463 165.094 80.109C167.067 78.3202 173.523 75.3686 176.496 75.2746Z" fill="black"/>
<path fill-rule="evenodd" clip-rule="evenodd" d="M179.102 214.743L147.623 324.837L124.655 405.983H107.904L132.31 214.743H179.102Z" fill="black"/>
<path fill-rule="evenodd" clip-rule="evenodd" d="M187.521 214.743C188.249 271.487 190.732 302.437 191.496 307.592C192.261 312.748 203.82 345.545 226.175 405.983H208.821C180.362 348.003 164.476 315.206 161.162 307.592C157.848 299.979 147.62 269.029 132.216 214.743H187.521Z" fill="black"/>
<path fill-rule="evenodd" clip-rule="evenodd" d="M227.726 421.693L226.857 403.451H208.624C199.978 409.532 188.69 414.454 174.761 418.219V421.693H207.755L219.043 419.956V421.693H227.726Z" fill="black"/>
<path fill-rule="evenodd" clip-rule="evenodd" d="M127.006 421.693L126.138 403.451H107.904C99.2579 409.532 87.9703 414.454 74.0411 418.219V421.693H107.036L118.323 419.956V421.693H127.006Z" fill="black"/>
<path fill-rule="evenodd" clip-rule="evenodd" d="M108.324 191.81L78.6735 209.037C70.9931 210.255 64.4906 212.093 59.1658 214.551C57.8695 215.5 56.211 217.524 61.1605 217.666C66.11 217.809 71.3101 218.18 71.8131 219.919C72.3161 221.658 69.1362 223.338 70.2703 225.732C71.0264 227.328 75.7334 224.023 84.3913 215.817L112.845 207.436L108.324 191.81ZM226.871 203.01L211.34 202.527C221.411 240.505 226.855 260.611 227.672 262.845C229.511 267.87 225.005 275.263 223.049 279.253C228.877 282.101 228.58 272.315 235.926 276.039C242.632 279.438 247.62 285.341 255.657 280.786C256.645 280.226 257.782 278.026 255.279 276.185C249.044 271.599 240.105 263.642 238.947 261.087C237.369 257.603 233.344 238.244 226.871 203.01Z" fill="#E2B7A0"/>
<path fill-rule="evenodd" clip-rule="evenodd" d="M174.405 130.374L165.564 125.628C147.255 155.039 122.871 182.318 86.5893 202.592L92.0605 217.449C122.821 206.021 151.451 197.979 166.483 175.338C171.528 167.739 172.964 140.27 174.405 130.374Z" fill="#C5CFD6"/>
<path fill-rule="evenodd" clip-rule="evenodd" d="M190.94 225.157C163.555 223.25 142.394 219.515 127.456 213.954C125.605 213.265 125.865 210.024 127.133 208.017C146.882 176.765 161.533 149.041 165.655 125.641C167.966 127.36 172.368 128.334 178.861 128.561C191.642 155.681 194.595 184.73 190.94 225.157Z" fill="black"/>
<path fill-rule="evenodd" clip-rule="evenodd" d="M183.445 127.286L176.348 126.034C172.991 135.417 144.697 265.502 121.056 305.517L208.118 320.88C213.147 281.289 206.567 231.503 198.437 189.378C209.634 203.88 217.631 226.515 222.429 257.285L239.471 255.996C236.509 201.848 218.315 159.222 184.888 128.119C184.839 127.917 184.791 127.716 184.743 127.515L184.115 127.405C183.91 127.216 183.704 127.028 183.498 126.84L183.445 127.286Z" fill="#DDE3E9"/>
<g clip-path="url(#clip0)">
<path d="M430.847 135.081C456.69 135.081 477.64 114.131 477.64 88.2883C477.64 62.4453 456.69 41.4955 430.847 41.4955C405.004 41.4955 384.054 62.4453 384.054 88.2883C384.054 114.131 405.004 135.081 430.847 135.081Z" fill="#F2F2F2"/>
<path d="M430.847 53.8558C432.31 53.8558 433.496 52.67 433.496 51.2072C433.496 49.7444 432.31 48.5585 430.847 48.5585C429.384 48.5585 428.198 49.7444 428.198 51.2072C428.198 52.67 429.384 53.8558 430.847 53.8558Z" fill="black" fill-opacity="0.1"/>
<path d="M393.766 90.937C395.229 90.937 396.414 89.7511 396.414 88.2883C396.414 86.8255 395.229 85.6396 393.766 85.6396C392.303 85.6396 391.117 86.8255 391.117 88.2883C391.117 89.7511 392.303 90.937 393.766 90.937Z" fill="black" fill-opacity="0.1"/>
<path d="M467.928 90.937C469.391 90.937 470.577 89.7511 470.577 88.2883C470.577 86.8255 469.391 85.6396 467.928 85.6396C466.465 85.6396 465.279 86.8255 465.279 88.2883C465.279 89.7511 466.465 90.937 467.928 90.937Z" fill="black" fill-opacity="0.1"/>
<path d="M430.847 128.018C432.31 128.018 433.496 126.832 433.496 125.369C433.496 123.907 432.31 122.721 430.847 122.721C429.384 122.721 428.198 123.907 428.198 125.369C428.198 126.832 429.384 128.018 430.847 128.018Z" fill="black" fill-opacity="0.1"/>
<path fill-rule="evenodd" clip-rule="evenodd" d="M430.847 56.5045L432.613 87.4054H429.081L430.847 56.5045Z" fill="#AFB9C5"/>
<path fill-rule="evenodd" clip-rule="evenodd" d="M446.473 103.914L430.241 90.1796L432.738 87.6824L446.473 103.914Z" fill="#AFB9C5"/>
<path d="M430.847 91.8198C432.797 91.8198 434.378 90.2387 434.378 88.2882C434.378 86.3378 432.797 84.7567 430.847 84.7567C428.897 84.7567 427.315 86.3378 427.315 88.2882C427.315 90.2387 428.897 91.8198 430.847 91.8198Z" fill="#C5CFD6"/>
</g>
<defs>
<clipPath id="clip0">
<rect x="384.054" y="41.4955" width="93.5856" height="93.5856" fill="white"/>
</clipPath>
</defs>
</svg>
