<svg width="150" height="51" viewBox="0 0 150 51" fill="none" xmlns="http://www.w3.org/2000/svg">
<rect x="0.5" y="0.5" width="148.408" height="50" fill="white" stroke="black"/>
<path d="M125.007 17.2393C120.79 17.2376 117.375 20.651 117.375 24.8642C117.375 28.1958 119.511 31.0279 122.487 32.068C122.887 32.1686 122.826 31.8838 122.826 31.6895V30.3681C120.512 30.6392 120.418 29.108 120.263 28.8523C119.95 28.3169 119.208 28.1805 119.43 27.9247C119.956 27.6536 120.494 27.9929 121.116 28.912C121.566 29.5786 122.444 29.4661 122.889 29.3553C122.986 28.9546 123.194 28.5965 123.481 28.3186C121.083 27.8889 120.084 26.426 120.084 24.6869C120.084 23.8429 120.362 23.0671 120.908 22.4413C120.56 21.4098 120.94 20.5266 120.991 20.3953C121.982 20.3066 123.012 21.1046 123.092 21.1677C123.655 21.0159 124.297 20.9358 125.017 20.9358C125.74 20.9358 126.384 21.0193 126.952 21.1728C127.145 21.0261 128.1 20.3407 129.02 20.4243C129.07 20.5556 129.442 21.4183 129.114 22.4362C129.667 23.0637 129.948 23.8463 129.948 24.692C129.948 26.4345 128.942 27.8992 126.538 28.322C126.744 28.5245 126.907 28.766 127.019 29.0324C127.13 29.2988 127.188 29.5848 127.187 29.8736V31.7918C127.201 31.9452 127.187 32.097 127.443 32.097C130.463 31.0791 132.637 28.2265 132.637 24.8659C132.637 20.651 129.22 17.2393 125.007 17.2393V17.2393Z" fill="black"/>
<path d="M22.9246 40.3988C22.354 40.3993 21.8478 40.2516 21.4061 39.9555C20.9644 39.6594 20.6235 39.2121 20.3835 38.6137C20.1435 38.0153 20.0407 37.3077 20.0751 36.4908L20.9244 25.916C19.873 25.5366 19.012 24.8717 18.3416 23.9212C17.6711 22.9708 17.3364 21.9025 17.3376 20.7164L17.3615 13.281C17.3506 12.9342 17.4712 12.6348 17.7232 12.3828C17.9752 12.1308 18.2802 12.0046 18.6383 12.0042C18.9964 12.0039 19.3011 12.1295 19.5527 12.381C19.8042 12.6325 19.9242 12.9317 19.9127 13.2786L19.9051 21.1336C20.4307 21.4575 21.0068 21.6976 21.6332 21.8536L21.6414 13.2937C21.6418 12.9357 21.7679 12.6306 22.0199 12.3786C22.2719 12.1266 22.577 12.0005 22.935 12.0001C23.2931 11.9998 23.5951 12.1226 23.841 12.3685C24.0869 12.6144 24.2097 12.9164 24.2094 13.2745L24.218 21.8511C24.8335 21.7051 25.4044 21.4696 25.9306 21.1446L25.9381 13.2896C25.9385 12.9316 26.0647 12.6265 26.3167 12.3745C26.5687 12.1225 26.8681 11.9964 27.215 11.996C27.5618 11.9957 27.861 12.1213 28.1126 12.3728C28.3641 12.6243 28.4897 12.9291 28.4893 13.2872L28.5326 20.7225C28.5202 21.8974 28.1751 22.9635 27.4973 23.9208C26.8194 24.8782 25.9544 25.5476 24.9022 25.929L25.7649 36.4686C25.8089 37.2742 25.7103 37.982 25.4691 38.5921C25.228 39.2021 24.8863 39.6556 24.444 39.9526C24.0017 40.2495 23.4953 40.3982 22.9246 40.3988Z" fill="black"/>
<path d="M39.6301 21.9513V20.6871H34.918V28.7322H36.2397V25.4682H39.5152V24.204H36.2397V21.9513H39.6301Z" fill="black"/>
<path d="M43.6133 28.8816C45.3028 28.8816 46.6474 27.5599 46.6474 25.8589C46.6474 24.1465 45.3028 22.8363 43.6133 22.8363C41.9353 22.8363 40.5791 24.1465 40.5791 25.8589C40.5791 27.5599 41.9353 28.8816 43.6133 28.8816ZM43.6133 27.6748C42.6019 27.6748 41.8204 26.9048 41.8204 25.8589C41.8204 24.8131 42.6019 24.0431 43.6133 24.0431C44.6247 24.0431 45.4062 24.8131 45.4062 25.8589C45.4062 26.9048 44.6247 27.6748 43.6133 27.6748Z" fill="black"/>
<path d="M49.126 23.9511V22.9857H47.8847V28.7322H49.126V25.836C49.126 24.5487 50.0799 24.1695 50.8959 24.2269V22.8823C50.1718 22.8823 49.4707 23.1696 49.126 23.9511Z" fill="black"/>
<path d="M57.0078 28.7322L54.3874 25.8015L56.9158 22.9857H55.3988L53.1691 25.5256V20.6871H51.9279V28.7322H53.1691V26.0773L55.5252 28.7322H57.0078Z" fill="black"/>
<path d="M63.6582 28.8816C65.3476 28.8816 66.6923 27.5599 66.6923 25.8589C66.6923 24.1465 65.3476 22.8363 63.6582 22.8363C61.9802 22.8363 60.624 24.1465 60.624 25.8589C60.624 27.5599 61.9802 28.8816 63.6582 28.8816ZM63.6582 27.6748C62.6468 27.6748 61.8653 26.9048 61.8653 25.8589C61.8653 24.8131 62.6468 24.0431 63.6582 24.0431C64.6696 24.0431 65.4511 24.8131 65.4511 25.8589C65.4511 26.9048 64.6696 27.6748 63.6582 27.6748Z" fill="black"/>
<path d="M70.9523 22.8363C70.1707 22.8363 69.5501 23.1236 69.1708 23.7213V22.9857H67.9296V28.7322H69.1708V25.6521C69.1708 24.4798 69.8144 23.9971 70.6304 23.9971C71.412 23.9971 71.9177 24.4568 71.9177 25.3303V28.7322H73.1589V25.2038C73.1589 23.7098 72.2395 22.8363 70.9523 22.8363Z" fill="black"/>
<path d="M85.4942 24.1235H81.4372V25.8934H83.391C83.1151 26.537 82.529 26.9508 81.5406 26.9508C80.012 26.9508 79.242 25.9049 79.242 24.7326C79.242 23.4454 80.1499 22.526 81.4142 22.526C82.2302 22.526 82.8623 22.8823 83.1726 23.365L84.9195 22.3651C84.2299 21.2733 82.9312 20.5147 81.3912 20.5147C79.0121 20.5147 77.1963 22.3651 77.1963 24.7211C77.1963 27.0542 78.9662 28.9046 81.5061 28.9046C83.8507 28.9046 85.4942 27.3071 85.4942 24.9395V24.1235Z" fill="black"/>
<path d="M87.4402 22.5145C88.0378 22.5145 88.5435 22.0088 88.5435 21.4112C88.5435 20.8135 88.0378 20.3193 87.4402 20.3193C86.8425 20.3193 86.3368 20.8135 86.3368 21.4112C86.3368 22.0088 86.8425 22.5145 87.4402 22.5145ZM86.4862 28.7322H88.3941V22.9857H86.4862V28.7322Z" fill="black"/>
<path d="M93.1719 24.8131V22.9857H91.9766V21.3767L90.0688 21.9513V22.9857H89.2068V24.8131H90.0688V26.5255C90.0688 28.2954 90.8273 29.0195 93.1719 28.7322V27.0082C92.4019 27.0542 91.9766 27.0197 91.9766 26.4796V24.8131H93.1719Z" fill="black"/>
<path d="M98.6489 20.6871V23.6638H96.3848V20.6871H94.3276V28.7322H96.3848V25.6406H98.6489V28.7322H100.695V20.6871H98.6489Z" fill="black"/>
<path d="M105.649 22.9857V26.0428C105.649 26.7324 105.292 27.0887 104.706 27.0887C104.212 27.0887 103.844 26.8014 103.844 26.1807V22.9857H101.936V26.4221C101.936 28.0771 102.867 28.8931 104.051 28.8931C104.764 28.8931 105.327 28.6173 105.649 28.1575V28.7322H107.556V22.9857H105.649Z" fill="black"/>
<path d="M112.316 22.8248C111.58 22.8248 111.051 23.0776 110.684 23.5144V20.6871H108.776V28.7322H110.684V28.2035C111.051 28.6402 111.58 28.8931 112.316 28.8931C113.856 28.8931 115.017 27.5829 115.017 25.8589C115.017 24.135 113.856 22.8248 112.316 22.8248ZM111.89 27.1117C111.178 27.1117 110.684 26.606 110.684 25.8589C110.684 25.1119 111.178 24.6062 111.89 24.6062C112.603 24.6062 113.097 25.1119 113.097 25.8589C113.097 26.606 112.603 27.1117 111.89 27.1117Z" fill="black"/>
</svg>
