<svg width="240" height="136" viewBox="0 0 240 136" fill="none" xmlns="http://www.w3.org/2000/svg">
<path d="M48.5928 14H47.2256L43.582 9.15332L42.5361 10.083V14H41.374V4.00586H42.5361V8.96191L47.0684 4.00586H48.4424L44.4229 8.34668L48.5928 14ZM52.6465 13.1865C53.4167 13.1865 53.9727 12.9655 54.3145 12.5234C54.6562 12.0768 54.8271 11.3568 54.8271 10.3633V10.2607C54.8271 9.21712 54.654 8.46973 54.3076 8.01855C53.9613 7.56283 53.403 7.33496 52.6328 7.33496C51.252 7.33496 50.5615 8.31934 50.5615 10.2881C50.5615 11.2542 50.7279 11.9788 51.0605 12.4619C51.3978 12.945 51.9264 13.1865 52.6465 13.1865ZM52.4756 14.1367C51.5003 14.1367 50.7415 13.7995 50.1992 13.125C49.6569 12.446 49.3857 11.4958 49.3857 10.2744C49.3857 9.02572 49.6637 8.06413 50.2197 7.38965C50.7757 6.71061 51.5664 6.37109 52.5918 6.37109C53.1432 6.37109 53.6012 6.4668 53.9658 6.6582C54.335 6.84961 54.6426 7.13672 54.8887 7.51953H54.9707C55.0801 7.10026 55.2282 6.76302 55.415 6.50781H56.2969C56.2012 6.80859 56.1214 7.23926 56.0576 7.7998C55.9938 8.36035 55.9619 8.90495 55.9619 9.43359V12.4346C55.9619 12.9541 56.1533 13.2139 56.5361 13.2139C56.6683 13.2139 56.8096 13.1911 56.96 13.1455V13.959C56.7503 14.0775 56.4974 14.1367 56.2012 14.1367C55.832 14.1367 55.5449 14.0456 55.3398 13.8633C55.1393 13.6764 54.998 13.387 54.916 12.9951H54.8271C54.5583 13.387 54.2324 13.6764 53.8496 13.8633C53.4714 14.0456 53.0133 14.1367 52.4756 14.1367ZM52.2705 5.31836C52.3936 4.99023 52.5143 4.56868 52.6328 4.05371C52.7559 3.53418 52.8447 3.08757 52.8994 2.71387H54.1572V2.87109C54.0752 3.20833 53.9089 3.64811 53.6582 4.19043C53.4121 4.72819 53.1774 5.17025 52.9541 5.5166H52.2705V5.31836ZM57.1582 6.50781H58.334L59.8311 10.541C59.9495 10.8464 60.1022 11.2702 60.2891 11.8125C60.4805 12.3548 60.6126 12.7673 60.6855 13.0498H60.7402C61.5469 12.2523 62.1302 11.3477 62.4902 10.3359C62.8548 9.31966 63.0371 8.04362 63.0371 6.50781H64.1719C64.1719 8.16211 63.9349 9.56803 63.4609 10.7256C62.9915 11.8831 62.2441 12.9746 61.2188 14H59.9473L57.1582 6.50781ZM69.6338 9.61816V10.582H68.6221C67.2048 10.582 66.4961 11.0264 66.4961 11.915C66.4961 12.3252 66.6624 12.6419 66.9951 12.8652C67.3324 13.0885 67.8337 13.2002 68.499 13.2002C68.8818 13.2002 69.2624 13.1569 69.6406 13.0703C70.0189 12.9792 70.4359 12.8265 70.8916 12.6123V13.624C70.2673 13.9658 69.4515 14.1367 68.4443 14.1367C67.4873 14.1367 66.7331 13.9453 66.1816 13.5625C65.6348 13.1751 65.3613 12.6442 65.3613 11.9697C65.3613 11.5231 65.4867 11.1517 65.7373 10.8555C65.988 10.5547 66.4095 10.3109 67.002 10.124V10.0488C66.5553 9.92122 66.209 9.71387 65.9629 9.42676C65.7214 9.13509 65.6006 8.77962 65.6006 8.36035C65.6006 7.75423 65.8558 7.27116 66.3662 6.91113C66.8766 6.55111 67.5693 6.37109 68.4443 6.37109C68.8864 6.37109 69.2943 6.40983 69.668 6.4873C70.0462 6.56022 70.4632 6.69922 70.9189 6.9043L70.4883 7.81348C70.0599 7.62207 69.6976 7.49447 69.4014 7.43066C69.1051 7.36686 68.777 7.33496 68.417 7.33496C67.2777 7.33496 66.708 7.7041 66.708 8.44238C66.708 9.22624 67.4303 9.61816 68.875 9.61816H69.6338ZM79.0879 13.1865C79.8581 13.1865 80.4141 12.9655 80.7559 12.5234C81.0977 12.0768 81.2686 11.3568 81.2686 10.3633V10.2607C81.2686 9.21712 81.0954 8.46973 80.749 8.01855C80.4027 7.56283 79.8444 7.33496 79.0742 7.33496C77.6934 7.33496 77.0029 8.31934 77.0029 10.2881C77.0029 11.2542 77.1693 11.9788 77.502 12.4619C77.8392 12.945 78.3678 13.1865 79.0879 13.1865ZM78.917 14.1367C77.9417 14.1367 77.1829 13.7995 76.6406 13.125C76.0983 12.446 75.8271 11.4958 75.8271 10.2744C75.8271 9.02572 76.1051 8.06413 76.6611 7.38965C77.2171 6.71061 78.0078 6.37109 79.0332 6.37109C79.5846 6.37109 80.0426 6.4668 80.4072 6.6582C80.7764 6.84961 81.084 7.13672 81.3301 7.51953H81.4121C81.5215 7.10026 81.6696 6.76302 81.8564 6.50781H82.7383C82.6426 6.80859 82.5628 7.23926 82.499 7.7998C82.4352 8.36035 82.4033 8.90495 82.4033 9.43359V12.4346C82.4033 12.9541 82.5947 13.2139 82.9775 13.2139C83.1097 13.2139 83.251 13.1911 83.4014 13.1455V13.959C83.1917 14.0775 82.9388 14.1367 82.6426 14.1367C82.2734 14.1367 81.9863 14.0456 81.7812 13.8633C81.5807 13.6764 81.4395 13.387 81.3574 12.9951H81.2686C80.9997 13.387 80.6738 13.6764 80.291 13.8633C79.9128 14.0456 79.4548 14.1367 78.917 14.1367ZM83.5996 6.50781H84.7754L86.2725 10.541C86.391 10.8464 86.5436 11.2702 86.7305 11.8125C86.9219 12.3548 87.054 12.7673 87.127 13.0498H87.1816C87.9883 12.2523 88.5716 11.3477 88.9316 10.3359C89.2962 9.31966 89.4785 8.04362 89.4785 6.50781H90.6133C90.6133 8.16211 90.3763 9.56803 89.9023 10.7256C89.4329 11.8831 88.6855 12.9746 87.6602 14H86.3887L83.5996 6.50781ZM97.4424 6.50781V7.47852H94.4893V11.7031C94.4893 12.7194 94.9564 13.2275 95.8906 13.2275C96.1048 13.2275 96.3236 13.2139 96.5469 13.1865C96.7702 13.1546 96.9434 13.1227 97.0664 13.0908V13.9453C96.9069 14.0137 96.6995 14.0684 96.4443 14.1094C96.1937 14.1504 95.959 14.1709 95.7402 14.1709C94.9154 14.1709 94.3092 13.9772 93.9219 13.5898C93.5345 13.2025 93.3408 12.6214 93.3408 11.8467V7.47852H91.3105V6.97266L92.3223 6.50781H97.4424ZM100.102 6.50781V11.7988C100.102 12.2728 100.184 12.626 100.348 12.8584C100.516 13.0863 100.799 13.2002 101.195 13.2002C101.364 13.2002 101.562 13.1865 101.79 13.1592C102.022 13.1273 102.2 13.0954 102.323 13.0635V13.9316C102.182 13.9909 101.991 14.0387 101.749 14.0752C101.512 14.1162 101.28 14.1367 101.052 14.1367C100.323 14.1367 99.7917 13.9453 99.459 13.5625C99.1309 13.1797 98.9668 12.6032 98.9668 11.833V6.50781H100.102ZM106.199 17.3633H104.969C104.969 16.9258 105.042 16.3721 105.188 15.7021C105.333 15.0322 105.504 14.4375 105.7 13.918L102.631 6.50781H103.807L105.447 10.5C105.876 11.571 106.133 12.3411 106.22 12.8105H106.274C106.297 12.6738 106.354 12.4437 106.445 12.1201C106.541 11.7965 106.637 11.4889 106.732 11.1973C106.833 10.901 107.416 9.33789 108.482 6.50781H109.658L106.89 13.8154C106.671 14.3805 106.5 14.9958 106.377 15.6611C106.258 16.3265 106.199 16.8939 106.199 17.3633ZM117.41 10.2471C117.41 11.4821 117.118 12.4391 116.535 13.1182C115.952 13.7972 115.129 14.1367 114.067 14.1367C113.252 14.1367 112.57 13.9225 112.023 13.4941H111.969C112.005 13.7721 112.023 14.3942 112.023 15.3604V17.3633H110.875V10.1514C110.875 8.93913 111.16 8.00716 111.729 7.35547C112.304 6.69922 113.124 6.37109 114.19 6.37109C115.188 6.37109 115.975 6.71745 116.549 7.41016C117.123 8.09831 117.41 9.04395 117.41 10.2471ZM114.136 7.33496C113.416 7.33496 112.882 7.57194 112.536 8.0459C112.194 8.5153 112.023 9.22624 112.023 10.1787V12.4893C112.579 12.9541 113.274 13.1865 114.108 13.1865C114.833 13.1865 115.368 12.9495 115.715 12.4756C116.061 12.0016 116.234 11.2588 116.234 10.2471C116.234 9.27181 116.07 8.54264 115.742 8.05957C115.414 7.5765 114.879 7.33496 114.136 7.33496ZM122.25 13.1865C123.02 13.1865 123.576 12.9655 123.918 12.5234C124.26 12.0768 124.431 11.3568 124.431 10.3633V10.2607C124.431 9.21712 124.257 8.46973 123.911 8.01855C123.565 7.56283 123.007 7.33496 122.236 7.33496C120.855 7.33496 120.165 8.31934 120.165 10.2881C120.165 11.2542 120.331 11.9788 120.664 12.4619C121.001 12.945 121.53 13.1865 122.25 13.1865ZM122.079 14.1367C121.104 14.1367 120.345 13.7995 119.803 13.125C119.26 12.446 118.989 11.4958 118.989 10.2744C118.989 9.02572 119.267 8.06413 119.823 7.38965C120.379 6.71061 121.17 6.37109 122.195 6.37109C122.747 6.37109 123.205 6.4668 123.569 6.6582C123.938 6.84961 124.246 7.13672 124.492 7.51953H124.574C124.684 7.10026 124.832 6.76302 125.019 6.50781H125.9C125.805 6.80859 125.725 7.23926 125.661 7.7998C125.597 8.36035 125.565 8.90495 125.565 9.43359V12.4346C125.565 12.9541 125.757 13.2139 126.14 13.2139C126.272 13.2139 126.413 13.1911 126.563 13.1455V13.959C126.354 14.0775 126.101 14.1367 125.805 14.1367C125.436 14.1367 125.148 14.0456 124.943 13.8633C124.743 13.6764 124.602 13.387 124.52 12.9951H124.431C124.162 13.387 123.836 13.6764 123.453 13.8633C123.075 14.0456 122.617 14.1367 122.079 14.1367ZM131.157 17.3633V14.123C129.972 14.0729 129.075 13.7174 128.464 13.0566C127.853 12.3913 127.548 11.4411 127.548 10.2061C127.548 8.8571 128.02 7.60612 128.963 6.45312L129.858 7.06836C129.453 7.60156 129.157 8.12337 128.97 8.63379C128.787 9.14421 128.696 9.68197 128.696 10.2471C128.696 12.0472 129.517 13.027 131.157 13.1865V8.94824C131.157 8.09603 131.346 7.45345 131.725 7.02051C132.103 6.58757 132.632 6.37109 133.311 6.37109C134.131 6.37109 134.789 6.70605 135.286 7.37598C135.783 8.04134 136.031 8.94368 136.031 10.083C136.031 10.8942 135.876 11.5983 135.566 12.1953C135.257 12.7878 134.819 13.248 134.254 13.5762C133.689 13.9043 133.03 14.0866 132.278 14.123V17.3633H131.157ZM134.855 10.0967C134.855 9.25358 134.714 8.58366 134.432 8.08691C134.149 7.58561 133.775 7.33496 133.311 7.33496C132.978 7.33496 132.723 7.47168 132.545 7.74512C132.367 8.01855 132.278 8.41504 132.278 8.93457V13.1865C133.094 13.1136 133.728 12.8083 134.179 12.2705C134.63 11.7327 134.855 11.0081 134.855 10.0967ZM143.141 17.3633V9.15332C143.141 8.54264 143.002 8.08691 142.724 7.78613C142.446 7.48535 142.01 7.33496 141.418 7.33496C140.634 7.33496 140.06 7.54688 139.695 7.9707C139.331 8.39453 139.148 9.09408 139.148 10.0693V14H138.014V6.50781H138.937L139.121 7.5332H139.176C139.408 7.16406 139.734 6.87923 140.153 6.67871C140.573 6.47363 141.04 6.37109 141.555 6.37109C142.457 6.37109 143.136 6.58984 143.592 7.02734C144.048 7.46029 144.275 8.15527 144.275 9.1123V17.3633H143.141ZM140.687 5.31836C140.81 4.99023 140.93 4.56868 141.049 4.05371C141.172 3.53418 141.261 3.08757 141.315 2.71387H142.573V2.87109C142.491 3.20833 142.325 3.64811 142.074 4.19043C141.828 4.72819 141.593 5.17025 141.37 5.5166H140.687V5.31836ZM155.302 6.50781V7.47852H152.349V11.7031C152.349 12.7194 152.816 13.2275 153.75 13.2275C153.964 13.2275 154.183 13.2139 154.406 13.1865C154.63 13.1546 154.803 13.1227 154.926 13.0908V13.9453C154.766 14.0137 154.559 14.0684 154.304 14.1094C154.053 14.1504 153.818 14.1709 153.6 14.1709C152.775 14.1709 152.169 13.9772 151.781 13.5898C151.394 13.2025 151.2 12.6214 151.2 11.8467V7.47852H149.17V6.97266L150.182 6.50781H155.302ZM163.348 10.2471C163.348 11.4684 163.04 12.4232 162.425 13.1113C161.81 13.7949 160.96 14.1367 159.875 14.1367C159.205 14.1367 158.61 13.9795 158.091 13.665C157.571 13.3506 157.17 12.8994 156.888 12.3115C156.605 11.7236 156.464 11.0355 156.464 10.2471C156.464 9.02572 156.769 8.07552 157.38 7.39648C157.991 6.71289 158.838 6.37109 159.923 6.37109C160.971 6.37109 161.803 6.71973 162.418 7.41699C163.038 8.11426 163.348 9.05762 163.348 10.2471ZM157.64 10.2471C157.64 11.2041 157.831 11.9333 158.214 12.4346C158.597 12.9359 159.16 13.1865 159.902 13.1865C160.645 13.1865 161.208 12.9382 161.591 12.4414C161.978 11.9401 162.172 11.2087 162.172 10.2471C162.172 9.2946 161.978 8.57227 161.591 8.08008C161.208 7.58333 160.641 7.33496 159.889 7.33496C159.146 7.33496 158.585 7.57878 158.207 8.06641C157.829 8.55404 157.64 9.28092 157.64 10.2471ZM164.141 6.50781H165.316L166.813 10.541C166.932 10.8464 167.085 11.2702 167.271 11.8125C167.463 12.3548 167.595 12.7673 167.668 13.0498H167.723C168.529 12.2523 169.113 11.3477 169.473 10.3359C169.837 9.31966 170.02 8.04362 170.02 6.50781H171.154C171.154 8.16211 170.917 9.56803 170.443 10.7256C169.974 11.8831 169.227 12.9746 168.201 14H166.93L164.141 6.50781ZM45.5713 21.5215H46.9863L44.1562 24.8164L47.1846 29H45.8105L43.3428 25.5547L42.4199 26.3271V29H41.2031V21.5215H42.4199V23.4561C42.4199 24.2126 42.3926 24.8483 42.3379 25.3633L45.5713 21.5215ZM50.6777 29.1367C49.8483 29.1367 49.2012 28.7995 48.7363 28.125C48.276 27.4505 48.0459 26.5345 48.0459 25.377C48.0459 24.666 48.1074 24.0189 48.2305 23.4355C48.3581 22.8477 48.5768 22.2051 48.8867 21.5078H50.0625C49.7526 22.2188 49.5316 22.8659 49.3994 23.4492C49.2718 24.028 49.208 24.6751 49.208 25.3906C49.208 26.2702 49.3447 26.9561 49.6182 27.4482C49.8916 27.9404 50.2721 28.1865 50.7598 28.1865C51.1882 28.1865 51.5208 28.0247 51.7578 27.7012C51.9993 27.373 52.1201 26.9242 52.1201 26.3545V24.2285H53.2207V26.3545C53.2207 26.9378 53.3415 27.389 53.583 27.708C53.8245 28.027 54.1572 28.1865 54.5811 28.1865C55.0687 28.1865 55.4492 27.9404 55.7227 27.4482C55.9961 26.9561 56.1328 26.2702 56.1328 25.3906C56.1328 24.7025 56.069 24.0622 55.9414 23.4697C55.8184 22.8773 55.5996 22.2233 55.2852 21.5078H56.4609C56.7572 22.1732 56.9691 22.8066 57.0967 23.4082C57.2288 24.0052 57.2949 24.6615 57.2949 25.377C57.2949 26.5254 57.0625 27.4391 56.5977 28.1182C56.1374 28.7972 55.4925 29.1367 54.6631 29.1367C53.6605 29.1367 53.0042 28.722 52.6943 27.8926H52.6328C52.3366 28.722 51.6849 29.1367 50.6777 29.1367ZM52.1064 20.3184C52.2295 19.9902 52.3503 19.5687 52.4688 19.0537C52.5918 18.5342 52.6807 18.0876 52.7354 17.7139H53.9932V17.8711C53.9111 18.2083 53.7448 18.6481 53.4941 19.1904C53.248 19.7282 53.0133 20.1702 52.79 20.5166H52.1064V20.3184ZM61.8135 22.6016C61.1755 22.2461 60.7243 21.8883 60.46 21.5283C60.1956 21.1637 60.0635 20.7559 60.0635 20.3047C60.0635 19.7122 60.2845 19.2428 60.7266 18.8965C61.1686 18.5501 61.7633 18.377 62.5107 18.377C62.9801 18.377 63.429 18.4294 63.8574 18.5342C64.2904 18.6344 64.7939 18.8281 65.3682 19.1152L64.876 20.0381C64.3656 19.7555 63.9281 19.5641 63.5635 19.4639C63.2035 19.3636 62.8389 19.3135 62.4697 19.3135C62.0824 19.3135 61.777 19.4046 61.5537 19.5869C61.335 19.7646 61.2256 20.0039 61.2256 20.3047C61.2256 20.6283 61.3464 20.9176 61.5879 21.1729C61.834 21.4235 62.3376 21.7562 63.0986 22.1709C64.0557 22.695 64.7347 23.2327 65.1357 23.7842C65.5413 24.3311 65.7441 24.9782 65.7441 25.7256C65.7441 26.7965 65.4342 27.6328 64.8145 28.2344C64.1947 28.8359 63.347 29.1367 62.2715 29.1367C61.237 29.1367 60.4098 28.8542 59.79 28.2891C59.1702 27.724 58.8604 26.9629 58.8604 26.0059C58.8604 25.1992 59.1178 24.4997 59.6328 23.9072C60.1478 23.3102 60.8747 22.875 61.8135 22.6016ZM64.5684 25.7256C64.5684 25.1423 64.4271 24.6432 64.1445 24.2285C63.8665 23.8092 63.4062 23.431 62.7637 23.0938C61.8249 23.3353 61.1367 23.7044 60.6992 24.2012C60.2663 24.6934 60.0498 25.304 60.0498 26.0332C60.0498 26.6895 60.2526 27.2135 60.6582 27.6055C61.0638 27.9928 61.6016 28.1865 62.2715 28.1865C63.0098 28.1865 63.5771 27.9746 63.9736 27.5508C64.3701 27.127 64.5684 26.5186 64.5684 25.7256ZM68.4922 21.5078V26.7988C68.4922 27.2728 68.5742 27.626 68.7383 27.8584C68.9069 28.0863 69.1895 28.2002 69.5859 28.2002C69.7546 28.2002 69.9528 28.1865 70.1807 28.1592C70.4131 28.1273 70.5908 28.0954 70.7139 28.0635V28.9316C70.5726 28.9909 70.3812 29.0387 70.1396 29.0752C69.9027 29.1162 69.6702 29.1367 69.4424 29.1367C68.7132 29.1367 68.1823 28.9453 67.8496 28.5625C67.5215 28.1797 67.3574 27.6032 67.3574 26.833V21.5078H68.4922ZM76.5244 21.5215H77.9395L75.1094 24.8164L78.1377 29H76.7637L74.2959 25.5547L73.373 26.3271V29H72.1562V21.5215H73.373V23.4561C73.373 24.2126 73.3457 24.8483 73.291 25.3633L76.5244 21.5215ZM82.2598 28.1865C83.0299 28.1865 83.5859 27.9655 83.9277 27.5234C84.2695 27.0768 84.4404 26.3568 84.4404 25.3633V25.2607C84.4404 24.2171 84.2673 23.4697 83.9209 23.0186C83.5745 22.5628 83.0163 22.335 82.2461 22.335C80.8652 22.335 80.1748 23.3193 80.1748 25.2881C80.1748 26.2542 80.3411 26.9788 80.6738 27.4619C81.0111 27.945 81.5397 28.1865 82.2598 28.1865ZM82.0889 29.1367C81.1136 29.1367 80.3548 28.7995 79.8125 28.125C79.2702 27.446 78.999 26.4958 78.999 25.2744C78.999 24.0257 79.277 23.0641 79.833 22.3896C80.389 21.7106 81.1797 21.3711 82.2051 21.3711C82.7565 21.3711 83.2145 21.4668 83.5791 21.6582C83.9482 21.8496 84.2559 22.1367 84.502 22.5195H84.584C84.6934 22.1003 84.8415 21.763 85.0283 21.5078H85.9102C85.8145 21.8086 85.7347 22.2393 85.6709 22.7998C85.6071 23.3604 85.5752 23.9049 85.5752 24.4336V27.4346C85.5752 27.9541 85.7666 28.2139 86.1494 28.2139C86.2816 28.2139 86.4229 28.1911 86.5732 28.1455V28.959C86.3636 29.0775 86.1107 29.1367 85.8145 29.1367C85.4453 29.1367 85.1582 29.0456 84.9531 28.8633C84.7526 28.6764 84.6113 28.387 84.5293 27.9951H84.4404C84.1715 28.387 83.8457 28.6764 83.4629 28.8633C83.0846 29.0456 82.6266 29.1367 82.0889 29.1367ZM98.0645 25.5273C98.0645 26.2428 97.9232 26.8763 97.6406 27.4277C97.3626 27.9746 96.9616 28.3962 96.4375 28.6924C95.918 28.9886 95.3073 29.1367 94.6055 29.1367C93.5345 29.1367 92.6982 28.8086 92.0967 28.1523C91.4951 27.4961 91.1943 26.5892 91.1943 25.4316C91.1943 22.8158 92.5433 21.5078 95.2412 21.5078H98.6523V22.4785H96.8477C97.6589 23.2396 98.0645 24.2559 98.0645 25.5273ZM92.3701 25.4316C92.3701 26.3158 92.5638 26.9971 92.9512 27.4756C93.3385 27.9495 93.8991 28.1865 94.6328 28.1865C95.3574 28.1865 95.9134 27.9632 96.3008 27.5166C96.6927 27.0654 96.8887 26.4251 96.8887 25.5957C96.8887 24.3652 96.4922 23.3262 95.6992 22.4785H95.2549C94.2432 22.4785 93.5094 22.7155 93.0537 23.1895C92.598 23.6634 92.3701 24.4108 92.3701 25.4316ZM105.249 21.5078V22.4785H102.296V26.7031C102.296 27.7194 102.763 28.2275 103.697 28.2275C103.911 28.2275 104.13 28.2139 104.354 28.1865C104.577 28.1546 104.75 28.1227 104.873 28.0908V28.9453C104.714 29.0137 104.506 29.0684 104.251 29.1094C104 29.1504 103.766 29.1709 103.547 29.1709C102.722 29.1709 102.116 28.9772 101.729 28.5898C101.341 28.2025 101.147 27.6214 101.147 26.8467V22.4785H99.1172V21.9727L100.129 21.5078H105.249ZM109.672 28.1865C110.442 28.1865 110.998 27.9655 111.34 27.5234C111.682 27.0768 111.853 26.3568 111.853 25.3633V25.2607C111.853 24.2171 111.679 23.4697 111.333 23.0186C110.987 22.5628 110.428 22.335 109.658 22.335C108.277 22.335 107.587 23.3193 107.587 25.2881C107.587 26.2542 107.753 26.9788 108.086 27.4619C108.423 27.945 108.952 28.1865 109.672 28.1865ZM109.501 29.1367C108.526 29.1367 107.767 28.7995 107.225 28.125C106.682 27.446 106.411 26.4958 106.411 25.2744C106.411 24.0257 106.689 23.0641 107.245 22.3896C107.801 21.7106 108.592 21.3711 109.617 21.3711C110.169 21.3711 110.627 21.4668 110.991 21.6582C111.36 21.8496 111.668 22.1367 111.914 22.5195H111.996C112.105 22.1003 112.254 21.763 112.44 21.5078H113.322C113.227 21.8086 113.147 22.2393 113.083 22.7998C113.019 23.3604 112.987 23.9049 112.987 24.4336V27.4346C112.987 27.9541 113.179 28.2139 113.562 28.2139C113.694 28.2139 113.835 28.1911 113.985 28.1455V28.959C113.776 29.0775 113.523 29.1367 113.227 29.1367C112.857 29.1367 112.57 29.0456 112.365 28.8633C112.165 28.6764 112.023 28.387 111.941 27.9951H111.853C111.584 28.387 111.258 28.6764 110.875 28.8633C110.497 29.0456 110.039 29.1367 109.501 29.1367ZM121.546 22.6016C120.908 22.2461 120.457 21.8883 120.192 21.5283C119.928 21.1637 119.796 20.7559 119.796 20.3047C119.796 19.7122 120.017 19.2428 120.459 18.8965C120.901 18.5501 121.496 18.377 122.243 18.377C122.713 18.377 123.161 18.4294 123.59 18.5342C124.023 18.6344 124.526 18.8281 125.101 19.1152L124.608 20.0381C124.098 19.7555 123.66 19.5641 123.296 19.4639C122.936 19.3636 122.571 19.3135 122.202 19.3135C121.815 19.3135 121.509 19.4046 121.286 19.5869C121.067 19.7646 120.958 20.0039 120.958 20.3047C120.958 20.6283 121.079 20.9176 121.32 21.1729C121.566 21.4235 122.07 21.7562 122.831 22.1709C123.788 22.695 124.467 23.2327 124.868 23.7842C125.274 24.3311 125.477 24.9782 125.477 25.7256C125.477 26.7965 125.167 27.6328 124.547 28.2344C123.927 28.8359 123.079 29.1367 122.004 29.1367C120.969 29.1367 120.142 28.8542 119.522 28.2891C118.903 27.724 118.593 26.9629 118.593 26.0059C118.593 25.1992 118.85 24.4997 119.365 23.9072C119.88 23.3102 120.607 22.875 121.546 22.6016ZM124.301 25.7256C124.301 25.1423 124.16 24.6432 123.877 24.2285C123.599 23.8092 123.139 23.431 122.496 23.0938C121.557 23.3353 120.869 23.7044 120.432 24.2012C119.999 24.6934 119.782 25.304 119.782 26.0332C119.782 26.6895 119.985 27.2135 120.391 27.6055C120.796 27.9928 121.334 28.1865 122.004 28.1865C122.742 28.1865 123.31 27.9746 123.706 27.5508C124.103 27.127 124.301 26.5186 124.301 25.7256ZM130.829 24.6182V25.582H129.817C128.4 25.582 127.691 26.0264 127.691 26.915C127.691 27.3252 127.858 27.6419 128.19 27.8652C128.528 28.0885 129.029 28.2002 129.694 28.2002C130.077 28.2002 130.458 28.1569 130.836 28.0703C131.214 27.9792 131.631 27.8265 132.087 27.6123V28.624C131.463 28.9658 130.647 29.1367 129.64 29.1367C128.683 29.1367 127.928 28.9453 127.377 28.5625C126.83 28.1751 126.557 27.6442 126.557 26.9697C126.557 26.5231 126.682 26.1517 126.933 25.8555C127.183 25.5547 127.605 25.3109 128.197 25.124V25.0488C127.751 24.9212 127.404 24.7139 127.158 24.4268C126.917 24.1351 126.796 23.7796 126.796 23.3604C126.796 22.7542 127.051 22.2712 127.562 21.9111C128.072 21.5511 128.765 21.3711 129.64 21.3711C130.082 21.3711 130.49 21.4098 130.863 21.4873C131.242 21.5602 131.659 21.6992 132.114 21.9043L131.684 22.8135C131.255 22.6221 130.893 22.4945 130.597 22.4307C130.3 22.3669 129.972 22.335 129.612 22.335C128.473 22.335 127.903 22.7041 127.903 23.4424C127.903 24.2262 128.626 24.6182 130.07 24.6182H130.829ZM138.438 23.8457H137.221C136.419 23.8457 135.774 24.0485 135.286 24.4541C134.803 24.8597 134.562 25.3861 134.562 26.0332C134.562 26.3978 134.618 26.6917 134.732 26.915C134.846 27.1383 135.01 27.3206 135.225 27.4619C135.443 27.5986 135.705 27.708 136.011 27.79C136.321 27.8721 136.667 27.9541 137.05 28.0361C137.697 28.1683 138.173 28.3597 138.479 28.6104C138.788 28.861 138.943 29.1914 138.943 29.6016C138.943 29.8978 138.882 30.2145 138.759 30.5518C138.636 30.8936 138.422 31.29 138.116 31.7412H137.05C137.291 31.4176 137.487 31.0872 137.638 30.75C137.788 30.4173 137.863 30.1325 137.863 29.8955C137.863 29.6449 137.731 29.4489 137.467 29.3076C137.207 29.1709 136.751 29.0456 136.1 28.9316C135.188 28.7767 134.505 28.4714 134.049 28.0156C133.598 27.5599 133.372 26.931 133.372 26.1289C133.372 25.4909 133.552 24.9326 133.912 24.4541C134.272 23.9756 134.744 23.6475 135.327 23.4697V23.3877C134.338 23.096 133.844 22.4557 133.844 21.4668C133.844 20.9336 134.001 20.487 134.315 20.127C134.634 19.7669 135.172 19.473 135.929 19.2451C135.345 19.2998 134.792 19.3271 134.268 19.3271H133.803V18.3633H138.574V19.2588H138.226C137.633 19.2588 137.082 19.3499 136.571 19.5322C136.061 19.7145 135.66 19.9697 135.368 20.2979C135.081 20.626 134.938 21.0065 134.938 21.4395C134.938 21.9635 135.127 22.3486 135.505 22.5947C135.888 22.8408 136.478 22.9639 137.275 22.9639H138.438V23.8457ZM141.541 21.5078V26.7988C141.541 27.2728 141.623 27.626 141.787 27.8584C141.956 28.0863 142.238 28.2002 142.635 28.2002C142.803 28.2002 143.002 28.1865 143.229 28.1592C143.462 28.1273 143.64 28.0954 143.763 28.0635V28.9316C143.621 28.9909 143.43 29.0387 143.188 29.0752C142.951 29.1162 142.719 29.1367 142.491 29.1367C141.762 29.1367 141.231 28.9453 140.898 28.5625C140.57 28.1797 140.406 27.6032 140.406 26.833V21.5078H141.541ZM140.57 20.3184C140.693 19.9902 140.814 19.5687 140.933 19.0537C141.056 18.5342 141.145 18.0876 141.199 17.7139H142.457V17.8711C142.375 18.2083 142.209 18.6481 141.958 19.1904C141.712 19.7282 141.477 20.1702 141.254 20.5166H140.57V20.3184ZM148.049 28.1865C148.819 28.1865 149.375 27.9655 149.717 27.5234C150.059 27.0768 150.229 26.3568 150.229 25.3633V25.2607C150.229 24.2171 150.056 23.4697 149.71 23.0186C149.364 22.5628 148.805 22.335 148.035 22.335C146.654 22.335 145.964 23.3193 145.964 25.2881C145.964 26.2542 146.13 26.9788 146.463 27.4619C146.8 27.945 147.329 28.1865 148.049 28.1865ZM147.878 29.1367C146.903 29.1367 146.144 28.7995 145.602 28.125C145.059 27.446 144.788 26.4958 144.788 25.2744C144.788 24.0257 145.066 23.0641 145.622 22.3896C146.178 21.7106 146.969 21.3711 147.994 21.3711C148.546 21.3711 149.004 21.4668 149.368 21.6582C149.737 21.8496 150.045 22.1367 150.291 22.5195H150.373C150.482 22.1003 150.631 21.763 150.817 21.5078H151.699C151.604 21.8086 151.524 22.2393 151.46 22.7998C151.396 23.3604 151.364 23.9049 151.364 24.4336V27.4346C151.364 27.9541 151.556 28.2139 151.938 28.2139C152.071 28.2139 152.212 28.1911 152.362 28.1455V28.959C152.153 29.0775 151.9 29.1367 151.604 29.1367C151.234 29.1367 150.947 29.0456 150.742 28.8633C150.542 28.6764 150.4 28.387 150.318 27.9951H150.229C149.961 28.387 149.635 28.6764 149.252 28.8633C148.874 29.0456 148.416 29.1367 147.878 29.1367ZM163.854 25.5273C163.854 26.2428 163.712 26.8763 163.43 27.4277C163.152 27.9746 162.751 28.3962 162.227 28.6924C161.707 28.9886 161.096 29.1367 160.395 29.1367C159.324 29.1367 158.487 28.8086 157.886 28.1523C157.284 27.4961 156.983 26.5892 156.983 25.4316C156.983 22.8158 158.332 21.5078 161.03 21.5078H164.441V22.4785H162.637C163.448 23.2396 163.854 24.2559 163.854 25.5273ZM158.159 25.4316C158.159 26.3158 158.353 26.9971 158.74 27.4756C159.128 27.9495 159.688 28.1865 160.422 28.1865C161.146 28.1865 161.702 27.9632 162.09 27.5166C162.482 27.0654 162.678 26.4251 162.678 25.5957C162.678 24.3652 162.281 23.3262 161.488 22.4785H161.044C160.032 22.4785 159.299 22.7155 158.843 23.1895C158.387 23.6634 158.159 24.4108 158.159 25.4316ZM172.453 25.2471C172.453 26.4684 172.146 27.4232 171.53 28.1113C170.915 28.7949 170.065 29.1367 168.98 29.1367C168.311 29.1367 167.716 28.9795 167.196 28.665C166.677 28.3506 166.276 27.8994 165.993 27.3115C165.711 26.7236 165.569 26.0355 165.569 25.2471C165.569 24.0257 165.875 23.0755 166.485 22.3965C167.096 21.7129 167.944 21.3711 169.028 21.3711C170.076 21.3711 170.908 21.7197 171.523 22.417C172.143 23.1143 172.453 24.0576 172.453 25.2471ZM166.745 25.2471C166.745 26.2041 166.937 26.9333 167.319 27.4346C167.702 27.9359 168.265 28.1865 169.008 28.1865C169.751 28.1865 170.313 27.9382 170.696 27.4414C171.084 26.9401 171.277 26.2087 171.277 25.2471C171.277 24.2946 171.084 23.5723 170.696 23.0801C170.313 22.5833 169.746 22.335 168.994 22.335C168.251 22.335 167.691 22.5788 167.312 23.0664C166.934 23.554 166.745 24.2809 166.745 25.2471ZM177.532 29.1367C176.479 29.1367 175.689 28.8519 175.16 28.2822C174.632 27.7126 174.367 26.8216 174.367 25.6094V21.5078H175.502V25.5547C175.502 26.4297 175.682 27.0905 176.042 27.5371C176.402 27.9792 176.931 28.2002 177.628 28.2002C178.389 28.2002 178.952 27.929 179.316 27.3867C179.686 26.8444 179.87 26.0013 179.87 24.8574C179.87 24.265 179.838 23.7135 179.774 23.2031C179.711 22.6927 179.601 22.1276 179.446 21.5078H180.581C180.745 22.1641 180.859 22.736 180.923 23.2236C180.987 23.7113 181.019 24.2741 181.019 24.9121C181.019 26.3613 180.725 27.4277 180.137 28.1113C179.549 28.7949 178.681 29.1367 177.532 29.1367ZM182.816 28.2754C182.816 27.9701 182.885 27.7399 183.021 27.585C183.163 27.4255 183.363 27.3457 183.623 27.3457C183.887 27.3457 184.092 27.4255 184.238 27.585C184.389 27.7399 184.464 27.9701 184.464 28.2754C184.464 28.5716 184.389 28.7995 184.238 28.959C184.088 29.1185 183.883 29.1982 183.623 29.1982C183.391 29.1982 183.197 29.1276 183.042 28.9863C182.892 28.8405 182.816 28.6035 182.816 28.2754ZM182.816 22.2393C182.816 21.624 183.085 21.3164 183.623 21.3164C184.184 21.3164 184.464 21.624 184.464 22.2393C184.464 22.5355 184.389 22.7633 184.238 22.9229C184.088 23.0824 183.883 23.1621 183.623 23.1621C183.391 23.1621 183.197 23.0915 183.042 22.9502C182.892 22.8044 182.816 22.5674 182.816 22.2393Z" fill="black"/>
<circle cx="16" cy="16" r="16" fill="#F1F1F1"/>
<path d="M16.6094 22H14.1953V15.3906L14.2188 14.3047L14.2578 13.1172C13.8568 13.5182 13.5781 13.7812 13.4219 13.9062L12.1094 14.9609L10.9453 13.5078L14.625 10.5781H16.6094V22Z" fill="#6C63FF"/>
<path d="M46.9453 67H41.374V57.0059H46.9453V58.0381H42.5361V61.2578H46.6787V62.2832H42.5361V65.9609H46.9453V67ZM55.6475 66.2002C55.8206 66.2002 56.0166 66.1592 56.2354 66.0771V66.9727C56.0394 67.082 55.75 67.1367 55.3672 67.1367C54.3691 67.1367 53.8701 66.5602 53.8701 65.4072V60.4785H50.6094V67H49.4746V60.4785H47.9639V59.9727L48.9414 59.5078H56.4609V60.4785H55.0049V65.3184C55.0049 65.6556 55.0618 65.888 55.1758 66.0156C55.2943 66.1387 55.4515 66.2002 55.6475 66.2002ZM59.1816 59.5078V64.7988C59.1816 65.2728 59.2637 65.626 59.4277 65.8584C59.5964 66.0863 59.8789 66.2002 60.2754 66.2002C60.444 66.2002 60.6423 66.1865 60.8701 66.1592C61.1025 66.1273 61.2803 66.0954 61.4033 66.0635V66.9316C61.262 66.9909 61.0706 67.0387 60.8291 67.0752C60.5921 67.1162 60.3597 67.1367 60.1318 67.1367C59.4027 67.1367 58.8717 66.9453 58.5391 66.5625C58.2109 66.1797 58.0469 65.6032 58.0469 64.833V59.5078H59.1816ZM67.2139 59.5215H68.6289L65.7988 62.8164L68.8271 67H67.4531L64.9854 63.5547L64.0625 64.3271V67H62.8457V59.5215H64.0625V61.4561C64.0625 62.2126 64.0352 62.8483 63.9805 63.3633L67.2139 59.5215ZM76.5723 63.2471C76.5723 64.4684 76.2646 65.4232 75.6494 66.1113C75.0342 66.7949 74.1842 67.1367 73.0996 67.1367C72.4297 67.1367 71.835 66.9795 71.3154 66.665C70.7959 66.3506 70.3949 65.8994 70.1123 65.3115C69.8298 64.7236 69.6885 64.0355 69.6885 63.2471C69.6885 62.0257 69.9938 61.0755 70.6045 60.3965C71.2152 59.7129 72.0628 59.3711 73.1475 59.3711C74.1956 59.3711 75.0273 59.7197 75.6426 60.417C76.2624 61.1143 76.5723 62.0576 76.5723 63.2471ZM70.8643 63.2471C70.8643 64.2041 71.0557 64.9333 71.4385 65.4346C71.8213 65.9359 72.3841 66.1865 73.127 66.1865C73.8698 66.1865 74.4326 65.9382 74.8154 65.4414C75.2028 64.9401 75.3965 64.2087 75.3965 63.2471C75.3965 62.2946 75.2028 61.5723 74.8154 61.0801C74.4326 60.5833 73.8652 60.335 73.1133 60.335C72.3704 60.335 71.8099 60.5788 71.4316 61.0664C71.0534 61.554 70.8643 62.2809 70.8643 63.2471ZM72.6006 58.3184C72.7236 57.9902 72.8444 57.5687 72.9629 57.0537C73.0859 56.5342 73.1748 56.0876 73.2295 55.7139H74.4873V55.8711C74.4053 56.2083 74.2389 56.6481 73.9883 57.1904C73.7422 57.7282 73.5075 58.1702 73.2842 58.5166H72.6006V58.3184ZM77.2695 67L80.5029 59.624L80.1064 58.5166C79.9697 58.1292 79.8444 57.8558 79.7305 57.6963C79.6165 57.5368 79.4821 57.416 79.3271 57.334C79.1768 57.252 78.9899 57.2109 78.7666 57.2109C78.5023 57.2109 78.2402 57.2406 77.9805 57.2998V56.3906C78.2904 56.3132 78.5889 56.2744 78.876 56.2744C79.2907 56.2744 79.6348 56.3428 79.9082 56.4795C80.1862 56.6162 80.4255 56.8327 80.626 57.1289C80.8265 57.4251 81.0498 57.9196 81.2959 58.6123L83.7773 65.5303C83.8639 65.7536 83.9551 65.9245 84.0508 66.043C84.1465 66.1569 84.2741 66.2139 84.4336 66.2139C84.5566 66.2139 84.6934 66.1911 84.8438 66.1455V66.9727C84.625 67.082 84.3766 67.1367 84.0986 67.1367C83.7614 67.1367 83.4971 67.0501 83.3057 66.877C83.1188 66.7038 82.9593 66.4281 82.8271 66.0498L81.7607 63.0693C81.3779 61.9756 81.1364 61.21 81.0361 60.7725H80.9746C80.847 61.3011 80.5827 62.0417 80.1816 62.9941L78.4453 67H77.2695ZM84.748 67L87.9814 59.624L87.585 58.5166C87.4482 58.1292 87.3229 57.8558 87.209 57.6963C87.0951 57.5368 86.9606 57.416 86.8057 57.334C86.6553 57.252 86.4684 57.2109 86.2451 57.2109C85.9808 57.2109 85.7188 57.2406 85.459 57.2998V56.3906C85.7689 56.3132 86.0674 56.2744 86.3545 56.2744C86.7692 56.2744 87.1133 56.3428 87.3867 56.4795C87.6647 56.6162 87.904 56.8327 88.1045 57.1289C88.305 57.4251 88.5283 57.9196 88.7744 58.6123L91.2559 65.5303C91.3424 65.7536 91.4336 65.9245 91.5293 66.043C91.625 66.1569 91.7526 66.2139 91.9121 66.2139C92.0352 66.2139 92.1719 66.1911 92.3223 66.1455V66.9727C92.1035 67.082 91.8551 67.1367 91.5771 67.1367C91.2399 67.1367 90.9756 67.0501 90.7842 66.877C90.5973 66.7038 90.4378 66.4281 90.3057 66.0498L89.2393 63.0693C88.8564 61.9756 88.6149 61.21 88.5146 60.7725H88.4531C88.3255 61.3011 88.0612 62.0417 87.6602 62.9941L85.9238 67H84.748ZM98.6523 70.3633V62.1533C98.6523 61.5426 98.5133 61.0869 98.2354 60.7861C97.9574 60.4854 97.5221 60.335 96.9297 60.335C96.1458 60.335 95.5716 60.5469 95.207 60.9707C94.8424 61.3945 94.6602 62.0941 94.6602 63.0693V67H93.5254V59.5078H94.4482L94.6328 60.5332H94.6875C94.9199 60.1641 95.2458 59.8792 95.665 59.6787C96.0843 59.4736 96.5514 59.3711 97.0664 59.3711C97.9688 59.3711 98.6478 59.5898 99.1035 60.0273C99.5592 60.4603 99.7871 61.1553 99.7871 62.1123V70.3633H98.6523ZM108.578 63.5273C108.578 64.2428 108.437 64.8763 108.154 65.4277C107.876 65.9746 107.475 66.3962 106.951 66.6924C106.432 66.9886 105.821 67.1367 105.119 67.1367C104.048 67.1367 103.212 66.8086 102.61 66.1523C102.009 65.4961 101.708 64.5892 101.708 63.4316C101.708 60.8158 103.057 59.5078 105.755 59.5078H109.166V60.4785H107.361C108.173 61.2396 108.578 62.2559 108.578 63.5273ZM102.884 63.4316C102.884 64.3158 103.077 64.9971 103.465 65.4756C103.852 65.9495 104.413 66.1865 105.146 66.1865C105.871 66.1865 106.427 65.9632 106.814 65.5166C107.206 65.0654 107.402 64.4251 107.402 63.5957C107.402 62.3652 107.006 61.3262 106.213 60.4785H105.769C104.757 60.4785 104.023 60.7155 103.567 61.1895C103.112 61.6634 102.884 62.4108 102.884 63.4316ZM115.838 70.3633V62.1533C115.838 61.5426 115.699 61.0869 115.421 60.7861C115.143 60.4854 114.708 60.335 114.115 60.335C113.331 60.335 112.757 60.5469 112.393 60.9707C112.028 61.3945 111.846 62.0941 111.846 63.0693V67H110.711V59.5078H111.634L111.818 60.5332H111.873C112.105 60.1641 112.431 59.8792 112.851 59.6787C113.27 59.4736 113.737 59.3711 114.252 59.3711C115.154 59.3711 115.833 59.5898 116.289 60.0273C116.745 60.4603 116.973 61.1553 116.973 62.1123V70.3633H115.838ZM129.4 63.5273C129.4 64.2428 129.259 64.8763 128.977 65.4277C128.699 65.9746 128.298 66.3962 127.773 66.6924C127.254 66.9886 126.643 67.1367 125.941 67.1367C124.87 67.1367 124.034 66.8086 123.433 66.1523C122.831 65.4961 122.53 64.5892 122.53 63.4316C122.53 60.8158 123.879 59.5078 126.577 59.5078H129.988V60.4785H128.184C128.995 61.2396 129.4 62.2559 129.4 63.5273ZM123.706 63.4316C123.706 64.3158 123.9 64.9971 124.287 65.4756C124.674 65.9495 125.235 66.1865 125.969 66.1865C126.693 66.1865 127.249 65.9632 127.637 65.5166C128.029 65.0654 128.225 64.4251 128.225 63.5957C128.225 62.3652 127.828 61.3262 127.035 60.4785H126.591C125.579 60.4785 124.845 60.7155 124.39 61.1895C123.934 61.6634 123.706 62.4108 123.706 63.4316ZM136.585 59.5078V60.4785H133.632V64.7031C133.632 65.7194 134.099 66.2275 135.033 66.2275C135.247 66.2275 135.466 66.2139 135.689 66.1865C135.913 66.1546 136.086 66.1227 136.209 66.0908V66.9453C136.049 67.0137 135.842 67.0684 135.587 67.1094C135.336 67.1504 135.102 67.1709 134.883 67.1709C134.058 67.1709 133.452 66.9772 133.064 66.5898C132.677 66.2025 132.483 65.6214 132.483 64.8467V60.4785H130.453V59.9727L131.465 59.5078H136.585ZM144.631 63.2471C144.631 64.4684 144.323 65.4232 143.708 66.1113C143.093 66.7949 142.243 67.1367 141.158 67.1367C140.488 67.1367 139.894 66.9795 139.374 66.665C138.854 66.3506 138.453 65.8994 138.171 65.3115C137.888 64.7236 137.747 64.0355 137.747 63.2471C137.747 62.0257 138.052 61.0755 138.663 60.3965C139.274 59.7129 140.121 59.3711 141.206 59.3711C142.254 59.3711 143.086 59.7197 143.701 60.417C144.321 61.1143 144.631 62.0576 144.631 63.2471ZM138.923 63.2471C138.923 64.2041 139.114 64.9333 139.497 65.4346C139.88 65.9359 140.443 66.1865 141.186 66.1865C141.928 66.1865 142.491 65.9382 142.874 65.4414C143.261 64.9401 143.455 64.2087 143.455 63.2471C143.455 62.2946 143.261 61.5723 142.874 61.0801C142.491 60.5833 141.924 60.335 141.172 60.335C140.429 60.335 139.868 60.5788 139.49 61.0664C139.112 61.554 138.923 62.2809 138.923 63.2471ZM156.341 65.3457L149.771 62.4609V61.791L156.341 58.5166V59.5352L150.995 62.0713L156.341 64.3135V65.3457ZM161.762 59.3848C162.746 59.3848 163.509 59.722 164.052 60.3965C164.599 61.0664 164.872 62.0166 164.872 63.2471C164.872 64.4775 164.596 65.4346 164.045 66.1182C163.498 66.7972 162.737 67.1367 161.762 67.1367C161.274 67.1367 160.827 67.0479 160.422 66.8701C160.021 66.6878 159.684 66.4098 159.41 66.0361H159.328L159.089 67H158.275V56.3633H159.41V58.9473C159.41 59.526 159.392 60.0456 159.355 60.5059H159.41C159.939 59.7585 160.723 59.3848 161.762 59.3848ZM161.598 60.335C160.823 60.335 160.265 60.5583 159.923 61.0049C159.581 61.4469 159.41 62.1943 159.41 63.2471C159.41 64.2998 159.586 65.054 159.937 65.5098C160.287 65.9609 160.85 66.1865 161.625 66.1865C162.322 66.1865 162.842 65.9336 163.184 65.4277C163.525 64.9173 163.696 64.1859 163.696 63.2334C163.696 62.2581 163.525 61.5312 163.184 61.0527C162.842 60.5742 162.313 60.335 161.598 60.335ZM173.328 63.2471C173.328 64.4684 173.021 65.4232 172.405 66.1113C171.79 66.7949 170.94 67.1367 169.855 67.1367C169.186 67.1367 168.591 66.9795 168.071 66.665C167.552 66.3506 167.151 65.8994 166.868 65.3115C166.586 64.7236 166.444 64.0355 166.444 63.2471C166.444 62.0257 166.75 61.0755 167.36 60.3965C167.971 59.7129 168.819 59.3711 169.903 59.3711C170.951 59.3711 171.783 59.7197 172.398 60.417C173.018 61.1143 173.328 62.0576 173.328 63.2471ZM167.62 63.2471C167.62 64.2041 167.812 64.9333 168.194 65.4346C168.577 65.9359 169.14 66.1865 169.883 66.1865C170.626 66.1865 171.188 65.9382 171.571 65.4414C171.959 64.9401 172.152 64.2087 172.152 63.2471C172.152 62.2946 171.959 61.5723 171.571 61.0801C171.188 60.5833 170.621 60.335 169.869 60.335C169.126 60.335 168.566 60.5788 168.188 61.0664C167.809 61.554 167.62 62.2809 167.62 63.2471ZM180.424 65.9951H180.362C179.838 66.7562 179.054 67.1367 178.011 67.1367C177.031 67.1367 176.268 66.8018 175.721 66.1318C175.178 65.4619 174.907 64.5094 174.907 63.2744C174.907 62.0394 175.181 61.0801 175.728 60.3965C176.274 59.7129 177.035 59.3711 178.011 59.3711C179.027 59.3711 179.806 59.7402 180.349 60.4785H180.438L180.39 59.9385L180.362 59.4121V56.3633H181.497V67H180.574L180.424 65.9951ZM178.154 66.1865C178.929 66.1865 179.49 65.9769 179.836 65.5576C180.187 65.1338 180.362 64.4525 180.362 63.5137V63.2744C180.362 62.2126 180.185 61.4561 179.829 61.0049C179.478 60.5492 178.915 60.3213 178.141 60.3213C177.475 60.3213 176.965 60.5811 176.609 61.1006C176.258 61.6156 176.083 62.3447 176.083 63.2881C176.083 64.2451 176.258 64.9674 176.609 65.4551C176.96 65.9427 177.475 66.1865 178.154 66.1865ZM182.721 59.5078H183.938L185.578 63.7803C185.938 64.7555 186.161 65.4596 186.248 65.8926H186.303C186.362 65.6602 186.485 65.2637 186.672 64.7031C186.863 64.138 187.483 62.4062 188.531 59.5078H189.748L186.528 68.0391C186.209 68.8822 185.836 69.4792 185.407 69.8301C184.983 70.1855 184.462 70.3633 183.842 70.3633C183.495 70.3633 183.154 70.3245 182.816 70.2471V69.3379C183.067 69.3926 183.347 69.4199 183.657 69.4199C184.437 69.4199 184.993 68.9824 185.325 68.1074L185.742 67.041L182.721 59.5078ZM190.473 64.3135L195.825 62.085L190.473 59.5352V58.5166L197.042 61.791V62.4609L190.473 65.3457V64.3135ZM207.665 59.5078V60.4785H204.712V64.7031C204.712 65.7194 205.179 66.2275 206.113 66.2275C206.327 66.2275 206.546 66.2139 206.77 66.1865C206.993 66.1546 207.166 66.1227 207.289 66.0908V66.9453C207.13 67.0137 206.922 67.0684 206.667 67.1094C206.416 67.1504 206.182 67.1709 205.963 67.1709C205.138 67.1709 204.532 66.9772 204.145 66.5898C203.757 66.2025 203.563 65.6214 203.563 64.8467V60.4785H201.533V59.9727L202.545 59.5078H207.665ZM215.711 63.2471C215.711 64.4684 215.403 65.4232 214.788 66.1113C214.173 66.7949 213.323 67.1367 212.238 67.1367C211.568 67.1367 210.974 66.9795 210.454 66.665C209.935 66.3506 209.534 65.8994 209.251 65.3115C208.968 64.7236 208.827 64.0355 208.827 63.2471C208.827 62.0257 209.132 61.0755 209.743 60.3965C210.354 59.7129 211.201 59.3711 212.286 59.3711C213.334 59.3711 214.166 59.7197 214.781 60.417C215.401 61.1143 215.711 62.0576 215.711 63.2471ZM210.003 63.2471C210.003 64.2041 210.194 64.9333 210.577 65.4346C210.96 65.9359 211.523 66.1865 212.266 66.1865C213.008 66.1865 213.571 65.9382 213.954 65.4414C214.341 64.9401 214.535 64.2087 214.535 63.2471C214.535 62.2946 214.341 61.5723 213.954 61.0801C213.571 60.5833 213.004 60.335 212.252 60.335C211.509 60.335 210.949 60.5788 210.57 61.0664C210.192 61.554 210.003 62.2809 210.003 63.2471ZM220.79 67.1367C219.737 67.1367 218.947 66.8519 218.418 66.2822C217.889 65.7126 217.625 64.8216 217.625 63.6094V59.5078H218.76V63.5547C218.76 64.4297 218.94 65.0905 219.3 65.5371C219.66 65.9792 220.188 66.2002 220.886 66.2002C221.647 66.2002 222.21 65.929 222.574 65.3867C222.943 64.8444 223.128 64.0013 223.128 62.8574C223.128 62.265 223.096 61.7135 223.032 61.2031C222.968 60.6927 222.859 60.1276 222.704 59.5078H223.839C224.003 60.1641 224.117 60.736 224.181 61.2236C224.244 61.7113 224.276 62.2741 224.276 62.9121C224.276 64.3613 223.982 65.4277 223.395 66.1113C222.807 66.7949 221.938 67.1367 220.79 67.1367ZM46.3301 82V77.1533C46.3301 76.5426 46.1911 76.0869 45.9131 75.7861C45.6351 75.4854 45.1999 75.335 44.6074 75.335C43.819 75.335 43.2425 75.5492 42.8779 75.9775C42.5179 76.4059 42.3379 77.1077 42.3379 78.083V82H41.2031V71.3633H42.3379V74.583C42.3379 74.9704 42.3197 75.2917 42.2832 75.5469H42.3516C42.5749 75.1868 42.8916 74.9043 43.3018 74.6992C43.7165 74.4896 44.1882 74.3848 44.7168 74.3848C45.6328 74.3848 46.3187 74.6035 46.7744 75.041C47.2347 75.474 47.4648 76.1644 47.4648 77.1123V82H46.3301ZM52.2227 81.2002C52.4232 81.2002 52.6169 81.1865 52.8037 81.1592C52.9906 81.1273 53.1387 81.0954 53.248 81.0635V81.9316C53.125 81.9909 52.9427 82.0387 52.7012 82.0752C52.4642 82.1162 52.25 82.1367 52.0586 82.1367C50.6094 82.1367 49.8848 81.3734 49.8848 79.8467V75.3896H48.8115V74.8428L49.8848 74.3711L50.3633 72.7715H51.0195V74.5078H53.1934V75.3896H51.0195V79.7988C51.0195 80.25 51.1266 80.5964 51.3408 80.8379C51.555 81.0794 51.849 81.2002 52.2227 81.2002ZM64.3018 82V77.126C64.3018 76.529 64.1742 76.0824 63.9189 75.7861C63.6637 75.4854 63.2673 75.335 62.7295 75.335C62.0231 75.335 61.5013 75.5378 61.1641 75.9434C60.8268 76.349 60.6582 76.9733 60.6582 77.8164V82H59.5234V77.126C59.5234 76.529 59.3958 76.0824 59.1406 75.7861C58.8854 75.4854 58.4867 75.335 57.9443 75.335C57.2334 75.335 56.7116 75.5492 56.3789 75.9775C56.0508 76.4014 55.8867 77.0986 55.8867 78.0693V82H54.752V74.5078H55.6748L55.8594 75.5332H55.9141C56.1283 75.1686 56.429 74.8838 56.8164 74.6787C57.2083 74.4736 57.6458 74.3711 58.1289 74.3711C59.3001 74.3711 60.0658 74.7949 60.4258 75.6426H60.4805C60.7038 75.2507 61.0273 74.9408 61.4512 74.7129C61.875 74.485 62.3581 74.3711 62.9004 74.3711C63.748 74.3711 64.3815 74.5898 64.8008 75.0273C65.2246 75.4603 65.4365 76.1553 65.4365 77.1123V82H64.3018ZM68.916 82H67.7812V71.3633H68.916V82ZM79.3271 74.5215H80.7422L77.9121 77.8164L80.9404 82H79.5664L77.0986 78.5547L76.1758 79.3271V82H74.959V74.5215H76.1758V76.4561C76.1758 77.2126 76.1484 77.8483 76.0938 78.3633L79.3271 74.5215ZM84.4336 82.1367C83.6042 82.1367 82.957 81.7995 82.4922 81.125C82.0319 80.4505 81.8018 79.5345 81.8018 78.377C81.8018 77.666 81.8633 77.0189 81.9863 76.4355C82.1139 75.8477 82.3327 75.2051 82.6426 74.5078H83.8184C83.5085 75.2188 83.2874 75.8659 83.1553 76.4492C83.0277 77.028 82.9639 77.6751 82.9639 78.3906C82.9639 79.2702 83.1006 79.9561 83.374 80.4482C83.6475 80.9404 84.028 81.1865 84.5156 81.1865C84.944 81.1865 85.2767 81.0247 85.5137 80.7012C85.7552 80.373 85.876 79.9242 85.876 79.3545V77.2285H86.9766V79.3545C86.9766 79.9378 87.0973 80.389 87.3389 80.708C87.5804 81.027 87.9131 81.1865 88.3369 81.1865C88.8245 81.1865 89.2051 80.9404 89.4785 80.4482C89.752 79.9561 89.8887 79.2702 89.8887 78.3906C89.8887 77.7025 89.8249 77.0622 89.6973 76.4697C89.5742 75.8773 89.3555 75.2233 89.041 74.5078H90.2168C90.513 75.1732 90.7249 75.8066 90.8525 76.4082C90.9847 77.0052 91.0508 77.6615 91.0508 78.377C91.0508 79.5254 90.8184 80.4391 90.3535 81.1182C89.8932 81.7972 89.2484 82.1367 88.4189 82.1367C87.4163 82.1367 86.7601 81.722 86.4502 80.8926H86.3887C86.0924 81.722 85.4408 82.1367 84.4336 82.1367ZM85.8623 73.3184C85.9854 72.9902 86.1061 72.5687 86.2246 72.0537C86.3477 71.5342 86.4365 71.0876 86.4912 70.7139H87.749V70.8711C87.667 71.2083 87.5007 71.6481 87.25 72.1904C87.0039 72.7282 86.7692 73.1702 86.5459 73.5166H85.8623V73.3184ZM95.5693 75.6016C94.9313 75.2461 94.4801 74.8883 94.2158 74.5283C93.9515 74.1637 93.8193 73.7559 93.8193 73.3047C93.8193 72.7122 94.0404 72.2428 94.4824 71.8965C94.9245 71.5501 95.5192 71.377 96.2666 71.377C96.736 71.377 97.1849 71.4294 97.6133 71.5342C98.0462 71.6344 98.5498 71.8281 99.124 72.1152L98.6318 73.0381C98.1214 72.7555 97.6839 72.5641 97.3193 72.4639C96.9593 72.3636 96.5947 72.3135 96.2256 72.3135C95.8382 72.3135 95.5329 72.4046 95.3096 72.5869C95.0908 72.7646 94.9814 73.0039 94.9814 73.3047C94.9814 73.6283 95.1022 73.9176 95.3438 74.1729C95.5898 74.4235 96.0934 74.7562 96.8545 75.1709C97.8115 75.695 98.4906 76.2327 98.8916 76.7842C99.2972 77.3311 99.5 77.9782 99.5 78.7256C99.5 79.7965 99.1901 80.6328 98.5703 81.2344C97.9505 81.8359 97.1029 82.1367 96.0273 82.1367C94.9928 82.1367 94.1657 81.8542 93.5459 81.2891C92.9261 80.724 92.6162 79.9629 92.6162 79.0059C92.6162 78.1992 92.8737 77.4997 93.3887 76.9072C93.9036 76.3102 94.6305 75.875 95.5693 75.6016ZM98.3242 78.7256C98.3242 78.1423 98.1829 77.6432 97.9004 77.2285C97.6224 76.8092 97.1621 76.431 96.5195 76.0938C95.5807 76.3353 94.8926 76.7044 94.4551 77.2012C94.0221 77.6934 93.8057 78.304 93.8057 79.0332C93.8057 79.6895 94.0085 80.2135 94.4141 80.6055C94.8197 80.9928 95.3574 81.1865 96.0273 81.1865C96.7656 81.1865 97.333 80.9746 97.7295 80.5508C98.126 80.127 98.3242 79.5186 98.3242 78.7256ZM102.248 74.5078V79.7988C102.248 80.2728 102.33 80.626 102.494 80.8584C102.663 81.0863 102.945 81.2002 103.342 81.2002C103.51 81.2002 103.709 81.1865 103.937 81.1592C104.169 81.1273 104.347 81.0954 104.47 81.0635V81.9316C104.328 81.9909 104.137 82.0387 103.896 82.0752C103.659 82.1162 103.426 82.1367 103.198 82.1367C102.469 82.1367 101.938 81.9453 101.605 81.5625C101.277 81.1797 101.113 80.6032 101.113 79.833V74.5078H102.248ZM110.28 74.5215H111.695L108.865 77.8164L111.894 82H110.52L108.052 78.5547L107.129 79.3271V82H105.912V74.5215H107.129V76.4561C107.129 77.2126 107.102 77.8483 107.047 78.3633L110.28 74.5215ZM116.016 81.1865C116.786 81.1865 117.342 80.9655 117.684 80.5234C118.025 80.0768 118.196 79.3568 118.196 78.3633V78.2607C118.196 77.2171 118.023 76.4697 117.677 76.0186C117.33 75.5628 116.772 75.335 116.002 75.335C114.621 75.335 113.931 76.3193 113.931 78.2881C113.931 79.2542 114.097 79.9788 114.43 80.4619C114.767 80.945 115.296 81.1865 116.016 81.1865ZM115.845 82.1367C114.869 82.1367 114.111 81.7995 113.568 81.125C113.026 80.446 112.755 79.4958 112.755 78.2744C112.755 77.0257 113.033 76.0641 113.589 75.3896C114.145 74.7106 114.936 74.3711 115.961 74.3711C116.512 74.3711 116.97 74.4668 117.335 74.6582C117.704 74.8496 118.012 75.1367 118.258 75.5195H118.34C118.449 75.1003 118.597 74.763 118.784 74.5078H119.666C119.57 74.8086 119.491 75.2393 119.427 75.7998C119.363 76.3604 119.331 76.9049 119.331 77.4336V80.4346C119.331 80.9541 119.522 81.2139 119.905 81.2139C120.037 81.2139 120.179 81.1911 120.329 81.1455V81.959C120.119 82.0775 119.867 82.1367 119.57 82.1367C119.201 82.1367 118.914 82.0456 118.709 81.8633C118.508 81.6764 118.367 81.387 118.285 80.9951H118.196C117.927 81.387 117.602 81.6764 117.219 81.8633C116.84 82.0456 116.382 82.1367 115.845 82.1367ZM130.419 74.5078V75.4785H127.466V79.7031C127.466 80.7194 127.933 81.2275 128.867 81.2275C129.081 81.2275 129.3 81.2139 129.523 81.1865C129.747 81.1546 129.92 81.1227 130.043 81.0908V81.9453C129.883 82.0137 129.676 82.0684 129.421 82.1094C129.17 82.1504 128.936 82.1709 128.717 82.1709C127.892 82.1709 127.286 81.9772 126.898 81.5898C126.511 81.2025 126.317 80.6214 126.317 79.8467V75.4785H124.287V74.9727L125.299 74.5078H130.419ZM137.125 85.3633V77.1533C137.125 76.5426 136.986 76.0869 136.708 75.7861C136.43 75.4854 135.995 75.335 135.402 75.335C134.618 75.335 134.044 75.5469 133.68 75.9707C133.315 76.3945 133.133 77.0941 133.133 78.0693V82H131.998V74.5078H132.921L133.105 75.5332H133.16C133.393 75.1641 133.718 74.8792 134.138 74.6787C134.557 74.4736 135.024 74.3711 135.539 74.3711C136.441 74.3711 137.12 74.5898 137.576 75.0273C138.032 75.4603 138.26 76.1553 138.26 77.1123V85.3633H137.125ZM141.356 78.4316C141.356 79.0469 141.423 79.5049 141.555 79.8057C141.691 80.1064 141.922 80.348 142.245 80.5303C142.573 80.7126 143.102 80.8812 143.831 81.0361C144.506 81.182 144.991 81.3779 145.287 81.624C145.588 81.8656 145.738 82.1914 145.738 82.6016C145.738 82.9023 145.677 83.2259 145.554 83.5723C145.431 83.9186 145.216 84.3083 144.911 84.7412H143.845C144.091 84.4222 144.289 84.0941 144.439 83.7568C144.594 83.4196 144.672 83.137 144.672 82.9092C144.672 82.7269 144.613 82.5811 144.494 82.4717C144.38 82.3669 144.198 82.2712 143.947 82.1846C143.697 82.098 143.35 82.0137 142.908 81.9316C141.979 81.763 141.29 81.3893 140.844 80.8105C140.402 80.2318 140.181 79.4434 140.181 78.4453C140.181 77.1419 140.495 76.137 141.124 75.4307C141.753 74.7243 142.632 74.3711 143.763 74.3711C144.123 74.3711 144.483 74.4098 144.843 74.4873C145.203 74.5602 145.506 74.6514 145.752 74.7607L145.39 75.7246C144.797 75.4922 144.241 75.376 143.722 75.376C142.92 75.376 142.325 75.6243 141.938 76.1211C141.55 76.6178 141.356 77.388 141.356 78.4316ZM157.441 78.5273C157.441 79.2428 157.3 79.8763 157.018 80.4277C156.74 80.9746 156.339 81.3962 155.814 81.6924C155.295 81.9886 154.684 82.1367 153.982 82.1367C152.911 82.1367 152.075 81.8086 151.474 81.1523C150.872 80.4961 150.571 79.5892 150.571 78.4316C150.571 75.8158 151.92 74.5078 154.618 74.5078H158.029V75.4785H156.225C157.036 76.2396 157.441 77.2559 157.441 78.5273ZM151.747 78.4316C151.747 79.3158 151.941 79.9971 152.328 80.4756C152.715 80.9495 153.276 81.1865 154.01 81.1865C154.734 81.1865 155.29 80.9632 155.678 80.5166C156.07 80.0654 156.266 79.4251 156.266 78.5957C156.266 77.3652 155.869 76.3262 155.076 75.4785H154.632C153.62 75.4785 152.886 75.7155 152.431 76.1895C151.975 76.6634 151.747 77.4108 151.747 78.4316ZM163.259 77.6182V78.582H162.247C160.83 78.582 160.121 79.0264 160.121 79.915C160.121 80.3252 160.287 80.6419 160.62 80.8652C160.957 81.0885 161.459 81.2002 162.124 81.2002C162.507 81.2002 162.887 81.1569 163.266 81.0703C163.644 80.9792 164.061 80.8265 164.517 80.6123V81.624C163.892 81.9658 163.076 82.1367 162.069 82.1367C161.112 82.1367 160.358 81.9453 159.807 81.5625C159.26 81.1751 158.986 80.6442 158.986 79.9697C158.986 79.5231 159.112 79.1517 159.362 78.8555C159.613 78.5547 160.035 78.3109 160.627 78.124V78.0488C160.18 77.9212 159.834 77.7139 159.588 77.4268C159.346 77.1351 159.226 76.7796 159.226 76.3604C159.226 75.7542 159.481 75.2712 159.991 74.9111C160.502 74.5511 161.194 74.3711 162.069 74.3711C162.511 74.3711 162.919 74.4098 163.293 74.4873C163.671 74.5602 164.088 74.6992 164.544 74.9043L164.113 75.8135C163.685 75.6221 163.323 75.4945 163.026 75.4307C162.73 75.3669 162.402 75.335 162.042 75.335C160.903 75.335 160.333 75.7041 160.333 76.4424C160.333 77.2262 161.055 77.6182 162.5 77.6182H163.259ZM164.934 82L168.167 74.624L167.771 73.5166C167.634 73.1292 167.508 72.8558 167.395 72.6963C167.281 72.5368 167.146 72.416 166.991 72.334C166.841 72.252 166.654 72.2109 166.431 72.2109C166.166 72.2109 165.904 72.2406 165.645 72.2998V71.3906C165.954 71.3132 166.253 71.2744 166.54 71.2744C166.955 71.2744 167.299 71.3428 167.572 71.4795C167.85 71.6162 168.09 71.8327 168.29 72.1289C168.491 72.4251 168.714 72.9196 168.96 73.6123L171.441 80.5303C171.528 80.7536 171.619 80.9245 171.715 81.043C171.811 81.1569 171.938 81.2139 172.098 81.2139C172.221 81.2139 172.357 81.1911 172.508 81.1455V81.9727C172.289 82.082 172.041 82.1367 171.763 82.1367C171.425 82.1367 171.161 82.0501 170.97 81.877C170.783 81.7038 170.623 81.4281 170.491 81.0498L169.425 78.0693C169.042 76.9756 168.8 76.21 168.7 75.7725H168.639C168.511 76.3011 168.247 77.0417 167.846 77.9941L166.109 82H164.934ZM174.791 74.5078V79.7988C174.791 80.2728 174.873 80.626 175.037 80.8584C175.206 81.0863 175.488 81.2002 175.885 81.2002C176.053 81.2002 176.252 81.1865 176.479 81.1592C176.712 81.1273 176.89 81.0954 177.013 81.0635V81.9316C176.871 81.9909 176.68 82.0387 176.438 82.0752C176.201 82.1162 175.969 82.1367 175.741 82.1367C175.012 82.1367 174.481 81.9453 174.148 81.5625C173.82 81.1797 173.656 80.6032 173.656 79.833V74.5078H174.791ZM173.82 73.3184C173.943 72.9902 174.064 72.5687 174.183 72.0537C174.306 71.5342 174.395 71.0876 174.449 70.7139H175.707V70.8711C175.625 71.2083 175.459 71.6481 175.208 72.1904C174.962 72.7282 174.727 73.1702 174.504 73.5166H173.82V73.3184ZM180.978 75.6016C180.34 75.2461 179.888 74.8883 179.624 74.5283C179.36 74.1637 179.228 73.7559 179.228 73.3047C179.228 72.7122 179.449 72.2428 179.891 71.8965C180.333 71.5501 180.927 71.377 181.675 71.377C182.144 71.377 182.593 71.4294 183.021 71.5342C183.454 71.6344 183.958 71.8281 184.532 72.1152L184.04 73.0381C183.53 72.7555 183.092 72.5641 182.728 72.4639C182.368 72.3636 182.003 72.3135 181.634 72.3135C181.246 72.3135 180.941 72.4046 180.718 72.5869C180.499 72.7646 180.39 73.0039 180.39 73.3047C180.39 73.6283 180.51 73.9176 180.752 74.1729C180.998 74.4235 181.502 74.7562 182.263 75.1709C183.22 75.695 183.899 76.2327 184.3 76.7842C184.705 77.3311 184.908 77.9782 184.908 78.7256C184.908 79.7965 184.598 80.6328 183.979 81.2344C183.359 81.8359 182.511 82.1367 181.436 82.1367C180.401 82.1367 179.574 81.8542 178.954 81.2891C178.334 80.724 178.024 79.9629 178.024 79.0059C178.024 78.1992 178.282 77.4997 178.797 76.9072C179.312 76.3102 180.039 75.875 180.978 75.6016ZM183.732 78.7256C183.732 78.1423 183.591 77.6432 183.309 77.2285C183.031 76.8092 182.57 76.431 181.928 76.0938C180.989 76.3353 180.301 76.7044 179.863 77.2012C179.43 77.6934 179.214 78.304 179.214 79.0332C179.214 79.6895 179.417 80.2135 179.822 80.6055C180.228 80.9928 180.766 81.1865 181.436 81.1865C182.174 81.1865 182.741 80.9746 183.138 80.5508C183.534 80.127 183.732 79.5186 183.732 78.7256ZM189.42 81.1865C190.19 81.1865 190.746 80.9655 191.088 80.5234C191.43 80.0768 191.601 79.3568 191.601 78.3633V78.2607C191.601 77.2171 191.427 76.4697 191.081 76.0186C190.735 75.5628 190.176 75.335 189.406 75.335C188.025 75.335 187.335 76.3193 187.335 78.2881C187.335 79.2542 187.501 79.9788 187.834 80.4619C188.171 80.945 188.7 81.1865 189.42 81.1865ZM189.249 82.1367C188.274 82.1367 187.515 81.7995 186.973 81.125C186.43 80.446 186.159 79.4958 186.159 78.2744C186.159 77.0257 186.437 76.0641 186.993 75.3896C187.549 74.7106 188.34 74.3711 189.365 74.3711C189.917 74.3711 190.375 74.4668 190.739 74.6582C191.108 74.8496 191.416 75.1367 191.662 75.5195H191.744C191.854 75.1003 192.002 74.763 192.188 74.5078H193.07C192.975 74.8086 192.895 75.2393 192.831 75.7998C192.767 76.3604 192.735 76.9049 192.735 77.4336V80.4346C192.735 80.9541 192.927 81.2139 193.31 81.2139C193.442 81.2139 193.583 81.1911 193.733 81.1455V81.959C193.524 82.0775 193.271 82.1367 192.975 82.1367C192.605 82.1367 192.318 82.0456 192.113 81.8633C191.913 81.6764 191.771 81.387 191.689 80.9951H191.601C191.332 81.387 191.006 81.6764 190.623 81.8633C190.245 82.0456 189.787 82.1367 189.249 82.1367ZM195.894 78.4316C195.894 79.0469 195.96 79.5049 196.092 79.8057C196.229 80.1064 196.459 80.348 196.782 80.5303C197.11 80.7126 197.639 80.8812 198.368 81.0361C199.043 81.182 199.528 81.3779 199.824 81.624C200.125 81.8656 200.275 82.1914 200.275 82.6016C200.275 82.9023 200.214 83.2259 200.091 83.5723C199.968 83.9186 199.754 84.3083 199.448 84.7412H198.382C198.628 84.4222 198.826 84.0941 198.977 83.7568C199.132 83.4196 199.209 83.137 199.209 82.9092C199.209 82.7269 199.15 82.5811 199.031 82.4717C198.917 82.3669 198.735 82.2712 198.484 82.1846C198.234 82.098 197.887 82.0137 197.445 81.9316C196.516 81.763 195.827 81.3893 195.381 80.8105C194.939 80.2318 194.718 79.4434 194.718 78.4453C194.718 77.1419 195.032 76.137 195.661 75.4307C196.29 74.7243 197.17 74.3711 198.3 74.3711C198.66 74.3711 199.02 74.4098 199.38 74.4873C199.74 74.5602 200.043 74.6514 200.289 74.7607L199.927 75.7246C199.334 75.4922 198.778 75.376 198.259 75.376C197.457 75.376 196.862 75.6243 196.475 76.1211C196.087 76.6178 195.894 77.388 195.894 78.4316ZM211.979 78.5273C211.979 79.2428 211.837 79.8763 211.555 80.4277C211.277 80.9746 210.876 81.3962 210.352 81.6924C209.832 81.9886 209.221 82.1367 208.52 82.1367C207.449 82.1367 206.612 81.8086 206.011 81.1523C205.409 80.4961 205.108 79.5892 205.108 78.4316C205.108 75.8158 206.457 74.5078 209.155 74.5078H212.566V75.4785H210.762C211.573 76.2396 211.979 77.2559 211.979 78.5273ZM206.284 78.4316C206.284 79.3158 206.478 79.9971 206.865 80.4756C207.253 80.9495 207.813 81.1865 208.547 81.1865C209.271 81.1865 209.827 80.9632 210.215 80.5166C210.607 80.0654 210.803 79.4251 210.803 78.5957C210.803 77.3652 210.406 76.3262 209.613 75.4785H209.169C208.157 75.4785 207.424 75.7155 206.968 76.1895C206.512 76.6634 206.284 77.4108 206.284 78.4316ZM216.955 81.1865C217.725 81.1865 218.281 80.9655 218.623 80.5234C218.965 80.0768 219.136 79.3568 219.136 78.3633V78.2607C219.136 77.2171 218.963 76.4697 218.616 76.0186C218.27 75.5628 217.712 75.335 216.941 75.335C215.561 75.335 214.87 76.3193 214.87 78.2881C214.87 79.2542 215.036 79.9788 215.369 80.4619C215.706 80.945 216.235 81.1865 216.955 81.1865ZM216.784 82.1367C215.809 82.1367 215.05 81.7995 214.508 81.125C213.965 80.446 213.694 79.4958 213.694 78.2744C213.694 77.0257 213.972 76.0641 214.528 75.3896C215.084 74.7106 215.875 74.3711 216.9 74.3711C217.452 74.3711 217.91 74.4668 218.274 74.6582C218.644 74.8496 218.951 75.1367 219.197 75.5195H219.279C219.389 75.1003 219.537 74.763 219.724 74.5078H220.605C220.51 74.8086 220.43 75.2393 220.366 75.7998C220.302 76.3604 220.271 76.9049 220.271 77.4336V80.4346C220.271 80.9541 220.462 81.2139 220.845 81.2139C220.977 81.2139 221.118 81.1911 221.269 81.1455V81.959C221.059 82.0775 220.806 82.1367 220.51 82.1367C220.141 82.1367 219.854 82.0456 219.648 81.8633C219.448 81.6764 219.307 81.387 219.225 80.9951H219.136C218.867 81.387 218.541 81.6764 218.158 81.8633C217.78 82.0456 217.322 82.1367 216.784 82.1367ZM223.429 78.4316C223.429 79.0469 223.495 79.5049 223.627 79.8057C223.764 80.1064 223.994 80.348 224.317 80.5303C224.646 80.7126 225.174 80.8812 225.903 81.0361C226.578 81.182 227.063 81.3779 227.359 81.624C227.66 81.8656 227.811 82.1914 227.811 82.6016C227.811 82.9023 227.749 83.2259 227.626 83.5723C227.503 83.9186 227.289 84.3083 226.983 84.7412H225.917C226.163 84.4222 226.361 84.0941 226.512 83.7568C226.667 83.4196 226.744 83.137 226.744 82.9092C226.744 82.7269 226.685 82.5811 226.566 82.4717C226.452 82.3669 226.27 82.2712 226.02 82.1846C225.769 82.098 225.423 82.0137 224.98 81.9316C224.051 81.763 223.363 81.3893 222.916 80.8105C222.474 80.2318 222.253 79.4434 222.253 78.4453C222.253 77.1419 222.567 76.137 223.196 75.4307C223.825 74.7243 224.705 74.3711 225.835 74.3711C226.195 74.3711 226.555 74.4098 226.915 74.4873C227.275 74.5602 227.578 74.6514 227.824 74.7607L227.462 75.7246C226.869 75.4922 226.313 75.376 225.794 75.376C224.992 75.376 224.397 75.6243 224.01 76.1211C223.622 76.6178 223.429 77.388 223.429 78.4316Z" fill="black"/>
<circle cx="16" cy="69" r="16" fill="#F1F1F1"/>
<path d="M18.625 75H10.6406V73.3203L13.5078 70.4219C14.3568 69.5521 14.9115 68.9505 15.1719 68.6172C15.4323 68.2786 15.6198 67.9661 15.7344 67.6797C15.849 67.3932 15.9062 67.0964 15.9062 66.7891C15.9062 66.3307 15.7786 65.9896 15.5234 65.7656C15.2734 65.5417 14.9375 65.4297 14.5156 65.4297C14.0729 65.4297 13.6432 65.5312 13.2266 65.7344C12.8099 65.9375 12.375 66.2266 11.9219 66.6016L10.6094 65.0469C11.1719 64.5677 11.638 64.2292 12.0078 64.0312C12.3776 63.8333 12.7812 63.6823 13.2188 63.5781C13.6562 63.4688 14.1458 63.4141 14.6875 63.4141C15.401 63.4141 16.0312 63.5443 16.5781 63.8047C17.125 64.0651 17.5495 64.4297 17.8516 64.8984C18.1536 65.3672 18.3047 65.9036 18.3047 66.5078C18.3047 67.0339 18.2109 67.5286 18.0234 67.9922C17.8411 68.4505 17.5547 68.9219 17.1641 69.4062C16.7786 69.8906 16.0964 70.5807 15.1172 71.4766L13.6484 72.8594V72.9688H18.625V75Z" fill="#6C63FF"/>
<path d="M44.4502 117H43.2881V108.038H40.123V107.006H47.6152V108.038H44.4502V117ZM55.4219 113.247C55.4219 114.468 55.1143 115.423 54.499 116.111C53.8838 116.795 53.0339 117.137 51.9492 117.137C51.2793 117.137 50.6846 116.979 50.165 116.665C49.6455 116.351 49.2445 115.899 48.9619 115.312C48.6794 114.724 48.5381 114.035 48.5381 113.247C48.5381 112.026 48.8434 111.076 49.4541 110.396C50.0648 109.713 50.9124 109.371 51.9971 109.371C53.0452 109.371 53.877 109.72 54.4922 110.417C55.112 111.114 55.4219 112.058 55.4219 113.247ZM49.7139 113.247C49.7139 114.204 49.9053 114.933 50.2881 115.435C50.6709 115.936 51.2337 116.187 51.9766 116.187C52.7194 116.187 53.2822 115.938 53.665 115.441C54.0524 114.94 54.2461 114.209 54.2461 113.247C54.2461 112.295 54.0524 111.572 53.665 111.08C53.2822 110.583 52.7148 110.335 51.9629 110.335C51.2201 110.335 50.6595 110.579 50.2812 111.066C49.903 111.554 49.7139 112.281 49.7139 113.247ZM62.1895 117H61.0547V106.363H62.1895V117ZM65.7305 117H64.5957V109.508H65.7305V117ZM64.5 107.478C64.5 107.218 64.5638 107.029 64.6914 106.91C64.819 106.787 64.9785 106.726 65.1699 106.726C65.3522 106.726 65.5094 106.787 65.6416 106.91C65.7738 107.033 65.8398 107.222 65.8398 107.478C65.8398 107.733 65.7738 107.924 65.6416 108.052C65.5094 108.175 65.3522 108.236 65.1699 108.236C64.9785 108.236 64.819 108.175 64.6914 108.052C64.5638 107.924 64.5 107.733 64.5 107.478ZM69.7773 117L66.9336 109.508H68.1504L69.7637 113.951C70.1283 114.99 70.3424 115.665 70.4062 115.975H70.4609C70.5111 115.733 70.6683 115.234 70.9326 114.478C71.2015 113.716 71.8008 112.06 72.7305 109.508H73.9473L71.1035 117H69.7773ZM78.3154 117.137C77.208 117.137 76.333 116.799 75.6904 116.125C75.0524 115.451 74.7334 114.514 74.7334 113.315C74.7334 112.108 75.0296 111.148 75.6221 110.438C76.2191 109.727 77.0189 109.371 78.0215 109.371C78.9603 109.371 79.7031 109.681 80.25 110.301C80.7969 110.916 81.0703 111.729 81.0703 112.741V113.459H75.9092C75.932 114.339 76.153 115.006 76.5723 115.462C76.9961 115.918 77.5908 116.146 78.3564 116.146C79.1631 116.146 79.9606 115.977 80.749 115.64V116.651C80.348 116.825 79.9674 116.948 79.6074 117.021C79.252 117.098 78.8213 117.137 78.3154 117.137ZM78.0078 110.321C77.4062 110.321 76.9255 110.517 76.5654 110.909C76.21 111.301 76.0003 111.843 75.9365 112.536H79.8535C79.8535 111.821 79.694 111.274 79.375 110.896C79.056 110.513 78.6003 110.321 78.0078 110.321ZM91.748 115.995H91.6865C91.1624 116.756 90.3786 117.137 89.335 117.137C88.3551 117.137 87.5918 116.802 87.0449 116.132C86.5026 115.462 86.2314 114.509 86.2314 113.274C86.2314 112.039 86.5049 111.08 87.0518 110.396C87.5986 109.713 88.3597 109.371 89.335 109.371C90.3512 109.371 91.1305 109.74 91.6729 110.479H91.7617L91.7139 109.938L91.6865 109.412V106.363H92.8213V117H91.8984L91.748 115.995ZM89.4785 116.187C90.2533 116.187 90.8138 115.977 91.1602 115.558C91.5111 115.134 91.6865 114.452 91.6865 113.514V113.274C91.6865 112.213 91.5088 111.456 91.1533 111.005C90.8024 110.549 90.2396 110.321 89.4648 110.321C88.7995 110.321 88.2891 110.581 87.9336 111.101C87.5827 111.616 87.4072 112.345 87.4072 113.288C87.4072 114.245 87.5827 114.967 87.9336 115.455C88.2845 115.943 88.7995 116.187 89.4785 116.187ZM99.8418 117L99.6162 115.934H99.5615C99.1878 116.403 98.8141 116.722 98.4404 116.891C98.0713 117.055 97.6087 117.137 97.0527 117.137C96.3099 117.137 95.7266 116.945 95.3027 116.562C94.8835 116.18 94.6738 115.635 94.6738 114.929C94.6738 113.416 95.8838 112.623 98.3037 112.55L99.5752 112.509V112.044C99.5752 111.456 99.4476 111.023 99.1924 110.745C98.9417 110.463 98.5384 110.321 97.9824 110.321C97.3581 110.321 96.6517 110.513 95.8633 110.896L95.5146 110.027C95.8838 109.827 96.2871 109.67 96.7246 109.556C97.1667 109.442 97.6087 109.385 98.0508 109.385C98.944 109.385 99.6048 109.583 100.033 109.979C100.466 110.376 100.683 111.012 100.683 111.887V117H99.8418ZM97.2783 116.2C97.9847 116.2 98.5384 116.007 98.9395 115.619C99.3451 115.232 99.5479 114.689 99.5479 113.992V113.315L98.4131 113.363C97.5107 113.395 96.859 113.536 96.458 113.787C96.0615 114.033 95.8633 114.418 95.8633 114.942C95.8633 115.353 95.9863 115.665 96.2324 115.879C96.4831 116.093 96.8317 116.2 97.2783 116.2ZM105.447 116.2C105.648 116.2 105.841 116.187 106.028 116.159C106.215 116.127 106.363 116.095 106.473 116.063V116.932C106.35 116.991 106.167 117.039 105.926 117.075C105.689 117.116 105.475 117.137 105.283 117.137C103.834 117.137 103.109 116.373 103.109 114.847V110.39H102.036V109.843L103.109 109.371L103.588 107.771H104.244V109.508H106.418V110.39H104.244V114.799C104.244 115.25 104.351 115.596 104.565 115.838C104.78 116.079 105.074 116.2 105.447 116.2ZM112.584 117L112.358 115.934H112.304C111.93 116.403 111.556 116.722 111.183 116.891C110.813 117.055 110.351 117.137 109.795 117.137C109.052 117.137 108.469 116.945 108.045 116.562C107.626 116.18 107.416 115.635 107.416 114.929C107.416 113.416 108.626 112.623 111.046 112.55L112.317 112.509V112.044C112.317 111.456 112.19 111.023 111.935 110.745C111.684 110.463 111.281 110.321 110.725 110.321C110.1 110.321 109.394 110.513 108.605 110.896L108.257 110.027C108.626 109.827 109.029 109.67 109.467 109.556C109.909 109.442 110.351 109.385 110.793 109.385C111.686 109.385 112.347 109.583 112.775 109.979C113.208 110.376 113.425 111.012 113.425 111.887V117H112.584ZM110.021 116.2C110.727 116.2 111.281 116.007 111.682 115.619C112.087 115.232 112.29 114.689 112.29 113.992V113.315L111.155 113.363C110.253 113.395 109.601 113.536 109.2 113.787C108.804 114.033 108.605 114.418 108.605 114.942C108.605 115.353 108.729 115.665 108.975 115.879C109.225 116.093 109.574 116.2 110.021 116.2ZM122.4 117.137C121.316 117.137 120.475 116.804 119.878 116.139C119.285 115.469 118.989 114.523 118.989 113.302C118.989 112.049 119.29 111.08 119.892 110.396C120.498 109.713 121.359 109.371 122.476 109.371C122.836 109.371 123.196 109.41 123.556 109.487C123.916 109.565 124.198 109.656 124.403 109.761L124.055 110.725C123.804 110.624 123.531 110.542 123.234 110.479C122.938 110.41 122.676 110.376 122.448 110.376C120.926 110.376 120.165 111.347 120.165 113.288C120.165 114.209 120.35 114.915 120.719 115.407C121.092 115.899 121.644 116.146 122.373 116.146C122.997 116.146 123.638 116.011 124.294 115.742V116.747C123.793 117.007 123.161 117.137 122.4 117.137ZM130.686 117L130.46 115.934H130.405C130.032 116.403 129.658 116.722 129.284 116.891C128.915 117.055 128.452 117.137 127.896 117.137C127.154 117.137 126.57 116.945 126.146 116.562C125.727 116.18 125.518 115.635 125.518 114.929C125.518 113.416 126.728 112.623 129.147 112.55L130.419 112.509V112.044C130.419 111.456 130.291 111.023 130.036 110.745C129.785 110.463 129.382 110.321 128.826 110.321C128.202 110.321 127.495 110.513 126.707 110.896L126.358 110.027C126.728 109.827 127.131 109.67 127.568 109.556C128.01 109.442 128.452 109.385 128.895 109.385C129.788 109.385 130.449 109.583 130.877 109.979C131.31 110.376 131.526 111.012 131.526 111.887V117H130.686ZM128.122 116.2C128.828 116.2 129.382 116.007 129.783 115.619C130.189 115.232 130.392 114.689 130.392 113.992V113.315L129.257 113.363C128.354 113.395 127.703 113.536 127.302 113.787C126.905 114.033 126.707 114.418 126.707 114.942C126.707 115.353 126.83 115.665 127.076 115.879C127.327 116.093 127.675 116.2 128.122 116.2ZM137.289 109.371C137.622 109.371 137.92 109.398 138.185 109.453L138.027 110.506C137.717 110.438 137.444 110.403 137.207 110.403C136.601 110.403 136.081 110.649 135.648 111.142C135.22 111.634 135.006 112.247 135.006 112.98V117H133.871V109.508H134.808L134.938 110.896H134.992C135.27 110.408 135.605 110.032 135.997 109.768C136.389 109.503 136.82 109.371 137.289 109.371ZM144.686 115.995H144.624C144.1 116.756 143.316 117.137 142.272 117.137C141.293 117.137 140.529 116.802 139.982 116.132C139.44 115.462 139.169 114.509 139.169 113.274C139.169 112.039 139.442 111.08 139.989 110.396C140.536 109.713 141.297 109.371 142.272 109.371C143.289 109.371 144.068 109.74 144.61 110.479H144.699L144.651 109.938L144.624 109.412V106.363H145.759V117H144.836L144.686 115.995ZM142.416 116.187C143.191 116.187 143.751 115.977 144.098 115.558C144.449 115.134 144.624 114.452 144.624 113.514V113.274C144.624 112.213 144.446 111.456 144.091 111.005C143.74 110.549 143.177 110.321 142.402 110.321C141.737 110.321 141.227 110.581 140.871 111.101C140.52 111.616 140.345 112.345 140.345 113.288C140.345 114.245 140.52 114.967 140.871 115.455C141.222 115.943 141.737 116.187 142.416 116.187ZM158.111 111.668C158.111 113.518 157.833 114.892 157.277 115.79C156.721 116.688 155.874 117.137 154.734 117.137C153.641 117.137 152.809 116.679 152.239 115.763C151.674 114.842 151.392 113.477 151.392 111.668C151.392 109.813 151.67 108.439 152.226 107.546C152.786 106.653 153.622 106.206 154.734 106.206C155.846 106.206 156.687 106.669 157.257 107.594C157.826 108.514 158.111 109.872 158.111 111.668ZM154.734 116.187C155.482 116.187 156.033 115.84 156.389 115.147C156.744 114.45 156.936 113.402 156.963 112.003H152.54C152.558 113.388 152.738 114.432 153.08 115.134C153.422 115.836 153.973 116.187 154.734 116.187ZM154.734 107.156C154.001 107.156 153.463 107.484 153.121 108.141C152.779 108.792 152.586 109.758 152.54 111.039H156.949C156.899 109.758 156.701 108.792 156.354 108.141C156.008 107.484 155.468 107.156 154.734 107.156ZM162.938 116.187C163.708 116.187 164.264 115.965 164.605 115.523C164.947 115.077 165.118 114.357 165.118 113.363V113.261C165.118 112.217 164.945 111.47 164.599 111.019C164.252 110.563 163.694 110.335 162.924 110.335C161.543 110.335 160.853 111.319 160.853 113.288C160.853 114.254 161.019 114.979 161.352 115.462C161.689 115.945 162.217 116.187 162.938 116.187ZM162.767 117.137C161.791 117.137 161.033 116.799 160.49 116.125C159.948 115.446 159.677 114.496 159.677 113.274C159.677 112.026 159.955 111.064 160.511 110.39C161.067 109.711 161.857 109.371 162.883 109.371C163.434 109.371 163.892 109.467 164.257 109.658C164.626 109.85 164.934 110.137 165.18 110.52H165.262C165.371 110.1 165.519 109.763 165.706 109.508H166.588C166.492 109.809 166.412 110.239 166.349 110.8C166.285 111.36 166.253 111.905 166.253 112.434V115.435C166.253 115.954 166.444 116.214 166.827 116.214C166.959 116.214 167.101 116.191 167.251 116.146V116.959C167.041 117.077 166.788 117.137 166.492 117.137C166.123 117.137 165.836 117.046 165.631 116.863C165.43 116.676 165.289 116.387 165.207 115.995H165.118C164.849 116.387 164.523 116.676 164.141 116.863C163.762 117.046 163.304 117.137 162.767 117.137ZM44.8877 127.618V128.582H43.876C42.4587 128.582 41.75 129.026 41.75 129.915C41.75 130.325 41.9163 130.642 42.249 130.865C42.5863 131.089 43.0876 131.2 43.7529 131.2C44.1357 131.2 44.5163 131.157 44.8945 131.07C45.2728 130.979 45.6898 130.826 46.1455 130.612V131.624C45.5212 131.966 44.7054 132.137 43.6982 132.137C42.7412 132.137 41.987 131.945 41.4355 131.562C40.8887 131.175 40.6152 130.644 40.6152 129.97C40.6152 129.523 40.7406 129.152 40.9912 128.855C41.2419 128.555 41.6634 128.311 42.2559 128.124V128.049C41.8092 127.921 41.4629 127.714 41.2168 127.427C40.9753 127.135 40.8545 126.78 40.8545 126.36C40.8545 125.754 41.1097 125.271 41.6201 124.911C42.1305 124.551 42.8232 124.371 43.6982 124.371C44.1403 124.371 44.5482 124.41 44.9219 124.487C45.3001 124.56 45.7171 124.699 46.1729 124.904L45.7422 125.813C45.3138 125.622 44.9515 125.494 44.6553 125.431C44.359 125.367 44.0309 125.335 43.6709 125.335C42.5316 125.335 41.9619 125.704 41.9619 126.442C41.9619 127.226 42.6842 127.618 44.1289 127.618H44.8877ZM48.9961 129.396C48.9961 130.59 49.5749 131.187 50.7324 131.187C51.5117 131.187 52.0814 130.972 52.4414 130.544C52.806 130.111 52.9883 129.411 52.9883 128.445V124.508H54.123V132H53.1934L53.0156 130.995H52.9473C52.4414 131.756 51.6667 132.137 50.623 132.137C49.9395 132.137 49.3971 131.927 48.9961 131.508H48.9277C48.9733 131.891 48.9961 132.447 48.9961 133.176V135.363H47.8613V124.508H48.9961V129.396ZM59.7217 135.363V132.123C58.5368 132.073 57.639 131.717 57.0283 131.057C56.4176 130.391 56.1123 129.441 56.1123 128.206C56.1123 126.857 56.584 125.606 57.5273 124.453L58.4229 125.068C58.0173 125.602 57.721 126.123 57.5342 126.634C57.3519 127.144 57.2607 127.682 57.2607 128.247C57.2607 130.047 58.0811 131.027 59.7217 131.187V126.948C59.7217 126.096 59.9108 125.453 60.2891 125.021C60.6673 124.588 61.196 124.371 61.875 124.371C62.6953 124.371 63.3538 124.706 63.8506 125.376C64.3473 126.041 64.5957 126.944 64.5957 128.083C64.5957 128.894 64.4408 129.598 64.1309 130.195C63.821 130.788 63.3835 131.248 62.8184 131.576C62.2533 131.904 61.5947 132.087 60.8428 132.123V135.363H59.7217ZM63.4199 128.097C63.4199 127.254 63.2786 126.584 62.9961 126.087C62.7135 125.586 62.3398 125.335 61.875 125.335C61.5423 125.335 61.2871 125.472 61.1094 125.745C60.9316 126.019 60.8428 126.415 60.8428 126.935V131.187C61.6585 131.114 62.292 130.808 62.7432 130.271C63.1943 129.733 63.4199 129.008 63.4199 128.097ZM69.4219 131.187C70.1921 131.187 70.748 130.965 71.0898 130.523C71.4316 130.077 71.6025 129.357 71.6025 128.363V128.261C71.6025 127.217 71.4294 126.47 71.083 126.019C70.7367 125.563 70.1784 125.335 69.4082 125.335C68.0273 125.335 67.3369 126.319 67.3369 128.288C67.3369 129.254 67.5033 129.979 67.8359 130.462C68.1732 130.945 68.7018 131.187 69.4219 131.187ZM69.251 132.137C68.2757 132.137 67.5169 131.799 66.9746 131.125C66.4323 130.446 66.1611 129.496 66.1611 128.274C66.1611 127.026 66.4391 126.064 66.9951 125.39C67.5511 124.711 68.3418 124.371 69.3672 124.371C69.9186 124.371 70.3766 124.467 70.7412 124.658C71.1104 124.85 71.418 125.137 71.6641 125.52H71.7461C71.8555 125.1 72.0036 124.763 72.1904 124.508H73.0723C72.9766 124.809 72.8968 125.239 72.833 125.8C72.7692 126.36 72.7373 126.905 72.7373 127.434V130.435C72.7373 130.954 72.9287 131.214 73.3115 131.214C73.4437 131.214 73.585 131.191 73.7354 131.146V131.959C73.5257 132.077 73.2728 132.137 72.9766 132.137C72.6074 132.137 72.3203 132.046 72.1152 131.863C71.9147 131.676 71.7734 131.387 71.6914 130.995H71.6025C71.3337 131.387 71.0078 131.676 70.625 131.863C70.2467 132.046 69.7887 132.137 69.251 132.137ZM73.9336 124.508H75.1094L76.6064 128.541C76.7249 128.846 76.8776 129.27 77.0645 129.812C77.2559 130.355 77.388 130.767 77.4609 131.05H77.5156C78.3223 130.252 78.9056 129.348 79.2656 128.336C79.6302 127.32 79.8125 126.044 79.8125 124.508H80.9473C80.9473 126.162 80.7103 127.568 80.2363 128.726C79.7669 129.883 79.0195 130.975 77.9941 132H76.7227L73.9336 124.508ZM83.8047 124.508V129.799C83.8047 130.273 83.8867 130.626 84.0508 130.858C84.2194 131.086 84.502 131.2 84.8984 131.2C85.0671 131.2 85.2653 131.187 85.4932 131.159C85.7256 131.127 85.9033 131.095 86.0264 131.063V131.932C85.8851 131.991 85.6937 132.039 85.4521 132.075C85.2152 132.116 84.9827 132.137 84.7549 132.137C84.0257 132.137 83.4948 131.945 83.1621 131.562C82.834 131.18 82.6699 130.603 82.6699 129.833V124.508H83.8047ZM82.834 123.318C82.957 122.99 83.0778 122.569 83.1963 122.054C83.3193 121.534 83.4082 121.088 83.4629 120.714H84.7207V120.871C84.6387 121.208 84.4723 121.648 84.2217 122.19C83.9756 122.728 83.7409 123.17 83.5176 123.517H82.834V123.318ZM87.4688 122.327V121.363H92.6094V122.245C91.6296 123.065 90.8115 123.845 90.1553 124.583C89.499 125.317 89.0137 126.014 88.6992 126.675C88.3848 127.331 88.2275 128.037 88.2275 128.794C88.2275 129.241 88.2936 129.598 88.4258 129.867C88.5625 130.136 88.7721 130.355 89.0547 130.523C89.3418 130.688 89.8773 130.854 90.6611 131.022C91.3402 131.164 91.8346 131.36 92.1445 131.61C92.4544 131.856 92.6094 132.187 92.6094 132.602C92.6094 133.281 92.32 133.994 91.7412 134.741H90.6064C91.1761 134.007 91.4609 133.397 91.4609 132.909C91.4609 132.654 91.3333 132.456 91.0781 132.314C90.8275 132.178 90.3763 132.05 89.7246 131.932C88.7995 131.768 88.1227 131.437 87.6943 130.94C87.266 130.439 87.0518 129.746 87.0518 128.862C87.0518 128.343 87.1178 127.846 87.25 127.372C87.3867 126.898 87.5827 126.44 87.8379 125.998C88.0931 125.551 88.4486 125.068 88.9043 124.549C89.3646 124.025 90.1462 123.266 91.249 122.272C91.0667 122.309 90.3581 122.327 89.123 122.327H87.4688ZM97.9209 127.618V128.582H96.9092C95.4919 128.582 94.7832 129.026 94.7832 129.915C94.7832 130.325 94.9495 130.642 95.2822 130.865C95.6195 131.089 96.1208 131.2 96.7861 131.2C97.1689 131.2 97.5495 131.157 97.9277 131.07C98.306 130.979 98.723 130.826 99.1787 130.612V131.624C98.5544 131.966 97.7386 132.137 96.7314 132.137C95.7744 132.137 95.0202 131.945 94.4688 131.562C93.9219 131.175 93.6484 130.644 93.6484 129.97C93.6484 129.523 93.7738 129.152 94.0244 128.855C94.2751 128.555 94.6966 128.311 95.2891 128.124V128.049C94.8424 127.921 94.4961 127.714 94.25 127.427C94.0085 127.135 93.8877 126.78 93.8877 126.36C93.8877 125.754 94.1429 125.271 94.6533 124.911C95.1637 124.551 95.8564 124.371 96.7314 124.371C97.1735 124.371 97.5814 124.41 97.9551 124.487C98.3333 124.56 98.7503 124.699 99.2061 124.904L98.7754 125.813C98.347 125.622 97.9847 125.494 97.6885 125.431C97.3923 125.367 97.0641 125.335 96.7041 125.335C95.5648 125.335 94.9951 125.704 94.9951 126.442C94.9951 127.226 95.7174 127.618 97.1621 127.618H97.9209ZM105.946 124.508V125.479H102.993V129.703C102.993 130.719 103.46 131.228 104.395 131.228C104.609 131.228 104.827 131.214 105.051 131.187C105.274 131.155 105.447 131.123 105.57 131.091V131.945C105.411 132.014 105.203 132.068 104.948 132.109C104.698 132.15 104.463 132.171 104.244 132.171C103.419 132.171 102.813 131.977 102.426 131.59C102.038 131.202 101.845 130.621 101.845 129.847V125.479H99.8145V124.973L100.826 124.508H105.946ZM110.369 131.187C111.139 131.187 111.695 130.965 112.037 130.523C112.379 130.077 112.55 129.357 112.55 128.363V128.261C112.55 127.217 112.377 126.47 112.03 126.019C111.684 125.563 111.126 125.335 110.355 125.335C108.975 125.335 108.284 126.319 108.284 128.288C108.284 129.254 108.451 129.979 108.783 130.462C109.12 130.945 109.649 131.187 110.369 131.187ZM110.198 132.137C109.223 132.137 108.464 131.799 107.922 131.125C107.38 130.446 107.108 129.496 107.108 128.274C107.108 127.026 107.386 126.064 107.942 125.39C108.498 124.711 109.289 124.371 110.314 124.371C110.866 124.371 111.324 124.467 111.688 124.658C112.058 124.85 112.365 125.137 112.611 125.52H112.693C112.803 125.1 112.951 124.763 113.138 124.508H114.02C113.924 124.809 113.844 125.239 113.78 125.8C113.716 126.36 113.685 126.905 113.685 127.434V130.435C113.685 130.954 113.876 131.214 114.259 131.214C114.391 131.214 114.532 131.191 114.683 131.146V131.959C114.473 132.077 114.22 132.137 113.924 132.137C113.555 132.137 113.268 132.046 113.062 131.863C112.862 131.676 112.721 131.387 112.639 130.995H112.55C112.281 131.387 111.955 131.676 111.572 131.863C111.194 132.046 110.736 132.137 110.198 132.137ZM122.537 128.527C122.537 129.243 122.396 129.876 122.113 130.428C121.835 130.975 121.434 131.396 120.91 131.692C120.391 131.989 119.78 132.137 119.078 132.137C118.007 132.137 117.171 131.809 116.569 131.152C115.968 130.496 115.667 129.589 115.667 128.432C115.667 125.816 117.016 124.508 119.714 124.508H123.125V125.479H121.32C122.132 126.24 122.537 127.256 122.537 128.527ZM116.843 128.432C116.843 129.316 117.036 129.997 117.424 130.476C117.811 130.95 118.372 131.187 119.105 131.187C119.83 131.187 120.386 130.963 120.773 130.517C121.165 130.065 121.361 129.425 121.361 128.596C121.361 127.365 120.965 126.326 120.172 125.479H119.728C118.716 125.479 117.982 125.715 117.526 126.189C117.071 126.663 116.843 127.411 116.843 128.432ZM125.75 124.508V129.799C125.75 130.273 125.832 130.626 125.996 130.858C126.165 131.086 126.447 131.2 126.844 131.2C127.012 131.2 127.211 131.187 127.438 131.159C127.671 131.127 127.849 131.095 127.972 131.063V131.932C127.83 131.991 127.639 132.039 127.397 132.075C127.16 132.116 126.928 132.137 126.7 132.137C125.971 132.137 125.44 131.945 125.107 131.562C124.779 131.18 124.615 130.603 124.615 129.833V124.508H125.75ZM139.504 128.527C139.504 129.243 139.363 129.876 139.08 130.428C138.802 130.975 138.401 131.396 137.877 131.692C137.357 131.989 136.747 132.137 136.045 132.137C134.974 132.137 134.138 131.809 133.536 131.152C132.935 130.496 132.634 129.589 132.634 128.432C132.634 125.816 133.983 124.508 136.681 124.508H140.092V125.479H138.287C139.098 126.24 139.504 127.256 139.504 128.527ZM133.81 128.432C133.81 129.316 134.003 129.997 134.391 130.476C134.778 130.95 135.339 131.187 136.072 131.187C136.797 131.187 137.353 130.963 137.74 130.517C138.132 130.065 138.328 129.425 138.328 128.596C138.328 127.365 137.932 126.326 137.139 125.479H136.694C135.683 125.479 134.949 125.715 134.493 126.189C134.037 126.663 133.81 127.411 133.81 128.432ZM146.688 124.508V125.479H143.735V129.703C143.735 130.719 144.202 131.228 145.137 131.228C145.351 131.228 145.57 131.214 145.793 131.187C146.016 131.155 146.189 131.123 146.312 131.091V131.945C146.153 132.014 145.946 132.068 145.69 132.109C145.44 132.15 145.205 132.171 144.986 132.171C144.161 132.171 143.555 131.977 143.168 131.59C142.781 131.202 142.587 130.621 142.587 129.847V125.479H140.557V124.973L141.568 124.508H146.688ZM154.734 128.247C154.734 129.468 154.427 130.423 153.812 131.111C153.196 131.795 152.346 132.137 151.262 132.137C150.592 132.137 149.997 131.979 149.478 131.665C148.958 131.351 148.557 130.899 148.274 130.312C147.992 129.724 147.851 129.035 147.851 128.247C147.851 127.026 148.156 126.076 148.767 125.396C149.377 124.713 150.225 124.371 151.31 124.371C152.358 124.371 153.189 124.72 153.805 125.417C154.424 126.114 154.734 127.058 154.734 128.247ZM149.026 128.247C149.026 129.204 149.218 129.933 149.601 130.435C149.983 130.936 150.546 131.187 151.289 131.187C152.032 131.187 152.595 130.938 152.978 130.441C153.365 129.94 153.559 129.209 153.559 128.247C153.559 127.295 153.365 126.572 152.978 126.08C152.595 125.583 152.027 125.335 151.275 125.335C150.533 125.335 149.972 125.579 149.594 126.066C149.215 126.554 149.026 127.281 149.026 128.247ZM165.2 129.956C165.2 130.653 164.94 131.191 164.421 131.569C163.901 131.948 163.172 132.137 162.233 132.137C161.24 132.137 160.465 131.979 159.909 131.665V130.612C160.269 130.795 160.654 130.938 161.064 131.043C161.479 131.148 161.878 131.2 162.261 131.2C162.853 131.2 163.309 131.107 163.628 130.92C163.947 130.729 164.106 130.439 164.106 130.052C164.106 129.76 163.979 129.512 163.724 129.307C163.473 129.097 162.981 128.851 162.247 128.568C161.55 128.309 161.053 128.083 160.757 127.892C160.465 127.696 160.246 127.475 160.101 127.229C159.959 126.982 159.889 126.688 159.889 126.347C159.889 125.736 160.137 125.255 160.634 124.904C161.131 124.549 161.812 124.371 162.678 124.371C163.484 124.371 164.273 124.535 165.043 124.863L164.64 125.786C163.888 125.476 163.206 125.321 162.596 125.321C162.058 125.321 161.652 125.406 161.379 125.574C161.105 125.743 160.969 125.975 160.969 126.271C160.969 126.472 161.019 126.643 161.119 126.784C161.224 126.925 161.39 127.06 161.618 127.188C161.846 127.315 162.284 127.5 162.931 127.741C163.819 128.065 164.419 128.391 164.729 128.719C165.043 129.047 165.2 129.459 165.2 129.956ZM168.188 132H167.053V124.508H168.188V132ZM166.957 122.478C166.957 122.218 167.021 122.029 167.148 121.91C167.276 121.787 167.436 121.726 167.627 121.726C167.809 121.726 167.966 121.787 168.099 121.91C168.231 122.033 168.297 122.222 168.297 122.478C168.297 122.733 168.231 122.924 168.099 123.052C167.966 123.175 167.809 123.236 167.627 123.236C167.436 123.236 167.276 123.175 167.148 123.052C167.021 122.924 166.957 122.733 166.957 122.478ZM173.014 131.2C173.214 131.2 173.408 131.187 173.595 131.159C173.782 131.127 173.93 131.095 174.039 131.063V131.932C173.916 131.991 173.734 132.039 173.492 132.075C173.255 132.116 173.041 132.137 172.85 132.137C171.4 132.137 170.676 131.373 170.676 129.847V125.39H169.603V124.843L170.676 124.371L171.154 122.771H171.811V124.508H173.984V125.39H171.811V129.799C171.811 130.25 171.918 130.596 172.132 130.838C172.346 131.079 172.64 131.2 173.014 131.2ZM178.708 132.137C177.601 132.137 176.726 131.799 176.083 131.125C175.445 130.451 175.126 129.514 175.126 128.315C175.126 127.108 175.422 126.148 176.015 125.438C176.612 124.727 177.411 124.371 178.414 124.371C179.353 124.371 180.096 124.681 180.643 125.301C181.189 125.916 181.463 126.729 181.463 127.741V128.459H176.302C176.325 129.339 176.546 130.006 176.965 130.462C177.389 130.918 177.983 131.146 178.749 131.146C179.556 131.146 180.353 130.977 181.142 130.64V131.651C180.741 131.825 180.36 131.948 180 132.021C179.645 132.098 179.214 132.137 178.708 132.137ZM178.4 125.321C177.799 125.321 177.318 125.517 176.958 125.909C176.603 126.301 176.393 126.843 176.329 127.536H180.246C180.246 126.821 180.087 126.274 179.768 125.896C179.449 125.513 178.993 125.321 178.4 125.321ZM193.494 128.527C193.494 129.243 193.353 129.876 193.07 130.428C192.792 130.975 192.391 131.396 191.867 131.692C191.348 131.989 190.737 132.137 190.035 132.137C188.964 132.137 188.128 131.809 187.526 131.152C186.925 130.496 186.624 129.589 186.624 128.432C186.624 125.816 187.973 124.508 190.671 124.508H194.082V125.479H192.277C193.089 126.24 193.494 127.256 193.494 128.527ZM187.8 128.432C187.8 129.316 187.993 129.997 188.381 130.476C188.768 130.95 189.329 131.187 190.062 131.187C190.787 131.187 191.343 130.963 191.73 130.517C192.122 130.065 192.318 129.425 192.318 128.596C192.318 127.365 191.922 126.326 191.129 125.479H190.685C189.673 125.479 188.939 125.715 188.483 126.189C188.028 126.663 187.8 127.411 187.8 128.432ZM198.471 131.187C199.241 131.187 199.797 130.965 200.139 130.523C200.48 130.077 200.651 129.357 200.651 128.363V128.261C200.651 127.217 200.478 126.47 200.132 126.019C199.785 125.563 199.227 125.335 198.457 125.335C197.076 125.335 196.386 126.319 196.386 128.288C196.386 129.254 196.552 129.979 196.885 130.462C197.222 130.945 197.751 131.187 198.471 131.187ZM198.3 132.137C197.325 132.137 196.566 131.799 196.023 131.125C195.481 130.446 195.21 129.496 195.21 128.274C195.21 127.026 195.488 126.064 196.044 125.39C196.6 124.711 197.391 124.371 198.416 124.371C198.967 124.371 199.425 124.467 199.79 124.658C200.159 124.85 200.467 125.137 200.713 125.52H200.795C200.904 125.1 201.052 124.763 201.239 124.508H202.121C202.025 124.809 201.946 125.239 201.882 125.8C201.818 126.36 201.786 126.905 201.786 127.434V130.435C201.786 130.954 201.978 131.214 202.36 131.214C202.493 131.214 202.634 131.191 202.784 131.146V131.959C202.575 132.077 202.322 132.137 202.025 132.137C201.656 132.137 201.369 132.046 201.164 131.863C200.964 131.676 200.822 131.387 200.74 130.995H200.651C200.382 131.387 200.057 131.676 199.674 131.863C199.296 132.046 198.838 132.137 198.3 132.137ZM204.944 128.432C204.944 129.047 205.01 129.505 205.143 129.806C205.279 130.106 205.509 130.348 205.833 130.53C206.161 130.713 206.69 130.881 207.419 131.036C208.093 131.182 208.579 131.378 208.875 131.624C209.176 131.866 209.326 132.191 209.326 132.602C209.326 132.902 209.265 133.226 209.142 133.572C209.019 133.919 208.804 134.308 208.499 134.741H207.433C207.679 134.422 207.877 134.094 208.027 133.757C208.182 133.42 208.26 133.137 208.26 132.909C208.26 132.727 208.201 132.581 208.082 132.472C207.968 132.367 207.786 132.271 207.535 132.185C207.285 132.098 206.938 132.014 206.496 131.932C205.566 131.763 204.878 131.389 204.432 130.811C203.99 130.232 203.769 129.443 203.769 128.445C203.769 127.142 204.083 126.137 204.712 125.431C205.341 124.724 206.22 124.371 207.351 124.371C207.711 124.371 208.071 124.41 208.431 124.487C208.791 124.56 209.094 124.651 209.34 124.761L208.978 125.725C208.385 125.492 207.829 125.376 207.31 125.376C206.507 125.376 205.913 125.624 205.525 126.121C205.138 126.618 204.944 127.388 204.944 128.432Z" fill="black"/>
<circle cx="16" cy="119" r="16" fill="#F1F1F1"/>
<path d="M18.1797 116.133C18.1797 116.846 17.9635 117.453 17.5312 117.953C17.099 118.453 16.4922 118.797 15.7109 118.984V119.031C16.6328 119.146 17.3307 119.427 17.8047 119.875C18.2786 120.318 18.5156 120.917 18.5156 121.672C18.5156 122.771 18.1172 123.628 17.3203 124.242C16.5234 124.852 15.3854 125.156 13.9062 125.156C12.6667 125.156 11.5677 124.951 10.6094 124.539V122.484C11.0521 122.708 11.5391 122.891 12.0703 123.031C12.6016 123.172 13.1276 123.242 13.6484 123.242C14.4453 123.242 15.0339 123.107 15.4141 122.836C15.7943 122.565 15.9844 122.13 15.9844 121.531C15.9844 120.995 15.7656 120.615 15.3281 120.391C14.8906 120.167 14.1927 120.055 13.2344 120.055H12.3672V118.203H13.25C14.1354 118.203 14.7812 118.089 15.1875 117.859C15.599 117.625 15.8047 117.227 15.8047 116.664C15.8047 115.799 15.263 115.367 14.1797 115.367C13.8047 115.367 13.4219 115.43 13.0312 115.555C12.6458 115.68 12.2161 115.896 11.7422 116.203L10.625 114.539C11.6667 113.789 12.9089 113.414 14.3516 113.414C15.5339 113.414 16.4661 113.654 17.1484 114.133C17.8359 114.612 18.1797 115.279 18.1797 116.133Z" fill="#6C63FF"/>
</svg>
