<svg width="195" height="48" viewBox="0 0 195 48" fill="none" xmlns="http://www.w3.org/2000/svg">
<rect x="0.5" y="0.5" width="194" height="47" stroke="#393939"/>
<path d="M52.75 29L51.3281 25.3672H46.75L45.3438 29H44L48.5156 17.5312H49.6328L54.125 29H52.75ZM50.9141 24.1719L49.5859 20.6328C49.4141 20.1849 49.237 19.6354 49.0547 18.9844C48.9401 19.4844 48.776 20.0339 48.5625 20.6328L47.2188 24.1719H50.9141ZM54.125 20.4375H55.4688L57.1797 25.0469C57.3151 25.3958 57.4896 25.8802 57.7031 26.5C57.9219 27.1198 58.0729 27.5911 58.1562 27.9141H58.2188C59.1406 27.0026 59.8073 25.9688 60.2188 24.8125C60.6354 23.651 60.8438 22.1927 60.8438 20.4375H62.1406C62.1406 22.3281 61.8698 23.9349 61.3281 25.2578C60.7917 26.5807 59.9375 27.8281 58.7656 29H57.3125L54.125 20.4375ZM69.9453 20.4375V21.5469H66.5703V26.375C66.5703 27.5365 67.1042 28.1172 68.1719 28.1172C68.4167 28.1172 68.6667 28.1016 68.9219 28.0703C69.1771 28.0339 69.375 27.9974 69.5156 27.9609V28.9375C69.3333 29.0156 69.0964 29.0781 68.8047 29.125C68.5182 29.1719 68.25 29.1953 68 29.1953C67.0573 29.1953 66.3646 28.974 65.9219 28.5312C65.4792 28.0885 65.2578 27.4245 65.2578 26.5391V21.5469H62.9375V20.9688L64.0938 20.4375H69.9453ZM72.9844 20.4375V26.4844C72.9844 27.026 73.0781 27.4297 73.2656 27.6953C73.4583 27.9557 73.7812 28.0859 74.2344 28.0859C74.4271 28.0859 74.6536 28.0703 74.9141 28.0391C75.1797 28.0026 75.3828 27.9661 75.5234 27.9297V28.9219C75.362 28.9896 75.1432 29.0443 74.8672 29.0859C74.5964 29.1328 74.3307 29.1562 74.0703 29.1562C73.237 29.1562 72.6302 28.9375 72.25 28.5C71.875 28.0625 71.6875 27.4036 71.6875 26.5234V20.4375H72.9844ZM79.9531 32.8438H78.5469C78.5469 32.3438 78.6302 31.7109 78.7969 30.9453C78.9635 30.1797 79.1589 29.5 79.3828 28.9062L75.875 20.4375H77.2188L79.0938 25C79.5833 26.224 79.8776 27.1042 79.9766 27.6406H80.0391C80.0651 27.4844 80.1302 27.2214 80.2344 26.8516C80.3438 26.4818 80.4531 26.1302 80.5625 25.7969C80.6771 25.4583 81.3438 23.6719 82.5625 20.4375H83.9062L80.7422 28.7891C80.4922 29.4349 80.2969 30.138 80.1562 30.8984C80.0208 31.6589 79.9531 32.3073 79.9531 32.8438ZM92.7656 24.7109C92.7656 26.1224 92.4323 27.2161 91.7656 27.9922C91.099 28.7682 90.1589 29.1562 88.9453 29.1562C88.013 29.1562 87.2344 28.9115 86.6094 28.4219H86.5469C86.5885 28.7396 86.6094 29.4505 86.6094 30.5547V32.8438H85.2969V24.6016C85.2969 23.2161 85.6224 22.151 86.2734 21.4062C86.9297 20.6562 87.8672 20.2812 89.0859 20.2812C90.2266 20.2812 91.125 20.6771 91.7812 21.4688C92.4375 22.2552 92.7656 23.3359 92.7656 24.7109ZM89.0234 21.3828C88.2005 21.3828 87.5911 21.6536 87.1953 22.1953C86.8047 22.7318 86.6094 23.5443 86.6094 24.6328V27.2734C87.2448 27.8047 88.0391 28.0703 88.9922 28.0703C89.8203 28.0703 90.4323 27.7995 90.8281 27.2578C91.224 26.7161 91.4219 25.8672 91.4219 24.7109C91.4219 23.5964 91.2344 22.763 90.8594 22.2109C90.4844 21.6589 89.8724 21.3828 89.0234 21.3828ZM98.2969 28.0703C99.1771 28.0703 99.8125 27.8177 100.203 27.3125C100.594 26.8021 100.789 25.9792 100.789 24.8438V24.7266C100.789 23.5339 100.591 22.6797 100.195 22.1641C99.7995 21.6432 99.1615 21.3828 98.2812 21.3828C96.7031 21.3828 95.9141 22.5078 95.9141 24.7578C95.9141 25.862 96.1042 26.6901 96.4844 27.2422C96.8698 27.7943 97.474 28.0703 98.2969 28.0703ZM98.1016 29.1562C96.987 29.1562 96.1198 28.7708 95.5 28C94.8802 27.224 94.5703 26.138 94.5703 24.7422C94.5703 23.3151 94.888 22.2161 95.5234 21.4453C96.1589 20.6693 97.0625 20.2812 98.2344 20.2812C98.8646 20.2812 99.388 20.3906 99.8047 20.6094C100.227 20.8281 100.578 21.1562 100.859 21.5938H100.953C101.078 21.1146 101.247 20.7292 101.461 20.4375H102.469C102.359 20.7812 102.268 21.2734 102.195 21.9141C102.122 22.5547 102.086 23.1771 102.086 23.7812V27.2109C102.086 27.8047 102.305 28.1016 102.742 28.1016C102.893 28.1016 103.055 28.0755 103.227 28.0234V28.9531C102.987 29.0885 102.698 29.1562 102.359 29.1562C101.938 29.1562 101.609 29.0521 101.375 28.8438C101.146 28.6302 100.984 28.2995 100.891 27.8516H100.789C100.482 28.2995 100.109 28.6302 99.6719 28.8438C99.2396 29.0521 98.7161 29.1562 98.1016 29.1562ZM108.477 32.8438V29.1406C107.122 29.0833 106.096 28.6771 105.398 27.9219C104.701 27.1615 104.352 26.0755 104.352 24.6641C104.352 23.1224 104.891 21.6927 105.969 20.375L106.992 21.0781C106.529 21.6875 106.19 22.2839 105.977 22.8672C105.768 23.4505 105.664 24.0651 105.664 24.7109C105.664 26.7682 106.602 27.888 108.477 28.0703V23.2266C108.477 22.2526 108.693 21.5182 109.125 21.0234C109.557 20.5286 110.161 20.2812 110.938 20.2812C111.875 20.2812 112.628 20.6641 113.195 21.4297C113.763 22.1901 114.047 23.2214 114.047 24.5234C114.047 25.4505 113.87 26.2552 113.516 26.9375C113.161 27.6146 112.661 28.1406 112.016 28.5156C111.37 28.8906 110.617 29.099 109.758 29.1406V32.8438H108.477ZM112.703 24.5391C112.703 23.5755 112.542 22.8099 112.219 22.2422C111.896 21.6693 111.469 21.3828 110.938 21.3828C110.557 21.3828 110.266 21.5391 110.062 21.8516C109.859 22.1641 109.758 22.6172 109.758 23.2109V28.0703C110.69 27.987 111.414 27.638 111.93 27.0234C112.445 26.4089 112.703 25.5807 112.703 24.5391ZM122.172 32.8438V23.4609C122.172 22.763 122.013 22.2422 121.695 21.8984C121.378 21.5547 120.88 21.3828 120.203 21.3828C119.307 21.3828 118.651 21.625 118.234 22.1094C117.818 22.5938 117.609 23.3932 117.609 24.5078V29H116.312V20.4375H117.367L117.578 21.6094H117.641C117.906 21.1875 118.279 20.862 118.758 20.6328C119.237 20.3984 119.771 20.2812 120.359 20.2812C121.391 20.2812 122.167 20.5312 122.688 21.0312C123.208 21.526 123.469 22.3203 123.469 23.4141V32.8438H122.172ZM119.367 19.0781C119.508 18.7031 119.646 18.2214 119.781 17.6328C119.922 17.0391 120.023 16.5286 120.086 16.1016H121.523V16.2812C121.43 16.6667 121.24 17.1693 120.953 17.7891C120.672 18.4036 120.404 18.9089 120.148 19.3047H119.367V19.0781ZM135.289 20.4531H136.906L133.672 24.2188L137.133 29H135.562L132.742 25.0625L131.688 25.9453V29H130.297V20.4531H131.688V22.6641C131.688 23.5286 131.656 24.2552 131.594 24.8438L135.289 20.4531ZM141.125 29.1562C140.177 29.1562 139.438 28.7708 138.906 28C138.38 27.2292 138.117 26.1823 138.117 24.8594C138.117 24.0469 138.188 23.3073 138.328 22.6406C138.474 21.9688 138.724 21.2344 139.078 20.4375H140.422C140.068 21.25 139.815 21.9896 139.664 22.6562C139.518 23.3177 139.445 24.0573 139.445 24.875C139.445 25.8802 139.602 26.6641 139.914 27.2266C140.227 27.7891 140.661 28.0703 141.219 28.0703C141.708 28.0703 142.089 27.8854 142.359 27.5156C142.635 27.1406 142.773 26.6276 142.773 25.9766V23.5469H144.031V25.9766C144.031 26.6432 144.169 27.1589 144.445 27.5234C144.721 27.888 145.102 28.0703 145.586 28.0703C146.143 28.0703 146.578 27.7891 146.891 27.2266C147.203 26.6641 147.359 25.8802 147.359 24.875C147.359 24.0885 147.286 23.3568 147.141 22.6797C147 22.0026 146.75 21.2552 146.391 20.4375H147.734C148.073 21.1979 148.315 21.9219 148.461 22.6094C148.612 23.2917 148.688 24.0417 148.688 24.8594C148.688 26.1719 148.422 27.2161 147.891 27.9922C147.365 28.7682 146.628 29.1562 145.68 29.1562C144.534 29.1562 143.784 28.6823 143.43 27.7344H143.359C143.021 28.6823 142.276 29.1562 141.125 29.1562ZM142.758 19.0781C142.898 18.7031 143.036 18.2214 143.172 17.6328C143.312 17.0391 143.414 16.5286 143.477 16.1016H144.914V16.2812C144.82 16.6667 144.63 17.1693 144.344 17.7891C144.062 18.4036 143.794 18.9089 143.539 19.3047H142.758V19.0781ZM153.852 21.6875C153.122 21.2812 152.607 20.8724 152.305 20.4609C152.003 20.0443 151.852 19.5781 151.852 19.0625C151.852 18.3854 152.104 17.849 152.609 17.4531C153.115 17.0573 153.794 16.8594 154.648 16.8594C155.185 16.8594 155.698 16.9193 156.188 17.0391C156.682 17.1536 157.258 17.375 157.914 17.7031L157.352 18.7578C156.768 18.4349 156.268 18.2161 155.852 18.1016C155.44 17.987 155.023 17.9297 154.602 17.9297C154.159 17.9297 153.81 18.0339 153.555 18.2422C153.305 18.4453 153.18 18.7188 153.18 19.0625C153.18 19.4323 153.318 19.763 153.594 20.0547C153.875 20.3411 154.451 20.7214 155.32 21.1953C156.414 21.7943 157.19 22.4089 157.648 23.0391C158.112 23.6641 158.344 24.4036 158.344 25.2578C158.344 26.4818 157.99 27.4375 157.281 28.125C156.573 28.8125 155.604 29.1562 154.375 29.1562C153.193 29.1562 152.247 28.8333 151.539 28.1875C150.831 27.5417 150.477 26.6719 150.477 25.5781C150.477 24.6562 150.771 23.8568 151.359 23.1797C151.948 22.4974 152.779 22 153.852 21.6875ZM157 25.2578C157 24.5911 156.839 24.0208 156.516 23.5469C156.198 23.0677 155.672 22.6354 154.938 22.25C153.865 22.526 153.078 22.9479 152.578 23.5156C152.083 24.0781 151.836 24.776 151.836 25.6094C151.836 26.3594 152.068 26.9583 152.531 27.4062C152.995 27.849 153.609 28.0703 154.375 28.0703C155.219 28.0703 155.867 27.8281 156.32 27.3438C156.773 26.8594 157 26.1641 157 25.2578ZM161.484 20.4375V26.4844C161.484 27.026 161.578 27.4297 161.766 27.6953C161.958 27.9557 162.281 28.0859 162.734 28.0859C162.927 28.0859 163.154 28.0703 163.414 28.0391C163.68 28.0026 163.883 27.9661 164.023 27.9297V28.9219C163.862 28.9896 163.643 29.0443 163.367 29.0859C163.096 29.1328 162.831 29.1562 162.57 29.1562C161.737 29.1562 161.13 28.9375 160.75 28.5C160.375 28.0625 160.188 27.4036 160.188 26.5234V20.4375H161.484ZM170.664 20.4531H172.281L169.047 24.2188L172.508 29H170.938L168.117 25.0625L167.062 25.9453V29H165.672V20.4531H167.062V22.6641C167.062 23.5286 167.031 24.2552 166.969 24.8438L170.664 20.4531ZM177.219 28.0703C178.099 28.0703 178.734 27.8177 179.125 27.3125C179.516 26.8021 179.711 25.9792 179.711 24.8438V24.7266C179.711 23.5339 179.513 22.6797 179.117 22.1641C178.721 21.6432 178.083 21.3828 177.203 21.3828C175.625 21.3828 174.836 22.5078 174.836 24.7578C174.836 25.862 175.026 26.6901 175.406 27.2422C175.792 27.7943 176.396 28.0703 177.219 28.0703ZM177.023 29.1562C175.909 29.1562 175.042 28.7708 174.422 28C173.802 27.224 173.492 26.138 173.492 24.7422C173.492 23.3151 173.81 22.2161 174.445 21.4453C175.081 20.6693 175.984 20.2812 177.156 20.2812C177.786 20.2812 178.31 20.3906 178.727 20.6094C179.148 20.8281 179.5 21.1562 179.781 21.5938H179.875C180 21.1146 180.169 20.7292 180.383 20.4375H181.391C181.281 20.7812 181.19 21.2734 181.117 21.9141C181.044 22.5547 181.008 23.1771 181.008 23.7812V27.2109C181.008 27.8047 181.227 28.1016 181.664 28.1016C181.815 28.1016 181.977 28.0755 182.148 28.0234V28.9531C181.909 29.0885 181.62 29.1562 181.281 29.1562C180.859 29.1562 180.531 29.0521 180.297 28.8438C180.068 28.6302 179.906 28.2995 179.812 27.8516H179.711C179.404 28.2995 179.031 28.6302 178.594 28.8438C178.161 29.0521 177.638 29.1562 177.023 29.1562Z" fill="#393939"/>
<path d="M30 20.4526H21C19.8954 20.4526 19 21.5339 19 22.8677V33.7357C19 35.0695 19.8954 36.1508 21 36.1508H30C31.1046 36.1508 32 35.0695 32 33.7357V22.8677C32 21.5339 31.1046 20.4526 30 20.4526Z" stroke="#393939" stroke-linecap="round" stroke-linejoin="round"/>
<path d="M15 27.6981H14C13.4696 27.6981 12.9609 27.4437 12.5858 26.9907C12.2107 26.5378 12 25.9235 12 25.283V14.4151C12 13.7746 12.2107 13.1603 12.5858 12.7074C12.9609 12.2544 13.4696 12 14 12H23C23.5304 12 24.0391 12.2544 24.4142 12.7074C24.7893 13.1603 25 13.7746 25 14.4151V15.6226" stroke="#393939" stroke-linecap="round" stroke-linejoin="round"/>
</svg>
