<svg width="240" height="136" viewBox="0 0 240 136" fill="none" xmlns="http://www.w3.org/2000/svg">
<path d="M47.6562 22L46.4121 18.8213H42.4062L41.1758 22H40L43.9512 11.9648H44.9287L48.8594 22H47.6562ZM46.0498 17.7754L44.8877 14.6787C44.7373 14.2868 44.5824 13.806 44.4229 13.2363C44.3226 13.6738 44.179 14.1546 43.9922 14.6787L42.8164 17.7754H46.0498ZM48.8594 14.5078H50.0352L51.5322 18.541C51.6507 18.8464 51.8034 19.2702 51.9902 19.8125C52.1816 20.3548 52.3138 20.7673 52.3867 21.0498H52.4414C53.248 20.2523 53.8314 19.3477 54.1914 18.3359C54.556 17.3197 54.7383 16.0436 54.7383 14.5078H55.873C55.873 16.1621 55.6361 17.568 55.1621 18.7256C54.6927 19.8831 53.9453 20.9746 52.9199 22H51.6484L48.8594 14.5078ZM62.7021 14.5078V15.4785H59.749V19.7031C59.749 20.7194 60.2161 21.2275 61.1504 21.2275C61.3646 21.2275 61.5833 21.2139 61.8066 21.1865C62.0299 21.1546 62.2031 21.1227 62.3262 21.0908V21.9453C62.1667 22.0137 61.9593 22.0684 61.7041 22.1094C61.4535 22.1504 61.2188 22.1709 61 22.1709C60.1751 22.1709 59.569 21.9772 59.1816 21.5898C58.7943 21.2025 58.6006 20.6214 58.6006 19.8467V15.4785H56.5703V14.9727L57.582 14.5078H62.7021ZM65.3613 14.5078V19.7988C65.3613 20.2728 65.4434 20.626 65.6074 20.8584C65.776 21.0863 66.0586 21.2002 66.4551 21.2002C66.6237 21.2002 66.8219 21.1865 67.0498 21.1592C67.2822 21.1273 67.46 21.0954 67.583 21.0635V21.9316C67.4417 21.9909 67.2503 22.0387 67.0088 22.0752C66.7718 22.1162 66.5394 22.1367 66.3115 22.1367C65.5824 22.1367 65.0514 21.9453 64.7188 21.5625C64.3906 21.1797 64.2266 20.6032 64.2266 19.833V14.5078H65.3613ZM71.459 25.3633H70.2285C70.2285 24.9258 70.3014 24.3721 70.4473 23.7021C70.5931 23.0322 70.764 22.4375 70.96 21.918L67.8906 14.5078H69.0664L70.707 18.5C71.1354 19.571 71.3929 20.3411 71.4795 20.8105H71.5342C71.557 20.6738 71.6139 20.4437 71.7051 20.1201C71.8008 19.7965 71.8965 19.4889 71.9922 19.1973C72.0924 18.901 72.6758 17.3379 73.7422 14.5078H74.918L72.1494 21.8154C71.9307 22.3805 71.7598 22.9958 71.6367 23.6611C71.5182 24.3265 71.459 24.8939 71.459 25.3633ZM82.6699 18.2471C82.6699 19.4821 82.3783 20.4391 81.7949 21.1182C81.2116 21.7972 80.389 22.1367 79.3271 22.1367C78.5114 22.1367 77.8301 21.9225 77.2832 21.4941H77.2285C77.265 21.7721 77.2832 22.3942 77.2832 23.3604V25.3633H76.1348V18.1514C76.1348 16.9391 76.4196 16.0072 76.9893 15.3555C77.5635 14.6992 78.3838 14.3711 79.4502 14.3711C80.4482 14.3711 81.2344 14.7174 81.8086 15.4102C82.3828 16.0983 82.6699 17.0439 82.6699 18.2471ZM79.3955 15.335C78.6755 15.335 78.1423 15.5719 77.7959 16.0459C77.4541 16.5153 77.2832 17.2262 77.2832 18.1787V20.4893C77.8392 20.9541 78.5342 21.1865 79.3682 21.1865C80.0928 21.1865 80.6283 20.9495 80.9746 20.4756C81.321 20.0016 81.4941 19.2588 81.4941 18.2471C81.4941 17.2718 81.3301 16.5426 81.002 16.0596C80.6738 15.5765 80.1383 15.335 79.3955 15.335ZM87.5098 21.1865C88.2799 21.1865 88.8359 20.9655 89.1777 20.5234C89.5195 20.0768 89.6904 19.3568 89.6904 18.3633V18.2607C89.6904 17.2171 89.5173 16.4697 89.1709 16.0186C88.8245 15.5628 88.2663 15.335 87.4961 15.335C86.1152 15.335 85.4248 16.3193 85.4248 18.2881C85.4248 19.2542 85.5911 19.9788 85.9238 20.4619C86.2611 20.945 86.7897 21.1865 87.5098 21.1865ZM87.3389 22.1367C86.3636 22.1367 85.6048 21.7995 85.0625 21.125C84.5202 20.446 84.249 19.4958 84.249 18.2744C84.249 17.0257 84.527 16.0641 85.083 15.3896C85.639 14.7106 86.4297 14.3711 87.4551 14.3711C88.0065 14.3711 88.4645 14.4668 88.8291 14.6582C89.1982 14.8496 89.5059 15.1367 89.752 15.5195H89.834C89.9434 15.1003 90.0915 14.763 90.2783 14.5078H91.1602C91.0645 14.8086 90.9847 15.2393 90.9209 15.7998C90.8571 16.3604 90.8252 16.9049 90.8252 17.4336V20.4346C90.8252 20.9541 91.0166 21.2139 91.3994 21.2139C91.5316 21.2139 91.6729 21.1911 91.8232 21.1455V21.959C91.6136 22.0775 91.3607 22.1367 91.0645 22.1367C90.6953 22.1367 90.4082 22.0456 90.2031 21.8633C90.0026 21.6764 89.8613 21.387 89.7793 20.9951H89.6904C89.4215 21.387 89.0957 21.6764 88.7129 21.8633C88.3346 22.0456 87.8766 22.1367 87.3389 22.1367ZM87.1338 13.3184C87.2568 12.9902 87.3776 12.5687 87.4961 12.0537C87.6191 11.5342 87.708 11.0876 87.7627 10.7139H89.0205V10.8711C88.9385 11.2083 88.7721 11.6481 88.5215 12.1904C88.2754 12.7282 88.0407 13.1702 87.8174 13.5166H87.1338V13.3184ZM97.8867 11.377V21.1592C98.7435 21.0908 99.402 20.7946 99.8623 20.2705C100.327 19.7419 100.56 19.0127 100.56 18.083C100.56 17.5361 100.53 16.9961 100.471 16.4629C100.411 15.9251 100.298 15.2734 100.129 14.5078H101.264C101.551 15.7474 101.694 16.9232 101.694 18.0352C101.694 19.293 101.368 20.2705 100.717 20.9678C100.07 21.665 99.1263 22.0501 97.8867 22.123V25.3633H96.7656V22.123C95.5625 22.082 94.6579 21.7311 94.0518 21.0703C93.4456 20.4095 93.1426 19.4593 93.1426 18.2197V14.5078H94.2773V18.2607C94.2773 19.1494 94.4824 19.8421 94.8926 20.3389C95.3027 20.8356 95.9271 21.1136 96.7656 21.1729V11.377H97.8867ZM108.817 14.5078V15.4785H105.864V19.7031C105.864 20.7194 106.331 21.2275 107.266 21.2275C107.48 21.2275 107.699 21.2139 107.922 21.1865C108.145 21.1546 108.318 21.1227 108.441 21.0908V21.9453C108.282 22.0137 108.075 22.0684 107.819 22.1094C107.569 22.1504 107.334 22.1709 107.115 22.1709C106.29 22.1709 105.684 21.9772 105.297 21.5898C104.91 21.2025 104.716 20.6214 104.716 19.8467V15.4785H102.686V14.9727L103.697 14.5078H108.817ZM114.081 17.6182V18.582H113.069C111.652 18.582 110.943 19.0264 110.943 19.915C110.943 20.3252 111.11 20.6419 111.442 20.8652C111.78 21.0885 112.281 21.2002 112.946 21.2002C113.329 21.2002 113.71 21.1569 114.088 21.0703C114.466 20.9792 114.883 20.8265 115.339 20.6123V21.624C114.715 21.9658 113.899 22.1367 112.892 22.1367C111.935 22.1367 111.18 21.9453 110.629 21.5625C110.082 21.1751 109.809 20.6442 109.809 19.9697C109.809 19.5231 109.934 19.1517 110.185 18.8555C110.435 18.5547 110.857 18.3109 111.449 18.124V18.0488C111.003 17.9212 110.656 17.7139 110.41 17.4268C110.169 17.1351 110.048 16.7796 110.048 16.3604C110.048 15.7542 110.303 15.2712 110.813 14.9111C111.324 14.5511 112.017 14.3711 112.892 14.3711C113.334 14.3711 113.742 14.4098 114.115 14.4873C114.493 14.5602 114.91 14.6992 115.366 14.9043L114.936 15.8135C114.507 15.6221 114.145 15.4945 113.849 15.4307C113.552 15.3669 113.224 15.335 112.864 15.335C111.725 15.335 111.155 15.7041 111.155 16.4424C111.155 17.2262 111.878 17.6182 113.322 17.6182H114.081ZM125.743 14.5078V15.4785H122.79V19.7031C122.79 20.7194 123.257 21.2275 124.191 21.2275C124.406 21.2275 124.624 21.2139 124.848 21.1865C125.071 21.1546 125.244 21.1227 125.367 21.0908V21.9453C125.208 22.0137 125 22.0684 124.745 22.1094C124.494 22.1504 124.26 22.1709 124.041 22.1709C123.216 22.1709 122.61 21.9772 122.223 21.5898C121.835 21.2025 121.642 20.6214 121.642 19.8467V15.4785H119.611V14.9727L120.623 14.5078H125.743ZM133.789 18.2471C133.789 19.4684 133.481 20.4232 132.866 21.1113C132.251 21.7949 131.401 22.1367 130.316 22.1367C129.646 22.1367 129.052 21.9795 128.532 21.665C128.013 21.3506 127.612 20.8994 127.329 20.3115C127.047 19.7236 126.905 19.0355 126.905 18.2471C126.905 17.0257 127.211 16.0755 127.821 15.3965C128.432 14.7129 129.28 14.3711 130.364 14.3711C131.412 14.3711 132.244 14.7197 132.859 15.417C133.479 16.1143 133.789 17.0576 133.789 18.2471ZM128.081 18.2471C128.081 19.2041 128.272 19.9333 128.655 20.4346C129.038 20.9359 129.601 21.1865 130.344 21.1865C131.087 21.1865 131.649 20.9382 132.032 20.4414C132.42 19.9401 132.613 19.2087 132.613 18.2471C132.613 17.2946 132.42 16.5723 132.032 16.0801C131.649 15.5833 131.082 15.335 130.33 15.335C129.587 15.335 129.027 15.5788 128.648 16.0664C128.27 16.554 128.081 17.2809 128.081 18.2471ZM134.582 14.5078H135.758L137.255 18.541C137.373 18.8464 137.526 19.2702 137.713 19.8125C137.904 20.3548 138.036 20.7673 138.109 21.0498H138.164C138.971 20.2523 139.554 19.3477 139.914 18.3359C140.279 17.3197 140.461 16.0436 140.461 14.5078H141.596C141.596 16.1621 141.359 17.568 140.885 18.7256C140.415 19.8831 139.668 20.9746 138.643 22H137.371L134.582 14.5078ZM151.378 14.5215H152.793L149.963 17.8164L152.991 22H151.617L149.149 18.5547L148.227 19.3271V22H147.01V14.5215H148.227V16.4561C148.227 17.2126 148.199 17.8483 148.145 18.3633L151.378 14.5215ZM156.484 22.1367C155.655 22.1367 155.008 21.7995 154.543 21.125C154.083 20.4505 153.853 19.5345 153.853 18.377C153.853 17.666 153.914 17.0189 154.037 16.4355C154.165 15.8477 154.383 15.2051 154.693 14.5078H155.869C155.559 15.2188 155.338 15.8659 155.206 16.4492C155.078 17.028 155.015 17.6751 155.015 18.3906C155.015 19.2702 155.151 19.9561 155.425 20.4482C155.698 20.9404 156.079 21.1865 156.566 21.1865C156.995 21.1865 157.327 21.0247 157.564 20.7012C157.806 20.373 157.927 19.9242 157.927 19.3545V17.2285H159.027V19.3545C159.027 19.9378 159.148 20.389 159.39 20.708C159.631 21.027 159.964 21.1865 160.388 21.1865C160.875 21.1865 161.256 20.9404 161.529 20.4482C161.803 19.9561 161.939 19.2702 161.939 18.3906C161.939 17.7025 161.876 17.0622 161.748 16.4697C161.625 15.8773 161.406 15.2233 161.092 14.5078H162.268C162.564 15.1732 162.776 15.8066 162.903 16.4082C163.035 17.0052 163.102 17.6615 163.102 18.377C163.102 19.5254 162.869 20.4391 162.404 21.1182C161.944 21.7972 161.299 22.1367 160.47 22.1367C159.467 22.1367 158.811 21.722 158.501 20.8926H158.439C158.143 21.722 157.492 22.1367 156.484 22.1367ZM157.913 13.3184C158.036 12.9902 158.157 12.5687 158.275 12.0537C158.398 11.5342 158.487 11.0876 158.542 10.7139H159.8V10.8711C159.718 11.2083 159.551 11.6481 159.301 12.1904C159.055 12.7282 158.82 13.1702 158.597 13.5166H157.913V13.3184ZM167.62 15.6016C166.982 15.2461 166.531 14.8883 166.267 14.5283C166.002 14.1637 165.87 13.7559 165.87 13.3047C165.87 12.7122 166.091 12.2428 166.533 11.8965C166.975 11.5501 167.57 11.377 168.317 11.377C168.787 11.377 169.236 11.4294 169.664 11.5342C170.097 11.6344 170.601 11.8281 171.175 12.1152L170.683 13.0381C170.172 12.7555 169.735 12.5641 169.37 12.4639C169.01 12.3636 168.646 12.3135 168.276 12.3135C167.889 12.3135 167.584 12.4046 167.36 12.5869C167.142 12.7646 167.032 13.0039 167.032 13.3047C167.032 13.6283 167.153 13.9176 167.395 14.1729C167.641 14.4235 168.144 14.7562 168.905 15.1709C169.862 15.695 170.541 16.2327 170.942 16.7842C171.348 17.3311 171.551 17.9782 171.551 18.7256C171.551 19.7965 171.241 20.6328 170.621 21.2344C170.001 21.8359 169.154 22.1367 168.078 22.1367C167.044 22.1367 166.216 21.8542 165.597 21.2891C164.977 20.724 164.667 19.9629 164.667 19.0059C164.667 18.1992 164.924 17.4997 165.439 16.9072C165.954 16.3102 166.681 15.875 167.62 15.6016ZM170.375 18.7256C170.375 18.1423 170.234 17.6432 169.951 17.2285C169.673 16.8092 169.213 16.431 168.57 16.0938C167.632 16.3353 166.943 16.7044 166.506 17.2012C166.073 17.6934 165.856 18.304 165.856 19.0332C165.856 19.6895 166.059 20.2135 166.465 20.6055C166.87 20.9928 167.408 21.1865 168.078 21.1865C168.816 21.1865 169.384 20.9746 169.78 20.5508C170.177 20.127 170.375 19.5186 170.375 18.7256ZM174.299 14.5078V19.7988C174.299 20.2728 174.381 20.626 174.545 20.8584C174.714 21.0863 174.996 21.2002 175.393 21.2002C175.561 21.2002 175.759 21.1865 175.987 21.1592C176.22 21.1273 176.397 21.0954 176.521 21.0635V21.9316C176.379 21.9909 176.188 22.0387 175.946 22.0752C175.709 22.1162 175.477 22.1367 175.249 22.1367C174.52 22.1367 173.989 21.9453 173.656 21.5625C173.328 21.1797 173.164 20.6032 173.164 19.833V14.5078H174.299ZM182.331 14.5215H183.746L180.916 17.8164L183.944 22H182.57L180.103 18.5547L179.18 19.3271V22H177.963V14.5215H179.18V16.4561C179.18 17.2126 179.152 17.8483 179.098 18.3633L182.331 14.5215ZM188.066 21.1865C188.837 21.1865 189.393 20.9655 189.734 20.5234C190.076 20.0768 190.247 19.3568 190.247 18.3633V18.2607C190.247 17.2171 190.074 16.4697 189.728 16.0186C189.381 15.5628 188.823 15.335 188.053 15.335C186.672 15.335 185.981 16.3193 185.981 18.2881C185.981 19.2542 186.148 19.9788 186.48 20.4619C186.818 20.945 187.346 21.1865 188.066 21.1865ZM187.896 22.1367C186.92 22.1367 186.161 21.7995 185.619 21.125C185.077 20.446 184.806 19.4958 184.806 18.2744C184.806 17.0257 185.084 16.0641 185.64 15.3896C186.196 14.7106 186.986 14.3711 188.012 14.3711C188.563 14.3711 189.021 14.4668 189.386 14.6582C189.755 14.8496 190.062 15.1367 190.309 15.5195H190.391C190.5 15.1003 190.648 14.763 190.835 14.5078H191.717C191.621 14.8086 191.541 15.2393 191.478 15.7998C191.414 16.3604 191.382 16.9049 191.382 17.4336V20.4346C191.382 20.9541 191.573 21.2139 191.956 21.2139C192.088 21.2139 192.229 21.1911 192.38 21.1455V21.959C192.17 22.0775 191.917 22.1367 191.621 22.1367C191.252 22.1367 190.965 22.0456 190.76 21.8633C190.559 21.6764 190.418 21.387 190.336 20.9951H190.247C189.978 21.387 189.652 21.6764 189.27 21.8633C188.891 22.0456 188.433 22.1367 187.896 22.1367Z" fill="black"/>
<circle cx="16" cy="16" r="16" fill="#F1F1F1"/>
<path d="M16.6094 22H14.1953V15.3906L14.2188 14.3047L14.2578 13.1172C13.8568 13.5182 13.5781 13.7812 13.4219 13.9062L12.1094 14.9609L10.9453 13.5078L14.625 10.5781H16.6094V22Z" fill="#6C63FF"/>
<path d="M46.9453 67H41.374V57.0059H46.9453V58.0381H42.5361V61.2578H46.6787V62.2832H42.5361V65.9609H46.9453V67ZM55.6475 66.2002C55.8206 66.2002 56.0166 66.1592 56.2354 66.0771V66.9727C56.0394 67.082 55.75 67.1367 55.3672 67.1367C54.3691 67.1367 53.8701 66.5602 53.8701 65.4072V60.4785H50.6094V67H49.4746V60.4785H47.9639V59.9727L48.9414 59.5078H56.4609V60.4785H55.0049V65.3184C55.0049 65.6556 55.0618 65.888 55.1758 66.0156C55.2943 66.1387 55.4515 66.2002 55.6475 66.2002ZM59.1816 59.5078V64.7988C59.1816 65.2728 59.2637 65.626 59.4277 65.8584C59.5964 66.0863 59.8789 66.2002 60.2754 66.2002C60.444 66.2002 60.6423 66.1865 60.8701 66.1592C61.1025 66.1273 61.2803 66.0954 61.4033 66.0635V66.9316C61.262 66.9909 61.0706 67.0387 60.8291 67.0752C60.5921 67.1162 60.3597 67.1367 60.1318 67.1367C59.4027 67.1367 58.8717 66.9453 58.5391 66.5625C58.2109 66.1797 58.0469 65.6032 58.0469 64.833V59.5078H59.1816ZM67.2139 59.5215H68.6289L65.7988 62.8164L68.8271 67H67.4531L64.9854 63.5547L64.0625 64.3271V67H62.8457V59.5215H64.0625V61.4561C64.0625 62.2126 64.0352 62.8483 63.9805 63.3633L67.2139 59.5215ZM76.5723 63.2471C76.5723 64.4684 76.2646 65.4232 75.6494 66.1113C75.0342 66.7949 74.1842 67.1367 73.0996 67.1367C72.4297 67.1367 71.835 66.9795 71.3154 66.665C70.7959 66.3506 70.3949 65.8994 70.1123 65.3115C69.8298 64.7236 69.6885 64.0355 69.6885 63.2471C69.6885 62.0257 69.9938 61.0755 70.6045 60.3965C71.2152 59.7129 72.0628 59.3711 73.1475 59.3711C74.1956 59.3711 75.0273 59.7197 75.6426 60.417C76.2624 61.1143 76.5723 62.0576 76.5723 63.2471ZM70.8643 63.2471C70.8643 64.2041 71.0557 64.9333 71.4385 65.4346C71.8213 65.9359 72.3841 66.1865 73.127 66.1865C73.8698 66.1865 74.4326 65.9382 74.8154 65.4414C75.2028 64.9401 75.3965 64.2087 75.3965 63.2471C75.3965 62.2946 75.2028 61.5723 74.8154 61.0801C74.4326 60.5833 73.8652 60.335 73.1133 60.335C72.3704 60.335 71.8099 60.5788 71.4316 61.0664C71.0534 61.554 70.8643 62.2809 70.8643 63.2471ZM72.6006 58.3184C72.7236 57.9902 72.8444 57.5687 72.9629 57.0537C73.0859 56.5342 73.1748 56.0876 73.2295 55.7139H74.4873V55.8711C74.4053 56.2083 74.2389 56.6481 73.9883 57.1904C73.7422 57.7282 73.5075 58.1702 73.2842 58.5166H72.6006V58.3184ZM77.2695 67L80.5029 59.624L80.1064 58.5166C79.9697 58.1292 79.8444 57.8558 79.7305 57.6963C79.6165 57.5368 79.4821 57.416 79.3271 57.334C79.1768 57.252 78.9899 57.2109 78.7666 57.2109C78.5023 57.2109 78.2402 57.2406 77.9805 57.2998V56.3906C78.2904 56.3132 78.5889 56.2744 78.876 56.2744C79.2907 56.2744 79.6348 56.3428 79.9082 56.4795C80.1862 56.6162 80.4255 56.8327 80.626 57.1289C80.8265 57.4251 81.0498 57.9196 81.2959 58.6123L83.7773 65.5303C83.8639 65.7536 83.9551 65.9245 84.0508 66.043C84.1465 66.1569 84.2741 66.2139 84.4336 66.2139C84.5566 66.2139 84.6934 66.1911 84.8438 66.1455V66.9727C84.625 67.082 84.3766 67.1367 84.0986 67.1367C83.7614 67.1367 83.4971 67.0501 83.3057 66.877C83.1188 66.7038 82.9593 66.4281 82.8271 66.0498L81.7607 63.0693C81.3779 61.9756 81.1364 61.21 81.0361 60.7725H80.9746C80.847 61.3011 80.5827 62.0417 80.1816 62.9941L78.4453 67H77.2695ZM84.748 67L87.9814 59.624L87.585 58.5166C87.4482 58.1292 87.3229 57.8558 87.209 57.6963C87.0951 57.5368 86.9606 57.416 86.8057 57.334C86.6553 57.252 86.4684 57.2109 86.2451 57.2109C85.9808 57.2109 85.7188 57.2406 85.459 57.2998V56.3906C85.7689 56.3132 86.0674 56.2744 86.3545 56.2744C86.7692 56.2744 87.1133 56.3428 87.3867 56.4795C87.6647 56.6162 87.904 56.8327 88.1045 57.1289C88.305 57.4251 88.5283 57.9196 88.7744 58.6123L91.2559 65.5303C91.3424 65.7536 91.4336 65.9245 91.5293 66.043C91.625 66.1569 91.7526 66.2139 91.9121 66.2139C92.0352 66.2139 92.1719 66.1911 92.3223 66.1455V66.9727C92.1035 67.082 91.8551 67.1367 91.5771 67.1367C91.2399 67.1367 90.9756 67.0501 90.7842 66.877C90.5973 66.7038 90.4378 66.4281 90.3057 66.0498L89.2393 63.0693C88.8564 61.9756 88.6149 61.21 88.5146 60.7725H88.4531C88.3255 61.3011 88.0612 62.0417 87.6602 62.9941L85.9238 67H84.748ZM98.6523 70.3633V62.1533C98.6523 61.5426 98.5133 61.0869 98.2354 60.7861C97.9574 60.4854 97.5221 60.335 96.9297 60.335C96.1458 60.335 95.5716 60.5469 95.207 60.9707C94.8424 61.3945 94.6602 62.0941 94.6602 63.0693V67H93.5254V59.5078H94.4482L94.6328 60.5332H94.6875C94.9199 60.1641 95.2458 59.8792 95.665 59.6787C96.0843 59.4736 96.5514 59.3711 97.0664 59.3711C97.9688 59.3711 98.6478 59.5898 99.1035 60.0273C99.5592 60.4603 99.7871 61.1553 99.7871 62.1123V70.3633H98.6523ZM108.578 63.5273C108.578 64.2428 108.437 64.8763 108.154 65.4277C107.876 65.9746 107.475 66.3962 106.951 66.6924C106.432 66.9886 105.821 67.1367 105.119 67.1367C104.048 67.1367 103.212 66.8086 102.61 66.1523C102.009 65.4961 101.708 64.5892 101.708 63.4316C101.708 60.8158 103.057 59.5078 105.755 59.5078H109.166V60.4785H107.361C108.173 61.2396 108.578 62.2559 108.578 63.5273ZM102.884 63.4316C102.884 64.3158 103.077 64.9971 103.465 65.4756C103.852 65.9495 104.413 66.1865 105.146 66.1865C105.871 66.1865 106.427 65.9632 106.814 65.5166C107.206 65.0654 107.402 64.4251 107.402 63.5957C107.402 62.3652 107.006 61.3262 106.213 60.4785H105.769C104.757 60.4785 104.023 60.7155 103.567 61.1895C103.112 61.6634 102.884 62.4108 102.884 63.4316ZM115.838 70.3633V62.1533C115.838 61.5426 115.699 61.0869 115.421 60.7861C115.143 60.4854 114.708 60.335 114.115 60.335C113.331 60.335 112.757 60.5469 112.393 60.9707C112.028 61.3945 111.846 62.0941 111.846 63.0693V67H110.711V59.5078H111.634L111.818 60.5332H111.873C112.105 60.1641 112.431 59.8792 112.851 59.6787C113.27 59.4736 113.737 59.3711 114.252 59.3711C115.154 59.3711 115.833 59.5898 116.289 60.0273C116.745 60.4603 116.973 61.1553 116.973 62.1123V70.3633H115.838ZM129.4 63.5273C129.4 64.2428 129.259 64.8763 128.977 65.4277C128.699 65.9746 128.298 66.3962 127.773 66.6924C127.254 66.9886 126.643 67.1367 125.941 67.1367C124.87 67.1367 124.034 66.8086 123.433 66.1523C122.831 65.4961 122.53 64.5892 122.53 63.4316C122.53 60.8158 123.879 59.5078 126.577 59.5078H129.988V60.4785H128.184C128.995 61.2396 129.4 62.2559 129.4 63.5273ZM123.706 63.4316C123.706 64.3158 123.9 64.9971 124.287 65.4756C124.674 65.9495 125.235 66.1865 125.969 66.1865C126.693 66.1865 127.249 65.9632 127.637 65.5166C128.029 65.0654 128.225 64.4251 128.225 63.5957C128.225 62.3652 127.828 61.3262 127.035 60.4785H126.591C125.579 60.4785 124.845 60.7155 124.39 61.1895C123.934 61.6634 123.706 62.4108 123.706 63.4316ZM136.585 59.5078V60.4785H133.632V64.7031C133.632 65.7194 134.099 66.2275 135.033 66.2275C135.247 66.2275 135.466 66.2139 135.689 66.1865C135.913 66.1546 136.086 66.1227 136.209 66.0908V66.9453C136.049 67.0137 135.842 67.0684 135.587 67.1094C135.336 67.1504 135.102 67.1709 134.883 67.1709C134.058 67.1709 133.452 66.9772 133.064 66.5898C132.677 66.2025 132.483 65.6214 132.483 64.8467V60.4785H130.453V59.9727L131.465 59.5078H136.585ZM144.631 63.2471C144.631 64.4684 144.323 65.4232 143.708 66.1113C143.093 66.7949 142.243 67.1367 141.158 67.1367C140.488 67.1367 139.894 66.9795 139.374 66.665C138.854 66.3506 138.453 65.8994 138.171 65.3115C137.888 64.7236 137.747 64.0355 137.747 63.2471C137.747 62.0257 138.052 61.0755 138.663 60.3965C139.274 59.7129 140.121 59.3711 141.206 59.3711C142.254 59.3711 143.086 59.7197 143.701 60.417C144.321 61.1143 144.631 62.0576 144.631 63.2471ZM138.923 63.2471C138.923 64.2041 139.114 64.9333 139.497 65.4346C139.88 65.9359 140.443 66.1865 141.186 66.1865C141.928 66.1865 142.491 65.9382 142.874 65.4414C143.261 64.9401 143.455 64.2087 143.455 63.2471C143.455 62.2946 143.261 61.5723 142.874 61.0801C142.491 60.5833 141.924 60.335 141.172 60.335C140.429 60.335 139.868 60.5788 139.49 61.0664C139.112 61.554 138.923 62.2809 138.923 63.2471ZM156.341 65.3457L149.771 62.4609V61.791L156.341 58.5166V59.5352L150.995 62.0713L156.341 64.3135V65.3457ZM161.762 59.3848C162.746 59.3848 163.509 59.722 164.052 60.3965C164.599 61.0664 164.872 62.0166 164.872 63.2471C164.872 64.4775 164.596 65.4346 164.045 66.1182C163.498 66.7972 162.737 67.1367 161.762 67.1367C161.274 67.1367 160.827 67.0479 160.422 66.8701C160.021 66.6878 159.684 66.4098 159.41 66.0361H159.328L159.089 67H158.275V56.3633H159.41V58.9473C159.41 59.526 159.392 60.0456 159.355 60.5059H159.41C159.939 59.7585 160.723 59.3848 161.762 59.3848ZM161.598 60.335C160.823 60.335 160.265 60.5583 159.923 61.0049C159.581 61.4469 159.41 62.1943 159.41 63.2471C159.41 64.2998 159.586 65.054 159.937 65.5098C160.287 65.9609 160.85 66.1865 161.625 66.1865C162.322 66.1865 162.842 65.9336 163.184 65.4277C163.525 64.9173 163.696 64.1859 163.696 63.2334C163.696 62.2581 163.525 61.5312 163.184 61.0527C162.842 60.5742 162.313 60.335 161.598 60.335ZM173.328 63.2471C173.328 64.4684 173.021 65.4232 172.405 66.1113C171.79 66.7949 170.94 67.1367 169.855 67.1367C169.186 67.1367 168.591 66.9795 168.071 66.665C167.552 66.3506 167.151 65.8994 166.868 65.3115C166.586 64.7236 166.444 64.0355 166.444 63.2471C166.444 62.0257 166.75 61.0755 167.36 60.3965C167.971 59.7129 168.819 59.3711 169.903 59.3711C170.951 59.3711 171.783 59.7197 172.398 60.417C173.018 61.1143 173.328 62.0576 173.328 63.2471ZM167.62 63.2471C167.62 64.2041 167.812 64.9333 168.194 65.4346C168.577 65.9359 169.14 66.1865 169.883 66.1865C170.626 66.1865 171.188 65.9382 171.571 65.4414C171.959 64.9401 172.152 64.2087 172.152 63.2471C172.152 62.2946 171.959 61.5723 171.571 61.0801C171.188 60.5833 170.621 60.335 169.869 60.335C169.126 60.335 168.566 60.5788 168.188 61.0664C167.809 61.554 167.62 62.2809 167.62 63.2471ZM180.424 65.9951H180.362C179.838 66.7562 179.054 67.1367 178.011 67.1367C177.031 67.1367 176.268 66.8018 175.721 66.1318C175.178 65.4619 174.907 64.5094 174.907 63.2744C174.907 62.0394 175.181 61.0801 175.728 60.3965C176.274 59.7129 177.035 59.3711 178.011 59.3711C179.027 59.3711 179.806 59.7402 180.349 60.4785H180.438L180.39 59.9385L180.362 59.4121V56.3633H181.497V67H180.574L180.424 65.9951ZM178.154 66.1865C178.929 66.1865 179.49 65.9769 179.836 65.5576C180.187 65.1338 180.362 64.4525 180.362 63.5137V63.2744C180.362 62.2126 180.185 61.4561 179.829 61.0049C179.478 60.5492 178.915 60.3213 178.141 60.3213C177.475 60.3213 176.965 60.5811 176.609 61.1006C176.258 61.6156 176.083 62.3447 176.083 63.2881C176.083 64.2451 176.258 64.9674 176.609 65.4551C176.96 65.9427 177.475 66.1865 178.154 66.1865ZM182.721 59.5078H183.938L185.578 63.7803C185.938 64.7555 186.161 65.4596 186.248 65.8926H186.303C186.362 65.6602 186.485 65.2637 186.672 64.7031C186.863 64.138 187.483 62.4062 188.531 59.5078H189.748L186.528 68.0391C186.209 68.8822 185.836 69.4792 185.407 69.8301C184.983 70.1855 184.462 70.3633 183.842 70.3633C183.495 70.3633 183.154 70.3245 182.816 70.2471V69.3379C183.067 69.3926 183.347 69.4199 183.657 69.4199C184.437 69.4199 184.993 68.9824 185.325 68.1074L185.742 67.041L182.721 59.5078ZM190.473 64.3135L195.825 62.085L190.473 59.5352V58.5166L197.042 61.791V62.4609L190.473 65.3457V64.3135ZM207.665 59.5078V60.4785H204.712V64.7031C204.712 65.7194 205.179 66.2275 206.113 66.2275C206.327 66.2275 206.546 66.2139 206.77 66.1865C206.993 66.1546 207.166 66.1227 207.289 66.0908V66.9453C207.13 67.0137 206.922 67.0684 206.667 67.1094C206.416 67.1504 206.182 67.1709 205.963 67.1709C205.138 67.1709 204.532 66.9772 204.145 66.5898C203.757 66.2025 203.563 65.6214 203.563 64.8467V60.4785H201.533V59.9727L202.545 59.5078H207.665ZM215.711 63.2471C215.711 64.4684 215.403 65.4232 214.788 66.1113C214.173 66.7949 213.323 67.1367 212.238 67.1367C211.568 67.1367 210.974 66.9795 210.454 66.665C209.935 66.3506 209.534 65.8994 209.251 65.3115C208.968 64.7236 208.827 64.0355 208.827 63.2471C208.827 62.0257 209.132 61.0755 209.743 60.3965C210.354 59.7129 211.201 59.3711 212.286 59.3711C213.334 59.3711 214.166 59.7197 214.781 60.417C215.401 61.1143 215.711 62.0576 215.711 63.2471ZM210.003 63.2471C210.003 64.2041 210.194 64.9333 210.577 65.4346C210.96 65.9359 211.523 66.1865 212.266 66.1865C213.008 66.1865 213.571 65.9382 213.954 65.4414C214.341 64.9401 214.535 64.2087 214.535 63.2471C214.535 62.2946 214.341 61.5723 213.954 61.0801C213.571 60.5833 213.004 60.335 212.252 60.335C211.509 60.335 210.949 60.5788 210.57 61.0664C210.192 61.554 210.003 62.2809 210.003 63.2471ZM220.79 67.1367C219.737 67.1367 218.947 66.8519 218.418 66.2822C217.889 65.7126 217.625 64.8216 217.625 63.6094V59.5078H218.76V63.5547C218.76 64.4297 218.94 65.0905 219.3 65.5371C219.66 65.9792 220.188 66.2002 220.886 66.2002C221.647 66.2002 222.21 65.929 222.574 65.3867C222.943 64.8444 223.128 64.0013 223.128 62.8574C223.128 62.265 223.096 61.7135 223.032 61.2031C222.968 60.6927 222.859 60.1276 222.704 59.5078H223.839C224.003 60.1641 224.117 60.736 224.181 61.2236C224.244 61.7113 224.276 62.2741 224.276 62.9121C224.276 64.3613 223.982 65.4277 223.395 66.1113C222.807 66.7949 221.938 67.1367 220.79 67.1367ZM46.3301 82V77.1533C46.3301 76.5426 46.1911 76.0869 45.9131 75.7861C45.6351 75.4854 45.1999 75.335 44.6074 75.335C43.819 75.335 43.2425 75.5492 42.8779 75.9775C42.5179 76.4059 42.3379 77.1077 42.3379 78.083V82H41.2031V71.3633H42.3379V74.583C42.3379 74.9704 42.3197 75.2917 42.2832 75.5469H42.3516C42.5749 75.1868 42.8916 74.9043 43.3018 74.6992C43.7165 74.4896 44.1882 74.3848 44.7168 74.3848C45.6328 74.3848 46.3187 74.6035 46.7744 75.041C47.2347 75.474 47.4648 76.1644 47.4648 77.1123V82H46.3301ZM52.2227 81.2002C52.4232 81.2002 52.6169 81.1865 52.8037 81.1592C52.9906 81.1273 53.1387 81.0954 53.248 81.0635V81.9316C53.125 81.9909 52.9427 82.0387 52.7012 82.0752C52.4642 82.1162 52.25 82.1367 52.0586 82.1367C50.6094 82.1367 49.8848 81.3734 49.8848 79.8467V75.3896H48.8115V74.8428L49.8848 74.3711L50.3633 72.7715H51.0195V74.5078H53.1934V75.3896H51.0195V79.7988C51.0195 80.25 51.1266 80.5964 51.3408 80.8379C51.555 81.0794 51.849 81.2002 52.2227 81.2002ZM64.3018 82V77.126C64.3018 76.529 64.1742 76.0824 63.9189 75.7861C63.6637 75.4854 63.2673 75.335 62.7295 75.335C62.0231 75.335 61.5013 75.5378 61.1641 75.9434C60.8268 76.349 60.6582 76.9733 60.6582 77.8164V82H59.5234V77.126C59.5234 76.529 59.3958 76.0824 59.1406 75.7861C58.8854 75.4854 58.4867 75.335 57.9443 75.335C57.2334 75.335 56.7116 75.5492 56.3789 75.9775C56.0508 76.4014 55.8867 77.0986 55.8867 78.0693V82H54.752V74.5078H55.6748L55.8594 75.5332H55.9141C56.1283 75.1686 56.429 74.8838 56.8164 74.6787C57.2083 74.4736 57.6458 74.3711 58.1289 74.3711C59.3001 74.3711 60.0658 74.7949 60.4258 75.6426H60.4805C60.7038 75.2507 61.0273 74.9408 61.4512 74.7129C61.875 74.485 62.3581 74.3711 62.9004 74.3711C63.748 74.3711 64.3815 74.5898 64.8008 75.0273C65.2246 75.4603 65.4365 76.1553 65.4365 77.1123V82H64.3018ZM68.916 82H67.7812V71.3633H68.916V82ZM79.3271 74.5215H80.7422L77.9121 77.8164L80.9404 82H79.5664L77.0986 78.5547L76.1758 79.3271V82H74.959V74.5215H76.1758V76.4561C76.1758 77.2126 76.1484 77.8483 76.0938 78.3633L79.3271 74.5215ZM84.4336 82.1367C83.6042 82.1367 82.957 81.7995 82.4922 81.125C82.0319 80.4505 81.8018 79.5345 81.8018 78.377C81.8018 77.666 81.8633 77.0189 81.9863 76.4355C82.1139 75.8477 82.3327 75.2051 82.6426 74.5078H83.8184C83.5085 75.2188 83.2874 75.8659 83.1553 76.4492C83.0277 77.028 82.9639 77.6751 82.9639 78.3906C82.9639 79.2702 83.1006 79.9561 83.374 80.4482C83.6475 80.9404 84.028 81.1865 84.5156 81.1865C84.944 81.1865 85.2767 81.0247 85.5137 80.7012C85.7552 80.373 85.876 79.9242 85.876 79.3545V77.2285H86.9766V79.3545C86.9766 79.9378 87.0973 80.389 87.3389 80.708C87.5804 81.027 87.9131 81.1865 88.3369 81.1865C88.8245 81.1865 89.2051 80.9404 89.4785 80.4482C89.752 79.9561 89.8887 79.2702 89.8887 78.3906C89.8887 77.7025 89.8249 77.0622 89.6973 76.4697C89.5742 75.8773 89.3555 75.2233 89.041 74.5078H90.2168C90.513 75.1732 90.7249 75.8066 90.8525 76.4082C90.9847 77.0052 91.0508 77.6615 91.0508 78.377C91.0508 79.5254 90.8184 80.4391 90.3535 81.1182C89.8932 81.7972 89.2484 82.1367 88.4189 82.1367C87.4163 82.1367 86.7601 81.722 86.4502 80.8926H86.3887C86.0924 81.722 85.4408 82.1367 84.4336 82.1367ZM85.8623 73.3184C85.9854 72.9902 86.1061 72.5687 86.2246 72.0537C86.3477 71.5342 86.4365 71.0876 86.4912 70.7139H87.749V70.8711C87.667 71.2083 87.5007 71.6481 87.25 72.1904C87.0039 72.7282 86.7692 73.1702 86.5459 73.5166H85.8623V73.3184ZM95.5693 75.6016C94.9313 75.2461 94.4801 74.8883 94.2158 74.5283C93.9515 74.1637 93.8193 73.7559 93.8193 73.3047C93.8193 72.7122 94.0404 72.2428 94.4824 71.8965C94.9245 71.5501 95.5192 71.377 96.2666 71.377C96.736 71.377 97.1849 71.4294 97.6133 71.5342C98.0462 71.6344 98.5498 71.8281 99.124 72.1152L98.6318 73.0381C98.1214 72.7555 97.6839 72.5641 97.3193 72.4639C96.9593 72.3636 96.5947 72.3135 96.2256 72.3135C95.8382 72.3135 95.5329 72.4046 95.3096 72.5869C95.0908 72.7646 94.9814 73.0039 94.9814 73.3047C94.9814 73.6283 95.1022 73.9176 95.3438 74.1729C95.5898 74.4235 96.0934 74.7562 96.8545 75.1709C97.8115 75.695 98.4906 76.2327 98.8916 76.7842C99.2972 77.3311 99.5 77.9782 99.5 78.7256C99.5 79.7965 99.1901 80.6328 98.5703 81.2344C97.9505 81.8359 97.1029 82.1367 96.0273 82.1367C94.9928 82.1367 94.1657 81.8542 93.5459 81.2891C92.9261 80.724 92.6162 79.9629 92.6162 79.0059C92.6162 78.1992 92.8737 77.4997 93.3887 76.9072C93.9036 76.3102 94.6305 75.875 95.5693 75.6016ZM98.3242 78.7256C98.3242 78.1423 98.1829 77.6432 97.9004 77.2285C97.6224 76.8092 97.1621 76.431 96.5195 76.0938C95.5807 76.3353 94.8926 76.7044 94.4551 77.2012C94.0221 77.6934 93.8057 78.304 93.8057 79.0332C93.8057 79.6895 94.0085 80.2135 94.4141 80.6055C94.8197 80.9928 95.3574 81.1865 96.0273 81.1865C96.7656 81.1865 97.333 80.9746 97.7295 80.5508C98.126 80.127 98.3242 79.5186 98.3242 78.7256ZM102.248 74.5078V79.7988C102.248 80.2728 102.33 80.626 102.494 80.8584C102.663 81.0863 102.945 81.2002 103.342 81.2002C103.51 81.2002 103.709 81.1865 103.937 81.1592C104.169 81.1273 104.347 81.0954 104.47 81.0635V81.9316C104.328 81.9909 104.137 82.0387 103.896 82.0752C103.659 82.1162 103.426 82.1367 103.198 82.1367C102.469 82.1367 101.938 81.9453 101.605 81.5625C101.277 81.1797 101.113 80.6032 101.113 79.833V74.5078H102.248ZM110.28 74.5215H111.695L108.865 77.8164L111.894 82H110.52L108.052 78.5547L107.129 79.3271V82H105.912V74.5215H107.129V76.4561C107.129 77.2126 107.102 77.8483 107.047 78.3633L110.28 74.5215ZM116.016 81.1865C116.786 81.1865 117.342 80.9655 117.684 80.5234C118.025 80.0768 118.196 79.3568 118.196 78.3633V78.2607C118.196 77.2171 118.023 76.4697 117.677 76.0186C117.33 75.5628 116.772 75.335 116.002 75.335C114.621 75.335 113.931 76.3193 113.931 78.2881C113.931 79.2542 114.097 79.9788 114.43 80.4619C114.767 80.945 115.296 81.1865 116.016 81.1865ZM115.845 82.1367C114.869 82.1367 114.111 81.7995 113.568 81.125C113.026 80.446 112.755 79.4958 112.755 78.2744C112.755 77.0257 113.033 76.0641 113.589 75.3896C114.145 74.7106 114.936 74.3711 115.961 74.3711C116.512 74.3711 116.97 74.4668 117.335 74.6582C117.704 74.8496 118.012 75.1367 118.258 75.5195H118.34C118.449 75.1003 118.597 74.763 118.784 74.5078H119.666C119.57 74.8086 119.491 75.2393 119.427 75.7998C119.363 76.3604 119.331 76.9049 119.331 77.4336V80.4346C119.331 80.9541 119.522 81.2139 119.905 81.2139C120.037 81.2139 120.179 81.1911 120.329 81.1455V81.959C120.119 82.0775 119.867 82.1367 119.57 82.1367C119.201 82.1367 118.914 82.0456 118.709 81.8633C118.508 81.6764 118.367 81.387 118.285 80.9951H118.196C117.927 81.387 117.602 81.6764 117.219 81.8633C116.84 82.0456 116.382 82.1367 115.845 82.1367ZM130.419 74.5078V75.4785H127.466V79.7031C127.466 80.7194 127.933 81.2275 128.867 81.2275C129.081 81.2275 129.3 81.2139 129.523 81.1865C129.747 81.1546 129.92 81.1227 130.043 81.0908V81.9453C129.883 82.0137 129.676 82.0684 129.421 82.1094C129.17 82.1504 128.936 82.1709 128.717 82.1709C127.892 82.1709 127.286 81.9772 126.898 81.5898C126.511 81.2025 126.317 80.6214 126.317 79.8467V75.4785H124.287V74.9727L125.299 74.5078H130.419ZM137.125 85.3633V77.1533C137.125 76.5426 136.986 76.0869 136.708 75.7861C136.43 75.4854 135.995 75.335 135.402 75.335C134.618 75.335 134.044 75.5469 133.68 75.9707C133.315 76.3945 133.133 77.0941 133.133 78.0693V82H131.998V74.5078H132.921L133.105 75.5332H133.16C133.393 75.1641 133.718 74.8792 134.138 74.6787C134.557 74.4736 135.024 74.3711 135.539 74.3711C136.441 74.3711 137.12 74.5898 137.576 75.0273C138.032 75.4603 138.26 76.1553 138.26 77.1123V85.3633H137.125ZM141.356 78.4316C141.356 79.0469 141.423 79.5049 141.555 79.8057C141.691 80.1064 141.922 80.348 142.245 80.5303C142.573 80.7126 143.102 80.8812 143.831 81.0361C144.506 81.182 144.991 81.3779 145.287 81.624C145.588 81.8656 145.738 82.1914 145.738 82.6016C145.738 82.9023 145.677 83.2259 145.554 83.5723C145.431 83.9186 145.216 84.3083 144.911 84.7412H143.845C144.091 84.4222 144.289 84.0941 144.439 83.7568C144.594 83.4196 144.672 83.137 144.672 82.9092C144.672 82.7269 144.613 82.5811 144.494 82.4717C144.38 82.3669 144.198 82.2712 143.947 82.1846C143.697 82.098 143.35 82.0137 142.908 81.9316C141.979 81.763 141.29 81.3893 140.844 80.8105C140.402 80.2318 140.181 79.4434 140.181 78.4453C140.181 77.1419 140.495 76.137 141.124 75.4307C141.753 74.7243 142.632 74.3711 143.763 74.3711C144.123 74.3711 144.483 74.4098 144.843 74.4873C145.203 74.5602 145.506 74.6514 145.752 74.7607L145.39 75.7246C144.797 75.4922 144.241 75.376 143.722 75.376C142.92 75.376 142.325 75.6243 141.938 76.1211C141.55 76.6178 141.356 77.388 141.356 78.4316ZM157.441 78.5273C157.441 79.2428 157.3 79.8763 157.018 80.4277C156.74 80.9746 156.339 81.3962 155.814 81.6924C155.295 81.9886 154.684 82.1367 153.982 82.1367C152.911 82.1367 152.075 81.8086 151.474 81.1523C150.872 80.4961 150.571 79.5892 150.571 78.4316C150.571 75.8158 151.92 74.5078 154.618 74.5078H158.029V75.4785H156.225C157.036 76.2396 157.441 77.2559 157.441 78.5273ZM151.747 78.4316C151.747 79.3158 151.941 79.9971 152.328 80.4756C152.715 80.9495 153.276 81.1865 154.01 81.1865C154.734 81.1865 155.29 80.9632 155.678 80.5166C156.07 80.0654 156.266 79.4251 156.266 78.5957C156.266 77.3652 155.869 76.3262 155.076 75.4785H154.632C153.62 75.4785 152.886 75.7155 152.431 76.1895C151.975 76.6634 151.747 77.4108 151.747 78.4316ZM163.259 77.6182V78.582H162.247C160.83 78.582 160.121 79.0264 160.121 79.915C160.121 80.3252 160.287 80.6419 160.62 80.8652C160.957 81.0885 161.459 81.2002 162.124 81.2002C162.507 81.2002 162.887 81.1569 163.266 81.0703C163.644 80.9792 164.061 80.8265 164.517 80.6123V81.624C163.892 81.9658 163.076 82.1367 162.069 82.1367C161.112 82.1367 160.358 81.9453 159.807 81.5625C159.26 81.1751 158.986 80.6442 158.986 79.9697C158.986 79.5231 159.112 79.1517 159.362 78.8555C159.613 78.5547 160.035 78.3109 160.627 78.124V78.0488C160.18 77.9212 159.834 77.7139 159.588 77.4268C159.346 77.1351 159.226 76.7796 159.226 76.3604C159.226 75.7542 159.481 75.2712 159.991 74.9111C160.502 74.5511 161.194 74.3711 162.069 74.3711C162.511 74.3711 162.919 74.4098 163.293 74.4873C163.671 74.5602 164.088 74.6992 164.544 74.9043L164.113 75.8135C163.685 75.6221 163.323 75.4945 163.026 75.4307C162.73 75.3669 162.402 75.335 162.042 75.335C160.903 75.335 160.333 75.7041 160.333 76.4424C160.333 77.2262 161.055 77.6182 162.5 77.6182H163.259ZM164.934 82L168.167 74.624L167.771 73.5166C167.634 73.1292 167.508 72.8558 167.395 72.6963C167.281 72.5368 167.146 72.416 166.991 72.334C166.841 72.252 166.654 72.2109 166.431 72.2109C166.166 72.2109 165.904 72.2406 165.645 72.2998V71.3906C165.954 71.3132 166.253 71.2744 166.54 71.2744C166.955 71.2744 167.299 71.3428 167.572 71.4795C167.85 71.6162 168.09 71.8327 168.29 72.1289C168.491 72.4251 168.714 72.9196 168.96 73.6123L171.441 80.5303C171.528 80.7536 171.619 80.9245 171.715 81.043C171.811 81.1569 171.938 81.2139 172.098 81.2139C172.221 81.2139 172.357 81.1911 172.508 81.1455V81.9727C172.289 82.082 172.041 82.1367 171.763 82.1367C171.425 82.1367 171.161 82.0501 170.97 81.877C170.783 81.7038 170.623 81.4281 170.491 81.0498L169.425 78.0693C169.042 76.9756 168.8 76.21 168.7 75.7725H168.639C168.511 76.3011 168.247 77.0417 167.846 77.9941L166.109 82H164.934ZM174.791 74.5078V79.7988C174.791 80.2728 174.873 80.626 175.037 80.8584C175.206 81.0863 175.488 81.2002 175.885 81.2002C176.053 81.2002 176.252 81.1865 176.479 81.1592C176.712 81.1273 176.89 81.0954 177.013 81.0635V81.9316C176.871 81.9909 176.68 82.0387 176.438 82.0752C176.201 82.1162 175.969 82.1367 175.741 82.1367C175.012 82.1367 174.481 81.9453 174.148 81.5625C173.82 81.1797 173.656 80.6032 173.656 79.833V74.5078H174.791ZM173.82 73.3184C173.943 72.9902 174.064 72.5687 174.183 72.0537C174.306 71.5342 174.395 71.0876 174.449 70.7139H175.707V70.8711C175.625 71.2083 175.459 71.6481 175.208 72.1904C174.962 72.7282 174.727 73.1702 174.504 73.5166H173.82V73.3184ZM180.978 75.6016C180.34 75.2461 179.888 74.8883 179.624 74.5283C179.36 74.1637 179.228 73.7559 179.228 73.3047C179.228 72.7122 179.449 72.2428 179.891 71.8965C180.333 71.5501 180.927 71.377 181.675 71.377C182.144 71.377 182.593 71.4294 183.021 71.5342C183.454 71.6344 183.958 71.8281 184.532 72.1152L184.04 73.0381C183.53 72.7555 183.092 72.5641 182.728 72.4639C182.368 72.3636 182.003 72.3135 181.634 72.3135C181.246 72.3135 180.941 72.4046 180.718 72.5869C180.499 72.7646 180.39 73.0039 180.39 73.3047C180.39 73.6283 180.51 73.9176 180.752 74.1729C180.998 74.4235 181.502 74.7562 182.263 75.1709C183.22 75.695 183.899 76.2327 184.3 76.7842C184.705 77.3311 184.908 77.9782 184.908 78.7256C184.908 79.7965 184.598 80.6328 183.979 81.2344C183.359 81.8359 182.511 82.1367 181.436 82.1367C180.401 82.1367 179.574 81.8542 178.954 81.2891C178.334 80.724 178.024 79.9629 178.024 79.0059C178.024 78.1992 178.282 77.4997 178.797 76.9072C179.312 76.3102 180.039 75.875 180.978 75.6016ZM183.732 78.7256C183.732 78.1423 183.591 77.6432 183.309 77.2285C183.031 76.8092 182.57 76.431 181.928 76.0938C180.989 76.3353 180.301 76.7044 179.863 77.2012C179.43 77.6934 179.214 78.304 179.214 79.0332C179.214 79.6895 179.417 80.2135 179.822 80.6055C180.228 80.9928 180.766 81.1865 181.436 81.1865C182.174 81.1865 182.741 80.9746 183.138 80.5508C183.534 80.127 183.732 79.5186 183.732 78.7256ZM189.42 81.1865C190.19 81.1865 190.746 80.9655 191.088 80.5234C191.43 80.0768 191.601 79.3568 191.601 78.3633V78.2607C191.601 77.2171 191.427 76.4697 191.081 76.0186C190.735 75.5628 190.176 75.335 189.406 75.335C188.025 75.335 187.335 76.3193 187.335 78.2881C187.335 79.2542 187.501 79.9788 187.834 80.4619C188.171 80.945 188.7 81.1865 189.42 81.1865ZM189.249 82.1367C188.274 82.1367 187.515 81.7995 186.973 81.125C186.43 80.446 186.159 79.4958 186.159 78.2744C186.159 77.0257 186.437 76.0641 186.993 75.3896C187.549 74.7106 188.34 74.3711 189.365 74.3711C189.917 74.3711 190.375 74.4668 190.739 74.6582C191.108 74.8496 191.416 75.1367 191.662 75.5195H191.744C191.854 75.1003 192.002 74.763 192.188 74.5078H193.07C192.975 74.8086 192.895 75.2393 192.831 75.7998C192.767 76.3604 192.735 76.9049 192.735 77.4336V80.4346C192.735 80.9541 192.927 81.2139 193.31 81.2139C193.442 81.2139 193.583 81.1911 193.733 81.1455V81.959C193.524 82.0775 193.271 82.1367 192.975 82.1367C192.605 82.1367 192.318 82.0456 192.113 81.8633C191.913 81.6764 191.771 81.387 191.689 80.9951H191.601C191.332 81.387 191.006 81.6764 190.623 81.8633C190.245 82.0456 189.787 82.1367 189.249 82.1367ZM195.894 78.4316C195.894 79.0469 195.96 79.5049 196.092 79.8057C196.229 80.1064 196.459 80.348 196.782 80.5303C197.11 80.7126 197.639 80.8812 198.368 81.0361C199.043 81.182 199.528 81.3779 199.824 81.624C200.125 81.8656 200.275 82.1914 200.275 82.6016C200.275 82.9023 200.214 83.2259 200.091 83.5723C199.968 83.9186 199.754 84.3083 199.448 84.7412H198.382C198.628 84.4222 198.826 84.0941 198.977 83.7568C199.132 83.4196 199.209 83.137 199.209 82.9092C199.209 82.7269 199.15 82.5811 199.031 82.4717C198.917 82.3669 198.735 82.2712 198.484 82.1846C198.234 82.098 197.887 82.0137 197.445 81.9316C196.516 81.763 195.827 81.3893 195.381 80.8105C194.939 80.2318 194.718 79.4434 194.718 78.4453C194.718 77.1419 195.032 76.137 195.661 75.4307C196.29 74.7243 197.17 74.3711 198.3 74.3711C198.66 74.3711 199.02 74.4098 199.38 74.4873C199.74 74.5602 200.043 74.6514 200.289 74.7607L199.927 75.7246C199.334 75.4922 198.778 75.376 198.259 75.376C197.457 75.376 196.862 75.6243 196.475 76.1211C196.087 76.6178 195.894 77.388 195.894 78.4316ZM211.979 78.5273C211.979 79.2428 211.837 79.8763 211.555 80.4277C211.277 80.9746 210.876 81.3962 210.352 81.6924C209.832 81.9886 209.221 82.1367 208.52 82.1367C207.449 82.1367 206.612 81.8086 206.011 81.1523C205.409 80.4961 205.108 79.5892 205.108 78.4316C205.108 75.8158 206.457 74.5078 209.155 74.5078H212.566V75.4785H210.762C211.573 76.2396 211.979 77.2559 211.979 78.5273ZM206.284 78.4316C206.284 79.3158 206.478 79.9971 206.865 80.4756C207.253 80.9495 207.813 81.1865 208.547 81.1865C209.271 81.1865 209.827 80.9632 210.215 80.5166C210.607 80.0654 210.803 79.4251 210.803 78.5957C210.803 77.3652 210.406 76.3262 209.613 75.4785H209.169C208.157 75.4785 207.424 75.7155 206.968 76.1895C206.512 76.6634 206.284 77.4108 206.284 78.4316ZM216.955 81.1865C217.725 81.1865 218.281 80.9655 218.623 80.5234C218.965 80.0768 219.136 79.3568 219.136 78.3633V78.2607C219.136 77.2171 218.963 76.4697 218.616 76.0186C218.27 75.5628 217.712 75.335 216.941 75.335C215.561 75.335 214.87 76.3193 214.87 78.2881C214.87 79.2542 215.036 79.9788 215.369 80.4619C215.706 80.945 216.235 81.1865 216.955 81.1865ZM216.784 82.1367C215.809 82.1367 215.05 81.7995 214.508 81.125C213.965 80.446 213.694 79.4958 213.694 78.2744C213.694 77.0257 213.972 76.0641 214.528 75.3896C215.084 74.7106 215.875 74.3711 216.9 74.3711C217.452 74.3711 217.91 74.4668 218.274 74.6582C218.644 74.8496 218.951 75.1367 219.197 75.5195H219.279C219.389 75.1003 219.537 74.763 219.724 74.5078H220.605C220.51 74.8086 220.43 75.2393 220.366 75.7998C220.302 76.3604 220.271 76.9049 220.271 77.4336V80.4346C220.271 80.9541 220.462 81.2139 220.845 81.2139C220.977 81.2139 221.118 81.1911 221.269 81.1455V81.959C221.059 82.0775 220.806 82.1367 220.51 82.1367C220.141 82.1367 219.854 82.0456 219.648 81.8633C219.448 81.6764 219.307 81.387 219.225 80.9951H219.136C218.867 81.387 218.541 81.6764 218.158 81.8633C217.78 82.0456 217.322 82.1367 216.784 82.1367ZM223.429 78.4316C223.429 79.0469 223.495 79.5049 223.627 79.8057C223.764 80.1064 223.994 80.348 224.317 80.5303C224.646 80.7126 225.174 80.8812 225.903 81.0361C226.578 81.182 227.063 81.3779 227.359 81.624C227.66 81.8656 227.811 82.1914 227.811 82.6016C227.811 82.9023 227.749 83.2259 227.626 83.5723C227.503 83.9186 227.289 84.3083 226.983 84.7412H225.917C226.163 84.4222 226.361 84.0941 226.512 83.7568C226.667 83.4196 226.744 83.137 226.744 82.9092C226.744 82.7269 226.685 82.5811 226.566 82.4717C226.452 82.3669 226.27 82.2712 226.02 82.1846C225.769 82.098 225.423 82.0137 224.98 81.9316C224.051 81.763 223.363 81.3893 222.916 80.8105C222.474 80.2318 222.253 79.4434 222.253 78.4453C222.253 77.1419 222.567 76.137 223.196 75.4307C223.825 74.7243 224.705 74.3711 225.835 74.3711C226.195 74.3711 226.555 74.4098 226.915 74.4873C227.275 74.5602 227.578 74.6514 227.824 74.7607L227.462 75.7246C226.869 75.4922 226.313 75.376 225.794 75.376C224.992 75.376 224.397 75.6243 224.01 76.1211C223.622 76.6178 223.429 77.388 223.429 78.4316Z" fill="black"/>
<circle cx="16" cy="69" r="16" fill="#F1F1F1"/>
<path d="M18.625 75H10.6406V73.3203L13.5078 70.4219C14.3568 69.5521 14.9115 68.9505 15.1719 68.6172C15.4323 68.2786 15.6198 67.9661 15.7344 67.6797C15.849 67.3932 15.9062 67.0964 15.9062 66.7891C15.9062 66.3307 15.7786 65.9896 15.5234 65.7656C15.2734 65.5417 14.9375 65.4297 14.5156 65.4297C14.0729 65.4297 13.6432 65.5312 13.2266 65.7344C12.8099 65.9375 12.375 66.2266 11.9219 66.6016L10.6094 65.0469C11.1719 64.5677 11.638 64.2292 12.0078 64.0312C12.3776 63.8333 12.7812 63.6823 13.2188 63.5781C13.6562 63.4688 14.1458 63.4141 14.6875 63.4141C15.401 63.4141 16.0312 63.5443 16.5781 63.8047C17.125 64.0651 17.5495 64.4297 17.8516 64.8984C18.1536 65.3672 18.3047 65.9036 18.3047 66.5078C18.3047 67.0339 18.2109 67.5286 18.0234 67.9922C17.8411 68.4505 17.5547 68.9219 17.1641 69.4062C16.7786 69.8906 16.0964 70.5807 15.1172 71.4766L13.6484 72.8594V72.9688H18.625V75Z" fill="#6C63FF"/>
<path d="M44.4502 117H43.2881V108.038H40.123V107.006H47.6152V108.038H44.4502V117ZM55.4219 113.247C55.4219 114.468 55.1143 115.423 54.499 116.111C53.8838 116.795 53.0339 117.137 51.9492 117.137C51.2793 117.137 50.6846 116.979 50.165 116.665C49.6455 116.351 49.2445 115.899 48.9619 115.312C48.6794 114.724 48.5381 114.035 48.5381 113.247C48.5381 112.026 48.8434 111.076 49.4541 110.396C50.0648 109.713 50.9124 109.371 51.9971 109.371C53.0452 109.371 53.877 109.72 54.4922 110.417C55.112 111.114 55.4219 112.058 55.4219 113.247ZM49.7139 113.247C49.7139 114.204 49.9053 114.933 50.2881 115.435C50.6709 115.936 51.2337 116.187 51.9766 116.187C52.7194 116.187 53.2822 115.938 53.665 115.441C54.0524 114.94 54.2461 114.209 54.2461 113.247C54.2461 112.295 54.0524 111.572 53.665 111.08C53.2822 110.583 52.7148 110.335 51.9629 110.335C51.2201 110.335 50.6595 110.579 50.2812 111.066C49.903 111.554 49.7139 112.281 49.7139 113.247ZM62.1895 117H61.0547V106.363H62.1895V117ZM65.7305 117H64.5957V109.508H65.7305V117ZM64.5 107.478C64.5 107.218 64.5638 107.029 64.6914 106.91C64.819 106.787 64.9785 106.726 65.1699 106.726C65.3522 106.726 65.5094 106.787 65.6416 106.91C65.7738 107.033 65.8398 107.222 65.8398 107.478C65.8398 107.733 65.7738 107.924 65.6416 108.052C65.5094 108.175 65.3522 108.236 65.1699 108.236C64.9785 108.236 64.819 108.175 64.6914 108.052C64.5638 107.924 64.5 107.733 64.5 107.478ZM69.7773 117L66.9336 109.508H68.1504L69.7637 113.951C70.1283 114.99 70.3424 115.665 70.4062 115.975H70.4609C70.5111 115.733 70.6683 115.234 70.9326 114.478C71.2015 113.716 71.8008 112.06 72.7305 109.508H73.9473L71.1035 117H69.7773ZM78.3154 117.137C77.208 117.137 76.333 116.799 75.6904 116.125C75.0524 115.451 74.7334 114.514 74.7334 113.315C74.7334 112.108 75.0296 111.148 75.6221 110.438C76.2191 109.727 77.0189 109.371 78.0215 109.371C78.9603 109.371 79.7031 109.681 80.25 110.301C80.7969 110.916 81.0703 111.729 81.0703 112.741V113.459H75.9092C75.932 114.339 76.153 115.006 76.5723 115.462C76.9961 115.918 77.5908 116.146 78.3564 116.146C79.1631 116.146 79.9606 115.977 80.749 115.64V116.651C80.348 116.825 79.9674 116.948 79.6074 117.021C79.252 117.098 78.8213 117.137 78.3154 117.137ZM78.0078 110.321C77.4062 110.321 76.9255 110.517 76.5654 110.909C76.21 111.301 76.0003 111.843 75.9365 112.536H79.8535C79.8535 111.821 79.694 111.274 79.375 110.896C79.056 110.513 78.6003 110.321 78.0078 110.321ZM91.748 115.995H91.6865C91.1624 116.756 90.3786 117.137 89.335 117.137C88.3551 117.137 87.5918 116.802 87.0449 116.132C86.5026 115.462 86.2314 114.509 86.2314 113.274C86.2314 112.039 86.5049 111.08 87.0518 110.396C87.5986 109.713 88.3597 109.371 89.335 109.371C90.3512 109.371 91.1305 109.74 91.6729 110.479H91.7617L91.7139 109.938L91.6865 109.412V106.363H92.8213V117H91.8984L91.748 115.995ZM89.4785 116.187C90.2533 116.187 90.8138 115.977 91.1602 115.558C91.5111 115.134 91.6865 114.452 91.6865 113.514V113.274C91.6865 112.213 91.5088 111.456 91.1533 111.005C90.8024 110.549 90.2396 110.321 89.4648 110.321C88.7995 110.321 88.2891 110.581 87.9336 111.101C87.5827 111.616 87.4072 112.345 87.4072 113.288C87.4072 114.245 87.5827 114.967 87.9336 115.455C88.2845 115.943 88.7995 116.187 89.4785 116.187ZM99.8418 117L99.6162 115.934H99.5615C99.1878 116.403 98.8141 116.722 98.4404 116.891C98.0713 117.055 97.6087 117.137 97.0527 117.137C96.3099 117.137 95.7266 116.945 95.3027 116.562C94.8835 116.18 94.6738 115.635 94.6738 114.929C94.6738 113.416 95.8838 112.623 98.3037 112.55L99.5752 112.509V112.044C99.5752 111.456 99.4476 111.023 99.1924 110.745C98.9417 110.463 98.5384 110.321 97.9824 110.321C97.3581 110.321 96.6517 110.513 95.8633 110.896L95.5146 110.027C95.8838 109.827 96.2871 109.67 96.7246 109.556C97.1667 109.442 97.6087 109.385 98.0508 109.385C98.944 109.385 99.6048 109.583 100.033 109.979C100.466 110.376 100.683 111.012 100.683 111.887V117H99.8418ZM97.2783 116.2C97.9847 116.2 98.5384 116.007 98.9395 115.619C99.3451 115.232 99.5479 114.689 99.5479 113.992V113.315L98.4131 113.363C97.5107 113.395 96.859 113.536 96.458 113.787C96.0615 114.033 95.8633 114.418 95.8633 114.942C95.8633 115.353 95.9863 115.665 96.2324 115.879C96.4831 116.093 96.8317 116.2 97.2783 116.2ZM105.447 116.2C105.648 116.2 105.841 116.187 106.028 116.159C106.215 116.127 106.363 116.095 106.473 116.063V116.932C106.35 116.991 106.167 117.039 105.926 117.075C105.689 117.116 105.475 117.137 105.283 117.137C103.834 117.137 103.109 116.373 103.109 114.847V110.39H102.036V109.843L103.109 109.371L103.588 107.771H104.244V109.508H106.418V110.39H104.244V114.799C104.244 115.25 104.351 115.596 104.565 115.838C104.78 116.079 105.074 116.2 105.447 116.2ZM112.584 117L112.358 115.934H112.304C111.93 116.403 111.556 116.722 111.183 116.891C110.813 117.055 110.351 117.137 109.795 117.137C109.052 117.137 108.469 116.945 108.045 116.562C107.626 116.18 107.416 115.635 107.416 114.929C107.416 113.416 108.626 112.623 111.046 112.55L112.317 112.509V112.044C112.317 111.456 112.19 111.023 111.935 110.745C111.684 110.463 111.281 110.321 110.725 110.321C110.1 110.321 109.394 110.513 108.605 110.896L108.257 110.027C108.626 109.827 109.029 109.67 109.467 109.556C109.909 109.442 110.351 109.385 110.793 109.385C111.686 109.385 112.347 109.583 112.775 109.979C113.208 110.376 113.425 111.012 113.425 111.887V117H112.584ZM110.021 116.2C110.727 116.2 111.281 116.007 111.682 115.619C112.087 115.232 112.29 114.689 112.29 113.992V113.315L111.155 113.363C110.253 113.395 109.601 113.536 109.2 113.787C108.804 114.033 108.605 114.418 108.605 114.942C108.605 115.353 108.729 115.665 108.975 115.879C109.225 116.093 109.574 116.2 110.021 116.2ZM122.4 117.137C121.316 117.137 120.475 116.804 119.878 116.139C119.285 115.469 118.989 114.523 118.989 113.302C118.989 112.049 119.29 111.08 119.892 110.396C120.498 109.713 121.359 109.371 122.476 109.371C122.836 109.371 123.196 109.41 123.556 109.487C123.916 109.565 124.198 109.656 124.403 109.761L124.055 110.725C123.804 110.624 123.531 110.542 123.234 110.479C122.938 110.41 122.676 110.376 122.448 110.376C120.926 110.376 120.165 111.347 120.165 113.288C120.165 114.209 120.35 114.915 120.719 115.407C121.092 115.899 121.644 116.146 122.373 116.146C122.997 116.146 123.638 116.011 124.294 115.742V116.747C123.793 117.007 123.161 117.137 122.4 117.137ZM130.686 117L130.46 115.934H130.405C130.032 116.403 129.658 116.722 129.284 116.891C128.915 117.055 128.452 117.137 127.896 117.137C127.154 117.137 126.57 116.945 126.146 116.562C125.727 116.18 125.518 115.635 125.518 114.929C125.518 113.416 126.728 112.623 129.147 112.55L130.419 112.509V112.044C130.419 111.456 130.291 111.023 130.036 110.745C129.785 110.463 129.382 110.321 128.826 110.321C128.202 110.321 127.495 110.513 126.707 110.896L126.358 110.027C126.728 109.827 127.131 109.67 127.568 109.556C128.01 109.442 128.452 109.385 128.895 109.385C129.788 109.385 130.449 109.583 130.877 109.979C131.31 110.376 131.526 111.012 131.526 111.887V117H130.686ZM128.122 116.2C128.828 116.2 129.382 116.007 129.783 115.619C130.189 115.232 130.392 114.689 130.392 113.992V113.315L129.257 113.363C128.354 113.395 127.703 113.536 127.302 113.787C126.905 114.033 126.707 114.418 126.707 114.942C126.707 115.353 126.83 115.665 127.076 115.879C127.327 116.093 127.675 116.2 128.122 116.2ZM137.289 109.371C137.622 109.371 137.92 109.398 138.185 109.453L138.027 110.506C137.717 110.438 137.444 110.403 137.207 110.403C136.601 110.403 136.081 110.649 135.648 111.142C135.22 111.634 135.006 112.247 135.006 112.98V117H133.871V109.508H134.808L134.938 110.896H134.992C135.27 110.408 135.605 110.032 135.997 109.768C136.389 109.503 136.82 109.371 137.289 109.371ZM144.686 115.995H144.624C144.1 116.756 143.316 117.137 142.272 117.137C141.293 117.137 140.529 116.802 139.982 116.132C139.44 115.462 139.169 114.509 139.169 113.274C139.169 112.039 139.442 111.08 139.989 110.396C140.536 109.713 141.297 109.371 142.272 109.371C143.289 109.371 144.068 109.74 144.61 110.479H144.699L144.651 109.938L144.624 109.412V106.363H145.759V117H144.836L144.686 115.995ZM142.416 116.187C143.191 116.187 143.751 115.977 144.098 115.558C144.449 115.134 144.624 114.452 144.624 113.514V113.274C144.624 112.213 144.446 111.456 144.091 111.005C143.74 110.549 143.177 110.321 142.402 110.321C141.737 110.321 141.227 110.581 140.871 111.101C140.52 111.616 140.345 112.345 140.345 113.288C140.345 114.245 140.52 114.967 140.871 115.455C141.222 115.943 141.737 116.187 142.416 116.187ZM158.111 111.668C158.111 113.518 157.833 114.892 157.277 115.79C156.721 116.688 155.874 117.137 154.734 117.137C153.641 117.137 152.809 116.679 152.239 115.763C151.674 114.842 151.392 113.477 151.392 111.668C151.392 109.813 151.67 108.439 152.226 107.546C152.786 106.653 153.622 106.206 154.734 106.206C155.846 106.206 156.687 106.669 157.257 107.594C157.826 108.514 158.111 109.872 158.111 111.668ZM154.734 116.187C155.482 116.187 156.033 115.84 156.389 115.147C156.744 114.45 156.936 113.402 156.963 112.003H152.54C152.558 113.388 152.738 114.432 153.08 115.134C153.422 115.836 153.973 116.187 154.734 116.187ZM154.734 107.156C154.001 107.156 153.463 107.484 153.121 108.141C152.779 108.792 152.586 109.758 152.54 111.039H156.949C156.899 109.758 156.701 108.792 156.354 108.141C156.008 107.484 155.468 107.156 154.734 107.156ZM162.938 116.187C163.708 116.187 164.264 115.965 164.605 115.523C164.947 115.077 165.118 114.357 165.118 113.363V113.261C165.118 112.217 164.945 111.47 164.599 111.019C164.252 110.563 163.694 110.335 162.924 110.335C161.543 110.335 160.853 111.319 160.853 113.288C160.853 114.254 161.019 114.979 161.352 115.462C161.689 115.945 162.217 116.187 162.938 116.187ZM162.767 117.137C161.791 117.137 161.033 116.799 160.49 116.125C159.948 115.446 159.677 114.496 159.677 113.274C159.677 112.026 159.955 111.064 160.511 110.39C161.067 109.711 161.857 109.371 162.883 109.371C163.434 109.371 163.892 109.467 164.257 109.658C164.626 109.85 164.934 110.137 165.18 110.52H165.262C165.371 110.1 165.519 109.763 165.706 109.508H166.588C166.492 109.809 166.412 110.239 166.349 110.8C166.285 111.36 166.253 111.905 166.253 112.434V115.435C166.253 115.954 166.444 116.214 166.827 116.214C166.959 116.214 167.101 116.191 167.251 116.146V116.959C167.041 117.077 166.788 117.137 166.492 117.137C166.123 117.137 165.836 117.046 165.631 116.863C165.43 116.676 165.289 116.387 165.207 115.995H165.118C164.849 116.387 164.523 116.676 164.141 116.863C163.762 117.046 163.304 117.137 162.767 117.137ZM44.8877 127.618V128.582H43.876C42.4587 128.582 41.75 129.026 41.75 129.915C41.75 130.325 41.9163 130.642 42.249 130.865C42.5863 131.089 43.0876 131.2 43.7529 131.2C44.1357 131.2 44.5163 131.157 44.8945 131.07C45.2728 130.979 45.6898 130.826 46.1455 130.612V131.624C45.5212 131.966 44.7054 132.137 43.6982 132.137C42.7412 132.137 41.987 131.945 41.4355 131.562C40.8887 131.175 40.6152 130.644 40.6152 129.97C40.6152 129.523 40.7406 129.152 40.9912 128.855C41.2419 128.555 41.6634 128.311 42.2559 128.124V128.049C41.8092 127.921 41.4629 127.714 41.2168 127.427C40.9753 127.135 40.8545 126.78 40.8545 126.36C40.8545 125.754 41.1097 125.271 41.6201 124.911C42.1305 124.551 42.8232 124.371 43.6982 124.371C44.1403 124.371 44.5482 124.41 44.9219 124.487C45.3001 124.56 45.7171 124.699 46.1729 124.904L45.7422 125.813C45.3138 125.622 44.9515 125.494 44.6553 125.431C44.359 125.367 44.0309 125.335 43.6709 125.335C42.5316 125.335 41.9619 125.704 41.9619 126.442C41.9619 127.226 42.6842 127.618 44.1289 127.618H44.8877ZM48.9961 129.396C48.9961 130.59 49.5749 131.187 50.7324 131.187C51.5117 131.187 52.0814 130.972 52.4414 130.544C52.806 130.111 52.9883 129.411 52.9883 128.445V124.508H54.123V132H53.1934L53.0156 130.995H52.9473C52.4414 131.756 51.6667 132.137 50.623 132.137C49.9395 132.137 49.3971 131.927 48.9961 131.508H48.9277C48.9733 131.891 48.9961 132.447 48.9961 133.176V135.363H47.8613V124.508H48.9961V129.396ZM59.7217 135.363V132.123C58.5368 132.073 57.639 131.717 57.0283 131.057C56.4176 130.391 56.1123 129.441 56.1123 128.206C56.1123 126.857 56.584 125.606 57.5273 124.453L58.4229 125.068C58.0173 125.602 57.721 126.123 57.5342 126.634C57.3519 127.144 57.2607 127.682 57.2607 128.247C57.2607 130.047 58.0811 131.027 59.7217 131.187V126.948C59.7217 126.096 59.9108 125.453 60.2891 125.021C60.6673 124.588 61.196 124.371 61.875 124.371C62.6953 124.371 63.3538 124.706 63.8506 125.376C64.3473 126.041 64.5957 126.944 64.5957 128.083C64.5957 128.894 64.4408 129.598 64.1309 130.195C63.821 130.788 63.3835 131.248 62.8184 131.576C62.2533 131.904 61.5947 132.087 60.8428 132.123V135.363H59.7217ZM63.4199 128.097C63.4199 127.254 63.2786 126.584 62.9961 126.087C62.7135 125.586 62.3398 125.335 61.875 125.335C61.5423 125.335 61.2871 125.472 61.1094 125.745C60.9316 126.019 60.8428 126.415 60.8428 126.935V131.187C61.6585 131.114 62.292 130.808 62.7432 130.271C63.1943 129.733 63.4199 129.008 63.4199 128.097ZM69.4219 131.187C70.1921 131.187 70.748 130.965 71.0898 130.523C71.4316 130.077 71.6025 129.357 71.6025 128.363V128.261C71.6025 127.217 71.4294 126.47 71.083 126.019C70.7367 125.563 70.1784 125.335 69.4082 125.335C68.0273 125.335 67.3369 126.319 67.3369 128.288C67.3369 129.254 67.5033 129.979 67.8359 130.462C68.1732 130.945 68.7018 131.187 69.4219 131.187ZM69.251 132.137C68.2757 132.137 67.5169 131.799 66.9746 131.125C66.4323 130.446 66.1611 129.496 66.1611 128.274C66.1611 127.026 66.4391 126.064 66.9951 125.39C67.5511 124.711 68.3418 124.371 69.3672 124.371C69.9186 124.371 70.3766 124.467 70.7412 124.658C71.1104 124.85 71.418 125.137 71.6641 125.52H71.7461C71.8555 125.1 72.0036 124.763 72.1904 124.508H73.0723C72.9766 124.809 72.8968 125.239 72.833 125.8C72.7692 126.36 72.7373 126.905 72.7373 127.434V130.435C72.7373 130.954 72.9287 131.214 73.3115 131.214C73.4437 131.214 73.585 131.191 73.7354 131.146V131.959C73.5257 132.077 73.2728 132.137 72.9766 132.137C72.6074 132.137 72.3203 132.046 72.1152 131.863C71.9147 131.676 71.7734 131.387 71.6914 130.995H71.6025C71.3337 131.387 71.0078 131.676 70.625 131.863C70.2467 132.046 69.7887 132.137 69.251 132.137ZM73.9336 124.508H75.1094L76.6064 128.541C76.7249 128.846 76.8776 129.27 77.0645 129.812C77.2559 130.355 77.388 130.767 77.4609 131.05H77.5156C78.3223 130.252 78.9056 129.348 79.2656 128.336C79.6302 127.32 79.8125 126.044 79.8125 124.508H80.9473C80.9473 126.162 80.7103 127.568 80.2363 128.726C79.7669 129.883 79.0195 130.975 77.9941 132H76.7227L73.9336 124.508ZM83.8047 124.508V129.799C83.8047 130.273 83.8867 130.626 84.0508 130.858C84.2194 131.086 84.502 131.2 84.8984 131.2C85.0671 131.2 85.2653 131.187 85.4932 131.159C85.7256 131.127 85.9033 131.095 86.0264 131.063V131.932C85.8851 131.991 85.6937 132.039 85.4521 132.075C85.2152 132.116 84.9827 132.137 84.7549 132.137C84.0257 132.137 83.4948 131.945 83.1621 131.562C82.834 131.18 82.6699 130.603 82.6699 129.833V124.508H83.8047ZM82.834 123.318C82.957 122.99 83.0778 122.569 83.1963 122.054C83.3193 121.534 83.4082 121.088 83.4629 120.714H84.7207V120.871C84.6387 121.208 84.4723 121.648 84.2217 122.19C83.9756 122.728 83.7409 123.17 83.5176 123.517H82.834V123.318ZM87.4688 122.327V121.363H92.6094V122.245C91.6296 123.065 90.8115 123.845 90.1553 124.583C89.499 125.317 89.0137 126.014 88.6992 126.675C88.3848 127.331 88.2275 128.037 88.2275 128.794C88.2275 129.241 88.2936 129.598 88.4258 129.867C88.5625 130.136 88.7721 130.355 89.0547 130.523C89.3418 130.688 89.8773 130.854 90.6611 131.022C91.3402 131.164 91.8346 131.36 92.1445 131.61C92.4544 131.856 92.6094 132.187 92.6094 132.602C92.6094 133.281 92.32 133.994 91.7412 134.741H90.6064C91.1761 134.007 91.4609 133.397 91.4609 132.909C91.4609 132.654 91.3333 132.456 91.0781 132.314C90.8275 132.178 90.3763 132.05 89.7246 131.932C88.7995 131.768 88.1227 131.437 87.6943 130.94C87.266 130.439 87.0518 129.746 87.0518 128.862C87.0518 128.343 87.1178 127.846 87.25 127.372C87.3867 126.898 87.5827 126.44 87.8379 125.998C88.0931 125.551 88.4486 125.068 88.9043 124.549C89.3646 124.025 90.1462 123.266 91.249 122.272C91.0667 122.309 90.3581 122.327 89.123 122.327H87.4688ZM97.9209 127.618V128.582H96.9092C95.4919 128.582 94.7832 129.026 94.7832 129.915C94.7832 130.325 94.9495 130.642 95.2822 130.865C95.6195 131.089 96.1208 131.2 96.7861 131.2C97.1689 131.2 97.5495 131.157 97.9277 131.07C98.306 130.979 98.723 130.826 99.1787 130.612V131.624C98.5544 131.966 97.7386 132.137 96.7314 132.137C95.7744 132.137 95.0202 131.945 94.4688 131.562C93.9219 131.175 93.6484 130.644 93.6484 129.97C93.6484 129.523 93.7738 129.152 94.0244 128.855C94.2751 128.555 94.6966 128.311 95.2891 128.124V128.049C94.8424 127.921 94.4961 127.714 94.25 127.427C94.0085 127.135 93.8877 126.78 93.8877 126.36C93.8877 125.754 94.1429 125.271 94.6533 124.911C95.1637 124.551 95.8564 124.371 96.7314 124.371C97.1735 124.371 97.5814 124.41 97.9551 124.487C98.3333 124.56 98.7503 124.699 99.2061 124.904L98.7754 125.813C98.347 125.622 97.9847 125.494 97.6885 125.431C97.3923 125.367 97.0641 125.335 96.7041 125.335C95.5648 125.335 94.9951 125.704 94.9951 126.442C94.9951 127.226 95.7174 127.618 97.1621 127.618H97.9209ZM105.946 124.508V125.479H102.993V129.703C102.993 130.719 103.46 131.228 104.395 131.228C104.609 131.228 104.827 131.214 105.051 131.187C105.274 131.155 105.447 131.123 105.57 131.091V131.945C105.411 132.014 105.203 132.068 104.948 132.109C104.698 132.15 104.463 132.171 104.244 132.171C103.419 132.171 102.813 131.977 102.426 131.59C102.038 131.202 101.845 130.621 101.845 129.847V125.479H99.8145V124.973L100.826 124.508H105.946ZM110.369 131.187C111.139 131.187 111.695 130.965 112.037 130.523C112.379 130.077 112.55 129.357 112.55 128.363V128.261C112.55 127.217 112.377 126.47 112.03 126.019C111.684 125.563 111.126 125.335 110.355 125.335C108.975 125.335 108.284 126.319 108.284 128.288C108.284 129.254 108.451 129.979 108.783 130.462C109.12 130.945 109.649 131.187 110.369 131.187ZM110.198 132.137C109.223 132.137 108.464 131.799 107.922 131.125C107.38 130.446 107.108 129.496 107.108 128.274C107.108 127.026 107.386 126.064 107.942 125.39C108.498 124.711 109.289 124.371 110.314 124.371C110.866 124.371 111.324 124.467 111.688 124.658C112.058 124.85 112.365 125.137 112.611 125.52H112.693C112.803 125.1 112.951 124.763 113.138 124.508H114.02C113.924 124.809 113.844 125.239 113.78 125.8C113.716 126.36 113.685 126.905 113.685 127.434V130.435C113.685 130.954 113.876 131.214 114.259 131.214C114.391 131.214 114.532 131.191 114.683 131.146V131.959C114.473 132.077 114.22 132.137 113.924 132.137C113.555 132.137 113.268 132.046 113.062 131.863C112.862 131.676 112.721 131.387 112.639 130.995H112.55C112.281 131.387 111.955 131.676 111.572 131.863C111.194 132.046 110.736 132.137 110.198 132.137ZM117.164 124.508V129.799C117.164 130.273 117.246 130.626 117.41 130.858C117.579 131.086 117.861 131.2 118.258 131.2C118.426 131.2 118.625 131.187 118.853 131.159C119.085 131.127 119.263 131.095 119.386 131.063V131.932C119.244 131.991 119.053 132.039 118.812 132.075C118.575 132.116 118.342 132.137 118.114 132.137C117.385 132.137 116.854 131.945 116.521 131.562C116.193 131.18 116.029 130.603 116.029 129.833V124.508H117.164ZM130.918 128.527C130.918 129.243 130.777 129.876 130.494 130.428C130.216 130.975 129.815 131.396 129.291 131.692C128.771 131.989 128.161 132.137 127.459 132.137C126.388 132.137 125.552 131.809 124.95 131.152C124.349 130.496 124.048 129.589 124.048 128.432C124.048 125.816 125.397 124.508 128.095 124.508H131.506V125.479H129.701C130.512 126.24 130.918 127.256 130.918 128.527ZM125.224 128.432C125.224 129.316 125.417 129.997 125.805 130.476C126.192 130.95 126.753 131.187 127.486 131.187C128.211 131.187 128.767 130.963 129.154 130.517C129.546 130.065 129.742 129.425 129.742 128.596C129.742 127.365 129.346 126.326 128.553 125.479H128.108C127.097 125.479 126.363 125.715 125.907 126.189C125.451 126.663 125.224 127.411 125.224 128.432ZM138.103 124.508V125.479H135.149V129.703C135.149 130.719 135.617 131.228 136.551 131.228C136.765 131.228 136.984 131.214 137.207 131.187C137.43 131.155 137.604 131.123 137.727 131.091V131.945C137.567 132.014 137.36 132.068 137.104 132.109C136.854 132.15 136.619 132.171 136.4 132.171C135.576 132.171 134.969 131.977 134.582 131.59C134.195 131.202 134.001 130.621 134.001 129.847V125.479H131.971V124.973L132.982 124.508H138.103ZM146.148 128.247C146.148 129.468 145.841 130.423 145.226 131.111C144.61 131.795 143.76 132.137 142.676 132.137C142.006 132.137 141.411 131.979 140.892 131.665C140.372 131.351 139.971 130.899 139.688 130.312C139.406 129.724 139.265 129.035 139.265 128.247C139.265 127.026 139.57 126.076 140.181 125.396C140.791 124.713 141.639 124.371 142.724 124.371C143.772 124.371 144.604 124.72 145.219 125.417C145.839 126.114 146.148 127.058 146.148 128.247ZM140.44 128.247C140.44 129.204 140.632 129.933 141.015 130.435C141.397 130.936 141.96 131.187 142.703 131.187C143.446 131.187 144.009 130.938 144.392 130.441C144.779 129.94 144.973 129.209 144.973 128.247C144.973 127.295 144.779 126.572 144.392 126.08C144.009 125.583 143.441 125.335 142.689 125.335C141.947 125.335 141.386 125.579 141.008 126.066C140.63 126.554 140.44 127.281 140.44 128.247ZM156.614 129.956C156.614 130.653 156.354 131.191 155.835 131.569C155.315 131.948 154.586 132.137 153.647 132.137C152.654 132.137 151.879 131.979 151.323 131.665V130.612C151.683 130.795 152.068 130.938 152.479 131.043C152.893 131.148 153.292 131.2 153.675 131.2C154.267 131.2 154.723 131.107 155.042 130.92C155.361 130.729 155.521 130.439 155.521 130.052C155.521 129.76 155.393 129.512 155.138 129.307C154.887 129.097 154.395 128.851 153.661 128.568C152.964 128.309 152.467 128.083 152.171 127.892C151.879 127.696 151.66 127.475 151.515 127.229C151.373 126.982 151.303 126.688 151.303 126.347C151.303 125.736 151.551 125.255 152.048 124.904C152.545 124.549 153.226 124.371 154.092 124.371C154.898 124.371 155.687 124.535 156.457 124.863L156.054 125.786C155.302 125.476 154.62 125.321 154.01 125.321C153.472 125.321 153.066 125.406 152.793 125.574C152.52 125.743 152.383 125.975 152.383 126.271C152.383 126.472 152.433 126.643 152.533 126.784C152.638 126.925 152.804 127.06 153.032 127.188C153.26 127.315 153.698 127.5 154.345 127.741C155.233 128.065 155.833 128.391 156.143 128.719C156.457 129.047 156.614 129.459 156.614 129.956ZM159.602 132H158.467V124.508H159.602V132ZM158.371 122.478C158.371 122.218 158.435 122.029 158.562 121.91C158.69 121.787 158.85 121.726 159.041 121.726C159.223 121.726 159.381 121.787 159.513 121.91C159.645 122.033 159.711 122.222 159.711 122.478C159.711 122.733 159.645 122.924 159.513 123.052C159.381 123.175 159.223 123.236 159.041 123.236C158.85 123.236 158.69 123.175 158.562 123.052C158.435 122.924 158.371 122.733 158.371 122.478ZM164.428 131.2C164.628 131.2 164.822 131.187 165.009 131.159C165.196 131.127 165.344 131.095 165.453 131.063V131.932C165.33 131.991 165.148 132.039 164.906 132.075C164.669 132.116 164.455 132.137 164.264 132.137C162.814 132.137 162.09 131.373 162.09 129.847V125.39H161.017V124.843L162.09 124.371L162.568 122.771H163.225V124.508H165.398V125.39H163.225V129.799C163.225 130.25 163.332 130.596 163.546 130.838C163.76 131.079 164.054 131.2 164.428 131.2ZM170.122 132.137C169.015 132.137 168.14 131.799 167.497 131.125C166.859 130.451 166.54 129.514 166.54 128.315C166.54 127.108 166.836 126.148 167.429 125.438C168.026 124.727 168.826 124.371 169.828 124.371C170.767 124.371 171.51 124.681 172.057 125.301C172.604 125.916 172.877 126.729 172.877 127.741V128.459H167.716C167.739 129.339 167.96 130.006 168.379 130.462C168.803 130.918 169.397 131.146 170.163 131.146C170.97 131.146 171.767 130.977 172.556 130.64V131.651C172.155 131.825 171.774 131.948 171.414 132.021C171.059 132.098 170.628 132.137 170.122 132.137ZM169.814 125.321C169.213 125.321 168.732 125.517 168.372 125.909C168.017 126.301 167.807 126.843 167.743 127.536H171.66C171.66 126.821 171.501 126.274 171.182 125.896C170.863 125.513 170.407 125.321 169.814 125.321ZM184.908 128.527C184.908 129.243 184.767 129.876 184.484 130.428C184.206 130.975 183.805 131.396 183.281 131.692C182.762 131.989 182.151 132.137 181.449 132.137C180.378 132.137 179.542 131.809 178.94 131.152C178.339 130.496 178.038 129.589 178.038 128.432C178.038 125.816 179.387 124.508 182.085 124.508H185.496V125.479H183.691C184.503 126.24 184.908 127.256 184.908 128.527ZM179.214 128.432C179.214 129.316 179.408 129.997 179.795 130.476C180.182 130.95 180.743 131.187 181.477 131.187C182.201 131.187 182.757 130.963 183.145 130.517C183.536 130.065 183.732 129.425 183.732 128.596C183.732 127.365 183.336 126.326 182.543 125.479H182.099C181.087 125.479 180.353 125.715 179.897 126.189C179.442 126.663 179.214 127.411 179.214 128.432ZM189.885 131.187C190.655 131.187 191.211 130.965 191.553 130.523C191.895 130.077 192.065 129.357 192.065 128.363V128.261C192.065 127.217 191.892 126.47 191.546 126.019C191.2 125.563 190.641 125.335 189.871 125.335C188.49 125.335 187.8 126.319 187.8 128.288C187.8 129.254 187.966 129.979 188.299 130.462C188.636 130.945 189.165 131.187 189.885 131.187ZM189.714 132.137C188.739 132.137 187.98 131.799 187.438 131.125C186.895 130.446 186.624 129.496 186.624 128.274C186.624 127.026 186.902 126.064 187.458 125.39C188.014 124.711 188.805 124.371 189.83 124.371C190.382 124.371 190.84 124.467 191.204 124.658C191.573 124.85 191.881 125.137 192.127 125.52H192.209C192.318 125.1 192.466 124.763 192.653 124.508H193.535C193.439 124.809 193.36 125.239 193.296 125.8C193.232 126.36 193.2 126.905 193.2 127.434V130.435C193.2 130.954 193.392 131.214 193.774 131.214C193.907 131.214 194.048 131.191 194.198 131.146V131.959C193.989 132.077 193.736 132.137 193.439 132.137C193.07 132.137 192.783 132.046 192.578 131.863C192.378 131.676 192.236 131.387 192.154 130.995H192.065C191.797 131.387 191.471 131.676 191.088 131.863C190.71 132.046 190.252 132.137 189.714 132.137ZM196.358 128.432C196.358 129.047 196.424 129.505 196.557 129.806C196.693 130.106 196.924 130.348 197.247 130.53C197.575 130.713 198.104 130.881 198.833 131.036C199.507 131.182 199.993 131.378 200.289 131.624C200.59 131.866 200.74 132.191 200.74 132.602C200.74 132.902 200.679 133.226 200.556 133.572C200.433 133.919 200.218 134.308 199.913 134.741H198.847C199.093 134.422 199.291 134.094 199.441 133.757C199.596 133.42 199.674 133.137 199.674 132.909C199.674 132.727 199.615 132.581 199.496 132.472C199.382 132.367 199.2 132.271 198.949 132.185C198.699 132.098 198.352 132.014 197.91 131.932C196.98 131.763 196.292 131.389 195.846 130.811C195.404 130.232 195.183 129.443 195.183 128.445C195.183 127.142 195.497 126.137 196.126 125.431C196.755 124.724 197.634 124.371 198.765 124.371C199.125 124.371 199.485 124.41 199.845 124.487C200.205 124.56 200.508 124.651 200.754 124.761L200.392 125.725C199.799 125.492 199.243 125.376 198.724 125.376C197.922 125.376 197.327 125.624 196.939 126.121C196.552 126.618 196.358 127.388 196.358 128.432Z" fill="black"/>
<circle cx="16" cy="119" r="16" fill="#F1F1F1"/>
<path d="M18.1797 116.133C18.1797 116.846 17.9635 117.453 17.5312 117.953C17.099 118.453 16.4922 118.797 15.7109 118.984V119.031C16.6328 119.146 17.3307 119.427 17.8047 119.875C18.2786 120.318 18.5156 120.917 18.5156 121.672C18.5156 122.771 18.1172 123.628 17.3203 124.242C16.5234 124.852 15.3854 125.156 13.9062 125.156C12.6667 125.156 11.5677 124.951 10.6094 124.539V122.484C11.0521 122.708 11.5391 122.891 12.0703 123.031C12.6016 123.172 13.1276 123.242 13.6484 123.242C14.4453 123.242 15.0339 123.107 15.4141 122.836C15.7943 122.565 15.9844 122.13 15.9844 121.531C15.9844 120.995 15.7656 120.615 15.3281 120.391C14.8906 120.167 14.1927 120.055 13.2344 120.055H12.3672V118.203H13.25C14.1354 118.203 14.7812 118.089 15.1875 117.859C15.599 117.625 15.8047 117.227 15.8047 116.664C15.8047 115.799 15.263 115.367 14.1797 115.367C13.8047 115.367 13.4219 115.43 13.0312 115.555C12.6458 115.68 12.2161 115.896 11.7422 116.203L10.625 114.539C11.6667 113.789 12.9089 113.414 14.3516 113.414C15.5339 113.414 16.4661 113.654 17.1484 114.133C17.8359 114.612 18.1797 115.279 18.1797 116.133Z" fill="#6C63FF"/>
</svg>
