<svg width="351" height="252" viewBox="0 0 351 252" fill="none" xmlns="http://www.w3.org/2000/svg">
<rect width="351" height="252" rx="5" fill="white"/>
<rect x="0.5" y="0.5" width="350" height="251" rx="4.5" stroke="black" stroke-opacity="0.24"/>
<path d="M87.7969 50L84.4062 41.1406H84.3516C84.4154 41.8424 84.4473 42.6764 84.4473 43.6426V50H83.374V40.0059H85.124L88.2891 48.25H88.3438L91.5361 40.0059H93.2725V50H92.1104V43.5605C92.1104 42.8223 92.1423 42.0202 92.2061 41.1543H92.1514L88.7334 50H87.7969ZM99.5342 45.6182V46.582H98.5225C97.1051 46.582 96.3965 47.0264 96.3965 47.915C96.3965 48.3252 96.5628 48.6419 96.8955 48.8652C97.2327 49.0885 97.734 49.2002 98.3994 49.2002C98.7822 49.2002 99.1628 49.1569 99.541 49.0703C99.9193 48.9792 100.336 48.8265 100.792 48.6123V49.624C100.168 49.9658 99.3519 50.1367 98.3447 50.1367C97.3877 50.1367 96.6335 49.9453 96.082 49.5625C95.5352 49.1751 95.2617 48.6442 95.2617 47.9697C95.2617 47.5231 95.387 47.1517 95.6377 46.8555C95.8883 46.5547 96.3099 46.3109 96.9023 46.124V46.0488C96.4557 45.9212 96.1094 45.7139 95.8633 45.4268C95.6217 45.1351 95.501 44.7796 95.501 44.3604C95.501 43.7542 95.7562 43.2712 96.2666 42.9111C96.777 42.5511 97.4697 42.3711 98.3447 42.3711C98.7868 42.3711 99.1947 42.4098 99.5684 42.4873C99.9466 42.5602 100.364 42.6992 100.819 42.9043L100.389 43.8135C99.9603 43.6221 99.598 43.4945 99.3018 43.4307C99.0055 43.3669 98.6774 43.335 98.3174 43.335C97.1781 43.335 96.6084 43.7041 96.6084 44.4424C96.6084 45.2262 97.3307 45.6182 98.7754 45.6182H99.5342ZM111.196 42.5078V43.4785H108.243V47.7031C108.243 48.7194 108.71 49.2275 109.645 49.2275C109.859 49.2275 110.077 49.2139 110.301 49.1865C110.524 49.1546 110.697 49.1227 110.82 49.0908V49.9453C110.661 50.0137 110.453 50.0684 110.198 50.1094C109.948 50.1504 109.713 50.1709 109.494 50.1709C108.669 50.1709 108.063 49.9772 107.676 49.5898C107.288 49.2025 107.095 48.6214 107.095 47.8467V43.4785H105.064V42.9727L106.076 42.5078H111.196ZM117.902 53.3633V45.1533C117.902 44.5426 117.763 44.0869 117.485 43.7861C117.207 43.4854 116.772 43.335 116.18 43.335C115.396 43.335 114.822 43.5469 114.457 43.9707C114.092 44.3945 113.91 45.0941 113.91 46.0693V50H112.775V42.5078H113.698L113.883 43.5332H113.938C114.17 43.1641 114.496 42.8792 114.915 42.6787C115.334 42.4736 115.801 42.3711 116.316 42.3711C117.219 42.3711 117.898 42.5898 118.354 43.0273C118.809 43.4603 119.037 44.1553 119.037 45.1123V53.3633H117.902ZM123.713 50L126.946 42.624L126.55 41.5166C126.413 41.1292 126.288 40.8558 126.174 40.6963C126.06 40.5368 125.925 40.416 125.771 40.334C125.62 40.252 125.433 40.2109 125.21 40.2109C124.946 40.2109 124.684 40.2406 124.424 40.2998V39.3906C124.734 39.3132 125.032 39.2744 125.319 39.2744C125.734 39.2744 126.078 39.3428 126.352 39.4795C126.63 39.6162 126.869 39.8327 127.069 40.1289C127.27 40.4251 127.493 40.9196 127.739 41.6123L130.221 48.5303C130.307 48.7536 130.398 48.9245 130.494 49.043C130.59 49.1569 130.717 49.2139 130.877 49.2139C131 49.2139 131.137 49.1911 131.287 49.1455V49.9727C131.068 50.082 130.82 50.1367 130.542 50.1367C130.205 50.1367 129.94 50.0501 129.749 49.877C129.562 49.7038 129.403 49.4281 129.271 49.0498L128.204 46.0693C127.821 44.9756 127.58 44.21 127.479 43.7725H127.418C127.29 44.3011 127.026 45.0417 126.625 45.9941L124.889 50H123.713ZM137.617 53.3633V45.1533C137.617 44.5426 137.478 44.0869 137.2 43.7861C136.922 43.4854 136.487 43.335 135.895 43.335C135.111 43.335 134.536 43.5469 134.172 43.9707C133.807 44.3945 133.625 45.0941 133.625 46.0693V50H132.49V42.5078H133.413L133.598 43.5332H133.652C133.885 43.1641 134.211 42.8792 134.63 42.6787C135.049 42.4736 135.516 42.3711 136.031 42.3711C136.934 42.3711 137.613 42.5898 138.068 43.0273C138.524 43.4603 138.752 44.1553 138.752 45.1123V53.3633H137.617ZM135.163 41.3184C135.286 40.9902 135.407 40.5687 135.525 40.0537C135.648 39.5342 135.737 39.0876 135.792 38.7139H137.05V38.8711C136.968 39.2083 136.801 39.6481 136.551 40.1904C136.305 40.7282 136.07 41.1702 135.847 41.5166H135.163V41.3184ZM145.752 39.377V49.1592C146.609 49.0908 147.267 48.7946 147.728 48.2705C148.192 47.7419 148.425 47.0127 148.425 46.083C148.425 45.5361 148.395 44.9961 148.336 44.4629C148.277 43.9251 148.163 43.2734 147.994 42.5078H149.129C149.416 43.7474 149.56 44.9232 149.56 46.0352C149.56 47.293 149.234 48.2705 148.582 48.9678C147.935 49.665 146.992 50.0501 145.752 50.123V53.3633H144.631V50.123C143.428 50.082 142.523 49.7311 141.917 49.0703C141.311 48.4095 141.008 47.4593 141.008 46.2197V42.5078H142.143V46.2607C142.143 47.1494 142.348 47.8421 142.758 48.3389C143.168 48.8356 143.792 49.1136 144.631 49.1729V39.377H145.752ZM156.758 53.3633V45.1533C156.758 44.5426 156.619 44.0869 156.341 43.7861C156.063 43.4854 155.628 43.335 155.035 43.335C154.251 43.335 153.677 43.5469 153.312 43.9707C152.948 44.3945 152.766 45.0941 152.766 46.0693V50H151.631V42.5078H152.554L152.738 43.5332H152.793C153.025 43.1641 153.351 42.8792 153.771 42.6787C154.19 42.4736 154.657 42.3711 155.172 42.3711C156.074 42.3711 156.753 42.5898 157.209 43.0273C157.665 43.4603 157.893 44.1553 157.893 45.1123V53.3633H156.758ZM168.919 42.5078V43.4785H165.966V47.7031C165.966 48.7194 166.433 49.2275 167.367 49.2275C167.581 49.2275 167.8 49.2139 168.023 49.1865C168.247 49.1546 168.42 49.1227 168.543 49.0908V49.9453C168.383 50.0137 168.176 50.0684 167.921 50.1094C167.67 50.1504 167.436 50.1709 167.217 50.1709C166.392 50.1709 165.786 49.9772 165.398 49.5898C165.011 49.2025 164.817 48.6214 164.817 47.8467V43.4785H162.787V42.9727L163.799 42.5078H168.919ZM172.713 50.1367C171.883 50.1367 171.236 49.7995 170.771 49.125C170.311 48.4505 170.081 47.5345 170.081 46.377C170.081 45.666 170.143 45.0189 170.266 44.4355C170.393 43.8477 170.612 43.2051 170.922 42.5078H172.098C171.788 43.2188 171.567 43.8659 171.435 44.4492C171.307 45.028 171.243 45.6751 171.243 46.3906C171.243 47.2702 171.38 47.9561 171.653 48.4482C171.927 48.9404 172.307 49.1865 172.795 49.1865C173.223 49.1865 173.556 49.0247 173.793 48.7012C174.035 48.373 174.155 47.9242 174.155 47.3545V45.2285H175.256V47.3545C175.256 47.9378 175.377 48.389 175.618 48.708C175.86 49.027 176.192 49.1865 176.616 49.1865C177.104 49.1865 177.484 48.9404 177.758 48.4482C178.031 47.9561 178.168 47.2702 178.168 46.3906C178.168 45.7025 178.104 45.0622 177.977 44.4697C177.854 43.8773 177.635 43.2233 177.32 42.5078H178.496C178.792 43.1732 179.004 43.8066 179.132 44.4082C179.264 45.0052 179.33 45.6615 179.33 46.377C179.33 47.5254 179.098 48.4391 178.633 49.1182C178.173 49.7972 177.528 50.1367 176.698 50.1367C175.696 50.1367 175.039 49.722 174.729 48.8926H174.668C174.372 49.722 173.72 50.1367 172.713 50.1367ZM180.123 42.5078H181.299L182.796 46.541C182.914 46.8464 183.067 47.2702 183.254 47.8125C183.445 48.3548 183.577 48.7673 183.65 49.0498H183.705C184.512 48.2523 185.095 47.3477 185.455 46.3359C185.82 45.3197 186.002 44.0436 186.002 42.5078H187.137C187.137 44.1621 186.9 45.568 186.426 46.7256C185.956 47.8831 185.209 48.9746 184.184 50H182.912L180.123 42.5078ZM195.395 49.1865C196.165 49.1865 196.721 48.9655 197.062 48.5234C197.404 48.0768 197.575 47.3568 197.575 46.3633V46.2607C197.575 45.2171 197.402 44.4697 197.056 44.0186C196.709 43.5628 196.151 43.335 195.381 43.335C194 43.335 193.31 44.3193 193.31 46.2881C193.31 47.2542 193.476 47.9788 193.809 48.4619C194.146 48.945 194.674 49.1865 195.395 49.1865ZM195.224 50.1367C194.248 50.1367 193.49 49.7995 192.947 49.125C192.405 48.446 192.134 47.4958 192.134 46.2744C192.134 45.0257 192.412 44.0641 192.968 43.3896C193.524 42.7106 194.314 42.3711 195.34 42.3711C195.891 42.3711 196.349 42.4668 196.714 42.6582C197.083 42.8496 197.391 43.1367 197.637 43.5195H197.719C197.828 43.1003 197.976 42.763 198.163 42.5078H199.045C198.949 42.8086 198.869 43.2393 198.806 43.7998C198.742 44.3604 198.71 44.9049 198.71 45.4336V48.4346C198.71 48.9541 198.901 49.2139 199.284 49.2139C199.416 49.2139 199.558 49.1911 199.708 49.1455V49.959C199.498 50.0775 199.245 50.1367 198.949 50.1367C198.58 50.1367 198.293 50.0456 198.088 49.8633C197.887 49.6764 197.746 49.387 197.664 48.9951H197.575C197.306 49.387 196.98 49.6764 196.598 49.8633C196.219 50.0456 195.761 50.1367 195.224 50.1367ZM207.761 49.2002C207.934 49.2002 208.13 49.1592 208.349 49.0771V49.9727C208.153 50.082 207.863 50.1367 207.48 50.1367C206.482 50.1367 205.983 49.5602 205.983 48.4072V43.4785H202.723V50H201.588V43.4785H200.077V42.9727L201.055 42.5078H208.574V43.4785H207.118V48.3184C207.118 48.6556 207.175 48.888 207.289 49.0156C207.408 49.1387 207.565 49.2002 207.761 49.2002ZM216.682 46.2471C216.682 47.4684 216.374 48.4232 215.759 49.1113C215.144 49.7949 214.294 50.1367 213.209 50.1367C212.539 50.1367 211.944 49.9795 211.425 49.665C210.905 49.3506 210.504 48.8994 210.222 48.3115C209.939 47.7236 209.798 47.0355 209.798 46.2471C209.798 45.0257 210.103 44.0755 210.714 43.3965C211.325 42.7129 212.172 42.3711 213.257 42.3711C214.305 42.3711 215.137 42.7197 215.752 43.417C216.372 44.1143 216.682 45.0576 216.682 46.2471ZM210.974 46.2471C210.974 47.2041 211.165 47.9333 211.548 48.4346C211.931 48.9359 212.493 49.1865 213.236 49.1865C213.979 49.1865 214.542 48.9382 214.925 48.4414C215.312 47.9401 215.506 47.2087 215.506 46.2471C215.506 45.2946 215.312 44.5723 214.925 44.0801C214.542 43.5833 213.975 43.335 213.223 43.335C212.48 43.335 211.919 43.5788 211.541 44.0664C211.163 44.554 210.974 45.2809 210.974 46.2471ZM223.729 42.5078V43.4785H220.776V47.7031C220.776 48.7194 221.243 49.2275 222.178 49.2275C222.392 49.2275 222.611 49.2139 222.834 49.1865C223.057 49.1546 223.23 49.1227 223.354 49.0908V49.9453C223.194 50.0137 222.987 50.0684 222.731 50.1094C222.481 50.1504 222.246 50.1709 222.027 50.1709C221.202 50.1709 220.596 49.9772 220.209 49.5898C219.822 49.2025 219.628 48.6214 219.628 47.8467V43.4785H217.598V42.9727L218.609 42.5078H223.729ZM228.993 45.6182V46.582H227.981C226.564 46.582 225.855 47.0264 225.855 47.915C225.855 48.3252 226.022 48.6419 226.354 48.8652C226.692 49.0885 227.193 49.2002 227.858 49.2002C228.241 49.2002 228.622 49.1569 229 49.0703C229.378 48.9792 229.795 48.8265 230.251 48.6123V49.624C229.627 49.9658 228.811 50.1367 227.804 50.1367C226.847 50.1367 226.092 49.9453 225.541 49.5625C224.994 49.1751 224.721 48.6442 224.721 47.9697C224.721 47.5231 224.846 47.1517 225.097 46.8555C225.347 46.5547 225.769 46.3109 226.361 46.124V46.0488C225.915 45.9212 225.568 45.7139 225.322 45.4268C225.081 45.1351 224.96 44.7796 224.96 44.3604C224.96 43.7542 225.215 43.2712 225.726 42.9111C226.236 42.5511 226.929 42.3711 227.804 42.3711C228.246 42.3711 228.654 42.4098 229.027 42.4873C229.406 42.5602 229.823 42.6992 230.278 42.9043L229.848 43.8135C229.419 43.6221 229.057 43.4945 228.761 43.4307C228.465 43.3669 228.136 43.335 227.776 43.335C226.637 43.335 226.067 43.7041 226.067 44.4424C226.067 45.2262 226.79 45.6182 228.234 45.6182H228.993ZM230.668 50L233.901 42.624L233.505 41.5166C233.368 41.1292 233.243 40.8558 233.129 40.6963C233.015 40.5368 232.881 40.416 232.726 40.334C232.575 40.252 232.388 40.2109 232.165 40.2109C231.901 40.2109 231.639 40.2406 231.379 40.2998V39.3906C231.689 39.3132 231.987 39.2744 232.274 39.2744C232.689 39.2744 233.033 39.3428 233.307 39.4795C233.585 39.6162 233.824 39.8327 234.024 40.1289C234.225 40.4251 234.448 40.9196 234.694 41.6123L237.176 48.5303C237.262 48.7536 237.354 48.9245 237.449 49.043C237.545 49.1569 237.673 49.2139 237.832 49.2139C237.955 49.2139 238.092 49.1911 238.242 49.1455V49.9727C238.023 50.082 237.775 50.1367 237.497 50.1367C237.16 50.1367 236.896 50.0501 236.704 49.877C236.517 49.7038 236.358 49.4281 236.226 49.0498L235.159 46.0693C234.776 44.9756 234.535 44.21 234.435 43.7725H234.373C234.245 44.3011 233.981 45.0417 233.58 45.9941L231.844 50H230.668ZM243.13 45.6182V46.582H242.118C240.701 46.582 239.992 47.0264 239.992 47.915C239.992 48.3252 240.159 48.6419 240.491 48.8652C240.828 49.0885 241.33 49.2002 241.995 49.2002C242.378 49.2002 242.758 49.1569 243.137 49.0703C243.515 48.9792 243.932 48.8265 244.388 48.6123V49.624C243.763 49.9658 242.948 50.1367 241.94 50.1367C240.983 50.1367 240.229 49.9453 239.678 49.5625C239.131 49.1751 238.857 48.6442 238.857 47.9697C238.857 47.5231 238.983 47.1517 239.233 46.8555C239.484 46.5547 239.906 46.3109 240.498 46.124V46.0488C240.051 45.9212 239.705 45.7139 239.459 45.4268C239.217 45.1351 239.097 44.7796 239.097 44.3604C239.097 43.7542 239.352 43.2712 239.862 42.9111C240.373 42.5511 241.065 42.3711 241.94 42.3711C242.382 42.3711 242.79 42.4098 243.164 42.4873C243.542 42.5602 243.959 42.6992 244.415 42.9043L243.984 43.8135C243.556 43.6221 243.194 43.4945 242.897 43.4307C242.601 43.3669 242.273 43.335 241.913 43.335C240.774 43.335 240.204 43.7041 240.204 44.4424C240.204 45.2262 240.926 45.6182 242.371 45.6182H243.13ZM252.557 46.5273C252.557 47.2428 252.415 47.8763 252.133 48.4277C251.855 48.9746 251.454 49.3962 250.93 49.6924C250.41 49.9886 249.799 50.1367 249.098 50.1367C248.027 50.1367 247.19 49.8086 246.589 49.1523C245.987 48.4961 245.687 47.5892 245.687 46.4316C245.687 43.8158 247.035 42.5078 249.733 42.5078H253.145V43.4785H251.34C252.151 44.2396 252.557 45.2559 252.557 46.5273ZM246.862 46.4316C246.862 47.3158 247.056 47.9971 247.443 48.4756C247.831 48.9495 248.391 49.1865 249.125 49.1865C249.85 49.1865 250.406 48.9632 250.793 48.5166C251.185 48.0654 251.381 47.4251 251.381 46.5957C251.381 45.3652 250.984 44.3262 250.191 43.4785H249.747C248.735 43.4785 248.002 43.7155 247.546 44.1895C247.09 44.6634 246.862 45.4108 246.862 46.4316ZM255.824 47.3955C255.824 48.5895 256.403 49.1865 257.561 49.1865C258.34 49.1865 258.91 48.9723 259.27 48.5439C259.634 48.111 259.816 47.4115 259.816 46.4453V42.5078H260.951V50H260.021L259.844 48.9951H259.775C259.27 49.7562 258.495 50.1367 257.451 50.1367C256.768 50.1367 256.225 49.9271 255.824 49.5078H255.756C255.801 49.8906 255.824 50.4466 255.824 51.1758V53.3633H254.689V42.5078H255.824V47.3955ZM266.201 49.1865C266.971 49.1865 267.527 48.9655 267.869 48.5234C268.211 48.0768 268.382 47.3568 268.382 46.3633V46.2607C268.382 45.2171 268.209 44.4697 267.862 44.0186C267.516 43.5628 266.958 43.335 266.188 43.335C264.807 43.335 264.116 44.3193 264.116 46.2881C264.116 47.2542 264.283 47.9788 264.615 48.4619C264.952 48.945 265.481 49.1865 266.201 49.1865ZM266.03 50.1367C265.055 50.1367 264.296 49.7995 263.754 49.125C263.212 48.446 262.94 47.4958 262.94 46.2744C262.94 45.0257 263.218 44.0641 263.774 43.3896C264.33 42.7106 265.121 42.3711 266.146 42.3711C266.698 42.3711 267.156 42.4668 267.521 42.6582C267.89 42.8496 268.197 43.1367 268.443 43.5195H268.525C268.635 43.1003 268.783 42.763 268.97 42.5078H269.852C269.756 42.8086 269.676 43.2393 269.612 43.7998C269.549 44.3604 269.517 44.9049 269.517 45.4336V48.4346C269.517 48.9541 269.708 49.2139 270.091 49.2139C270.223 49.2139 270.364 49.1911 270.515 49.1455V49.959C270.305 50.0775 270.052 50.1367 269.756 50.1367C269.387 50.1367 269.1 50.0456 268.895 49.8633C268.694 49.6764 268.553 49.387 268.471 48.9951H268.382C268.113 49.387 267.787 49.6764 267.404 49.8633C267.026 50.0456 266.568 50.1367 266.03 50.1367ZM265.825 41.3184C265.948 40.9902 266.069 40.5687 266.188 40.0537C266.311 39.5342 266.399 39.0876 266.454 38.7139H267.712V38.8711C267.63 39.2083 267.464 39.6481 267.213 40.1904C266.967 40.7282 266.732 41.1702 266.509 41.5166H265.825V41.3184ZM276.968 42.5078V43.4785H274.015V47.7031C274.015 48.7194 274.482 49.2275 275.416 49.2275C275.63 49.2275 275.849 49.2139 276.072 49.1865C276.296 49.1546 276.469 49.1227 276.592 49.0908V49.9453C276.432 50.0137 276.225 50.0684 275.97 50.1094C275.719 50.1504 275.484 50.1709 275.266 50.1709C274.441 50.1709 273.835 49.9772 273.447 49.5898C273.06 49.2025 272.866 48.6214 272.866 47.8467V43.4785H270.836V42.9727L271.848 42.5078H276.968ZM280.762 50.1367C279.932 50.1367 279.285 49.7995 278.82 49.125C278.36 48.4505 278.13 47.5345 278.13 46.377C278.13 45.666 278.191 45.0189 278.314 44.4355C278.442 43.8477 278.661 43.2051 278.971 42.5078H280.146C279.837 43.2188 279.616 43.8659 279.483 44.4492C279.356 45.028 279.292 45.6751 279.292 46.3906C279.292 47.2702 279.429 47.9561 279.702 48.4482C279.976 48.9404 280.356 49.1865 280.844 49.1865C281.272 49.1865 281.605 49.0247 281.842 48.7012C282.083 48.373 282.204 47.9242 282.204 47.3545V45.2285H283.305V47.3545C283.305 47.9378 283.425 48.389 283.667 48.708C283.909 49.027 284.241 49.1865 284.665 49.1865C285.153 49.1865 285.533 48.9404 285.807 48.4482C286.08 47.9561 286.217 47.2702 286.217 46.3906C286.217 45.7025 286.153 45.0622 286.025 44.4697C285.902 43.8773 285.684 43.2233 285.369 42.5078H286.545C286.841 43.1732 287.053 43.8066 287.181 44.4082C287.313 45.0052 287.379 45.6615 287.379 46.377C287.379 47.5254 287.146 48.4391 286.682 49.1182C286.221 49.7972 285.576 50.1367 284.747 50.1367C283.744 50.1367 283.088 49.722 282.778 48.8926H282.717C282.421 49.722 281.769 50.1367 280.762 50.1367ZM288.172 42.5078H289.348L290.845 46.541C290.963 46.8464 291.116 47.2702 291.303 47.8125C291.494 48.3548 291.626 48.7673 291.699 49.0498H291.754C292.561 48.2523 293.144 47.3477 293.504 46.3359C293.868 45.3197 294.051 44.0436 294.051 42.5078H295.186C295.186 44.1621 294.949 45.568 294.475 46.7256C294.005 47.8831 293.258 48.9746 292.232 50H290.961L288.172 42.5078ZM298.152 48.373L298.255 48.5303C298.136 48.986 297.965 49.5146 297.742 50.1162C297.519 50.7223 297.286 51.2852 297.045 51.8047H296.19C296.313 51.3307 296.448 50.7451 296.594 50.0479C296.744 49.3506 296.849 48.7923 296.908 48.373H298.152ZM84.7549 65.165C84.7549 65.9215 84.8779 66.4935 85.124 66.8809C85.3747 67.2682 85.7803 67.4619 86.3408 67.4619C86.8968 67.4619 87.2956 67.2705 87.5371 66.8877C87.7832 66.5003 87.9062 65.9261 87.9062 65.165C87.9062 64.4085 87.7832 63.8411 87.5371 63.4629C87.291 63.0846 86.8877 62.8955 86.3271 62.8955C85.7712 62.8955 85.3701 63.0846 85.124 63.4629C84.8779 63.8366 84.7549 64.404 84.7549 65.165ZM90.0391 65.165C90.0391 66.4092 89.7109 67.3822 89.0547 68.084C88.3984 68.7858 87.4847 69.1367 86.3135 69.1367C85.5798 69.1367 84.9326 68.9772 84.3721 68.6582C83.8115 68.3346 83.3809 67.8721 83.0801 67.2705C82.7793 66.6689 82.6289 65.9671 82.6289 65.165C82.6289 63.9163 82.9548 62.9456 83.6064 62.2529C84.2581 61.5602 85.1742 61.2139 86.3545 61.2139C87.0882 61.2139 87.7354 61.3734 88.2959 61.6924C88.8564 62.0114 89.2871 62.4694 89.5879 63.0664C89.8887 63.6634 90.0391 64.363 90.0391 65.165ZM98.7549 72.3633H96.5469C96.5469 71.9714 96.6107 71.4495 96.7383 70.7979C96.8659 70.1462 97.0299 69.5195 97.2305 68.918L94.3184 61.3574H96.4854L97.6064 64.7275C97.7021 65.0101 97.8252 65.4271 97.9756 65.9785C98.126 66.5299 98.2331 66.972 98.2969 67.3047H98.3379C98.3561 67.1042 98.429 66.7441 98.5566 66.2246C98.6888 65.7005 98.8255 65.2357 98.9668 64.8301L100.088 61.3574H102.255L99.4316 68.877C99.2266 69.4056 99.0625 69.9889 98.9395 70.627C98.8164 71.2695 98.7549 71.8483 98.7549 72.3633ZM105.44 61.3574V66.6074C105.44 66.9036 105.522 67.1224 105.687 67.2637C105.855 67.4049 106.076 67.4756 106.35 67.4756C106.719 67.4756 107.159 67.3958 107.669 67.2363V68.7881C107.172 69.0205 106.573 69.1367 105.871 69.1367C105.005 69.1367 104.369 68.9271 103.964 68.5078C103.558 68.084 103.355 67.4505 103.355 66.6074V61.3574H105.44ZM112.222 67.4756C112.759 67.4756 113.149 67.3138 113.391 66.9902C113.637 66.6621 113.769 66.0902 113.787 65.2744V65.1924C113.787 64.3721 113.66 63.7842 113.404 63.4287C113.154 63.0732 112.748 62.8955 112.188 62.8955C111.208 62.8955 110.718 63.6702 110.718 65.2197C110.718 65.9717 110.839 66.5368 111.08 66.915C111.326 67.2887 111.707 67.4756 112.222 67.4756ZM111.586 69.1367C110.652 69.1367 109.918 68.7904 109.385 68.0977C108.856 67.4049 108.592 66.4411 108.592 65.2061C108.592 63.9391 108.868 62.9593 109.419 62.2666C109.975 61.5739 110.75 61.2275 111.743 61.2275C112.281 61.2275 112.723 61.3232 113.069 61.5146C113.42 61.7061 113.71 61.9932 113.938 62.376H114.04C114.149 61.9476 114.302 61.6081 114.498 61.3574H116.221C116.075 61.7995 115.956 62.3076 115.865 62.8818C115.779 63.4515 115.735 63.9733 115.735 64.4473V66.5801C115.735 67.1178 115.927 67.3867 116.31 67.3867C116.455 67.3867 116.59 67.3639 116.713 67.3184V68.959C116.64 69.0046 116.499 69.0456 116.289 69.082C116.084 69.1185 115.913 69.1367 115.776 69.1367C115.266 69.1367 114.876 69.0501 114.607 68.877C114.339 68.6992 114.127 68.4053 113.972 67.9951H113.828C113.327 68.7562 112.579 69.1367 111.586 69.1367ZM121.313 62.9229V66.6074C121.313 66.9036 121.396 67.1224 121.56 67.2637C121.728 67.4049 121.949 67.4756 122.223 67.4756C122.587 67.4756 123.025 67.3958 123.535 67.2363V68.7881C123.048 69.0205 122.451 69.1367 121.744 69.1367C120.878 69.1367 120.243 68.9271 119.837 68.5078C119.431 68.084 119.229 67.4505 119.229 66.6074V62.9229H117.308V62.0547L118.511 61.3574H124.027V62.9229H121.313ZM132.586 65.1787C132.586 66.4229 132.306 67.3936 131.745 68.0908C131.189 68.7881 130.414 69.1367 129.421 69.1367C128.719 69.1367 128.079 68.9613 127.5 68.6104H127.377C127.45 69.3942 127.486 70.0049 127.486 70.4424V72.3633H125.388V65.165C125.388 63.9118 125.702 62.9411 126.331 62.2529C126.965 61.5602 127.862 61.2139 129.024 61.2139C129.731 61.2139 130.353 61.3757 130.891 61.6992C131.428 62.0182 131.845 62.4785 132.142 63.0801C132.438 63.6816 132.586 64.3812 132.586 65.1787ZM128.983 62.8955C128.468 62.8955 128.09 63.071 127.849 63.4219C127.607 63.7682 127.486 64.3174 127.486 65.0693V66.874C127.682 67.07 127.912 67.2181 128.177 67.3184C128.441 67.4141 128.71 67.4619 128.983 67.4619C129.503 67.4619 129.874 67.2842 130.098 66.9287C130.326 66.5687 130.439 65.9854 130.439 65.1787C130.439 64.3766 130.328 63.7956 130.104 63.4355C129.886 63.0755 129.512 62.8955 128.983 62.8955ZM135.97 65.165C135.97 65.9215 136.093 66.4935 136.339 66.8809C136.59 67.2682 136.995 67.4619 137.556 67.4619C138.112 67.4619 138.51 67.2705 138.752 66.8877C138.998 66.5003 139.121 65.9261 139.121 65.165C139.121 64.4085 138.998 63.8411 138.752 63.4629C138.506 63.0846 138.103 62.8955 137.542 62.8955C136.986 62.8955 136.585 63.0846 136.339 63.4629C136.093 63.8366 135.97 64.404 135.97 65.165ZM141.254 65.165C141.254 66.4092 140.926 67.3822 140.27 68.084C139.613 68.7858 138.7 69.1367 137.528 69.1367C136.795 69.1367 136.147 68.9772 135.587 68.6582C135.026 68.3346 134.596 67.8721 134.295 67.2705C133.994 66.6689 133.844 65.9671 133.844 65.165C133.844 63.9163 134.17 62.9456 134.821 62.2529C135.473 61.5602 136.389 61.2139 137.569 61.2139C138.303 61.2139 138.95 61.3734 139.511 61.6924C140.071 62.0114 140.502 62.4694 140.803 63.0664C141.104 63.6634 141.254 64.363 141.254 65.165ZM136.886 60.3047C136.968 60.0586 137.068 59.6849 137.187 59.1836C137.31 58.6823 137.396 58.2402 137.446 57.8574H139.381V58.0215C139.025 58.8691 138.599 59.7008 138.103 60.5166H136.886V60.3047ZM142.512 65.623C142.512 64.1283 142.817 63.0208 143.428 62.3008C144.043 61.5762 145.011 61.2139 146.333 61.2139C147.172 61.2139 147.985 61.3962 148.773 61.7607L148.172 63.3467C147.383 63.0459 146.752 62.8955 146.278 62.8955C145.704 62.8955 145.287 63.1188 145.027 63.5654C144.768 64.012 144.638 64.6797 144.638 65.5684C144.638 65.9056 144.695 66.1813 144.809 66.3955C144.923 66.6097 145.093 66.7829 145.321 66.915C145.549 67.0426 145.966 67.1725 146.572 67.3047C147.333 67.4642 147.892 67.6921 148.247 67.9883C148.607 68.2845 148.787 68.6742 148.787 69.1572C148.787 69.8499 148.473 70.6611 147.844 71.5908H145.745C146.42 70.6156 146.757 69.9069 146.757 69.4648C146.757 69.3008 146.663 69.1686 146.477 69.0684C146.29 68.9727 145.971 68.8792 145.52 68.7881C144.531 68.5967 143.781 68.2367 143.271 67.708C142.765 67.1748 142.512 66.4798 142.512 65.623ZM160.641 65.7529C160.641 66.4183 160.486 67.0107 160.176 67.5303C159.87 68.0452 159.431 68.4417 158.856 68.7197C158.287 68.9977 157.621 69.1367 156.86 69.1367C155.675 69.1367 154.755 68.7949 154.099 68.1113C153.447 67.4232 153.121 66.4775 153.121 65.2744C153.121 62.654 154.559 61.3438 157.435 61.3438H161.352V62.8682H159.41C160.23 63.734 160.641 64.6956 160.641 65.7529ZM155.268 65.2744C155.268 65.9854 155.402 66.5277 155.671 66.9014C155.944 67.2751 156.35 67.4619 156.888 67.4619C157.416 67.4619 157.817 67.2887 158.091 66.9424C158.364 66.5915 158.501 66.0879 158.501 65.4316C158.501 64.9258 158.433 64.4678 158.296 64.0576C158.164 63.6429 157.943 63.2464 157.633 62.8682H157.291C156.553 62.8682 156.031 63.055 155.726 63.4287C155.42 63.8024 155.268 64.4176 155.268 65.2744ZM165.897 67.4756C166.435 67.4756 166.825 67.3138 167.066 66.9902C167.312 66.6621 167.445 66.0902 167.463 65.2744V65.1924C167.463 64.3721 167.335 63.7842 167.08 63.4287C166.829 63.0732 166.424 62.8955 165.863 62.8955C164.883 62.8955 164.394 63.6702 164.394 65.2197C164.394 65.9717 164.514 66.5368 164.756 66.915C165.002 67.2887 165.382 67.4756 165.897 67.4756ZM165.262 69.1367C164.327 69.1367 163.594 68.7904 163.061 68.0977C162.532 67.4049 162.268 66.4411 162.268 65.2061C162.268 63.9391 162.543 62.9593 163.095 62.2666C163.651 61.5739 164.425 61.2275 165.419 61.2275C165.957 61.2275 166.399 61.3232 166.745 61.5146C167.096 61.7061 167.385 61.9932 167.613 62.376H167.716C167.825 61.9476 167.978 61.6081 168.174 61.3574H169.896C169.751 61.7995 169.632 62.3076 169.541 62.8818C169.454 63.4515 169.411 63.9733 169.411 64.4473V66.5801C169.411 67.1178 169.603 67.3867 169.985 67.3867C170.131 67.3867 170.266 67.3639 170.389 67.3184V68.959C170.316 69.0046 170.174 69.0456 169.965 69.082C169.76 69.1185 169.589 69.1367 169.452 69.1367C168.942 69.1367 168.552 69.0501 168.283 68.877C168.014 68.6992 167.802 68.4053 167.647 67.9951H167.504C167.003 68.7562 166.255 69.1367 165.262 69.1367ZM171.332 65.623C171.332 64.1283 171.637 63.0208 172.248 62.3008C172.863 61.5762 173.832 61.2139 175.153 61.2139C175.992 61.2139 176.805 61.3962 177.594 61.7607L176.992 63.3467C176.204 63.0459 175.573 62.8955 175.099 62.8955C174.524 62.8955 174.107 63.1188 173.848 63.5654C173.588 64.012 173.458 64.6797 173.458 65.5684C173.458 65.9056 173.515 66.1813 173.629 66.3955C173.743 66.6097 173.914 66.7829 174.142 66.915C174.369 67.0426 174.786 67.1725 175.393 67.3047C176.154 67.4642 176.712 67.6921 177.067 67.9883C177.427 68.2845 177.607 68.6742 177.607 69.1572C177.607 69.8499 177.293 70.6611 176.664 71.5908H174.565C175.24 70.6156 175.577 69.9069 175.577 69.4648C175.577 69.3008 175.484 69.1686 175.297 69.0684C175.11 68.9727 174.791 68.8792 174.34 68.7881C173.351 68.5967 172.601 68.2367 172.091 67.708C171.585 67.1748 171.332 66.4798 171.332 65.623ZM187.055 64.2969V65.7393H185.906C185.241 65.7393 184.74 65.8145 184.402 65.9648C184.07 66.1107 183.903 66.3477 183.903 66.6758C183.903 67.2454 184.514 67.5303 185.735 67.5303C186.205 67.5303 186.69 67.4801 187.191 67.3799C187.693 67.2751 188.146 67.1292 188.552 66.9424V68.6104C187.768 68.9613 186.779 69.1367 185.585 69.1367C184.373 69.1367 183.445 68.9499 182.803 68.5762C182.165 68.1979 181.846 67.6351 181.846 66.8877C181.846 66.4001 181.992 66.0036 182.283 65.6982C182.575 65.3929 183.049 65.1764 183.705 65.0488V64.9805C182.734 64.7572 182.249 64.1693 182.249 63.2168C182.249 62.5742 182.538 62.0798 183.117 61.7334C183.696 61.387 184.519 61.2139 185.585 61.2139C186.109 61.2139 186.635 61.2663 187.164 61.3711C187.697 61.4759 188.164 61.6149 188.565 61.7881L187.923 63.2988C187.381 63.0801 186.952 62.9365 186.638 62.8682C186.323 62.7952 185.991 62.7588 185.64 62.7588C185.125 62.7588 184.742 62.8158 184.491 62.9297C184.241 63.0436 184.115 63.2236 184.115 63.4697C184.115 63.7705 184.266 63.9847 184.566 64.1123C184.872 64.2354 185.35 64.2969 186.002 64.2969H187.055ZM189.133 61.3574H191.272L192.763 65.5957L193.234 67.1543H193.289C193.813 66.457 194.191 65.6572 194.424 64.7549C194.656 63.8525 194.772 62.7201 194.772 61.3574H196.878C196.878 62.5241 196.778 63.5312 196.577 64.3789C196.377 65.222 196.058 66.0218 195.62 66.7783C195.187 67.5303 194.606 68.2708 193.877 69H192.004L189.133 61.3574ZM205.58 72.3633H203.495V64.5361C203.495 63.9847 203.397 63.5723 203.201 63.2988C203.005 63.0208 202.693 62.8818 202.265 62.8818C201.681 62.8818 201.26 63.0778 201 63.4697C200.74 63.8571 200.61 64.502 200.61 65.4043V69H198.525V61.3574H200.118L200.398 62.335H200.515C200.747 61.9658 201.066 61.6878 201.472 61.501C201.882 61.3096 202.347 61.2139 202.866 61.2139C203.755 61.2139 204.429 61.4554 204.89 61.9385C205.35 62.417 205.58 63.1097 205.58 64.0166V72.3633ZM209.812 65.8213C209.812 66.3727 209.912 66.7874 210.112 67.0654C210.313 67.3389 210.627 67.4756 211.056 67.4756C211.63 67.4756 212.047 67.2796 212.307 66.8877C212.566 66.4912 212.696 65.8464 212.696 64.9531V61.3574H214.781V69H213.202L212.908 67.9746H212.806C212.614 68.362 212.382 68.6536 212.108 68.8496C211.835 69.041 211.498 69.1367 211.097 69.1367C210.814 69.1367 210.554 69.0843 210.317 68.9795C210.08 68.8747 209.889 68.722 209.743 68.5215L209.777 69.1025L209.812 70.1758V72.3633H207.727V61.3574H209.812V65.8213ZM221.617 64.2969V65.7393H220.469C219.803 65.7393 219.302 65.8145 218.965 65.9648C218.632 66.1107 218.466 66.3477 218.466 66.6758C218.466 67.2454 219.076 67.5303 220.298 67.5303C220.767 67.5303 221.253 67.4801 221.754 67.3799C222.255 67.2751 222.709 67.1292 223.114 66.9424V68.6104C222.33 68.9613 221.341 69.1367 220.147 69.1367C218.935 69.1367 218.008 68.9499 217.365 68.5762C216.727 68.1979 216.408 67.6351 216.408 66.8877C216.408 66.4001 216.554 66.0036 216.846 65.6982C217.137 65.3929 217.611 65.1764 218.268 65.0488V64.9805C217.297 64.7572 216.812 64.1693 216.812 63.2168C216.812 62.5742 217.101 62.0798 217.68 61.7334C218.258 61.387 219.081 61.2139 220.147 61.2139C220.672 61.2139 221.198 61.2663 221.727 61.3711C222.26 61.4759 222.727 61.6149 223.128 61.7881L222.485 63.2988C221.943 63.0801 221.515 62.9365 221.2 62.8682C220.886 62.7952 220.553 62.7588 220.202 62.7588C219.687 62.7588 219.304 62.8158 219.054 62.9297C218.803 63.0436 218.678 63.2236 218.678 63.4697C218.678 63.7705 218.828 63.9847 219.129 64.1123C219.434 64.2354 219.913 64.2969 220.564 64.2969H221.617ZM231.68 65.1787C231.68 66.4229 231.399 67.3936 230.839 68.0908C230.283 68.7881 229.508 69.1367 228.515 69.1367C227.813 69.1367 227.173 68.9613 226.594 68.6104H226.471C226.544 69.3942 226.58 70.0049 226.58 70.4424V72.3633H224.481V65.165C224.481 63.9118 224.796 62.9411 225.425 62.2529C226.058 61.5602 226.956 61.2139 228.118 61.2139C228.825 61.2139 229.447 61.3757 229.984 61.6992C230.522 62.0182 230.939 62.4785 231.235 63.0801C231.532 63.6816 231.68 64.3812 231.68 65.1787ZM228.077 62.8955C227.562 62.8955 227.184 63.071 226.942 63.4219C226.701 63.7682 226.58 64.3174 226.58 65.0693V66.874C226.776 67.07 227.006 67.2181 227.271 67.3184C227.535 67.4141 227.804 67.4619 228.077 67.4619C228.597 67.4619 228.968 67.2842 229.191 66.9287C229.419 66.5687 229.533 65.9854 229.533 65.1787C229.533 64.3766 229.422 63.7956 229.198 63.4355C228.979 63.0755 228.606 62.8955 228.077 62.8955ZM240.566 69.1367C240.01 69.1367 239.555 69.0182 239.199 68.7812C238.844 68.5397 238.573 68.1797 238.386 67.7012H238.317C238.108 68.2025 237.825 68.5671 237.47 68.7949C237.119 69.0228 236.672 69.1367 236.13 69.1367C235.155 69.1367 234.398 68.7926 233.86 68.1045C233.323 67.4163 233.054 66.4775 233.054 65.2881C233.054 64.5863 233.108 63.9391 233.218 63.3467C233.327 62.7542 233.528 62.0911 233.819 61.3574H235.822C235.253 62.5514 234.968 63.8389 234.968 65.2197C234.968 65.9671 235.079 66.5368 235.303 66.9287C235.531 67.3206 235.863 67.5166 236.301 67.5166C236.679 67.5166 236.955 67.3844 237.128 67.1201C237.301 66.8558 237.388 66.4183 237.388 65.8076V63.791H239.309V65.8076C239.309 66.4229 239.395 66.8626 239.568 67.127C239.742 67.3867 240.02 67.5166 240.402 67.5166C240.831 67.5166 241.159 67.3252 241.387 66.9424C241.615 66.555 241.729 65.9899 241.729 65.2471C241.729 63.848 241.444 62.5514 240.874 61.3574H242.877C243.169 62.0957 243.369 62.7588 243.479 63.3467C243.592 63.9346 243.649 64.5817 243.649 65.2881C243.649 66.4867 243.378 67.4277 242.836 68.1113C242.294 68.7949 241.537 69.1367 240.566 69.1367ZM237.641 60.3047C237.723 60.0586 237.823 59.6849 237.941 59.1836C238.064 58.6823 238.151 58.2402 238.201 57.8574H240.136V58.0215C239.78 58.8691 239.354 59.7008 238.857 60.5166H237.641V60.3047ZM244.436 61.3574H246.575L248.065 65.5957L248.537 67.1543H248.592C249.116 66.457 249.494 65.6572 249.727 64.7549C249.959 63.8525 250.075 62.7201 250.075 61.3574H252.181C252.181 62.5241 252.08 63.5312 251.88 64.3789C251.679 65.222 251.36 66.0218 250.923 66.7783C250.49 67.5303 249.909 68.2708 249.18 69H247.307L244.436 61.3574ZM258.477 64.2969V65.7393H257.328C256.663 65.7393 256.161 65.8145 255.824 65.9648C255.492 66.1107 255.325 66.3477 255.325 66.6758C255.325 67.2454 255.936 67.5303 257.157 67.5303C257.627 67.5303 258.112 67.4801 258.613 67.3799C259.115 67.2751 259.568 67.1292 259.974 66.9424V68.6104C259.19 68.9613 258.201 69.1367 257.007 69.1367C255.795 69.1367 254.867 68.9499 254.225 68.5762C253.587 68.1979 253.268 67.6351 253.268 66.8877C253.268 66.4001 253.413 66.0036 253.705 65.6982C253.997 65.3929 254.471 65.1764 255.127 65.0488V64.9805C254.156 64.7572 253.671 64.1693 253.671 63.2168C253.671 62.5742 253.96 62.0798 254.539 61.7334C255.118 61.387 255.94 61.2139 257.007 61.2139C257.531 61.2139 258.057 61.2663 258.586 61.3711C259.119 61.4759 259.586 61.6149 259.987 61.7881L259.345 63.2988C258.802 63.0801 258.374 62.9365 258.06 62.8682C257.745 62.7952 257.412 62.7588 257.062 62.7588C256.547 62.7588 256.164 62.8158 255.913 62.9297C255.662 63.0436 255.537 63.2236 255.537 63.4697C255.537 63.7705 255.688 63.9847 255.988 64.1123C256.294 64.2354 256.772 64.2969 257.424 64.2969H258.477ZM263.692 61.3574V66.6074C263.692 66.9036 263.774 67.1224 263.938 67.2637C264.107 67.4049 264.328 67.4756 264.602 67.4756C264.971 67.4756 265.41 67.3958 265.921 67.2363V68.7881C265.424 69.0205 264.825 69.1367 264.123 69.1367C263.257 69.1367 262.621 68.9271 262.216 68.5078C261.81 68.084 261.607 67.4505 261.607 66.6074V61.3574H263.692ZM274.302 72.3633H272.094C272.094 71.9714 272.158 71.4495 272.285 70.7979C272.413 70.1462 272.577 69.5195 272.777 68.918L269.865 61.3574H272.032L273.153 64.7275C273.249 65.0101 273.372 65.4271 273.522 65.9785C273.673 66.5299 273.78 66.972 273.844 67.3047H273.885C273.903 67.1042 273.976 66.7441 274.104 66.2246C274.236 65.7005 274.372 65.2357 274.514 64.8301L275.635 61.3574H277.802L274.979 68.877C274.773 69.4056 274.609 69.9889 274.486 70.627C274.363 71.2695 274.302 71.8483 274.302 72.3633ZM280.987 61.3574V66.6074C280.987 66.9036 281.069 67.1224 281.233 67.2637C281.402 67.4049 281.623 67.4756 281.896 67.4756C282.266 67.4756 282.705 67.3958 283.216 67.2363V68.7881C282.719 69.0205 282.12 69.1367 281.418 69.1367C280.552 69.1367 279.916 68.9271 279.511 68.5078C279.105 68.084 278.902 67.4505 278.902 66.6074V61.3574H280.987ZM287.769 67.4756C288.306 67.4756 288.696 67.3138 288.938 66.9902C289.184 66.6621 289.316 66.0902 289.334 65.2744V65.1924C289.334 64.3721 289.206 63.7842 288.951 63.4287C288.701 63.0732 288.295 62.8955 287.734 62.8955C286.755 62.8955 286.265 63.6702 286.265 65.2197C286.265 65.9717 286.385 66.5368 286.627 66.915C286.873 67.2887 287.254 67.4756 287.769 67.4756ZM287.133 69.1367C286.199 69.1367 285.465 68.7904 284.932 68.0977C284.403 67.4049 284.139 66.4411 284.139 65.2061C284.139 63.9391 284.414 62.9593 284.966 62.2666C285.522 61.5739 286.297 61.2275 287.29 61.2275C287.828 61.2275 288.27 61.3232 288.616 61.5146C288.967 61.7061 289.257 61.9932 289.484 62.376H289.587C289.696 61.9476 289.849 61.6081 290.045 61.3574H291.768C291.622 61.7995 291.503 62.3076 291.412 62.8818C291.326 63.4515 291.282 63.9733 291.282 64.4473V66.5801C291.282 67.1178 291.474 67.3867 291.856 67.3867C292.002 67.3867 292.137 67.3639 292.26 67.3184V68.959C292.187 69.0046 292.046 69.0456 291.836 69.082C291.631 69.1185 291.46 69.1367 291.323 69.1367C290.813 69.1367 290.423 69.0501 290.154 68.877C289.885 68.6992 289.674 68.4053 289.519 67.9951H289.375C288.874 68.7562 288.126 69.1367 287.133 69.1367ZM86.2861 81.9229V85.6074C86.2861 85.9036 86.3682 86.1224 86.5322 86.2637C86.7008 86.4049 86.9219 86.4756 87.1953 86.4756C87.5599 86.4756 87.9974 86.3958 88.5078 86.2363V87.7881C88.0202 88.0205 87.4232 88.1367 86.7168 88.1367C85.8509 88.1367 85.2152 87.9271 84.8096 87.5078C84.404 87.084 84.2012 86.4505 84.2012 85.6074V81.9229H82.2803V81.0547L83.4834 80.3574H89V81.9229H86.2861ZM93.792 86.4756C94.3298 86.4756 94.7194 86.3138 94.9609 85.9902C95.207 85.6621 95.3392 85.0902 95.3574 84.2744V84.1924C95.3574 83.3721 95.2298 82.7842 94.9746 82.4287C94.724 82.0732 94.3184 81.8955 93.7578 81.8955C92.778 81.8955 92.2881 82.6702 92.2881 84.2197C92.2881 84.9717 92.4089 85.5368 92.6504 85.915C92.8965 86.2887 93.277 86.4756 93.792 86.4756ZM93.1562 88.1367C92.222 88.1367 91.4883 87.7904 90.9551 87.0977C90.4264 86.4049 90.1621 85.4411 90.1621 84.2061C90.1621 82.9391 90.4378 81.9593 90.9893 81.2666C91.5452 80.5739 92.32 80.2275 93.3135 80.2275C93.8512 80.2275 94.2933 80.3232 94.6396 80.5146C94.9906 80.7061 95.2799 80.9932 95.5078 81.376H95.6104C95.7197 80.9476 95.8724 80.6081 96.0684 80.3574H97.791C97.6452 80.7995 97.5267 81.3076 97.4355 81.8818C97.349 82.4515 97.3057 82.9733 97.3057 83.4473V85.5801C97.3057 86.1178 97.4971 86.3867 97.8799 86.3867C98.0257 86.3867 98.1602 86.3639 98.2832 86.3184V87.959C98.2103 88.0046 98.069 88.0456 97.8594 88.082C97.6543 88.1185 97.4834 88.1367 97.3467 88.1367C96.8363 88.1367 96.4466 88.0501 96.1777 87.877C95.9089 87.6992 95.6969 87.4053 95.542 86.9951H95.3984C94.8971 87.7562 94.1497 88.1367 93.1562 88.1367ZM107.977 83.2969V84.7393H106.828C106.163 84.7393 105.661 84.8145 105.324 84.9648C104.992 85.1107 104.825 85.3477 104.825 85.6758C104.825 86.2454 105.436 86.5303 106.657 86.5303C107.127 86.5303 107.612 86.4801 108.113 86.3799C108.615 86.2751 109.068 86.1292 109.474 85.9424V87.6104C108.69 87.9613 107.701 88.1367 106.507 88.1367C105.295 88.1367 104.367 87.9499 103.725 87.5762C103.087 87.1979 102.768 86.6351 102.768 85.8877C102.768 85.4001 102.913 85.0036 103.205 84.6982C103.497 84.3929 103.971 84.1764 104.627 84.0488V83.9805C103.656 83.7572 103.171 83.1693 103.171 82.2168C103.171 81.5742 103.46 81.0798 104.039 80.7334C104.618 80.387 105.44 80.2139 106.507 80.2139C107.031 80.2139 107.557 80.2663 108.086 80.3711C108.619 80.4759 109.086 80.6149 109.487 80.7881L108.845 82.2988C108.302 82.0801 107.874 81.9365 107.56 81.8682C107.245 81.7952 106.912 81.7588 106.562 81.7588C106.047 81.7588 105.664 81.8158 105.413 81.9297C105.162 82.0436 105.037 82.2236 105.037 82.4697C105.037 82.7705 105.188 82.9847 105.488 83.1123C105.794 83.2354 106.272 83.2969 106.924 83.2969H107.977ZM118.9 86.5029C119.206 86.5029 119.502 86.4232 119.789 86.2637V87.7607C119.602 87.8747 119.363 87.9658 119.071 88.0342C118.784 88.1025 118.518 88.1367 118.271 88.1367C117.588 88.1367 117.066 87.9499 116.706 87.5762C116.351 87.2025 116.173 86.6442 116.173 85.9014V81.9502H113.862V88H111.777V81.9502H110.185V81.0547L111.401 80.3574H119.871V81.9502H118.258V85.8193C118.258 86.0518 118.319 86.2249 118.442 86.3389C118.565 86.4482 118.718 86.5029 118.9 86.5029ZM123.118 84.165C123.118 84.9215 123.241 85.4935 123.487 85.8809C123.738 86.2682 124.144 86.4619 124.704 86.4619C125.26 86.4619 125.659 86.2705 125.9 85.8877C126.146 85.5003 126.27 84.9261 126.27 84.165C126.27 83.4085 126.146 82.8411 125.9 82.4629C125.654 82.0846 125.251 81.8955 124.69 81.8955C124.134 81.8955 123.733 82.0846 123.487 82.4629C123.241 82.8366 123.118 83.404 123.118 84.165ZM128.402 84.165C128.402 85.4092 128.074 86.3822 127.418 87.084C126.762 87.7858 125.848 88.1367 124.677 88.1367C123.943 88.1367 123.296 87.9772 122.735 87.6582C122.175 87.3346 121.744 86.8721 121.443 86.2705C121.143 85.6689 120.992 84.9671 120.992 84.165C120.992 82.9163 121.318 81.9456 121.97 81.2529C122.621 80.5602 123.537 80.2139 124.718 80.2139C125.451 80.2139 126.099 80.3734 126.659 80.6924C127.22 81.0114 127.65 81.4694 127.951 82.0664C128.252 82.6634 128.402 83.363 128.402 84.165ZM124.034 79.3047C124.116 79.0586 124.216 78.6849 124.335 78.1836C124.458 77.6823 124.545 77.2402 124.595 76.8574H126.529V77.0215C126.174 77.8691 125.748 78.7008 125.251 79.5166H124.034V79.3047ZM132.21 84.8213C132.21 85.3727 132.31 85.7874 132.511 86.0654C132.711 86.3389 133.026 86.4756 133.454 86.4756C134.028 86.4756 134.445 86.2796 134.705 85.8877C134.965 85.4912 135.095 84.8464 135.095 83.9531V80.3574H137.18V88H135.601L135.307 86.9746H135.204C135.013 87.362 134.78 87.6536 134.507 87.8496C134.233 88.041 133.896 88.1367 133.495 88.1367C133.213 88.1367 132.953 88.0843 132.716 87.9795C132.479 87.8747 132.287 87.722 132.142 87.5215L132.176 88.1025L132.21 89.1758V91.3633H130.125V80.3574H132.21V84.8213ZM144.016 83.2969V84.7393H142.867C142.202 84.7393 141.701 84.8145 141.363 84.9648C141.031 85.1107 140.864 85.3477 140.864 85.6758C140.864 86.2454 141.475 86.5303 142.696 86.5303C143.166 86.5303 143.651 86.4801 144.152 86.3799C144.654 86.2751 145.107 86.1292 145.513 85.9424V87.6104C144.729 87.9613 143.74 88.1367 142.546 88.1367C141.334 88.1367 140.406 87.9499 139.764 87.5762C139.126 87.1979 138.807 86.6351 138.807 85.8877C138.807 85.4001 138.952 85.0036 139.244 84.6982C139.536 84.3929 140.01 84.1764 140.666 84.0488V83.9805C139.695 83.7572 139.21 83.1693 139.21 82.2168C139.21 81.5742 139.499 81.0798 140.078 80.7334C140.657 80.387 141.479 80.2139 142.546 80.2139C143.07 80.2139 143.596 80.2663 144.125 80.3711C144.658 80.4759 145.125 80.6149 145.526 80.7881L144.884 82.2988C144.341 82.0801 143.913 81.9365 143.599 81.8682C143.284 81.7952 142.951 81.7588 142.601 81.7588C142.086 81.7588 141.703 81.8158 141.452 81.9297C141.201 82.0436 141.076 82.2236 141.076 82.4697C141.076 82.7705 141.227 82.9847 141.527 83.1123C141.833 83.2354 142.311 83.2969 142.963 83.2969H144.016ZM146.094 80.3574H148.233L149.724 84.5957L150.195 86.1543H150.25C150.774 85.457 151.152 84.6572 151.385 83.7549C151.617 82.8525 151.733 81.7201 151.733 80.3574H153.839C153.839 81.5241 153.739 82.5312 153.538 83.3789C153.338 84.222 153.019 85.0218 152.581 85.7783C152.148 86.5303 151.567 87.2708 150.838 88H148.965L146.094 80.3574ZM158.651 86.4756C159.189 86.4756 159.579 86.3138 159.82 85.9902C160.066 85.6621 160.199 85.0902 160.217 84.2744V84.1924C160.217 83.3721 160.089 82.7842 159.834 82.4287C159.583 82.0732 159.178 81.8955 158.617 81.8955C157.637 81.8955 157.147 82.6702 157.147 84.2197C157.147 84.9717 157.268 85.5368 157.51 85.915C157.756 86.2887 158.136 86.4756 158.651 86.4756ZM158.016 88.1367C157.081 88.1367 156.348 87.7904 155.814 87.0977C155.286 86.4049 155.021 85.4411 155.021 84.2061C155.021 82.9391 155.297 81.9593 155.849 81.2666C156.405 80.5739 157.179 80.2275 158.173 80.2275C158.711 80.2275 159.153 80.3232 159.499 80.5146C159.85 80.7061 160.139 80.9932 160.367 81.376H160.47C160.579 80.9476 160.732 80.6081 160.928 80.3574H162.65C162.505 80.7995 162.386 81.3076 162.295 81.8818C162.208 82.4515 162.165 82.9733 162.165 83.4473V85.5801C162.165 86.1178 162.356 86.3867 162.739 86.3867C162.885 86.3867 163.02 86.3639 163.143 86.3184V87.959C163.07 88.0046 162.928 88.0456 162.719 88.082C162.514 88.1185 162.343 88.1367 162.206 88.1367C161.696 88.1367 161.306 88.0501 161.037 87.877C160.768 87.6992 160.556 87.4053 160.401 86.9951H160.258C159.757 87.7562 159.009 88.1367 158.016 88.1367ZM171.838 77.2881C172.909 77.2881 173.752 77.5251 174.367 77.999C174.987 78.473 175.297 79.1315 175.297 79.9746C175.297 80.6536 175.124 81.1914 174.777 81.5879C174.431 81.9798 173.937 82.2282 173.294 82.333V82.374C174.151 82.4834 174.789 82.7591 175.208 83.2012C175.632 83.6387 175.844 84.2539 175.844 85.0469C175.844 86.0039 175.545 86.7581 174.948 87.3096C174.356 87.861 173.54 88.1367 172.501 88.1367C171.59 88.1367 170.847 87.9932 170.272 87.7061V91.3633H168.188V80.5078C168.188 79.487 168.507 78.6963 169.145 78.1357C169.783 77.5706 170.68 77.2881 171.838 77.2881ZM171.783 78.915C170.776 78.915 170.272 79.512 170.272 80.7061V85.9971C170.491 86.1383 170.76 86.2546 171.079 86.3457C171.398 86.4323 171.694 86.4756 171.968 86.4756C172.551 86.4756 172.984 86.3343 173.267 86.0518C173.549 85.7692 173.69 85.3727 173.69 84.8623C173.69 84.361 173.538 83.9805 173.232 83.7207C172.932 83.4564 172.492 83.3242 171.913 83.3242H171.421V81.6699H171.783C172.234 81.6699 172.585 81.5469 172.836 81.3008C173.087 81.0501 173.212 80.6924 173.212 80.2275C173.212 79.8083 173.087 79.4847 172.836 79.2568C172.585 79.029 172.234 78.915 171.783 78.915ZM184.484 91.3633H182.399V83.5361C182.399 82.9847 182.301 82.5723 182.105 82.2988C181.91 82.0208 181.597 81.8818 181.169 81.8818C180.586 81.8818 180.164 82.0778 179.904 82.4697C179.645 82.8571 179.515 83.502 179.515 84.4043V88H177.43V80.3574H179.022L179.303 81.335H179.419C179.651 80.9658 179.97 80.6878 180.376 80.501C180.786 80.3096 181.251 80.2139 181.771 80.2139C182.659 80.2139 183.334 80.4554 183.794 80.9385C184.254 81.417 184.484 82.1097 184.484 83.0166V91.3633ZM180.369 79.3047C180.451 79.0586 180.551 78.6849 180.67 78.1836C180.793 77.6823 180.88 77.2402 180.93 76.8574H182.864V77.0215C182.509 77.8691 182.083 78.7008 181.586 79.5166H180.369V79.3047ZM188.716 84.8213C188.716 85.3727 188.816 85.7874 189.017 86.0654C189.217 86.3389 189.532 86.4756 189.96 86.4756C190.534 86.4756 190.951 86.2796 191.211 85.8877C191.471 85.4912 191.601 84.8464 191.601 83.9531V80.3574H193.686V88H192.106L191.812 86.9746H191.71C191.519 87.362 191.286 87.6536 191.013 87.8496C190.739 88.041 190.402 88.1367 190.001 88.1367C189.718 88.1367 189.459 88.0843 189.222 87.9795C188.985 87.8747 188.793 87.722 188.647 87.5215L188.682 88.1025L188.716 89.1758V91.3633H186.631V80.3574H188.716V84.8213ZM199.038 86.4756C199.576 86.4756 199.965 86.3138 200.207 85.9902C200.453 85.6621 200.585 85.0902 200.604 84.2744V84.1924C200.604 83.3721 200.476 82.7842 200.221 82.4287C199.97 82.0732 199.564 81.8955 199.004 81.8955C198.024 81.8955 197.534 82.6702 197.534 84.2197C197.534 84.9717 197.655 85.5368 197.896 85.915C198.143 86.2887 198.523 86.4756 199.038 86.4756ZM198.402 88.1367C197.468 88.1367 196.734 87.7904 196.201 87.0977C195.673 86.4049 195.408 85.4411 195.408 84.2061C195.408 82.9391 195.684 81.9593 196.235 81.2666C196.791 80.5739 197.566 80.2275 198.56 80.2275C199.097 80.2275 199.539 80.3232 199.886 80.5146C200.237 80.7061 200.526 80.9932 200.754 81.376H200.856C200.966 80.9476 201.118 80.6081 201.314 80.3574H203.037C202.891 80.7995 202.773 81.3076 202.682 81.8818C202.595 82.4515 202.552 82.9733 202.552 83.4473V85.5801C202.552 86.1178 202.743 86.3867 203.126 86.3867C203.272 86.3867 203.406 86.3639 203.529 86.3184V87.959C203.456 88.0046 203.315 88.0456 203.105 88.082C202.9 88.1185 202.729 88.1367 202.593 88.1367C202.082 88.1367 201.693 88.0501 201.424 87.877C201.155 87.6992 200.943 87.4053 200.788 86.9951H200.645C200.143 87.7562 199.396 88.1367 198.402 88.1367ZM208.13 81.9229V85.6074C208.13 85.9036 208.212 86.1224 208.376 86.2637C208.545 86.4049 208.766 86.4756 209.039 86.4756C209.404 86.4756 209.841 86.3958 210.352 86.2363V87.7881C209.864 88.0205 209.267 88.1367 208.561 88.1367C207.695 88.1367 207.059 87.9271 206.653 87.5078C206.248 87.084 206.045 86.4505 206.045 85.6074V81.9229H204.124V81.0547L205.327 80.3574H210.844V81.9229H208.13ZM215.636 86.4756C216.174 86.4756 216.563 86.3138 216.805 85.9902C217.051 85.6621 217.183 85.0902 217.201 84.2744V84.1924C217.201 83.3721 217.074 82.7842 216.818 82.4287C216.568 82.0732 216.162 81.8955 215.602 81.8955C214.622 81.8955 214.132 82.6702 214.132 84.2197C214.132 84.9717 214.253 85.5368 214.494 85.915C214.74 86.2887 215.121 86.4756 215.636 86.4756ZM215 88.1367C214.066 88.1367 213.332 87.7904 212.799 87.0977C212.27 86.4049 212.006 85.4411 212.006 84.2061C212.006 82.9391 212.282 81.9593 212.833 81.2666C213.389 80.5739 214.164 80.2275 215.157 80.2275C215.695 80.2275 216.137 80.3232 216.483 80.5146C216.834 80.7061 217.124 80.9932 217.352 81.376H217.454C217.563 80.9476 217.716 80.6081 217.912 80.3574H219.635C219.489 80.7995 219.37 81.3076 219.279 81.8818C219.193 82.4515 219.149 82.9733 219.149 83.4473V85.5801C219.149 86.1178 219.341 86.3867 219.724 86.3867C219.869 86.3867 220.004 86.3639 220.127 86.3184V87.959C220.054 88.0046 219.913 88.0456 219.703 88.082C219.498 88.1185 219.327 88.1367 219.19 88.1367C218.68 88.1367 218.29 88.0501 218.021 87.877C217.753 87.6992 217.541 87.4053 217.386 86.9951H217.242C216.741 87.7562 215.993 88.1367 215 88.1367ZM221.241 87.0225C221.241 86.6396 221.344 86.3503 221.549 86.1543C221.754 85.9583 222.052 85.8604 222.444 85.8604C222.823 85.8604 223.114 85.9606 223.319 86.1611C223.529 86.3617 223.634 86.6488 223.634 87.0225C223.634 87.3825 223.529 87.6673 223.319 87.877C223.11 88.082 222.818 88.1846 222.444 88.1846C222.062 88.1846 221.765 88.0843 221.556 87.8838C221.346 87.6787 221.241 87.3916 221.241 87.0225Z" fill="black"/>
<path d="M44.4663 51.6128H22.4219V88.1612H44.4663V51.6128Z" fill="#E3E1FF"/>
<path d="M37.496 61.1188L37.1997 60.9225L36.8824 61.3998L37.4519 61.4709L37.496 61.1188ZM45.021 49.8033L45.3172 49.9995L45.6837 49.4485H45.021V49.8033ZM34.6995 49.8033V49.4485H34.5051L34.4002 49.6119L34.6995 49.8033ZM24.1747 66.193L24.466 66.3965L24.4702 66.3905L24.4741 66.3844L24.1747 66.193ZM37.7922 61.315L45.3172 49.9995L44.7247 49.6071L37.1997 60.9225L37.7922 61.315ZM45.021 49.4485H34.6995V50.1582H45.021V49.4485ZM34.4002 49.6119L23.8754 66.0015L24.4741 66.3844L34.9989 49.9948L34.4002 49.6119ZM23.8835 65.9895C22.4165 68.081 21.582 70.6389 21.582 73.5505H22.2931C22.2931 70.7791 23.0857 68.3643 24.466 66.3965L23.8835 65.9895ZM21.582 73.5505C21.582 77.3186 22.951 80.548 25.3799 82.8345C27.8072 85.1194 31.2676 86.4386 35.4114 86.4386V85.729C31.42 85.729 28.1435 84.4604 25.8678 82.3183C23.5935 80.1772 22.2931 77.1401 22.2931 73.5505H21.582ZM35.4114 86.4386C39.5301 86.4386 42.9902 85.119 45.4235 82.8345C47.8583 80.549 49.2407 77.3193 49.2407 73.5505H48.5296C48.5296 77.1394 47.2172 80.1764 44.9362 82.3179C42.6537 84.4608 39.3768 85.729 35.4114 85.729V86.4386ZM49.2407 73.5505C49.2407 70.12 48.0935 67.1402 46.046 64.9069C43.9993 62.6745 41.0709 61.2071 37.5401 60.7667L37.4519 61.4709C40.8359 61.893 43.6021 63.2926 45.5213 65.386C47.4397 67.4784 48.5296 70.2832 48.5296 73.5505H49.2407ZM35.4114 77.4073C34.2577 77.4073 33.2558 77.0716 32.547 76.4386C31.844 75.8105 31.3943 74.8588 31.3943 73.5505H30.6832C30.6832 75.0331 31.1996 76.1874 32.0727 76.9673C32.9401 77.7423 34.1245 78.117 35.4114 78.117V77.4073ZM31.3943 73.5505C31.3943 72.2419 31.8444 71.2763 32.5493 70.6351C33.2592 69.9895 34.2608 69.6431 35.4114 69.6431V68.9334C34.1214 68.9334 32.9367 69.3227 32.0704 70.1106C31.1992 70.9028 30.6832 72.0684 30.6832 73.5505H31.3943ZM35.4114 69.6431C36.5619 69.6431 37.5635 69.9895 38.2734 70.6351C38.9784 71.2763 39.4284 72.2419 39.4284 73.5505H40.1395C40.1395 72.0684 39.6236 70.9028 38.7524 70.1106C37.8861 69.3227 36.7013 68.9334 35.4114 68.9334V69.6431ZM39.4284 73.5505C39.4284 74.8319 38.9797 75.785 38.2745 76.4205C37.5643 77.0606 36.562 77.4073 35.4114 77.4073V78.117C36.7013 78.117 37.8853 77.7277 38.7512 76.9471C39.6222 76.1622 40.1395 75.0093 40.1395 73.5505H39.4284Z" fill="black"/>
<path d="M40.6951 63.9575L48.2201 52.6421H37.8987L27.3739 69.0317C25.9502 71.0614 25.1367 73.5478 25.1367 76.3893C25.1367 83.7469 30.4754 88.9226 38.6105 88.9226C46.6948 88.9226 52.0843 83.7469 52.0843 76.3893C52.0843 69.6914 47.61 64.8202 40.6951 63.9575ZM38.6105 80.6009C36.17 80.6009 34.2379 79.1801 34.2379 76.3893C34.2379 73.5985 36.17 72.127 38.6105 72.127C41.051 72.127 42.9831 73.5985 42.9831 76.3893C42.9831 79.1294 41.051 80.6009 38.6105 80.6009Z" fill="black"/>
</svg>
