<svg width="351" height="252" viewBox="0 0 351 252" fill="none" xmlns="http://www.w3.org/2000/svg">
<rect width="351" height="252" rx="5" fill="white"/>
<rect x="0.5" y="0.5" width="350" height="251" rx="4.5" stroke="black" stroke-opacity="0.24"/>
<path d="M92.3291 46.9893C92.3291 48.6436 91.9189 49.915 91.0986 50.8037C90.2783 51.6924 89.1025 52.1367 87.5713 52.1367C86.04 52.1367 84.8643 51.6924 84.0439 50.8037C83.2236 49.915 82.8135 48.639 82.8135 46.9756C82.8135 45.3122 83.2236 44.043 84.0439 43.168C84.8688 42.2884 86.0492 41.8486 87.585 41.8486C89.1208 41.8486 90.2943 42.2907 91.1055 43.1748C91.9212 44.0589 92.3291 45.3304 92.3291 46.9893ZM85.0352 46.9893C85.0352 48.1058 85.2471 48.9466 85.6709 49.5117C86.0947 50.0768 86.7282 50.3594 87.5713 50.3594C89.262 50.3594 90.1074 49.236 90.1074 46.9893C90.1074 44.738 89.2666 43.6123 87.585 43.6123C86.7419 43.6123 86.1061 43.8971 85.6777 44.4668C85.2493 45.0319 85.0352 45.8727 85.0352 46.9893ZM101.229 55.3633H99.0215C99.0215 54.9714 99.0853 54.4495 99.2129 53.7979C99.3405 53.1462 99.5046 52.5195 99.7051 51.918L96.793 44.3574H98.96L100.081 47.7275C100.177 48.0101 100.3 48.4271 100.45 48.9785C100.601 49.5299 100.708 49.972 100.771 50.3047H100.812C100.831 50.1042 100.904 49.7441 101.031 49.2246C101.163 48.7005 101.3 48.2357 101.441 47.8301L102.562 44.3574H104.729L101.906 51.877C101.701 52.4056 101.537 52.9889 101.414 53.627C101.291 54.2695 101.229 54.8483 101.229 55.3633ZM107.915 44.3574V49.6074C107.915 49.9036 107.997 50.1224 108.161 50.2637C108.33 50.4049 108.551 50.4756 108.824 50.4756C109.193 50.4756 109.633 50.3958 110.144 50.2363V51.7881C109.647 52.0205 109.048 52.1367 108.346 52.1367C107.48 52.1367 106.844 51.9271 106.438 51.5078C106.033 51.084 105.83 50.4505 105.83 49.6074V44.3574H107.915ZM114.696 50.4756C115.234 50.4756 115.624 50.3138 115.865 49.9902C116.111 49.6621 116.243 49.0902 116.262 48.2744V48.1924C116.262 47.3721 116.134 46.7842 115.879 46.4287C115.628 46.0732 115.223 45.8955 114.662 45.8955C113.682 45.8955 113.192 46.6702 113.192 48.2197C113.192 48.9717 113.313 49.5368 113.555 49.915C113.801 50.2887 114.181 50.4756 114.696 50.4756ZM114.061 52.1367C113.126 52.1367 112.393 51.7904 111.859 51.0977C111.331 50.4049 111.066 49.4411 111.066 48.2061C111.066 46.9391 111.342 45.9593 111.894 45.2666C112.45 44.5739 113.224 44.2275 114.218 44.2275C114.756 44.2275 115.198 44.3232 115.544 44.5146C115.895 44.7061 116.184 44.9932 116.412 45.376H116.515C116.624 44.9476 116.777 44.6081 116.973 44.3574H118.695C118.549 44.7995 118.431 45.3076 118.34 45.8818C118.253 46.4515 118.21 46.9733 118.21 47.4473V49.5801C118.21 50.1178 118.401 50.3867 118.784 50.3867C118.93 50.3867 119.064 50.3639 119.188 50.3184V51.959C119.115 52.0046 118.973 52.0456 118.764 52.082C118.559 52.1185 118.388 52.1367 118.251 52.1367C117.741 52.1367 117.351 52.0501 117.082 51.877C116.813 51.6992 116.601 51.4053 116.446 50.9951H116.303C115.801 51.7562 115.054 52.1367 114.061 52.1367ZM123.788 45.9229V49.6074C123.788 49.9036 123.87 50.1224 124.034 50.2637C124.203 50.4049 124.424 50.4756 124.697 50.4756C125.062 50.4756 125.499 50.3958 126.01 50.2363V51.7881C125.522 52.0205 124.925 52.1367 124.219 52.1367C123.353 52.1367 122.717 51.9271 122.312 51.5078C121.906 51.084 121.703 50.4505 121.703 49.6074V45.9229H119.782V45.0547L120.985 44.3574H126.502V45.9229H123.788ZM135.061 48.1787C135.061 49.4229 134.78 50.3936 134.22 51.0908C133.664 51.7881 132.889 52.1367 131.896 52.1367C131.194 52.1367 130.553 51.9613 129.975 51.6104H129.852C129.924 52.3942 129.961 53.0049 129.961 53.4424V55.3633H127.862V48.165C127.862 46.9118 128.177 45.9411 128.806 45.2529C129.439 44.5602 130.337 44.2139 131.499 44.2139C132.205 44.2139 132.827 44.3757 133.365 44.6992C133.903 45.0182 134.32 45.4785 134.616 46.0801C134.912 46.6816 135.061 47.3812 135.061 48.1787ZM131.458 45.8955C130.943 45.8955 130.565 46.071 130.323 46.4219C130.082 46.7682 129.961 47.3174 129.961 48.0693V49.874C130.157 50.07 130.387 50.2181 130.651 50.3184C130.916 50.4141 131.185 50.4619 131.458 50.4619C131.978 50.4619 132.349 50.2842 132.572 49.9287C132.8 49.5687 132.914 48.9854 132.914 48.1787C132.914 47.3766 132.802 46.7956 132.579 46.4355C132.36 46.0755 131.987 45.8955 131.458 45.8955ZM138.444 48.165C138.444 48.9215 138.567 49.4935 138.813 49.8809C139.064 50.2682 139.47 50.4619 140.03 50.4619C140.586 50.4619 140.985 50.2705 141.227 49.8877C141.473 49.5003 141.596 48.9261 141.596 48.165C141.596 47.4085 141.473 46.8411 141.227 46.4629C140.98 46.0846 140.577 45.8955 140.017 45.8955C139.461 45.8955 139.06 46.0846 138.813 46.4629C138.567 46.8366 138.444 47.404 138.444 48.165ZM143.729 48.165C143.729 49.4092 143.4 50.3822 142.744 51.084C142.088 51.7858 141.174 52.1367 140.003 52.1367C139.269 52.1367 138.622 51.9772 138.062 51.6582C137.501 51.3346 137.07 50.8721 136.77 50.2705C136.469 49.6689 136.318 48.9671 136.318 48.165C136.318 46.9163 136.644 45.9456 137.296 45.2529C137.948 44.5602 138.864 44.2139 140.044 44.2139C140.778 44.2139 141.425 44.3734 141.985 44.6924C142.546 45.0114 142.977 45.4694 143.277 46.0664C143.578 46.6634 143.729 47.363 143.729 48.165ZM139.36 43.3047C139.442 43.0586 139.543 42.6849 139.661 42.1836C139.784 41.6823 139.871 41.2402 139.921 40.8574H141.855V41.0215C141.5 41.8691 141.074 42.7008 140.577 43.5166H139.36V43.3047ZM144.986 48.623C144.986 47.1283 145.292 46.0208 145.902 45.3008C146.518 44.5762 147.486 44.2139 148.808 44.2139C149.646 44.2139 150.46 44.3962 151.248 44.7607L150.646 46.3467C149.858 46.0459 149.227 45.8955 148.753 45.8955C148.179 45.8955 147.762 46.1188 147.502 46.5654C147.242 47.012 147.112 47.6797 147.112 48.5684C147.112 48.9056 147.169 49.1813 147.283 49.3955C147.397 49.6097 147.568 49.7829 147.796 49.915C148.024 50.0426 148.441 50.1725 149.047 50.3047C149.808 50.4642 150.366 50.6921 150.722 50.9883C151.082 51.2845 151.262 51.6742 151.262 52.1572C151.262 52.8499 150.947 53.6611 150.318 54.5908H148.22C148.894 53.6156 149.231 52.9069 149.231 52.4648C149.231 52.3008 149.138 52.1686 148.951 52.0684C148.764 51.9727 148.445 51.8792 147.994 51.7881C147.005 51.5967 146.256 51.2367 145.745 50.708C145.239 50.1748 144.986 49.4798 144.986 48.623ZM162.821 51.2002C162.994 51.2002 163.19 51.1592 163.409 51.0771V51.9727C163.213 52.082 162.924 52.1367 162.541 52.1367C161.543 52.1367 161.044 51.5602 161.044 50.4072V45.4785H157.783V52H156.648V45.4785H155.138V44.9727L156.115 44.5078H163.635V45.4785H162.179V50.3184C162.179 50.6556 162.236 50.888 162.35 51.0156C162.468 51.1387 162.625 51.2002 162.821 51.2002ZM171.742 48.2471C171.742 49.4684 171.435 50.4232 170.819 51.1113C170.204 51.7949 169.354 52.1367 168.27 52.1367C167.6 52.1367 167.005 51.9795 166.485 51.665C165.966 51.3506 165.565 50.8994 165.282 50.3115C165 49.7236 164.858 49.0355 164.858 48.2471C164.858 47.0257 165.164 46.0755 165.774 45.3965C166.385 44.7129 167.233 44.3711 168.317 44.3711C169.366 44.3711 170.197 44.7197 170.812 45.417C171.432 46.1143 171.742 47.0576 171.742 48.2471ZM166.034 48.2471C166.034 49.2041 166.226 49.9333 166.608 50.4346C166.991 50.9359 167.554 51.1865 168.297 51.1865C169.04 51.1865 169.603 50.9382 169.985 50.4414C170.373 49.9401 170.566 49.2087 170.566 48.2471C170.566 47.2946 170.373 46.5723 169.985 46.0801C169.603 45.5833 169.035 45.335 168.283 45.335C167.54 45.335 166.98 45.5788 166.602 46.0664C166.223 46.554 166.034 47.2809 166.034 48.2471ZM176.821 52.1367C175.769 52.1367 174.978 51.8519 174.449 51.2822C173.921 50.7126 173.656 49.8216 173.656 48.6094V44.5078H174.791V48.5547C174.791 49.4297 174.971 50.0905 175.331 50.5371C175.691 50.9792 176.22 51.2002 176.917 51.2002C177.678 51.2002 178.241 50.929 178.605 50.3867C178.975 49.8444 179.159 49.0013 179.159 47.8574C179.159 47.265 179.127 46.7135 179.063 46.2031C179 45.6927 178.89 45.1276 178.735 44.5078H179.87C180.034 45.1641 180.148 45.736 180.212 46.2236C180.276 46.7113 180.308 47.2741 180.308 47.9121C180.308 49.3613 180.014 50.4277 179.426 51.1113C178.838 51.7949 177.97 52.1367 176.821 52.1367ZM192.209 46.668C192.209 48.5182 191.931 49.8923 191.375 50.79C190.819 51.6878 189.971 52.1367 188.832 52.1367C187.738 52.1367 186.907 51.6787 186.337 50.7627C185.772 49.8421 185.489 48.4772 185.489 46.668C185.489 44.8132 185.767 43.4391 186.323 42.5459C186.884 41.6527 187.72 41.2061 188.832 41.2061C189.944 41.2061 190.785 41.6686 191.354 42.5938C191.924 43.5143 192.209 44.8724 192.209 46.668ZM188.832 51.1865C189.579 51.1865 190.131 50.8402 190.486 50.1475C190.842 49.4502 191.033 48.402 191.061 47.0029H186.638C186.656 48.3883 186.836 49.432 187.178 50.1338C187.52 50.8356 188.071 51.1865 188.832 51.1865ZM188.832 42.1562C188.098 42.1562 187.561 42.4844 187.219 43.1406C186.877 43.7923 186.683 44.7585 186.638 46.0391H191.047C190.997 44.7585 190.799 43.7923 190.452 43.1406C190.106 42.4844 189.566 42.1562 188.832 42.1562ZM197.035 51.1865C197.805 51.1865 198.361 50.9655 198.703 50.5234C199.045 50.0768 199.216 49.3568 199.216 48.3633V48.2607C199.216 47.2171 199.043 46.4697 198.696 46.0186C198.35 45.5628 197.792 45.335 197.021 45.335C195.641 45.335 194.95 46.3193 194.95 48.2881C194.95 49.2542 195.117 49.9788 195.449 50.4619C195.786 50.945 196.315 51.1865 197.035 51.1865ZM196.864 52.1367C195.889 52.1367 195.13 51.7995 194.588 51.125C194.046 50.446 193.774 49.4958 193.774 48.2744C193.774 47.0257 194.052 46.0641 194.608 45.3896C195.164 44.7106 195.955 44.3711 196.98 44.3711C197.532 44.3711 197.99 44.4668 198.354 44.6582C198.724 44.8496 199.031 45.1367 199.277 45.5195H199.359C199.469 45.1003 199.617 44.763 199.804 44.5078H200.686C200.59 44.8086 200.51 45.2393 200.446 45.7998C200.382 46.3604 200.351 46.9049 200.351 47.4336V50.4346C200.351 50.9541 200.542 51.2139 200.925 51.2139C201.057 51.2139 201.198 51.1911 201.349 51.1455V51.959C201.139 52.0775 200.886 52.1367 200.59 52.1367C200.221 52.1367 199.934 52.0456 199.729 51.8633C199.528 51.6764 199.387 51.387 199.305 50.9951H199.216C198.947 51.387 198.621 51.6764 198.238 51.8633C197.86 52.0456 197.402 52.1367 196.864 52.1367ZM212.84 48.5273C212.84 49.2428 212.699 49.8763 212.416 50.4277C212.138 50.9746 211.737 51.3962 211.213 51.6924C210.693 51.9886 210.083 52.1367 209.381 52.1367C208.31 52.1367 207.474 51.8086 206.872 51.1523C206.271 50.4961 205.97 49.5892 205.97 48.4316C205.97 45.8158 207.319 44.5078 210.017 44.5078H213.428V45.4785H211.623C212.434 46.2396 212.84 47.2559 212.84 48.5273ZM207.146 48.4316C207.146 49.3158 207.339 49.9971 207.727 50.4756C208.114 50.9495 208.674 51.1865 209.408 51.1865C210.133 51.1865 210.689 50.9632 211.076 50.5166C211.468 50.0654 211.664 49.4251 211.664 48.5957C211.664 47.3652 211.268 46.3262 210.475 45.4785H210.03C209.019 45.4785 208.285 45.7155 207.829 46.1895C207.373 46.6634 207.146 47.4108 207.146 48.4316ZM217.816 51.1865C218.587 51.1865 219.143 50.9655 219.484 50.5234C219.826 50.0768 219.997 49.3568 219.997 48.3633V48.2607C219.997 47.2171 219.824 46.4697 219.478 46.0186C219.131 45.5628 218.573 45.335 217.803 45.335C216.422 45.335 215.731 46.3193 215.731 48.2881C215.731 49.2542 215.898 49.9788 216.23 50.4619C216.568 50.945 217.096 51.1865 217.816 51.1865ZM217.646 52.1367C216.67 52.1367 215.911 51.7995 215.369 51.125C214.827 50.446 214.556 49.4958 214.556 48.2744C214.556 47.0257 214.834 46.0641 215.39 45.3896C215.946 44.7106 216.736 44.3711 217.762 44.3711C218.313 44.3711 218.771 44.4668 219.136 44.6582C219.505 44.8496 219.812 45.1367 220.059 45.5195H220.141C220.25 45.1003 220.398 44.763 220.585 44.5078H221.467C221.371 44.8086 221.291 45.2393 221.228 45.7998C221.164 46.3604 221.132 46.9049 221.132 47.4336V50.4346C221.132 50.9541 221.323 51.2139 221.706 51.2139C221.838 51.2139 221.979 51.1911 222.13 51.1455V51.959C221.92 52.0775 221.667 52.1367 221.371 52.1367C221.002 52.1367 220.715 52.0456 220.51 51.8633C220.309 51.6764 220.168 51.387 220.086 50.9951H219.997C219.728 51.387 219.402 51.6764 219.02 51.8633C218.641 52.0456 218.183 52.1367 217.646 52.1367ZM224.29 48.4316C224.29 49.0469 224.356 49.5049 224.488 49.8057C224.625 50.1064 224.855 50.348 225.179 50.5303C225.507 50.7126 226.035 50.8812 226.765 51.0361C227.439 51.182 227.924 51.3779 228.221 51.624C228.521 51.8656 228.672 52.1914 228.672 52.6016C228.672 52.9023 228.61 53.2259 228.487 53.5723C228.364 53.9186 228.15 54.3083 227.845 54.7412H226.778C227.024 54.4222 227.223 54.0941 227.373 53.7568C227.528 53.4196 227.605 53.137 227.605 52.9092C227.605 52.7269 227.546 52.5811 227.428 52.4717C227.314 52.3669 227.132 52.2712 226.881 52.1846C226.63 52.098 226.284 52.0137 225.842 51.9316C224.912 51.763 224.224 51.3893 223.777 50.8105C223.335 50.2318 223.114 49.4434 223.114 48.4453C223.114 47.1419 223.429 46.137 224.058 45.4307C224.687 44.7243 225.566 44.3711 226.696 44.3711C227.056 44.3711 227.416 44.4098 227.776 44.4873C228.136 44.5602 228.439 44.6514 228.686 44.7607L228.323 45.7246C227.731 45.4922 227.175 45.376 226.655 45.376C225.853 45.376 225.258 45.6243 224.871 46.1211C224.484 46.6178 224.29 47.388 224.29 48.4316ZM237.606 47.6182V48.582H236.595C235.177 48.582 234.469 49.0264 234.469 49.915C234.469 50.3252 234.635 50.6419 234.968 50.8652C235.305 51.0885 235.806 51.2002 236.472 51.2002C236.854 51.2002 237.235 51.1569 237.613 51.0703C237.992 50.9792 238.409 50.8265 238.864 50.6123V51.624C238.24 51.9658 237.424 52.1367 236.417 52.1367C235.46 52.1367 234.706 51.9453 234.154 51.5625C233.607 51.1751 233.334 50.6442 233.334 49.9697C233.334 49.5231 233.459 49.1517 233.71 48.8555C233.961 48.5547 234.382 48.3109 234.975 48.124V48.0488C234.528 47.9212 234.182 47.7139 233.936 47.4268C233.694 47.1351 233.573 46.7796 233.573 46.3604C233.573 45.7542 233.828 45.2712 234.339 44.9111C234.849 44.5511 235.542 44.3711 236.417 44.3711C236.859 44.3711 237.267 44.4098 237.641 44.4873C238.019 44.5602 238.436 44.6992 238.892 44.9043L238.461 45.8135C238.033 45.6221 237.67 45.4945 237.374 45.4307C237.078 45.3669 236.75 45.335 236.39 45.335C235.25 45.335 234.681 45.7041 234.681 46.4424C234.681 47.2262 235.403 47.6182 236.848 47.6182H237.606ZM245.215 46.8457H243.998C243.196 46.8457 242.551 47.0485 242.063 47.4541C241.58 47.8597 241.339 48.3861 241.339 49.0332C241.339 49.3978 241.396 49.6917 241.51 49.915C241.624 50.1383 241.788 50.3206 242.002 50.4619C242.221 50.5986 242.483 50.708 242.788 50.79C243.098 50.8721 243.444 50.9541 243.827 51.0361C244.474 51.1683 244.951 51.3597 245.256 51.6104C245.566 51.861 245.721 52.1914 245.721 52.6016C245.721 52.8978 245.659 53.2145 245.536 53.5518C245.413 53.8936 245.199 54.29 244.894 54.7412H243.827C244.069 54.4176 244.265 54.0872 244.415 53.75C244.565 53.4173 244.641 53.1325 244.641 52.8955C244.641 52.6449 244.508 52.4489 244.244 52.3076C243.984 52.1709 243.529 52.0456 242.877 51.9316C241.965 51.7767 241.282 51.4714 240.826 51.0156C240.375 50.5599 240.149 49.931 240.149 49.1289C240.149 48.4909 240.329 47.9326 240.689 47.4541C241.049 46.9756 241.521 46.6475 242.104 46.4697V46.3877C241.116 46.096 240.621 45.4557 240.621 44.4668C240.621 43.9336 240.778 43.487 241.093 43.127C241.412 42.7669 241.95 42.473 242.706 42.2451C242.123 42.2998 241.569 42.3271 241.045 42.3271H240.58V41.3633H245.352V42.2588H245.003C244.41 42.2588 243.859 42.3499 243.349 42.5322C242.838 42.7145 242.437 42.9697 242.146 43.2979C241.858 43.626 241.715 44.0065 241.715 44.4395C241.715 44.9635 241.904 45.3486 242.282 45.5947C242.665 45.8408 243.255 45.9639 244.053 45.9639H245.215V46.8457ZM250.923 47.6182V48.582H249.911C248.494 48.582 247.785 49.0264 247.785 49.915C247.785 50.3252 247.951 50.6419 248.284 50.8652C248.621 51.0885 249.123 51.2002 249.788 51.2002C250.171 51.2002 250.551 51.1569 250.93 51.0703C251.308 50.9792 251.725 50.8265 252.181 50.6123V51.624C251.556 51.9658 250.741 52.1367 249.733 52.1367C248.776 52.1367 248.022 51.9453 247.471 51.5625C246.924 51.1751 246.65 50.6442 246.65 49.9697C246.65 49.5231 246.776 49.1517 247.026 48.8555C247.277 48.5547 247.699 48.3109 248.291 48.124V48.0488C247.844 47.9212 247.498 47.7139 247.252 47.4268C247.01 47.1351 246.89 46.7796 246.89 46.3604C246.89 45.7542 247.145 45.2712 247.655 44.9111C248.166 44.5511 248.858 44.3711 249.733 44.3711C250.175 44.3711 250.583 44.4098 250.957 44.4873C251.335 44.5602 251.752 44.6992 252.208 44.9043L251.777 45.8135C251.349 45.6221 250.987 45.4945 250.69 45.4307C250.394 45.3669 250.066 45.335 249.706 45.335C248.567 45.335 247.997 45.7041 247.997 46.4424C247.997 47.2262 248.719 47.6182 250.164 47.6182H250.923ZM258.948 44.5078V45.4785H255.995V49.7031C255.995 50.7194 256.462 51.2275 257.396 51.2275C257.611 51.2275 257.829 51.2139 258.053 51.1865C258.276 51.1546 258.449 51.1227 258.572 51.0908V51.9453C258.413 52.0137 258.205 52.0684 257.95 52.1094C257.7 52.1504 257.465 52.1709 257.246 52.1709C256.421 52.1709 255.815 51.9772 255.428 51.5898C255.04 51.2025 254.847 50.6214 254.847 49.8467V45.4785H252.816V44.9727L253.828 44.5078H258.948ZM263.371 51.1865C264.141 51.1865 264.697 50.9655 265.039 50.5234C265.381 50.0768 265.552 49.3568 265.552 48.3633V48.2607C265.552 47.2171 265.379 46.4697 265.032 46.0186C264.686 45.5628 264.128 45.335 263.357 45.335C261.977 45.335 261.286 46.3193 261.286 48.2881C261.286 49.2542 261.452 49.9788 261.785 50.4619C262.122 50.945 262.651 51.1865 263.371 51.1865ZM263.2 52.1367C262.225 52.1367 261.466 51.7995 260.924 51.125C260.382 50.446 260.11 49.4958 260.11 48.2744C260.11 47.0257 260.388 46.0641 260.944 45.3896C261.5 44.7106 262.291 44.3711 263.316 44.3711C263.868 44.3711 264.326 44.4668 264.69 44.6582C265.06 44.8496 265.367 45.1367 265.613 45.5195H265.695C265.805 45.1003 265.953 44.763 266.14 44.5078H267.021C266.926 44.8086 266.846 45.2393 266.782 45.7998C266.718 46.3604 266.687 46.9049 266.687 47.4336V50.4346C266.687 50.9541 266.878 51.2139 267.261 51.2139C267.393 51.2139 267.534 51.1911 267.685 51.1455V51.959C267.475 52.0775 267.222 52.1367 266.926 52.1367C266.557 52.1367 266.27 52.0456 266.064 51.8633C265.864 51.6764 265.723 51.387 265.641 50.9951H265.552C265.283 51.387 264.957 51.6764 264.574 51.8633C264.196 52.0456 263.738 52.1367 263.2 52.1367ZM262.995 43.3184C263.118 42.9902 263.239 42.5687 263.357 42.0537C263.48 41.5342 263.569 41.0876 263.624 40.7139H264.882V40.8711C264.8 41.2083 264.633 41.6481 264.383 42.1904C264.137 42.7282 263.902 43.1702 263.679 43.5166H262.995V43.3184ZM275.539 48.5273C275.539 49.2428 275.398 49.8763 275.115 50.4277C274.837 50.9746 274.436 51.3962 273.912 51.6924C273.393 51.9886 272.782 52.1367 272.08 52.1367C271.009 52.1367 270.173 51.8086 269.571 51.1523C268.97 50.4961 268.669 49.5892 268.669 48.4316C268.669 45.8158 270.018 44.5078 272.716 44.5078H276.127V45.4785H274.322C275.133 46.2396 275.539 47.2559 275.539 48.5273ZM269.845 48.4316C269.845 49.3158 270.038 49.9971 270.426 50.4756C270.813 50.9495 271.374 51.1865 272.107 51.1865C272.832 51.1865 273.388 50.9632 273.775 50.5166C274.167 50.0654 274.363 49.4251 274.363 48.5957C274.363 47.3652 273.967 46.3262 273.174 45.4785H272.729C271.718 45.4785 270.984 45.7155 270.528 46.1895C270.073 46.6634 269.845 47.4108 269.845 48.4316ZM281.356 47.6182V48.582H280.345C278.927 48.582 278.219 49.0264 278.219 49.915C278.219 50.3252 278.385 50.6419 278.718 50.8652C279.055 51.0885 279.556 51.2002 280.222 51.2002C280.604 51.2002 280.985 51.1569 281.363 51.0703C281.742 50.9792 282.159 50.8265 282.614 50.6123V51.624C281.99 51.9658 281.174 52.1367 280.167 52.1367C279.21 52.1367 278.456 51.9453 277.904 51.5625C277.357 51.1751 277.084 50.6442 277.084 49.9697C277.084 49.5231 277.209 49.1517 277.46 48.8555C277.711 48.5547 278.132 48.3109 278.725 48.124V48.0488C278.278 47.9212 277.932 47.7139 277.686 47.4268C277.444 47.1351 277.323 46.7796 277.323 46.3604C277.323 45.7542 277.578 45.2712 278.089 44.9111C278.599 44.5511 279.292 44.3711 280.167 44.3711C280.609 44.3711 281.017 44.4098 281.391 44.4873C281.769 44.5602 282.186 44.6992 282.642 44.9043L282.211 45.8135C281.783 45.6221 281.42 45.4945 281.124 45.4307C280.828 45.3669 280.5 45.335 280.14 45.335C279 45.335 278.431 45.7041 278.431 46.4424C278.431 47.2262 279.153 47.6182 280.598 47.6182H281.356ZM285.41 44.5078V49.7988C285.41 50.2728 285.492 50.626 285.656 50.8584C285.825 51.0863 286.107 51.2002 286.504 51.2002C286.673 51.2002 286.871 51.1865 287.099 51.1592C287.331 51.1273 287.509 51.0954 287.632 51.0635V51.9316C287.491 51.9909 287.299 52.0387 287.058 52.0752C286.821 52.1162 286.588 52.1367 286.36 52.1367C285.631 52.1367 285.1 51.9453 284.768 51.5625C284.439 51.1797 284.275 50.6032 284.275 49.833V44.5078H285.41ZM290.264 50.373L290.366 50.5303C290.248 50.986 290.077 51.5146 289.854 52.1162C289.63 52.7223 289.398 53.2852 289.156 53.8047H288.302C288.425 53.3307 288.559 52.7451 288.705 52.0479C288.855 51.3506 288.96 50.7923 289.02 50.373H290.264ZM90.0254 65.668C90.0254 67.5137 89.7178 68.8877 89.1025 69.79C88.4919 70.6878 87.5622 71.1367 86.3135 71.1367C85.1058 71.1367 84.1898 70.6696 83.5654 69.7354C82.9411 68.7965 82.6289 67.4408 82.6289 65.668C82.6289 63.8132 82.9342 62.4391 83.5449 61.5459C84.1556 60.6527 85.0785 60.2061 86.3135 60.2061C87.5212 60.2061 88.4417 60.6709 89.0752 61.6006C89.7087 62.5257 90.0254 63.8815 90.0254 65.668ZM86.3135 69.626C86.8467 69.626 87.234 69.3617 87.4756 68.833C87.7217 68.2998 87.8561 67.4909 87.8789 66.4062H84.7549C84.7731 67.4772 84.9007 68.2816 85.1377 68.8193C85.3792 69.3571 85.7712 69.626 86.3135 69.626ZM86.3271 61.7168C85.835 61.7168 85.4635 61.9606 85.2129 62.4482C84.9622 62.9313 84.8164 63.7334 84.7754 64.8545H87.8789C87.8424 63.8063 87.7035 63.0225 87.4619 62.5029C87.2249 61.9788 86.8467 61.7168 86.3271 61.7168ZM94.9131 69.4756C95.4508 69.4756 95.8405 69.3138 96.082 68.9902C96.3281 68.6621 96.4603 68.0902 96.4785 67.2744V67.1924C96.4785 66.3721 96.3509 65.7842 96.0957 65.4287C95.8451 65.0732 95.4395 64.8955 94.8789 64.8955C93.8991 64.8955 93.4092 65.6702 93.4092 67.2197C93.4092 67.9717 93.5299 68.5368 93.7715 68.915C94.0176 69.2887 94.3981 69.4756 94.9131 69.4756ZM94.2773 71.1367C93.3431 71.1367 92.6094 70.7904 92.0762 70.0977C91.5475 69.4049 91.2832 68.4411 91.2832 67.2061C91.2832 65.9391 91.5589 64.9593 92.1104 64.2666C92.6663 63.5739 93.4411 63.2275 94.4346 63.2275C94.9723 63.2275 95.4144 63.3232 95.7607 63.5146C96.1117 63.7061 96.401 63.9932 96.6289 64.376H96.7314C96.8408 63.9476 96.9935 63.6081 97.1895 63.3574H98.9121C98.7663 63.7995 98.6478 64.3076 98.5566 64.8818C98.4701 65.4515 98.4268 65.9733 98.4268 66.4473V68.5801C98.4268 69.1178 98.6182 69.3867 99.001 69.3867C99.1468 69.3867 99.2812 69.3639 99.4043 69.3184V70.959C99.3314 71.0046 99.1901 71.0456 98.9805 71.082C98.7754 71.1185 98.6045 71.1367 98.4678 71.1367C97.9574 71.1367 97.5677 71.0501 97.2988 70.877C97.0299 70.6992 96.818 70.4053 96.6631 69.9951H96.5195C96.0182 70.7562 95.2708 71.1367 94.2773 71.1367ZM109.098 66.2969V67.7393H107.949C107.284 67.7393 106.783 67.8145 106.445 67.9648C106.113 68.1107 105.946 68.3477 105.946 68.6758C105.946 69.2454 106.557 69.5303 107.778 69.5303C108.248 69.5303 108.733 69.4801 109.234 69.3799C109.736 69.2751 110.189 69.1292 110.595 68.9424V70.6104C109.811 70.9613 108.822 71.1367 107.628 71.1367C106.416 71.1367 105.488 70.9499 104.846 70.5762C104.208 70.1979 103.889 69.6351 103.889 68.8877C103.889 68.4001 104.035 68.0036 104.326 67.6982C104.618 67.3929 105.092 67.1764 105.748 67.0488V66.9805C104.777 66.7572 104.292 66.1693 104.292 65.2168C104.292 64.5742 104.581 64.0798 105.16 63.7334C105.739 63.387 106.562 63.2139 107.628 63.2139C108.152 63.2139 108.678 63.2663 109.207 63.3711C109.74 63.4759 110.207 63.6149 110.608 63.7881L109.966 65.2988C109.424 65.0801 108.995 64.9365 108.681 64.8682C108.366 64.7952 108.034 64.7588 107.683 64.7588C107.168 64.7588 106.785 64.8158 106.534 64.9297C106.284 65.0436 106.158 65.2236 106.158 65.4697C106.158 65.7705 106.309 65.9847 106.609 66.1123C106.915 66.2354 107.393 66.2969 108.045 66.2969H109.098ZM120.021 69.5029C120.327 69.5029 120.623 69.4232 120.91 69.2637V70.7607C120.723 70.8747 120.484 70.9658 120.192 71.0342C119.905 71.1025 119.639 71.1367 119.393 71.1367C118.709 71.1367 118.187 70.9499 117.827 70.5762C117.472 70.2025 117.294 69.6442 117.294 68.9014V64.9502H114.983V71H112.898V64.9502H111.306V64.0547L112.522 63.3574H120.992V64.9502H119.379V68.8193C119.379 69.0518 119.44 69.2249 119.563 69.3389C119.687 69.4482 119.839 69.5029 120.021 69.5029ZM124.663 63.3574V68.6074C124.663 68.9036 124.745 69.1224 124.909 69.2637C125.078 69.4049 125.299 69.4756 125.572 69.4756C125.941 69.4756 126.381 69.3958 126.892 69.2363V70.7881C126.395 71.0205 125.796 71.1367 125.094 71.1367C124.228 71.1367 123.592 70.9271 123.187 70.5078C122.781 70.084 122.578 69.4505 122.578 68.6074V63.3574H124.663ZM131.93 60.2881C133.001 60.2881 133.844 60.5251 134.459 60.999C135.079 61.473 135.389 62.1315 135.389 62.9746C135.389 63.6536 135.215 64.1914 134.869 64.5879C134.523 64.9798 134.028 65.2282 133.386 65.333V65.374C134.243 65.4834 134.881 65.7591 135.3 66.2012C135.724 66.6387 135.936 67.2539 135.936 68.0469C135.936 69.0039 135.637 69.7581 135.04 70.3096C134.448 70.861 133.632 71.1367 132.593 71.1367C131.681 71.1367 130.938 70.9932 130.364 70.7061V74.3633H128.279V63.5078C128.279 62.487 128.598 61.6963 129.236 61.1357C129.874 60.5706 130.772 60.2881 131.93 60.2881ZM131.875 61.915C130.868 61.915 130.364 62.512 130.364 63.7061V68.9971C130.583 69.1383 130.852 69.2546 131.171 69.3457C131.49 69.4323 131.786 69.4756 132.06 69.4756C132.643 69.4756 133.076 69.3343 133.358 69.0518C133.641 68.7692 133.782 68.3727 133.782 67.8623C133.782 67.361 133.63 66.9805 133.324 66.7207C133.023 66.4564 132.584 66.3242 132.005 66.3242H131.513V64.6699H131.875C132.326 64.6699 132.677 64.5469 132.928 64.3008C133.178 64.0501 133.304 63.6924 133.304 63.2275C133.304 62.8083 133.178 62.4847 132.928 62.2568C132.677 62.029 132.326 61.915 131.875 61.915ZM142.17 66.2969V67.7393H141.021C140.356 67.7393 139.855 67.8145 139.518 67.9648C139.185 68.1107 139.019 68.3477 139.019 68.6758C139.019 69.2454 139.629 69.5303 140.851 69.5303C141.32 69.5303 141.805 69.4801 142.307 69.3799C142.808 69.2751 143.261 69.1292 143.667 68.9424V70.6104C142.883 70.9613 141.894 71.1367 140.7 71.1367C139.488 71.1367 138.561 70.9499 137.918 70.5762C137.28 70.1979 136.961 69.6351 136.961 68.8877C136.961 68.4001 137.107 68.0036 137.398 67.6982C137.69 67.3929 138.164 67.1764 138.82 67.0488V66.9805C137.85 66.7572 137.364 66.1693 137.364 65.2168C137.364 64.5742 137.654 64.0798 138.232 63.7334C138.811 63.387 139.634 63.2139 140.7 63.2139C141.224 63.2139 141.751 63.2663 142.279 63.3711C142.812 63.4759 143.28 63.6149 143.681 63.7881L143.038 65.2988C142.496 65.0801 142.067 64.9365 141.753 64.8682C141.438 64.7952 141.106 64.7588 140.755 64.7588C140.24 64.7588 139.857 64.8158 139.606 64.9297C139.356 65.0436 139.23 65.2236 139.23 65.4697C139.23 65.7705 139.381 65.9847 139.682 66.1123C139.987 66.2354 140.465 66.2969 141.117 66.2969H142.17ZM148.951 60.2881C150.022 60.2881 150.865 60.5251 151.48 60.999C152.1 61.473 152.41 62.1315 152.41 62.9746C152.41 63.6536 152.237 64.1914 151.891 64.5879C151.544 64.9798 151.05 65.2282 150.407 65.333V65.374C151.264 65.4834 151.902 65.7591 152.321 66.2012C152.745 66.6387 152.957 67.2539 152.957 68.0469C152.957 69.0039 152.659 69.7581 152.062 70.3096C151.469 70.861 150.653 71.1367 149.614 71.1367C148.703 71.1367 147.96 70.9932 147.386 70.7061V74.3633H145.301V63.5078C145.301 62.487 145.62 61.6963 146.258 61.1357C146.896 60.5706 147.794 60.2881 148.951 60.2881ZM148.896 61.915C147.889 61.915 147.386 62.512 147.386 63.7061V68.9971C147.604 69.1383 147.873 69.2546 148.192 69.3457C148.511 69.4323 148.808 69.4756 149.081 69.4756C149.664 69.4756 150.097 69.3343 150.38 69.0518C150.662 68.7692 150.804 68.3727 150.804 67.8623C150.804 67.361 150.651 66.9805 150.346 66.7207C150.045 66.4564 149.605 66.3242 149.026 66.3242H148.534V64.6699H148.896C149.348 64.6699 149.699 64.5469 149.949 64.3008C150.2 64.0501 150.325 63.6924 150.325 63.2275C150.325 62.8083 150.2 62.4847 149.949 62.2568C149.699 62.029 149.348 61.915 148.896 61.915ZM157.708 69.4756C158.246 69.4756 158.635 69.3138 158.877 68.9902C159.123 68.6621 159.255 68.0902 159.273 67.2744V67.1924C159.273 66.3721 159.146 65.7842 158.891 65.4287C158.64 65.0732 158.234 64.8955 157.674 64.8955C156.694 64.8955 156.204 65.6702 156.204 67.2197C156.204 67.9717 156.325 68.5368 156.566 68.915C156.812 69.2887 157.193 69.4756 157.708 69.4756ZM157.072 71.1367C156.138 71.1367 155.404 70.7904 154.871 70.0977C154.342 69.4049 154.078 68.4411 154.078 67.2061C154.078 65.9391 154.354 64.9593 154.905 64.2666C155.461 63.5739 156.236 63.2275 157.229 63.2275C157.767 63.2275 158.209 63.3232 158.556 63.5146C158.907 63.7061 159.196 63.9932 159.424 64.376H159.526C159.636 63.9476 159.788 63.6081 159.984 63.3574H161.707C161.561 63.7995 161.443 64.3076 161.352 64.8818C161.265 65.4515 161.222 65.9733 161.222 66.4473V68.5801C161.222 69.1178 161.413 69.3867 161.796 69.3867C161.942 69.3867 162.076 69.3639 162.199 69.3184V70.959C162.126 71.0046 161.985 71.0456 161.775 71.082C161.57 71.1185 161.399 71.1367 161.263 71.1367C160.752 71.1367 160.363 71.0501 160.094 70.877C159.825 70.6992 159.613 70.4053 159.458 69.9951H159.314C158.813 70.7562 158.066 71.1367 157.072 71.1367ZM165.692 63.3574V68.6074C165.692 68.9036 165.774 69.1224 165.938 69.2637C166.107 69.4049 166.328 69.4756 166.602 69.4756C166.971 69.4756 167.41 69.3958 167.921 69.2363V70.7881C167.424 71.0205 166.825 71.1367 166.123 71.1367C165.257 71.1367 164.621 70.9271 164.216 70.5078C163.81 70.084 163.607 69.4505 163.607 68.6074V63.3574H165.692ZM176.473 71.1367C175.917 71.1367 175.461 71.0182 175.105 70.7812C174.75 70.5397 174.479 70.1797 174.292 69.7012H174.224C174.014 70.2025 173.731 70.5671 173.376 70.7949C173.025 71.0228 172.578 71.1367 172.036 71.1367C171.061 71.1367 170.304 70.7926 169.767 70.1045C169.229 69.4163 168.96 68.4775 168.96 67.2881C168.96 66.5863 169.015 65.9391 169.124 65.3467C169.233 64.7542 169.434 64.0911 169.726 63.3574H171.729C171.159 64.5514 170.874 65.8389 170.874 67.2197C170.874 67.9671 170.986 68.5368 171.209 68.9287C171.437 69.3206 171.77 69.5166 172.207 69.5166C172.585 69.5166 172.861 69.3844 173.034 69.1201C173.207 68.8558 173.294 68.4183 173.294 67.8076V65.791H175.215V67.8076C175.215 68.4229 175.301 68.8626 175.475 69.127C175.648 69.3867 175.926 69.5166 176.309 69.5166C176.737 69.5166 177.065 69.3252 177.293 68.9424C177.521 68.555 177.635 67.9899 177.635 67.2471C177.635 65.848 177.35 64.5514 176.78 63.3574H178.783C179.075 64.0957 179.275 64.7588 179.385 65.3467C179.499 65.9346 179.556 66.5817 179.556 67.2881C179.556 68.4867 179.285 69.4277 178.742 70.1113C178.2 70.7949 177.443 71.1367 176.473 71.1367ZM173.547 62.3047C173.629 62.0586 173.729 61.6849 173.848 61.1836C173.971 60.6823 174.057 60.2402 174.107 59.8574H176.042V60.0215C175.687 60.8691 175.26 61.7008 174.764 62.5166H173.547V62.3047ZM188.449 67.7529C188.449 68.4183 188.294 69.0107 187.984 69.5303C187.679 70.0452 187.239 70.4417 186.665 70.7197C186.095 70.9977 185.43 71.1367 184.669 71.1367C183.484 71.1367 182.563 70.7949 181.907 70.1113C181.256 69.4232 180.93 68.4775 180.93 67.2744C180.93 64.654 182.368 63.3438 185.243 63.3438H189.16V64.8682H187.219C188.039 65.734 188.449 66.6956 188.449 67.7529ZM183.076 67.2744C183.076 67.9854 183.211 68.5277 183.479 68.9014C183.753 69.2751 184.159 69.4619 184.696 69.4619C185.225 69.4619 185.626 69.2887 185.899 68.9424C186.173 68.5915 186.31 68.0879 186.31 67.4316C186.31 66.9258 186.241 66.4678 186.104 66.0576C185.972 65.6429 185.751 65.2464 185.441 64.8682H185.1C184.361 64.8682 183.84 65.055 183.534 65.4287C183.229 65.8024 183.076 66.4176 183.076 67.2744ZM195.189 66.2969V67.7393H194.041C193.376 67.7393 192.874 67.8145 192.537 67.9648C192.204 68.1107 192.038 68.3477 192.038 68.6758C192.038 69.2454 192.649 69.5303 193.87 69.5303C194.34 69.5303 194.825 69.4801 195.326 69.3799C195.827 69.2751 196.281 69.1292 196.687 68.9424V70.6104C195.903 70.9613 194.914 71.1367 193.72 71.1367C192.507 71.1367 191.58 70.9499 190.938 70.5762C190.299 70.1979 189.98 69.6351 189.98 68.8877C189.98 68.4001 190.126 68.0036 190.418 67.6982C190.71 67.3929 191.184 67.1764 191.84 67.0488V66.9805C190.869 66.7572 190.384 66.1693 190.384 65.2168C190.384 64.5742 190.673 64.0798 191.252 63.7334C191.831 63.387 192.653 63.2139 193.72 63.2139C194.244 63.2139 194.77 63.2663 195.299 63.3711C195.832 63.4759 196.299 63.6149 196.7 63.7881L196.058 65.2988C195.515 65.0801 195.087 64.9365 194.772 64.8682C194.458 64.7952 194.125 64.7588 193.774 64.7588C193.259 64.7588 192.877 64.8158 192.626 64.9297C192.375 65.0436 192.25 65.2236 192.25 65.4697C192.25 65.7705 192.4 65.9847 192.701 66.1123C193.007 66.2354 193.485 66.2969 194.137 66.2969H195.189ZM200.405 63.3574V68.6074C200.405 68.9036 200.487 69.1224 200.651 69.2637C200.82 69.4049 201.041 69.4756 201.314 69.4756C201.684 69.4756 202.123 69.3958 202.634 69.2363V70.7881C202.137 71.0205 201.538 71.1367 200.836 71.1367C199.97 71.1367 199.334 70.9271 198.929 70.5078C198.523 70.084 198.32 69.4505 198.32 68.6074V63.3574H200.405ZM210.823 69.4756C211.361 69.4756 211.751 69.3138 211.992 68.9902C212.238 68.6621 212.37 68.0902 212.389 67.2744V67.1924C212.389 66.3721 212.261 65.7842 212.006 65.4287C211.755 65.0732 211.35 64.8955 210.789 64.8955C209.809 64.8955 209.319 65.6702 209.319 67.2197C209.319 67.9717 209.44 68.5368 209.682 68.915C209.928 69.2887 210.308 69.4756 210.823 69.4756ZM210.188 71.1367C209.253 71.1367 208.52 70.7904 207.986 70.0977C207.458 69.4049 207.193 68.4411 207.193 67.2061C207.193 65.9391 207.469 64.9593 208.021 64.2666C208.576 63.5739 209.351 63.2275 210.345 63.2275C210.882 63.2275 211.325 63.3232 211.671 63.5146C212.022 63.7061 212.311 63.9932 212.539 64.376H212.642C212.751 63.9476 212.904 63.6081 213.1 63.3574H214.822C214.676 63.7995 214.558 64.3076 214.467 64.8818C214.38 65.4515 214.337 65.9733 214.337 66.4473V68.5801C214.337 69.1178 214.528 69.3867 214.911 69.3867C215.057 69.3867 215.191 69.3639 215.314 69.3184V70.959C215.242 71.0046 215.1 71.0456 214.891 71.082C214.686 71.1185 214.515 71.1367 214.378 71.1367C213.868 71.1367 213.478 71.0501 213.209 70.877C212.94 70.6992 212.728 70.4053 212.573 69.9951H212.43C211.928 70.7562 211.181 71.1367 210.188 71.1367ZM215.67 63.3574H217.81L219.3 67.5957L219.771 69.1543H219.826C220.35 68.457 220.729 67.6572 220.961 66.7549C221.193 65.8525 221.31 64.7201 221.31 63.3574H223.415C223.415 64.5241 223.315 65.5312 223.114 66.3789C222.914 67.222 222.595 68.0218 222.157 68.7783C221.724 69.5303 221.143 70.2708 220.414 71H218.541L215.67 63.3574ZM236.492 69.5029C236.798 69.5029 237.094 69.4232 237.381 69.2637V70.7607C237.194 70.8747 236.955 70.9658 236.663 71.0342C236.376 71.1025 236.109 71.1367 235.863 71.1367C235.18 71.1367 234.658 70.9499 234.298 70.5762C233.942 70.2025 233.765 69.6442 233.765 68.9014V64.9502H231.454V71H229.369V64.9502H227.776V64.0547L228.993 63.3574H237.463V64.9502H235.85V68.8193C235.85 69.0518 235.911 69.2249 236.034 69.3389C236.157 69.4482 236.31 69.5029 236.492 69.5029ZM245.98 67.1787C245.98 68.4229 245.7 69.3936 245.14 70.0908C244.584 70.7881 243.809 71.1367 242.815 71.1367C242.114 71.1367 241.473 70.9613 240.895 70.6104H240.771C240.844 71.3942 240.881 72.0049 240.881 72.4424V74.3633H238.782V67.165C238.782 65.9118 239.097 64.9411 239.726 64.2529C240.359 63.5602 241.257 63.2139 242.419 63.2139C243.125 63.2139 243.747 63.3757 244.285 63.6992C244.823 64.0182 245.24 64.4785 245.536 65.0801C245.832 65.6816 245.98 66.3812 245.98 67.1787ZM242.378 64.8955C241.863 64.8955 241.485 65.071 241.243 65.4219C241.002 65.7682 240.881 66.3174 240.881 67.0693V68.874C241.077 69.07 241.307 69.2181 241.571 69.3184C241.836 69.4141 242.104 69.4619 242.378 69.4619C242.897 69.4619 243.269 69.2842 243.492 68.9287C243.72 68.5687 243.834 67.9854 243.834 67.1787C243.834 66.3766 243.722 65.7956 243.499 65.4355C243.28 65.0755 242.907 64.8955 242.378 64.8955ZM252.352 66.2969V67.7393H251.203C250.538 67.7393 250.036 67.8145 249.699 67.9648C249.367 68.1107 249.2 68.3477 249.2 68.6758C249.2 69.2454 249.811 69.5303 251.032 69.5303C251.502 69.5303 251.987 69.4801 252.488 69.3799C252.99 69.2751 253.443 69.1292 253.849 68.9424V70.6104C253.065 70.9613 252.076 71.1367 250.882 71.1367C249.67 71.1367 248.742 70.9499 248.1 70.5762C247.462 70.1979 247.143 69.6351 247.143 68.8877C247.143 68.4001 247.288 68.0036 247.58 67.6982C247.872 67.3929 248.346 67.1764 249.002 67.0488V66.9805C248.031 66.7572 247.546 66.1693 247.546 65.2168C247.546 64.5742 247.835 64.0798 248.414 63.7334C248.993 63.387 249.815 63.2139 250.882 63.2139C251.406 63.2139 251.932 63.2663 252.461 63.3711C252.994 63.4759 253.461 63.6149 253.862 63.7881L253.22 65.2988C252.677 65.0801 252.249 64.9365 251.935 64.8682C251.62 64.7952 251.287 64.7588 250.937 64.7588C250.422 64.7588 250.039 64.8158 249.788 64.9297C249.537 65.0436 249.412 65.2236 249.412 65.4697C249.412 65.7705 249.562 65.9847 249.863 66.1123C250.169 66.2354 250.647 66.2969 251.299 66.2969H252.352ZM250.082 62.3047C250.164 62.0586 250.264 61.6849 250.383 61.1836C250.506 60.6823 250.592 60.2402 250.643 59.8574H252.577V60.0215C252.222 60.8691 251.796 61.7008 251.299 62.5166H250.082V62.3047ZM263.275 69.5029C263.581 69.5029 263.877 69.4232 264.164 69.2637V70.7607C263.977 70.8747 263.738 70.9658 263.446 71.0342C263.159 71.1025 262.893 71.1367 262.646 71.1367C261.963 71.1367 261.441 70.9499 261.081 70.5762C260.726 70.2025 260.548 69.6442 260.548 68.9014V64.9502H258.237V71H256.152V64.9502H254.56V64.0547L255.776 63.3574H264.246V64.9502H262.633V68.8193C262.633 69.0518 262.694 69.2249 262.817 69.3389C262.94 69.4482 263.093 69.5029 263.275 69.5029ZM270.48 66.2969V67.7393H269.332C268.667 67.7393 268.165 67.8145 267.828 67.9648C267.495 68.1107 267.329 68.3477 267.329 68.6758C267.329 69.2454 267.94 69.5303 269.161 69.5303C269.631 69.5303 270.116 69.4801 270.617 69.3799C271.118 69.2751 271.572 69.1292 271.978 68.9424V70.6104C271.194 70.9613 270.205 71.1367 269.011 71.1367C267.799 71.1367 266.871 70.9499 266.229 70.5762C265.59 70.1979 265.271 69.6351 265.271 68.8877C265.271 68.4001 265.417 68.0036 265.709 67.6982C266.001 67.3929 266.475 67.1764 267.131 67.0488V66.9805C266.16 66.7572 265.675 66.1693 265.675 65.2168C265.675 64.5742 265.964 64.0798 266.543 63.7334C267.122 63.387 267.944 63.2139 269.011 63.2139C269.535 63.2139 270.061 63.2663 270.59 63.3711C271.123 63.4759 271.59 63.6149 271.991 63.7881L271.349 65.2988C270.806 65.0801 270.378 64.9365 270.063 64.8682C269.749 64.7952 269.416 64.7588 269.065 64.7588C268.55 64.7588 268.168 64.8158 267.917 64.9297C267.666 65.0436 267.541 65.2236 267.541 65.4697C267.541 65.7705 267.691 65.9847 267.992 66.1123C268.298 66.2354 268.776 66.2969 269.428 66.2969H270.48ZM275.696 63.3574V68.6074C275.696 68.9036 275.778 69.1224 275.942 69.2637C276.111 69.4049 276.332 69.4756 276.605 69.4756C276.975 69.4756 277.414 69.3958 277.925 69.2363V70.7881C277.428 71.0205 276.829 71.1367 276.127 71.1367C275.261 71.1367 274.625 70.9271 274.22 70.5078C273.814 70.084 273.611 69.4505 273.611 68.6074V63.3574H275.696ZM281.896 63.3574H284.036L285.526 67.5957L285.998 69.1543H286.053C286.577 68.457 286.955 67.6572 287.188 66.7549C287.42 65.8525 287.536 64.7201 287.536 63.3574H289.642C289.642 64.5241 289.541 65.5312 289.341 66.3789C289.14 67.222 288.821 68.0218 288.384 68.7783C287.951 69.5303 287.37 70.2708 286.641 71H284.768L281.896 63.3574ZM294.454 69.4756C294.992 69.4756 295.382 69.3138 295.623 68.9902C295.869 68.6621 296.001 68.0902 296.02 67.2744V67.1924C296.02 66.3721 295.892 65.7842 295.637 65.4287C295.386 65.0732 294.98 64.8955 294.42 64.8955C293.44 64.8955 292.95 65.6702 292.95 67.2197C292.95 67.9717 293.071 68.5368 293.312 68.915C293.559 69.2887 293.939 69.4756 294.454 69.4756ZM293.818 71.1367C292.884 71.1367 292.15 70.7904 291.617 70.0977C291.089 69.4049 290.824 68.4411 290.824 67.2061C290.824 65.9391 291.1 64.9593 291.651 64.2666C292.207 63.5739 292.982 63.2275 293.976 63.2275C294.513 63.2275 294.955 63.3232 295.302 63.5146C295.653 63.7061 295.942 63.9932 296.17 64.376H296.272C296.382 63.9476 296.535 63.6081 296.73 63.3574H298.453C298.307 63.7995 298.189 64.3076 298.098 64.8818C298.011 65.4515 297.968 65.9733 297.968 66.4473V68.5801C297.968 69.1178 298.159 69.3867 298.542 69.3867C298.688 69.3867 298.822 69.3639 298.945 69.3184V70.959C298.872 71.0046 298.731 71.0456 298.521 71.082C298.316 71.1185 298.146 71.1367 298.009 71.1367C297.498 71.1367 297.109 71.0501 296.84 70.877C296.571 70.6992 296.359 70.4053 296.204 69.9951H296.061C295.559 70.7562 294.812 71.1367 293.818 71.1367ZM90.8867 88.5029C91.1921 88.5029 91.4883 88.4232 91.7754 88.2637V89.7607C91.5885 89.8747 91.3493 89.9658 91.0576 90.0342C90.7705 90.1025 90.5039 90.1367 90.2578 90.1367C89.5742 90.1367 89.0524 89.9499 88.6924 89.5762C88.3369 89.2025 88.1592 88.6442 88.1592 87.9014V83.9502H85.8486V90H83.7637V83.9502H82.1709V83.0547L83.3877 82.3574H91.8574V83.9502H90.2441V87.8193C90.2441 88.0518 90.3057 88.2249 90.4287 88.3389C90.5518 88.4482 90.7044 88.5029 90.8867 88.5029ZM98.0918 85.2969V86.7393H96.9434C96.278 86.7393 95.7767 86.8145 95.4395 86.9648C95.1068 87.1107 94.9404 87.3477 94.9404 87.6758C94.9404 88.2454 95.5511 88.5303 96.7725 88.5303C97.2419 88.5303 97.7272 88.4801 98.2285 88.3799C98.7298 88.2751 99.1833 88.1292 99.5889 87.9424V89.6104C98.805 89.9613 97.8161 90.1367 96.6221 90.1367C95.4098 90.1367 94.4824 89.9499 93.8398 89.5762C93.2018 89.1979 92.8828 88.6351 92.8828 87.8877C92.8828 87.4001 93.0286 87.0036 93.3203 86.6982C93.612 86.3929 94.0859 86.1764 94.7422 86.0488V85.9805C93.7715 85.7572 93.2861 85.1693 93.2861 84.2168C93.2861 83.5742 93.5755 83.0798 94.1543 82.7334C94.7331 82.387 95.5557 82.2139 96.6221 82.2139C97.1462 82.2139 97.6725 82.2663 98.2012 82.3711C98.7344 82.4759 99.2015 82.6149 99.6025 82.7881L98.96 84.2988C98.4176 84.0801 97.9893 83.9365 97.6748 83.8682C97.3604 83.7952 97.0277 83.7588 96.6768 83.7588C96.1618 83.7588 95.779 83.8158 95.5283 83.9297C95.2777 84.0436 95.1523 84.2236 95.1523 84.4697C95.1523 84.7705 95.3027 84.9847 95.6035 85.1123C95.9089 85.2354 96.3874 85.2969 97.0391 85.2969H98.0918ZM108.154 86.1787C108.154 87.4229 107.874 88.3936 107.313 89.0908C106.757 89.7881 105.983 90.1367 104.989 90.1367C104.287 90.1367 103.647 89.9613 103.068 89.6104H102.945C103.018 90.3942 103.055 91.0049 103.055 91.4424V93.3633H100.956V86.165C100.956 84.9118 101.271 83.9411 101.899 83.2529C102.533 82.5602 103.431 82.2139 104.593 82.2139C105.299 82.2139 105.921 82.3757 106.459 82.6992C106.997 83.0182 107.414 83.4785 107.71 84.0801C108.006 84.6816 108.154 85.3812 108.154 86.1787ZM104.552 83.8955C104.037 83.8955 103.659 84.071 103.417 84.4219C103.175 84.7682 103.055 85.3174 103.055 86.0693V87.874C103.251 88.07 103.481 88.2181 103.745 88.3184C104.009 88.4141 104.278 88.4619 104.552 88.4619C105.071 88.4619 105.443 88.2842 105.666 87.9287C105.894 87.5687 106.008 86.9854 106.008 86.1787C106.008 85.3766 105.896 84.7956 105.673 84.4355C105.454 84.0755 105.08 83.8955 104.552 83.8955ZM111.962 82.3574V87.6074C111.962 87.9036 112.044 88.1224 112.208 88.2637C112.377 88.4049 112.598 88.4756 112.871 88.4756C113.24 88.4756 113.68 88.3958 114.19 88.2363V89.7881C113.694 90.0205 113.094 90.1367 112.393 90.1367C111.527 90.1367 110.891 89.9271 110.485 89.5078C110.08 89.084 109.877 88.4505 109.877 87.6074V82.3574H111.962ZM117.663 86.8213C117.663 87.3727 117.763 87.7874 117.964 88.0654C118.164 88.3389 118.479 88.4756 118.907 88.4756C119.481 88.4756 119.898 88.2796 120.158 87.8877C120.418 87.4912 120.548 86.8464 120.548 85.9531V82.3574H122.633V90H121.054L120.76 88.9746H120.657C120.466 89.362 120.233 89.6536 119.96 89.8496C119.687 90.041 119.349 90.1367 118.948 90.1367C118.666 90.1367 118.406 90.0843 118.169 89.9795C117.932 89.8747 117.741 89.722 117.595 89.5215L117.629 90.1025L117.663 91.1758V93.3633H115.578V82.3574H117.663V86.8213ZM129.469 85.2969V86.7393H128.32C127.655 86.7393 127.154 86.8145 126.816 86.9648C126.484 87.1107 126.317 87.3477 126.317 87.6758C126.317 88.2454 126.928 88.5303 128.149 88.5303C128.619 88.5303 129.104 88.4801 129.605 88.3799C130.107 88.2751 130.56 88.1292 130.966 87.9424V89.6104C130.182 89.9613 129.193 90.1367 127.999 90.1367C126.787 90.1367 125.859 89.9499 125.217 89.5762C124.579 89.1979 124.26 88.6351 124.26 87.8877C124.26 87.4001 124.406 87.0036 124.697 86.6982C124.989 86.3929 125.463 86.1764 126.119 86.0488V85.9805C125.148 85.7572 124.663 85.1693 124.663 84.2168C124.663 83.5742 124.952 83.0798 125.531 82.7334C126.11 82.387 126.933 82.2139 127.999 82.2139C128.523 82.2139 129.049 82.2663 129.578 82.3711C130.111 82.4759 130.578 82.6149 130.979 82.7881L130.337 84.2988C129.795 84.0801 129.366 83.9365 129.052 83.8682C128.737 83.7952 128.405 83.7588 128.054 83.7588C127.539 83.7588 127.156 83.8158 126.905 83.9297C126.655 84.0436 126.529 84.2236 126.529 84.4697C126.529 84.7705 126.68 84.9847 126.98 85.1123C127.286 85.2354 127.764 85.2969 128.416 85.2969H129.469ZM127.199 81.3047C127.281 81.0586 127.382 80.6849 127.5 80.1836C127.623 79.6823 127.71 79.2402 127.76 78.8574H129.694V79.0215C129.339 79.8691 128.913 80.7008 128.416 81.5166H127.199V81.3047ZM131.547 82.3574H133.687L135.177 86.5957L135.648 88.1543H135.703C136.227 87.457 136.605 86.6572 136.838 85.7549C137.07 84.8525 137.187 83.7201 137.187 82.3574H139.292C139.292 83.5241 139.192 84.5312 138.991 85.3789C138.791 86.222 138.472 87.0218 138.034 87.7783C137.601 88.5303 137.02 89.2708 136.291 90H134.418L131.547 82.3574ZM145.588 85.2969V86.7393H144.439C143.774 86.7393 143.273 86.8145 142.936 86.9648C142.603 87.1107 142.437 87.3477 142.437 87.6758C142.437 88.2454 143.047 88.5303 144.269 88.5303C144.738 88.5303 145.223 88.4801 145.725 88.3799C146.226 88.2751 146.679 88.1292 147.085 87.9424V89.6104C146.301 89.9613 145.312 90.1367 144.118 90.1367C142.906 90.1367 141.979 89.9499 141.336 89.5762C140.698 89.1979 140.379 88.6351 140.379 87.8877C140.379 87.4001 140.525 87.0036 140.816 86.6982C141.108 86.3929 141.582 86.1764 142.238 86.0488V85.9805C141.268 85.7572 140.782 85.1693 140.782 84.2168C140.782 83.5742 141.072 83.0798 141.65 82.7334C142.229 82.387 143.052 82.2139 144.118 82.2139C144.642 82.2139 145.169 82.2663 145.697 82.3711C146.23 82.4759 146.698 82.6149 147.099 82.7881L146.456 84.2988C145.914 84.0801 145.485 83.9365 145.171 83.8682C144.856 83.7952 144.524 83.7588 144.173 83.7588C143.658 83.7588 143.275 83.8158 143.024 83.9297C142.774 84.0436 142.648 84.2236 142.648 84.4697C142.648 84.7705 142.799 84.9847 143.1 85.1123C143.405 85.2354 143.883 85.2969 144.535 85.2969H145.588ZM151.911 83.9229V87.6074C151.911 87.9036 151.993 88.1224 152.157 88.2637C152.326 88.4049 152.547 88.4756 152.82 88.4756C153.185 88.4756 153.622 88.3958 154.133 88.2363V89.7881C153.645 90.0205 153.048 90.1367 152.342 90.1367C151.476 90.1367 150.84 89.9271 150.435 89.5078C150.029 89.084 149.826 88.4505 149.826 87.6074V83.9229H147.905V83.0547L149.108 82.3574H154.625V83.9229H151.911ZM160.9 85.2969V86.7393H159.752C159.087 86.7393 158.585 86.8145 158.248 86.9648C157.915 87.1107 157.749 87.3477 157.749 87.6758C157.749 88.2454 158.36 88.5303 159.581 88.5303C160.05 88.5303 160.536 88.4801 161.037 88.3799C161.538 88.2751 161.992 88.1292 162.397 87.9424V89.6104C161.614 89.9613 160.625 90.1367 159.431 90.1367C158.218 90.1367 157.291 89.9499 156.648 89.5762C156.01 89.1979 155.691 88.6351 155.691 87.8877C155.691 87.4001 155.837 87.0036 156.129 86.6982C156.421 86.3929 156.895 86.1764 157.551 86.0488V85.9805C156.58 85.7572 156.095 85.1693 156.095 84.2168C156.095 83.5742 156.384 83.0798 156.963 82.7334C157.542 82.387 158.364 82.2139 159.431 82.2139C159.955 82.2139 160.481 82.2663 161.01 82.3711C161.543 82.4759 162.01 82.6149 162.411 82.7881L161.769 84.2988C161.226 84.0801 160.798 83.9365 160.483 83.8682C160.169 83.7952 159.836 83.7588 159.485 83.7588C158.97 83.7588 158.588 83.8158 158.337 83.9297C158.086 84.0436 157.961 84.2236 157.961 84.4697C157.961 84.7705 158.111 84.9847 158.412 85.1123C158.717 85.2354 159.196 85.2969 159.848 85.2969H160.9ZM171.024 93.3633H168.816C168.816 92.9714 168.88 92.4495 169.008 91.7979C169.135 91.1462 169.299 90.5195 169.5 89.918L166.588 82.3574H168.755L169.876 85.7275C169.972 86.0101 170.095 86.4271 170.245 86.9785C170.396 87.5299 170.503 87.972 170.566 88.3047H170.607C170.626 88.1042 170.699 87.7441 170.826 87.2246C170.958 86.7005 171.095 86.2357 171.236 85.8301L172.357 82.3574H174.524L171.701 89.877C171.496 90.4056 171.332 90.9889 171.209 91.627C171.086 92.2695 171.024 92.8483 171.024 93.3633ZM177.71 82.3574V87.6074C177.71 87.9036 177.792 88.1224 177.956 88.2637C178.125 88.4049 178.346 88.4756 178.619 88.4756C178.988 88.4756 179.428 88.3958 179.938 88.2363V89.7881C179.442 90.0205 178.842 90.1367 178.141 90.1367C177.275 90.1367 176.639 89.9271 176.233 89.5078C175.828 89.084 175.625 88.4505 175.625 87.6074V82.3574H177.71ZM184.491 88.4756C185.029 88.4756 185.419 88.3138 185.66 87.9902C185.906 87.6621 186.038 87.0902 186.057 86.2744V86.1924C186.057 85.3721 185.929 84.7842 185.674 84.4287C185.423 84.0732 185.018 83.8955 184.457 83.8955C183.477 83.8955 182.987 84.6702 182.987 86.2197C182.987 86.9717 183.108 87.5368 183.35 87.915C183.596 88.2887 183.976 88.4756 184.491 88.4756ZM183.855 90.1367C182.921 90.1367 182.188 89.7904 181.654 89.0977C181.126 88.4049 180.861 87.4411 180.861 86.2061C180.861 84.9391 181.137 83.9593 181.688 83.2666C182.244 82.5739 183.019 82.2275 184.013 82.2275C184.55 82.2275 184.993 82.3232 185.339 82.5146C185.69 82.7061 185.979 82.9932 186.207 83.376H186.31C186.419 82.9476 186.572 82.6081 186.768 82.3574H188.49C188.344 82.7995 188.226 83.3076 188.135 83.8818C188.048 84.4515 188.005 84.9733 188.005 85.4473V87.5801C188.005 88.1178 188.196 88.3867 188.579 88.3867C188.725 88.3867 188.859 88.3639 188.982 88.3184V89.959C188.91 90.0046 188.768 90.0456 188.559 90.082C188.354 90.1185 188.183 90.1367 188.046 90.1367C187.535 90.1367 187.146 90.0501 186.877 89.877C186.608 89.6992 186.396 89.4053 186.241 88.9951H186.098C185.596 89.7562 184.849 90.1367 183.855 90.1367ZM197.22 83.9229V87.6074C197.22 87.9036 197.302 88.1224 197.466 88.2637C197.634 88.4049 197.855 88.4756 198.129 88.4756C198.493 88.4756 198.931 88.3958 199.441 88.2363V89.7881C198.954 90.0205 198.357 90.1367 197.65 90.1367C196.785 90.1367 196.149 89.9271 195.743 89.5078C195.338 89.084 195.135 88.4505 195.135 87.6074V83.9229H193.214V83.0547L194.417 82.3574H199.934V83.9229H197.22ZM204.726 88.4756C205.263 88.4756 205.653 88.3138 205.895 87.9902C206.141 87.6621 206.273 87.0902 206.291 86.2744V86.1924C206.291 85.3721 206.163 84.7842 205.908 84.4287C205.658 84.0732 205.252 83.8955 204.691 83.8955C203.712 83.8955 203.222 84.6702 203.222 86.2197C203.222 86.9717 203.342 87.5368 203.584 87.915C203.83 88.2887 204.211 88.4756 204.726 88.4756ZM204.09 90.1367C203.156 90.1367 202.422 89.7904 201.889 89.0977C201.36 88.4049 201.096 87.4411 201.096 86.2061C201.096 84.9391 201.371 83.9593 201.923 83.2666C202.479 82.5739 203.254 82.2275 204.247 82.2275C204.785 82.2275 205.227 82.3232 205.573 82.5146C205.924 82.7061 206.214 82.9932 206.441 83.376H206.544C206.653 82.9476 206.806 82.6081 207.002 82.3574H208.725C208.579 82.7995 208.46 83.3076 208.369 83.8818C208.283 84.4515 208.239 84.9733 208.239 85.4473V87.5801C208.239 88.1178 208.431 88.3867 208.813 88.3867C208.959 88.3867 209.094 88.3639 209.217 88.3184V89.959C209.144 90.0046 209.003 90.0456 208.793 90.082C208.588 90.1185 208.417 90.1367 208.28 90.1367C207.77 90.1367 207.38 90.0501 207.111 89.877C206.842 89.6992 206.631 89.4053 206.476 88.9951H206.332C205.831 89.7562 205.083 90.1367 204.09 90.1367ZM86.2588 107.476C86.7965 107.476 87.1862 107.314 87.4277 106.99C87.6738 106.662 87.806 106.09 87.8242 105.274V105.192C87.8242 104.372 87.6966 103.784 87.4414 103.429C87.1908 103.073 86.7852 102.896 86.2246 102.896C85.2448 102.896 84.7549 103.67 84.7549 105.22C84.7549 105.972 84.8757 106.537 85.1172 106.915C85.3633 107.289 85.7438 107.476 86.2588 107.476ZM85.623 109.137C84.6888 109.137 83.9551 108.79 83.4219 108.098C82.8932 107.405 82.6289 106.441 82.6289 105.206C82.6289 103.939 82.9046 102.959 83.4561 102.267C84.012 101.574 84.7868 101.228 85.7803 101.228C86.318 101.228 86.7601 101.323 87.1064 101.515C87.4574 101.706 87.7467 101.993 87.9746 102.376H88.0771C88.1865 101.948 88.3392 101.608 88.5352 101.357H90.2578C90.112 101.799 89.9935 102.308 89.9023 102.882C89.8158 103.451 89.7725 103.973 89.7725 104.447V106.58C89.7725 107.118 89.9639 107.387 90.3467 107.387C90.4925 107.387 90.627 107.364 90.75 107.318V108.959C90.6771 109.005 90.5358 109.046 90.3262 109.082C90.1211 109.118 89.9502 109.137 89.8135 109.137C89.3031 109.137 88.9134 109.05 88.6445 108.877C88.3757 108.699 88.1637 108.405 88.0088 107.995H87.8652C87.3639 108.756 86.6165 109.137 85.623 109.137ZM99.9512 107.503C100.257 107.503 100.553 107.423 100.84 107.264V108.761C100.653 108.875 100.414 108.966 100.122 109.034C99.835 109.103 99.5684 109.137 99.3223 109.137C98.6387 109.137 98.1169 108.95 97.7568 108.576C97.4014 108.202 97.2236 107.644 97.2236 106.901V102.95H94.9131V109H92.8281V102.95H91.2354V102.055L92.4521 101.357H100.922V102.95H99.3086V106.819C99.3086 107.052 99.3701 107.225 99.4932 107.339C99.6162 107.448 99.7689 107.503 99.9512 107.503ZM104.169 105.165C104.169 105.922 104.292 106.493 104.538 106.881C104.789 107.268 105.194 107.462 105.755 107.462C106.311 107.462 106.71 107.271 106.951 106.888C107.197 106.5 107.32 105.926 107.32 105.165C107.32 104.409 107.197 103.841 106.951 103.463C106.705 103.085 106.302 102.896 105.741 102.896C105.185 102.896 104.784 103.085 104.538 103.463C104.292 103.837 104.169 104.404 104.169 105.165ZM109.453 105.165C109.453 106.409 109.125 107.382 108.469 108.084C107.812 108.786 106.899 109.137 105.728 109.137C104.994 109.137 104.347 108.977 103.786 108.658C103.226 108.335 102.795 107.872 102.494 107.271C102.193 106.669 102.043 105.967 102.043 105.165C102.043 103.916 102.369 102.946 103.021 102.253C103.672 101.56 104.588 101.214 105.769 101.214C106.502 101.214 107.149 101.373 107.71 101.692C108.271 102.011 108.701 102.469 109.002 103.066C109.303 103.663 109.453 104.363 109.453 105.165ZM114.368 102.923V106.607C114.368 106.904 114.45 107.122 114.614 107.264C114.783 107.405 115.004 107.476 115.277 107.476C115.642 107.476 116.079 107.396 116.59 107.236V108.788C116.102 109.021 115.505 109.137 114.799 109.137C113.933 109.137 113.297 108.927 112.892 108.508C112.486 108.084 112.283 107.451 112.283 106.607V102.923H110.362V102.055L111.565 101.357H117.082V102.923H114.368ZM123.357 104.297V105.739H122.209C121.544 105.739 121.042 105.814 120.705 105.965C120.372 106.111 120.206 106.348 120.206 106.676C120.206 107.245 120.817 107.53 122.038 107.53C122.507 107.53 122.993 107.48 123.494 107.38C123.995 107.275 124.449 107.129 124.854 106.942V108.61C124.071 108.961 123.082 109.137 121.888 109.137C120.675 109.137 119.748 108.95 119.105 108.576C118.467 108.198 118.148 107.635 118.148 106.888C118.148 106.4 118.294 106.004 118.586 105.698C118.878 105.393 119.352 105.176 120.008 105.049V104.98C119.037 104.757 118.552 104.169 118.552 103.217C118.552 102.574 118.841 102.08 119.42 101.733C119.999 101.387 120.821 101.214 121.888 101.214C122.412 101.214 122.938 101.266 123.467 101.371C124 101.476 124.467 101.615 124.868 101.788L124.226 103.299C123.683 103.08 123.255 102.937 122.94 102.868C122.626 102.795 122.293 102.759 121.942 102.759C121.427 102.759 121.045 102.816 120.794 102.93C120.543 103.044 120.418 103.224 120.418 103.47C120.418 103.771 120.568 103.985 120.869 104.112C121.174 104.235 121.653 104.297 122.305 104.297H123.357ZM125.449 109L128.683 101.774L128.443 101.146C128.279 100.735 128.092 100.446 127.883 100.277C127.673 100.109 127.352 100.024 126.919 100.024C126.691 100.024 126.459 100.054 126.222 100.113V98.3906C126.582 98.3132 126.96 98.2744 127.356 98.2744C127.881 98.2744 128.327 98.3542 128.696 98.5137C129.07 98.6732 129.387 98.9215 129.646 99.2588C129.911 99.5915 130.159 100.081 130.392 100.729L132.312 106.006C132.481 106.48 132.652 106.828 132.825 107.052C132.998 107.275 133.21 107.387 133.461 107.387C133.611 107.387 133.769 107.364 133.933 107.318V108.932C133.828 108.986 133.646 109.034 133.386 109.075C133.126 109.116 132.907 109.137 132.729 109.137C132.228 109.137 131.818 109.014 131.499 108.768C131.18 108.521 130.927 108.127 130.74 107.585C130.221 106.113 129.911 105.227 129.811 104.926C129.715 104.62 129.637 104.349 129.578 104.112H129.537C129.327 104.814 129.154 105.338 129.018 105.685L127.609 109H125.449ZM139.75 104.297V105.739H138.602C137.936 105.739 137.435 105.814 137.098 105.965C136.765 106.111 136.599 106.348 136.599 106.676C136.599 107.245 137.209 107.53 138.431 107.53C138.9 107.53 139.385 107.48 139.887 107.38C140.388 107.275 140.841 107.129 141.247 106.942V108.61C140.463 108.961 139.474 109.137 138.28 109.137C137.068 109.137 136.141 108.95 135.498 108.576C134.86 108.198 134.541 107.635 134.541 106.888C134.541 106.4 134.687 106.004 134.979 105.698C135.27 105.393 135.744 105.176 136.4 105.049V104.98C135.43 104.757 134.944 104.169 134.944 103.217C134.944 102.574 135.234 102.08 135.812 101.733C136.391 101.387 137.214 101.214 138.28 101.214C138.804 101.214 139.331 101.266 139.859 101.371C140.393 101.476 140.86 101.615 141.261 101.788L140.618 103.299C140.076 103.08 139.647 102.937 139.333 102.868C139.019 102.795 138.686 102.759 138.335 102.759C137.82 102.759 137.437 102.816 137.187 102.93C136.936 103.044 136.811 103.224 136.811 103.47C136.811 103.771 136.961 103.985 137.262 104.112C137.567 104.235 138.046 104.297 138.697 104.297H139.75ZM137.48 100.305C137.562 100.059 137.663 99.6849 137.781 99.1836C137.904 98.6823 137.991 98.2402 138.041 97.8574H139.976V98.0215C139.62 98.8691 139.194 99.7008 138.697 100.517H137.48V100.305ZM149.936 105.753C149.936 106.418 149.781 107.011 149.471 107.53C149.165 108.045 148.726 108.442 148.151 108.72C147.582 108.998 146.916 109.137 146.155 109.137C144.97 109.137 144.05 108.795 143.394 108.111C142.742 107.423 142.416 106.478 142.416 105.274C142.416 102.654 143.854 101.344 146.729 101.344H150.646V102.868H148.705C149.525 103.734 149.936 104.696 149.936 105.753ZM144.562 105.274C144.562 105.985 144.697 106.528 144.966 106.901C145.239 107.275 145.645 107.462 146.183 107.462C146.711 107.462 147.112 107.289 147.386 106.942C147.659 106.591 147.796 106.088 147.796 105.432C147.796 104.926 147.728 104.468 147.591 104.058C147.459 103.643 147.238 103.246 146.928 102.868H146.586C145.848 102.868 145.326 103.055 145.021 103.429C144.715 103.802 144.562 104.418 144.562 105.274ZM154.112 105.821C154.112 106.373 154.213 106.787 154.413 107.065C154.614 107.339 154.928 107.476 155.356 107.476C155.931 107.476 156.348 107.28 156.607 106.888C156.867 106.491 156.997 105.846 156.997 104.953V101.357H159.082V109H157.503L157.209 107.975H157.106C156.915 108.362 156.683 108.654 156.409 108.85C156.136 109.041 155.799 109.137 155.397 109.137C155.115 109.137 154.855 109.084 154.618 108.979C154.381 108.875 154.19 108.722 154.044 108.521L154.078 109.103L154.112 110.176V112.363H152.027V101.357H154.112V105.821ZM164.435 107.476C164.972 107.476 165.362 107.314 165.604 106.99C165.85 106.662 165.982 106.09 166 105.274V105.192C166 104.372 165.872 103.784 165.617 103.429C165.367 103.073 164.961 102.896 164.4 102.896C163.421 102.896 162.931 103.67 162.931 105.22C162.931 105.972 163.051 106.537 163.293 106.915C163.539 107.289 163.92 107.476 164.435 107.476ZM163.799 109.137C162.865 109.137 162.131 108.79 161.598 108.098C161.069 107.405 160.805 106.441 160.805 105.206C160.805 103.939 161.08 102.959 161.632 102.267C162.188 101.574 162.963 101.228 163.956 101.228C164.494 101.228 164.936 101.323 165.282 101.515C165.633 101.706 165.923 101.993 166.15 102.376H166.253C166.362 101.948 166.515 101.608 166.711 101.357H168.434C168.288 101.799 168.169 102.308 168.078 102.882C167.992 103.451 167.948 103.973 167.948 104.447V106.58C167.948 107.118 168.14 107.387 168.522 107.387C168.668 107.387 168.803 107.364 168.926 107.318V108.959C168.853 109.005 168.712 109.046 168.502 109.082C168.297 109.118 168.126 109.137 167.989 109.137C167.479 109.137 167.089 109.05 166.82 108.877C166.551 108.699 166.34 108.405 166.185 107.995H166.041C165.54 108.756 164.792 109.137 163.799 109.137ZM173.526 102.923V106.607C173.526 106.904 173.608 107.122 173.772 107.264C173.941 107.405 174.162 107.476 174.436 107.476C174.8 107.476 175.238 107.396 175.748 107.236V108.788C175.26 109.021 174.663 109.137 173.957 109.137C173.091 109.137 172.455 108.927 172.05 108.508C171.644 108.084 171.441 107.451 171.441 106.607V102.923H169.521V102.055L170.724 101.357H176.24V102.923H173.526ZM181.032 107.476C181.57 107.476 181.96 107.314 182.201 106.99C182.447 106.662 182.579 106.09 182.598 105.274V105.192C182.598 104.372 182.47 103.784 182.215 103.429C181.964 103.073 181.559 102.896 180.998 102.896C180.018 102.896 179.528 103.67 179.528 105.22C179.528 105.972 179.649 106.537 179.891 106.915C180.137 107.289 180.517 107.476 181.032 107.476ZM180.396 109.137C179.462 109.137 178.729 108.79 178.195 108.098C177.667 107.405 177.402 106.441 177.402 105.206C177.402 103.939 177.678 102.959 178.229 102.267C178.785 101.574 179.56 101.228 180.554 101.228C181.091 101.228 181.534 101.323 181.88 101.515C182.231 101.706 182.52 101.993 182.748 102.376H182.851C182.96 101.948 183.113 101.608 183.309 101.357H185.031C184.885 101.799 184.767 102.308 184.676 102.882C184.589 103.451 184.546 103.973 184.546 104.447V106.58C184.546 107.118 184.737 107.387 185.12 107.387C185.266 107.387 185.4 107.364 185.523 107.318V108.959C185.451 109.005 185.309 109.046 185.1 109.082C184.895 109.118 184.724 109.137 184.587 109.137C184.076 109.137 183.687 109.05 183.418 108.877C183.149 108.699 182.937 108.405 182.782 107.995H182.639C182.137 108.756 181.39 109.137 180.396 109.137ZM188.23 107.373L188.333 107.53C188.215 107.986 188.044 108.515 187.82 109.116C187.597 109.722 187.365 110.285 187.123 110.805H186.269C186.392 110.331 186.526 109.745 186.672 109.048C186.822 108.351 186.927 107.792 186.986 107.373H188.23ZM196.953 108.187C197.723 108.187 198.279 107.965 198.621 107.523C198.963 107.077 199.134 106.357 199.134 105.363V105.261C199.134 104.217 198.961 103.47 198.614 103.019C198.268 102.563 197.71 102.335 196.939 102.335C195.559 102.335 194.868 103.319 194.868 105.288C194.868 106.254 195.035 106.979 195.367 107.462C195.704 107.945 196.233 108.187 196.953 108.187ZM196.782 109.137C195.807 109.137 195.048 108.799 194.506 108.125C193.964 107.446 193.692 106.496 193.692 105.274C193.692 104.026 193.97 103.064 194.526 102.39C195.082 101.711 195.873 101.371 196.898 101.371C197.45 101.371 197.908 101.467 198.272 101.658C198.642 101.85 198.949 102.137 199.195 102.52H199.277C199.387 102.1 199.535 101.763 199.722 101.508H200.604C200.508 101.809 200.428 102.239 200.364 102.8C200.3 103.36 200.269 103.905 200.269 104.434V107.435C200.269 107.954 200.46 108.214 200.843 108.214C200.975 108.214 201.116 108.191 201.267 108.146V108.959C201.057 109.077 200.804 109.137 200.508 109.137C200.139 109.137 199.852 109.046 199.646 108.863C199.446 108.676 199.305 108.387 199.223 107.995H199.134C198.865 108.387 198.539 108.676 198.156 108.863C197.778 109.046 197.32 109.137 196.782 109.137ZM201.465 101.508H202.641L204.138 105.541C204.256 105.846 204.409 106.27 204.596 106.812C204.787 107.355 204.919 107.767 204.992 108.05H205.047C205.854 107.252 206.437 106.348 206.797 105.336C207.161 104.32 207.344 103.044 207.344 101.508H208.479C208.479 103.162 208.242 104.568 207.768 105.726C207.298 106.883 206.551 107.975 205.525 109H204.254L201.465 101.508ZM213.1 108.187C213.87 108.187 214.426 107.965 214.768 107.523C215.109 107.077 215.28 106.357 215.28 105.363V105.261C215.28 104.217 215.107 103.47 214.761 103.019C214.414 102.563 213.856 102.335 213.086 102.335C211.705 102.335 211.015 103.319 211.015 105.288C211.015 106.254 211.181 106.979 211.514 107.462C211.851 107.945 212.38 108.187 213.1 108.187ZM212.929 109.137C211.953 109.137 211.195 108.799 210.652 108.125C210.11 107.446 209.839 106.496 209.839 105.274C209.839 104.026 210.117 103.064 210.673 102.39C211.229 101.711 212.02 101.371 213.045 101.371C213.596 101.371 214.054 101.467 214.419 101.658C214.788 101.85 215.096 102.137 215.342 102.52H215.424C215.533 102.1 215.681 101.763 215.868 101.508H216.75C216.654 101.809 216.575 102.239 216.511 102.8C216.447 103.36 216.415 103.905 216.415 104.434V107.435C216.415 107.954 216.606 108.214 216.989 108.214C217.121 108.214 217.263 108.191 217.413 108.146V108.959C217.203 109.077 216.951 109.137 216.654 109.137C216.285 109.137 215.998 109.046 215.793 108.863C215.592 108.676 215.451 108.387 215.369 107.995H215.28C215.011 108.387 214.686 108.676 214.303 108.863C213.924 109.046 213.466 109.137 212.929 109.137ZM212.724 100.318C212.847 99.9902 212.967 99.5687 213.086 99.0537C213.209 98.5342 213.298 98.0876 213.353 97.7139H214.61V97.8711C214.528 98.2083 214.362 98.6481 214.111 99.1904C213.865 99.7282 213.631 100.17 213.407 100.517H212.724V100.318ZM217.516 109L220.749 101.624L220.353 100.517C220.216 100.129 220.09 99.8558 219.977 99.6963C219.863 99.5368 219.728 99.416 219.573 99.334C219.423 99.252 219.236 99.2109 219.013 99.2109C218.748 99.2109 218.486 99.2406 218.227 99.2998V98.3906C218.536 98.3132 218.835 98.2744 219.122 98.2744C219.537 98.2744 219.881 98.3428 220.154 98.4795C220.432 98.6162 220.672 98.8327 220.872 99.1289C221.073 99.4251 221.296 99.9196 221.542 100.612L224.023 107.53C224.11 107.754 224.201 107.924 224.297 108.043C224.393 108.157 224.52 108.214 224.68 108.214C224.803 108.214 224.939 108.191 225.09 108.146V108.973C224.871 109.082 224.623 109.137 224.345 109.137C224.007 109.137 223.743 109.05 223.552 108.877C223.365 108.704 223.205 108.428 223.073 108.05L222.007 105.069C221.624 103.976 221.382 103.21 221.282 102.772H221.221C221.093 103.301 220.829 104.042 220.428 104.994L218.691 109H217.516ZM232.76 105.247C232.76 106.468 232.452 107.423 231.837 108.111C231.222 108.795 230.372 109.137 229.287 109.137C228.617 109.137 228.022 108.979 227.503 108.665C226.983 108.351 226.582 107.899 226.3 107.312C226.017 106.724 225.876 106.035 225.876 105.247C225.876 104.026 226.181 103.076 226.792 102.396C227.403 101.713 228.25 101.371 229.335 101.371C230.383 101.371 231.215 101.72 231.83 102.417C232.45 103.114 232.76 104.058 232.76 105.247ZM227.052 105.247C227.052 106.204 227.243 106.933 227.626 107.435C228.009 107.936 228.572 108.187 229.314 108.187C230.057 108.187 230.62 107.938 231.003 107.441C231.39 106.94 231.584 106.209 231.584 105.247C231.584 104.295 231.39 103.572 231.003 103.08C230.62 102.583 230.053 102.335 229.301 102.335C228.558 102.335 227.997 102.579 227.619 103.066C227.241 103.554 227.052 104.281 227.052 105.247ZM237.189 112.363H235.959C235.959 111.926 236.032 111.372 236.178 110.702C236.324 110.032 236.494 109.438 236.69 108.918L233.621 101.508H234.797L236.438 105.5C236.866 106.571 237.123 107.341 237.21 107.811H237.265C237.287 107.674 237.344 107.444 237.436 107.12C237.531 106.797 237.627 106.489 237.723 106.197C237.823 105.901 238.406 104.338 239.473 101.508H240.648L237.88 108.815C237.661 109.381 237.49 109.996 237.367 110.661C237.249 111.326 237.189 111.894 237.189 112.363ZM244.777 108.187C245.548 108.187 246.104 107.965 246.445 107.523C246.787 107.077 246.958 106.357 246.958 105.363V105.261C246.958 104.217 246.785 103.47 246.438 103.019C246.092 102.563 245.534 102.335 244.764 102.335C243.383 102.335 242.692 103.319 242.692 105.288C242.692 106.254 242.859 106.979 243.191 107.462C243.529 107.945 244.057 108.187 244.777 108.187ZM244.606 109.137C243.631 109.137 242.872 108.799 242.33 108.125C241.788 107.446 241.517 106.496 241.517 105.274C241.517 104.026 241.795 103.064 242.351 102.39C242.907 101.711 243.697 101.371 244.723 101.371C245.274 101.371 245.732 101.467 246.097 101.658C246.466 101.85 246.773 102.137 247.02 102.52H247.102C247.211 102.1 247.359 101.763 247.546 101.508H248.428C248.332 101.809 248.252 102.239 248.188 102.8C248.125 103.36 248.093 103.905 248.093 104.434V107.435C248.093 107.954 248.284 108.214 248.667 108.214C248.799 108.214 248.94 108.191 249.091 108.146V108.959C248.881 109.077 248.628 109.137 248.332 109.137C247.963 109.137 247.676 109.046 247.471 108.863C247.27 108.676 247.129 108.387 247.047 107.995H246.958C246.689 108.387 246.363 108.676 245.98 108.863C245.602 109.046 245.144 109.137 244.606 109.137ZM258.497 101.521H259.912L257.082 104.816L260.11 109H258.736L256.269 105.555L255.346 106.327V109H254.129V101.521H255.346V103.456C255.346 104.213 255.318 104.848 255.264 105.363L258.497 101.521ZM264.232 108.187C265.003 108.187 265.559 107.965 265.9 107.523C266.242 107.077 266.413 106.357 266.413 105.363V105.261C266.413 104.217 266.24 103.47 265.894 103.019C265.547 102.563 264.989 102.335 264.219 102.335C262.838 102.335 262.147 103.319 262.147 105.288C262.147 106.254 262.314 106.979 262.646 107.462C262.984 107.945 263.512 108.187 264.232 108.187ZM264.062 109.137C263.086 109.137 262.327 108.799 261.785 108.125C261.243 107.446 260.972 106.496 260.972 105.274C260.972 104.026 261.25 103.064 261.806 102.39C262.362 101.711 263.152 101.371 264.178 101.371C264.729 101.371 265.187 101.467 265.552 101.658C265.921 101.85 266.229 102.137 266.475 102.52H266.557C266.666 102.1 266.814 101.763 267.001 101.508H267.883C267.787 101.809 267.707 102.239 267.644 102.8C267.58 103.36 267.548 103.905 267.548 104.434V107.435C267.548 107.954 267.739 108.214 268.122 108.214C268.254 108.214 268.396 108.191 268.546 108.146V108.959C268.336 109.077 268.083 109.137 267.787 109.137C267.418 109.137 267.131 109.046 266.926 108.863C266.725 108.676 266.584 108.387 266.502 107.995H266.413C266.144 108.387 265.818 108.676 265.436 108.863C265.057 109.046 264.599 109.137 264.062 109.137ZM271.027 101.508V106.799C271.027 107.273 271.109 107.626 271.273 107.858C271.442 108.086 271.725 108.2 272.121 108.2C272.29 108.2 272.488 108.187 272.716 108.159C272.948 108.127 273.126 108.095 273.249 108.063V108.932C273.108 108.991 272.916 109.039 272.675 109.075C272.438 109.116 272.205 109.137 271.978 109.137C271.248 109.137 270.717 108.945 270.385 108.562C270.057 108.18 269.893 107.603 269.893 106.833V101.508H271.027ZM283.38 101.508V102.479H280.427V106.703C280.427 107.719 280.894 108.228 281.828 108.228C282.042 108.228 282.261 108.214 282.484 108.187C282.708 108.155 282.881 108.123 283.004 108.091V108.945C282.844 109.014 282.637 109.068 282.382 109.109C282.131 109.15 281.896 109.171 281.678 109.171C280.853 109.171 280.247 108.977 279.859 108.59C279.472 108.202 279.278 107.621 279.278 106.847V102.479H277.248V101.973L278.26 101.508H283.38ZM291.426 105.247C291.426 106.468 291.118 107.423 290.503 108.111C289.888 108.795 289.038 109.137 287.953 109.137C287.283 109.137 286.688 108.979 286.169 108.665C285.649 108.351 285.248 107.899 284.966 107.312C284.683 106.724 284.542 106.035 284.542 105.247C284.542 104.026 284.847 103.076 285.458 102.396C286.069 101.713 286.916 101.371 288.001 101.371C289.049 101.371 289.881 101.72 290.496 102.417C291.116 103.114 291.426 104.058 291.426 105.247ZM285.718 105.247C285.718 106.204 285.909 106.933 286.292 107.435C286.675 107.936 287.238 108.187 287.98 108.187C288.723 108.187 289.286 107.938 289.669 107.441C290.056 106.94 290.25 106.209 290.25 105.247C290.25 104.295 290.056 103.572 289.669 103.08C289.286 102.583 288.719 102.335 287.967 102.335C287.224 102.335 286.663 102.579 286.285 103.066C285.907 103.554 285.718 104.281 285.718 105.247ZM84.2832 120.508V125.799C84.2832 126.273 84.3652 126.626 84.5293 126.858C84.6979 127.086 84.9805 127.2 85.377 127.2C85.5456 127.2 85.7438 127.187 85.9717 127.159C86.2041 127.127 86.3818 127.095 86.5049 127.063V127.932C86.3636 127.991 86.1722 128.039 85.9307 128.075C85.6937 128.116 85.4613 128.137 85.2334 128.137C84.5042 128.137 83.9733 127.945 83.6406 127.562C83.3125 127.18 83.1484 126.603 83.1484 125.833V120.508H84.2832ZM90.791 127.187C91.5612 127.187 92.1172 126.965 92.459 126.523C92.8008 126.077 92.9717 125.357 92.9717 124.363V124.261C92.9717 123.217 92.7985 122.47 92.4521 122.019C92.1058 121.563 91.5475 121.335 90.7773 121.335C89.3965 121.335 88.7061 122.319 88.7061 124.288C88.7061 125.254 88.8724 125.979 89.2051 126.462C89.5423 126.945 90.071 127.187 90.791 127.187ZM90.6201 128.137C89.6449 128.137 88.8861 127.799 88.3438 127.125C87.8014 126.446 87.5303 125.496 87.5303 124.274C87.5303 123.026 87.8083 122.064 88.3643 121.39C88.9202 120.711 89.7109 120.371 90.7363 120.371C91.2878 120.371 91.7458 120.467 92.1104 120.658C92.4795 120.85 92.7871 121.137 93.0332 121.52H93.1152C93.2246 121.1 93.3727 120.763 93.5596 120.508H94.4414C94.3457 120.809 94.266 121.239 94.2021 121.8C94.1383 122.36 94.1064 122.905 94.1064 123.434V126.435C94.1064 126.954 94.2979 127.214 94.6807 127.214C94.8128 127.214 94.9541 127.191 95.1045 127.146V127.959C94.8949 128.077 94.6419 128.137 94.3457 128.137C93.9766 128.137 93.6895 128.046 93.4844 127.863C93.2839 127.676 93.1426 127.387 93.0605 126.995H92.9717C92.7028 127.387 92.377 127.676 91.9941 127.863C91.6159 128.046 91.1579 128.137 90.6201 128.137ZM101.558 120.508V121.479H98.6045V125.703C98.6045 126.719 99.0716 127.228 100.006 127.228C100.22 127.228 100.439 127.214 100.662 127.187C100.885 127.155 101.059 127.123 101.182 127.091V127.945C101.022 128.014 100.815 128.068 100.56 128.109C100.309 128.15 100.074 128.171 99.8555 128.171C99.0306 128.171 98.4245 127.977 98.0371 127.59C97.6497 127.202 97.4561 126.621 97.4561 125.847V121.479H95.4258V120.973L96.4375 120.508H101.558ZM109.604 124.247C109.604 125.482 109.312 126.439 108.729 127.118C108.145 127.797 107.323 128.137 106.261 128.137C105.445 128.137 104.764 127.923 104.217 127.494H104.162C104.199 127.772 104.217 128.394 104.217 129.36V131.363H103.068V124.151C103.068 122.939 103.353 122.007 103.923 121.355C104.497 120.699 105.317 120.371 106.384 120.371C107.382 120.371 108.168 120.717 108.742 121.41C109.316 122.098 109.604 123.044 109.604 124.247ZM106.329 121.335C105.609 121.335 105.076 121.572 104.729 122.046C104.388 122.515 104.217 123.226 104.217 124.179V126.489C104.773 126.954 105.468 127.187 106.302 127.187C107.026 127.187 107.562 126.95 107.908 126.476C108.255 126.002 108.428 125.259 108.428 124.247C108.428 123.272 108.264 122.543 107.936 122.06C107.607 121.576 107.072 121.335 106.329 121.335ZM112.68 120.508V125.799C112.68 126.273 112.762 126.626 112.926 126.858C113.094 127.086 113.377 127.2 113.773 127.2C113.942 127.2 114.14 127.187 114.368 127.159C114.601 127.127 114.778 127.095 114.901 127.063V127.932C114.76 127.991 114.569 128.039 114.327 128.075C114.09 128.116 113.858 128.137 113.63 128.137C112.901 128.137 112.37 127.945 112.037 127.562C111.709 127.18 111.545 126.603 111.545 125.833V120.508H112.68ZM120.712 120.521H122.127L119.297 123.816L122.325 128H120.951L118.483 124.555L117.561 125.327V128H116.344V120.521H117.561V122.456C117.561 123.213 117.533 123.848 117.479 124.363L120.712 120.521ZM130.07 124.247C130.07 125.468 129.763 126.423 129.147 127.111C128.532 127.795 127.682 128.137 126.598 128.137C125.928 128.137 125.333 127.979 124.813 127.665C124.294 127.351 123.893 126.899 123.61 126.312C123.328 125.724 123.187 125.035 123.187 124.247C123.187 123.026 123.492 122.076 124.103 121.396C124.713 120.713 125.561 120.371 126.646 120.371C127.694 120.371 128.525 120.72 129.141 121.417C129.76 122.114 130.07 123.058 130.07 124.247ZM124.362 124.247C124.362 125.204 124.554 125.933 124.937 126.435C125.319 126.936 125.882 127.187 126.625 127.187C127.368 127.187 127.931 126.938 128.313 126.441C128.701 125.94 128.895 125.209 128.895 124.247C128.895 123.295 128.701 122.572 128.313 122.08C127.931 121.583 127.363 121.335 126.611 121.335C125.868 121.335 125.308 121.579 124.93 122.066C124.551 122.554 124.362 123.281 124.362 124.247ZM126.099 119.318C126.222 118.99 126.342 118.569 126.461 118.054C126.584 117.534 126.673 117.088 126.728 116.714H127.985V116.871C127.903 117.208 127.737 117.648 127.486 118.19C127.24 118.728 127.006 119.17 126.782 119.517H126.099V119.318ZM142.156 124.527C142.156 125.243 142.015 125.876 141.732 126.428C141.454 126.975 141.053 127.396 140.529 127.692C140.01 127.989 139.399 128.137 138.697 128.137C137.626 128.137 136.79 127.809 136.188 127.152C135.587 126.496 135.286 125.589 135.286 124.432C135.286 121.816 136.635 120.508 139.333 120.508H142.744V121.479H140.939C141.751 122.24 142.156 123.256 142.156 124.527ZM136.462 124.432C136.462 125.316 136.656 125.997 137.043 126.476C137.43 126.95 137.991 127.187 138.725 127.187C139.449 127.187 140.005 126.963 140.393 126.517C140.785 126.065 140.98 125.425 140.98 124.596C140.98 123.365 140.584 122.326 139.791 121.479H139.347C138.335 121.479 137.601 121.715 137.146 122.189C136.69 122.663 136.462 123.411 136.462 124.432ZM147.133 127.187C147.903 127.187 148.459 126.965 148.801 126.523C149.143 126.077 149.313 125.357 149.313 124.363V124.261C149.313 123.217 149.14 122.47 148.794 122.019C148.448 121.563 147.889 121.335 147.119 121.335C145.738 121.335 145.048 122.319 145.048 124.288C145.048 125.254 145.214 125.979 145.547 126.462C145.884 126.945 146.413 127.187 147.133 127.187ZM146.962 128.137C145.987 128.137 145.228 127.799 144.686 127.125C144.143 126.446 143.872 125.496 143.872 124.274C143.872 123.026 144.15 122.064 144.706 121.39C145.262 120.711 146.053 120.371 147.078 120.371C147.63 120.371 148.088 120.467 148.452 120.658C148.821 120.85 149.129 121.137 149.375 121.52H149.457C149.566 121.1 149.715 120.763 149.901 120.508H150.783C150.688 120.809 150.608 121.239 150.544 121.8C150.48 122.36 150.448 122.905 150.448 123.434V126.435C150.448 126.954 150.64 127.214 151.022 127.214C151.155 127.214 151.296 127.191 151.446 127.146V127.959C151.237 128.077 150.984 128.137 150.688 128.137C150.318 128.137 150.031 128.046 149.826 127.863C149.626 127.676 149.484 127.387 149.402 126.995H149.313C149.045 127.387 148.719 127.676 148.336 127.863C147.958 128.046 147.5 128.137 146.962 128.137ZM153.606 124.432C153.606 125.047 153.673 125.505 153.805 125.806C153.941 126.106 154.172 126.348 154.495 126.53C154.823 126.713 155.352 126.881 156.081 127.036C156.756 127.182 157.241 127.378 157.537 127.624C157.838 127.866 157.988 128.191 157.988 128.602C157.988 128.902 157.927 129.226 157.804 129.572C157.681 129.919 157.466 130.308 157.161 130.741H156.095C156.341 130.422 156.539 130.094 156.689 129.757C156.844 129.42 156.922 129.137 156.922 128.909C156.922 128.727 156.863 128.581 156.744 128.472C156.63 128.367 156.448 128.271 156.197 128.185C155.947 128.098 155.6 128.014 155.158 127.932C154.229 127.763 153.54 127.389 153.094 126.811C152.652 126.232 152.431 125.443 152.431 124.445C152.431 123.142 152.745 122.137 153.374 121.431C154.003 120.724 154.882 120.371 156.013 120.371C156.373 120.371 156.733 120.41 157.093 120.487C157.453 120.56 157.756 120.651 158.002 120.761L157.64 121.725C157.047 121.492 156.491 121.376 155.972 121.376C155.17 121.376 154.575 121.624 154.188 122.121C153.8 122.618 153.606 123.388 153.606 124.432ZM164.318 120.508V125.799C164.318 126.273 164.4 126.626 164.564 126.858C164.733 127.086 165.016 127.2 165.412 127.2C165.581 127.2 165.779 127.187 166.007 127.159C166.239 127.127 166.417 127.095 166.54 127.063V127.932C166.399 127.991 166.207 128.039 165.966 128.075C165.729 128.116 165.496 128.137 165.269 128.137C164.539 128.137 164.008 127.945 163.676 127.562C163.348 127.18 163.184 126.603 163.184 125.833V120.508H164.318ZM174.436 124.527C174.436 125.243 174.294 125.876 174.012 126.428C173.734 126.975 173.333 127.396 172.809 127.692C172.289 127.989 171.678 128.137 170.977 128.137C169.906 128.137 169.069 127.809 168.468 127.152C167.866 126.496 167.565 125.589 167.565 124.432C167.565 121.816 168.914 120.508 171.612 120.508H175.023V121.479H173.219C174.03 122.24 174.436 123.256 174.436 124.527ZM168.741 124.432C168.741 125.316 168.935 125.997 169.322 126.476C169.71 126.95 170.27 127.187 171.004 127.187C171.729 127.187 172.285 126.963 172.672 126.517C173.064 126.065 173.26 125.425 173.26 124.596C173.26 123.365 172.863 122.326 172.07 121.479H171.626C170.614 121.479 169.881 121.715 169.425 122.189C168.969 122.663 168.741 123.411 168.741 124.432ZM181.62 120.508V121.479H178.667V125.703C178.667 126.719 179.134 127.228 180.068 127.228C180.283 127.228 180.501 127.214 180.725 127.187C180.948 127.155 181.121 127.123 181.244 127.091V127.945C181.085 128.014 180.877 128.068 180.622 128.109C180.371 128.15 180.137 128.171 179.918 128.171C179.093 128.171 178.487 127.977 178.1 127.59C177.712 127.202 177.519 126.621 177.519 125.847V121.479H175.488V120.973L176.5 120.508H181.62ZM189.666 124.247C189.666 125.468 189.358 126.423 188.743 127.111C188.128 127.795 187.278 128.137 186.193 128.137C185.523 128.137 184.929 127.979 184.409 127.665C183.89 127.351 183.489 126.899 183.206 126.312C182.924 125.724 182.782 125.035 182.782 124.247C182.782 123.026 183.088 122.076 183.698 121.396C184.309 120.713 185.157 120.371 186.241 120.371C187.289 120.371 188.121 120.72 188.736 121.417C189.356 122.114 189.666 123.058 189.666 124.247ZM183.958 124.247C183.958 125.204 184.149 125.933 184.532 126.435C184.915 126.936 185.478 127.187 186.221 127.187C186.964 127.187 187.526 126.938 187.909 126.441C188.297 125.94 188.49 125.209 188.49 124.247C188.49 123.295 188.297 122.572 187.909 122.08C187.526 121.583 186.959 121.335 186.207 121.335C185.464 121.335 184.904 121.579 184.525 122.066C184.147 122.554 183.958 123.281 183.958 124.247ZM198.129 124.247C198.129 125.482 197.837 126.439 197.254 127.118C196.671 127.797 195.848 128.137 194.786 128.137C193.97 128.137 193.289 127.923 192.742 127.494H192.688C192.724 127.772 192.742 128.394 192.742 129.36V131.363H191.594V124.151C191.594 122.939 191.879 122.007 192.448 121.355C193.022 120.699 193.843 120.371 194.909 120.371C195.907 120.371 196.693 120.717 197.268 121.41C197.842 122.098 198.129 123.044 198.129 124.247ZM194.854 121.335C194.134 121.335 193.601 121.572 193.255 122.046C192.913 122.515 192.742 123.226 192.742 124.179V126.489C193.298 126.954 193.993 127.187 194.827 127.187C195.552 127.187 196.087 126.95 196.434 126.476C196.78 126.002 196.953 125.259 196.953 124.247C196.953 123.272 196.789 122.543 196.461 122.06C196.133 121.576 195.597 121.335 194.854 121.335ZM201.205 120.508V125.799C201.205 126.273 201.287 126.626 201.451 126.858C201.62 127.086 201.902 127.2 202.299 127.2C202.467 127.2 202.666 127.187 202.894 127.159C203.126 127.127 203.304 127.095 203.427 127.063V127.932C203.285 127.991 203.094 128.039 202.853 128.075C202.616 128.116 202.383 128.137 202.155 128.137C201.426 128.137 200.895 127.945 200.562 127.562C200.234 127.18 200.07 126.603 200.07 125.833V120.508H201.205ZM209.237 120.521H210.652L207.822 123.816L210.851 128H209.477L207.009 124.555L206.086 125.327V128H204.869V120.521H206.086V122.456C206.086 123.213 206.059 123.848 206.004 124.363L209.237 120.521ZM218.596 124.247C218.596 125.468 218.288 126.423 217.673 127.111C217.058 127.795 216.208 128.137 215.123 128.137C214.453 128.137 213.858 127.979 213.339 127.665C212.819 127.351 212.418 126.899 212.136 126.312C211.853 125.724 211.712 125.035 211.712 124.247C211.712 123.026 212.017 122.076 212.628 121.396C213.239 120.713 214.086 120.371 215.171 120.371C216.219 120.371 217.051 120.72 217.666 121.417C218.286 122.114 218.596 123.058 218.596 124.247ZM212.888 124.247C212.888 125.204 213.079 125.933 213.462 126.435C213.845 126.936 214.408 127.187 215.15 127.187C215.893 127.187 216.456 126.938 216.839 126.441C217.226 125.94 217.42 125.209 217.42 124.247C217.42 123.295 217.226 122.572 216.839 122.08C216.456 121.583 215.889 121.335 215.137 121.335C214.394 121.335 213.833 121.579 213.455 122.066C213.077 122.554 212.888 123.281 212.888 124.247ZM214.624 119.318C214.747 118.99 214.868 118.569 214.986 118.054C215.109 117.534 215.198 117.088 215.253 116.714H216.511V116.871C216.429 117.208 216.262 117.648 216.012 118.19C215.766 118.728 215.531 119.17 215.308 119.517H214.624V119.318ZM220.428 127.275C220.428 126.97 220.496 126.74 220.633 126.585C220.774 126.425 220.975 126.346 221.234 126.346C221.499 126.346 221.704 126.425 221.85 126.585C222 126.74 222.075 126.97 222.075 127.275C222.075 127.572 222 127.799 221.85 127.959C221.699 128.118 221.494 128.198 221.234 128.198C221.002 128.198 220.808 128.128 220.653 127.986C220.503 127.84 220.428 127.604 220.428 127.275Z" fill="black"/>
<g clip-path="url(#clip0)">
<path d="M56 46.7742H33.6289V83.3226H56V46.7742Z" fill="#E3E1FF"/>
<path d="M33.4519 49.2858L33.0918 49.2622L33.0662 49.6407H33.4519V49.2858ZM33.7098 45.4802V45.1254H33.3723L33.3498 45.4566L33.7098 45.4802ZM46.4545 45.4802V45.835H46.8154V45.4802H46.4545ZM46.4545 36.8033H46.8154V36.4485H46.4545V36.8033ZM25.1962 36.8033V36.4485H24.8599L24.8362 36.7783L25.1962 36.8033ZM23.6998 57.6583L23.3399 57.6333L23.3126 58.0131H23.6998V57.6583ZM29.7884 60.5505L30.1336 60.4473L30.002 60.0222L29.6096 60.2422L29.7884 60.5505ZM21.7391 65.0666L21.5603 64.7582L21.29 64.9101L21.4028 65.195L21.7391 65.0666ZM36.0317 48.931H33.4519V49.6407H36.0317V48.931ZM33.8119 49.3094L34.0699 45.5038L33.3498 45.4566L33.0918 49.2622L33.8119 49.3094ZM33.7098 45.835H46.4545V45.1254H33.7098V45.835ZM46.8154 45.4802V36.8033H46.0937V45.4802H46.8154ZM46.4545 36.4485H25.1962V37.1582H46.4545V36.4485ZM24.8362 36.7783L23.3399 57.6333L24.0598 57.6832L25.5561 36.8283L24.8362 36.7783ZM23.6998 58.0131H35.2578V57.3034H23.6998V58.0131ZM35.2578 58.0131C36.4129 58.0131 37.3011 58.3032 37.8946 58.798C38.4803 59.2863 38.8184 60.0059 38.8184 60.9565H39.54C39.54 59.8267 39.1299 58.8974 38.3612 58.2565C37.6003 57.6222 36.5278 57.3034 35.2578 57.3034V58.0131ZM38.8184 60.9565C38.8184 61.8592 38.5039 62.5788 37.9122 63.0784C37.3136 63.5837 36.3883 63.8999 35.103 63.8999V64.6095C36.5007 64.6095 37.6135 64.2661 38.3823 63.6171C39.1579 62.962 39.54 62.0327 39.54 60.9565H38.8184ZM35.103 63.8999C33.5818 63.8999 32.519 63.5692 31.7552 62.9957C30.9905 62.422 30.4815 61.5714 30.1336 60.4473L29.4432 60.6538C29.8177 61.8638 30.3922 62.8655 31.3173 63.5599C32.2434 64.2551 33.4767 64.6095 35.103 64.6095V63.8999ZM29.6096 60.2422L21.5603 64.7582L21.9179 65.3749L29.9672 60.8589L29.6096 60.2422ZM21.4028 65.195C23.6383 70.8483 28.8584 73.4386 35.103 73.4386V72.729C29.0672 72.729 24.1741 70.2451 22.0754 64.9381L21.4028 65.195ZM35.103 73.4386C38.7293 73.4386 42.1456 72.4053 44.662 70.3168C47.1864 68.2218 48.7761 65.0882 48.7761 60.9565H48.0544C48.0544 64.8927 46.5482 67.823 44.1966 69.7746C41.837 71.7326 38.5972 72.729 35.103 72.729V73.4386ZM48.7761 60.9565C48.7761 56.9582 47.3203 53.9389 44.9764 51.9237C42.6395 49.9144 39.4527 48.931 36.0317 48.931V49.6407C39.3185 49.6407 42.3235 50.5854 44.5014 52.458C46.6723 54.3244 48.0544 57.1405 48.0544 60.9565H48.7761Z" fill="black"/>
<path d="M39.279 52.1246H36.6991L36.957 48.319H49.7017V39.6421H28.4434L26.947 60.497H38.505C40.9301 60.497 42.4264 61.7148 42.4264 63.7953C42.4264 65.7742 41.0333 67.0935 38.3502 67.0935C35.2027 67.0935 33.758 65.7234 33.0356 63.3893L24.9863 67.9054C27.1534 73.3855 32.21 75.9226 38.3502 75.9226C45.4707 75.9226 51.6625 71.8632 51.6625 63.7953C51.6625 55.981 45.9867 52.1246 39.279 52.1246Z" fill="black"/>
</g>
<defs>
<clipPath id="clip0">
<path d="M21 23H56V89H21V23Z" fill="white"/>
</clipPath>
</defs>
</svg>
